<?xml version="1.0" encoding="utf-8" standalone="no"?>
<!DOCTYPE svg PUBLIC "-//W3C//DTD SVG 1.1//EN"
  "http://www.w3.org/Graphics/SVG/1.1/DTD/svg11.dtd">
<!-- Created with matplotlib (http://matplotlib.org/) -->
<svg height="180pt" version="1.1" viewBox="0 0 360 180" width="360pt" xmlns="http://www.w3.org/2000/svg" xmlns:xlink="http://www.w3.org/1999/xlink">
 <defs>
  <style type="text/css">
*{stroke-linecap:butt;stroke-linejoin:round;}
  </style>
 </defs>
 <g id="figure_1">
  <g id="patch_1">
   <path d="M 0 180 
L 360 180 
L 360 0 
L 0 0 
z
" style="fill:#ffffff;"/>
  </g>
  <g id="axes_1">
   <g id="patch_2">
    <path d="M 45.589474 140.104 
L 351.36 140.104 
L 351.36 8.64 
L 45.589474 8.64 
z
" style="fill:#ffffff;"/>
   </g>
   <g id="matplotlib.axis_1">
    <g id="xtick_1">
     <g id="line2d_1"/>
     <g id="text_1">
      <!-- $\mathdefault{10^{0}}$ -->
      <defs>
       <path d="M 12.40625 8.296875 
L 28.515625 8.296875 
L 28.515625 63.921875 
L 10.984375 60.40625 
L 10.984375 69.390625 
L 28.421875 72.90625 
L 38.28125 72.90625 
L 38.28125 8.296875 
L 54.390625 8.296875 
L 54.390625 0 
L 12.40625 0 
z
" id="DejaVuSans-31"/>
       <path d="M 31.78125 66.40625 
Q 24.171875 66.40625 20.328125 58.90625 
Q 16.5 51.421875 16.5 36.375 
Q 16.5 21.390625 20.328125 13.890625 
Q 24.171875 6.390625 31.78125 6.390625 
Q 39.453125 6.390625 43.28125 13.890625 
Q 47.125 21.390625 47.125 36.375 
Q 47.125 51.421875 43.28125 58.90625 
Q 39.453125 66.40625 31.78125 66.40625 
z
M 31.78125 74.21875 
Q 44.046875 74.21875 50.515625 64.515625 
Q 56.984375 54.828125 56.984375 36.375 
Q 56.984375 17.96875 50.515625 8.265625 
Q 44.046875 -1.421875 31.78125 -1.421875 
Q 19.53125 -1.421875 13.0625 8.265625 
Q 6.59375 17.96875 6.59375 36.375 
Q 6.59375 54.828125 13.0625 64.515625 
Q 19.53125 74.21875 31.78125 74.21875 
z
" id="DejaVuSans-30"/>
      </defs>
      <g style="fill:#262626;" transform="translate(50.688134 154.702438)scale(0.1 -0.1)">
       <use transform="translate(0 0.765625)" xlink:href="#DejaVuSans-31"/>
       <use transform="translate(63.623047 0.765625)" xlink:href="#DejaVuSans-30"/>
       <use transform="translate(128.203125 39.046875)scale(0.7)" xlink:href="#DejaVuSans-30"/>
      </g>
     </g>
    </g>
    <g id="xtick_2">
     <g id="line2d_2"/>
     <g id="text_2">
      <!-- $\mathdefault{10^{1}}$ -->
      <g style="fill:#262626;" transform="translate(136.547424 154.702438)scale(0.1 -0.1)">
       <use transform="translate(0 0.684375)" xlink:href="#DejaVuSans-31"/>
       <use transform="translate(63.623047 0.684375)" xlink:href="#DejaVuSans-30"/>
       <use transform="translate(128.203125 38.965625)scale(0.7)" xlink:href="#DejaVuSans-31"/>
      </g>
     </g>
    </g>
    <g id="xtick_3">
     <g id="line2d_3"/>
     <g id="text_3">
      <!-- $\mathdefault{10^{2}}$ -->
      <defs>
       <path d="M 19.1875 8.296875 
L 53.609375 8.296875 
L 53.609375 0 
L 7.328125 0 
L 7.328125 8.296875 
Q 12.9375 14.109375 22.625 23.890625 
Q 32.328125 33.6875 34.8125 36.53125 
Q 39.546875 41.84375 41.421875 45.53125 
Q 43.3125 49.21875 43.3125 52.78125 
Q 43.3125 58.59375 39.234375 62.25 
Q 35.15625 65.921875 28.609375 65.921875 
Q 23.96875 65.921875 18.8125 64.3125 
Q 13.671875 62.703125 7.8125 59.421875 
L 7.8125 69.390625 
Q 13.765625 71.78125 18.9375 73 
Q 24.125 74.21875 28.421875 74.21875 
Q 39.75 74.21875 46.484375 68.546875 
Q 53.21875 62.890625 53.21875 53.421875 
Q 53.21875 48.921875 51.53125 44.890625 
Q 49.859375 40.875 45.40625 35.40625 
Q 44.1875 33.984375 37.640625 27.21875 
Q 31.109375 20.453125 19.1875 8.296875 
z
" id="DejaVuSans-32"/>
      </defs>
      <g style="fill:#262626;" transform="translate(222.406713 154.702438)scale(0.1 -0.1)">
       <use transform="translate(0 0.765625)" xlink:href="#DejaVuSans-31"/>
       <use transform="translate(63.623047 0.765625)" xlink:href="#DejaVuSans-30"/>
       <use transform="translate(128.203125 39.046875)scale(0.7)" xlink:href="#DejaVuSans-32"/>
      </g>
     </g>
    </g>
    <g id="xtick_4">
     <g id="line2d_4"/>
     <g id="text_4">
      <!-- $\mathdefault{10^{3}}$ -->
      <defs>
       <path d="M 40.578125 39.3125 
Q 47.65625 37.796875 51.625 33 
Q 55.609375 28.21875 55.609375 21.1875 
Q 55.609375 10.40625 48.1875 4.484375 
Q 40.765625 -1.421875 27.09375 -1.421875 
Q 22.515625 -1.421875 17.65625 -0.515625 
Q 12.796875 0.390625 7.625 2.203125 
L 7.625 11.71875 
Q 11.71875 9.328125 16.59375 8.109375 
Q 21.484375 6.890625 26.8125 6.890625 
Q 36.078125 6.890625 40.9375 10.546875 
Q 45.796875 14.203125 45.796875 21.1875 
Q 45.796875 27.640625 41.28125 31.265625 
Q 36.765625 34.90625 28.71875 34.90625 
L 20.21875 34.90625 
L 20.21875 43.015625 
L 29.109375 43.015625 
Q 36.375 43.015625 40.234375 45.921875 
Q 44.09375 48.828125 44.09375 54.296875 
Q 44.09375 59.90625 40.109375 62.90625 
Q 36.140625 65.921875 28.71875 65.921875 
Q 24.65625 65.921875 20.015625 65.03125 
Q 15.375 64.15625 9.8125 62.3125 
L 9.8125 71.09375 
Q 15.4375 72.65625 20.34375 73.4375 
Q 25.25 74.21875 29.59375 74.21875 
Q 40.828125 74.21875 47.359375 69.109375 
Q 53.90625 64.015625 53.90625 55.328125 
Q 53.90625 49.265625 50.4375 45.09375 
Q 46.96875 40.921875 40.578125 39.3125 
z
" id="DejaVuSans-33"/>
      </defs>
      <g style="fill:#262626;" transform="translate(308.266003 154.702438)scale(0.1 -0.1)">
       <use transform="translate(0 0.765625)" xlink:href="#DejaVuSans-31"/>
       <use transform="translate(63.623047 0.765625)" xlink:href="#DejaVuSans-30"/>
       <use transform="translate(128.203125 39.046875)scale(0.7)" xlink:href="#DejaVuSans-33"/>
      </g>
     </g>
    </g>
    <g id="xtick_5">
     <g id="line2d_5"/>
    </g>
    <g id="xtick_6">
     <g id="line2d_6"/>
    </g>
    <g id="xtick_7">
     <g id="line2d_7"/>
    </g>
    <g id="xtick_8">
     <g id="line2d_8"/>
    </g>
    <g id="xtick_9">
     <g id="line2d_9"/>
    </g>
    <g id="xtick_10">
     <g id="line2d_10"/>
    </g>
    <g id="xtick_11">
     <g id="line2d_11"/>
    </g>
    <g id="xtick_12">
     <g id="line2d_12"/>
    </g>
    <g id="xtick_13">
     <g id="line2d_13"/>
    </g>
    <g id="xtick_14">
     <g id="line2d_14"/>
    </g>
    <g id="xtick_15">
     <g id="line2d_15"/>
    </g>
    <g id="xtick_16">
     <g id="line2d_16"/>
    </g>
    <g id="xtick_17">
     <g id="line2d_17"/>
    </g>
    <g id="xtick_18">
     <g id="line2d_18"/>
    </g>
    <g id="xtick_19">
     <g id="line2d_19"/>
    </g>
    <g id="xtick_20">
     <g id="line2d_20"/>
    </g>
    <g id="xtick_21">
     <g id="line2d_21"/>
    </g>
    <g id="xtick_22">
     <g id="line2d_22"/>
    </g>
    <g id="xtick_23">
     <g id="line2d_23"/>
    </g>
    <g id="xtick_24">
     <g id="line2d_24"/>
    </g>
    <g id="xtick_25">
     <g id="line2d_25"/>
    </g>
    <g id="xtick_26">
     <g id="line2d_26"/>
    </g>
    <g id="xtick_27">
     <g id="line2d_27"/>
    </g>
    <g id="xtick_28">
     <g id="line2d_28"/>
    </g>
    <g id="xtick_29">
     <g id="line2d_29"/>
    </g>
    <g id="xtick_30">
     <g id="line2d_30"/>
    </g>
    <g id="xtick_31">
     <g id="line2d_31"/>
    </g>
    <g id="xtick_32">
     <g id="line2d_32"/>
    </g>
    <g id="text_5">
     <!-- Sanitized Samples -->
     <defs>
      <path d="M 53.515625 70.515625 
L 53.515625 60.890625 
Q 47.90625 63.578125 42.921875 64.890625 
Q 37.9375 66.21875 33.296875 66.21875 
Q 25.25 66.21875 20.875 63.09375 
Q 16.5 59.96875 16.5 54.203125 
Q 16.5 49.359375 19.40625 46.890625 
Q 22.3125 44.4375 30.421875 42.921875 
L 36.375 41.703125 
Q 47.40625 39.59375 52.65625 34.296875 
Q 57.90625 29 57.90625 20.125 
Q 57.90625 9.515625 50.796875 4.046875 
Q 43.703125 -1.421875 29.984375 -1.421875 
Q 24.8125 -1.421875 18.96875 -0.25 
Q 13.140625 0.921875 6.890625 3.21875 
L 6.890625 13.375 
Q 12.890625 10.015625 18.65625 8.296875 
Q 24.421875 6.59375 29.984375 6.59375 
Q 38.421875 6.59375 43.015625 9.90625 
Q 47.609375 13.234375 47.609375 19.390625 
Q 47.609375 24.75 44.3125 27.78125 
Q 41.015625 30.8125 33.5 32.328125 
L 27.484375 33.5 
Q 16.453125 35.6875 11.515625 40.375 
Q 6.59375 45.0625 6.59375 53.421875 
Q 6.59375 63.09375 13.40625 68.65625 
Q 20.21875 74.21875 32.171875 74.21875 
Q 37.3125 74.21875 42.625 73.28125 
Q 47.953125 72.359375 53.515625 70.515625 
z
" id="DejaVuSans-53"/>
      <path d="M 34.28125 27.484375 
Q 23.390625 27.484375 19.1875 25 
Q 14.984375 22.515625 14.984375 16.5 
Q 14.984375 11.71875 18.140625 8.90625 
Q 21.296875 6.109375 26.703125 6.109375 
Q 34.1875 6.109375 38.703125 11.40625 
Q 43.21875 16.703125 43.21875 25.484375 
L 43.21875 27.484375 
z
M 52.203125 31.203125 
L 52.203125 0 
L 43.21875 0 
L 43.21875 8.296875 
Q 40.140625 3.328125 35.546875 0.953125 
Q 30.953125 -1.421875 24.3125 -1.421875 
Q 15.921875 -1.421875 10.953125 3.296875 
Q 6 8.015625 6 15.921875 
Q 6 25.140625 12.171875 29.828125 
Q 18.359375 34.515625 30.609375 34.515625 
L 43.21875 34.515625 
L 43.21875 35.40625 
Q 43.21875 41.609375 39.140625 45 
Q 35.0625 48.390625 27.6875 48.390625 
Q 23 48.390625 18.546875 47.265625 
Q 14.109375 46.140625 10.015625 43.890625 
L 10.015625 52.203125 
Q 14.9375 54.109375 19.578125 55.046875 
Q 24.21875 56 28.609375 56 
Q 40.484375 56 46.34375 49.84375 
Q 52.203125 43.703125 52.203125 31.203125 
z
" id="DejaVuSans-61"/>
      <path d="M 54.890625 33.015625 
L 54.890625 0 
L 45.90625 0 
L 45.90625 32.71875 
Q 45.90625 40.484375 42.875 44.328125 
Q 39.84375 48.1875 33.796875 48.1875 
Q 26.515625 48.1875 22.3125 43.546875 
Q 18.109375 38.921875 18.109375 30.90625 
L 18.109375 0 
L 9.078125 0 
L 9.078125 54.6875 
L 18.109375 54.6875 
L 18.109375 46.1875 
Q 21.34375 51.125 25.703125 53.5625 
Q 30.078125 56 35.796875 56 
Q 45.21875 56 50.046875 50.171875 
Q 54.890625 44.34375 54.890625 33.015625 
z
" id="DejaVuSans-6e"/>
      <path d="M 9.421875 54.6875 
L 18.40625 54.6875 
L 18.40625 0 
L 9.421875 0 
z
M 9.421875 75.984375 
L 18.40625 75.984375 
L 18.40625 64.59375 
L 9.421875 64.59375 
z
" id="DejaVuSans-69"/>
      <path d="M 18.3125 70.21875 
L 18.3125 54.6875 
L 36.8125 54.6875 
L 36.8125 47.703125 
L 18.3125 47.703125 
L 18.3125 18.015625 
Q 18.3125 11.328125 20.140625 9.421875 
Q 21.96875 7.515625 27.59375 7.515625 
L 36.8125 7.515625 
L 36.8125 0 
L 27.59375 0 
Q 17.1875 0 13.234375 3.875 
Q 9.28125 7.765625 9.28125 18.015625 
L 9.28125 47.703125 
L 2.6875 47.703125 
L 2.6875 54.6875 
L 9.28125 54.6875 
L 9.28125 70.21875 
z
" id="DejaVuSans-74"/>
      <path d="M 5.515625 54.6875 
L 48.1875 54.6875 
L 48.1875 46.484375 
L 14.40625 7.171875 
L 48.1875 7.171875 
L 48.1875 0 
L 4.296875 0 
L 4.296875 8.203125 
L 38.09375 47.515625 
L 5.515625 47.515625 
z
" id="DejaVuSans-7a"/>
      <path d="M 56.203125 29.59375 
L 56.203125 25.203125 
L 14.890625 25.203125 
Q 15.484375 15.921875 20.484375 11.0625 
Q 25.484375 6.203125 34.421875 6.203125 
Q 39.59375 6.203125 44.453125 7.46875 
Q 49.3125 8.734375 54.109375 11.28125 
L 54.109375 2.78125 
Q 49.265625 0.734375 44.1875 -0.34375 
Q 39.109375 -1.421875 33.890625 -1.421875 
Q 20.796875 -1.421875 13.15625 6.1875 
Q 5.515625 13.8125 5.515625 26.8125 
Q 5.515625 40.234375 12.765625 48.109375 
Q 20.015625 56 32.328125 56 
Q 43.359375 56 49.78125 48.890625 
Q 56.203125 41.796875 56.203125 29.59375 
z
M 47.21875 32.234375 
Q 47.125 39.59375 43.09375 43.984375 
Q 39.0625 48.390625 32.421875 48.390625 
Q 24.90625 48.390625 20.390625 44.140625 
Q 15.875 39.890625 15.1875 32.171875 
z
" id="DejaVuSans-65"/>
      <path d="M 45.40625 46.390625 
L 45.40625 75.984375 
L 54.390625 75.984375 
L 54.390625 0 
L 45.40625 0 
L 45.40625 8.203125 
Q 42.578125 3.328125 38.25 0.953125 
Q 33.9375 -1.421875 27.875 -1.421875 
Q 17.96875 -1.421875 11.734375 6.484375 
Q 5.515625 14.40625 5.515625 27.296875 
Q 5.515625 40.1875 11.734375 48.09375 
Q 17.96875 56 27.875 56 
Q 33.9375 56 38.25 53.625 
Q 42.578125 51.265625 45.40625 46.390625 
z
M 14.796875 27.296875 
Q 14.796875 17.390625 18.875 11.75 
Q 22.953125 6.109375 30.078125 6.109375 
Q 37.203125 6.109375 41.296875 11.75 
Q 45.40625 17.390625 45.40625 27.296875 
Q 45.40625 37.203125 41.296875 42.84375 
Q 37.203125 48.484375 30.078125 48.484375 
Q 22.953125 48.484375 18.875 42.84375 
Q 14.796875 37.203125 14.796875 27.296875 
z
" id="DejaVuSans-64"/>
      <path id="DejaVuSans-20"/>
      <path d="M 52 44.1875 
Q 55.375 50.25 60.0625 53.125 
Q 64.75 56 71.09375 56 
Q 79.640625 56 84.28125 50.015625 
Q 88.921875 44.046875 88.921875 33.015625 
L 88.921875 0 
L 79.890625 0 
L 79.890625 32.71875 
Q 79.890625 40.578125 77.09375 44.375 
Q 74.3125 48.1875 68.609375 48.1875 
Q 61.625 48.1875 57.5625 43.546875 
Q 53.515625 38.921875 53.515625 30.90625 
L 53.515625 0 
L 44.484375 0 
L 44.484375 32.71875 
Q 44.484375 40.625 41.703125 44.40625 
Q 38.921875 48.1875 33.109375 48.1875 
Q 26.21875 48.1875 22.15625 43.53125 
Q 18.109375 38.875 18.109375 30.90625 
L 18.109375 0 
L 9.078125 0 
L 9.078125 54.6875 
L 18.109375 54.6875 
L 18.109375 46.1875 
Q 21.1875 51.21875 25.484375 53.609375 
Q 29.78125 56 35.6875 56 
Q 41.65625 56 45.828125 52.96875 
Q 50 49.953125 52 44.1875 
z
" id="DejaVuSans-6d"/>
      <path d="M 18.109375 8.203125 
L 18.109375 -20.796875 
L 9.078125 -20.796875 
L 9.078125 54.6875 
L 18.109375 54.6875 
L 18.109375 46.390625 
Q 20.953125 51.265625 25.265625 53.625 
Q 29.59375 56 35.59375 56 
Q 45.5625 56 51.78125 48.09375 
Q 58.015625 40.1875 58.015625 27.296875 
Q 58.015625 14.40625 51.78125 6.484375 
Q 45.5625 -1.421875 35.59375 -1.421875 
Q 29.59375 -1.421875 25.265625 0.953125 
Q 20.953125 3.328125 18.109375 8.203125 
z
M 48.6875 27.296875 
Q 48.6875 37.203125 44.609375 42.84375 
Q 40.53125 48.484375 33.40625 48.484375 
Q 26.265625 48.484375 22.1875 42.84375 
Q 18.109375 37.203125 18.109375 27.296875 
Q 18.109375 17.390625 22.1875 11.75 
Q 26.265625 6.109375 33.40625 6.109375 
Q 40.53125 6.109375 44.609375 11.75 
Q 48.6875 17.390625 48.6875 27.296875 
z
" id="DejaVuSans-70"/>
      <path d="M 9.421875 75.984375 
L 18.40625 75.984375 
L 18.40625 0 
L 9.421875 0 
z
" id="DejaVuSans-6c"/>
      <path d="M 44.28125 53.078125 
L 44.28125 44.578125 
Q 40.484375 46.53125 36.375 47.5 
Q 32.28125 48.484375 27.875 48.484375 
Q 21.1875 48.484375 17.84375 46.4375 
Q 14.5 44.390625 14.5 40.28125 
Q 14.5 37.15625 16.890625 35.375 
Q 19.28125 33.59375 26.515625 31.984375 
L 29.59375 31.296875 
Q 39.15625 29.25 43.1875 25.515625 
Q 47.21875 21.78125 47.21875 15.09375 
Q 47.21875 7.46875 41.1875 3.015625 
Q 35.15625 -1.421875 24.609375 -1.421875 
Q 20.21875 -1.421875 15.453125 -0.5625 
Q 10.6875 0.296875 5.421875 2 
L 5.421875 11.28125 
Q 10.40625 8.6875 15.234375 7.390625 
Q 20.0625 6.109375 24.8125 6.109375 
Q 31.15625 6.109375 34.5625 8.28125 
Q 37.984375 10.453125 37.984375 14.40625 
Q 37.984375 18.0625 35.515625 20.015625 
Q 33.0625 21.96875 24.703125 23.78125 
L 21.578125 24.515625 
Q 13.234375 26.265625 9.515625 29.90625 
Q 5.8125 33.546875 5.8125 39.890625 
Q 5.8125 47.609375 11.28125 51.796875 
Q 16.75 56 26.8125 56 
Q 31.78125 56 36.171875 55.265625 
Q 40.578125 54.546875 44.28125 53.078125 
z
" id="DejaVuSans-73"/>
     </defs>
     <g style="fill:#262626;" transform="translate(147.915987 169.140406)scale(0.11 -0.11)">
      <use xlink:href="#DejaVuSans-53"/>
      <use x="63.476562" xlink:href="#DejaVuSans-61"/>
      <use x="124.755859" xlink:href="#DejaVuSans-6e"/>
      <use x="188.134766" xlink:href="#DejaVuSans-69"/>
      <use x="215.917969" xlink:href="#DejaVuSans-74"/>
      <use x="255.126953" xlink:href="#DejaVuSans-69"/>
      <use x="282.910156" xlink:href="#DejaVuSans-7a"/>
      <use x="335.400391" xlink:href="#DejaVuSans-65"/>
      <use x="396.923828" xlink:href="#DejaVuSans-64"/>
      <use x="460.400391" xlink:href="#DejaVuSans-20"/>
      <use x="492.1875" xlink:href="#DejaVuSans-53"/>
      <use x="555.664062" xlink:href="#DejaVuSans-61"/>
      <use x="616.943359" xlink:href="#DejaVuSans-6d"/>
      <use x="714.355469" xlink:href="#DejaVuSans-70"/>
      <use x="777.832031" xlink:href="#DejaVuSans-6c"/>
      <use x="805.615234" xlink:href="#DejaVuSans-65"/>
      <use x="867.138672" xlink:href="#DejaVuSans-73"/>
     </g>
    </g>
   </g>
   <g id="matplotlib.axis_2">
    <g id="ytick_1">
     <g id="line2d_33"/>
     <g id="text_6">
      <!-- $\mathdefault{10^{1}}$ -->
      <g style="fill:#262626;" transform="translate(20.989474 129.954228)scale(0.1 -0.1)">
       <use transform="translate(0 0.684375)" xlink:href="#DejaVuSans-31"/>
       <use transform="translate(63.623047 0.684375)" xlink:href="#DejaVuSans-30"/>
       <use transform="translate(128.203125 38.965625)scale(0.7)" xlink:href="#DejaVuSans-31"/>
      </g>
     </g>
    </g>
    <g id="ytick_2">
     <g id="line2d_34"/>
     <g id="text_7">
      <!-- $\mathdefault{10^{2}}$ -->
      <g style="fill:#262626;" transform="translate(20.989474 109.917653)scale(0.1 -0.1)">
       <use transform="translate(0 0.765625)" xlink:href="#DejaVuSans-31"/>
       <use transform="translate(63.623047 0.765625)" xlink:href="#DejaVuSans-30"/>
       <use transform="translate(128.203125 39.046875)scale(0.7)" xlink:href="#DejaVuSans-32"/>
      </g>
     </g>
    </g>
    <g id="ytick_3">
     <g id="line2d_35"/>
     <g id="text_8">
      <!-- $\mathdefault{10^{3}}$ -->
      <g style="fill:#262626;" transform="translate(20.989474 89.881078)scale(0.1 -0.1)">
       <use transform="translate(0 0.765625)" xlink:href="#DejaVuSans-31"/>
       <use transform="translate(63.623047 0.765625)" xlink:href="#DejaVuSans-30"/>
       <use transform="translate(128.203125 39.046875)scale(0.7)" xlink:href="#DejaVuSans-33"/>
      </g>
     </g>
    </g>
    <g id="ytick_4">
     <g id="line2d_36"/>
     <g id="text_9">
      <!-- $\mathdefault{10^{4}}$ -->
      <defs>
       <path d="M 37.796875 64.3125 
L 12.890625 25.390625 
L 37.796875 25.390625 
z
M 35.203125 72.90625 
L 47.609375 72.90625 
L 47.609375 25.390625 
L 58.015625 25.390625 
L 58.015625 17.1875 
L 47.609375 17.1875 
L 47.609375 0 
L 37.796875 0 
L 37.796875 17.1875 
L 4.890625 17.1875 
L 4.890625 26.703125 
z
" id="DejaVuSans-34"/>
      </defs>
      <g style="fill:#262626;" transform="translate(20.989474 69.844503)scale(0.1 -0.1)">
       <use transform="translate(0 0.684375)" xlink:href="#DejaVuSans-31"/>
       <use transform="translate(63.623047 0.684375)" xlink:href="#DejaVuSans-30"/>
       <use transform="translate(128.203125 38.965625)scale(0.7)" xlink:href="#DejaVuSans-34"/>
      </g>
     </g>
    </g>
    <g id="ytick_5">
     <g id="line2d_37"/>
     <g id="text_10">
      <!-- $\mathdefault{10^{5}}$ -->
      <defs>
       <path d="M 10.796875 72.90625 
L 49.515625 72.90625 
L 49.515625 64.59375 
L 19.828125 64.59375 
L 19.828125 46.734375 
Q 21.96875 47.46875 24.109375 47.828125 
Q 26.265625 48.1875 28.421875 48.1875 
Q 40.625 48.1875 47.75 41.5 
Q 54.890625 34.8125 54.890625 23.390625 
Q 54.890625 11.625 47.5625 5.09375 
Q 40.234375 -1.421875 26.90625 -1.421875 
Q 22.3125 -1.421875 17.546875 -0.640625 
Q 12.796875 0.140625 7.71875 1.703125 
L 7.71875 11.625 
Q 12.109375 9.234375 16.796875 8.0625 
Q 21.484375 6.890625 26.703125 6.890625 
Q 35.15625 6.890625 40.078125 11.328125 
Q 45.015625 15.765625 45.015625 23.390625 
Q 45.015625 31 40.078125 35.4375 
Q 35.15625 39.890625 26.703125 39.890625 
Q 22.75 39.890625 18.8125 39.015625 
Q 14.890625 38.140625 10.796875 36.28125 
z
" id="DejaVuSans-35"/>
      </defs>
      <g style="fill:#262626;" transform="translate(20.989474 49.807929)scale(0.1 -0.1)">
       <use transform="translate(0 0.684375)" xlink:href="#DejaVuSans-31"/>
       <use transform="translate(63.623047 0.684375)" xlink:href="#DejaVuSans-30"/>
       <use transform="translate(128.203125 38.965625)scale(0.7)" xlink:href="#DejaVuSans-35"/>
      </g>
     </g>
    </g>
    <g id="ytick_6">
     <g id="line2d_38"/>
     <g id="text_11">
      <!-- $\mathdefault{10^{6}}$ -->
      <defs>
       <path d="M 33.015625 40.375 
Q 26.375 40.375 22.484375 35.828125 
Q 18.609375 31.296875 18.609375 23.390625 
Q 18.609375 15.53125 22.484375 10.953125 
Q 26.375 6.390625 33.015625 6.390625 
Q 39.65625 6.390625 43.53125 10.953125 
Q 47.40625 15.53125 47.40625 23.390625 
Q 47.40625 31.296875 43.53125 35.828125 
Q 39.65625 40.375 33.015625 40.375 
z
M 52.59375 71.296875 
L 52.59375 62.3125 
Q 48.875 64.0625 45.09375 64.984375 
Q 41.3125 65.921875 37.59375 65.921875 
Q 27.828125 65.921875 22.671875 59.328125 
Q 17.53125 52.734375 16.796875 39.40625 
Q 19.671875 43.65625 24.015625 45.921875 
Q 28.375 48.1875 33.59375 48.1875 
Q 44.578125 48.1875 50.953125 41.515625 
Q 57.328125 34.859375 57.328125 23.390625 
Q 57.328125 12.15625 50.6875 5.359375 
Q 44.046875 -1.421875 33.015625 -1.421875 
Q 20.359375 -1.421875 13.671875 8.265625 
Q 6.984375 17.96875 6.984375 36.375 
Q 6.984375 53.65625 15.1875 63.9375 
Q 23.390625 74.21875 37.203125 74.21875 
Q 40.921875 74.21875 44.703125 73.484375 
Q 48.484375 72.75 52.59375 71.296875 
z
" id="DejaVuSans-36"/>
      </defs>
      <g style="fill:#262626;" transform="translate(20.989474 29.771354)scale(0.1 -0.1)">
       <use transform="translate(0 0.765625)" xlink:href="#DejaVuSans-31"/>
       <use transform="translate(63.623047 0.765625)" xlink:href="#DejaVuSans-30"/>
       <use transform="translate(128.203125 39.046875)scale(0.7)" xlink:href="#DejaVuSans-36"/>
      </g>
     </g>
    </g>
    <g id="ytick_7">
     <g id="line2d_39"/>
    </g>
    <g id="ytick_8">
     <g id="line2d_40"/>
    </g>
    <g id="ytick_9">
     <g id="line2d_41"/>
    </g>
    <g id="ytick_10">
     <g id="line2d_42"/>
    </g>
    <g id="ytick_11">
     <g id="line2d_43"/>
    </g>
    <g id="ytick_12">
     <g id="line2d_44"/>
    </g>
    <g id="ytick_13">
     <g id="line2d_45"/>
    </g>
    <g id="ytick_14">
     <g id="line2d_46"/>
    </g>
    <g id="ytick_15">
     <g id="line2d_47"/>
    </g>
    <g id="ytick_16">
     <g id="line2d_48"/>
    </g>
    <g id="ytick_17">
     <g id="line2d_49"/>
    </g>
    <g id="ytick_18">
     <g id="line2d_50"/>
    </g>
    <g id="ytick_19">
     <g id="line2d_51"/>
    </g>
    <g id="ytick_20">
     <g id="line2d_52"/>
    </g>
    <g id="ytick_21">
     <g id="line2d_53"/>
    </g>
    <g id="ytick_22">
     <g id="line2d_54"/>
    </g>
    <g id="ytick_23">
     <g id="line2d_55"/>
    </g>
    <g id="ytick_24">
     <g id="line2d_56"/>
    </g>
    <g id="ytick_25">
     <g id="line2d_57"/>
    </g>
    <g id="ytick_26">
     <g id="line2d_58"/>
    </g>
    <g id="ytick_27">
     <g id="line2d_59"/>
    </g>
    <g id="ytick_28">
     <g id="line2d_60"/>
    </g>
    <g id="ytick_29">
     <g id="line2d_61"/>
    </g>
    <g id="ytick_30">
     <g id="line2d_62"/>
    </g>
    <g id="ytick_31">
     <g id="line2d_63"/>
    </g>
    <g id="ytick_32">
     <g id="line2d_64"/>
    </g>
    <g id="ytick_33">
     <g id="line2d_65"/>
    </g>
    <g id="ytick_34">
     <g id="line2d_66"/>
    </g>
    <g id="ytick_35">
     <g id="line2d_67"/>
    </g>
    <g id="ytick_36">
     <g id="line2d_68"/>
    </g>
    <g id="ytick_37">
     <g id="line2d_69"/>
    </g>
    <g id="ytick_38">
     <g id="line2d_70"/>
    </g>
    <g id="ytick_39">
     <g id="line2d_71"/>
    </g>
    <g id="ytick_40">
     <g id="line2d_72"/>
    </g>
    <g id="ytick_41">
     <g id="line2d_73"/>
    </g>
    <g id="ytick_42">
     <g id="line2d_74"/>
    </g>
    <g id="ytick_43">
     <g id="line2d_75"/>
    </g>
    <g id="ytick_44">
     <g id="line2d_76"/>
    </g>
    <g id="ytick_45">
     <g id="line2d_77"/>
    </g>
    <g id="ytick_46">
     <g id="line2d_78"/>
    </g>
    <g id="ytick_47">
     <g id="line2d_79"/>
    </g>
    <g id="ytick_48">
     <g id="line2d_80"/>
    </g>
    <g id="ytick_49">
     <g id="line2d_81"/>
    </g>
    <g id="ytick_50">
     <g id="line2d_82"/>
    </g>
    <g id="ytick_51">
     <g id="line2d_83"/>
    </g>
    <g id="ytick_52">
     <g id="line2d_84"/>
    </g>
    <g id="ytick_53">
     <g id="line2d_85"/>
    </g>
    <g id="ytick_54">
     <g id="line2d_86"/>
    </g>
    <g id="ytick_55">
     <g id="line2d_87"/>
    </g>
    <g id="ytick_56">
     <g id="line2d_88"/>
    </g>
    <g id="ytick_57">
     <g id="line2d_89"/>
    </g>
    <g id="ytick_58">
     <g id="line2d_90"/>
    </g>
    <g id="ytick_59">
     <g id="line2d_91"/>
    </g>
    <g id="ytick_60">
     <g id="line2d_92"/>
    </g>
    <g id="text_12">
     <!-- Sample Attempts -->
     <defs>
      <path d="M 34.1875 63.1875 
L 20.796875 26.90625 
L 47.609375 26.90625 
z
M 28.609375 72.90625 
L 39.796875 72.90625 
L 67.578125 0 
L 57.328125 0 
L 50.6875 18.703125 
L 17.828125 18.703125 
L 11.1875 0 
L 0.78125 0 
z
" id="DejaVuSans-41"/>
     </defs>
     <g style="fill:#262626;" transform="translate(14.701817 122.071609)rotate(-90)scale(0.11 -0.11)">
      <use xlink:href="#DejaVuSans-53"/>
      <use x="63.476562" xlink:href="#DejaVuSans-61"/>
      <use x="124.755859" xlink:href="#DejaVuSans-6d"/>
      <use x="222.167969" xlink:href="#DejaVuSans-70"/>
      <use x="285.644531" xlink:href="#DejaVuSans-6c"/>
      <use x="313.427734" xlink:href="#DejaVuSans-65"/>
      <use x="374.951172" xlink:href="#DejaVuSans-20"/>
      <use x="406.738281" xlink:href="#DejaVuSans-41"/>
      <use x="475.130859" xlink:href="#DejaVuSans-74"/>
      <use x="514.339844" xlink:href="#DejaVuSans-74"/>
      <use x="553.548828" xlink:href="#DejaVuSans-65"/>
      <use x="615.072266" xlink:href="#DejaVuSans-6d"/>
      <use x="712.484375" xlink:href="#DejaVuSans-70"/>
      <use x="775.960938" xlink:href="#DejaVuSans-74"/>
      <use x="815.169922" xlink:href="#DejaVuSans-73"/>
     </g>
    </g>
   </g>
   <g id="line2d_93">
    <path clip-path="url(#p2a5e681d30)" d="M -1 32.809255 
L 59.488134 32.803194 
L 85.334355 31.300337 
L 100.453426 23.214875 
L 111.180577 21.015826 
L 119.501202 20.77923 
" style="fill:none;stroke:#1f77b4;stroke-linecap:round;stroke-width:1.75;"/>
   </g>
   <g id="line2d_94">
    <path clip-path="url(#p2a5e681d30)" d="M -1 111.658842 
L 59.488134 111.643001 
L 85.334355 104.678165 
L 100.453426 89.285586 
L 111.180577 87.394286 
L 119.501202 84.140115 
L 126.299648 84.063874 
L 137.026799 82.629338 
L 141.418718 78.99059 
L 145.347424 78.525585 
L 148.90137 76.677089 
L 152.145869 75.52547 
L 157.893873 75.071888 
L 160.466494 74.715878 
L 162.87302 74.668867 
L 165.133604 74.364804 
L 167.26494 73.31276 
L 169.28101 73.250797 
L 171.193645 72.461173 
L 173.012943 72.279373 
L 174.747592 70.997997 
L 176.405119 69.915188 
L 177.992091 69.890787 
L 179.51427 68.664257 
L 182.38401 68.252079 
L 183.740095 65.572789 
L 185.048587 64.853355 
L 186.312716 62.998239 
L 187.53539 62.764145 
L 188.719242 62.70348 
L 189.866662 62.486327 
L 190.979826 61.655541 
L 193.111161 60.924699 
L 194.13282 60.681267 
L 195.127231 60.579917 
L 196.095811 60.003239 
L 198.859165 59.624823 
L 200.593813 59.149963 
L 202.25134 58.27334 
L 203.053268 58.042047 
L 203.838312 56.740894 
L 204.607169 56.2175 
L 205.360492 56.040705 
L 206.098896 55.583566 
L 206.822962 55.490706 
L 207.533235 55.18015 
L 208.230232 55.003452 
L 209.586316 54.381134 
L 211.53223 54.071938 
L 212.158937 53.381124 
L 213.978235 52.373093 
L 214.565464 52.301423 
L 215.143587 51.646144 
L 215.712884 51.53377 
L 216.273619 51.126247 
L 216.826048 50.383886 
L 217.370411 50.343696 
L 217.906941 50.031448 
L 218.435861 49.301924 
L 218.957383 49.157532 
L 219.471711 48.742962 
L 222.886088 47.973654 
L 223.349302 47.50241 
L 223.806832 47.450701 
L 224.258816 47.16232 
L 224.705387 47.04969 
L 225.582797 46.611526 
L 226.013879 46.420862 
L 228.097562 46.15924 
L 228.89949 45.899065 
L 229.294078 45.475519 
L 229.684534 45.414838 
L 230.45339 44.867921 
L 232.669184 44.359977 
L 233.026011 44.137982 
L 233.379457 44.110443 
L 234.076453 43.29022 
L 234.76066 43.17429 
L 235.432538 42.736945 
L 237.061103 42.487292 
L 237.378451 42.287562 
L 237.693122 42.26167 
L 238.314606 41.916452 
L 238.925902 41.575882 
L 239.227833 41.149708 
L 239.527338 41.131058 
L 239.824457 40.884984 
L 240.701867 40.735931 
L 241.840527 40.364107 
L 242.945444 40.028067 
L 244.803604 39.089271 
L 245.825263 38.93653 
L 246.325784 38.765313 
L 246.573547 38.630769 
L 246.819675 38.626223 
L 247.064188 38.399612 
L 247.788254 38.323292 
L 248.498527 38.022695 
L 248.964636 37.844289 
L 249.195524 37.77679 
L 249.87973 37.295042 
L 250.105037 37.256605 
L 250.105037 37.256605 
" style="fill:none;stroke:#ff7f0e;stroke-linecap:round;stroke-width:1.75;"/>
   </g>
   <g id="line2d_95">
    <path clip-path="url(#p2a5e681d30)" d="M -1 81.733536 
L 59.488134 81.718954 
L 85.334355 72.659869 
L 100.453426 71.463781 
L 111.180577 67.765795 
L 119.501202 67.196312 
L 126.299648 66.834456 
L 132.047651 66.361619 
L 137.026799 63.528463 
L 141.418718 63.00744 
L 145.347424 62.886758 
L 148.90137 61.557834 
L 152.145869 60.989191 
L 155.130519 59.181143 
L 157.893873 59.083244 
L 160.466494 58.934008 
L 162.87302 58.269066 
L 165.133604 58.260881 
L 167.26494 58.124998 
L 169.28101 56.618986 
L 171.193645 56.220314 
L 173.012943 52.879561 
L 174.747592 52.863859 
L 176.405119 52.81445 
L 177.992091 52.687547 
L 179.51427 52.213811 
L 180.97674 52.045717 
L 182.38401 51.986882 
L 183.740095 51.21475 
" style="fill:none;stroke:#2ca02c;stroke-linecap:round;stroke-width:1.75;"/>
   </g>
   <g id="line2d_96">
    <path clip-path="url(#p2a5e681d30)" d="M -1 88.891937 
L 59.488134 88.880207 
L 85.334355 81.495219 
L 100.453426 77.307662 
L 119.501202 76.70963 
L 132.047651 75.005844 
L 137.026799 74.172269 
L 141.418718 74.009942 
L 145.347424 73.134072 
L 148.90137 71.04888 
L 152.145869 70.82598 
L 155.130519 70.33371 
L 157.893873 67.517007 
L 160.466494 67.095587 
L 162.87302 66.157386 
L 165.133604 65.904589 
L 167.26494 64.691726 
L 171.193645 64.584392 
L 173.012943 63.963358 
L 174.747592 63.525857 
L 177.992091 63.324312 
L 179.51427 62.908576 
L 180.97674 62.825836 
L 183.740095 62.244611 
L 186.312716 62.021477 
L 187.53539 61.3342 
L 188.719242 61.265602 
L 189.866662 60.62881 
L 190.979826 60.575274 
L 194.13282 60.06648 
L 195.127231 59.276159 
L 197.039867 59.02363 
L 197.96061 58.5926 
L 199.736575 58.032687 
L 201.431786 57.856721 
L 202.25134 57.691237 
L 203.053268 57.240664 
L 203.838312 57.102568 
L 204.607169 56.406294 
L 205.360492 56.059191 
L 206.822962 55.94859 
L 207.533235 55.670821 
L 208.914438 54.691568 
L 209.586316 54.429323 
L 211.53223 54.150098 
L 212.158937 53.803777 
L 212.775285 53.685654 
L 213.381611 52.833303 
L 213.978235 52.640245 
L 215.143587 52.493994 
L 215.712884 52.178552 
L 216.273619 52.083064 
L 216.826048 51.828847 
L 218.435861 51.671296 
L 219.471711 51.505083 
L 219.979042 50.761715 
L 220.479562 50.746853 
L 221.460888 50.433229 
L 221.942033 50.399582 
L 222.417048 50.155286 
L 224.258816 49.911528 
L 225.146672 49.763848 
L 225.582797 49.736827 
L 226.861375 49.366321 
L 227.690036 49.249611 
L 228.097562 48.908831 
L 231.206713 47.799918 
L 233.026011 47.553285 
L 233.729584 47.268076 
L 234.76066 46.430722 
L 236.092523 46.257716 
L 238.621507 45.374375 
L 238.925902 45.09832 
L 239.527338 45.00059 
L 240.411685 44.72162 
L 241.275543 44.52372 
L 242.672269 44.13293 
L 242.945444 43.876512 
L 243.753163 43.821113 
L 244.282082 43.528587 
L 245.061655 43.357845 
L 245.317933 43.106014 
L 245.825263 42.990958 
L 246.076363 42.755367 
L 246.573547 42.702658 
L 246.819675 42.461264 
L 248.498527 42.01999 
L 248.964636 41.515806 
L 249.195524 41.483413 
L 249.42499 41.121972 
L 250.328991 40.820846 
L 251.211594 40.505071 
L 251.429018 39.983934 
L 252.286257 39.717732 
L 253.124229 39.614625 
L 253.330813 39.432949 
L 253.740577 39.331608 
L 254.145888 39.251865 
L 254.546841 38.995253 
L 255.530756 38.685733 
L 256.489374 38.563382 
L 256.678176 38.542843 
L 256.866026 38.31556 
L 258.515405 38.073728 
L 258.872233 37.89103 
L 259.749643 37.667866 
L 260.094907 37.543858 
L 260.266347 37.490141 
L 260.606881 37.303453 
L 261.111921 37.207064 
L 261.610212 37.134391 
L 261.938745 37.025174 
L 262.264408 36.99646 
L 262.907325 36.638052 
L 264.772124 36.226639 
L 265.074054 35.997106 
L 265.522415 35.880167 
L 265.818355 35.619388 
L 266.692338 35.515719 
L 267.121765 35.435239 
L 267.966063 35.050133 
L 268.518491 34.719692 
L 270.520128 34.320701 
L 270.779075 34.105321 
L 271.291636 34.051908 
L 271.545298 33.944968 
L 272.91041 33.680043 
L 273.634476 33.421512 
L 274.461824 33.207055 
L 276.175213 32.565828 
L 276.508642 32.49008 
L 276.729283 32.341022 
L 281.667159 31.050636 
L 281.955101 30.948294 
L 282.992261 30.673023 
L 283.270187 30.523452 
L 283.8199 30.400562 
L 284.271884 30.252232 
L 284.540468 30.160348 
L 284.807131 30.071557 
L 285.0719 29.960636 
L 285.941129 29.778171 
L 286.874443 29.635491 
L 287.124981 29.51078 
L 287.86665 29.382331 
L 288.272401 29.236342 
L 289.149812 29.080826 
L 291.14513 28.274589 
L 291.81167 28.116882 
L 292.753891 27.760052 
L 293.392525 27.617196 
L 294.569781 27.24237 
L 294.909076 27.129393 
L 295.312195 27.017775 
L 295.578541 26.902728 
L 296.105592 26.821607 
L 297.39152 26.220004 
L 297.643468 26.156543 
L 297.893725 26.032228 
L 299.659538 25.528402 
L 299.837525 25.343886 
L 300.190971 25.180568 
L 304.40004 23.920663 
L 304.556823 23.811678 
L 305.177446 23.703457 
L 305.737416 23.590223 
L 305.938974 23.471482 
L 306.635971 23.262353 
L 307.077257 23.125761 
L 308.134467 22.930744 
L 309.023996 22.686717 
L 309.300548 22.56499 
L 309.575064 22.518835 
L 310.564676 22.272445 
L 312.5527 21.713851 
L 312.846144 21.592449 
L 319.83202 19.658555 
L 320.004731 19.577191 
L 320.484109 19.481652 
L 320.721506 19.389702 
L 321.091532 19.338627 
L 321.722145 19.200799 
L 322.664555 18.954376 
L 330.920945 16.511428 
L 332.947842 16.039811 
L 333.263126 15.926746 
L 334.051692 15.719927 
L 336.143598 15.11683 
L 337.46134 14.615636 
L 337.46134 14.615636 
" style="fill:none;stroke:#d62728;stroke-linecap:round;stroke-width:1.75;"/>
   </g>
   <g id="patch_3">
    <path d="M 45.589474 140.104 
L 45.589474 8.64 
" style="fill:none;stroke:#cccccc;stroke-linecap:square;stroke-linejoin:miter;"/>
   </g>
   <g id="patch_4">
    <path d="M 351.36 140.104 
L 351.36 8.64 
" style="fill:none;stroke:#cccccc;stroke-linecap:square;stroke-linejoin:miter;"/>
   </g>
   <g id="patch_5">
    <path d="M 45.589474 140.104 
L 351.36 140.104 
" style="fill:none;stroke:#cccccc;stroke-linecap:square;stroke-linejoin:miter;"/>
   </g>
   <g id="patch_6">
    <path d="M 45.589474 8.64 
L 351.36 8.64 
" style="fill:none;stroke:#cccccc;stroke-linecap:square;stroke-linejoin:miter;"/>
   </g>
   <g id="legend_1">
    <g id="line2d_97">
     <path d="M 299.369375 81.489937 
L 319.369375 81.489937 
" style="fill:none;stroke:#1f77b4;stroke-linecap:round;stroke-width:1.75;"/>
    </g>
    <g id="line2d_98"/>
    <g id="text_13">
     <!-- M1 -->
     <defs>
      <path d="M 9.8125 72.90625 
L 24.515625 72.90625 
L 43.109375 23.296875 
L 61.8125 72.90625 
L 76.515625 72.90625 
L 76.515625 0 
L 66.890625 0 
L 66.890625 64.015625 
L 48.09375 14.015625 
L 38.1875 14.015625 
L 19.390625 64.015625 
L 19.390625 0 
L 9.8125 0 
z
" id="DejaVuSans-4d"/>
     </defs>
     <g style="fill:#262626;" transform="translate(327.369375 84.989937)scale(0.1 -0.1)">
      <use xlink:href="#DejaVuSans-4d"/>
      <use x="86.279297" xlink:href="#DejaVuSans-31"/>
     </g>
    </g>
    <g id="line2d_99">
     <path d="M 299.369375 96.168062 
L 319.369375 96.168062 
" style="fill:none;stroke:#ff7f0e;stroke-linecap:round;stroke-width:1.75;"/>
    </g>
    <g id="line2d_100"/>
    <g id="text_14">
     <!-- M2 -->
     <g style="fill:#262626;" transform="translate(327.369375 99.668062)scale(0.1 -0.1)">
      <use xlink:href="#DejaVuSans-4d"/>
      <use x="86.279297" xlink:href="#DejaVuSans-32"/>
     </g>
    </g>
    <g id="line2d_101">
     <path d="M 299.369375 110.846187 
L 319.369375 110.846187 
" style="fill:none;stroke:#2ca02c;stroke-linecap:round;stroke-width:1.75;"/>
    </g>
    <g id="line2d_102"/>
    <g id="text_15">
     <!-- M4 -->
     <g style="fill:#262626;" transform="translate(327.369375 114.346187)scale(0.1 -0.1)">
      <use xlink:href="#DejaVuSans-4d"/>
      <use x="86.279297" xlink:href="#DejaVuSans-34"/>
     </g>
    </g>
    <g id="line2d_103">
     <path d="M 299.369375 125.524313 
L 319.369375 125.524313 
" style="fill:none;stroke:#d62728;stroke-linecap:round;stroke-width:1.75;"/>
    </g>
    <g id="line2d_104"/>
    <g id="text_16">
     <!-- M5 -->
     <g style="fill:#262626;" transform="translate(327.369375 129.024313)scale(0.1 -0.1)">
      <use xlink:href="#DejaVuSans-4d"/>
      <use x="86.279297" xlink:href="#DejaVuSans-35"/>
     </g>
    </g>
   </g>
  </g>
 </g>
 <defs>
  <clipPath id="p2a5e681d30">
   <rect height="131.464" width="305.770526" x="45.589474" y="8.64"/>
  </clipPath>
 </defs>
</svg>
