<?xml version="1.0" encoding="utf-8" standalone="no"?>
<!DOCTYPE svg PUBLIC "-//W3C//DTD SVG 1.1//EN"
  "http://www.w3.org/Graphics/SVG/1.1/DTD/svg11.dtd">
<!-- Created with matplotlib (http://matplotlib.org/) -->
<svg height="180pt" version="1.1" viewBox="0 0 360 180" width="360pt" xmlns="http://www.w3.org/2000/svg" xmlns:xlink="http://www.w3.org/1999/xlink">
 <defs>
  <style type="text/css">
*{stroke-linecap:butt;stroke-linejoin:round;}
  </style>
 </defs>
 <g id="figure_1">
  <g id="patch_1">
   <path d="M 0 180 
L 360 180 
L 360 0 
L 0 0 
z
" style="fill:#ffffff;"/>
  </g>
  <g id="axes_1">
   <g id="patch_2">
    <path d="M 47.749474 137.944 
L 344.478952 137.944 
L 344.478952 10.8 
L 47.749474 10.8 
z
" style="fill:#ffffff;"/>
   </g>
   <g id="matplotlib.axis_1">
    <g id="xtick_1">
     <g id="line2d_1"/>
     <g id="text_1">
      <!-- $\mathdefault{10^{0}}$ -->
      <defs>
       <path d="M 12.40625 8.296875 
L 28.515625 8.296875 
L 28.515625 63.921875 
L 10.984375 60.40625 
L 10.984375 69.390625 
L 28.421875 72.90625 
L 38.28125 72.90625 
L 38.28125 8.296875 
L 54.390625 8.296875 
L 54.390625 0 
L 12.40625 0 
z
" id="DejaVuSans-31"/>
       <path d="M 31.78125 66.40625 
Q 24.171875 66.40625 20.328125 58.90625 
Q 16.5 51.421875 16.5 36.375 
Q 16.5 21.390625 20.328125 13.890625 
Q 24.171875 6.390625 31.78125 6.390625 
Q 39.453125 6.390625 43.28125 13.890625 
Q 47.125 21.390625 47.125 36.375 
Q 47.125 51.421875 43.28125 58.90625 
Q 39.453125 66.40625 31.78125 66.40625 
z
M 31.78125 74.21875 
Q 44.046875 74.21875 50.515625 64.515625 
Q 56.984375 54.828125 56.984375 36.375 
Q 56.984375 17.96875 50.515625 8.265625 
Q 44.046875 -1.421875 31.78125 -1.421875 
Q 19.53125 -1.421875 13.0625 8.265625 
Q 6.59375 17.96875 6.59375 36.375 
Q 6.59375 54.828125 13.0625 64.515625 
Q 19.53125 74.21875 31.78125 74.21875 
z
" id="DejaVuSans-30"/>
      </defs>
      <g style="fill:#262626;" transform="translate(52.437177 152.542438)scale(0.1 -0.1)">
       <use transform="translate(0 0.765625)" xlink:href="#DejaVuSans-31"/>
       <use transform="translate(63.623047 0.765625)" xlink:href="#DejaVuSans-30"/>
       <use transform="translate(128.203125 39.046875)scale(0.7)" xlink:href="#DejaVuSans-30"/>
      </g>
     </g>
    </g>
    <g id="xtick_2">
     <g id="line2d_2"/>
     <g id="text_2">
      <!-- $\mathdefault{10^{1}}$ -->
      <g style="fill:#262626;" transform="translate(122.456957 152.542438)scale(0.1 -0.1)">
       <use transform="translate(0 0.684375)" xlink:href="#DejaVuSans-31"/>
       <use transform="translate(63.623047 0.684375)" xlink:href="#DejaVuSans-30"/>
       <use transform="translate(128.203125 38.965625)scale(0.7)" xlink:href="#DejaVuSans-31"/>
      </g>
     </g>
    </g>
    <g id="xtick_3">
     <g id="line2d_3"/>
     <g id="text_3">
      <!-- $\mathdefault{10^{2}}$ -->
      <defs>
       <path d="M 19.1875 8.296875 
L 53.609375 8.296875 
L 53.609375 0 
L 7.328125 0 
L 7.328125 8.296875 
Q 12.9375 14.109375 22.625 23.890625 
Q 32.328125 33.6875 34.8125 36.53125 
Q 39.546875 41.84375 41.421875 45.53125 
Q 43.3125 49.21875 43.3125 52.78125 
Q 43.3125 58.59375 39.234375 62.25 
Q 35.15625 65.921875 28.609375 65.921875 
Q 23.96875 65.921875 18.8125 64.3125 
Q 13.671875 62.703125 7.8125 59.421875 
L 7.8125 69.390625 
Q 13.765625 71.78125 18.9375 73 
Q 24.125 74.21875 28.421875 74.21875 
Q 39.75 74.21875 46.484375 68.546875 
Q 53.21875 62.890625 53.21875 53.421875 
Q 53.21875 48.921875 51.53125 44.890625 
Q 49.859375 40.875 45.40625 35.40625 
Q 44.1875 33.984375 37.640625 27.21875 
Q 31.109375 20.453125 19.1875 8.296875 
z
" id="DejaVuSans-32"/>
      </defs>
      <g style="fill:#262626;" transform="translate(192.476736 152.542438)scale(0.1 -0.1)">
       <use transform="translate(0 0.765625)" xlink:href="#DejaVuSans-31"/>
       <use transform="translate(63.623047 0.765625)" xlink:href="#DejaVuSans-30"/>
       <use transform="translate(128.203125 39.046875)scale(0.7)" xlink:href="#DejaVuSans-32"/>
      </g>
     </g>
    </g>
    <g id="xtick_4">
     <g id="line2d_4"/>
     <g id="text_4">
      <!-- $\mathdefault{10^{3}}$ -->
      <defs>
       <path d="M 40.578125 39.3125 
Q 47.65625 37.796875 51.625 33 
Q 55.609375 28.21875 55.609375 21.1875 
Q 55.609375 10.40625 48.1875 4.484375 
Q 40.765625 -1.421875 27.09375 -1.421875 
Q 22.515625 -1.421875 17.65625 -0.515625 
Q 12.796875 0.390625 7.625 2.203125 
L 7.625 11.71875 
Q 11.71875 9.328125 16.59375 8.109375 
Q 21.484375 6.890625 26.8125 6.890625 
Q 36.078125 6.890625 40.9375 10.546875 
Q 45.796875 14.203125 45.796875 21.1875 
Q 45.796875 27.640625 41.28125 31.265625 
Q 36.765625 34.90625 28.71875 34.90625 
L 20.21875 34.90625 
L 20.21875 43.015625 
L 29.109375 43.015625 
Q 36.375 43.015625 40.234375 45.921875 
Q 44.09375 48.828125 44.09375 54.296875 
Q 44.09375 59.90625 40.109375 62.90625 
Q 36.140625 65.921875 28.71875 65.921875 
Q 24.65625 65.921875 20.015625 65.03125 
Q 15.375 64.15625 9.8125 62.3125 
L 9.8125 71.09375 
Q 15.4375 72.65625 20.34375 73.4375 
Q 25.25 74.21875 29.59375 74.21875 
Q 40.828125 74.21875 47.359375 69.109375 
Q 53.90625 64.015625 53.90625 55.328125 
Q 53.90625 49.265625 50.4375 45.09375 
Q 46.96875 40.921875 40.578125 39.3125 
z
" id="DejaVuSans-33"/>
      </defs>
      <g style="fill:#262626;" transform="translate(262.496516 152.542438)scale(0.1 -0.1)">
       <use transform="translate(0 0.765625)" xlink:href="#DejaVuSans-31"/>
       <use transform="translate(63.623047 0.765625)" xlink:href="#DejaVuSans-30"/>
       <use transform="translate(128.203125 39.046875)scale(0.7)" xlink:href="#DejaVuSans-33"/>
      </g>
     </g>
    </g>
    <g id="xtick_5">
     <g id="line2d_5"/>
     <g id="text_5">
      <!-- $\mathdefault{10^{4}}$ -->
      <defs>
       <path d="M 37.796875 64.3125 
L 12.890625 25.390625 
L 37.796875 25.390625 
z
M 35.203125 72.90625 
L 47.609375 72.90625 
L 47.609375 25.390625 
L 58.015625 25.390625 
L 58.015625 17.1875 
L 47.609375 17.1875 
L 47.609375 0 
L 37.796875 0 
L 37.796875 17.1875 
L 4.890625 17.1875 
L 4.890625 26.703125 
z
" id="DejaVuSans-34"/>
      </defs>
      <g style="fill:#262626;" transform="translate(332.516296 152.542438)scale(0.1 -0.1)">
       <use transform="translate(0 0.684375)" xlink:href="#DejaVuSans-31"/>
       <use transform="translate(63.623047 0.684375)" xlink:href="#DejaVuSans-30"/>
       <use transform="translate(128.203125 38.965625)scale(0.7)" xlink:href="#DejaVuSans-34"/>
      </g>
     </g>
    </g>
    <g id="xtick_6">
     <g id="line2d_6"/>
    </g>
    <g id="xtick_7">
     <g id="line2d_7"/>
    </g>
    <g id="xtick_8">
     <g id="line2d_8"/>
    </g>
    <g id="xtick_9">
     <g id="line2d_9"/>
    </g>
    <g id="xtick_10">
     <g id="line2d_10"/>
    </g>
    <g id="xtick_11">
     <g id="line2d_11"/>
    </g>
    <g id="xtick_12">
     <g id="line2d_12"/>
    </g>
    <g id="xtick_13">
     <g id="line2d_13"/>
    </g>
    <g id="xtick_14">
     <g id="line2d_14"/>
    </g>
    <g id="xtick_15">
     <g id="line2d_15"/>
    </g>
    <g id="xtick_16">
     <g id="line2d_16"/>
    </g>
    <g id="xtick_17">
     <g id="line2d_17"/>
    </g>
    <g id="xtick_18">
     <g id="line2d_18"/>
    </g>
    <g id="xtick_19">
     <g id="line2d_19"/>
    </g>
    <g id="xtick_20">
     <g id="line2d_20"/>
    </g>
    <g id="xtick_21">
     <g id="line2d_21"/>
    </g>
    <g id="xtick_22">
     <g id="line2d_22"/>
    </g>
    <g id="xtick_23">
     <g id="line2d_23"/>
    </g>
    <g id="xtick_24">
     <g id="line2d_24"/>
    </g>
    <g id="xtick_25">
     <g id="line2d_25"/>
    </g>
    <g id="xtick_26">
     <g id="line2d_26"/>
    </g>
    <g id="xtick_27">
     <g id="line2d_27"/>
    </g>
    <g id="xtick_28">
     <g id="line2d_28"/>
    </g>
    <g id="xtick_29">
     <g id="line2d_29"/>
    </g>
    <g id="xtick_30">
     <g id="line2d_30"/>
    </g>
    <g id="xtick_31">
     <g id="line2d_31"/>
    </g>
    <g id="xtick_32">
     <g id="line2d_32"/>
    </g>
    <g id="xtick_33">
     <g id="line2d_33"/>
    </g>
    <g id="xtick_34">
     <g id="line2d_34"/>
    </g>
    <g id="xtick_35">
     <g id="line2d_35"/>
    </g>
    <g id="xtick_36">
     <g id="line2d_36"/>
    </g>
    <g id="xtick_37">
     <g id="line2d_37"/>
    </g>
    <g id="xtick_38">
     <g id="line2d_38"/>
    </g>
    <g id="xtick_39">
     <g id="line2d_39"/>
    </g>
    <g id="xtick_40">
     <g id="line2d_40"/>
    </g>
    <g id="text_6">
     <!-- Sanitized Samples -->
     <defs>
      <path d="M 53.515625 70.515625 
L 53.515625 60.890625 
Q 47.90625 63.578125 42.921875 64.890625 
Q 37.9375 66.21875 33.296875 66.21875 
Q 25.25 66.21875 20.875 63.09375 
Q 16.5 59.96875 16.5 54.203125 
Q 16.5 49.359375 19.40625 46.890625 
Q 22.3125 44.4375 30.421875 42.921875 
L 36.375 41.703125 
Q 47.40625 39.59375 52.65625 34.296875 
Q 57.90625 29 57.90625 20.125 
Q 57.90625 9.515625 50.796875 4.046875 
Q 43.703125 -1.421875 29.984375 -1.421875 
Q 24.8125 -1.421875 18.96875 -0.25 
Q 13.140625 0.921875 6.890625 3.21875 
L 6.890625 13.375 
Q 12.890625 10.015625 18.65625 8.296875 
Q 24.421875 6.59375 29.984375 6.59375 
Q 38.421875 6.59375 43.015625 9.90625 
Q 47.609375 13.234375 47.609375 19.390625 
Q 47.609375 24.75 44.3125 27.78125 
Q 41.015625 30.8125 33.5 32.328125 
L 27.484375 33.5 
Q 16.453125 35.6875 11.515625 40.375 
Q 6.59375 45.0625 6.59375 53.421875 
Q 6.59375 63.09375 13.40625 68.65625 
Q 20.21875 74.21875 32.171875 74.21875 
Q 37.3125 74.21875 42.625 73.28125 
Q 47.953125 72.359375 53.515625 70.515625 
z
" id="DejaVuSans-53"/>
      <path d="M 34.28125 27.484375 
Q 23.390625 27.484375 19.1875 25 
Q 14.984375 22.515625 14.984375 16.5 
Q 14.984375 11.71875 18.140625 8.90625 
Q 21.296875 6.109375 26.703125 6.109375 
Q 34.1875 6.109375 38.703125 11.40625 
Q 43.21875 16.703125 43.21875 25.484375 
L 43.21875 27.484375 
z
M 52.203125 31.203125 
L 52.203125 0 
L 43.21875 0 
L 43.21875 8.296875 
Q 40.140625 3.328125 35.546875 0.953125 
Q 30.953125 -1.421875 24.3125 -1.421875 
Q 15.921875 -1.421875 10.953125 3.296875 
Q 6 8.015625 6 15.921875 
Q 6 25.140625 12.171875 29.828125 
Q 18.359375 34.515625 30.609375 34.515625 
L 43.21875 34.515625 
L 43.21875 35.40625 
Q 43.21875 41.609375 39.140625 45 
Q 35.0625 48.390625 27.6875 48.390625 
Q 23 48.390625 18.546875 47.265625 
Q 14.109375 46.140625 10.015625 43.890625 
L 10.015625 52.203125 
Q 14.9375 54.109375 19.578125 55.046875 
Q 24.21875 56 28.609375 56 
Q 40.484375 56 46.34375 49.84375 
Q 52.203125 43.703125 52.203125 31.203125 
z
" id="DejaVuSans-61"/>
      <path d="M 54.890625 33.015625 
L 54.890625 0 
L 45.90625 0 
L 45.90625 32.71875 
Q 45.90625 40.484375 42.875 44.328125 
Q 39.84375 48.1875 33.796875 48.1875 
Q 26.515625 48.1875 22.3125 43.546875 
Q 18.109375 38.921875 18.109375 30.90625 
L 18.109375 0 
L 9.078125 0 
L 9.078125 54.6875 
L 18.109375 54.6875 
L 18.109375 46.1875 
Q 21.34375 51.125 25.703125 53.5625 
Q 30.078125 56 35.796875 56 
Q 45.21875 56 50.046875 50.171875 
Q 54.890625 44.34375 54.890625 33.015625 
z
" id="DejaVuSans-6e"/>
      <path d="M 9.421875 54.6875 
L 18.40625 54.6875 
L 18.40625 0 
L 9.421875 0 
z
M 9.421875 75.984375 
L 18.40625 75.984375 
L 18.40625 64.59375 
L 9.421875 64.59375 
z
" id="DejaVuSans-69"/>
      <path d="M 18.3125 70.21875 
L 18.3125 54.6875 
L 36.8125 54.6875 
L 36.8125 47.703125 
L 18.3125 47.703125 
L 18.3125 18.015625 
Q 18.3125 11.328125 20.140625 9.421875 
Q 21.96875 7.515625 27.59375 7.515625 
L 36.8125 7.515625 
L 36.8125 0 
L 27.59375 0 
Q 17.1875 0 13.234375 3.875 
Q 9.28125 7.765625 9.28125 18.015625 
L 9.28125 47.703125 
L 2.6875 47.703125 
L 2.6875 54.6875 
L 9.28125 54.6875 
L 9.28125 70.21875 
z
" id="DejaVuSans-74"/>
      <path d="M 5.515625 54.6875 
L 48.1875 54.6875 
L 48.1875 46.484375 
L 14.40625 7.171875 
L 48.1875 7.171875 
L 48.1875 0 
L 4.296875 0 
L 4.296875 8.203125 
L 38.09375 47.515625 
L 5.515625 47.515625 
z
" id="DejaVuSans-7a"/>
      <path d="M 56.203125 29.59375 
L 56.203125 25.203125 
L 14.890625 25.203125 
Q 15.484375 15.921875 20.484375 11.0625 
Q 25.484375 6.203125 34.421875 6.203125 
Q 39.59375 6.203125 44.453125 7.46875 
Q 49.3125 8.734375 54.109375 11.28125 
L 54.109375 2.78125 
Q 49.265625 0.734375 44.1875 -0.34375 
Q 39.109375 -1.421875 33.890625 -1.421875 
Q 20.796875 -1.421875 13.15625 6.1875 
Q 5.515625 13.8125 5.515625 26.8125 
Q 5.515625 40.234375 12.765625 48.109375 
Q 20.015625 56 32.328125 56 
Q 43.359375 56 49.78125 48.890625 
Q 56.203125 41.796875 56.203125 29.59375 
z
M 47.21875 32.234375 
Q 47.125 39.59375 43.09375 43.984375 
Q 39.0625 48.390625 32.421875 48.390625 
Q 24.90625 48.390625 20.390625 44.140625 
Q 15.875 39.890625 15.1875 32.171875 
z
" id="DejaVuSans-65"/>
      <path d="M 45.40625 46.390625 
L 45.40625 75.984375 
L 54.390625 75.984375 
L 54.390625 0 
L 45.40625 0 
L 45.40625 8.203125 
Q 42.578125 3.328125 38.25 0.953125 
Q 33.9375 -1.421875 27.875 -1.421875 
Q 17.96875 -1.421875 11.734375 6.484375 
Q 5.515625 14.40625 5.515625 27.296875 
Q 5.515625 40.1875 11.734375 48.09375 
Q 17.96875 56 27.875 56 
Q 33.9375 56 38.25 53.625 
Q 42.578125 51.265625 45.40625 46.390625 
z
M 14.796875 27.296875 
Q 14.796875 17.390625 18.875 11.75 
Q 22.953125 6.109375 30.078125 6.109375 
Q 37.203125 6.109375 41.296875 11.75 
Q 45.40625 17.390625 45.40625 27.296875 
Q 45.40625 37.203125 41.296875 42.84375 
Q 37.203125 48.484375 30.078125 48.484375 
Q 22.953125 48.484375 18.875 42.84375 
Q 14.796875 37.203125 14.796875 27.296875 
z
" id="DejaVuSans-64"/>
      <path id="DejaVuSans-20"/>
      <path d="M 52 44.1875 
Q 55.375 50.25 60.0625 53.125 
Q 64.75 56 71.09375 56 
Q 79.640625 56 84.28125 50.015625 
Q 88.921875 44.046875 88.921875 33.015625 
L 88.921875 0 
L 79.890625 0 
L 79.890625 32.71875 
Q 79.890625 40.578125 77.09375 44.375 
Q 74.3125 48.1875 68.609375 48.1875 
Q 61.625 48.1875 57.5625 43.546875 
Q 53.515625 38.921875 53.515625 30.90625 
L 53.515625 0 
L 44.484375 0 
L 44.484375 32.71875 
Q 44.484375 40.625 41.703125 44.40625 
Q 38.921875 48.1875 33.109375 48.1875 
Q 26.21875 48.1875 22.15625 43.53125 
Q 18.109375 38.875 18.109375 30.90625 
L 18.109375 0 
L 9.078125 0 
L 9.078125 54.6875 
L 18.109375 54.6875 
L 18.109375 46.1875 
Q 21.1875 51.21875 25.484375 53.609375 
Q 29.78125 56 35.6875 56 
Q 41.65625 56 45.828125 52.96875 
Q 50 49.953125 52 44.1875 
z
" id="DejaVuSans-6d"/>
      <path d="M 18.109375 8.203125 
L 18.109375 -20.796875 
L 9.078125 -20.796875 
L 9.078125 54.6875 
L 18.109375 54.6875 
L 18.109375 46.390625 
Q 20.953125 51.265625 25.265625 53.625 
Q 29.59375 56 35.59375 56 
Q 45.5625 56 51.78125 48.09375 
Q 58.015625 40.1875 58.015625 27.296875 
Q 58.015625 14.40625 51.78125 6.484375 
Q 45.5625 -1.421875 35.59375 -1.421875 
Q 29.59375 -1.421875 25.265625 0.953125 
Q 20.953125 3.328125 18.109375 8.203125 
z
M 48.6875 27.296875 
Q 48.6875 37.203125 44.609375 42.84375 
Q 40.53125 48.484375 33.40625 48.484375 
Q 26.265625 48.484375 22.1875 42.84375 
Q 18.109375 37.203125 18.109375 27.296875 
Q 18.109375 17.390625 22.1875 11.75 
Q 26.265625 6.109375 33.40625 6.109375 
Q 40.53125 6.109375 44.609375 11.75 
Q 48.6875 17.390625 48.6875 27.296875 
z
" id="DejaVuSans-70"/>
      <path d="M 9.421875 75.984375 
L 18.40625 75.984375 
L 18.40625 0 
L 9.421875 0 
z
" id="DejaVuSans-6c"/>
      <path d="M 44.28125 53.078125 
L 44.28125 44.578125 
Q 40.484375 46.53125 36.375 47.5 
Q 32.28125 48.484375 27.875 48.484375 
Q 21.1875 48.484375 17.84375 46.4375 
Q 14.5 44.390625 14.5 40.28125 
Q 14.5 37.15625 16.890625 35.375 
Q 19.28125 33.59375 26.515625 31.984375 
L 29.59375 31.296875 
Q 39.15625 29.25 43.1875 25.515625 
Q 47.21875 21.78125 47.21875 15.09375 
Q 47.21875 7.46875 41.1875 3.015625 
Q 35.15625 -1.421875 24.609375 -1.421875 
Q 20.21875 -1.421875 15.453125 -0.5625 
Q 10.6875 0.296875 5.421875 2 
L 5.421875 11.28125 
Q 10.40625 8.6875 15.234375 7.390625 
Q 20.0625 6.109375 24.8125 6.109375 
Q 31.15625 6.109375 34.5625 8.28125 
Q 37.984375 10.453125 37.984375 14.40625 
Q 37.984375 18.0625 35.515625 20.015625 
Q 33.0625 21.96875 24.703125 23.78125 
L 21.578125 24.515625 
Q 13.234375 26.265625 9.515625 29.90625 
Q 5.8125 33.546875 5.8125 39.890625 
Q 5.8125 47.609375 11.28125 51.796875 
Q 16.75 56 26.8125 56 
Q 31.78125 56 36.171875 55.265625 
Q 40.578125 54.546875 44.28125 53.078125 
z
" id="DejaVuSans-73"/>
     </defs>
     <g style="fill:#262626;" transform="translate(145.555463 166.980406)scale(0.11 -0.11)">
      <use xlink:href="#DejaVuSans-53"/>
      <use x="63.476562" xlink:href="#DejaVuSans-61"/>
      <use x="124.755859" xlink:href="#DejaVuSans-6e"/>
      <use x="188.134766" xlink:href="#DejaVuSans-69"/>
      <use x="215.917969" xlink:href="#DejaVuSans-74"/>
      <use x="255.126953" xlink:href="#DejaVuSans-69"/>
      <use x="282.910156" xlink:href="#DejaVuSans-7a"/>
      <use x="335.400391" xlink:href="#DejaVuSans-65"/>
      <use x="396.923828" xlink:href="#DejaVuSans-64"/>
      <use x="460.400391" xlink:href="#DejaVuSans-20"/>
      <use x="492.1875" xlink:href="#DejaVuSans-53"/>
      <use x="555.664062" xlink:href="#DejaVuSans-61"/>
      <use x="616.943359" xlink:href="#DejaVuSans-6d"/>
      <use x="714.355469" xlink:href="#DejaVuSans-70"/>
      <use x="777.832031" xlink:href="#DejaVuSans-6c"/>
      <use x="805.615234" xlink:href="#DejaVuSans-65"/>
      <use x="867.138672" xlink:href="#DejaVuSans-73"/>
     </g>
    </g>
   </g>
   <g id="matplotlib.axis_2">
    <g id="ytick_1">
     <g id="line2d_41"/>
     <g id="text_7">
      <!-- $\mathdefault{10^{1}}$ -->
      <g style="fill:#262626;" transform="translate(23.149474 128.252601)scale(0.1 -0.1)">
       <use transform="translate(0 0.684375)" xlink:href="#DejaVuSans-31"/>
       <use transform="translate(63.623047 0.684375)" xlink:href="#DejaVuSans-30"/>
       <use transform="translate(128.203125 38.965625)scale(0.7)" xlink:href="#DejaVuSans-31"/>
      </g>
     </g>
    </g>
    <g id="ytick_2">
     <g id="line2d_42"/>
     <g id="text_8">
      <!-- $\mathdefault{10^{2}}$ -->
      <g style="fill:#262626;" transform="translate(23.149474 108.874443)scale(0.1 -0.1)">
       <use transform="translate(0 0.765625)" xlink:href="#DejaVuSans-31"/>
       <use transform="translate(63.623047 0.765625)" xlink:href="#DejaVuSans-30"/>
       <use transform="translate(128.203125 39.046875)scale(0.7)" xlink:href="#DejaVuSans-32"/>
      </g>
     </g>
    </g>
    <g id="ytick_3">
     <g id="line2d_43"/>
     <g id="text_9">
      <!-- $\mathdefault{10^{3}}$ -->
      <g style="fill:#262626;" transform="translate(23.149474 89.496284)scale(0.1 -0.1)">
       <use transform="translate(0 0.765625)" xlink:href="#DejaVuSans-31"/>
       <use transform="translate(63.623047 0.765625)" xlink:href="#DejaVuSans-30"/>
       <use transform="translate(128.203125 39.046875)scale(0.7)" xlink:href="#DejaVuSans-33"/>
      </g>
     </g>
    </g>
    <g id="ytick_4">
     <g id="line2d_44"/>
     <g id="text_10">
      <!-- $\mathdefault{10^{4}}$ -->
      <g style="fill:#262626;" transform="translate(23.149474 70.118125)scale(0.1 -0.1)">
       <use transform="translate(0 0.684375)" xlink:href="#DejaVuSans-31"/>
       <use transform="translate(63.623047 0.684375)" xlink:href="#DejaVuSans-30"/>
       <use transform="translate(128.203125 38.965625)scale(0.7)" xlink:href="#DejaVuSans-34"/>
      </g>
     </g>
    </g>
    <g id="ytick_5">
     <g id="line2d_45"/>
     <g id="text_11">
      <!-- $\mathdefault{10^{5}}$ -->
      <defs>
       <path d="M 10.796875 72.90625 
L 49.515625 72.90625 
L 49.515625 64.59375 
L 19.828125 64.59375 
L 19.828125 46.734375 
Q 21.96875 47.46875 24.109375 47.828125 
Q 26.265625 48.1875 28.421875 48.1875 
Q 40.625 48.1875 47.75 41.5 
Q 54.890625 34.8125 54.890625 23.390625 
Q 54.890625 11.625 47.5625 5.09375 
Q 40.234375 -1.421875 26.90625 -1.421875 
Q 22.3125 -1.421875 17.546875 -0.640625 
Q 12.796875 0.140625 7.71875 1.703125 
L 7.71875 11.625 
Q 12.109375 9.234375 16.796875 8.0625 
Q 21.484375 6.890625 26.703125 6.890625 
Q 35.15625 6.890625 40.078125 11.328125 
Q 45.015625 15.765625 45.015625 23.390625 
Q 45.015625 31 40.078125 35.4375 
Q 35.15625 39.890625 26.703125 39.890625 
Q 22.75 39.890625 18.8125 39.015625 
Q 14.890625 38.140625 10.796875 36.28125 
z
" id="DejaVuSans-35"/>
      </defs>
      <g style="fill:#262626;" transform="translate(23.149474 50.739967)scale(0.1 -0.1)">
       <use transform="translate(0 0.684375)" xlink:href="#DejaVuSans-31"/>
       <use transform="translate(63.623047 0.684375)" xlink:href="#DejaVuSans-30"/>
       <use transform="translate(128.203125 38.965625)scale(0.7)" xlink:href="#DejaVuSans-35"/>
      </g>
     </g>
    </g>
    <g id="ytick_6">
     <g id="line2d_46"/>
     <g id="text_12">
      <!-- $\mathdefault{10^{6}}$ -->
      <defs>
       <path d="M 33.015625 40.375 
Q 26.375 40.375 22.484375 35.828125 
Q 18.609375 31.296875 18.609375 23.390625 
Q 18.609375 15.53125 22.484375 10.953125 
Q 26.375 6.390625 33.015625 6.390625 
Q 39.65625 6.390625 43.53125 10.953125 
Q 47.40625 15.53125 47.40625 23.390625 
Q 47.40625 31.296875 43.53125 35.828125 
Q 39.65625 40.375 33.015625 40.375 
z
M 52.59375 71.296875 
L 52.59375 62.3125 
Q 48.875 64.0625 45.09375 64.984375 
Q 41.3125 65.921875 37.59375 65.921875 
Q 27.828125 65.921875 22.671875 59.328125 
Q 17.53125 52.734375 16.796875 39.40625 
Q 19.671875 43.65625 24.015625 45.921875 
Q 28.375 48.1875 33.59375 48.1875 
Q 44.578125 48.1875 50.953125 41.515625 
Q 57.328125 34.859375 57.328125 23.390625 
Q 57.328125 12.15625 50.6875 5.359375 
Q 44.046875 -1.421875 33.015625 -1.421875 
Q 20.359375 -1.421875 13.671875 8.265625 
Q 6.984375 17.96875 6.984375 36.375 
Q 6.984375 53.65625 15.1875 63.9375 
Q 23.390625 74.21875 37.203125 74.21875 
Q 40.921875 74.21875 44.703125 73.484375 
Q 48.484375 72.75 52.59375 71.296875 
z
" id="DejaVuSans-36"/>
      </defs>
      <g style="fill:#262626;" transform="translate(23.149474 31.361808)scale(0.1 -0.1)">
       <use transform="translate(0 0.765625)" xlink:href="#DejaVuSans-31"/>
       <use transform="translate(63.623047 0.765625)" xlink:href="#DejaVuSans-30"/>
       <use transform="translate(128.203125 39.046875)scale(0.7)" xlink:href="#DejaVuSans-36"/>
      </g>
     </g>
    </g>
    <g id="ytick_7">
     <g id="line2d_47"/>
    </g>
    <g id="ytick_8">
     <g id="line2d_48"/>
    </g>
    <g id="ytick_9">
     <g id="line2d_49"/>
    </g>
    <g id="ytick_10">
     <g id="line2d_50"/>
    </g>
    <g id="ytick_11">
     <g id="line2d_51"/>
    </g>
    <g id="ytick_12">
     <g id="line2d_52"/>
    </g>
    <g id="ytick_13">
     <g id="line2d_53"/>
    </g>
    <g id="ytick_14">
     <g id="line2d_54"/>
    </g>
    <g id="ytick_15">
     <g id="line2d_55"/>
    </g>
    <g id="ytick_16">
     <g id="line2d_56"/>
    </g>
    <g id="ytick_17">
     <g id="line2d_57"/>
    </g>
    <g id="ytick_18">
     <g id="line2d_58"/>
    </g>
    <g id="ytick_19">
     <g id="line2d_59"/>
    </g>
    <g id="ytick_20">
     <g id="line2d_60"/>
    </g>
    <g id="ytick_21">
     <g id="line2d_61"/>
    </g>
    <g id="ytick_22">
     <g id="line2d_62"/>
    </g>
    <g id="ytick_23">
     <g id="line2d_63"/>
    </g>
    <g id="ytick_24">
     <g id="line2d_64"/>
    </g>
    <g id="ytick_25">
     <g id="line2d_65"/>
    </g>
    <g id="ytick_26">
     <g id="line2d_66"/>
    </g>
    <g id="ytick_27">
     <g id="line2d_67"/>
    </g>
    <g id="ytick_28">
     <g id="line2d_68"/>
    </g>
    <g id="ytick_29">
     <g id="line2d_69"/>
    </g>
    <g id="ytick_30">
     <g id="line2d_70"/>
    </g>
    <g id="ytick_31">
     <g id="line2d_71"/>
    </g>
    <g id="ytick_32">
     <g id="line2d_72"/>
    </g>
    <g id="ytick_33">
     <g id="line2d_73"/>
    </g>
    <g id="ytick_34">
     <g id="line2d_74"/>
    </g>
    <g id="ytick_35">
     <g id="line2d_75"/>
    </g>
    <g id="ytick_36">
     <g id="line2d_76"/>
    </g>
    <g id="ytick_37">
     <g id="line2d_77"/>
    </g>
    <g id="ytick_38">
     <g id="line2d_78"/>
    </g>
    <g id="ytick_39">
     <g id="line2d_79"/>
    </g>
    <g id="ytick_40">
     <g id="line2d_80"/>
    </g>
    <g id="ytick_41">
     <g id="line2d_81"/>
    </g>
    <g id="ytick_42">
     <g id="line2d_82"/>
    </g>
    <g id="ytick_43">
     <g id="line2d_83"/>
    </g>
    <g id="ytick_44">
     <g id="line2d_84"/>
    </g>
    <g id="ytick_45">
     <g id="line2d_85"/>
    </g>
    <g id="ytick_46">
     <g id="line2d_86"/>
    </g>
    <g id="ytick_47">
     <g id="line2d_87"/>
    </g>
    <g id="ytick_48">
     <g id="line2d_88"/>
    </g>
    <g id="ytick_49">
     <g id="line2d_89"/>
    </g>
    <g id="ytick_50">
     <g id="line2d_90"/>
    </g>
    <g id="ytick_51">
     <g id="line2d_91"/>
    </g>
    <g id="ytick_52">
     <g id="line2d_92"/>
    </g>
    <g id="ytick_53">
     <g id="line2d_93"/>
    </g>
    <g id="ytick_54">
     <g id="line2d_94"/>
    </g>
    <g id="ytick_55">
     <g id="line2d_95"/>
    </g>
    <g id="ytick_56">
     <g id="line2d_96"/>
    </g>
    <g id="ytick_57">
     <g id="line2d_97"/>
    </g>
    <g id="ytick_58">
     <g id="line2d_98"/>
    </g>
    <g id="ytick_59">
     <g id="line2d_99"/>
    </g>
    <g id="ytick_60">
     <g id="line2d_100"/>
    </g>
    <g id="text_13">
     <!-- Sample Attempts -->
     <defs>
      <path d="M 34.1875 63.1875 
L 20.796875 26.90625 
L 47.609375 26.90625 
z
M 28.609375 72.90625 
L 39.796875 72.90625 
L 67.578125 0 
L 57.328125 0 
L 50.6875 18.703125 
L 17.828125 18.703125 
L 11.1875 0 
L 0.78125 0 
z
" id="DejaVuSans-41"/>
     </defs>
     <g style="fill:#262626;" transform="translate(16.861817 122.071609)rotate(-90)scale(0.11 -0.11)">
      <use xlink:href="#DejaVuSans-53"/>
      <use x="63.476562" xlink:href="#DejaVuSans-61"/>
      <use x="124.755859" xlink:href="#DejaVuSans-6d"/>
      <use x="222.167969" xlink:href="#DejaVuSans-70"/>
      <use x="285.644531" xlink:href="#DejaVuSans-6c"/>
      <use x="313.427734" xlink:href="#DejaVuSans-65"/>
      <use x="374.951172" xlink:href="#DejaVuSans-20"/>
      <use x="406.738281" xlink:href="#DejaVuSans-41"/>
      <use x="475.130859" xlink:href="#DejaVuSans-74"/>
      <use x="514.339844" xlink:href="#DejaVuSans-74"/>
      <use x="553.548828" xlink:href="#DejaVuSans-65"/>
      <use x="615.072266" xlink:href="#DejaVuSans-6d"/>
      <use x="712.484375" xlink:href="#DejaVuSans-70"/>
      <use x="775.960938" xlink:href="#DejaVuSans-74"/>
      <use x="815.169922" xlink:href="#DejaVuSans-73"/>
     </g>
    </g>
   </g>
   <g id="line2d_101">
    <path clip-path="url(#pec0561033d)" d="M -1 124.457204 
L 61.237177 124.453383 
L 82.315231 109.374244 
L 94.645102 108.57213 
L 103.393285 101.225615 
L 110.178903 97.777856 
L 120.410756 94.064521 
L 124.471339 93.884496 
L 128.053027 93.514271 
L 131.256957 93.017862 
L 134.155263 91.564203 
L 136.80121 88.391857 
L 139.235245 86.658903 
L 141.48881 85.407549 
L 143.586828 82.52952 
L 145.549393 82.107091 
L 147.392939 81.863451 
L 149.131081 81.497942 
L 150.775222 80.882296 
L 152.335011 80.699081 
L 153.818681 80.264385 
L 155.233317 79.48517 
L 156.58506 79.445037 
L 157.879264 79.192622 
L 159.120628 78.768332 
L 160.313299 78.08051 
L 161.460952 77.928687 
L 162.566864 77.208125 
L 163.633963 76.759892 
L 165.661994 76.473806 
L 166.627447 75.214357 
L 167.563189 74.975594 
L 170.209135 74.881954 
L 171.042316 74.317012 
L 171.853276 74.204569 
L 172.64317 73.880113 
L 174.163947 73.710298 
L 174.896735 73.174752 
L 176.311371 73.018463 
L 176.994753 72.172536 
L 180.800865 71.674645 
L 181.391353 71.370115 
L 181.970594 71.251323 
L 184.712017 70.196637 
L 185.742936 70.14344 
L 186.740048 69.522601 
L 187.226606 69.504149 
L 187.705501 68.878012 
L 188.641243 68.778228 
L 189.549047 68.77372 
L 190.430535 68.419631 
L 190.861879 67.603878 
L 191.287189 67.387083 
L 192.12037 67.217767 
L 192.93133 66.956841 
L 193.328842 66.864745 
L 193.721224 66.333226 
L 195.610602 66.182006 
L 196.690332 65.761309 
L 197.041888 65.312717 
L 198.072807 64.736267 
L 200.035372 64.560989 
L 200.350496 64.349899 
L 200.662388 64.313348 
L 200.971114 64.103129 
L 202.175596 63.983043 
L 202.469407 63.805131 
L 203.334182 63.651718 
L 204.175043 63.458409 
L 204.450241 63.44524 
L 204.722971 63.209322 
L 205.261202 63.147319 
L 205.526786 62.916125 
L 206.051095 62.833959 
L 206.309899 62.5598 
L 207.07335 62.481558 
L 208.783555 61.918333 
L 209.020204 61.681238 
L 209.488047 61.533635 
L 209.719296 61.232628 
L 209.948801 61.179453 
L 210.402678 60.957134 
L 210.84988 60.899476 
L 211.290601 60.695118 
L 211.508589 60.198016 
L 211.725026 60.11345 
L 211.939933 59.811356 
L 212.784687 59.637986 
L 213.403201 59.327969 
L 213.808663 59.154119 
L 214.406896 58.868067 
L 215.186662 58.81718 
L 215.569173 58.582352 
L 216.134066 58.407639 
L 216.688656 58.139759 
L 221.584896 56.721011 
L 221.895197 56.535028 
L 222.049168 56.527663 
L 222.506458 56.288676 
L 222.956972 56.239751 
L 223.105673 55.951537 
L 223.547461 55.903552 
L 223.83846 55.706426 
L 227.772074 54.657775 
L 228.025486 54.491214 
L 228.896156 54.214076 
L 229.140408 54.119145 
L 229.623104 53.967081 
L 230.098258 53.792223 
L 230.912319 53.668522 
L 232.695054 53.145453 
L 233.337526 53.003122 
L 236.071641 52.066675 
L 236.456573 51.935854 
L 237.490679 51.578061 
L 237.858167 51.476176 
L 238.401202 51.326617 
L 238.669127 50.978079 
L 244.478964 49.516752 
L 244.698526 49.323988 
L 245.132951 49.218199 
L 245.419157 49.052822 
L 246.74302 48.565533 
L 247.417309 48.349967 
L 247.748929 48.233762 
L 251.586066 47.189022 
L 251.875404 47.115838 
L 252.162015 46.976507 
L 252.332694 46.880789 
L 252.502421 46.820673 
L 253.935003 46.474776 
L 257.772758 44.971141 
L 257.961929 44.864926 
L 259.613514 44.205182 
L 260.188541 44.011162 
L 261.726413 43.514129 
L 262.181216 43.326254 
L 262.911072 43.091565 
L 263.584658 42.886293 
L 264.700364 42.666895 
L 270.588936 40.782447 
L 270.929398 40.650969 
L 271.235637 40.532119 
L 271.719292 40.402763 
L 272.54761 40.114304 
L 272.866946 39.99998 
L 273.010997 39.883913 
L 273.63684 39.652012 
L 273.861263 39.521007 
L 274.332733 39.404133 
L 276.840769 38.646891 
L 277.168431 38.523007 
L 277.665731 38.296082 
L 277.911364 38.205668 
L 278.155028 38.095272 
L 281.550082 36.99755 
L 281.766365 36.930628 
L 282.151839 36.773559 
L 282.866887 36.596391 
L 283.012039 36.485402 
L 283.382135 36.374827 
L 283.767967 36.248282 
L 283.989126 36.162126 
L 288.521795 34.740887 
L 288.711047 34.676792 
L 290.1514 34.171961 
L 290.606004 33.992128 
L 290.766729 33.937633 
L 291.117363 33.826343 
L 291.837697 33.561863 
L 292.007452 33.495468 
L 293.405996 33.137027 
L 293.887187 32.995299 
L 305.147204 29.185915 
L 305.326492 29.113244 
L 305.906857 28.94106 
L 306.072045 28.888947 
L 306.533674 28.748022 
L 306.950764 28.617638 
L 307.129118 28.537088 
L 307.565866 28.375235 
L 308.050959 28.208234 
L 308.376098 28.092118 
L 308.537373 28.035354 
L 309.086418 27.880825 
L 330.991248 20.812573 
L 330.991248 20.812573 
" style="fill:none;stroke:#1f77b4;stroke-linecap:round;stroke-width:1.75;"/>
   </g>
   <g id="line2d_102">
    <path clip-path="url(#pec0561033d)" d="M -1 110.437579 
L 61.237177 110.41825 
L 82.315231 103.682283 
L 94.645102 88.795515 
L 103.393285 86.966365 
L 110.178903 83.819128 
L 115.723156 83.745392 
L 124.471339 82.357996 
L 128.053027 78.83882 
L 131.256957 78.389096 
L 134.155263 76.601342 
L 136.80121 75.487566 
L 141.48881 75.048889 
L 143.586828 74.704578 
L 145.549393 74.659112 
L 147.392939 74.36504 
L 149.131081 73.347567 
L 150.775222 73.28764 
L 152.335011 72.523964 
L 153.818681 72.348138 
L 156.58506 70.061642 
L 157.879264 70.038043 
L 159.120628 68.851818 
L 161.460952 68.453184 
L 162.566864 65.861937 
L 163.633963 65.166145 
L 164.664882 63.371988 
L 165.661994 63.145587 
L 166.627447 63.086916 
L 167.563189 62.876899 
L 168.470993 62.073412 
L 170.209135 61.366587 
L 171.042316 61.131154 
L 171.853276 61.033134 
L 172.64317 60.475407 
L 174.163947 60.383448 
L 176.994753 59.65017 
L 178.317101 58.802353 
L 178.957318 58.578661 
L 179.584334 57.320265 
L 180.198682 56.81407 
L 180.800865 56.643085 
L 181.391353 56.200967 
L 181.970594 56.111159 
L 184.183148 55.038048 
L 185.231845 54.869048 
L 186.245579 54.739012 
L 186.740048 54.070899 
L 188.176971 53.095993 
L 188.641243 53.026678 
L 189.098532 52.392932 
L 189.549047 52.28425 
L 189.992985 51.890119 
L 190.430535 51.172153 
L 190.861879 51.133283 
L 191.287189 50.831296 
L 191.706633 50.125745 
L 192.12037 49.986097 
L 192.528554 49.58515 
L 195.242001 48.841122 
L 195.610602 48.385364 
L 195.974789 48.335354 
L 196.334665 48.05645 
L 196.690332 47.94752 
L 197.389425 47.523755 
L 197.733036 47.339357 
L 199.395155 47.086331 
L 200.035372 46.834706 
L 200.350496 46.425078 
L 200.662388 46.366391 
L 201.276736 45.852592 
L 201.878919 45.750058 
L 203.048648 45.350442 
L 203.334182 45.346193 
L 203.61706 45.131494 
L 203.897332 45.10486 
L 204.450241 44.31159 
L 204.993277 44.199469 
L 205.526786 43.776496 
L 206.82099 43.535046 
L 207.07335 43.341879 
L 207.323633 43.316839 
L 207.818102 42.982964 
L 208.30466 42.653585 
L 208.54505 42.241416 
L 208.783555 42.223379 
L 209.020204 41.985391 
L 209.719296 41.841236 
L 210.84988 41.414109 
L 212.153332 40.818556 
L 212.365243 40.58115 
L 212.575688 40.570207 
L 212.784687 40.280322 
L 213.808663 40.100964 
L 214.406896 39.805252 
L 214.60372 39.800855 
L 214.799278 39.58169 
L 215.378519 39.507878 
L 215.946932 39.217159 
L 216.504914 38.979334 
L 217.052843 38.513417 
L 217.233313 38.476243 
L 217.233313 38.476243 
" style="fill:none;stroke:#ff7f0e;stroke-linecap:round;stroke-width:1.75;"/>
   </g>
   <g id="line2d_103">
    <path clip-path="url(#pec0561033d)" d="M -1 93.834643 
L 61.237177 93.817968 
L 82.315231 79.750805 
L 94.645102 69.959852 
L 103.393285 68.62852 
L 110.178903 65.487007 
" style="fill:none;stroke:#2ca02c;stroke-linecap:round;stroke-width:1.75;"/>
   </g>
   <g id="line2d_104">
    <path clip-path="url(#pec0561033d)" d="M -1 81.495322 
L 61.237177 81.477528 
L 82.315231 76.939303 
L 94.645102 76.265448 
L 103.393285 75.81664 
L 110.178903 72.716131 
L 115.723156 71.559347 
L 120.410756 70.534187 
L 124.471339 67.98288 
L 128.053027 67.43211 
L 131.256957 67.082145 
L 134.155263 66.624846 
L 136.80121 65.793664 
L 139.235245 63.884789 
L 141.48881 63.380887 
L 143.586828 63.264171 
L 145.549393 63.181451 
L 147.392939 61.978917 
L 149.131081 61.832958 
L 150.775222 61.428959 
L 152.335011 60.124327 
L 153.818681 59.680326 
L 155.233317 59.585643 
L 156.58506 59.441311 
L 157.879264 58.79822 
L 159.120628 58.790304 
L 160.313299 58.658886 
L 161.460952 58.14613 
L 162.566864 57.202363 
L 163.633963 56.816791 
L 164.664882 54.579817 
L 165.661994 54.196319 
L 166.627447 53.585818 
L 167.563189 53.570632 
L 168.470993 53.522847 
L 169.352481 53.400114 
L 170.209135 53.013333 
L 171.042316 52.941945 
L 171.853276 52.779374 
L 172.64317 52.722472 
L 173.413065 52.651011 
L 174.163947 51.975714 
L 174.896735 51.52798 
" style="fill:none;stroke:#d62728;stroke-linecap:round;stroke-width:1.75;"/>
   </g>
   <g id="line2d_105">
    <path clip-path="url(#pec0561033d)" d="M -1 104.517002 
L 61.237177 104.50582 
L 82.315231 88.403457 
L 94.645102 87.234819 
L 103.393285 82.140116 
L 110.178903 81.261145 
L 115.723156 77.211194 
L 120.410756 76.975051 
L 128.053027 76.891873 
L 131.256957 76.632814 
L 134.155263 76.088953 
L 136.80121 75.819242 
L 139.235245 75.795854 
L 141.48881 75.037024 
L 143.586828 74.985016 
L 145.549393 74.178832 
L 147.392939 74.02184 
L 149.131081 73.988277 
L 150.775222 73.174752 
L 152.335011 71.631816 
L 153.818681 71.301377 
L 156.58506 70.942505 
L 159.120628 70.02104 
L 160.313299 67.742267 
L 161.460952 67.334695 
L 162.566864 66.427324 
L 163.633963 66.182835 
L 164.664882 66.130826 
L 165.661994 65.281412 
L 166.627447 65.009827 
L 169.352481 64.866977 
L 171.042316 63.882269 
L 172.64317 63.687347 
L 173.413065 63.596728 
L 174.163947 63.285272 
L 174.896735 63.205252 
L 176.311371 62.643126 
L 178.957318 62.427324 
L 180.198682 61.762631 
L 181.391353 61.549377 
L 181.970594 61.098505 
L 183.096989 61.028645 
L 184.712017 60.53657 
L 185.231845 60.428466 
L 186.245579 59.772219 
L 187.226606 59.527989 
L 187.705501 59.160947 
L 188.176971 59.111122 
L 189.098532 58.569608 
L 189.992985 58.399425 
L 190.430535 58.239379 
L 190.861879 57.884158 
L 193.328842 57.444532 
L 193.721224 57.121283 
L 194.108608 56.996659 
L 194.868878 56.926896 
L 195.242001 56.660963 
L 196.334665 56.475243 
L 197.733036 55.751379 
L 198.741168 55.604265 
L 199.395155 55.143555 
L 200.662388 54.814604 
L 200.971114 54.479663 
L 201.276736 54.365422 
L 201.579318 53.54108 
L 201.878919 53.357974 
L 202.469407 53.323586 
L 203.61706 52.946754 
L 204.450241 52.815494 
L 204.722971 52.569631 
L 206.051095 52.367393 
L 206.566518 52.256506 
L 207.07335 51.537566 
L 207.323633 51.523192 
L 207.571872 51.333706 
L 208.30466 51.187333 
L 208.783555 50.951065 
L 210.84988 50.546356 
L 211.290601 50.430644 
L 212.153332 50.188026 
L 215.569173 48.727553 
L 216.320055 48.601747 
L 216.688656 48.557065 
L 217.412719 48.15873 
L 217.591073 47.865213 
L 217.768386 47.863804 
L 218.467479 47.348892 
L 219.653504 47.181571 
L 220.954631 46.654159 
L 222.35479 46.327257 
L 222.657372 46.060273 
L 223.547461 45.841655 
L 223.83846 45.727077 
L 225.114558 45.433687 
L 225.664966 45.132104 
L 225.936479 45.114947 
L 226.205588 44.865978 
L 226.472338 44.825037 
L 226.736767 44.650021 
L 227.899044 44.467084 
L 228.649926 44.009795 
L 229.140408 43.943579 
L 229.382714 43.794312 
L 229.74259 43.743335 
L 229.980163 43.509873 
L 230.566101 43.384461 
L 231.705155 42.697947 
L 232.149093 42.571413 
L 232.368655 42.522731 
L 232.586643 42.214591 
L 233.337526 42.063048 
L 234.276478 41.7094 
L 234.886717 41.617963 
L 235.187304 41.261363 
L 235.877332 41.105994 
L 236.647227 40.896125 
L 237.118697 40.811281 
L 237.490679 40.673 
L 237.858167 40.452367 
L 238.040258 40.247813 
L 238.580081 39.970188 
L 239.631801 39.747021 
L 239.889144 39.650703 
L 240.144327 39.500401 
L 242.740822 38.58084 
L 243.203916 38.431422 
L 243.584511 38.330863 
L 248.142157 36.599592 
L 248.401512 36.492549 
L 248.594587 36.342277 
L 249.040384 36.21963 
L 250.939663 35.562175 
L 251.176311 35.426863 
L 251.469556 35.376855 
L 251.644155 35.258379 
L 252.275908 35.135792 
L 256.165492 34.112517 
L 258.383311 33.322811 
L 258.707062 33.214815 
L 259.524075 33.032374 
L 259.968662 32.836351 
L 260.623587 32.69138 
L 260.967198 32.593561 
L 263.62382 31.628359 
L 263.89655 31.527301 
L 264.08987 31.464489 
L 265.335859 31.134474 
L 266.13903 30.887166 
L 267.409205 30.428397 
L 267.615837 30.310186 
L 267.752815 30.21332 
L 267.957133 30.153958 
L 268.261059 30.046056 
L 268.727876 29.909158 
L 268.892875 29.859986 
L 269.317728 29.723131 
L 269.640547 29.636858 
L 269.928182 29.485915 
L 270.276081 29.364758 
L 270.806034 29.213629 
L 275.625791 27.667828 
L 275.80985 27.579488 
L 276.278094 27.443792 
L 276.840769 27.280605 
L 282.300435 25.585573 
L 283.565508 25.230329 
L 284.327784 24.941853 
L 284.682299 24.821832 
L 290.97441 22.842002 
L 291.196492 22.780859 
L 305.672111 18.311899 
L 306.686006 18.041949 
L 308.724452 17.37609 
L 308.892728 17.31428 
L 309.357267 17.170968 
L 309.840511 17.036791 
L 310.433963 16.805145 
L 311.073656 16.579273 
L 311.073656 16.579273 
" style="fill:none;stroke:#9467bd;stroke-linecap:round;stroke-width:1.75;"/>
   </g>
   <g id="patch_3">
    <path d="M 47.749474 137.944 
L 47.749474 10.8 
" style="fill:none;stroke:#cccccc;stroke-linecap:square;stroke-linejoin:miter;"/>
   </g>
   <g id="patch_4">
    <path d="M 344.478952 137.944 
L 344.478952 10.8 
" style="fill:none;stroke:#cccccc;stroke-linecap:square;stroke-linejoin:miter;"/>
   </g>
   <g id="patch_5">
    <path d="M 47.749474 137.944 
L 344.478952 137.944 
" style="fill:none;stroke:#cccccc;stroke-linecap:square;stroke-linejoin:miter;"/>
   </g>
   <g id="patch_6">
    <path d="M 47.749474 10.8 
L 344.478952 10.8 
" style="fill:none;stroke:#cccccc;stroke-linecap:square;stroke-linejoin:miter;"/>
   </g>
   <g id="legend_1">
    <g id="line2d_106">
     <path d="M 292.488327 64.651813 
L 312.488327 64.651813 
" style="fill:none;stroke:#1f77b4;stroke-linecap:round;stroke-width:1.75;"/>
    </g>
    <g id="line2d_107"/>
    <g id="text_14">
     <!-- M1 -->
     <defs>
      <path d="M 9.8125 72.90625 
L 24.515625 72.90625 
L 43.109375 23.296875 
L 61.8125 72.90625 
L 76.515625 72.90625 
L 76.515625 0 
L 66.890625 0 
L 66.890625 64.015625 
L 48.09375 14.015625 
L 38.1875 14.015625 
L 19.390625 64.015625 
L 19.390625 0 
L 9.8125 0 
z
" id="DejaVuSans-4d"/>
     </defs>
     <g style="fill:#262626;" transform="translate(320.488327 68.151813)scale(0.1 -0.1)">
      <use xlink:href="#DejaVuSans-4d"/>
      <use x="86.279297" xlink:href="#DejaVuSans-31"/>
     </g>
    </g>
    <g id="line2d_108">
     <path d="M 292.488327 79.329937 
L 312.488327 79.329937 
" style="fill:none;stroke:#ff7f0e;stroke-linecap:round;stroke-width:1.75;"/>
    </g>
    <g id="line2d_109"/>
    <g id="text_15">
     <!-- M2 -->
     <g style="fill:#262626;" transform="translate(320.488327 82.829937)scale(0.1 -0.1)">
      <use xlink:href="#DejaVuSans-4d"/>
      <use x="86.279297" xlink:href="#DejaVuSans-32"/>
     </g>
    </g>
    <g id="line2d_110">
     <path d="M 292.488327 94.008063 
L 312.488327 94.008063 
" style="fill:none;stroke:#2ca02c;stroke-linecap:round;stroke-width:1.75;"/>
    </g>
    <g id="line2d_111"/>
    <g id="text_16">
     <!-- M3 -->
     <g style="fill:#262626;" transform="translate(320.488327 97.508063)scale(0.1 -0.1)">
      <use xlink:href="#DejaVuSans-4d"/>
      <use x="86.279297" xlink:href="#DejaVuSans-33"/>
     </g>
    </g>
    <g id="line2d_112">
     <path d="M 292.488327 108.686188 
L 312.488327 108.686188 
" style="fill:none;stroke:#d62728;stroke-linecap:round;stroke-width:1.75;"/>
    </g>
    <g id="line2d_113"/>
    <g id="text_17">
     <!-- M4 -->
     <g style="fill:#262626;" transform="translate(320.488327 112.186188)scale(0.1 -0.1)">
      <use xlink:href="#DejaVuSans-4d"/>
      <use x="86.279297" xlink:href="#DejaVuSans-34"/>
     </g>
    </g>
    <g id="line2d_114">
     <path d="M 292.488327 123.364313 
L 312.488327 123.364313 
" style="fill:none;stroke:#9467bd;stroke-linecap:round;stroke-width:1.75;"/>
    </g>
    <g id="line2d_115"/>
    <g id="text_18">
     <!-- M5 -->
     <g style="fill:#262626;" transform="translate(320.488327 126.864313)scale(0.1 -0.1)">
      <use xlink:href="#DejaVuSans-4d"/>
      <use x="86.279297" xlink:href="#DejaVuSans-35"/>
     </g>
    </g>
   </g>
  </g>
 </g>
 <defs>
  <clipPath id="pec0561033d">
   <rect height="127.144" width="296.729478" x="47.749474" y="10.8"/>
  </clipPath>
 </defs>
</svg>
