<?xml version="1.0" encoding="utf-8" standalone="no"?>
<!DOCTYPE svg PUBLIC "-//W3C//DTD SVG 1.1//EN"
  "http://www.w3.org/Graphics/SVG/1.1/DTD/svg11.dtd">
<!-- Created with matplotlib (http://matplotlib.org/) -->
<svg height="360pt" version="1.1" viewBox="0 0 360 360" width="360pt" xmlns="http://www.w3.org/2000/svg" xmlns:xlink="http://www.w3.org/1999/xlink">
 <defs>
  <style type="text/css">
*{stroke-linecap:butt;stroke-linejoin:round;}
  </style>
 </defs>
 <g id="figure_1">
  <g id="patch_1">
   <path d="M 0 360 
L 360 360 
L 360 0 
L 0 0 
z
" style="fill:#ffffff;"/>
  </g>
  <g id="axes_1">
   <g id="patch_2">
    <path d="M 57.47 318.04 
L 349.2 318.04 
L 349.2 10.8 
L 57.47 10.8 
z
" style="fill:#ffffff;"/>
   </g>
   <g id="matplotlib.axis_1">
    <g id="xtick_1">
     <g id="line2d_1"/>
     <g id="text_1">
      <!-- 0 -->
      <defs>
       <path d="M 31.78125 66.40625 
Q 24.171875 66.40625 20.328125 58.90625 
Q 16.5 51.421875 16.5 36.375 
Q 16.5 21.390625 20.328125 13.890625 
Q 24.171875 6.390625 31.78125 6.390625 
Q 39.453125 6.390625 43.28125 13.890625 
Q 47.125 21.390625 47.125 36.375 
Q 47.125 51.421875 43.28125 58.90625 
Q 39.453125 66.40625 31.78125 66.40625 
z
M 31.78125 74.21875 
Q 44.046875 74.21875 50.515625 64.515625 
Q 56.984375 54.828125 56.984375 36.375 
Q 56.984375 17.96875 50.515625 8.265625 
Q 44.046875 -1.421875 31.78125 -1.421875 
Q 19.53125 -1.421875 13.0625 8.265625 
Q 6.59375 17.96875 6.59375 36.375 
Q 6.59375 54.828125 13.0625 64.515625 
Q 19.53125 74.21875 31.78125 74.21875 
z
" id="DejaVuSans-30"/>
      </defs>
      <g style="fill:#262626;" transform="translate(67.549205 332.638438)scale(0.1 -0.1)">
       <use xlink:href="#DejaVuSans-30"/>
      </g>
     </g>
    </g>
    <g id="xtick_2">
     <g id="line2d_2"/>
     <g id="text_2">
      <!-- 20 -->
      <defs>
       <path d="M 19.1875 8.296875 
L 53.609375 8.296875 
L 53.609375 0 
L 7.328125 0 
L 7.328125 8.296875 
Q 12.9375 14.109375 22.625 23.890625 
Q 32.328125 33.6875 34.8125 36.53125 
Q 39.546875 41.84375 41.421875 45.53125 
Q 43.3125 49.21875 43.3125 52.78125 
Q 43.3125 58.59375 39.234375 62.25 
Q 35.15625 65.921875 28.609375 65.921875 
Q 23.96875 65.921875 18.8125 64.3125 
Q 13.671875 62.703125 7.8125 59.421875 
L 7.8125 69.390625 
Q 13.765625 71.78125 18.9375 73 
Q 24.125 74.21875 28.421875 74.21875 
Q 39.75 74.21875 46.484375 68.546875 
Q 53.21875 62.890625 53.21875 53.421875 
Q 53.21875 48.921875 51.53125 44.890625 
Q 49.859375 40.875 45.40625 35.40625 
Q 44.1875 33.984375 37.640625 27.21875 
Q 31.109375 20.453125 19.1875 8.296875 
z
" id="DejaVuSans-32"/>
      </defs>
      <g style="fill:#262626;" transform="translate(117.945549 332.638438)scale(0.1 -0.1)">
       <use xlink:href="#DejaVuSans-32"/>
       <use x="63.623047" xlink:href="#DejaVuSans-30"/>
      </g>
     </g>
    </g>
    <g id="xtick_3">
     <g id="line2d_3"/>
     <g id="text_3">
      <!-- 40 -->
      <defs>
       <path d="M 37.796875 64.3125 
L 12.890625 25.390625 
L 37.796875 25.390625 
z
M 35.203125 72.90625 
L 47.609375 72.90625 
L 47.609375 25.390625 
L 58.015625 25.390625 
L 58.015625 17.1875 
L 47.609375 17.1875 
L 47.609375 0 
L 37.796875 0 
L 37.796875 17.1875 
L 4.890625 17.1875 
L 4.890625 26.703125 
z
" id="DejaVuSans-34"/>
      </defs>
      <g style="fill:#262626;" transform="translate(171.523143 332.638438)scale(0.1 -0.1)">
       <use xlink:href="#DejaVuSans-34"/>
       <use x="63.623047" xlink:href="#DejaVuSans-30"/>
      </g>
     </g>
    </g>
    <g id="xtick_4">
     <g id="line2d_4"/>
     <g id="text_4">
      <!-- 60 -->
      <defs>
       <path d="M 33.015625 40.375 
Q 26.375 40.375 22.484375 35.828125 
Q 18.609375 31.296875 18.609375 23.390625 
Q 18.609375 15.53125 22.484375 10.953125 
Q 26.375 6.390625 33.015625 6.390625 
Q 39.65625 6.390625 43.53125 10.953125 
Q 47.40625 15.53125 47.40625 23.390625 
Q 47.40625 31.296875 43.53125 35.828125 
Q 39.65625 40.375 33.015625 40.375 
z
M 52.59375 71.296875 
L 52.59375 62.3125 
Q 48.875 64.0625 45.09375 64.984375 
Q 41.3125 65.921875 37.59375 65.921875 
Q 27.828125 65.921875 22.671875 59.328125 
Q 17.53125 52.734375 16.796875 39.40625 
Q 19.671875 43.65625 24.015625 45.921875 
Q 28.375 48.1875 33.59375 48.1875 
Q 44.578125 48.1875 50.953125 41.515625 
Q 57.328125 34.859375 57.328125 23.390625 
Q 57.328125 12.15625 50.6875 5.359375 
Q 44.046875 -1.421875 33.015625 -1.421875 
Q 20.359375 -1.421875 13.671875 8.265625 
Q 6.984375 17.96875 6.984375 36.375 
Q 6.984375 53.65625 15.1875 63.9375 
Q 23.390625 74.21875 37.203125 74.21875 
Q 40.921875 74.21875 44.703125 73.484375 
Q 48.484375 72.75 52.59375 71.296875 
z
" id="DejaVuSans-36"/>
      </defs>
      <g style="fill:#262626;" transform="translate(225.100737 332.638438)scale(0.1 -0.1)">
       <use xlink:href="#DejaVuSans-36"/>
       <use x="63.623047" xlink:href="#DejaVuSans-30"/>
      </g>
     </g>
    </g>
    <g id="xtick_5">
     <g id="line2d_5"/>
     <g id="text_5">
      <!-- 80 -->
      <defs>
       <path d="M 31.78125 34.625 
Q 24.75 34.625 20.71875 30.859375 
Q 16.703125 27.09375 16.703125 20.515625 
Q 16.703125 13.921875 20.71875 10.15625 
Q 24.75 6.390625 31.78125 6.390625 
Q 38.8125 6.390625 42.859375 10.171875 
Q 46.921875 13.96875 46.921875 20.515625 
Q 46.921875 27.09375 42.890625 30.859375 
Q 38.875 34.625 31.78125 34.625 
z
M 21.921875 38.8125 
Q 15.578125 40.375 12.03125 44.71875 
Q 8.5 49.078125 8.5 55.328125 
Q 8.5 64.0625 14.71875 69.140625 
Q 20.953125 74.21875 31.78125 74.21875 
Q 42.671875 74.21875 48.875 69.140625 
Q 55.078125 64.0625 55.078125 55.328125 
Q 55.078125 49.078125 51.53125 44.71875 
Q 48 40.375 41.703125 38.8125 
Q 48.828125 37.15625 52.796875 32.3125 
Q 56.78125 27.484375 56.78125 20.515625 
Q 56.78125 9.90625 50.3125 4.234375 
Q 43.84375 -1.421875 31.78125 -1.421875 
Q 19.734375 -1.421875 13.25 4.234375 
Q 6.78125 9.90625 6.78125 20.515625 
Q 6.78125 27.484375 10.78125 32.3125 
Q 14.796875 37.15625 21.921875 38.8125 
z
M 18.3125 54.390625 
Q 18.3125 48.734375 21.84375 45.5625 
Q 25.390625 42.390625 31.78125 42.390625 
Q 38.140625 42.390625 41.71875 45.5625 
Q 45.3125 48.734375 45.3125 54.390625 
Q 45.3125 60.0625 41.71875 63.234375 
Q 38.140625 66.40625 31.78125 66.40625 
Q 25.390625 66.40625 21.84375 63.234375 
Q 18.3125 60.0625 18.3125 54.390625 
z
" id="DejaVuSans-38"/>
      </defs>
      <g style="fill:#262626;" transform="translate(278.678331 332.638438)scale(0.1 -0.1)">
       <use xlink:href="#DejaVuSans-38"/>
       <use x="63.623047" xlink:href="#DejaVuSans-30"/>
      </g>
     </g>
    </g>
    <g id="xtick_6">
     <g id="line2d_6"/>
     <g id="text_6">
      <!-- 100 -->
      <defs>
       <path d="M 12.40625 8.296875 
L 28.515625 8.296875 
L 28.515625 63.921875 
L 10.984375 60.40625 
L 10.984375 69.390625 
L 28.421875 72.90625 
L 38.28125 72.90625 
L 38.28125 8.296875 
L 54.390625 8.296875 
L 54.390625 0 
L 12.40625 0 
z
" id="DejaVuSans-31"/>
      </defs>
      <g style="fill:#262626;" transform="translate(329.074675 332.638438)scale(0.1 -0.1)">
       <use xlink:href="#DejaVuSans-31"/>
       <use x="63.623047" xlink:href="#DejaVuSans-30"/>
       <use x="127.246094" xlink:href="#DejaVuSans-30"/>
      </g>
     </g>
    </g>
    <g id="text_7">
     <!-- Solvent rank (high to low by rdkit-md qspr) -->
     <defs>
      <path d="M 53.515625 70.515625 
L 53.515625 60.890625 
Q 47.90625 63.578125 42.921875 64.890625 
Q 37.9375 66.21875 33.296875 66.21875 
Q 25.25 66.21875 20.875 63.09375 
Q 16.5 59.96875 16.5 54.203125 
Q 16.5 49.359375 19.40625 46.890625 
Q 22.3125 44.4375 30.421875 42.921875 
L 36.375 41.703125 
Q 47.40625 39.59375 52.65625 34.296875 
Q 57.90625 29 57.90625 20.125 
Q 57.90625 9.515625 50.796875 4.046875 
Q 43.703125 -1.421875 29.984375 -1.421875 
Q 24.8125 -1.421875 18.96875 -0.25 
Q 13.140625 0.921875 6.890625 3.21875 
L 6.890625 13.375 
Q 12.890625 10.015625 18.65625 8.296875 
Q 24.421875 6.59375 29.984375 6.59375 
Q 38.421875 6.59375 43.015625 9.90625 
Q 47.609375 13.234375 47.609375 19.390625 
Q 47.609375 24.75 44.3125 27.78125 
Q 41.015625 30.8125 33.5 32.328125 
L 27.484375 33.5 
Q 16.453125 35.6875 11.515625 40.375 
Q 6.59375 45.0625 6.59375 53.421875 
Q 6.59375 63.09375 13.40625 68.65625 
Q 20.21875 74.21875 32.171875 74.21875 
Q 37.3125 74.21875 42.625 73.28125 
Q 47.953125 72.359375 53.515625 70.515625 
z
" id="DejaVuSans-53"/>
      <path d="M 30.609375 48.390625 
Q 23.390625 48.390625 19.1875 42.75 
Q 14.984375 37.109375 14.984375 27.296875 
Q 14.984375 17.484375 19.15625 11.84375 
Q 23.34375 6.203125 30.609375 6.203125 
Q 37.796875 6.203125 41.984375 11.859375 
Q 46.1875 17.53125 46.1875 27.296875 
Q 46.1875 37.015625 41.984375 42.703125 
Q 37.796875 48.390625 30.609375 48.390625 
z
M 30.609375 56 
Q 42.328125 56 49.015625 48.375 
Q 55.71875 40.765625 55.71875 27.296875 
Q 55.71875 13.875 49.015625 6.21875 
Q 42.328125 -1.421875 30.609375 -1.421875 
Q 18.84375 -1.421875 12.171875 6.21875 
Q 5.515625 13.875 5.515625 27.296875 
Q 5.515625 40.765625 12.171875 48.375 
Q 18.84375 56 30.609375 56 
z
" id="DejaVuSans-6f"/>
      <path d="M 9.421875 75.984375 
L 18.40625 75.984375 
L 18.40625 0 
L 9.421875 0 
z
" id="DejaVuSans-6c"/>
      <path d="M 2.984375 54.6875 
L 12.5 54.6875 
L 29.59375 8.796875 
L 46.6875 54.6875 
L 56.203125 54.6875 
L 35.6875 0 
L 23.484375 0 
z
" id="DejaVuSans-76"/>
      <path d="M 56.203125 29.59375 
L 56.203125 25.203125 
L 14.890625 25.203125 
Q 15.484375 15.921875 20.484375 11.0625 
Q 25.484375 6.203125 34.421875 6.203125 
Q 39.59375 6.203125 44.453125 7.46875 
Q 49.3125 8.734375 54.109375 11.28125 
L 54.109375 2.78125 
Q 49.265625 0.734375 44.1875 -0.34375 
Q 39.109375 -1.421875 33.890625 -1.421875 
Q 20.796875 -1.421875 13.15625 6.1875 
Q 5.515625 13.8125 5.515625 26.8125 
Q 5.515625 40.234375 12.765625 48.109375 
Q 20.015625 56 32.328125 56 
Q 43.359375 56 49.78125 48.890625 
Q 56.203125 41.796875 56.203125 29.59375 
z
M 47.21875 32.234375 
Q 47.125 39.59375 43.09375 43.984375 
Q 39.0625 48.390625 32.421875 48.390625 
Q 24.90625 48.390625 20.390625 44.140625 
Q 15.875 39.890625 15.1875 32.171875 
z
" id="DejaVuSans-65"/>
      <path d="M 54.890625 33.015625 
L 54.890625 0 
L 45.90625 0 
L 45.90625 32.71875 
Q 45.90625 40.484375 42.875 44.328125 
Q 39.84375 48.1875 33.796875 48.1875 
Q 26.515625 48.1875 22.3125 43.546875 
Q 18.109375 38.921875 18.109375 30.90625 
L 18.109375 0 
L 9.078125 0 
L 9.078125 54.6875 
L 18.109375 54.6875 
L 18.109375 46.1875 
Q 21.34375 51.125 25.703125 53.5625 
Q 30.078125 56 35.796875 56 
Q 45.21875 56 50.046875 50.171875 
Q 54.890625 44.34375 54.890625 33.015625 
z
" id="DejaVuSans-6e"/>
      <path d="M 18.3125 70.21875 
L 18.3125 54.6875 
L 36.8125 54.6875 
L 36.8125 47.703125 
L 18.3125 47.703125 
L 18.3125 18.015625 
Q 18.3125 11.328125 20.140625 9.421875 
Q 21.96875 7.515625 27.59375 7.515625 
L 36.8125 7.515625 
L 36.8125 0 
L 27.59375 0 
Q 17.1875 0 13.234375 3.875 
Q 9.28125 7.765625 9.28125 18.015625 
L 9.28125 47.703125 
L 2.6875 47.703125 
L 2.6875 54.6875 
L 9.28125 54.6875 
L 9.28125 70.21875 
z
" id="DejaVuSans-74"/>
      <path id="DejaVuSans-20"/>
      <path d="M 41.109375 46.296875 
Q 39.59375 47.171875 37.8125 47.578125 
Q 36.03125 48 33.890625 48 
Q 26.265625 48 22.1875 43.046875 
Q 18.109375 38.09375 18.109375 28.8125 
L 18.109375 0 
L 9.078125 0 
L 9.078125 54.6875 
L 18.109375 54.6875 
L 18.109375 46.1875 
Q 20.953125 51.171875 25.484375 53.578125 
Q 30.03125 56 36.53125 56 
Q 37.453125 56 38.578125 55.875 
Q 39.703125 55.765625 41.0625 55.515625 
z
" id="DejaVuSans-72"/>
      <path d="M 34.28125 27.484375 
Q 23.390625 27.484375 19.1875 25 
Q 14.984375 22.515625 14.984375 16.5 
Q 14.984375 11.71875 18.140625 8.90625 
Q 21.296875 6.109375 26.703125 6.109375 
Q 34.1875 6.109375 38.703125 11.40625 
Q 43.21875 16.703125 43.21875 25.484375 
L 43.21875 27.484375 
z
M 52.203125 31.203125 
L 52.203125 0 
L 43.21875 0 
L 43.21875 8.296875 
Q 40.140625 3.328125 35.546875 0.953125 
Q 30.953125 -1.421875 24.3125 -1.421875 
Q 15.921875 -1.421875 10.953125 3.296875 
Q 6 8.015625 6 15.921875 
Q 6 25.140625 12.171875 29.828125 
Q 18.359375 34.515625 30.609375 34.515625 
L 43.21875 34.515625 
L 43.21875 35.40625 
Q 43.21875 41.609375 39.140625 45 
Q 35.0625 48.390625 27.6875 48.390625 
Q 23 48.390625 18.546875 47.265625 
Q 14.109375 46.140625 10.015625 43.890625 
L 10.015625 52.203125 
Q 14.9375 54.109375 19.578125 55.046875 
Q 24.21875 56 28.609375 56 
Q 40.484375 56 46.34375 49.84375 
Q 52.203125 43.703125 52.203125 31.203125 
z
" id="DejaVuSans-61"/>
      <path d="M 9.078125 75.984375 
L 18.109375 75.984375 
L 18.109375 31.109375 
L 44.921875 54.6875 
L 56.390625 54.6875 
L 27.390625 29.109375 
L 57.625 0 
L 45.90625 0 
L 18.109375 26.703125 
L 18.109375 0 
L 9.078125 0 
z
" id="DejaVuSans-6b"/>
      <path d="M 31 75.875 
Q 24.46875 64.65625 21.28125 53.65625 
Q 18.109375 42.671875 18.109375 31.390625 
Q 18.109375 20.125 21.3125 9.0625 
Q 24.515625 -2 31 -13.1875 
L 23.1875 -13.1875 
Q 15.875 -1.703125 12.234375 9.375 
Q 8.59375 20.453125 8.59375 31.390625 
Q 8.59375 42.28125 12.203125 53.3125 
Q 15.828125 64.359375 23.1875 75.875 
z
" id="DejaVuSans-28"/>
      <path d="M 54.890625 33.015625 
L 54.890625 0 
L 45.90625 0 
L 45.90625 32.71875 
Q 45.90625 40.484375 42.875 44.328125 
Q 39.84375 48.1875 33.796875 48.1875 
Q 26.515625 48.1875 22.3125 43.546875 
Q 18.109375 38.921875 18.109375 30.90625 
L 18.109375 0 
L 9.078125 0 
L 9.078125 75.984375 
L 18.109375 75.984375 
L 18.109375 46.1875 
Q 21.34375 51.125 25.703125 53.5625 
Q 30.078125 56 35.796875 56 
Q 45.21875 56 50.046875 50.171875 
Q 54.890625 44.34375 54.890625 33.015625 
z
" id="DejaVuSans-68"/>
      <path d="M 9.421875 54.6875 
L 18.40625 54.6875 
L 18.40625 0 
L 9.421875 0 
z
M 9.421875 75.984375 
L 18.40625 75.984375 
L 18.40625 64.59375 
L 9.421875 64.59375 
z
" id="DejaVuSans-69"/>
      <path d="M 45.40625 27.984375 
Q 45.40625 37.75 41.375 43.109375 
Q 37.359375 48.484375 30.078125 48.484375 
Q 22.859375 48.484375 18.828125 43.109375 
Q 14.796875 37.75 14.796875 27.984375 
Q 14.796875 18.265625 18.828125 12.890625 
Q 22.859375 7.515625 30.078125 7.515625 
Q 37.359375 7.515625 41.375 12.890625 
Q 45.40625 18.265625 45.40625 27.984375 
z
M 54.390625 6.78125 
Q 54.390625 -7.171875 48.1875 -13.984375 
Q 42 -20.796875 29.203125 -20.796875 
Q 24.46875 -20.796875 20.265625 -20.09375 
Q 16.0625 -19.390625 12.109375 -17.921875 
L 12.109375 -9.1875 
Q 16.0625 -11.328125 19.921875 -12.34375 
Q 23.78125 -13.375 27.78125 -13.375 
Q 36.625 -13.375 41.015625 -8.765625 
Q 45.40625 -4.15625 45.40625 5.171875 
L 45.40625 9.625 
Q 42.625 4.78125 38.28125 2.390625 
Q 33.9375 0 27.875 0 
Q 17.828125 0 11.671875 7.65625 
Q 5.515625 15.328125 5.515625 27.984375 
Q 5.515625 40.671875 11.671875 48.328125 
Q 17.828125 56 27.875 56 
Q 33.9375 56 38.28125 53.609375 
Q 42.625 51.21875 45.40625 46.390625 
L 45.40625 54.6875 
L 54.390625 54.6875 
z
" id="DejaVuSans-67"/>
      <path d="M 4.203125 54.6875 
L 13.1875 54.6875 
L 24.421875 12.015625 
L 35.59375 54.6875 
L 46.1875 54.6875 
L 57.421875 12.015625 
L 68.609375 54.6875 
L 77.59375 54.6875 
L 63.28125 0 
L 52.6875 0 
L 40.921875 44.828125 
L 29.109375 0 
L 18.5 0 
z
" id="DejaVuSans-77"/>
      <path d="M 48.6875 27.296875 
Q 48.6875 37.203125 44.609375 42.84375 
Q 40.53125 48.484375 33.40625 48.484375 
Q 26.265625 48.484375 22.1875 42.84375 
Q 18.109375 37.203125 18.109375 27.296875 
Q 18.109375 17.390625 22.1875 11.75 
Q 26.265625 6.109375 33.40625 6.109375 
Q 40.53125 6.109375 44.609375 11.75 
Q 48.6875 17.390625 48.6875 27.296875 
z
M 18.109375 46.390625 
Q 20.953125 51.265625 25.265625 53.625 
Q 29.59375 56 35.59375 56 
Q 45.5625 56 51.78125 48.09375 
Q 58.015625 40.1875 58.015625 27.296875 
Q 58.015625 14.40625 51.78125 6.484375 
Q 45.5625 -1.421875 35.59375 -1.421875 
Q 29.59375 -1.421875 25.265625 0.953125 
Q 20.953125 3.328125 18.109375 8.203125 
L 18.109375 0 
L 9.078125 0 
L 9.078125 75.984375 
L 18.109375 75.984375 
z
" id="DejaVuSans-62"/>
      <path d="M 32.171875 -5.078125 
Q 28.375 -14.84375 24.75 -17.8125 
Q 21.140625 -20.796875 15.09375 -20.796875 
L 7.90625 -20.796875 
L 7.90625 -13.28125 
L 13.1875 -13.28125 
Q 16.890625 -13.28125 18.9375 -11.515625 
Q 21 -9.765625 23.484375 -3.21875 
L 25.09375 0.875 
L 2.984375 54.6875 
L 12.5 54.6875 
L 29.59375 11.921875 
L 46.6875 54.6875 
L 56.203125 54.6875 
z
" id="DejaVuSans-79"/>
      <path d="M 45.40625 46.390625 
L 45.40625 75.984375 
L 54.390625 75.984375 
L 54.390625 0 
L 45.40625 0 
L 45.40625 8.203125 
Q 42.578125 3.328125 38.25 0.953125 
Q 33.9375 -1.421875 27.875 -1.421875 
Q 17.96875 -1.421875 11.734375 6.484375 
Q 5.515625 14.40625 5.515625 27.296875 
Q 5.515625 40.1875 11.734375 48.09375 
Q 17.96875 56 27.875 56 
Q 33.9375 56 38.25 53.625 
Q 42.578125 51.265625 45.40625 46.390625 
z
M 14.796875 27.296875 
Q 14.796875 17.390625 18.875 11.75 
Q 22.953125 6.109375 30.078125 6.109375 
Q 37.203125 6.109375 41.296875 11.75 
Q 45.40625 17.390625 45.40625 27.296875 
Q 45.40625 37.203125 41.296875 42.84375 
Q 37.203125 48.484375 30.078125 48.484375 
Q 22.953125 48.484375 18.875 42.84375 
Q 14.796875 37.203125 14.796875 27.296875 
z
" id="DejaVuSans-64"/>
      <path d="M 4.890625 31.390625 
L 31.203125 31.390625 
L 31.203125 23.390625 
L 4.890625 23.390625 
z
" id="DejaVuSans-2d"/>
      <path d="M 52 44.1875 
Q 55.375 50.25 60.0625 53.125 
Q 64.75 56 71.09375 56 
Q 79.640625 56 84.28125 50.015625 
Q 88.921875 44.046875 88.921875 33.015625 
L 88.921875 0 
L 79.890625 0 
L 79.890625 32.71875 
Q 79.890625 40.578125 77.09375 44.375 
Q 74.3125 48.1875 68.609375 48.1875 
Q 61.625 48.1875 57.5625 43.546875 
Q 53.515625 38.921875 53.515625 30.90625 
L 53.515625 0 
L 44.484375 0 
L 44.484375 32.71875 
Q 44.484375 40.625 41.703125 44.40625 
Q 38.921875 48.1875 33.109375 48.1875 
Q 26.21875 48.1875 22.15625 43.53125 
Q 18.109375 38.875 18.109375 30.90625 
L 18.109375 0 
L 9.078125 0 
L 9.078125 54.6875 
L 18.109375 54.6875 
L 18.109375 46.1875 
Q 21.1875 51.21875 25.484375 53.609375 
Q 29.78125 56 35.6875 56 
Q 41.65625 56 45.828125 52.96875 
Q 50 49.953125 52 44.1875 
z
" id="DejaVuSans-6d"/>
      <path d="M 14.796875 27.296875 
Q 14.796875 17.390625 18.875 11.75 
Q 22.953125 6.109375 30.078125 6.109375 
Q 37.203125 6.109375 41.296875 11.75 
Q 45.40625 17.390625 45.40625 27.296875 
Q 45.40625 37.203125 41.296875 42.84375 
Q 37.203125 48.484375 30.078125 48.484375 
Q 22.953125 48.484375 18.875 42.84375 
Q 14.796875 37.203125 14.796875 27.296875 
z
M 45.40625 8.203125 
Q 42.578125 3.328125 38.25 0.953125 
Q 33.9375 -1.421875 27.875 -1.421875 
Q 17.96875 -1.421875 11.734375 6.484375 
Q 5.515625 14.40625 5.515625 27.296875 
Q 5.515625 40.1875 11.734375 48.09375 
Q 17.96875 56 27.875 56 
Q 33.9375 56 38.25 53.625 
Q 42.578125 51.265625 45.40625 46.390625 
L 45.40625 54.6875 
L 54.390625 54.6875 
L 54.390625 -20.796875 
L 45.40625 -20.796875 
z
" id="DejaVuSans-71"/>
      <path d="M 44.28125 53.078125 
L 44.28125 44.578125 
Q 40.484375 46.53125 36.375 47.5 
Q 32.28125 48.484375 27.875 48.484375 
Q 21.1875 48.484375 17.84375 46.4375 
Q 14.5 44.390625 14.5 40.28125 
Q 14.5 37.15625 16.890625 35.375 
Q 19.28125 33.59375 26.515625 31.984375 
L 29.59375 31.296875 
Q 39.15625 29.25 43.1875 25.515625 
Q 47.21875 21.78125 47.21875 15.09375 
Q 47.21875 7.46875 41.1875 3.015625 
Q 35.15625 -1.421875 24.609375 -1.421875 
Q 20.21875 -1.421875 15.453125 -0.5625 
Q 10.6875 0.296875 5.421875 2 
L 5.421875 11.28125 
Q 10.40625 8.6875 15.234375 7.390625 
Q 20.0625 6.109375 24.8125 6.109375 
Q 31.15625 6.109375 34.5625 8.28125 
Q 37.984375 10.453125 37.984375 14.40625 
Q 37.984375 18.0625 35.515625 20.015625 
Q 33.0625 21.96875 24.703125 23.78125 
L 21.578125 24.515625 
Q 13.234375 26.265625 9.515625 29.90625 
Q 5.8125 33.546875 5.8125 39.890625 
Q 5.8125 47.609375 11.28125 51.796875 
Q 16.75 56 26.8125 56 
Q 31.78125 56 36.171875 55.265625 
Q 40.578125 54.546875 44.28125 53.078125 
z
" id="DejaVuSans-73"/>
      <path d="M 18.109375 8.203125 
L 18.109375 -20.796875 
L 9.078125 -20.796875 
L 9.078125 54.6875 
L 18.109375 54.6875 
L 18.109375 46.390625 
Q 20.953125 51.265625 25.265625 53.625 
Q 29.59375 56 35.59375 56 
Q 45.5625 56 51.78125 48.09375 
Q 58.015625 40.1875 58.015625 27.296875 
Q 58.015625 14.40625 51.78125 6.484375 
Q 45.5625 -1.421875 35.59375 -1.421875 
Q 29.59375 -1.421875 25.265625 0.953125 
Q 20.953125 3.328125 18.109375 8.203125 
z
M 48.6875 27.296875 
Q 48.6875 37.203125 44.609375 42.84375 
Q 40.53125 48.484375 33.40625 48.484375 
Q 26.265625 48.484375 22.1875 42.84375 
Q 18.109375 37.203125 18.109375 27.296875 
Q 18.109375 17.390625 22.1875 11.75 
Q 26.265625 6.109375 33.40625 6.109375 
Q 40.53125 6.109375 44.609375 11.75 
Q 48.6875 17.390625 48.6875 27.296875 
z
" id="DejaVuSans-70"/>
      <path d="M 8.015625 75.875 
L 15.828125 75.875 
Q 23.140625 64.359375 26.78125 53.3125 
Q 30.421875 42.28125 30.421875 31.390625 
Q 30.421875 20.453125 26.78125 9.375 
Q 23.140625 -1.703125 15.828125 -13.1875 
L 8.015625 -13.1875 
Q 14.5 -2 17.703125 9.0625 
Q 20.90625 20.125 20.90625 31.390625 
Q 20.90625 42.671875 17.703125 53.65625 
Q 14.5 64.65625 8.015625 75.875 
z
" id="DejaVuSans-29"/>
     </defs>
     <g style="fill:#262626;" transform="translate(84.625234 347.076406)scale(0.11 -0.11)">
      <use xlink:href="#DejaVuSans-53"/>
      <use x="63.476562" xlink:href="#DejaVuSans-6f"/>
      <use x="124.658203" xlink:href="#DejaVuSans-6c"/>
      <use x="152.441406" xlink:href="#DejaVuSans-76"/>
      <use x="211.621094" xlink:href="#DejaVuSans-65"/>
      <use x="273.144531" xlink:href="#DejaVuSans-6e"/>
      <use x="336.523438" xlink:href="#DejaVuSans-74"/>
      <use x="375.732422" xlink:href="#DejaVuSans-20"/>
      <use x="407.519531" xlink:href="#DejaVuSans-72"/>
      <use x="448.632812" xlink:href="#DejaVuSans-61"/>
      <use x="509.912109" xlink:href="#DejaVuSans-6e"/>
      <use x="573.291016" xlink:href="#DejaVuSans-6b"/>
      <use x="631.201172" xlink:href="#DejaVuSans-20"/>
      <use x="662.988281" xlink:href="#DejaVuSans-28"/>
      <use x="702.001953" xlink:href="#DejaVuSans-68"/>
      <use x="765.380859" xlink:href="#DejaVuSans-69"/>
      <use x="793.164062" xlink:href="#DejaVuSans-67"/>
      <use x="856.640625" xlink:href="#DejaVuSans-68"/>
      <use x="920.019531" xlink:href="#DejaVuSans-20"/>
      <use x="951.806641" xlink:href="#DejaVuSans-74"/>
      <use x="991.015625" xlink:href="#DejaVuSans-6f"/>
      <use x="1052.197266" xlink:href="#DejaVuSans-20"/>
      <use x="1083.984375" xlink:href="#DejaVuSans-6c"/>
      <use x="1111.767578" xlink:href="#DejaVuSans-6f"/>
      <use x="1172.949219" xlink:href="#DejaVuSans-77"/>
      <use x="1254.736328" xlink:href="#DejaVuSans-20"/>
      <use x="1286.523438" xlink:href="#DejaVuSans-62"/>
      <use x="1350" xlink:href="#DejaVuSans-79"/>
      <use x="1409.179688" xlink:href="#DejaVuSans-20"/>
      <use x="1440.966797" xlink:href="#DejaVuSans-72"/>
      <use x="1482.064453" xlink:href="#DejaVuSans-64"/>
      <use x="1545.541016" xlink:href="#DejaVuSans-6b"/>
      <use x="1603.451172" xlink:href="#DejaVuSans-69"/>
      <use x="1631.234375" xlink:href="#DejaVuSans-74"/>
      <use x="1670.443359" xlink:href="#DejaVuSans-2d"/>
      <use x="1706.527344" xlink:href="#DejaVuSans-6d"/>
      <use x="1803.939453" xlink:href="#DejaVuSans-64"/>
      <use x="1867.416016" xlink:href="#DejaVuSans-20"/>
      <use x="1899.203125" xlink:href="#DejaVuSans-71"/>
      <use x="1962.679688" xlink:href="#DejaVuSans-73"/>
      <use x="2014.779297" xlink:href="#DejaVuSans-70"/>
      <use x="2078.255859" xlink:href="#DejaVuSans-72"/>
      <use x="2119.369141" xlink:href="#DejaVuSans-29"/>
     </g>
    </g>
   </g>
   <g id="matplotlib.axis_2">
    <g id="ytick_1">
     <g id="line2d_7"/>
     <g id="text_8">
      <!-- 800 -->
      <g style="fill:#262626;" transform="translate(31.3825 269.641127)scale(0.1 -0.1)">
       <use xlink:href="#DejaVuSans-38"/>
       <use x="63.623047" xlink:href="#DejaVuSans-30"/>
       <use x="127.246094" xlink:href="#DejaVuSans-30"/>
      </g>
     </g>
    </g>
    <g id="ytick_2">
     <g id="line2d_8"/>
     <g id="text_9">
      <!-- 1000 -->
      <g style="fill:#262626;" transform="translate(25.02 204.303437)scale(0.1 -0.1)">
       <use xlink:href="#DejaVuSans-31"/>
       <use x="63.623047" xlink:href="#DejaVuSans-30"/>
       <use x="127.246094" xlink:href="#DejaVuSans-30"/>
       <use x="190.869141" xlink:href="#DejaVuSans-30"/>
      </g>
     </g>
    </g>
    <g id="ytick_3">
     <g id="line2d_9"/>
     <g id="text_10">
      <!-- 1200 -->
      <g style="fill:#262626;" transform="translate(25.02 138.965748)scale(0.1 -0.1)">
       <use xlink:href="#DejaVuSans-31"/>
       <use x="63.623047" xlink:href="#DejaVuSans-32"/>
       <use x="127.246094" xlink:href="#DejaVuSans-30"/>
       <use x="190.869141" xlink:href="#DejaVuSans-30"/>
      </g>
     </g>
    </g>
    <g id="ytick_4">
     <g id="line2d_10"/>
     <g id="text_11">
      <!-- 1400 -->
      <g style="fill:#262626;" transform="translate(25.02 73.628058)scale(0.1 -0.1)">
       <use xlink:href="#DejaVuSans-31"/>
       <use x="63.623047" xlink:href="#DejaVuSans-34"/>
       <use x="127.246094" xlink:href="#DejaVuSans-30"/>
       <use x="190.869141" xlink:href="#DejaVuSans-30"/>
      </g>
     </g>
    </g>
    <g id="text_12">
     <!-- Density Prediction $(kg/m^3)$ -->
     <defs>
      <path d="M 19.671875 64.796875 
L 19.671875 8.109375 
L 31.59375 8.109375 
Q 46.6875 8.109375 53.6875 14.9375 
Q 60.6875 21.78125 60.6875 36.53125 
Q 60.6875 51.171875 53.6875 57.984375 
Q 46.6875 64.796875 31.59375 64.796875 
z
M 9.8125 72.90625 
L 30.078125 72.90625 
Q 51.265625 72.90625 61.171875 64.09375 
Q 71.09375 55.28125 71.09375 36.53125 
Q 71.09375 17.671875 61.125 8.828125 
Q 51.171875 0 30.078125 0 
L 9.8125 0 
z
" id="DejaVuSans-44"/>
      <path d="M 19.671875 64.796875 
L 19.671875 37.40625 
L 32.078125 37.40625 
Q 38.96875 37.40625 42.71875 40.96875 
Q 46.484375 44.53125 46.484375 51.125 
Q 46.484375 57.671875 42.71875 61.234375 
Q 38.96875 64.796875 32.078125 64.796875 
z
M 9.8125 72.90625 
L 32.078125 72.90625 
Q 44.34375 72.90625 50.609375 67.359375 
Q 56.890625 61.8125 56.890625 51.125 
Q 56.890625 40.328125 50.609375 34.8125 
Q 44.34375 29.296875 32.078125 29.296875 
L 19.671875 29.296875 
L 19.671875 0 
L 9.8125 0 
z
" id="DejaVuSans-50"/>
      <path d="M 48.78125 52.59375 
L 48.78125 44.1875 
Q 44.96875 46.296875 41.140625 47.34375 
Q 37.3125 48.390625 33.40625 48.390625 
Q 24.65625 48.390625 19.8125 42.84375 
Q 14.984375 37.3125 14.984375 27.296875 
Q 14.984375 17.28125 19.8125 11.734375 
Q 24.65625 6.203125 33.40625 6.203125 
Q 37.3125 6.203125 41.140625 7.25 
Q 44.96875 8.296875 48.78125 10.40625 
L 48.78125 2.09375 
Q 45.015625 0.34375 40.984375 -0.53125 
Q 36.96875 -1.421875 32.421875 -1.421875 
Q 20.0625 -1.421875 12.78125 6.34375 
Q 5.515625 14.109375 5.515625 27.296875 
Q 5.515625 40.671875 12.859375 48.328125 
Q 20.21875 56 33.015625 56 
Q 37.15625 56 41.109375 55.140625 
Q 45.0625 54.296875 48.78125 52.59375 
z
" id="DejaVuSans-63"/>
      <path d="M 18.3125 75.984375 
L 27.296875 75.984375 
L 18.703125 31.6875 
L 49.515625 54.6875 
L 61.1875 54.6875 
L 26.8125 28.515625 
L 51.90625 0 
L 41.015625 0 
L 17.671875 26.703125 
L 12.5 0 
L 3.515625 0 
z
" id="DejaVuSans-Oblique-6b"/>
      <path d="M 59.625 54.6875 
L 50.296875 6.78125 
Q 47.609375 -7.125 40.015625 -13.953125 
Q 32.421875 -20.796875 19.578125 -20.796875 
Q 14.84375 -20.796875 10.78125 -20.09375 
Q 6.734375 -19.390625 3.21875 -17.921875 
L 4.890625 -9.1875 
Q 8.203125 -11.328125 11.90625 -12.34375 
Q 15.625 -13.375 19.828125 -13.375 
Q 28.375 -13.375 33.859375 -8.703125 
Q 39.359375 -4.046875 41.109375 4.6875 
L 41.890625 8.796875 
Q 38.140625 4.5 33.15625 2.25 
Q 28.171875 0 22.40625 0 
Q 14.109375 0 9.34375 5.484375 
Q 4.59375 10.984375 4.59375 20.609375 
Q 4.59375 28.171875 7.46875 35.421875 
Q 10.359375 42.671875 15.578125 48.296875 
Q 19.046875 52 23.65625 54 
Q 28.265625 56 33.296875 56 
Q 38.8125 56 42.90625 53.4375 
Q 47.015625 50.875 49.03125 46.1875 
L 50.59375 54.6875 
z
M 46.09375 34.625 
Q 46.09375 41.265625 42.96875 44.875 
Q 39.84375 48.484375 34.078125 48.484375 
Q 30.515625 48.484375 27.296875 47.0625 
Q 24.078125 45.65625 21.78125 43.109375 
Q 18.0625 38.921875 15.984375 33.234375 
Q 13.921875 27.546875 13.921875 21.484375 
Q 13.921875 14.75 17.0625 11.125 
Q 20.21875 7.515625 26.125 7.515625 
Q 34.671875 7.515625 40.375 15.25 
Q 46.09375 23 46.09375 34.625 
z
" id="DejaVuSans-Oblique-67"/>
      <path d="M 25.390625 72.90625 
L 33.6875 72.90625 
L 8.296875 -9.28125 
L 0 -9.28125 
z
" id="DejaVuSans-2f"/>
      <path d="M 89.796875 33.015625 
L 83.40625 0 
L 74.421875 0 
L 80.71875 32.71875 
Q 81.109375 34.8125 81.296875 36.328125 
Q 81.5 37.84375 81.5 38.921875 
Q 81.5 43.3125 79.046875 45.75 
Q 76.609375 48.1875 72.21875 48.1875 
Q 65.671875 48.1875 60.546875 43.28125 
Q 55.421875 38.375 53.90625 30.515625 
L 47.90625 0 
L 38.921875 0 
L 45.3125 32.71875 
Q 45.703125 34.515625 45.890625 36.046875 
Q 46.09375 37.59375 46.09375 38.8125 
Q 46.09375 43.265625 43.65625 45.71875 
Q 41.21875 48.1875 36.921875 48.1875 
Q 30.28125 48.1875 25.140625 43.28125 
Q 20.015625 38.375 18.5 30.515625 
L 12.5 0 
L 3.515625 0 
L 14.203125 54.6875 
L 23.1875 54.6875 
L 21.484375 46.1875 
Q 25.140625 50.984375 30.046875 53.484375 
Q 34.96875 56 40.578125 56 
Q 46.53125 56 50.359375 52.875 
Q 54.203125 49.75 54.984375 44.1875 
Q 59.078125 49.953125 64.46875 52.96875 
Q 69.875 56 75.875 56 
Q 82.90625 56 86.734375 51.953125 
Q 90.578125 47.90625 90.578125 40.484375 
Q 90.578125 38.875 90.375 36.9375 
Q 90.1875 35.015625 89.796875 33.015625 
z
" id="DejaVuSans-Oblique-6d"/>
      <path d="M 40.578125 39.3125 
Q 47.65625 37.796875 51.625 33 
Q 55.609375 28.21875 55.609375 21.1875 
Q 55.609375 10.40625 48.1875 4.484375 
Q 40.765625 -1.421875 27.09375 -1.421875 
Q 22.515625 -1.421875 17.65625 -0.515625 
Q 12.796875 0.390625 7.625 2.203125 
L 7.625 11.71875 
Q 11.71875 9.328125 16.59375 8.109375 
Q 21.484375 6.890625 26.8125 6.890625 
Q 36.078125 6.890625 40.9375 10.546875 
Q 45.796875 14.203125 45.796875 21.1875 
Q 45.796875 27.640625 41.28125 31.265625 
Q 36.765625 34.90625 28.71875 34.90625 
L 20.21875 34.90625 
L 20.21875 43.015625 
L 29.109375 43.015625 
Q 36.375 43.015625 40.234375 45.921875 
Q 44.09375 48.828125 44.09375 54.296875 
Q 44.09375 59.90625 40.109375 62.90625 
Q 36.140625 65.921875 28.71875 65.921875 
Q 24.65625 65.921875 20.015625 65.03125 
Q 15.375 64.15625 9.8125 62.3125 
L 9.8125 71.09375 
Q 15.4375 72.65625 20.34375 73.4375 
Q 25.25 74.21875 29.59375 74.21875 
Q 40.828125 74.21875 47.359375 69.109375 
Q 53.90625 64.015625 53.90625 55.328125 
Q 53.90625 49.265625 50.4375 45.09375 
Q 46.96875 40.921875 40.578125 39.3125 
z
" id="DejaVuSans-33"/>
     </defs>
     <g style="fill:#262626;" transform="translate(18.71 237.405)rotate(-90)scale(0.11 -0.11)">
      <use transform="translate(0 0.765625)" xlink:href="#DejaVuSans-44"/>
      <use transform="translate(77.001953 0.765625)" xlink:href="#DejaVuSans-65"/>
      <use transform="translate(138.525391 0.765625)" xlink:href="#DejaVuSans-6e"/>
      <use transform="translate(201.904297 0.765625)" xlink:href="#DejaVuSans-73"/>
      <use transform="translate(254.003906 0.765625)" xlink:href="#DejaVuSans-69"/>
      <use transform="translate(281.787109 0.765625)" xlink:href="#DejaVuSans-74"/>
      <use transform="translate(320.996094 0.765625)" xlink:href="#DejaVuSans-79"/>
      <use transform="translate(380.175781 0.765625)" xlink:href="#DejaVuSans-20"/>
      <use transform="translate(411.962891 0.765625)" xlink:href="#DejaVuSans-50"/>
      <use transform="translate(472.265625 0.765625)" xlink:href="#DejaVuSans-72"/>
      <use transform="translate(513.378906 0.765625)" xlink:href="#DejaVuSans-65"/>
      <use transform="translate(574.902344 0.765625)" xlink:href="#DejaVuSans-64"/>
      <use transform="translate(638.378906 0.765625)" xlink:href="#DejaVuSans-69"/>
      <use transform="translate(666.162109 0.765625)" xlink:href="#DejaVuSans-63"/>
      <use transform="translate(721.142578 0.765625)" xlink:href="#DejaVuSans-74"/>
      <use transform="translate(760.351562 0.765625)" xlink:href="#DejaVuSans-69"/>
      <use transform="translate(788.134766 0.765625)" xlink:href="#DejaVuSans-6f"/>
      <use transform="translate(849.316406 0.765625)" xlink:href="#DejaVuSans-6e"/>
      <use transform="translate(912.695312 0.765625)" xlink:href="#DejaVuSans-20"/>
      <use transform="translate(944.482422 0.765625)" xlink:href="#DejaVuSans-28"/>
      <use transform="translate(983.496094 0.765625)" xlink:href="#DejaVuSans-Oblique-6b"/>
      <use transform="translate(1041.40625 0.765625)" xlink:href="#DejaVuSans-Oblique-67"/>
      <use transform="translate(1104.882812 0.765625)" xlink:href="#DejaVuSans-2f"/>
      <use transform="translate(1138.574219 0.765625)" xlink:href="#DejaVuSans-Oblique-6d"/>
      <use transform="translate(1240.636224 39.046875)scale(0.7)" xlink:href="#DejaVuSans-33"/>
      <use transform="translate(1287.906732 0.765625)" xlink:href="#DejaVuSans-29"/>
     </g>
    </g>
   </g>
   <g id="line2d_11">
    <path clip-path="url(#pf97fcd7968)" d="M 70.730455 223.37241 
L 73.409334 224.391676 
L 76.088214 224.659563 
L 78.767094 224.904579 
L 81.445973 224.907849 
L 84.124853 225.371741 
L 86.803733 225.600427 
L 89.482612 226.616424 
L 92.161492 227.348203 
L 94.840372 228.387069 
L 97.519252 228.668037 
L 100.198131 228.733358 
L 102.877011 229.282213 
L 105.555891 230.419082 
L 108.23477 230.758831 
L 110.91365 231.954522 
L 113.59253 232.023113 
L 116.27141 232.088455 
L 118.950289 232.937857 
L 121.629169 233.05219 
L 124.308049 234.643161 
L 126.986928 235.201806 
L 129.665808 235.36188 
L 132.344688 235.482753 
L 135.023567 235.499083 
L 137.702447 235.75064 
L 140.381327 235.887843 
L 143.060207 236.119799 
L 145.739086 236.283144 
L 148.417966 237.067184 
L 151.096846 237.132526 
L 153.775725 237.67809 
L 156.454605 237.769572 
L 159.133485 237.776112 
L 161.812365 238.027649 
L 164.491244 238.828039 
L 167.170124 239.190659 
L 169.849004 239.256 
L 172.527883 239.337673 
L 175.206763 239.533678 
L 177.885643 239.739493 
L 180.564522 239.821165 
L 183.243402 239.857116 
L 185.922282 240.964575 
L 188.601162 241.93485 
L 191.280041 242.127585 
L 193.958921 242.620887 
L 196.637801 243.391887 
L 199.31668 243.640154 
L 201.99556 244.077925 
L 204.67444 244.26741 
L 207.35332 244.809704 
L 210.032199 244.858715 
L 212.711079 244.865235 
L 215.389959 244.901186 
L 218.068838 245.253996 
L 220.747718 245.675436 
L 223.426598 245.740758 
L 226.105478 245.900852 
L 228.784357 246.155659 
L 231.463237 246.263472 
L 234.142117 246.59995 
L 236.820996 246.720823 
L 239.499876 247.230477 
L 242.178756 247.436272 
L 244.857635 247.776041 
L 247.536515 247.903454 
L 250.215395 249.053384 
L 252.894275 249.471555 
L 255.573154 249.866835 
L 258.252034 250.095521 
L 260.930914 250.121661 
L 263.609793 250.44508 
L 266.288673 251.24874 
L 268.967553 254.574426 
L 271.646433 255.012178 
L 274.325312 255.397688 
L 277.004192 255.946522 
L 279.683072 256.299331 
L 282.361951 256.946188 
L 285.040831 257.272876 
L 287.719711 257.472151 
L 290.39859 258.919379 
L 293.07747 260.771697 
L 295.75635 262.44434 
L 298.43523 262.82004 
L 301.114109 263.496287 
L 303.792989 263.845846 
L 306.471869 264.662567 
L 309.150748 273.195668 
L 311.829628 273.198938 
L 314.508508 275.103517 
L 317.187388 276.393941 
L 319.866267 277.507959 
L 322.545147 278.30181 
L 325.224027 279.703296 
L 327.902906 280.216199 
L 330.581786 281.928044 
L 333.260666 288.318069 
L 335.939545 292.60095 
" style="fill:none;stroke:#1f77b4;stroke-linecap:round;stroke-width:1.75;"/>
   </g>
   <g id="line2d_12">
    <path clip-path="url(#pf97fcd7968)" d="M 70.730455 214.254544 
L 73.409334 205.251011 
L 76.088214 215.074515 
L 78.767094 218.044122 
L 81.445973 207.263403 
L 84.124853 213.963786 
L 86.803733 214.404808 
L 89.482612 211.046461 
L 92.161492 215.058185 
L 94.840372 212.039587 
L 97.519252 211.079122 
L 100.198131 212.314014 
L 102.877011 224.14012 
L 105.555891 220.317881 
L 108.23477 215.084325 
L 110.91365 222.245331 
L 113.59253 222.558959 
L 116.27141 214.10426 
L 118.950289 234.146588 
L 121.629169 215.146397 
L 124.308049 224.953591 
L 126.986928 225.933656 
L 129.665808 223.672958 
L 132.344688 223.3626 
L 135.023567 220.477955 
L 137.702447 221.44821 
L 140.381327 219.334545 
L 143.060207 235.825772 
L 145.739086 228.769309 
L 148.417966 220.69029 
L 151.096846 237.651969 
L 153.775725 225.384802 
L 156.454605 233.970184 
L 159.133485 222.509947 
L 161.812365 223.359349 
L 164.491244 234.60069 
L 167.170124 222.421755 
L 169.849004 225.237808 
L 172.527883 225.227998 
L 175.206763 225.159386 
L 177.885643 222.029725 
L 180.564522 229.736294 
L 183.243402 226.84838 
L 185.922282 227.776164 
L 188.601162 225.69189 
L 191.280041 236.358275 
L 193.958921 236.792777 
L 196.637801 224.982981 
L 199.31668 234.038795 
L 201.99556 230.918905 
L 204.67444 233.251465 
L 207.35332 238.560152 
L 210.032199 245.574164 
L 212.711079 231.529811 
L 215.389959 238.756177 
L 218.068838 231.51021 
L 220.747718 243.156661 
L 223.426598 229.95192 
L 226.105478 232.023113 
L 228.784357 236.485689 
L 231.463237 241.653902 
L 234.142117 232.242009 
L 236.820996 234.822836 
L 239.499876 232.003513 
L 242.178756 229.697093 
L 244.857635 231.092059 
L 247.536515 231.536351 
L 250.215395 241.94139 
L 252.894275 233.852581 
L 255.573154 239.350733 
L 258.252034 254.868434 
L 260.930914 239.291931 
L 263.609793 233.859101 
L 266.288673 246.175259 
L 268.967553 257.922983 
L 271.646433 244.822764 
L 274.325312 232.963978 
L 277.004192 246.541149 
L 279.683072 258.017716 
L 282.361951 259.210136 
L 285.040831 235.35534 
L 287.719711 259.860243 
L 290.39859 255.85831 
L 293.07747 264.231336 
L 295.75635 259.72304 
L 298.43523 265.91704 
L 301.114109 267.321816 
L 303.792989 255.946522 
L 306.471869 261.820374 
L 309.150748 269.575954 
L 311.829628 266.073864 
L 314.508508 269.301547 
L 317.187388 272.993123 
L 319.866267 264.165994 
L 322.545147 266.835034 
L 325.224027 265.221192 
L 327.902906 276.485423 
L 330.581786 266.923246 
L 333.260666 280.2358 
L 335.939545 280.124717 
" style="fill:none;stroke:#2ca02c;stroke-linecap:round;stroke-width:1.75;"/>
   </g>
   <g id="line2d_13">
    <path clip-path="url(#pf97fcd7968)" d="M 70.730455 222.785112 
L 73.409334 246.555146 
L 76.088214 241.168097 
L 78.767094 101.895712 
L 81.445973 24.765455 
L 84.124853 284.359943 
L 86.803733 249.525212 
L 89.482612 279.27713 
L 92.161492 251.890513 
L 94.840372 280.634889 
L 97.519252 177.575212 
L 100.198131 270.625668 
L 102.877011 253.64736 
L 105.555891 248.700973 
L 108.23477 262.575741 
L 110.91365 296.249097 
L 113.59253 261.323362 
L 116.27141 159.63606 
L 118.950289 159.84682 
L 121.629169 270.906277 
L 124.308049 255.631777 
L 126.986928 195.426351 
L 129.665808 275.648822 
L 132.344688 271.040071 
L 135.023567 277.696188 
L 137.702447 279.664454 
L 140.381327 248.570689 
L 143.060207 268.895719 
L 145.739086 236.381944 
L 148.417966 286.488183 
L 151.096846 164.391148 
L 153.775725 280.450129 
L 156.454605 265.103968 
L 159.133485 258.541266 
L 161.812365 280.848999 
L 164.491244 232.166359 
L 167.170124 276.528632 
L 169.849004 304.074545 
L 172.527883 191.63115 
L 175.206763 278.988645 
L 177.885643 278.936085 
L 180.564522 247.568192 
L 183.243402 243.833008 
L 185.922282 279.770791 
L 188.601162 283.168778 
L 191.280041 245.790687 
L 193.958921 87.653379 
L 196.637801 275.289333 
L 199.31668 280.377171 
L 201.99556 257.11348 
L 204.67444 274.757368 
L 207.35332 217.874596 
L 210.032199 226.994197 
L 212.711079 263.356531 
L 215.389959 88.423362 
L 218.068838 128.641932 
L 220.747718 242.13915 
L 223.426598 207.898396 
L 226.105478 247.205433 
L 228.784357 231.756562 
L 231.463237 108.208511 
L 234.142117 249.956124 
L 236.820996 296.218271 
L 239.499876 141.338317 
L 242.178756 273.792796 
L 244.857635 296.57088 
L 247.536515 265.38637 
L 250.215395 286.061179 
L 252.894275 139.342774 
L 255.573154 198.618223 
L 258.252034 247.136123 
L 260.930914 108.131784 
L 263.609793 135.764953 
L 266.288673 217.268696 
L 268.967553 240.854369 
L 271.646433 190.83369 
L 274.325312 215.022254 
L 277.004192 217.944504 
L 279.683072 241.551772 
L 282.361951 241.772463 
L 285.040831 297.675069 
L 287.719711 269.370079 
L 290.39859 281.966846 
L 293.07747 264.126096 
L 295.75635 277.005564 
L 298.43523 266.813878 
L 301.114109 229.992497 
L 303.792989 222.368098 
L 306.471869 235.136384 
L 309.150748 293.808764 
L 311.829628 224.644907 
L 314.508508 224.941806 
L 317.187388 200.702895 
L 319.866267 262.767978 
L 322.545147 288.372284 
L 325.224027 266.439893 
L 327.902906 257.892795 
L 330.581786 272.506081 
L 333.260666 284.847961 
L 335.939545 262.041722 
" style="fill:none;stroke:#d62728;stroke-linecap:round;stroke-width:1.75;"/>
   </g>
   <g id="patch_3">
    <path d="M 57.47 318.04 
L 57.47 10.8 
" style="fill:none;stroke:#cccccc;stroke-linecap:square;stroke-linejoin:miter;"/>
   </g>
   <g id="patch_4">
    <path d="M 349.2 318.04 
L 349.2 10.8 
" style="fill:none;stroke:#cccccc;stroke-linecap:square;stroke-linejoin:miter;"/>
   </g>
   <g id="patch_5">
    <path d="M 57.47 318.04 
L 349.2 318.04 
" style="fill:none;stroke:#cccccc;stroke-linecap:square;stroke-linejoin:miter;"/>
   </g>
   <g id="patch_6">
    <path d="M 57.47 10.8 
L 349.2 10.8 
" style="fill:none;stroke:#cccccc;stroke-linecap:square;stroke-linejoin:miter;"/>
   </g>
   <g id="legend_1">
    <g id="patch_7">
     <path d="M 242.360938 62.834375 
L 342.2 62.834375 
Q 344.2 62.834375 344.2 60.834375 
L 344.2 17.8 
Q 344.2 15.8 342.2 15.8 
L 242.360938 15.8 
Q 240.360938 15.8 240.360938 17.8 
L 240.360938 60.834375 
Q 240.360938 62.834375 242.360938 62.834375 
z
" style="fill:#ffffff;opacity:0.8;stroke:#cccccc;stroke-linejoin:miter;stroke-width:0.3;"/>
    </g>
    <g id="line2d_14">
     <path d="M 244.360938 23.898438 
L 264.360937 23.898438 
" style="fill:none;stroke:#1f77b4;stroke-linecap:round;stroke-width:1.75;"/>
    </g>
    <g id="line2d_15"/>
    <g id="text_13">
     <!-- rdkit qspr -->
     <g style="fill:#262626;" transform="translate(272.360937 27.398438)scale(0.1 -0.1)">
      <use xlink:href="#DejaVuSans-72"/>
      <use x="41.097656" xlink:href="#DejaVuSans-64"/>
      <use x="104.574219" xlink:href="#DejaVuSans-6b"/>
      <use x="162.484375" xlink:href="#DejaVuSans-69"/>
      <use x="190.267578" xlink:href="#DejaVuSans-74"/>
      <use x="229.476562" xlink:href="#DejaVuSans-20"/>
      <use x="261.263672" xlink:href="#DejaVuSans-71"/>
      <use x="324.740234" xlink:href="#DejaVuSans-73"/>
      <use x="376.839844" xlink:href="#DejaVuSans-70"/>
      <use x="440.316406" xlink:href="#DejaVuSans-72"/>
     </g>
    </g>
    <g id="line2d_16">
     <path d="M 244.360938 38.576563 
L 264.360937 38.576563 
" style="fill:none;stroke:#2ca02c;stroke-linecap:round;stroke-width:1.75;"/>
    </g>
    <g id="line2d_17"/>
    <g id="text_14">
     <!-- rdkit-md qspr -->
     <g style="fill:#262626;" transform="translate(272.360937 42.076563)scale(0.1 -0.1)">
      <use xlink:href="#DejaVuSans-72"/>
      <use x="41.097656" xlink:href="#DejaVuSans-64"/>
      <use x="104.574219" xlink:href="#DejaVuSans-6b"/>
      <use x="162.484375" xlink:href="#DejaVuSans-69"/>
      <use x="190.267578" xlink:href="#DejaVuSans-74"/>
      <use x="229.476562" xlink:href="#DejaVuSans-2d"/>
      <use x="265.560547" xlink:href="#DejaVuSans-6d"/>
      <use x="362.972656" xlink:href="#DejaVuSans-64"/>
      <use x="426.449219" xlink:href="#DejaVuSans-20"/>
      <use x="458.236328" xlink:href="#DejaVuSans-71"/>
      <use x="521.712891" xlink:href="#DejaVuSans-73"/>
      <use x="573.8125" xlink:href="#DejaVuSans-70"/>
      <use x="637.289062" xlink:href="#DejaVuSans-72"/>
     </g>
    </g>
    <g id="line2d_18">
     <path d="M 244.360938 53.254687 
L 264.360937 53.254687 
" style="fill:none;stroke:#d62728;stroke-linecap:round;stroke-width:1.75;"/>
    </g>
    <g id="line2d_19"/>
    <g id="text_15">
     <!-- vae qspr -->
     <g style="fill:#262626;" transform="translate(272.360937 56.754687)scale(0.1 -0.1)">
      <use xlink:href="#DejaVuSans-76"/>
      <use x="59.179688" xlink:href="#DejaVuSans-61"/>
      <use x="120.458984" xlink:href="#DejaVuSans-65"/>
      <use x="181.982422" xlink:href="#DejaVuSans-20"/>
      <use x="213.769531" xlink:href="#DejaVuSans-71"/>
      <use x="277.246094" xlink:href="#DejaVuSans-73"/>
      <use x="329.345703" xlink:href="#DejaVuSans-70"/>
      <use x="392.822266" xlink:href="#DejaVuSans-72"/>
     </g>
    </g>
   </g>
  </g>
 </g>
 <defs>
  <clipPath id="pf97fcd7968">
   <rect height="307.24" width="291.73" x="57.47" y="10.8"/>
  </clipPath>
 </defs>
</svg>
