<?xml version="1.0" encoding="utf-8" standalone="no"?>
<!DOCTYPE svg PUBLIC "-//W3C//DTD SVG 1.1//EN"
  "http://www.w3.org/Graphics/SVG/1.1/DTD/svg11.dtd">
<!-- Created with matplotlib (https://matplotlib.org/) -->
<svg height="154.703437pt" version="1.1" viewBox="0 0 335.716567 154.703437" width="335.716567pt" xmlns="http://www.w3.org/2000/svg" xmlns:xlink="http://www.w3.org/1999/xlink">
 <defs>
  <style type="text/css">
*{stroke-linecap:butt;stroke-linejoin:round;}
  </style>
 </defs>
 <g id="figure_1">
  <g id="patch_1">
   <path d="M 0 154.703437 
L 335.716567 154.703437 
L 335.716567 0 
L 0 0 
z
" style="fill:#ffffff;"/>
  </g>
  <g id="axes_1">
   <g id="patch_2">
    <path d="M 43.07375 115.369687 
L 328.516567 115.369687 
L 328.516567 7.2 
L 43.07375 7.2 
z
" style="fill:#ffffff;"/>
   </g>
   <g id="matplotlib.axis_1">
    <g id="xtick_1">
     <g id="line2d_1">
      <path clip-path="url(#p5802915e8a)" d="M 56.048424 115.369687 
L 56.048424 7.2 
" style="fill:none;stroke:#000000;stroke-dasharray:1.85,0.8;stroke-dashoffset:0;stroke-width:0.5;"/>
     </g>
     <g id="text_1">
      <!-- $\mathdefault{10^{0}}$ -->
      <defs>
       <path d="M 39.359375 0 
L 25.640625 0 
L 25.640625 51.703125 
Q 18.109375 44.671875 7.90625 41.3125 
L 7.90625 53.765625 
Q 13.28125 55.515625 19.578125 60.421875 
Q 25.875 65.328125 28.21875 71.875 
L 39.359375 71.875 
z
" id="Arial-BoldMT-49"/>
       <path d="M 27.4375 71.875 
Q 37.84375 71.875 43.703125 64.453125 
Q 50.6875 55.671875 50.6875 35.296875 
Q 50.6875 14.984375 43.65625 6.109375 
Q 37.84375 -1.21875 27.4375 -1.21875 
Q 17 -1.21875 10.59375 6.8125 
Q 4.203125 14.84375 4.203125 35.453125 
Q 4.203125 55.671875 11.234375 64.546875 
Q 17.046875 71.875 27.4375 71.875 
z
M 27.4375 60.5 
Q 24.953125 60.5 23 58.90625 
Q 21.046875 57.328125 19.96875 53.21875 
Q 18.5625 47.90625 18.5625 35.296875 
Q 18.5625 22.703125 19.828125 17.984375 
Q 21.09375 13.28125 23.015625 11.71875 
Q 24.953125 10.15625 27.4375 10.15625 
Q 29.9375 10.15625 31.890625 11.734375 
Q 33.84375 13.328125 34.90625 17.4375 
Q 36.328125 22.703125 36.328125 35.296875 
Q 36.328125 47.90625 35.0625 52.609375 
Q 33.796875 57.328125 31.859375 58.90625 
Q 29.9375 60.5 27.4375 60.5 
z
" id="Arial-BoldMT-48"/>
      </defs>
      <g style="fill:#262626;" transform="translate(47.413424 130.228906)scale(0.11 -0.11)">
       <use transform="translate(0 0.99375)" xlink:href="#Arial-BoldMT-49"/>
       <use transform="translate(55.615234 0.99375)" xlink:href="#Arial-BoldMT-48"/>
       <use transform="translate(112.972813 70.6875)scale(0.7)" xlink:href="#Arial-BoldMT-48"/>
      </g>
     </g>
    </g>
    <g id="xtick_2">
     <g id="line2d_2">
      <path clip-path="url(#p5802915e8a)" d="M 136.199764 115.369687 
L 136.199764 7.2 
" style="fill:none;stroke:#000000;stroke-dasharray:1.85,0.8;stroke-dashoffset:0;stroke-width:0.5;"/>
     </g>
     <g id="text_2">
      <!-- $\mathdefault{10^{1}}$ -->
      <g style="fill:#262626;" transform="translate(127.564764 130.228906)scale(0.11 -0.11)">
       <use transform="translate(0 0.99375)" xlink:href="#Arial-BoldMT-49"/>
       <use transform="translate(55.615234 0.99375)" xlink:href="#Arial-BoldMT-48"/>
       <use transform="translate(112.972813 70.6875)scale(0.7)" xlink:href="#Arial-BoldMT-49"/>
      </g>
     </g>
    </g>
    <g id="xtick_3">
     <g id="line2d_3">
      <path clip-path="url(#p5802915e8a)" d="M 216.351104 115.369687 
L 216.351104 7.2 
" style="fill:none;stroke:#000000;stroke-dasharray:1.85,0.8;stroke-dashoffset:0;stroke-width:0.5;"/>
     </g>
     <g id="text_3">
      <!-- $\mathdefault{10^{2}}$ -->
      <defs>
       <path d="M 50.59375 12.75 
L 50.59375 0 
L 2.484375 0 
Q 3.265625 7.234375 7.171875 13.703125 
Q 11.078125 20.171875 22.609375 30.859375 
Q 31.890625 39.5 33.984375 42.578125 
Q 36.8125 46.828125 36.8125 50.984375 
Q 36.8125 55.5625 34.34375 58.03125 
Q 31.890625 60.5 27.546875 60.5 
Q 23.25 60.5 20.703125 57.90625 
Q 18.171875 55.328125 17.78125 49.3125 
L 4.109375 50.6875 
Q 5.328125 62.015625 11.765625 66.9375 
Q 18.21875 71.875 27.875 71.875 
Q 38.484375 71.875 44.53125 66.15625 
Q 50.59375 60.453125 50.59375 51.953125 
Q 50.59375 47.125 48.859375 42.75 
Q 47.125 38.375 43.359375 33.59375 
Q 40.875 30.421875 34.375 24.453125 
Q 27.875 18.5 26.140625 16.546875 
Q 24.421875 14.59375 23.34375 12.75 
z
" id="Arial-BoldMT-50"/>
      </defs>
      <g style="fill:#262626;" transform="translate(207.716104 130.228906)scale(0.11 -0.11)">
       <use transform="translate(0 0.99375)" xlink:href="#Arial-BoldMT-49"/>
       <use transform="translate(55.615234 0.99375)" xlink:href="#Arial-BoldMT-48"/>
       <use transform="translate(112.972813 70.6875)scale(0.7)" xlink:href="#Arial-BoldMT-50"/>
      </g>
     </g>
    </g>
    <g id="xtick_4">
     <g id="line2d_4">
      <path clip-path="url(#p5802915e8a)" d="M 296.502445 115.369687 
L 296.502445 7.2 
" style="fill:none;stroke:#000000;stroke-dasharray:1.85,0.8;stroke-dashoffset:0;stroke-width:0.5;"/>
     </g>
     <g id="text_4">
      <!-- $\mathdefault{10^{3}}$ -->
      <defs>
       <path d="M 3.765625 19 
L 17.046875 20.609375 
Q 17.671875 15.53125 20.453125 12.84375 
Q 23.25 10.15625 27.203125 10.15625 
Q 31.453125 10.15625 34.34375 13.375 
Q 37.25 16.609375 37.25 22.078125 
Q 37.25 27.25 34.46875 30.265625 
Q 31.6875 33.296875 27.6875 33.296875 
Q 25.046875 33.296875 21.390625 32.28125 
L 22.90625 43.453125 
Q 28.46875 43.3125 31.390625 45.875 
Q 34.328125 48.4375 34.328125 52.6875 
Q 34.328125 56.296875 32.171875 58.4375 
Q 30.03125 60.59375 26.46875 60.59375 
Q 22.953125 60.59375 20.453125 58.15625 
Q 17.96875 55.71875 17.4375 51.03125 
L 4.78125 53.171875 
Q 6.109375 59.671875 8.765625 63.546875 
Q 11.421875 67.4375 16.1875 69.65625 
Q 20.953125 71.875 26.859375 71.875 
Q 36.96875 71.875 43.0625 65.4375 
Q 48.09375 60.15625 48.09375 53.515625 
Q 48.09375 44.09375 37.796875 38.484375 
Q 43.953125 37.15625 47.625 32.5625 
Q 51.3125 27.984375 51.3125 21.484375 
Q 51.3125 12.0625 44.421875 5.421875 
Q 37.546875 -1.21875 27.296875 -1.21875 
Q 17.578125 -1.21875 11.171875 4.375 
Q 4.78125 9.96875 3.765625 19 
z
" id="Arial-BoldMT-51"/>
      </defs>
      <g style="fill:#262626;" transform="translate(287.867445 130.228906)scale(0.11 -0.11)">
       <use transform="translate(0 0.99375)" xlink:href="#Arial-BoldMT-49"/>
       <use transform="translate(55.615234 0.99375)" xlink:href="#Arial-BoldMT-48"/>
       <use transform="translate(112.972813 70.6875)scale(0.7)" xlink:href="#Arial-BoldMT-51"/>
      </g>
     </g>
    </g>
    <g id="xtick_5"/>
    <g id="xtick_6"/>
    <g id="xtick_7"/>
    <g id="xtick_8"/>
    <g id="xtick_9"/>
    <g id="xtick_10"/>
    <g id="xtick_11"/>
    <g id="xtick_12"/>
    <g id="xtick_13"/>
    <g id="xtick_14"/>
    <g id="xtick_15"/>
    <g id="xtick_16"/>
    <g id="xtick_17"/>
    <g id="xtick_18"/>
    <g id="xtick_19"/>
    <g id="xtick_20"/>
    <g id="xtick_21"/>
    <g id="xtick_22"/>
    <g id="xtick_23"/>
    <g id="xtick_24"/>
    <g id="xtick_25"/>
    <g id="xtick_26"/>
    <g id="xtick_27"/>
    <g id="xtick_28"/>
    <g id="xtick_29"/>
    <g id="xtick_30"/>
    <g id="xtick_31"/>
    <g id="xtick_32"/>
    <g id="text_5">
     <!-- Sanitized Samples -->
     <defs>
      <path d="M 3.609375 23.296875 
L 17.671875 24.65625 
Q 18.953125 17.578125 22.828125 14.25 
Q 26.703125 10.9375 33.296875 10.9375 
Q 40.28125 10.9375 43.8125 13.890625 
Q 47.359375 16.84375 47.359375 20.796875 
Q 47.359375 23.34375 45.875 25.125 
Q 44.390625 26.90625 40.671875 28.21875 
Q 38.140625 29.109375 29.109375 31.34375 
Q 17.484375 34.234375 12.796875 38.421875 
Q 6.203125 44.34375 6.203125 52.828125 
Q 6.203125 58.296875 9.296875 63.0625 
Q 12.40625 67.828125 18.234375 70.3125 
Q 24.078125 72.796875 32.328125 72.796875 
Q 45.796875 72.796875 52.609375 66.890625 
Q 59.421875 60.984375 59.765625 51.125 
L 45.3125 50.484375 
Q 44.390625 56 41.328125 58.421875 
Q 38.28125 60.84375 32.171875 60.84375 
Q 25.875 60.84375 22.3125 58.25 
Q 20.015625 56.59375 20.015625 53.8125 
Q 20.015625 51.265625 22.171875 49.46875 
Q 24.90625 47.171875 35.453125 44.671875 
Q 46 42.1875 51.046875 39.515625 
Q 56.109375 36.859375 58.953125 32.25 
Q 61.8125 27.640625 61.8125 20.84375 
Q 61.8125 14.703125 58.390625 9.328125 
Q 54.984375 3.953125 48.734375 1.34375 
Q 42.484375 -1.265625 33.15625 -1.265625 
Q 19.578125 -1.265625 12.296875 5 
Q 5.03125 11.28125 3.609375 23.296875 
z
" id="Arial-BoldMT-83"/>
      <path d="M 17.4375 36.03125 
L 4.984375 38.28125 
Q 7.078125 45.796875 12.203125 49.40625 
Q 17.328125 53.03125 27.4375 53.03125 
Q 36.625 53.03125 41.109375 50.859375 
Q 45.609375 48.6875 47.4375 45.34375 
Q 49.265625 42 49.265625 33.0625 
L 49.125 17.046875 
Q 49.125 10.203125 49.78125 6.953125 
Q 50.4375 3.71875 52.25 0 
L 38.671875 0 
Q 38.140625 1.375 37.359375 4.046875 
Q 37.015625 5.28125 36.859375 5.671875 
Q 33.34375 2.25 29.34375 0.53125 
Q 25.34375 -1.171875 20.796875 -1.171875 
Q 12.796875 -1.171875 8.171875 3.171875 
Q 3.5625 7.515625 3.5625 14.15625 
Q 3.5625 18.5625 5.65625 22 
Q 7.765625 25.4375 11.546875 27.265625 
Q 15.328125 29.109375 22.46875 30.46875 
Q 32.078125 32.28125 35.796875 33.84375 
L 35.796875 35.203125 
Q 35.796875 39.15625 33.84375 40.84375 
Q 31.890625 42.53125 26.46875 42.53125 
Q 22.796875 42.53125 20.75 41.09375 
Q 18.703125 39.65625 17.4375 36.03125 
z
M 35.796875 24.90625 
Q 33.15625 24.03125 27.4375 22.796875 
Q 21.734375 21.578125 19.96875 20.40625 
Q 17.28125 18.5 17.28125 15.578125 
Q 17.28125 12.703125 19.421875 10.59375 
Q 21.578125 8.5 24.90625 8.5 
Q 28.609375 8.5 31.984375 10.9375 
Q 34.46875 12.796875 35.25 15.484375 
Q 35.796875 17.234375 35.796875 22.171875 
z
" id="Arial-BoldMT-97"/>
      <path d="M 54.34375 0 
L 40.625 0 
L 40.625 26.46875 
Q 40.625 34.859375 39.75 37.328125 
Q 38.875 39.796875 36.890625 41.15625 
Q 34.90625 42.53125 32.125 42.53125 
Q 28.5625 42.53125 25.734375 40.578125 
Q 22.90625 38.625 21.84375 35.390625 
Q 20.796875 32.171875 20.796875 23.484375 
L 20.796875 0 
L 7.078125 0 
L 7.078125 51.859375 
L 19.828125 51.859375 
L 19.828125 44.234375 
Q 26.609375 53.03125 36.921875 53.03125 
Q 41.453125 53.03125 45.203125 51.390625 
Q 48.96875 49.75 50.890625 47.203125 
Q 52.828125 44.671875 53.578125 41.453125 
Q 54.34375 38.234375 54.34375 32.234375 
z
" id="Arial-BoldMT-110"/>
      <path d="M 7.171875 58.890625 
L 7.171875 71.578125 
L 20.90625 71.578125 
L 20.90625 58.890625 
z
M 7.171875 0 
L 7.171875 51.859375 
L 20.90625 51.859375 
L 20.90625 0 
z
" id="Arial-BoldMT-105"/>
      <path d="M 30.953125 51.859375 
L 30.953125 40.921875 
L 21.578125 40.921875 
L 21.578125 20.015625 
Q 21.578125 13.671875 21.84375 12.625 
Q 22.125 11.578125 23.078125 10.890625 
Q 24.03125 10.203125 25.390625 10.203125 
Q 27.296875 10.203125 30.90625 11.53125 
L 32.078125 0.875 
Q 27.296875 -1.171875 21.234375 -1.171875 
Q 17.53125 -1.171875 14.546875 0.0625 
Q 11.578125 1.3125 10.1875 3.296875 
Q 8.796875 5.28125 8.25 8.640625 
Q 7.8125 11.03125 7.8125 18.3125 
L 7.8125 40.921875 
L 1.515625 40.921875 
L 1.515625 51.859375 
L 7.8125 51.859375 
L 7.8125 62.15625 
L 21.578125 70.171875 
L 21.578125 51.859375 
z
" id="Arial-BoldMT-116"/>
      <path d="M 1.65625 0 
L 1.65625 10.6875 
L 21.09375 33.015625 
Q 25.875 38.484375 28.171875 40.765625 
Q 25.78125 40.625 21.875 40.578125 
L 3.5625 40.484375 
L 3.5625 51.859375 
L 46.4375 51.859375 
L 46.4375 42.140625 
L 26.609375 19.28125 
L 19.625 11.71875 
Q 25.34375 12.0625 26.703125 12.0625 
L 47.953125 12.0625 
L 47.953125 0 
z
" id="Arial-BoldMT-122"/>
      <path d="M 37.203125 16.5 
L 50.875 14.203125 
Q 48.25 6.6875 42.546875 2.75 
Q 36.859375 -1.171875 28.328125 -1.171875 
Q 14.796875 -1.171875 8.296875 7.671875 
Q 3.171875 14.75 3.171875 25.53125 
Q 3.171875 38.421875 9.90625 45.71875 
Q 16.65625 53.03125 26.953125 53.03125 
Q 38.53125 53.03125 45.21875 45.390625 
Q 51.90625 37.75 51.609375 21.96875 
L 17.234375 21.96875 
Q 17.390625 15.875 20.5625 12.46875 
Q 23.734375 9.078125 28.46875 9.078125 
Q 31.6875 9.078125 33.875 10.828125 
Q 36.078125 12.59375 37.203125 16.5 
z
M 37.984375 30.375 
Q 37.84375 36.328125 34.90625 39.421875 
Q 31.984375 42.53125 27.78125 42.53125 
Q 23.296875 42.53125 20.359375 39.265625 
Q 17.4375 35.984375 17.484375 30.375 
z
" id="Arial-BoldMT-101"/>
      <path d="M 54.734375 0 
L 42 0 
L 42 7.625 
Q 38.8125 3.171875 34.484375 1 
Q 30.171875 -1.171875 25.78125 -1.171875 
Q 16.84375 -1.171875 10.46875 6.03125 
Q 4.109375 13.234375 4.109375 26.125 
Q 4.109375 39.3125 10.296875 46.171875 
Q 16.5 53.03125 25.984375 53.03125 
Q 34.671875 53.03125 41.015625 45.796875 
L 41.015625 71.578125 
L 54.734375 71.578125 
z
M 18.109375 27.046875 
Q 18.109375 18.75 20.40625 15.046875 
Q 23.734375 9.671875 29.6875 9.671875 
Q 34.421875 9.671875 37.734375 13.6875 
Q 41.0625 17.71875 41.0625 25.734375 
Q 41.0625 34.671875 37.84375 38.59375 
Q 34.625 42.53125 29.59375 42.53125 
Q 24.703125 42.53125 21.40625 38.640625 
Q 18.109375 34.765625 18.109375 27.046875 
z
" id="Arial-BoldMT-100"/>
      <path id="Arial-BoldMT-32"/>
      <path d="M 6.15625 51.859375 
L 18.796875 51.859375 
L 18.796875 44.78125 
Q 25.59375 53.03125 34.96875 53.03125 
Q 39.9375 53.03125 43.59375 50.96875 
Q 47.265625 48.921875 49.609375 44.78125 
Q 53.03125 48.921875 56.984375 50.96875 
Q 60.9375 53.03125 65.4375 53.03125 
Q 71.140625 53.03125 75.09375 50.703125 
Q 79.046875 48.390625 81 43.890625 
Q 82.421875 40.578125 82.421875 33.15625 
L 82.421875 0 
L 68.703125 0 
L 68.703125 29.640625 
Q 68.703125 37.359375 67.28125 39.59375 
Q 65.375 42.53125 61.421875 42.53125 
Q 58.546875 42.53125 56 40.765625 
Q 53.46875 39.015625 52.34375 35.625 
Q 51.21875 32.234375 51.21875 24.90625 
L 51.21875 0 
L 37.5 0 
L 37.5 28.421875 
Q 37.5 35.984375 36.765625 38.171875 
Q 36.03125 40.375 34.484375 41.453125 
Q 32.953125 42.53125 30.328125 42.53125 
Q 27.15625 42.53125 24.609375 40.8125 
Q 22.078125 39.109375 20.96875 35.890625 
Q 19.875 32.671875 19.875 25.203125 
L 19.875 0 
L 6.15625 0 
z
" id="Arial-BoldMT-109"/>
      <path d="M 6.78125 51.859375 
L 19.578125 51.859375 
L 19.578125 44.234375 
Q 22.078125 48.140625 26.3125 50.578125 
Q 30.5625 53.03125 35.75 53.03125 
Q 44.78125 53.03125 51.078125 45.953125 
Q 57.375 38.875 57.375 26.21875 
Q 57.375 13.234375 51.015625 6.03125 
Q 44.671875 -1.171875 35.640625 -1.171875 
Q 31.34375 -1.171875 27.84375 0.53125 
Q 24.359375 2.25 20.515625 6.390625 
L 20.515625 -19.734375 
L 6.78125 -19.734375 
z
M 20.359375 26.8125 
Q 20.359375 18.0625 23.828125 13.890625 
Q 27.296875 9.71875 32.28125 9.71875 
Q 37.0625 9.71875 40.234375 13.546875 
Q 43.40625 17.390625 43.40625 26.125 
Q 43.40625 34.28125 40.125 38.234375 
Q 36.859375 42.1875 32.03125 42.1875 
Q 27 42.1875 23.671875 38.296875 
Q 20.359375 34.421875 20.359375 26.8125 
z
" id="Arial-BoldMT-112"/>
      <path d="M 7.171875 0 
L 7.171875 71.578125 
L 20.90625 71.578125 
L 20.90625 0 
z
" id="Arial-BoldMT-108"/>
      <path d="M 2.34375 14.796875 
L 16.109375 16.890625 
Q 17 12.890625 19.671875 10.8125 
Q 22.359375 8.734375 27.203125 8.734375 
Q 32.515625 8.734375 35.203125 10.6875 
Q 37.015625 12.0625 37.015625 14.359375 
Q 37.015625 15.921875 36.03125 16.9375 
Q 35.015625 17.921875 31.453125 18.75 
Q 14.84375 22.40625 10.40625 25.4375 
Q 4.25 29.640625 4.25 37.109375 
Q 4.25 43.84375 9.5625 48.4375 
Q 14.890625 53.03125 26.078125 53.03125 
Q 36.71875 53.03125 41.890625 49.5625 
Q 47.078125 46.09375 49.03125 39.3125 
L 36.078125 36.921875 
Q 35.25 39.9375 32.921875 41.546875 
Q 30.609375 43.171875 26.3125 43.171875 
Q 20.90625 43.171875 18.5625 41.65625 
Q 17 40.578125 17 38.875 
Q 17 37.40625 18.359375 36.375 
Q 20.21875 35.015625 31.171875 32.515625 
Q 42.140625 30.03125 46.484375 26.421875 
Q 50.78125 22.75 50.78125 16.21875 
Q 50.78125 9.078125 44.828125 3.953125 
Q 38.875 -1.171875 27.203125 -1.171875 
Q 16.609375 -1.171875 10.421875 3.125 
Q 4.25 7.421875 2.34375 14.796875 
z
" id="Arial-BoldMT-115"/>
     </defs>
     <g style="fill:#262626;" transform="translate(133.113284 145.135312)scale(0.12 -0.12)">
      <use xlink:href="#Arial-BoldMT-83"/>
      <use x="66.699219" xlink:href="#Arial-BoldMT-97"/>
      <use x="122.314453" xlink:href="#Arial-BoldMT-110"/>
      <use x="183.398438" xlink:href="#Arial-BoldMT-105"/>
      <use x="211.181641" xlink:href="#Arial-BoldMT-116"/>
      <use x="244.482422" xlink:href="#Arial-BoldMT-105"/>
      <use x="272.265625" xlink:href="#Arial-BoldMT-122"/>
      <use x="322.265625" xlink:href="#Arial-BoldMT-101"/>
      <use x="377.880859" xlink:href="#Arial-BoldMT-100"/>
      <use x="438.964844" xlink:href="#Arial-BoldMT-32"/>
      <use x="466.748047" xlink:href="#Arial-BoldMT-83"/>
      <use x="533.447266" xlink:href="#Arial-BoldMT-97"/>
      <use x="589.0625" xlink:href="#Arial-BoldMT-109"/>
      <use x="677.978516" xlink:href="#Arial-BoldMT-112"/>
      <use x="739.0625" xlink:href="#Arial-BoldMT-108"/>
      <use x="766.845703" xlink:href="#Arial-BoldMT-101"/>
      <use x="822.460938" xlink:href="#Arial-BoldMT-115"/>
     </g>
    </g>
   </g>
   <g id="matplotlib.axis_2">
    <g id="ytick_1">
     <g id="line2d_5">
      <path clip-path="url(#p5802915e8a)" d="M 43.07375 87.406077 
L 328.516567 87.406077 
" style="fill:none;stroke:#000000;stroke-dasharray:1.85,0.8;stroke-dashoffset:0;stroke-width:0.5;"/>
     </g>
     <g id="text_6">
      <!-- $\mathdefault{10^{2}}$ -->
      <g style="fill:#262626;" transform="translate(22.30375 93.085687)scale(0.11 -0.11)">
       <use transform="translate(0 0.99375)" xlink:href="#Arial-BoldMT-49"/>
       <use transform="translate(55.615234 0.99375)" xlink:href="#Arial-BoldMT-48"/>
       <use transform="translate(112.972813 70.6875)scale(0.7)" xlink:href="#Arial-BoldMT-50"/>
      </g>
     </g>
    </g>
    <g id="ytick_2">
     <g id="line2d_6">
      <path clip-path="url(#p5802915e8a)" d="M 43.07375 54.433552 
L 328.516567 54.433552 
" style="fill:none;stroke:#000000;stroke-dasharray:1.85,0.8;stroke-dashoffset:0;stroke-width:0.5;"/>
     </g>
     <g id="text_7">
      <!-- $\mathdefault{10^{4}}$ -->
      <defs>
       <path d="M 31.15625 0 
L 31.15625 14.40625 
L 1.859375 14.40625 
L 1.859375 26.421875 
L 32.90625 71.875 
L 44.4375 71.875 
L 44.4375 26.46875 
L 53.328125 26.46875 
L 53.328125 14.40625 
L 44.4375 14.40625 
L 44.4375 0 
z
M 31.15625 26.46875 
L 31.15625 50.921875 
L 14.703125 26.46875 
z
" id="Arial-BoldMT-52"/>
      </defs>
      <g style="fill:#262626;" transform="translate(22.30375 60.113162)scale(0.11 -0.11)">
       <use transform="translate(0 0.99375)" xlink:href="#Arial-BoldMT-49"/>
       <use transform="translate(55.615234 0.99375)" xlink:href="#Arial-BoldMT-48"/>
       <use transform="translate(112.972813 70.6875)scale(0.7)" xlink:href="#Arial-BoldMT-52"/>
      </g>
     </g>
    </g>
    <g id="ytick_3">
     <g id="line2d_7">
      <path clip-path="url(#p5802915e8a)" d="M 43.07375 21.461027 
L 328.516567 21.461027 
" style="fill:none;stroke:#000000;stroke-dasharray:1.85,0.8;stroke-dashoffset:0;stroke-width:0.5;"/>
     </g>
     <g id="text_8">
      <!-- $\mathdefault{10^{6}}$ -->
      <defs>
       <path d="M 50.734375 54.046875 
L 37.453125 52.59375 
Q 36.96875 56.6875 34.90625 58.640625 
Q 32.859375 60.59375 29.59375 60.59375 
Q 25.25 60.59375 22.234375 56.6875 
Q 19.234375 52.78125 18.453125 40.4375 
Q 23.578125 46.484375 31.203125 46.484375 
Q 39.796875 46.484375 45.921875 39.9375 
Q 52.046875 33.40625 52.046875 23.046875 
Q 52.046875 12.0625 45.59375 5.421875 
Q 39.15625 -1.21875 29.046875 -1.21875 
Q 18.21875 -1.21875 11.234375 7.203125 
Q 4.25 15.625 4.25 34.8125 
Q 4.25 54.5 11.515625 63.1875 
Q 18.796875 71.875 30.421875 71.875 
Q 38.578125 71.875 43.921875 67.3125 
Q 49.265625 62.75 50.734375 54.046875 
z
M 19.625 24.125 
Q 19.625 17.4375 22.703125 13.796875 
Q 25.78125 10.15625 29.734375 10.15625 
Q 33.546875 10.15625 36.078125 13.125 
Q 38.625 16.109375 38.625 22.90625 
Q 38.625 29.890625 35.890625 33.125 
Q 33.15625 36.375 29.046875 36.375 
Q 25.09375 36.375 22.359375 33.265625 
Q 19.625 30.171875 19.625 24.125 
z
" id="Arial-BoldMT-54"/>
      </defs>
      <g style="fill:#262626;" transform="translate(22.30375 27.140636)scale(0.11 -0.11)">
       <use transform="translate(0 0.99375)" xlink:href="#Arial-BoldMT-49"/>
       <use transform="translate(55.615234 0.99375)" xlink:href="#Arial-BoldMT-48"/>
       <use transform="translate(112.972813 70.6875)scale(0.7)" xlink:href="#Arial-BoldMT-54"/>
      </g>
     </g>
    </g>
    <g id="text_9">
     <!-- Sample Attempts -->
     <defs>
      <path d="M 71.828125 0 
L 56.109375 0 
L 49.859375 16.265625 
L 21.234375 16.265625 
L 15.328125 0 
L 0 0 
L 27.875 71.578125 
L 43.171875 71.578125 
z
M 45.21875 28.328125 
L 35.359375 54.890625 
L 25.6875 28.328125 
z
" id="Arial-BoldMT-65"/>
     </defs>
     <g style="fill:#262626;" transform="translate(15.935625 110.290781)rotate(-90)scale(0.12 -0.12)">
      <use xlink:href="#Arial-BoldMT-83"/>
      <use x="66.699219" xlink:href="#Arial-BoldMT-97"/>
      <use x="122.314453" xlink:href="#Arial-BoldMT-109"/>
      <use x="211.230469" xlink:href="#Arial-BoldMT-112"/>
      <use x="272.314453" xlink:href="#Arial-BoldMT-108"/>
      <use x="300.097656" xlink:href="#Arial-BoldMT-101"/>
      <use x="355.712891" xlink:href="#Arial-BoldMT-32"/>
      <use x="383.449219" xlink:href="#Arial-BoldMT-65"/>
      <use x="455.666016" xlink:href="#Arial-BoldMT-116"/>
      <use x="488.966797" xlink:href="#Arial-BoldMT-116"/>
      <use x="522.267578" xlink:href="#Arial-BoldMT-101"/>
      <use x="577.882812" xlink:href="#Arial-BoldMT-109"/>
      <use x="666.798828" xlink:href="#Arial-BoldMT-112"/>
      <use x="727.882812" xlink:href="#Arial-BoldMT-116"/>
      <use x="761.183594" xlink:href="#Arial-BoldMT-115"/>
     </g>
    </g>
   </g>
   <g id="line2d_8">
    <path clip-path="url(#p5802915e8a)" d="M -1 27.086718 
L 56.048424 27.08168 
L 80.176381 25.845117 
L 94.290332 19.19233 
L 104.304339 17.382934 
L 112.071806 17.188261 
" style="fill:none;stroke:#1f77b4;stroke-linecap:round;stroke-width:2;"/>
   </g>
   <g id="line2d_9">
    <path clip-path="url(#p5802915e8a)" d="M -1 91.964906 
L 56.048424 91.951738 
L 80.176381 86.221012 
L 94.290332 73.555868 
L 104.304339 71.999691 
L 112.071806 69.322131 
L 118.418289 69.259399 
L 128.432296 68.079051 
L 132.53224 65.085059 
L 136.199764 64.702449 
L 139.517443 63.181491 
L 142.546247 62.233929 
L 147.912122 61.860717 
L 150.313714 61.56779 
L 152.560254 61.529108 
L 154.670554 61.278922 
L 156.660197 60.413292 
L 158.542239 60.362308 
L 160.327722 59.712599 
L 162.026072 59.563013 
L 165.192735 57.617741 
L 166.674205 57.597664 
L 168.095189 56.588465 
L 170.774148 56.249321 
L 172.04008 54.044779 
L 173.261583 53.452823 
L 174.441672 51.926417 
L 175.583062 51.733803 
L 176.688212 51.683887 
L 177.759351 51.505212 
L 178.798512 50.821634 
L 180.788155 50.220291 
L 182.670196 49.936601 
L 183.574384 49.462106 
L 186.15403 49.150742 
L 187.773358 48.760024 
L 189.320693 48.03873 
L 190.069308 47.848421 
L 190.802162 46.777822 
L 191.519905 46.347168 
L 192.223147 46.2017 
L 192.912462 45.825562 
L 193.588392 45.749156 
L 196.168037 44.836191 
L 197.984586 44.581782 
L 198.56963 44.013374 
L 200.26798 43.183958 
L 200.816169 43.124987 
L 201.355859 42.585818 
L 201.887309 42.493355 
L 202.410767 42.158042 
L 202.926469 41.547222 
L 203.434643 41.514153 
L 203.935505 41.257233 
L 204.429262 40.656974 
L 204.916113 40.538167 
L 205.396248 40.197055 
L 208.583637 39.564062 
L 209.016056 39.176319 
L 209.443169 39.133772 
L 209.865105 38.89649 
L 210.281988 38.803817 
L 211.101067 38.443292 
L 211.503491 38.286412 
L 213.44865 38.071147 
L 215.290841 37.233056 
L 215.647863 37.008639 
L 218.379403 36.38538 
L 219.030063 35.710493 
L 219.668784 35.615105 
L 220.295995 35.255254 
L 221.816293 35.049838 
L 222.112544 34.885498 
L 222.406295 34.864194 
L 222.986463 34.580145 
L 223.55712 34.299921 
L 223.838978 33.949261 
L 224.118572 33.933916 
L 224.395938 33.731445 
L 225.215018 33.608802 
L 227.054427 33.044502 
L 227.562601 32.912513 
L 228.063462 32.738742 
L 228.311216 32.536765 
L 228.557219 32.527456 
L 228.801496 32.280831 
L 229.997809 32.12824 
L 230.696347 31.876658 
L 230.926112 31.872917 
L 231.15437 31.68646 
L 232.052724 31.507093 
L 232.493354 31.376329 
L 233.144014 31.173996 
L 233.782734 30.77761 
L 233.993063 30.745984 
L 233.993063 30.745984 
" style="fill:none;stroke:#ff7f0e;stroke-linecap:round;stroke-width:2;"/>
   </g>
   <g id="line2d_10">
    <path clip-path="url(#p5802915e8a)" d="M -1 67.342102 
L 56.048424 67.329979 
L 80.176381 59.876088 
L 94.290332 58.891937 
L 104.304339 55.849203 
L 112.071806 55.380627 
L 118.418289 55.082889 
L 123.784164 54.693835 
L 128.432296 52.36269 
L 132.53224 51.933988 
L 136.199764 51.83469 
L 139.517443 50.74124 
L 142.546247 50.273356 
L 145.332476 48.785679 
L 147.912122 48.705126 
L 150.313714 48.582334 
L 152.560254 48.035214 
L 154.670554 48.028479 
L 156.660197 47.916674 
L 158.542239 46.677514 
L 160.327722 46.349483 
L 162.026072 43.600684 
L 163.645401 43.587764 
L 165.192735 43.54711 
L 166.674205 43.442693 
L 168.095189 43.052899 
L 169.460434 42.91459 
L 170.774148 42.86618 
L 172.04008 42.230864 
" style="fill:none;stroke:#2ca02c;stroke-linecap:round;stroke-width:2;"/>
   </g>
   <g id="line2d_11">
    <path clip-path="url(#p5802915e8a)" d="M -1 73.23207 
L 56.048424 73.222319 
L 94.290332 63.700331 
L 112.071806 63.208266 
L 123.784164 61.806376 
L 128.432296 61.120503 
L 132.53224 60.986939 
L 136.199764 60.266266 
L 139.517443 58.550553 
L 142.546247 58.367149 
L 145.332476 57.962105 
L 147.912122 55.644497 
L 150.313714 55.29775 
L 152.560254 54.52579 
L 154.670554 54.317787 
L 156.660197 53.319833 
L 160.327722 53.231517 
L 162.026072 52.720526 
L 163.645401 52.360546 
L 166.674205 52.194713 
L 168.095189 51.852642 
L 169.460434 51.784563 
L 172.04008 51.306326 
L 174.441672 51.122729 
L 175.583062 50.557232 
L 176.688212 50.500789 
L 177.759351 49.976831 
L 178.798512 49.932782 
L 181.741894 49.514142 
L 182.670196 48.863858 
L 184.455679 48.656076 
L 186.15403 48.059571 
L 186.97311 47.840719 
L 188.555622 47.695933 
L 189.320693 47.559771 
L 190.069308 47.189036 
L 190.802162 47.075409 
L 191.519905 46.502509 
L 192.223147 46.21691 
L 193.588392 46.125907 
L 194.251446 45.897356 
L 195.540826 45.091618 
L 196.168037 44.875841 
L 197.984586 44.646092 
L 198.56963 44.361136 
L 199.145003 44.263944 
L 199.71102 43.562623 
L 200.26798 43.403773 
L 201.355859 43.283436 
L 201.887309 43.023888 
L 202.410767 42.945319 
L 202.926469 42.736147 
L 204.429262 42.606513 
L 205.396248 42.469752 
L 205.869851 41.858102 
L 206.337097 41.845873 
L 207.253184 41.587821 
L 207.702342 41.560136 
L 208.145778 41.359128 
L 209.865105 41.158561 
L 210.693937 41.037049 
L 211.101067 41.014816 
L 212.294646 40.709961 
L 213.068217 40.61393 
L 213.44865 40.333534 
L 216.351104 39.421111 
L 218.379403 39.112508 
L 218.706254 38.983507 
L 219.668784 38.294524 
L 220.912104 38.152174 
L 223.272961 37.425353 
L 223.55712 37.198213 
L 224.118572 37.1178 
L 224.944127 36.888261 
L 226.015267 36.665135 
L 227.562601 36.182148 
L 228.063462 36.147317 
L 228.801496 35.853249 
L 229.284966 35.766135 
L 229.524206 35.558927 
L 229.997809 35.464258 
L 230.232216 35.270412 
L 230.696347 35.227042 
L 231.15437 34.97192 
L 232.493354 34.665337 
L 232.928476 34.25049 
L 233.144014 34.223837 
L 233.358225 33.92644 
L 234.202128 33.678672 
L 235.026055 33.418849 
L 235.229025 32.990053 
L 236.226494 32.756336 
L 236.811538 32.686183 
L 237.004388 32.536698 
L 237.576608 32.427201 
L 237.952928 32.253174 
L 238.876305 31.933898 
L 240.129217 31.804311 
L 240.304579 31.617301 
L 242.177413 31.267994 
L 243.478846 30.938139 
L 243.796741 30.784531 
L 244.268206 30.705221 
L 244.887054 30.577294 
L 245.495092 30.428879 
L 245.94425 30.237033 
L 247.685077 29.898519 
L 247.966935 29.709657 
L 248.385489 29.613439 
L 248.661754 29.398868 
L 250.666682 28.93048 
L 251.182385 28.65859 
L 253.050952 28.330297 
L 253.292684 28.153081 
L 253.77117 28.109132 
L 254.125767 28.008337 
L 255.054069 27.855767 
L 256.069647 27.574797 
L 256.621311 27.442335 
L 258.12102 26.952144 
L 258.434149 26.880738 
L 258.641348 26.824047 
L 258.847321 26.701401 
L 263.903778 25.52841 
L 264.257175 25.396025 
L 264.693934 25.328957 
L 264.953384 25.205888 
L 265.551349 25.089271 
L 266.388151 24.834066 
L 266.717319 24.718733 
L 268.318028 24.475267 
L 268.629523 24.369203 
L 269.997749 24.071806 
L 270.294632 24.026205 
L 270.589004 23.974381 
L 270.808161 23.798587 
L 271.170384 23.680203 
L 274.79464 22.737117 
L 275.438083 22.520825 
L 277.360366 22.012469 
L 277.540881 21.831425 
L 277.958478 21.705252 
L 278.778937 21.467123 
L 279.86236 21.197657 
L 280.364024 20.974163 
L 281.021857 20.725899 
L 281.560711 20.615091 
L 281.773939 20.503097 
L 282.510114 20.292326 
L 283.383603 20.017327 
L 283.937342 19.906167 
L 292.171123 18.011643 
L 292.524121 17.871703 
L 293.066212 17.783501 
L 293.562134 17.666968 
L 293.938861 17.604509 
L 294.42259 17.461279 
L 294.643602 17.418169 
L 295.045182 17.337253 
L 295.940993 17.065003 
L 296.502445 16.942609 
L 297.12344 16.783449 
L 297.429831 16.673447 
L 297.934566 16.572821 
L 298.101198 16.529881 
L 298.825047 16.368045 
L 299.149158 16.217055 
L 302.234372 15.526593 
L 302.906895 15.346903 
L 304.158344 15.008597 
L 304.712644 14.91227 
L 305.122652 14.811647 
L 305.420284 14.666503 
L 306.034503 14.562605 
L 307.359 14.189643 
L 307.839834 14.064296 
L 312.94985 12.872233 
L 313.381197 12.737754 
L 314.76787 12.396606 
L 314.932258 12.301075 
L 315.441026 12.158518 
L 315.541894 12.116804 
L 315.541894 12.116804 
" style="fill:none;stroke:#d62728;stroke-linecap:round;stroke-width:2;"/>
   </g>
   <g id="patch_3">
    <path d="M 43.07375 115.369687 
L 43.07375 7.2 
" style="fill:none;stroke:#262626;stroke-linecap:square;stroke-linejoin:miter;stroke-width:1.25;"/>
   </g>
   <g id="patch_4">
    <path d="M 328.516567 115.369687 
L 328.516567 7.2 
" style="fill:none;stroke:#262626;stroke-linecap:square;stroke-linejoin:miter;stroke-width:1.25;"/>
   </g>
   <g id="patch_5">
    <path d="M 43.07375 115.369687 
L 328.516567 115.369687 
" style="fill:none;stroke:#262626;stroke-linecap:square;stroke-linejoin:miter;stroke-width:1.25;"/>
   </g>
   <g id="patch_6">
    <path d="M 43.07375 7.2 
L 328.516567 7.2 
" style="fill:none;stroke:#262626;stroke-linecap:square;stroke-linejoin:miter;stroke-width:1.25;"/>
   </g>
   <g id="legend_1">
    <g id="patch_7">
     <path d="M 265.045942 109.369687 
L 320.116567 109.369687 
Q 322.516567 109.369687 322.516567 106.969687 
L 322.516567 40.302187 
Q 322.516567 37.902187 320.116567 37.902187 
L 265.045942 37.902187 
Q 262.645942 37.902187 262.645942 40.302187 
L 262.645942 106.969687 
Q 262.645942 109.369687 265.045942 109.369687 
z
" style="fill:#ffffff;opacity:0.8;stroke:#000000;stroke-linejoin:miter;"/>
    </g>
    <g id="line2d_12">
     <path d="M 267.445942 46.902187 
L 291.445942 46.902187 
" style="fill:none;stroke:#1f77b4;stroke-linecap:round;stroke-width:2;"/>
    </g>
    <g id="line2d_13"/>
    <g id="text_10">
     <!-- M1 -->
     <defs>
      <path d="M 40.921875 0 
L 15.328125 55.71875 
L 15.328125 11.46875 
Q 15.328125 5.375 16.65625 3.859375 
Q 18.453125 1.8125 22.359375 1.8125 
L 24.703125 1.8125 
L 24.703125 0 
L 1.65625 0 
L 1.65625 1.8125 
L 4 1.8125 
Q 8.203125 1.8125 9.96875 4.34375 
Q 11.03125 5.90625 11.03125 11.46875 
L 11.03125 54.734375 
Q 11.03125 59.125 10.0625 61.078125 
Q 9.375 62.5 7.546875 63.453125 
Q 5.71875 64.40625 1.65625 64.40625 
L 1.65625 66.21875 
L 20.40625 66.21875 
L 44.4375 14.40625 
L 68.0625 66.21875 
L 86.8125 66.21875 
L 86.8125 64.40625 
L 84.515625 64.40625 
Q 80.28125 64.40625 78.515625 61.859375 
Q 77.4375 60.296875 77.4375 54.734375 
L 77.4375 11.46875 
Q 77.4375 5.375 78.8125 3.859375 
Q 80.609375 1.8125 84.515625 1.8125 
L 86.8125 1.8125 
L 86.8125 0 
L 58.6875 0 
L 58.6875 1.8125 
L 61.03125 1.8125 
Q 65.28125 1.8125 67 4.34375 
Q 68.0625 5.90625 68.0625 11.46875 
L 68.0625 55.71875 
L 42.53125 0 
z
" id="TimesNewRomanPSMT-77"/>
      <path d="M 11.71875 59.71875 
L 27.828125 67.578125 
L 29.4375 67.578125 
L 29.4375 11.671875 
Q 29.4375 6.109375 29.90625 4.734375 
Q 30.375 3.375 31.828125 2.640625 
Q 33.296875 1.90625 37.796875 1.8125 
L 37.796875 0 
L 12.890625 0 
L 12.890625 1.8125 
Q 17.578125 1.90625 18.9375 2.609375 
Q 20.3125 3.328125 20.84375 4.515625 
Q 21.390625 5.71875 21.390625 11.671875 
L 21.390625 47.40625 
Q 21.390625 54.640625 20.90625 56.6875 
Q 20.5625 58.25 19.65625 58.984375 
Q 18.75 59.71875 17.484375 59.71875 
Q 15.671875 59.71875 12.453125 58.203125 
z
" id="TimesNewRomanPSMT-49"/>
     </defs>
     <g style="fill:#262626;" transform="translate(301.045942 51.102187)scale(0.12 -0.12)">
      <use xlink:href="#TimesNewRomanPSMT-77"/>
      <use x="88.916016" xlink:href="#TimesNewRomanPSMT-49"/>
     </g>
    </g>
    <g id="line2d_14">
     <path d="M 267.445942 63.869062 
L 291.445942 63.869062 
" style="fill:none;stroke:#ff7f0e;stroke-linecap:round;stroke-width:2;"/>
    </g>
    <g id="line2d_15"/>
    <g id="text_11">
     <!-- M2 -->
     <defs>
      <path d="M 45.84375 12.75 
L 41.21875 0 
L 2.15625 0 
L 2.15625 1.8125 
Q 19.390625 17.53125 26.421875 27.484375 
Q 33.453125 37.453125 33.453125 45.703125 
Q 33.453125 52 29.59375 56.046875 
Q 25.734375 60.109375 20.359375 60.109375 
Q 15.484375 60.109375 11.59375 57.25 
Q 7.71875 54.390625 5.859375 48.875 
L 4.046875 48.875 
Q 5.28125 57.90625 10.328125 62.734375 
Q 15.375 67.578125 22.953125 67.578125 
Q 31 67.578125 36.390625 62.40625 
Q 41.796875 57.234375 41.796875 50.203125 
Q 41.796875 45.171875 39.453125 40.140625 
Q 35.84375 32.234375 27.734375 23.390625 
Q 15.578125 10.109375 12.546875 7.375 
L 29.828125 7.375 
Q 35.109375 7.375 37.234375 7.765625 
Q 39.359375 8.15625 41.0625 9.34375 
Q 42.78125 10.546875 44.046875 12.75 
z
" id="TimesNewRomanPSMT-50"/>
     </defs>
     <g style="fill:#262626;" transform="translate(301.045942 68.069062)scale(0.12 -0.12)">
      <use xlink:href="#TimesNewRomanPSMT-77"/>
      <use x="88.916016" xlink:href="#TimesNewRomanPSMT-50"/>
     </g>
    </g>
    <g id="line2d_16">
     <path d="M 267.445942 80.835937 
L 291.445942 80.835937 
" style="fill:none;stroke:#2ca02c;stroke-linecap:round;stroke-width:2;"/>
    </g>
    <g id="line2d_17"/>
    <g id="text_12">
     <!-- M4 -->
     <defs>
      <path d="M 46.53125 24.421875 
L 46.53125 17.484375 
L 37.640625 17.484375 
L 37.640625 0 
L 29.59375 0 
L 29.59375 17.484375 
L 1.5625 17.484375 
L 1.5625 23.734375 
L 32.28125 67.578125 
L 37.640625 67.578125 
L 37.640625 24.421875 
z
M 29.59375 24.421875 
L 29.59375 57.28125 
L 6.34375 24.421875 
z
" id="TimesNewRomanPSMT-52"/>
     </defs>
     <g style="fill:#262626;" transform="translate(301.045942 85.035937)scale(0.12 -0.12)">
      <use xlink:href="#TimesNewRomanPSMT-77"/>
      <use x="88.916016" xlink:href="#TimesNewRomanPSMT-52"/>
     </g>
    </g>
    <g id="line2d_18">
     <path d="M 267.445942 97.802812 
L 291.445942 97.802812 
" style="fill:none;stroke:#d62728;stroke-linecap:round;stroke-width:2;"/>
    </g>
    <g id="line2d_19"/>
    <g id="text_13">
     <!-- M5 -->
     <defs>
      <path d="M 43.40625 66.21875 
L 39.59375 57.90625 
L 19.671875 57.90625 
L 15.328125 49.03125 
Q 28.265625 47.125 35.84375 39.40625 
Q 42.328125 32.765625 42.328125 23.78125 
Q 42.328125 18.5625 40.203125 14.109375 
Q 38.09375 9.671875 34.859375 6.546875 
Q 31.640625 3.421875 27.6875 1.515625 
Q 22.078125 -1.171875 16.15625 -1.171875 
Q 10.203125 -1.171875 7.484375 0.84375 
Q 4.78125 2.875 4.78125 5.328125 
Q 4.78125 6.6875 5.90625 7.734375 
Q 7.03125 8.796875 8.734375 8.796875 
Q 10.015625 8.796875 10.96875 8.40625 
Q 11.921875 8.015625 14.203125 6.390625 
Q 17.875 3.859375 21.625 3.859375 
Q 27.34375 3.859375 31.65625 8.171875 
Q 35.984375 12.5 35.984375 18.703125 
Q 35.984375 24.703125 32.125 29.90625 
Q 28.265625 35.109375 21.484375 37.9375 
Q 16.15625 40.140625 6.984375 40.484375 
L 19.671875 66.21875 
z
" id="TimesNewRomanPSMT-53"/>
     </defs>
     <g style="fill:#262626;" transform="translate(301.045942 102.002812)scale(0.12 -0.12)">
      <use xlink:href="#TimesNewRomanPSMT-77"/>
      <use x="88.916016" xlink:href="#TimesNewRomanPSMT-53"/>
     </g>
    </g>
   </g>
  </g>
 </g>
 <defs>
  <clipPath id="p5802915e8a">
   <rect height="108.169687" width="285.442817" x="43.07375" y="7.2"/>
  </clipPath>
 </defs>
</svg>
