<?xml version="1.0" encoding="utf-8" standalone="no"?>
<!DOCTYPE svg PUBLIC "-//W3C//DTD SVG 1.1//EN"
  "http://www.w3.org/Graphics/SVG/1.1/DTD/svg11.dtd">
<!-- Created with matplotlib (https://matplotlib.org/) -->
<svg height="196.535625pt" version="1.1" viewBox="0 0 320.158818 196.535625" width="320.158818pt" xmlns="http://www.w3.org/2000/svg" xmlns:xlink="http://www.w3.org/1999/xlink">
 <defs>
  <style type="text/css">
*{stroke-linecap:butt;stroke-linejoin:round;}
  </style>
 </defs>
 <g id="figure_1">
  <g id="patch_1">
   <path d="M 0 196.535625 
L 320.158818 196.535625 
L 320.158818 0 
L 0 0 
z
" style="fill:#ffffff;"/>
  </g>
  <g id="axes_1">
   <g id="patch_2">
    <path d="M 32.078281 157.689375 
L 158.896463 157.689375 
L 158.896463 21.789375 
L 32.078281 21.789375 
z
" style="fill:#ffffff;"/>
   </g>
   <g id="matplotlib.axis_1">
    <g id="xtick_1">
     <g id="text_1">
      <!-- 0.5 -->
      <defs>
       <path d="M 27.4375 71.875 
Q 37.84375 71.875 43.703125 64.453125 
Q 50.6875 55.671875 50.6875 35.296875 
Q 50.6875 14.984375 43.65625 6.109375 
Q 37.84375 -1.21875 27.4375 -1.21875 
Q 17 -1.21875 10.59375 6.8125 
Q 4.203125 14.84375 4.203125 35.453125 
Q 4.203125 55.671875 11.234375 64.546875 
Q 17.046875 71.875 27.4375 71.875 
z
M 27.4375 60.5 
Q 24.953125 60.5 23 58.90625 
Q 21.046875 57.328125 19.96875 53.21875 
Q 18.5625 47.90625 18.5625 35.296875 
Q 18.5625 22.703125 19.828125 17.984375 
Q 21.09375 13.28125 23.015625 11.71875 
Q 24.953125 10.15625 27.4375 10.15625 
Q 29.9375 10.15625 31.890625 11.734375 
Q 33.84375 13.328125 34.90625 17.4375 
Q 36.328125 22.703125 36.328125 35.296875 
Q 36.328125 47.90625 35.0625 52.609375 
Q 33.796875 57.328125 31.859375 58.90625 
Q 29.9375 60.5 27.4375 60.5 
z
" id="Arial-BoldMT-48"/>
       <path d="M 7.171875 0 
L 7.171875 13.71875 
L 20.90625 13.71875 
L 20.90625 0 
z
" id="Arial-BoldMT-46"/>
       <path d="M 4.4375 18.40625 
L 18.109375 19.828125 
Q 18.703125 15.1875 21.578125 12.46875 
Q 24.46875 9.765625 28.21875 9.765625 
Q 32.515625 9.765625 35.5 13.25 
Q 38.484375 16.75 38.484375 23.78125 
Q 38.484375 30.375 35.515625 33.671875 
Q 32.5625 36.96875 27.828125 36.96875 
Q 21.921875 36.96875 17.234375 31.734375 
L 6.109375 33.34375 
L 13.140625 70.609375 
L 49.421875 70.609375 
L 49.421875 57.765625 
L 23.53125 57.765625 
L 21.390625 45.609375 
Q 25.984375 47.90625 30.765625 47.90625 
Q 39.890625 47.90625 46.234375 41.265625 
Q 52.59375 34.625 52.59375 24.03125 
Q 52.59375 15.1875 47.46875 8.25 
Q 40.484375 -1.21875 28.078125 -1.21875 
Q 18.171875 -1.21875 11.921875 4.09375 
Q 5.671875 9.421875 4.4375 18.40625 
z
" id="Arial-BoldMT-53"/>
      </defs>
      <g style="fill:#262626;" transform="translate(83.866881 169.062969)scale(0.11 -0.11)">
       <use xlink:href="#Arial-BoldMT-48"/>
       <use x="55.615234" xlink:href="#Arial-BoldMT-46"/>
       <use x="83.398438" xlink:href="#Arial-BoldMT-53"/>
      </g>
     </g>
    </g>
    <g id="xtick_2">
     <g id="text_2">
      <!-- 1.0 -->
      <defs>
       <path d="M 39.359375 0 
L 25.640625 0 
L 25.640625 51.703125 
Q 18.109375 44.671875 7.90625 41.3125 
L 7.90625 53.765625 
Q 13.28125 55.515625 19.578125 60.421875 
Q 25.875 65.328125 28.21875 71.875 
L 39.359375 71.875 
z
" id="Arial-BoldMT-49"/>
      </defs>
      <g style="fill:#262626;" transform="translate(145.487 169.062969)scale(0.11 -0.11)">
       <use xlink:href="#Arial-BoldMT-49"/>
       <use x="55.615234" xlink:href="#Arial-BoldMT-46"/>
       <use x="83.398438" xlink:href="#Arial-BoldMT-48"/>
      </g>
     </g>
    </g>
    <g id="text_3">
     <!-- MACCS Fingerprint Tanimoto Similarity -->
     <defs>
      <path d="M 7.078125 0 
L 7.078125 71.578125 
L 28.71875 71.578125 
L 41.703125 22.75 
L 54.546875 71.578125 
L 76.21875 71.578125 
L 76.21875 0 
L 62.796875 0 
L 62.796875 56.34375 
L 48.578125 0 
L 34.671875 0 
L 20.515625 56.34375 
L 20.515625 0 
z
" id="Arial-BoldMT-77"/>
      <path d="M 71.828125 0 
L 56.109375 0 
L 49.859375 16.265625 
L 21.234375 16.265625 
L 15.328125 0 
L 0 0 
L 27.875 71.578125 
L 43.171875 71.578125 
z
M 45.21875 28.328125 
L 35.359375 54.890625 
L 25.6875 28.328125 
z
" id="Arial-BoldMT-65"/>
      <path d="M 53.078125 26.3125 
L 67.09375 21.875 
Q 63.875 10.15625 56.375 4.46875 
Q 48.875 -1.21875 37.359375 -1.21875 
Q 23.09375 -1.21875 13.90625 8.515625 
Q 4.734375 18.265625 4.734375 35.15625 
Q 4.734375 53.03125 13.953125 62.90625 
Q 23.1875 72.796875 38.234375 72.796875 
Q 51.375 72.796875 59.578125 65.046875 
Q 64.453125 60.453125 66.890625 51.859375 
L 52.59375 48.4375 
Q 51.3125 54 47.28125 57.21875 
Q 43.265625 60.453125 37.5 60.453125 
Q 29.546875 60.453125 24.578125 54.734375 
Q 19.625 49.03125 19.625 36.234375 
Q 19.625 22.65625 24.5 16.890625 
Q 29.390625 11.140625 37.203125 11.140625 
Q 42.96875 11.140625 47.109375 14.796875 
Q 51.265625 18.453125 53.078125 26.3125 
z
" id="Arial-BoldMT-67"/>
      <path d="M 3.609375 23.296875 
L 17.671875 24.65625 
Q 18.953125 17.578125 22.828125 14.25 
Q 26.703125 10.9375 33.296875 10.9375 
Q 40.28125 10.9375 43.8125 13.890625 
Q 47.359375 16.84375 47.359375 20.796875 
Q 47.359375 23.34375 45.875 25.125 
Q 44.390625 26.90625 40.671875 28.21875 
Q 38.140625 29.109375 29.109375 31.34375 
Q 17.484375 34.234375 12.796875 38.421875 
Q 6.203125 44.34375 6.203125 52.828125 
Q 6.203125 58.296875 9.296875 63.0625 
Q 12.40625 67.828125 18.234375 70.3125 
Q 24.078125 72.796875 32.328125 72.796875 
Q 45.796875 72.796875 52.609375 66.890625 
Q 59.421875 60.984375 59.765625 51.125 
L 45.3125 50.484375 
Q 44.390625 56 41.328125 58.421875 
Q 38.28125 60.84375 32.171875 60.84375 
Q 25.875 60.84375 22.3125 58.25 
Q 20.015625 56.59375 20.015625 53.8125 
Q 20.015625 51.265625 22.171875 49.46875 
Q 24.90625 47.171875 35.453125 44.671875 
Q 46 42.1875 51.046875 39.515625 
Q 56.109375 36.859375 58.953125 32.25 
Q 61.8125 27.640625 61.8125 20.84375 
Q 61.8125 14.703125 58.390625 9.328125 
Q 54.984375 3.953125 48.734375 1.34375 
Q 42.484375 -1.265625 33.15625 -1.265625 
Q 19.578125 -1.265625 12.296875 5 
Q 5.03125 11.28125 3.609375 23.296875 
z
" id="Arial-BoldMT-83"/>
      <path id="Arial-BoldMT-32"/>
      <path d="M 7.375 0 
L 7.375 71.578125 
L 56.453125 71.578125 
L 56.453125 59.46875 
L 21.828125 59.46875 
L 21.828125 42.53125 
L 51.703125 42.53125 
L 51.703125 30.421875 
L 21.828125 30.421875 
L 21.828125 0 
z
" id="Arial-BoldMT-70"/>
      <path d="M 7.171875 58.890625 
L 7.171875 71.578125 
L 20.90625 71.578125 
L 20.90625 58.890625 
z
M 7.171875 0 
L 7.171875 51.859375 
L 20.90625 51.859375 
L 20.90625 0 
z
" id="Arial-BoldMT-105"/>
      <path d="M 54.34375 0 
L 40.625 0 
L 40.625 26.46875 
Q 40.625 34.859375 39.75 37.328125 
Q 38.875 39.796875 36.890625 41.15625 
Q 34.90625 42.53125 32.125 42.53125 
Q 28.5625 42.53125 25.734375 40.578125 
Q 22.90625 38.625 21.84375 35.390625 
Q 20.796875 32.171875 20.796875 23.484375 
L 20.796875 0 
L 7.078125 0 
L 7.078125 51.859375 
L 19.828125 51.859375 
L 19.828125 44.234375 
Q 26.609375 53.03125 36.921875 53.03125 
Q 41.453125 53.03125 45.203125 51.390625 
Q 48.96875 49.75 50.890625 47.203125 
Q 52.828125 44.671875 53.578125 41.453125 
Q 54.34375 38.234375 54.34375 32.234375 
z
" id="Arial-BoldMT-110"/>
      <path d="M 5.90625 -3.421875 
L 21.578125 -5.328125 
Q 21.96875 -8.0625 23.390625 -9.078125 
Q 25.34375 -10.546875 29.546875 -10.546875 
Q 34.90625 -10.546875 37.59375 -8.9375 
Q 39.40625 -7.859375 40.328125 -5.46875 
Q 40.96875 -3.765625 40.96875 0.828125 
L 40.96875 8.40625 
Q 34.8125 0 25.4375 0 
Q 14.984375 0 8.890625 8.84375 
Q 4.109375 15.828125 4.109375 26.21875 
Q 4.109375 39.265625 10.375 46.140625 
Q 16.65625 53.03125 25.984375 53.03125 
Q 35.59375 53.03125 41.84375 44.578125 
L 41.84375 51.859375 
L 54.6875 51.859375 
L 54.6875 5.328125 
Q 54.6875 -3.859375 53.171875 -8.390625 
Q 51.65625 -12.9375 48.921875 -15.515625 
Q 46.1875 -18.109375 41.625 -19.578125 
Q 37.0625 -21.046875 30.078125 -21.046875 
Q 16.890625 -21.046875 11.375 -16.53125 
Q 5.859375 -12.015625 5.859375 -5.078125 
Q 5.859375 -4.390625 5.90625 -3.421875 
z
M 18.171875 27 
Q 18.171875 18.75 21.359375 14.90625 
Q 24.5625 11.078125 29.25 11.078125 
Q 34.28125 11.078125 37.75 15.015625 
Q 41.21875 18.953125 41.21875 26.65625 
Q 41.21875 34.71875 37.890625 38.625 
Q 34.578125 42.53125 29.5 42.53125 
Q 24.5625 42.53125 21.359375 38.6875 
Q 18.171875 34.859375 18.171875 27 
z
" id="Arial-BoldMT-103"/>
      <path d="M 37.203125 16.5 
L 50.875 14.203125 
Q 48.25 6.6875 42.546875 2.75 
Q 36.859375 -1.171875 28.328125 -1.171875 
Q 14.796875 -1.171875 8.296875 7.671875 
Q 3.171875 14.75 3.171875 25.53125 
Q 3.171875 38.421875 9.90625 45.71875 
Q 16.65625 53.03125 26.953125 53.03125 
Q 38.53125 53.03125 45.21875 45.390625 
Q 51.90625 37.75 51.609375 21.96875 
L 17.234375 21.96875 
Q 17.390625 15.875 20.5625 12.46875 
Q 23.734375 9.078125 28.46875 9.078125 
Q 31.6875 9.078125 33.875 10.828125 
Q 36.078125 12.59375 37.203125 16.5 
z
M 37.984375 30.375 
Q 37.84375 36.328125 34.90625 39.421875 
Q 31.984375 42.53125 27.78125 42.53125 
Q 23.296875 42.53125 20.359375 39.265625 
Q 17.4375 35.984375 17.484375 30.375 
z
" id="Arial-BoldMT-101"/>
      <path d="M 20.3125 0 
L 6.59375 0 
L 6.59375 51.859375 
L 19.34375 51.859375 
L 19.34375 44.484375 
Q 22.609375 49.703125 25.21875 51.359375 
Q 27.828125 53.03125 31.15625 53.03125 
Q 35.84375 53.03125 40.1875 50.4375 
L 35.9375 38.484375 
Q 32.46875 40.71875 29.5 40.71875 
Q 26.609375 40.71875 24.609375 39.125 
Q 22.609375 37.546875 21.453125 33.390625 
Q 20.3125 29.25 20.3125 16.015625 
z
" id="Arial-BoldMT-114"/>
      <path d="M 6.78125 51.859375 
L 19.578125 51.859375 
L 19.578125 44.234375 
Q 22.078125 48.140625 26.3125 50.578125 
Q 30.5625 53.03125 35.75 53.03125 
Q 44.78125 53.03125 51.078125 45.953125 
Q 57.375 38.875 57.375 26.21875 
Q 57.375 13.234375 51.015625 6.03125 
Q 44.671875 -1.171875 35.640625 -1.171875 
Q 31.34375 -1.171875 27.84375 0.53125 
Q 24.359375 2.25 20.515625 6.390625 
L 20.515625 -19.734375 
L 6.78125 -19.734375 
z
M 20.359375 26.8125 
Q 20.359375 18.0625 23.828125 13.890625 
Q 27.296875 9.71875 32.28125 9.71875 
Q 37.0625 9.71875 40.234375 13.546875 
Q 43.40625 17.390625 43.40625 26.125 
Q 43.40625 34.28125 40.125 38.234375 
Q 36.859375 42.1875 32.03125 42.1875 
Q 27 42.1875 23.671875 38.296875 
Q 20.359375 34.421875 20.359375 26.8125 
z
" id="Arial-BoldMT-112"/>
      <path d="M 30.953125 51.859375 
L 30.953125 40.921875 
L 21.578125 40.921875 
L 21.578125 20.015625 
Q 21.578125 13.671875 21.84375 12.625 
Q 22.125 11.578125 23.078125 10.890625 
Q 24.03125 10.203125 25.390625 10.203125 
Q 27.296875 10.203125 30.90625 11.53125 
L 32.078125 0.875 
Q 27.296875 -1.171875 21.234375 -1.171875 
Q 17.53125 -1.171875 14.546875 0.0625 
Q 11.578125 1.3125 10.1875 3.296875 
Q 8.796875 5.28125 8.25 8.640625 
Q 7.8125 11.03125 7.8125 18.3125 
L 7.8125 40.921875 
L 1.515625 40.921875 
L 1.515625 51.859375 
L 7.8125 51.859375 
L 7.8125 62.15625 
L 21.578125 70.171875 
L 21.578125 51.859375 
z
" id="Arial-BoldMT-116"/>
      <path d="M 23.390625 0 
L 23.390625 59.46875 
L 2.15625 59.46875 
L 2.15625 71.578125 
L 59.03125 71.578125 
L 59.03125 59.46875 
L 37.84375 59.46875 
L 37.84375 0 
z
" id="Arial-BoldMT-84"/>
      <path d="M 17.4375 36.03125 
L 4.984375 38.28125 
Q 7.078125 45.796875 12.203125 49.40625 
Q 17.328125 53.03125 27.4375 53.03125 
Q 36.625 53.03125 41.109375 50.859375 
Q 45.609375 48.6875 47.4375 45.34375 
Q 49.265625 42 49.265625 33.0625 
L 49.125 17.046875 
Q 49.125 10.203125 49.78125 6.953125 
Q 50.4375 3.71875 52.25 0 
L 38.671875 0 
Q 38.140625 1.375 37.359375 4.046875 
Q 37.015625 5.28125 36.859375 5.671875 
Q 33.34375 2.25 29.34375 0.53125 
Q 25.34375 -1.171875 20.796875 -1.171875 
Q 12.796875 -1.171875 8.171875 3.171875 
Q 3.5625 7.515625 3.5625 14.15625 
Q 3.5625 18.5625 5.65625 22 
Q 7.765625 25.4375 11.546875 27.265625 
Q 15.328125 29.109375 22.46875 30.46875 
Q 32.078125 32.28125 35.796875 33.84375 
L 35.796875 35.203125 
Q 35.796875 39.15625 33.84375 40.84375 
Q 31.890625 42.53125 26.46875 42.53125 
Q 22.796875 42.53125 20.75 41.09375 
Q 18.703125 39.65625 17.4375 36.03125 
z
M 35.796875 24.90625 
Q 33.15625 24.03125 27.4375 22.796875 
Q 21.734375 21.578125 19.96875 20.40625 
Q 17.28125 18.5 17.28125 15.578125 
Q 17.28125 12.703125 19.421875 10.59375 
Q 21.578125 8.5 24.90625 8.5 
Q 28.609375 8.5 31.984375 10.9375 
Q 34.46875 12.796875 35.25 15.484375 
Q 35.796875 17.234375 35.796875 22.171875 
z
" id="Arial-BoldMT-97"/>
      <path d="M 6.15625 51.859375 
L 18.796875 51.859375 
L 18.796875 44.78125 
Q 25.59375 53.03125 34.96875 53.03125 
Q 39.9375 53.03125 43.59375 50.96875 
Q 47.265625 48.921875 49.609375 44.78125 
Q 53.03125 48.921875 56.984375 50.96875 
Q 60.9375 53.03125 65.4375 53.03125 
Q 71.140625 53.03125 75.09375 50.703125 
Q 79.046875 48.390625 81 43.890625 
Q 82.421875 40.578125 82.421875 33.15625 
L 82.421875 0 
L 68.703125 0 
L 68.703125 29.640625 
Q 68.703125 37.359375 67.28125 39.59375 
Q 65.375 42.53125 61.421875 42.53125 
Q 58.546875 42.53125 56 40.765625 
Q 53.46875 39.015625 52.34375 35.625 
Q 51.21875 32.234375 51.21875 24.90625 
L 51.21875 0 
L 37.5 0 
L 37.5 28.421875 
Q 37.5 35.984375 36.765625 38.171875 
Q 36.03125 40.375 34.484375 41.453125 
Q 32.953125 42.53125 30.328125 42.53125 
Q 27.15625 42.53125 24.609375 40.8125 
Q 22.078125 39.109375 20.96875 35.890625 
Q 19.875 32.671875 19.875 25.203125 
L 19.875 0 
L 6.15625 0 
z
" id="Arial-BoldMT-109"/>
      <path d="M 4 26.65625 
Q 4 33.5 7.375 39.890625 
Q 10.75 46.296875 16.921875 49.65625 
Q 23.09375 53.03125 30.71875 53.03125 
Q 42.484375 53.03125 50 45.390625 
Q 57.515625 37.75 57.515625 26.078125 
Q 57.515625 14.3125 49.921875 6.5625 
Q 42.328125 -1.171875 30.8125 -1.171875 
Q 23.6875 -1.171875 17.21875 2.046875 
Q 10.75 5.28125 7.375 11.5 
Q 4 17.71875 4 26.65625 
z
M 18.0625 25.921875 
Q 18.0625 18.21875 21.71875 14.109375 
Q 25.390625 10.015625 30.765625 10.015625 
Q 36.140625 10.015625 39.765625 14.109375 
Q 43.40625 18.21875 43.40625 26.03125 
Q 43.40625 33.640625 39.765625 37.734375 
Q 36.140625 41.84375 30.765625 41.84375 
Q 25.390625 41.84375 21.71875 37.734375 
Q 18.0625 33.640625 18.0625 25.921875 
z
" id="Arial-BoldMT-111"/>
      <path d="M 7.171875 0 
L 7.171875 71.578125 
L 20.90625 71.578125 
L 20.90625 0 
z
" id="Arial-BoldMT-108"/>
      <path d="M 0.6875 51.859375 
L 15.28125 51.859375 
L 27.6875 15.046875 
L 39.796875 51.859375 
L 54 51.859375 
L 35.6875 1.953125 
L 32.421875 -7.078125 
Q 30.609375 -11.625 28.96875 -14.015625 
Q 27.34375 -16.40625 25.21875 -17.890625 
Q 23.09375 -19.390625 19.984375 -20.21875 
Q 16.890625 -21.046875 12.984375 -21.046875 
Q 9.03125 -21.046875 5.21875 -20.21875 
L 4 -9.46875 
Q 7.234375 -10.109375 9.8125 -10.109375 
Q 14.59375 -10.109375 16.890625 -7.296875 
Q 19.1875 -4.5 20.40625 -0.140625 
z
" id="Arial-BoldMT-121"/>
     </defs>
     <g style="fill:#262626;" transform="translate(62.086548 186.81)scale(0.12 -0.12)">
      <use xlink:href="#Arial-BoldMT-77"/>
      <use x="83.300781" xlink:href="#Arial-BoldMT-65"/>
      <use x="155.517578" xlink:href="#Arial-BoldMT-67"/>
      <use x="227.734375" xlink:href="#Arial-BoldMT-67"/>
      <use x="299.951172" xlink:href="#Arial-BoldMT-83"/>
      <use x="366.650391" xlink:href="#Arial-BoldMT-32"/>
      <use x="394.433594" xlink:href="#Arial-BoldMT-70"/>
      <use x="455.517578" xlink:href="#Arial-BoldMT-105"/>
      <use x="483.300781" xlink:href="#Arial-BoldMT-110"/>
      <use x="544.384766" xlink:href="#Arial-BoldMT-103"/>
      <use x="605.46875" xlink:href="#Arial-BoldMT-101"/>
      <use x="661.083984" xlink:href="#Arial-BoldMT-114"/>
      <use x="700" xlink:href="#Arial-BoldMT-112"/>
      <use x="761.083984" xlink:href="#Arial-BoldMT-114"/>
      <use x="800" xlink:href="#Arial-BoldMT-105"/>
      <use x="827.783203" xlink:href="#Arial-BoldMT-110"/>
      <use x="888.867188" xlink:href="#Arial-BoldMT-116"/>
      <use x="922.167969" xlink:href="#Arial-BoldMT-32"/>
      <use x="949.951172" xlink:href="#Arial-BoldMT-84"/>
      <use x="1010.925781" xlink:href="#Arial-BoldMT-97"/>
      <use x="1066.541016" xlink:href="#Arial-BoldMT-110"/>
      <use x="1127.625" xlink:href="#Arial-BoldMT-105"/>
      <use x="1155.408203" xlink:href="#Arial-BoldMT-109"/>
      <use x="1244.324219" xlink:href="#Arial-BoldMT-111"/>
      <use x="1305.408203" xlink:href="#Arial-BoldMT-116"/>
      <use x="1338.708984" xlink:href="#Arial-BoldMT-111"/>
      <use x="1399.792969" xlink:href="#Arial-BoldMT-32"/>
      <use x="1427.576172" xlink:href="#Arial-BoldMT-83"/>
      <use x="1494.275391" xlink:href="#Arial-BoldMT-105"/>
      <use x="1522.058594" xlink:href="#Arial-BoldMT-109"/>
      <use x="1610.974609" xlink:href="#Arial-BoldMT-105"/>
      <use x="1638.757812" xlink:href="#Arial-BoldMT-108"/>
      <use x="1666.541016" xlink:href="#Arial-BoldMT-97"/>
      <use x="1722.15625" xlink:href="#Arial-BoldMT-114"/>
      <use x="1761.072266" xlink:href="#Arial-BoldMT-105"/>
      <use x="1788.855469" xlink:href="#Arial-BoldMT-116"/>
      <use x="1822.15625" xlink:href="#Arial-BoldMT-121"/>
     </g>
    </g>
   </g>
   <g id="matplotlib.axis_2">
    <g id="ytick_1">
     <g id="text_4">
      <!-- 0 -->
      <g style="fill:#262626;" transform="translate(22.46125 161.626172)scale(0.11 -0.11)">
       <use xlink:href="#Arial-BoldMT-48"/>
      </g>
     </g>
    </g>
    <g id="ytick_2">
     <g id="text_5">
      <!-- 2 -->
      <defs>
       <path d="M 50.59375 12.75 
L 50.59375 0 
L 2.484375 0 
Q 3.265625 7.234375 7.171875 13.703125 
Q 11.078125 20.171875 22.609375 30.859375 
Q 31.890625 39.5 33.984375 42.578125 
Q 36.8125 46.828125 36.8125 50.984375 
Q 36.8125 55.5625 34.34375 58.03125 
Q 31.890625 60.5 27.546875 60.5 
Q 23.25 60.5 20.703125 57.90625 
Q 18.171875 55.328125 17.78125 49.3125 
L 4.109375 50.6875 
Q 5.328125 62.015625 11.765625 66.9375 
Q 18.21875 71.875 27.875 71.875 
Q 38.484375 71.875 44.53125 66.15625 
Q 50.59375 60.453125 50.59375 51.953125 
Q 50.59375 47.125 48.859375 42.75 
Q 47.125 38.375 43.359375 33.59375 
Q 40.875 30.421875 34.375 24.453125 
Q 27.875 18.5 26.140625 16.546875 
Q 24.421875 14.59375 23.34375 12.75 
z
" id="Arial-BoldMT-50"/>
      </defs>
      <g style="fill:#262626;" transform="translate(22.46125 119.860986)scale(0.11 -0.11)">
       <use xlink:href="#Arial-BoldMT-50"/>
      </g>
     </g>
    </g>
    <g id="ytick_3">
     <g id="text_6">
      <!-- 4 -->
      <defs>
       <path d="M 31.15625 0 
L 31.15625 14.40625 
L 1.859375 14.40625 
L 1.859375 26.421875 
L 32.90625 71.875 
L 44.4375 71.875 
L 44.4375 26.46875 
L 53.328125 26.46875 
L 53.328125 14.40625 
L 44.4375 14.40625 
L 44.4375 0 
z
M 31.15625 26.46875 
L 31.15625 50.921875 
L 14.703125 26.46875 
z
" id="Arial-BoldMT-52"/>
      </defs>
      <g style="fill:#262626;" transform="translate(22.46125 78.0958)scale(0.11 -0.11)">
       <use xlink:href="#Arial-BoldMT-52"/>
      </g>
     </g>
    </g>
    <g id="ytick_4">
     <g id="text_7">
      <!-- 6 -->
      <defs>
       <path d="M 50.734375 54.046875 
L 37.453125 52.59375 
Q 36.96875 56.6875 34.90625 58.640625 
Q 32.859375 60.59375 29.59375 60.59375 
Q 25.25 60.59375 22.234375 56.6875 
Q 19.234375 52.78125 18.453125 40.4375 
Q 23.578125 46.484375 31.203125 46.484375 
Q 39.796875 46.484375 45.921875 39.9375 
Q 52.046875 33.40625 52.046875 23.046875 
Q 52.046875 12.0625 45.59375 5.421875 
Q 39.15625 -1.21875 29.046875 -1.21875 
Q 18.21875 -1.21875 11.234375 7.203125 
Q 4.25 15.625 4.25 34.8125 
Q 4.25 54.5 11.515625 63.1875 
Q 18.796875 71.875 30.421875 71.875 
Q 38.578125 71.875 43.921875 67.3125 
Q 49.265625 62.75 50.734375 54.046875 
z
M 19.625 24.125 
Q 19.625 17.4375 22.703125 13.796875 
Q 25.78125 10.15625 29.734375 10.15625 
Q 33.546875 10.15625 36.078125 13.125 
Q 38.625 16.109375 38.625 22.90625 
Q 38.625 29.890625 35.890625 33.125 
Q 33.15625 36.375 29.046875 36.375 
Q 25.09375 36.375 22.359375 33.265625 
Q 19.625 30.171875 19.625 24.125 
z
" id="Arial-BoldMT-54"/>
      </defs>
      <g style="fill:#262626;" transform="translate(22.46125 36.330614)scale(0.11 -0.11)">
       <use xlink:href="#Arial-BoldMT-54"/>
      </g>
     </g>
    </g>
    <g id="text_8">
     <!-- Samples (Normalized) -->
     <defs>
      <path d="M 2.34375 14.796875 
L 16.109375 16.890625 
Q 17 12.890625 19.671875 10.8125 
Q 22.359375 8.734375 27.203125 8.734375 
Q 32.515625 8.734375 35.203125 10.6875 
Q 37.015625 12.0625 37.015625 14.359375 
Q 37.015625 15.921875 36.03125 16.9375 
Q 35.015625 17.921875 31.453125 18.75 
Q 14.84375 22.40625 10.40625 25.4375 
Q 4.25 29.640625 4.25 37.109375 
Q 4.25 43.84375 9.5625 48.4375 
Q 14.890625 53.03125 26.078125 53.03125 
Q 36.71875 53.03125 41.890625 49.5625 
Q 47.078125 46.09375 49.03125 39.3125 
L 36.078125 36.921875 
Q 35.25 39.9375 32.921875 41.546875 
Q 30.609375 43.171875 26.3125 43.171875 
Q 20.90625 43.171875 18.5625 41.65625 
Q 17 40.578125 17 38.875 
Q 17 37.40625 18.359375 36.375 
Q 20.21875 35.015625 31.171875 32.515625 
Q 42.140625 30.03125 46.484375 26.421875 
Q 50.78125 22.75 50.78125 16.21875 
Q 50.78125 9.078125 44.828125 3.953125 
Q 38.875 -1.171875 27.203125 -1.171875 
Q 16.609375 -1.171875 10.421875 3.125 
Q 4.25 7.421875 2.34375 14.796875 
z
" id="Arial-BoldMT-115"/>
      <path d="M 29.9375 -21.046875 
L 20.515625 -21.046875 
Q 13.03125 -9.765625 9.125 2.390625 
Q 5.21875 14.546875 5.21875 25.921875 
Q 5.21875 40.046875 10.0625 52.640625 
Q 14.265625 63.578125 20.703125 72.796875 
L 30.078125 72.796875 
Q 23.390625 58.015625 20.875 47.625 
Q 18.359375 37.25 18.359375 25.640625 
Q 18.359375 17.625 19.84375 9.21875 
Q 21.34375 0.828125 23.921875 -6.734375 
Q 25.640625 -11.71875 29.9375 -21.046875 
z
" id="Arial-BoldMT-40"/>
      <path d="M 7.421875 0 
L 7.421875 71.578125 
L 21.484375 71.578125 
L 50.78125 23.78125 
L 50.78125 71.578125 
L 64.203125 71.578125 
L 64.203125 0 
L 49.703125 0 
L 20.84375 46.6875 
L 20.84375 0 
z
" id="Arial-BoldMT-78"/>
      <path d="M 1.65625 0 
L 1.65625 10.6875 
L 21.09375 33.015625 
Q 25.875 38.484375 28.171875 40.765625 
Q 25.78125 40.625 21.875 40.578125 
L 3.5625 40.484375 
L 3.5625 51.859375 
L 46.4375 51.859375 
L 46.4375 42.140625 
L 26.609375 19.28125 
L 19.625 11.71875 
Q 25.34375 12.0625 26.703125 12.0625 
L 47.953125 12.0625 
L 47.953125 0 
z
" id="Arial-BoldMT-122"/>
      <path d="M 54.734375 0 
L 42 0 
L 42 7.625 
Q 38.8125 3.171875 34.484375 1 
Q 30.171875 -1.171875 25.78125 -1.171875 
Q 16.84375 -1.171875 10.46875 6.03125 
Q 4.109375 13.234375 4.109375 26.125 
Q 4.109375 39.3125 10.296875 46.171875 
Q 16.5 53.03125 25.984375 53.03125 
Q 34.671875 53.03125 41.015625 45.796875 
L 41.015625 71.578125 
L 54.734375 71.578125 
z
M 18.109375 27.046875 
Q 18.109375 18.75 20.40625 15.046875 
Q 23.734375 9.671875 29.6875 9.671875 
Q 34.421875 9.671875 37.734375 13.6875 
Q 41.0625 17.71875 41.0625 25.734375 
Q 41.0625 34.671875 37.84375 38.59375 
Q 34.625 42.53125 29.59375 42.53125 
Q 24.703125 42.53125 21.40625 38.640625 
Q 18.109375 34.765625 18.109375 27.046875 
z
" id="Arial-BoldMT-100"/>
      <path d="M 3.375 -21.046875 
Q 7.421875 -12.359375 9.078125 -7.71875 
Q 10.75 -3.078125 12.15625 2.96875 
Q 13.578125 9.03125 14.25 14.46875 
Q 14.9375 19.921875 14.9375 25.640625 
Q 14.9375 37.25 12.453125 47.625 
Q 9.96875 58.015625 3.265625 72.796875 
L 12.59375 72.796875 
Q 19.96875 62.3125 24.046875 50.53125 
Q 28.125 38.765625 28.125 26.65625 
Q 28.125 16.453125 24.90625 4.78125 
Q 21.234375 -8.296875 12.84375 -21.046875 
z
" id="Arial-BoldMT-41"/>
     </defs>
     <g style="fill:#262626;" transform="translate(15.935625 152.420625)rotate(-90)scale(0.12 -0.12)">
      <use xlink:href="#Arial-BoldMT-83"/>
      <use x="66.699219" xlink:href="#Arial-BoldMT-97"/>
      <use x="122.314453" xlink:href="#Arial-BoldMT-109"/>
      <use x="211.230469" xlink:href="#Arial-BoldMT-112"/>
      <use x="272.314453" xlink:href="#Arial-BoldMT-108"/>
      <use x="300.097656" xlink:href="#Arial-BoldMT-101"/>
      <use x="355.712891" xlink:href="#Arial-BoldMT-115"/>
      <use x="411.328125" xlink:href="#Arial-BoldMT-32"/>
      <use x="439.111328" xlink:href="#Arial-BoldMT-40"/>
      <use x="472.412109" xlink:href="#Arial-BoldMT-78"/>
      <use x="544.628906" xlink:href="#Arial-BoldMT-111"/>
      <use x="605.712891" xlink:href="#Arial-BoldMT-114"/>
      <use x="644.628906" xlink:href="#Arial-BoldMT-109"/>
      <use x="733.544922" xlink:href="#Arial-BoldMT-97"/>
      <use x="789.160156" xlink:href="#Arial-BoldMT-108"/>
      <use x="816.943359" xlink:href="#Arial-BoldMT-105"/>
      <use x="844.726562" xlink:href="#Arial-BoldMT-122"/>
      <use x="894.726562" xlink:href="#Arial-BoldMT-101"/>
      <use x="950.341797" xlink:href="#Arial-BoldMT-100"/>
      <use x="1011.425781" xlink:href="#Arial-BoldMT-41"/>
     </g>
    </g>
   </g>
   <g id="patch_3">
    <path clip-path="url(#pdfa24a7a32)" d="M 60.701821 157.689375 
L 69.451878 157.689375 
L 69.451878 127.263062 
L 60.701821 127.263062 
z
" style="fill:#2ca02c;opacity:0.65;stroke:#ffffff;stroke-linejoin:miter;"/>
   </g>
   <g id="patch_4">
    <path clip-path="url(#pdfa24a7a32)" d="M 69.451878 157.689375 
L 78.201935 157.689375 
L 78.201935 127.263062 
L 69.451878 127.263062 
z
" style="fill:#2ca02c;opacity:0.65;stroke:#ffffff;stroke-linejoin:miter;"/>
   </g>
   <g id="patch_5">
    <path clip-path="url(#pdfa24a7a32)" d="M 78.201935 157.689375 
L 86.951992 157.689375 
L 86.951992 106.978853 
L 78.201935 106.978853 
z
" style="fill:#2ca02c;opacity:0.65;stroke:#ffffff;stroke-linejoin:miter;"/>
   </g>
   <g id="patch_6">
    <path clip-path="url(#pdfa24a7a32)" d="M 86.951992 157.689375 
L 95.702049 157.689375 
L 95.702049 117.120957 
L 86.951992 117.120957 
z
" style="fill:#2ca02c;opacity:0.65;stroke:#ffffff;stroke-linejoin:miter;"/>
   </g>
   <g id="patch_7">
    <path clip-path="url(#pdfa24a7a32)" d="M 95.702049 157.689375 
L 104.452106 157.689375 
L 104.452106 96.836748 
L 95.702049 96.836748 
z
" style="fill:#2ca02c;opacity:0.65;stroke:#ffffff;stroke-linejoin:miter;"/>
   </g>
   <g id="patch_8">
    <path clip-path="url(#pdfa24a7a32)" d="M 104.452106 157.689375 
L 113.202163 157.689375 
L 113.202163 106.978853 
L 104.452106 106.978853 
z
" style="fill:#2ca02c;opacity:0.65;stroke:#ffffff;stroke-linejoin:miter;"/>
   </g>
   <g id="patch_9">
    <path clip-path="url(#pdfa24a7a32)" d="M 113.202163 157.689375 
L 121.95222 157.689375 
L 121.95222 157.689375 
L 113.202163 157.689375 
z
" style="fill:#2ca02c;opacity:0.65;stroke:#ffffff;stroke-linejoin:miter;"/>
   </g>
   <g id="patch_10">
    <path clip-path="url(#pdfa24a7a32)" d="M 121.95222 157.689375 
L 130.702277 157.689375 
L 130.702277 137.405166 
L 121.95222 137.405166 
z
" style="fill:#2ca02c;opacity:0.65;stroke:#ffffff;stroke-linejoin:miter;"/>
   </g>
   <g id="patch_11">
    <path clip-path="url(#pdfa24a7a32)" d="M 130.702277 157.689375 
L 139.452334 157.689375 
L 139.452334 157.689375 
L 130.702277 157.689375 
z
" style="fill:#2ca02c;opacity:0.65;stroke:#ffffff;stroke-linejoin:miter;"/>
   </g>
   <g id="patch_12">
    <path clip-path="url(#pdfa24a7a32)" d="M 139.452334 157.689375 
L 148.202391 157.689375 
L 148.202391 147.547271 
L 139.452334 147.547271 
z
" style="fill:#2ca02c;opacity:0.65;stroke:#ffffff;stroke-linejoin:miter;"/>
   </g>
   <g id="patch_13">
    <path clip-path="url(#pdfa24a7a32)" d="M 37.842744 157.689375 
L 49.37167 157.689375 
L 49.37167 156.398295 
L 37.842744 156.398295 
z
" style="fill:#d62728;opacity:0.65;stroke:#ffffff;stroke-linejoin:miter;"/>
   </g>
   <g id="patch_14">
    <path clip-path="url(#pdfa24a7a32)" d="M 49.37167 157.689375 
L 60.900595 157.689375 
L 60.900595 136.644772 
L 49.37167 136.644772 
z
" style="fill:#d62728;opacity:0.65;stroke:#ffffff;stroke-linejoin:miter;"/>
   </g>
   <g id="patch_15">
    <path clip-path="url(#pdfa24a7a32)" d="M 60.900595 157.689375 
L 72.429521 157.689375 
L 72.429521 88.616599 
L 60.900595 88.616599 
z
" style="fill:#d62728;opacity:0.65;stroke:#ffffff;stroke-linejoin:miter;"/>
   </g>
   <g id="patch_16">
    <path clip-path="url(#pdfa24a7a32)" d="M 72.429521 157.689375 
L 83.958447 157.689375 
L 83.958447 93.780919 
L 72.429521 93.780919 
z
" style="fill:#d62728;opacity:0.65;stroke:#ffffff;stroke-linejoin:miter;"/>
   </g>
   <g id="patch_17">
    <path clip-path="url(#pdfa24a7a32)" d="M 83.958447 157.689375 
L 95.487372 157.689375 
L 95.487372 119.602517 
L 83.958447 119.602517 
z
" style="fill:#d62728;opacity:0.65;stroke:#ffffff;stroke-linejoin:miter;"/>
   </g>
   <g id="patch_18">
    <path clip-path="url(#pdfa24a7a32)" d="M 95.487372 157.689375 
L 107.016298 157.689375 
L 107.016298 136.386556 
L 95.487372 136.386556 
z
" style="fill:#d62728;opacity:0.65;stroke:#ffffff;stroke-linejoin:miter;"/>
   </g>
   <g id="patch_19">
    <path clip-path="url(#pdfa24a7a32)" d="M 107.016298 157.689375 
L 118.545223 157.689375 
L 118.545223 151.104867 
L 107.016298 151.104867 
z
" style="fill:#d62728;opacity:0.65;stroke:#ffffff;stroke-linejoin:miter;"/>
   </g>
   <g id="patch_20">
    <path clip-path="url(#pdfa24a7a32)" d="M 118.545223 157.689375 
L 130.074149 157.689375 
L 130.074149 156.398295 
L 118.545223 156.398295 
z
" style="fill:#d62728;opacity:0.65;stroke:#ffffff;stroke-linejoin:miter;"/>
   </g>
   <g id="patch_21">
    <path clip-path="url(#pdfa24a7a32)" d="M 130.074149 157.689375 
L 141.603075 157.689375 
L 141.603075 157.172943 
L 130.074149 157.172943 
z
" style="fill:#d62728;opacity:0.65;stroke:#ffffff;stroke-linejoin:miter;"/>
   </g>
   <g id="patch_22">
    <path clip-path="url(#pdfa24a7a32)" d="M 141.603075 157.689375 
L 153.132 157.689375 
L 153.132 157.560267 
L 141.603075 157.560267 
z
" style="fill:#d62728;opacity:0.65;stroke:#ffffff;stroke-linejoin:miter;"/>
   </g>
   <g id="patch_23">
    <path d="M 32.078281 157.689375 
L 32.078281 21.789375 
" style="fill:none;stroke:#262626;stroke-linecap:square;stroke-linejoin:miter;stroke-width:1.25;"/>
   </g>
   <g id="patch_24">
    <path d="M 158.896463 157.689375 
L 158.896463 21.789375 
" style="fill:none;stroke:#262626;stroke-linecap:square;stroke-linejoin:miter;stroke-width:1.25;"/>
   </g>
   <g id="patch_25">
    <path d="M 32.078281 157.689375 
L 158.896463 157.689375 
" style="fill:none;stroke:#262626;stroke-linecap:square;stroke-linejoin:miter;stroke-width:1.25;"/>
   </g>
   <g id="patch_26">
    <path d="M 32.078281 21.789375 
L 158.896463 21.789375 
" style="fill:none;stroke:#262626;stroke-linecap:square;stroke-linejoin:miter;stroke-width:1.25;"/>
   </g>
   <g id="text_9">
    <!-- Transfer Models -->
    <defs>
     <path d="M 1.171875 51.859375 
L 8.796875 51.859375 
L 8.796875 55.765625 
Q 8.796875 62.3125 10.1875 65.53125 
Q 11.578125 68.75 15.3125 70.765625 
Q 19.046875 72.796875 24.75 72.796875 
Q 30.609375 72.796875 36.234375 71.046875 
L 34.375 61.46875 
Q 31.109375 62.25 28.078125 62.25 
Q 25.09375 62.25 23.796875 60.859375 
Q 22.515625 59.46875 22.515625 55.515625 
L 22.515625 51.859375 
L 32.765625 51.859375 
L 32.765625 41.0625 
L 22.515625 41.0625 
L 22.515625 0 
L 8.796875 0 
L 8.796875 41.0625 
L 1.171875 41.0625 
z
" id="Arial-BoldMT-102"/>
    </defs>
    <g style="fill:#262626;" transform="translate(49.150497 15.789375)scale(0.12 -0.12)">
     <use xlink:href="#Arial-BoldMT-84"/>
     <use x="61.005859" xlink:href="#Arial-BoldMT-114"/>
     <use x="99.921875" xlink:href="#Arial-BoldMT-97"/>
     <use x="155.537109" xlink:href="#Arial-BoldMT-110"/>
     <use x="216.621094" xlink:href="#Arial-BoldMT-115"/>
     <use x="272.236328" xlink:href="#Arial-BoldMT-102"/>
     <use x="305.537109" xlink:href="#Arial-BoldMT-101"/>
     <use x="361.152344" xlink:href="#Arial-BoldMT-114"/>
     <use x="400.068359" xlink:href="#Arial-BoldMT-32"/>
     <use x="427.851562" xlink:href="#Arial-BoldMT-77"/>
     <use x="511.152344" xlink:href="#Arial-BoldMT-111"/>
     <use x="572.236328" xlink:href="#Arial-BoldMT-100"/>
     <use x="633.320312" xlink:href="#Arial-BoldMT-101"/>
     <use x="688.935547" xlink:href="#Arial-BoldMT-108"/>
     <use x="716.71875" xlink:href="#Arial-BoldMT-115"/>
    </g>
   </g>
  </g>
  <g id="axes_2">
   <g id="patch_27">
    <path d="M 184.260099 157.689375 
L 311.078281 157.689375 
L 311.078281 21.789375 
L 184.260099 21.789375 
z
" style="fill:#ffffff;"/>
   </g>
   <g id="matplotlib.axis_3">
    <g id="xtick_3">
     <g id="text_10">
      <!-- 0.5 -->
      <g style="fill:#262626;" transform="translate(236.048699 169.062969)scale(0.11 -0.11)">
       <use xlink:href="#Arial-BoldMT-48"/>
       <use x="55.615234" xlink:href="#Arial-BoldMT-46"/>
       <use x="83.398438" xlink:href="#Arial-BoldMT-53"/>
      </g>
     </g>
    </g>
    <g id="xtick_4">
     <g id="text_11">
      <!-- 1.0 -->
      <g style="fill:#262626;" transform="translate(297.668818 169.062969)scale(0.11 -0.11)">
       <use xlink:href="#Arial-BoldMT-49"/>
       <use x="55.615234" xlink:href="#Arial-BoldMT-46"/>
       <use x="83.398438" xlink:href="#Arial-BoldMT-48"/>
      </g>
     </g>
    </g>
   </g>
   <g id="matplotlib.axis_4">
    <g id="ytick_5"/>
    <g id="ytick_6"/>
    <g id="ytick_7"/>
    <g id="ytick_8"/>
   </g>
   <g id="patch_28">
    <path clip-path="url(#p5bba84d242)" d="M 199.679328 157.689375 
L 202.993351 157.689375 
L 202.993351 28.260804 
L 199.679328 28.260804 
z
" style="fill:#1f77b4;opacity:0.65;stroke:#ffffff;stroke-linejoin:miter;"/>
   </g>
   <g id="patch_29">
    <path clip-path="url(#p5bba84d242)" d="M 202.993351 157.689375 
L 206.307374 157.689375 
L 206.307374 157.689375 
L 202.993351 157.689375 
z
" style="fill:#1f77b4;opacity:0.65;stroke:#ffffff;stroke-linejoin:miter;"/>
   </g>
   <g id="patch_30">
    <path clip-path="url(#p5bba84d242)" d="M 206.307374 157.689375 
L 209.621397 157.689375 
L 209.621397 157.689375 
L 206.307374 157.689375 
z
" style="fill:#1f77b4;opacity:0.65;stroke:#ffffff;stroke-linejoin:miter;"/>
   </g>
   <g id="patch_31">
    <path clip-path="url(#p5bba84d242)" d="M 209.621397 157.689375 
L 212.935421 157.689375 
L 212.935421 28.260804 
L 209.621397 28.260804 
z
" style="fill:#1f77b4;opacity:0.65;stroke:#ffffff;stroke-linejoin:miter;"/>
   </g>
   <g id="patch_32">
    <path clip-path="url(#p5bba84d242)" d="M 212.935421 157.689375 
L 216.249444 157.689375 
L 216.249444 157.689375 
L 212.935421 157.689375 
z
" style="fill:#1f77b4;opacity:0.65;stroke:#ffffff;stroke-linejoin:miter;"/>
   </g>
   <g id="patch_33">
    <path clip-path="url(#p5bba84d242)" d="M 216.249444 157.689375 
L 219.563467 157.689375 
L 219.563467 28.260804 
L 216.249444 28.260804 
z
" style="fill:#1f77b4;opacity:0.65;stroke:#ffffff;stroke-linejoin:miter;"/>
   </g>
   <g id="patch_34">
    <path clip-path="url(#p5bba84d242)" d="M 219.563467 157.689375 
L 222.87749 157.689375 
L 222.87749 157.689375 
L 219.563467 157.689375 
z
" style="fill:#1f77b4;opacity:0.65;stroke:#ffffff;stroke-linejoin:miter;"/>
   </g>
   <g id="patch_35">
    <path clip-path="url(#p5bba84d242)" d="M 222.87749 157.689375 
L 226.191513 157.689375 
L 226.191513 28.260804 
L 222.87749 28.260804 
z
" style="fill:#1f77b4;opacity:0.65;stroke:#ffffff;stroke-linejoin:miter;"/>
   </g>
   <g id="patch_36">
    <path clip-path="url(#p5bba84d242)" d="M 226.191513 157.689375 
L 229.505537 157.689375 
L 229.505537 28.260804 
L 226.191513 28.260804 
z
" style="fill:#1f77b4;opacity:0.65;stroke:#ffffff;stroke-linejoin:miter;"/>
   </g>
   <g id="patch_37">
    <path clip-path="url(#p5bba84d242)" d="M 229.505537 157.689375 
L 232.81956 157.689375 
L 232.81956 28.260804 
L 229.505537 28.260804 
z
" style="fill:#1f77b4;opacity:0.65;stroke:#ffffff;stroke-linejoin:miter;"/>
   </g>
   <g id="patch_38">
    <path clip-path="url(#p5bba84d242)" d="M 234.890825 157.689375 
L 241.933124 157.689375 
L 241.933124 153.312784 
L 234.890825 153.312784 
z
" style="fill:#ff7f0e;opacity:0.65;stroke:#ffffff;stroke-linejoin:miter;"/>
   </g>
   <g id="patch_39">
    <path clip-path="url(#p5bba84d242)" d="M 241.933124 157.689375 
L 248.975423 157.689375 
L 248.975423 133.618123 
L 241.933124 133.618123 
z
" style="fill:#ff7f0e;opacity:0.65;stroke:#ffffff;stroke-linejoin:miter;"/>
   </g>
   <g id="patch_40">
    <path clip-path="url(#p5bba84d242)" d="M 248.975423 157.689375 
L 256.017723 157.689375 
L 256.017723 129.241531 
L 248.975423 129.241531 
z
" style="fill:#ff7f0e;opacity:0.65;stroke:#ffffff;stroke-linejoin:miter;"/>
   </g>
   <g id="patch_41">
    <path clip-path="url(#p5bba84d242)" d="M 256.017723 157.689375 
L 263.060022 157.689375 
L 263.060022 102.981983 
L 256.017723 102.981983 
z
" style="fill:#ff7f0e;opacity:0.65;stroke:#ffffff;stroke-linejoin:miter;"/>
   </g>
   <g id="patch_42">
    <path clip-path="url(#p5bba84d242)" d="M 263.060022 157.689375 
L 270.102321 157.689375 
L 270.102321 100.793687 
L 263.060022 100.793687 
z
" style="fill:#ff7f0e;opacity:0.65;stroke:#ffffff;stroke-linejoin:miter;"/>
   </g>
   <g id="patch_43">
    <path clip-path="url(#p5bba84d242)" d="M 270.102321 157.689375 
L 277.144621 157.689375 
L 277.144621 113.923461 
L 270.102321 113.923461 
z
" style="fill:#ff7f0e;opacity:0.65;stroke:#ffffff;stroke-linejoin:miter;"/>
   </g>
   <g id="patch_44">
    <path clip-path="url(#p5bba84d242)" d="M 277.144621 157.689375 
L 284.18692 157.689375 
L 284.18692 92.040505 
L 277.144621 92.040505 
z
" style="fill:#ff7f0e;opacity:0.65;stroke:#ffffff;stroke-linejoin:miter;"/>
   </g>
   <g id="patch_45">
    <path clip-path="url(#p5bba84d242)" d="M 284.18692 157.689375 
L 291.22922 157.689375 
L 291.22922 116.111757 
L 284.18692 116.111757 
z
" style="fill:#ff7f0e;opacity:0.65;stroke:#ffffff;stroke-linejoin:miter;"/>
   </g>
   <g id="patch_46">
    <path clip-path="url(#p5bba84d242)" d="M 291.22922 157.689375 
L 298.271519 157.689375 
L 298.271519 124.86494 
L 291.22922 124.86494 
z
" style="fill:#ff7f0e;opacity:0.65;stroke:#ffffff;stroke-linejoin:miter;"/>
   </g>
   <g id="patch_47">
    <path clip-path="url(#p5bba84d242)" d="M 298.271519 157.689375 
L 305.313818 157.689375 
L 305.313818 144.559601 
L 298.271519 144.559601 
z
" style="fill:#ff7f0e;opacity:0.65;stroke:#ffffff;stroke-linejoin:miter;"/>
   </g>
   <g id="patch_48">
    <path d="M 184.260099 157.689375 
L 184.260099 21.789375 
" style="fill:none;stroke:#262626;stroke-linecap:square;stroke-linejoin:miter;stroke-width:1.25;"/>
   </g>
   <g id="patch_49">
    <path d="M 311.078281 157.689375 
L 311.078281 21.789375 
" style="fill:none;stroke:#262626;stroke-linecap:square;stroke-linejoin:miter;stroke-width:1.25;"/>
   </g>
   <g id="patch_50">
    <path d="M 184.260099 157.689375 
L 311.078281 157.689375 
" style="fill:none;stroke:#262626;stroke-linecap:square;stroke-linejoin:miter;stroke-width:1.25;"/>
   </g>
   <g id="patch_51">
    <path d="M 184.260099 21.789375 
L 311.078281 21.789375 
" style="fill:none;stroke:#262626;stroke-linecap:square;stroke-linejoin:miter;stroke-width:1.25;"/>
   </g>
   <g id="text_12">
    <!-- Purist Models -->
    <defs>
     <path d="M 7.28125 0 
L 7.28125 71.578125 
L 30.46875 71.578125 
Q 43.65625 71.578125 47.65625 70.515625 
Q 53.8125 68.890625 57.953125 63.5 
Q 62.109375 58.109375 62.109375 49.5625 
Q 62.109375 42.96875 59.71875 38.46875 
Q 57.328125 33.984375 53.640625 31.421875 
Q 49.953125 28.859375 46.140625 28.03125 
Q 40.96875 27 31.15625 27 
L 21.734375 27 
L 21.734375 0 
z
M 21.734375 59.46875 
L 21.734375 39.15625 
L 29.640625 39.15625 
Q 38.1875 39.15625 41.0625 40.28125 
Q 43.953125 41.40625 45.578125 43.796875 
Q 47.21875 46.1875 47.21875 49.359375 
Q 47.21875 53.265625 44.921875 55.796875 
Q 42.625 58.34375 39.109375 58.984375 
Q 36.53125 59.46875 28.71875 59.46875 
z
" id="Arial-BoldMT-80"/>
     <path d="M 41.3125 0 
L 41.3125 7.765625 
Q 38.484375 3.609375 33.859375 1.21875 
Q 29.25 -1.171875 24.125 -1.171875 
Q 18.890625 -1.171875 14.734375 1.125 
Q 10.59375 3.421875 8.734375 7.5625 
Q 6.890625 11.71875 6.890625 19.046875 
L 6.890625 51.859375 
L 20.609375 51.859375 
L 20.609375 28.03125 
Q 20.609375 17.09375 21.359375 14.625 
Q 22.125 12.15625 24.125 10.71875 
Q 26.125 9.28125 29.203125 9.28125 
Q 32.71875 9.28125 35.5 11.203125 
Q 38.28125 13.140625 39.296875 15.984375 
Q 40.328125 18.84375 40.328125 29.984375 
L 40.328125 51.859375 
L 54.046875 51.859375 
L 54.046875 0 
z
" id="Arial-BoldMT-117"/>
    </defs>
    <g style="fill:#262626;" transform="translate(208.33169 15.789375)scale(0.12 -0.12)">
     <use xlink:href="#Arial-BoldMT-80"/>
     <use x="66.699219" xlink:href="#Arial-BoldMT-117"/>
     <use x="127.783203" xlink:href="#Arial-BoldMT-114"/>
     <use x="166.699219" xlink:href="#Arial-BoldMT-105"/>
     <use x="194.482422" xlink:href="#Arial-BoldMT-115"/>
     <use x="250.097656" xlink:href="#Arial-BoldMT-116"/>
     <use x="283.398438" xlink:href="#Arial-BoldMT-32"/>
     <use x="311.181641" xlink:href="#Arial-BoldMT-77"/>
     <use x="394.482422" xlink:href="#Arial-BoldMT-111"/>
     <use x="455.566406" xlink:href="#Arial-BoldMT-100"/>
     <use x="516.650391" xlink:href="#Arial-BoldMT-101"/>
     <use x="572.265625" xlink:href="#Arial-BoldMT-108"/>
     <use x="600.048828" xlink:href="#Arial-BoldMT-115"/>
    </g>
   </g>
   <g id="legend_1">
    <g id="patch_52">
     <path d="M 63.636832 36.331406 
L 81.636832 36.331406 
L 81.636832 30.031406 
L 63.636832 30.031406 
z
" style="fill:#1f77b4;opacity:0.65;stroke:#ffffff;stroke-linejoin:miter;"/>
    </g>
    <g id="text_13">
     <!-- M1, N=6 -->
     <defs>
      <path d="M 6.84375 13.71875 
L 20.5625 13.71875 
L 20.5625 3.90625 
Q 20.5625 -2.046875 19.53125 -5.484375 
Q 18.5 -8.9375 15.640625 -11.671875 
Q 12.796875 -14.40625 8.40625 -15.96875 
L 5.71875 -10.296875 
Q 9.859375 -8.9375 11.609375 -6.546875 
Q 13.375 -4.15625 13.484375 0 
L 6.84375 0 
z
" id="Arial-BoldMT-44"/>
      <path d="M 4.15625 39.84375 
L 4.15625 52.4375 
L 54.203125 52.4375 
L 54.203125 39.84375 
z
M 4.15625 18.171875 
L 4.15625 30.8125 
L 54.203125 30.8125 
L 54.203125 18.171875 
z
" id="Arial-BoldMT-61"/>
     </defs>
     <g style="fill:#262626;" transform="translate(88.836832 36.331406)scale(0.09 -0.09)">
      <use xlink:href="#Arial-BoldMT-77"/>
      <use x="83.300781" xlink:href="#Arial-BoldMT-49"/>
      <use x="138.916016" xlink:href="#Arial-BoldMT-44"/>
      <use x="166.699219" xlink:href="#Arial-BoldMT-32"/>
      <use x="194.482422" xlink:href="#Arial-BoldMT-78"/>
      <use x="266.699219" xlink:href="#Arial-BoldMT-61"/>
      <use x="325.097656" xlink:href="#Arial-BoldMT-54"/>
     </g>
    </g>
    <g id="patch_53">
     <path d="M 63.636832 49.049531 
L 81.636832 49.049531 
L 81.636832 42.749531 
L 63.636832 42.749531 
z
" style="fill:#ff7f0e;opacity:0.65;stroke:#ffffff;stroke-linejoin:miter;"/>
    </g>
    <g id="text_14">
     <!-- M2, N=167 -->
     <defs>
      <path d="M 4.25 57.859375 
L 4.25 70.609375 
L 51.171875 70.609375 
L 51.171875 60.640625 
Q 45.359375 54.9375 39.34375 44.234375 
Q 33.34375 33.546875 30.1875 21.5 
Q 27.046875 9.46875 27.09375 0 
L 13.875 0 
Q 14.203125 14.84375 19.984375 30.265625 
Q 25.78125 45.703125 35.453125 57.859375 
z
" id="Arial-BoldMT-55"/>
     </defs>
     <g style="fill:#262626;" transform="translate(88.836832 49.049531)scale(0.09 -0.09)">
      <use xlink:href="#Arial-BoldMT-77"/>
      <use x="83.300781" xlink:href="#Arial-BoldMT-50"/>
      <use x="138.916016" xlink:href="#Arial-BoldMT-44"/>
      <use x="166.699219" xlink:href="#Arial-BoldMT-32"/>
      <use x="194.482422" xlink:href="#Arial-BoldMT-78"/>
      <use x="266.699219" xlink:href="#Arial-BoldMT-61"/>
      <use x="325.097656" xlink:href="#Arial-BoldMT-49"/>
      <use x="380.712891" xlink:href="#Arial-BoldMT-54"/>
      <use x="436.328125" xlink:href="#Arial-BoldMT-55"/>
     </g>
    </g>
    <g id="patch_54">
     <path d="M 63.636832 61.767656 
L 81.636832 61.767656 
L 81.636832 55.467656 
L 63.636832 55.467656 
z
" style="fill:#2ca02c;opacity:0.65;stroke:#ffffff;stroke-linejoin:miter;"/>
    </g>
    <g id="text_15">
     <!-- M4, N=29 -->
     <defs>
      <path d="M 4.546875 16.546875 
L 17.828125 18.015625 
Q 18.3125 13.96875 20.359375 12.015625 
Q 22.40625 10.0625 25.78125 10.0625 
Q 30.03125 10.0625 33 13.96875 
Q 35.984375 17.875 36.8125 30.171875 
Q 31.640625 24.171875 23.875 24.171875 
Q 15.4375 24.171875 9.296875 30.6875 
Q 3.171875 37.203125 3.171875 47.65625 
Q 3.171875 58.546875 9.640625 65.203125 
Q 16.109375 71.875 26.125 71.875 
Q 37.015625 71.875 44 63.453125 
Q 50.984375 55.03125 50.984375 35.75 
Q 50.984375 16.109375 43.703125 7.421875 
Q 36.421875 -1.265625 24.75 -1.265625 
Q 16.359375 -1.265625 11.171875 3.203125 
Q 6 7.671875 4.546875 16.546875 
z
M 35.59375 46.53125 
Q 35.59375 53.171875 32.546875 56.828125 
Q 29.5 60.5 25.484375 60.5 
Q 21.6875 60.5 19.171875 57.5 
Q 16.65625 54.5 16.65625 47.65625 
Q 16.65625 40.71875 19.390625 37.46875 
Q 22.125 34.234375 26.21875 34.234375 
Q 30.171875 34.234375 32.875 37.359375 
Q 35.59375 40.484375 35.59375 46.53125 
z
" id="Arial-BoldMT-57"/>
     </defs>
     <g style="fill:#262626;" transform="translate(88.836832 61.767656)scale(0.09 -0.09)">
      <use xlink:href="#Arial-BoldMT-77"/>
      <use x="83.300781" xlink:href="#Arial-BoldMT-52"/>
      <use x="138.916016" xlink:href="#Arial-BoldMT-44"/>
      <use x="166.699219" xlink:href="#Arial-BoldMT-32"/>
      <use x="194.482422" xlink:href="#Arial-BoldMT-78"/>
      <use x="266.699219" xlink:href="#Arial-BoldMT-61"/>
      <use x="325.097656" xlink:href="#Arial-BoldMT-50"/>
      <use x="380.712891" xlink:href="#Arial-BoldMT-57"/>
     </g>
    </g>
    <g id="patch_55">
     <path d="M 63.636832 74.485781 
L 81.636832 74.485781 
L 81.636832 68.185781 
L 63.636832 68.185781 
z
" style="fill:#d62728;opacity:0.65;stroke:#ffffff;stroke-linejoin:miter;"/>
    </g>
    <g id="text_16">
     <!-- M5, N=1729 -->
     <g style="fill:#262626;" transform="translate(88.836832 74.485781)scale(0.09 -0.09)">
      <use xlink:href="#Arial-BoldMT-77"/>
      <use x="83.300781" xlink:href="#Arial-BoldMT-53"/>
      <use x="138.916016" xlink:href="#Arial-BoldMT-44"/>
      <use x="166.699219" xlink:href="#Arial-BoldMT-32"/>
      <use x="194.482422" xlink:href="#Arial-BoldMT-78"/>
      <use x="266.699219" xlink:href="#Arial-BoldMT-61"/>
      <use x="325.097656" xlink:href="#Arial-BoldMT-49"/>
      <use x="380.712891" xlink:href="#Arial-BoldMT-55"/>
      <use x="436.328125" xlink:href="#Arial-BoldMT-50"/>
      <use x="491.943359" xlink:href="#Arial-BoldMT-57"/>
     </g>
    </g>
   </g>
  </g>
 </g>
 <defs>
  <clipPath id="pdfa24a7a32">
   <rect height="135.9" width="126.818182" x="32.078281" y="21.789375"/>
  </clipPath>
  <clipPath id="p5bba84d242">
   <rect height="135.9" width="126.818182" x="184.260099" y="21.789375"/>
  </clipPath>
 </defs>
</svg>
