<?xml version="1.0" encoding="utf-8" standalone="no"?>
<!DOCTYPE svg PUBLIC "-//W3C//DTD SVG 1.1//EN"
  "http://www.w3.org/Graphics/SVG/1.1/DTD/svg11.dtd">
<!-- Created with matplotlib (https://matplotlib.org/) -->
<svg height="154.720313pt" version="1.1" viewBox="0 0 335.733442 154.720313" width="335.733442pt" xmlns="http://www.w3.org/2000/svg" xmlns:xlink="http://www.w3.org/1999/xlink">
 <defs>
  <style type="text/css">
*{stroke-linecap:butt;stroke-linejoin:round;}
  </style>
 </defs>
 <g id="figure_1">
  <g id="patch_1">
   <path d="M 0 154.720313 
L 335.733442 154.720313 
L 335.733442 0 
L 0 0 
z
" style="fill:#ffffff;"/>
  </g>
  <g id="axes_1">
   <g id="patch_2">
    <path d="M 43.090625 115.369687 
L 328.533442 115.369687 
L 328.533442 7.2 
L 43.090625 7.2 
z
" style="fill:#ffffff;"/>
   </g>
   <g id="matplotlib.axis_1">
    <g id="xtick_1">
     <g id="line2d_1">
      <path clip-path="url(#p33976ad709)" d="M 56.065299 115.369687 
L 56.065299 7.2 
" style="fill:none;stroke:#000000;stroke-dasharray:1.85,0.8;stroke-dashoffset:0;stroke-width:0.5;"/>
     </g>
     <g id="text_1">
      <!-- $\mathdefault{10^{0}}$ -->
      <defs>
       <path d="M 39.359375 0 
L 25.640625 0 
L 25.640625 51.703125 
Q 18.109375 44.671875 7.90625 41.3125 
L 7.90625 53.765625 
Q 13.28125 55.515625 19.578125 60.421875 
Q 25.875 65.328125 28.21875 71.875 
L 39.359375 71.875 
z
" id="Arial-BoldMT-49"/>
       <path d="M 27.4375 71.875 
Q 37.84375 71.875 43.703125 64.453125 
Q 50.6875 55.671875 50.6875 35.296875 
Q 50.6875 14.984375 43.65625 6.109375 
Q 37.84375 -1.21875 27.4375 -1.21875 
Q 17 -1.21875 10.59375 6.8125 
Q 4.203125 14.84375 4.203125 35.453125 
Q 4.203125 55.671875 11.234375 64.546875 
Q 17.046875 71.875 27.4375 71.875 
z
M 27.4375 60.5 
Q 24.953125 60.5 23 58.90625 
Q 21.046875 57.328125 19.96875 53.21875 
Q 18.5625 47.90625 18.5625 35.296875 
Q 18.5625 22.703125 19.828125 17.984375 
Q 21.09375 13.28125 23.015625 11.71875 
Q 24.953125 10.15625 27.4375 10.15625 
Q 29.9375 10.15625 31.890625 11.734375 
Q 33.84375 13.328125 34.90625 17.4375 
Q 36.328125 22.703125 36.328125 35.296875 
Q 36.328125 47.90625 35.0625 52.609375 
Q 33.796875 57.328125 31.859375 58.90625 
Q 29.9375 60.5 27.4375 60.5 
z
" id="Arial-BoldMT-48"/>
      </defs>
      <g style="fill:#262626;" transform="translate(47.430299 130.228906)scale(0.11 -0.11)">
       <use transform="translate(0 0.99375)" xlink:href="#Arial-BoldMT-49"/>
       <use transform="translate(55.615234 0.99375)" xlink:href="#Arial-BoldMT-48"/>
       <use transform="translate(112.972813 70.6875)scale(0.7)" xlink:href="#Arial-BoldMT-48"/>
      </g>
     </g>
    </g>
    <g id="xtick_2">
     <g id="line2d_2">
      <path clip-path="url(#p33976ad709)" d="M 136.216639 115.369687 
L 136.216639 7.2 
" style="fill:none;stroke:#000000;stroke-dasharray:1.85,0.8;stroke-dashoffset:0;stroke-width:0.5;"/>
     </g>
     <g id="text_2">
      <!-- $\mathdefault{10^{1}}$ -->
      <g style="fill:#262626;" transform="translate(127.581639 130.228906)scale(0.11 -0.11)">
       <use transform="translate(0 0.99375)" xlink:href="#Arial-BoldMT-49"/>
       <use transform="translate(55.615234 0.99375)" xlink:href="#Arial-BoldMT-48"/>
       <use transform="translate(112.972813 70.6875)scale(0.7)" xlink:href="#Arial-BoldMT-49"/>
      </g>
     </g>
    </g>
    <g id="xtick_3">
     <g id="line2d_3">
      <path clip-path="url(#p33976ad709)" d="M 216.367979 115.369687 
L 216.367979 7.2 
" style="fill:none;stroke:#000000;stroke-dasharray:1.85,0.8;stroke-dashoffset:0;stroke-width:0.5;"/>
     </g>
     <g id="text_3">
      <!-- $\mathdefault{10^{2}}$ -->
      <defs>
       <path d="M 50.59375 12.75 
L 50.59375 0 
L 2.484375 0 
Q 3.265625 7.234375 7.171875 13.703125 
Q 11.078125 20.171875 22.609375 30.859375 
Q 31.890625 39.5 33.984375 42.578125 
Q 36.8125 46.828125 36.8125 50.984375 
Q 36.8125 55.5625 34.34375 58.03125 
Q 31.890625 60.5 27.546875 60.5 
Q 23.25 60.5 20.703125 57.90625 
Q 18.171875 55.328125 17.78125 49.3125 
L 4.109375 50.6875 
Q 5.328125 62.015625 11.765625 66.9375 
Q 18.21875 71.875 27.875 71.875 
Q 38.484375 71.875 44.53125 66.15625 
Q 50.59375 60.453125 50.59375 51.953125 
Q 50.59375 47.125 48.859375 42.75 
Q 47.125 38.375 43.359375 33.59375 
Q 40.875 30.421875 34.375 24.453125 
Q 27.875 18.5 26.140625 16.546875 
Q 24.421875 14.59375 23.34375 12.75 
z
" id="Arial-BoldMT-50"/>
      </defs>
      <g style="fill:#262626;" transform="translate(207.732979 130.228906)scale(0.11 -0.11)">
       <use transform="translate(0 0.99375)" xlink:href="#Arial-BoldMT-49"/>
       <use transform="translate(55.615234 0.99375)" xlink:href="#Arial-BoldMT-48"/>
       <use transform="translate(112.972813 70.6875)scale(0.7)" xlink:href="#Arial-BoldMT-50"/>
      </g>
     </g>
    </g>
    <g id="xtick_4">
     <g id="line2d_4">
      <path clip-path="url(#p33976ad709)" d="M 296.51932 115.369687 
L 296.51932 7.2 
" style="fill:none;stroke:#000000;stroke-dasharray:1.85,0.8;stroke-dashoffset:0;stroke-width:0.5;"/>
     </g>
     <g id="text_4">
      <!-- $\mathdefault{10^{3}}$ -->
      <defs>
       <path d="M 3.765625 19 
L 17.046875 20.609375 
Q 17.671875 15.53125 20.453125 12.84375 
Q 23.25 10.15625 27.203125 10.15625 
Q 31.453125 10.15625 34.34375 13.375 
Q 37.25 16.609375 37.25 22.078125 
Q 37.25 27.25 34.46875 30.265625 
Q 31.6875 33.296875 27.6875 33.296875 
Q 25.046875 33.296875 21.390625 32.28125 
L 22.90625 43.453125 
Q 28.46875 43.3125 31.390625 45.875 
Q 34.328125 48.4375 34.328125 52.6875 
Q 34.328125 56.296875 32.171875 58.4375 
Q 30.03125 60.59375 26.46875 60.59375 
Q 22.953125 60.59375 20.453125 58.15625 
Q 17.96875 55.71875 17.4375 51.03125 
L 4.78125 53.171875 
Q 6.109375 59.671875 8.765625 63.546875 
Q 11.421875 67.4375 16.1875 69.65625 
Q 20.953125 71.875 26.859375 71.875 
Q 36.96875 71.875 43.0625 65.4375 
Q 48.09375 60.15625 48.09375 53.515625 
Q 48.09375 44.09375 37.796875 38.484375 
Q 43.953125 37.15625 47.625 32.5625 
Q 51.3125 27.984375 51.3125 21.484375 
Q 51.3125 12.0625 44.421875 5.421875 
Q 37.546875 -1.21875 27.296875 -1.21875 
Q 17.578125 -1.21875 11.171875 4.375 
Q 4.78125 9.96875 3.765625 19 
z
" id="Arial-BoldMT-51"/>
      </defs>
      <g style="fill:#262626;" transform="translate(287.88432 130.228906)scale(0.11 -0.11)">
       <use transform="translate(0 0.99375)" xlink:href="#Arial-BoldMT-49"/>
       <use transform="translate(55.615234 0.99375)" xlink:href="#Arial-BoldMT-48"/>
       <use transform="translate(112.972813 70.6875)scale(0.7)" xlink:href="#Arial-BoldMT-51"/>
      </g>
     </g>
    </g>
    <g id="xtick_5"/>
    <g id="xtick_6"/>
    <g id="xtick_7"/>
    <g id="xtick_8"/>
    <g id="xtick_9"/>
    <g id="xtick_10"/>
    <g id="xtick_11"/>
    <g id="xtick_12"/>
    <g id="xtick_13"/>
    <g id="xtick_14"/>
    <g id="xtick_15"/>
    <g id="xtick_16"/>
    <g id="xtick_17"/>
    <g id="xtick_18"/>
    <g id="xtick_19"/>
    <g id="xtick_20"/>
    <g id="xtick_21"/>
    <g id="xtick_22"/>
    <g id="xtick_23"/>
    <g id="xtick_24"/>
    <g id="xtick_25"/>
    <g id="xtick_26"/>
    <g id="xtick_27"/>
    <g id="xtick_28"/>
    <g id="xtick_29"/>
    <g id="xtick_30"/>
    <g id="xtick_31"/>
    <g id="xtick_32"/>
    <g id="text_5">
     <!-- Sanitized Samples -->
     <defs>
      <path d="M 4.5 23 
L 13.421875 23.78125 
Q 14.0625 18.40625 16.375 14.96875 
Q 18.703125 11.53125 23.578125 9.40625 
Q 28.46875 7.28125 34.578125 7.28125 
Q 39.984375 7.28125 44.140625 8.890625 
Q 48.296875 10.5 50.3125 13.296875 
Q 52.34375 16.109375 52.34375 19.4375 
Q 52.34375 22.796875 50.390625 25.3125 
Q 48.4375 27.828125 43.953125 29.546875 
Q 41.0625 30.671875 31.203125 33.03125 
Q 21.34375 35.40625 17.390625 37.5 
Q 12.25 40.1875 9.734375 44.15625 
Q 7.234375 48.140625 7.234375 53.078125 
Q 7.234375 58.5 10.296875 63.203125 
Q 13.375 67.921875 19.28125 70.359375 
Q 25.203125 72.796875 32.421875 72.796875 
Q 40.375 72.796875 46.453125 70.234375 
Q 52.546875 67.671875 55.8125 62.6875 
Q 59.078125 57.71875 59.328125 51.421875 
L 50.25 50.734375 
Q 49.515625 57.515625 45.28125 60.984375 
Q 41.0625 64.453125 32.8125 64.453125 
Q 24.21875 64.453125 20.28125 61.296875 
Q 16.359375 58.15625 16.359375 53.71875 
Q 16.359375 49.859375 19.140625 47.359375 
Q 21.875 44.875 33.421875 42.265625 
Q 44.96875 39.65625 49.265625 37.703125 
Q 55.515625 34.8125 58.484375 30.390625 
Q 61.46875 25.984375 61.46875 20.21875 
Q 61.46875 14.5 58.203125 9.4375 
Q 54.9375 4.390625 48.796875 1.578125 
Q 42.671875 -1.21875 35.015625 -1.21875 
Q 25.296875 -1.21875 18.71875 1.609375 
Q 12.15625 4.4375 8.421875 10.125 
Q 4.6875 15.828125 4.5 23 
z
" id="ArialMT-83"/>
      <path d="M 40.4375 6.390625 
Q 35.546875 2.25 31.03125 0.53125 
Q 26.515625 -1.171875 21.34375 -1.171875 
Q 12.796875 -1.171875 8.203125 3 
Q 3.609375 7.171875 3.609375 13.671875 
Q 3.609375 17.484375 5.34375 20.625 
Q 7.078125 23.78125 9.890625 25.6875 
Q 12.703125 27.59375 16.21875 28.5625 
Q 18.796875 29.25 24.03125 29.890625 
Q 34.671875 31.15625 39.703125 32.90625 
Q 39.75 34.71875 39.75 35.203125 
Q 39.75 40.578125 37.25 42.78125 
Q 33.890625 45.75 27.25 45.75 
Q 21.046875 45.75 18.09375 43.578125 
Q 15.140625 41.40625 13.71875 35.890625 
L 5.125 37.0625 
Q 6.296875 42.578125 8.984375 45.96875 
Q 11.671875 49.359375 16.75 51.1875 
Q 21.828125 53.03125 28.515625 53.03125 
Q 35.15625 53.03125 39.296875 51.46875 
Q 43.453125 49.90625 45.40625 47.53125 
Q 47.359375 45.171875 48.140625 41.546875 
Q 48.578125 39.3125 48.578125 33.453125 
L 48.578125 21.734375 
Q 48.578125 9.46875 49.140625 6.21875 
Q 49.703125 2.984375 51.375 0 
L 42.1875 0 
Q 40.828125 2.734375 40.4375 6.390625 
z
M 39.703125 26.03125 
Q 34.90625 24.078125 25.34375 22.703125 
Q 19.921875 21.921875 17.671875 20.9375 
Q 15.4375 19.96875 14.203125 18.09375 
Q 12.984375 16.21875 12.984375 13.921875 
Q 12.984375 10.40625 15.640625 8.0625 
Q 18.3125 5.71875 23.4375 5.71875 
Q 28.515625 5.71875 32.46875 7.9375 
Q 36.421875 10.15625 38.28125 14.015625 
Q 39.703125 17 39.703125 22.796875 
z
" id="ArialMT-97"/>
      <path d="M 6.59375 0 
L 6.59375 51.859375 
L 14.5 51.859375 
L 14.5 44.484375 
Q 20.21875 53.03125 31 53.03125 
Q 35.6875 53.03125 39.625 51.34375 
Q 43.5625 49.65625 45.515625 46.921875 
Q 47.46875 44.1875 48.25 40.4375 
Q 48.734375 37.984375 48.734375 31.890625 
L 48.734375 0 
L 39.9375 0 
L 39.9375 31.546875 
Q 39.9375 36.921875 38.90625 39.578125 
Q 37.890625 42.234375 35.28125 43.8125 
Q 32.671875 45.40625 29.15625 45.40625 
Q 23.53125 45.40625 19.453125 41.84375 
Q 15.375 38.28125 15.375 28.328125 
L 15.375 0 
z
" id="ArialMT-110"/>
      <path d="M 6.640625 61.46875 
L 6.640625 71.578125 
L 15.4375 71.578125 
L 15.4375 61.46875 
z
M 6.640625 0 
L 6.640625 51.859375 
L 15.4375 51.859375 
L 15.4375 0 
z
" id="ArialMT-105"/>
      <path d="M 25.78125 7.859375 
L 27.046875 0.09375 
Q 23.34375 -0.6875 20.40625 -0.6875 
Q 15.625 -0.6875 12.984375 0.828125 
Q 10.359375 2.34375 9.28125 4.8125 
Q 8.203125 7.28125 8.203125 15.1875 
L 8.203125 45.015625 
L 1.765625 45.015625 
L 1.765625 51.859375 
L 8.203125 51.859375 
L 8.203125 64.703125 
L 16.9375 69.96875 
L 16.9375 51.859375 
L 25.78125 51.859375 
L 25.78125 45.015625 
L 16.9375 45.015625 
L 16.9375 14.703125 
Q 16.9375 10.9375 17.40625 9.859375 
Q 17.875 8.796875 18.921875 8.15625 
Q 19.96875 7.515625 21.921875 7.515625 
Q 23.390625 7.515625 25.78125 7.859375 
z
" id="ArialMT-116"/>
      <path d="M 1.953125 0 
L 1.953125 7.125 
L 34.96875 45.015625 
Q 29.34375 44.734375 25.046875 44.734375 
L 3.90625 44.734375 
L 3.90625 51.859375 
L 46.296875 51.859375 
L 46.296875 46.046875 
L 18.21875 13.140625 
L 12.796875 7.125 
Q 18.703125 7.5625 23.875 7.5625 
L 47.859375 7.5625 
L 47.859375 0 
z
" id="ArialMT-122"/>
      <path d="M 42.09375 16.703125 
L 51.171875 15.578125 
Q 49.03125 7.625 43.21875 3.21875 
Q 37.40625 -1.171875 28.375 -1.171875 
Q 17 -1.171875 10.328125 5.828125 
Q 3.65625 12.84375 3.65625 25.484375 
Q 3.65625 38.578125 10.390625 45.796875 
Q 17.140625 53.03125 27.875 53.03125 
Q 38.28125 53.03125 44.875 45.953125 
Q 51.46875 38.875 51.46875 26.03125 
Q 51.46875 25.25 51.421875 23.6875 
L 12.75 23.6875 
Q 13.234375 15.140625 17.578125 10.59375 
Q 21.921875 6.0625 28.421875 6.0625 
Q 33.25 6.0625 36.671875 8.59375 
Q 40.09375 11.140625 42.09375 16.703125 
z
M 13.234375 30.90625 
L 42.1875 30.90625 
Q 41.609375 37.453125 38.875 40.71875 
Q 34.671875 45.796875 27.984375 45.796875 
Q 21.921875 45.796875 17.796875 41.75 
Q 13.671875 37.703125 13.234375 30.90625 
z
" id="ArialMT-101"/>
      <path d="M 40.234375 0 
L 40.234375 6.546875 
Q 35.296875 -1.171875 25.734375 -1.171875 
Q 19.53125 -1.171875 14.328125 2.25 
Q 9.125 5.671875 6.265625 11.796875 
Q 3.421875 17.921875 3.421875 25.875 
Q 3.421875 33.640625 6 39.96875 
Q 8.59375 46.296875 13.765625 49.65625 
Q 18.953125 53.03125 25.34375 53.03125 
Q 30.03125 53.03125 33.6875 51.046875 
Q 37.359375 49.078125 39.65625 45.90625 
L 39.65625 71.578125 
L 48.390625 71.578125 
L 48.390625 0 
z
M 12.453125 25.875 
Q 12.453125 15.921875 16.640625 10.984375 
Q 20.84375 6.0625 26.5625 6.0625 
Q 32.328125 6.0625 36.34375 10.765625 
Q 40.375 15.484375 40.375 25.140625 
Q 40.375 35.796875 36.265625 40.765625 
Q 32.171875 45.75 26.171875 45.75 
Q 20.3125 45.75 16.375 40.96875 
Q 12.453125 36.1875 12.453125 25.875 
z
" id="ArialMT-100"/>
      <path id="ArialMT-32"/>
      <path d="M 6.59375 0 
L 6.59375 51.859375 
L 14.453125 51.859375 
L 14.453125 44.578125 
Q 16.890625 48.390625 20.9375 50.703125 
Q 25 53.03125 30.171875 53.03125 
Q 35.9375 53.03125 39.625 50.640625 
Q 43.3125 48.25 44.828125 43.953125 
Q 50.984375 53.03125 60.84375 53.03125 
Q 68.5625 53.03125 72.703125 48.75 
Q 76.859375 44.484375 76.859375 35.59375 
L 76.859375 0 
L 68.109375 0 
L 68.109375 32.671875 
Q 68.109375 37.9375 67.25 40.25 
Q 66.40625 42.578125 64.15625 43.984375 
Q 61.921875 45.40625 58.890625 45.40625 
Q 53.421875 45.40625 49.796875 41.765625 
Q 46.1875 38.140625 46.1875 30.125 
L 46.1875 0 
L 37.40625 0 
L 37.40625 33.6875 
Q 37.40625 39.546875 35.25 42.46875 
Q 33.109375 45.40625 28.21875 45.40625 
Q 24.515625 45.40625 21.359375 43.453125 
Q 18.21875 41.5 16.796875 37.734375 
Q 15.375 33.984375 15.375 26.90625 
L 15.375 0 
z
" id="ArialMT-109"/>
      <path d="M 6.59375 -19.875 
L 6.59375 51.859375 
L 14.59375 51.859375 
L 14.59375 45.125 
Q 17.4375 49.078125 21 51.046875 
Q 24.5625 53.03125 29.640625 53.03125 
Q 36.28125 53.03125 41.359375 49.609375 
Q 46.4375 46.1875 49.015625 39.953125 
Q 51.609375 33.734375 51.609375 26.3125 
Q 51.609375 18.359375 48.75 11.984375 
Q 45.90625 5.609375 40.453125 2.21875 
Q 35.015625 -1.171875 29 -1.171875 
Q 24.609375 -1.171875 21.109375 0.6875 
Q 17.625 2.546875 15.375 5.375 
L 15.375 -19.875 
z
M 14.546875 25.640625 
Q 14.546875 15.625 18.59375 10.84375 
Q 22.65625 6.0625 28.421875 6.0625 
Q 34.28125 6.0625 38.453125 11.015625 
Q 42.625 15.96875 42.625 26.375 
Q 42.625 36.28125 38.546875 41.203125 
Q 34.46875 46.140625 28.8125 46.140625 
Q 23.1875 46.140625 18.859375 40.890625 
Q 14.546875 35.640625 14.546875 25.640625 
z
" id="ArialMT-112"/>
      <path d="M 6.390625 0 
L 6.390625 71.578125 
L 15.1875 71.578125 
L 15.1875 0 
z
" id="ArialMT-108"/>
      <path d="M 3.078125 15.484375 
L 11.765625 16.84375 
Q 12.5 11.625 15.84375 8.84375 
Q 19.1875 6.0625 25.203125 6.0625 
Q 31.25 6.0625 34.171875 8.515625 
Q 37.109375 10.984375 37.109375 14.3125 
Q 37.109375 17.28125 34.515625 19 
Q 32.71875 20.171875 25.53125 21.96875 
Q 15.875 24.421875 12.140625 26.203125 
Q 8.40625 27.984375 6.46875 31.125 
Q 4.546875 34.28125 4.546875 38.09375 
Q 4.546875 41.546875 6.125 44.5 
Q 7.71875 47.46875 10.453125 49.421875 
Q 12.5 50.921875 16.03125 51.96875 
Q 19.578125 53.03125 23.640625 53.03125 
Q 29.734375 53.03125 34.34375 51.265625 
Q 38.96875 49.515625 41.15625 46.5 
Q 43.359375 43.5 44.1875 38.484375 
L 35.59375 37.3125 
Q 35.015625 41.3125 32.203125 43.546875 
Q 29.390625 45.796875 24.265625 45.796875 
Q 18.21875 45.796875 15.625 43.796875 
Q 13.03125 41.796875 13.03125 39.109375 
Q 13.03125 37.40625 14.109375 36.03125 
Q 15.1875 34.625 17.484375 33.6875 
Q 18.796875 33.203125 25.25 31.453125 
Q 34.578125 28.953125 38.25 27.359375 
Q 41.9375 25.78125 44.03125 22.75 
Q 46.140625 19.734375 46.140625 15.234375 
Q 46.140625 10.84375 43.578125 6.953125 
Q 41.015625 3.078125 36.171875 0.953125 
Q 31.34375 -1.171875 25.25 -1.171875 
Q 15.140625 -1.171875 9.84375 3.03125 
Q 4.546875 7.234375 3.078125 15.484375 
z
" id="ArialMT-115"/>
     </defs>
     <g style="fill:#262626;" transform="translate(136.120784 145.135312)scale(0.12 -0.12)">
      <use xlink:href="#ArialMT-83"/>
      <use x="66.699219" xlink:href="#ArialMT-97"/>
      <use x="122.314453" xlink:href="#ArialMT-110"/>
      <use x="177.929688" xlink:href="#ArialMT-105"/>
      <use x="200.146484" xlink:href="#ArialMT-116"/>
      <use x="227.929688" xlink:href="#ArialMT-105"/>
      <use x="250.146484" xlink:href="#ArialMT-122"/>
      <use x="300.146484" xlink:href="#ArialMT-101"/>
      <use x="355.761719" xlink:href="#ArialMT-100"/>
      <use x="411.376953" xlink:href="#ArialMT-32"/>
      <use x="439.160156" xlink:href="#ArialMT-83"/>
      <use x="505.859375" xlink:href="#ArialMT-97"/>
      <use x="561.474609" xlink:href="#ArialMT-109"/>
      <use x="644.775391" xlink:href="#ArialMT-112"/>
      <use x="700.390625" xlink:href="#ArialMT-108"/>
      <use x="722.607422" xlink:href="#ArialMT-101"/>
      <use x="778.222656" xlink:href="#ArialMT-115"/>
     </g>
    </g>
   </g>
   <g id="matplotlib.axis_2">
    <g id="ytick_1">
     <g id="line2d_5">
      <path clip-path="url(#p33976ad709)" d="M 43.090625 87.406077 
L 328.533442 87.406077 
" style="fill:none;stroke:#000000;stroke-dasharray:1.85,0.8;stroke-dashoffset:0;stroke-width:0.5;"/>
     </g>
     <g id="text_6">
      <!-- $\mathdefault{10^{2}}$ -->
      <g style="fill:#262626;" transform="translate(22.320625 93.085687)scale(0.11 -0.11)">
       <use transform="translate(0 0.99375)" xlink:href="#Arial-BoldMT-49"/>
       <use transform="translate(55.615234 0.99375)" xlink:href="#Arial-BoldMT-48"/>
       <use transform="translate(112.972813 70.6875)scale(0.7)" xlink:href="#Arial-BoldMT-50"/>
      </g>
     </g>
    </g>
    <g id="ytick_2">
     <g id="line2d_6">
      <path clip-path="url(#p33976ad709)" d="M 43.090625 54.433552 
L 328.533442 54.433552 
" style="fill:none;stroke:#000000;stroke-dasharray:1.85,0.8;stroke-dashoffset:0;stroke-width:0.5;"/>
     </g>
     <g id="text_7">
      <!-- $\mathdefault{10^{4}}$ -->
      <defs>
       <path d="M 31.15625 0 
L 31.15625 14.40625 
L 1.859375 14.40625 
L 1.859375 26.421875 
L 32.90625 71.875 
L 44.4375 71.875 
L 44.4375 26.46875 
L 53.328125 26.46875 
L 53.328125 14.40625 
L 44.4375 14.40625 
L 44.4375 0 
z
M 31.15625 26.46875 
L 31.15625 50.921875 
L 14.703125 26.46875 
z
" id="Arial-BoldMT-52"/>
      </defs>
      <g style="fill:#262626;" transform="translate(22.320625 60.113162)scale(0.11 -0.11)">
       <use transform="translate(0 0.99375)" xlink:href="#Arial-BoldMT-49"/>
       <use transform="translate(55.615234 0.99375)" xlink:href="#Arial-BoldMT-48"/>
       <use transform="translate(112.972813 70.6875)scale(0.7)" xlink:href="#Arial-BoldMT-52"/>
      </g>
     </g>
    </g>
    <g id="ytick_3">
     <g id="line2d_7">
      <path clip-path="url(#p33976ad709)" d="M 43.090625 21.461027 
L 328.533442 21.461027 
" style="fill:none;stroke:#000000;stroke-dasharray:1.85,0.8;stroke-dashoffset:0;stroke-width:0.5;"/>
     </g>
     <g id="text_8">
      <!-- $\mathdefault{10^{6}}$ -->
      <defs>
       <path d="M 50.734375 54.046875 
L 37.453125 52.59375 
Q 36.96875 56.6875 34.90625 58.640625 
Q 32.859375 60.59375 29.59375 60.59375 
Q 25.25 60.59375 22.234375 56.6875 
Q 19.234375 52.78125 18.453125 40.4375 
Q 23.578125 46.484375 31.203125 46.484375 
Q 39.796875 46.484375 45.921875 39.9375 
Q 52.046875 33.40625 52.046875 23.046875 
Q 52.046875 12.0625 45.59375 5.421875 
Q 39.15625 -1.21875 29.046875 -1.21875 
Q 18.21875 -1.21875 11.234375 7.203125 
Q 4.25 15.625 4.25 34.8125 
Q 4.25 54.5 11.515625 63.1875 
Q 18.796875 71.875 30.421875 71.875 
Q 38.578125 71.875 43.921875 67.3125 
Q 49.265625 62.75 50.734375 54.046875 
z
M 19.625 24.125 
Q 19.625 17.4375 22.703125 13.796875 
Q 25.78125 10.15625 29.734375 10.15625 
Q 33.546875 10.15625 36.078125 13.125 
Q 38.625 16.109375 38.625 22.90625 
Q 38.625 29.890625 35.890625 33.125 
Q 33.15625 36.375 29.046875 36.375 
Q 25.09375 36.375 22.359375 33.265625 
Q 19.625 30.171875 19.625 24.125 
z
" id="Arial-BoldMT-54"/>
      </defs>
      <g style="fill:#262626;" transform="translate(22.320625 27.140636)scale(0.11 -0.11)">
       <use transform="translate(0 0.99375)" xlink:href="#Arial-BoldMT-49"/>
       <use transform="translate(55.615234 0.99375)" xlink:href="#Arial-BoldMT-48"/>
       <use transform="translate(112.972813 70.6875)scale(0.7)" xlink:href="#Arial-BoldMT-54"/>
      </g>
     </g>
    </g>
    <g id="text_9">
     <!-- Sample Attempts -->
     <defs>
      <path d="M -0.140625 0 
L 27.34375 71.578125 
L 37.546875 71.578125 
L 66.84375 0 
L 56.0625 0 
L 47.703125 21.6875 
L 17.78125 21.6875 
L 9.90625 0 
z
M 20.515625 29.390625 
L 44.78125 29.390625 
L 37.3125 49.21875 
Q 33.890625 58.25 32.234375 64.0625 
Q 30.859375 57.171875 28.375 50.390625 
z
" id="ArialMT-65"/>
     </defs>
     <g style="fill:#262626;" transform="translate(15.935625 106.963594)rotate(-90)scale(0.12 -0.12)">
      <use xlink:href="#ArialMT-83"/>
      <use x="66.699219" xlink:href="#ArialMT-97"/>
      <use x="122.314453" xlink:href="#ArialMT-109"/>
      <use x="205.615234" xlink:href="#ArialMT-112"/>
      <use x="261.230469" xlink:href="#ArialMT-108"/>
      <use x="283.447266" xlink:href="#ArialMT-101"/>
      <use x="339.0625" xlink:href="#ArialMT-32"/>
      <use x="366.767578" xlink:href="#ArialMT-65"/>
      <use x="433.466797" xlink:href="#ArialMT-116"/>
      <use x="461.25" xlink:href="#ArialMT-116"/>
      <use x="489.033203" xlink:href="#ArialMT-101"/>
      <use x="544.648438" xlink:href="#ArialMT-109"/>
      <use x="627.949219" xlink:href="#ArialMT-112"/>
      <use x="683.564453" xlink:href="#ArialMT-116"/>
      <use x="711.347656" xlink:href="#ArialMT-115"/>
     </g>
    </g>
   </g>
   <g id="line2d_8">
    <path clip-path="url(#p33976ad709)" d="M -1 27.086719 
L 56.065299 27.08168 
L 80.193256 25.845117 
L 94.307207 19.19233 
L 104.321214 17.382934 
L 112.088681 17.188261 
" style="fill:none;stroke:#1f77b4;stroke-linecap:round;stroke-width:2;"/>
   </g>
   <g id="line2d_9">
    <path clip-path="url(#p33976ad709)" d="M -1 91.96491 
L 56.065299 91.951738 
L 80.193256 86.221012 
L 94.307207 73.555868 
L 104.321214 71.999691 
L 112.088681 69.322131 
L 118.435164 69.259399 
L 128.449171 68.079051 
L 132.549115 65.085059 
L 136.216639 64.702449 
L 139.534318 63.181491 
L 142.563122 62.233929 
L 147.928997 61.860717 
L 150.330589 61.56779 
L 152.577129 61.529108 
L 154.687429 61.278922 
L 156.677072 60.413292 
L 158.559114 60.362308 
L 160.344597 59.712599 
L 162.042947 59.563013 
L 165.20961 57.617741 
L 166.69108 57.597664 
L 168.112064 56.588465 
L 170.791023 56.249321 
L 172.056955 54.044779 
L 173.278458 53.452823 
L 174.458547 51.926417 
L 175.599937 51.733803 
L 176.705087 51.683887 
L 177.776226 51.505212 
L 178.815387 50.821634 
L 180.80503 50.220291 
L 182.687071 49.936601 
L 183.591259 49.462106 
L 186.170905 49.150742 
L 187.790233 48.760024 
L 189.337568 48.03873 
L 190.086183 47.848421 
L 190.819037 46.777822 
L 191.53678 46.347168 
L 192.240022 46.2017 
L 192.929337 45.825562 
L 193.605267 45.749156 
L 196.184912 44.836191 
L 198.001461 44.581782 
L 198.586505 44.013374 
L 200.284855 43.183958 
L 200.833044 43.124987 
L 201.372734 42.585818 
L 201.904184 42.493355 
L 202.427642 42.158042 
L 202.943344 41.547222 
L 203.451518 41.514153 
L 203.95238 41.257233 
L 204.446137 40.656974 
L 204.932988 40.538167 
L 205.413123 40.197055 
L 208.600512 39.564062 
L 209.032931 39.176319 
L 209.460044 39.133772 
L 209.88198 38.89649 
L 210.298863 38.803817 
L 211.117942 38.443292 
L 211.520366 38.286412 
L 213.465525 38.071147 
L 215.307716 37.233056 
L 215.664738 37.008639 
L 218.396278 36.38538 
L 219.046938 35.710493 
L 219.685659 35.615105 
L 220.31287 35.255254 
L 221.833168 35.049838 
L 222.129419 34.885498 
L 222.42317 34.864194 
L 223.003338 34.580145 
L 223.573995 34.299921 
L 223.855853 33.949261 
L 224.135447 33.933916 
L 224.412813 33.731445 
L 225.231893 33.608802 
L 227.071302 33.044502 
L 227.579476 32.912513 
L 228.080337 32.738742 
L 228.328091 32.536765 
L 228.574094 32.527456 
L 228.818371 32.280831 
L 230.014684 32.12824 
L 230.713222 31.876658 
L 230.942987 31.872917 
L 231.171245 31.68646 
L 232.069599 31.507093 
L 232.510229 31.376329 
L 233.160889 31.173996 
L 233.799609 30.77761 
L 234.009938 30.745984 
L 234.009938 30.745984 
" style="fill:none;stroke:#ff7f0e;stroke-linecap:round;stroke-width:2;"/>
   </g>
   <g id="line2d_10">
    <path clip-path="url(#p33976ad709)" d="M -1 67.342105 
L 56.065299 67.329979 
L 80.193256 59.876088 
L 94.307207 58.891937 
L 104.321214 55.849203 
L 112.088681 55.380627 
L 118.435164 55.082889 
L 123.801039 54.693835 
L 128.449171 52.36269 
L 132.549115 51.933988 
L 136.216639 51.83469 
L 139.534318 50.74124 
L 142.563122 50.273356 
L 145.349351 48.785679 
L 147.928997 48.705126 
L 150.330589 48.582334 
L 152.577129 48.035214 
L 154.687429 48.028479 
L 156.677072 47.916674 
L 158.559114 46.677514 
L 160.344597 46.349483 
L 162.042947 43.600684 
L 163.662276 43.587764 
L 165.20961 43.54711 
L 166.69108 43.442693 
L 168.112064 43.052899 
L 169.477309 42.91459 
L 170.791023 42.86618 
L 172.056955 42.230864 
" style="fill:none;stroke:#2ca02c;stroke-linecap:round;stroke-width:2;"/>
   </g>
   <g id="line2d_11">
    <path clip-path="url(#p33976ad709)" d="M -1 73.232073 
L 56.065299 73.222319 
L 94.307207 63.700331 
L 112.088681 63.208266 
L 123.801039 61.806376 
L 128.449171 61.120503 
L 132.549115 60.986939 
L 136.216639 60.266266 
L 139.534318 58.550553 
L 142.563122 58.367149 
L 145.349351 57.962105 
L 147.928997 55.644497 
L 150.330589 55.29775 
L 152.577129 54.52579 
L 154.687429 54.317787 
L 156.677072 53.319833 
L 160.344597 53.231517 
L 162.042947 52.720526 
L 163.662276 52.360546 
L 166.69108 52.194713 
L 168.112064 51.852642 
L 169.477309 51.784563 
L 172.056955 51.306326 
L 174.458547 51.122729 
L 175.599937 50.557232 
L 176.705087 50.500789 
L 177.776226 49.976831 
L 178.815387 49.932782 
L 181.758769 49.514142 
L 182.687071 48.863858 
L 184.472554 48.656076 
L 186.170905 48.059571 
L 186.989985 47.840719 
L 188.572497 47.695933 
L 189.337568 47.559771 
L 190.086183 47.189036 
L 190.819037 47.075409 
L 191.53678 46.502509 
L 192.240022 46.21691 
L 193.605267 46.125907 
L 194.268321 45.897356 
L 195.557701 45.091618 
L 196.184912 44.875841 
L 198.001461 44.646092 
L 198.586505 44.361136 
L 199.161878 44.263944 
L 199.727895 43.562623 
L 200.284855 43.403773 
L 201.372734 43.283436 
L 201.904184 43.023888 
L 202.427642 42.945319 
L 202.943344 42.736147 
L 204.446137 42.606513 
L 205.413123 42.469752 
L 205.886726 41.858102 
L 206.353972 41.845873 
L 207.270059 41.587821 
L 207.719217 41.560136 
L 208.162653 41.359128 
L 209.88198 41.158561 
L 210.710812 41.037049 
L 211.117942 41.014816 
L 212.311521 40.709961 
L 213.085092 40.61393 
L 213.465525 40.333534 
L 216.367979 39.421111 
L 218.396278 39.112508 
L 218.723129 38.983507 
L 219.685659 38.294524 
L 220.928979 38.152174 
L 223.289836 37.425353 
L 223.573995 37.198213 
L 224.135447 37.1178 
L 224.961002 36.888261 
L 226.032142 36.665135 
L 227.579476 36.182148 
L 228.080337 36.147317 
L 228.818371 35.853249 
L 229.301841 35.766135 
L 229.541081 35.558927 
L 230.014684 35.464258 
L 230.249091 35.270412 
L 230.713222 35.227042 
L 231.171245 34.97192 
L 232.510229 34.665337 
L 232.945351 34.25049 
L 233.160889 34.223837 
L 233.3751 33.92644 
L 234.219003 33.678672 
L 235.04293 33.418849 
L 235.2459 32.990053 
L 236.243369 32.756336 
L 236.828413 32.686183 
L 237.021263 32.536698 
L 237.593483 32.427201 
L 237.969803 32.253174 
L 238.89318 31.933898 
L 240.146092 31.804311 
L 240.321454 31.617301 
L 242.194288 31.267994 
L 243.495721 30.938139 
L 243.813616 30.784531 
L 244.285081 30.705221 
L 244.903929 30.577294 
L 245.511967 30.428879 
L 245.961125 30.237033 
L 247.701952 29.898519 
L 247.98381 29.709657 
L 248.402364 29.613439 
L 248.678629 29.398868 
L 250.683557 28.93048 
L 251.19926 28.65859 
L 253.067827 28.330297 
L 253.309559 28.153081 
L 253.788045 28.109132 
L 254.142642 28.008337 
L 255.070944 27.855767 
L 256.086522 27.574797 
L 256.638186 27.442335 
L 258.137895 26.952144 
L 258.451024 26.880738 
L 258.658223 26.824047 
L 258.864196 26.701401 
L 263.920653 25.52841 
L 264.27405 25.396025 
L 264.710809 25.328957 
L 264.970259 25.205888 
L 265.568224 25.089271 
L 266.405026 24.834066 
L 266.734194 24.718733 
L 268.334903 24.475267 
L 268.646398 24.369203 
L 270.014624 24.071806 
L 270.311507 24.026205 
L 270.605879 23.974381 
L 270.825036 23.798587 
L 271.187259 23.680203 
L 274.811515 22.737117 
L 275.454958 22.520825 
L 277.377241 22.012469 
L 277.557756 21.831425 
L 277.975353 21.705252 
L 278.795812 21.467123 
L 279.879235 21.197657 
L 280.380899 20.974163 
L 281.038732 20.725899 
L 281.577586 20.615091 
L 281.790814 20.503097 
L 282.526989 20.292326 
L 283.400478 20.017327 
L 283.954217 19.906167 
L 292.187998 18.011643 
L 292.540996 17.871703 
L 293.083087 17.783501 
L 293.579009 17.666968 
L 293.955736 17.604509 
L 294.439465 17.461279 
L 294.660477 17.418169 
L 295.062057 17.337253 
L 295.957868 17.065003 
L 296.51932 16.942609 
L 297.140315 16.783449 
L 297.446706 16.673447 
L 297.951441 16.572821 
L 298.118073 16.529881 
L 298.841922 16.368045 
L 299.166033 16.217055 
L 302.251247 15.526593 
L 302.92377 15.346903 
L 304.175219 15.008597 
L 304.729519 14.91227 
L 305.139527 14.811647 
L 305.437159 14.666503 
L 306.051378 14.562605 
L 307.375875 14.189643 
L 307.856709 14.064296 
L 312.966725 12.872233 
L 313.398072 12.737754 
L 314.784745 12.396606 
L 314.949133 12.301075 
L 315.457901 12.158518 
L 315.558769 12.116804 
L 315.558769 12.116804 
" style="fill:none;stroke:#d62728;stroke-linecap:round;stroke-width:2;"/>
   </g>
   <g id="patch_3">
    <path d="M 43.090625 115.369687 
L 43.090625 7.2 
" style="fill:none;stroke:#262626;stroke-linecap:square;stroke-linejoin:miter;stroke-width:1.25;"/>
   </g>
   <g id="patch_4">
    <path d="M 328.533442 115.369687 
L 328.533442 7.2 
" style="fill:none;stroke:#262626;stroke-linecap:square;stroke-linejoin:miter;stroke-width:1.25;"/>
   </g>
   <g id="patch_5">
    <path d="M 43.090625 115.369687 
L 328.533442 115.369687 
" style="fill:none;stroke:#262626;stroke-linecap:square;stroke-linejoin:miter;stroke-width:1.25;"/>
   </g>
   <g id="patch_6">
    <path d="M 43.090625 7.2 
L 328.533442 7.2 
" style="fill:none;stroke:#262626;stroke-linecap:square;stroke-linejoin:miter;stroke-width:1.25;"/>
   </g>
   <g id="legend_1">
    <g id="patch_7">
     <path d="M 270.352036 109.869687 
L 320.833442 109.869687 
Q 323.033442 109.869687 323.033442 107.669688 
L 323.033442 46.557812 
Q 323.033442 44.357812 320.833442 44.357812 
L 270.352036 44.357812 
Q 268.152036 44.357812 268.152036 46.557812 
L 268.152036 107.669688 
Q 268.152036 109.869687 270.352036 109.869687 
z
" style="fill:#ffffff;opacity:0.8;stroke:#cccccc;stroke-linejoin:miter;"/>
    </g>
    <g id="line2d_12">
     <path d="M 272.552036 52.607813 
L 294.552036 52.607813 
" style="fill:none;stroke:#1f77b4;stroke-linecap:round;stroke-width:2;"/>
    </g>
    <g id="line2d_13"/>
    <g id="text_10">
     <!-- M1 -->
     <defs>
      <path d="M 40.921875 0 
L 15.328125 55.71875 
L 15.328125 11.46875 
Q 15.328125 5.375 16.65625 3.859375 
Q 18.453125 1.8125 22.359375 1.8125 
L 24.703125 1.8125 
L 24.703125 0 
L 1.65625 0 
L 1.65625 1.8125 
L 4 1.8125 
Q 8.203125 1.8125 9.96875 4.34375 
Q 11.03125 5.90625 11.03125 11.46875 
L 11.03125 54.734375 
Q 11.03125 59.125 10.0625 61.078125 
Q 9.375 62.5 7.546875 63.453125 
Q 5.71875 64.40625 1.65625 64.40625 
L 1.65625 66.21875 
L 20.40625 66.21875 
L 44.4375 14.40625 
L 68.0625 66.21875 
L 86.8125 66.21875 
L 86.8125 64.40625 
L 84.515625 64.40625 
Q 80.28125 64.40625 78.515625 61.859375 
Q 77.4375 60.296875 77.4375 54.734375 
L 77.4375 11.46875 
Q 77.4375 5.375 78.8125 3.859375 
Q 80.609375 1.8125 84.515625 1.8125 
L 86.8125 1.8125 
L 86.8125 0 
L 58.6875 0 
L 58.6875 1.8125 
L 61.03125 1.8125 
Q 65.28125 1.8125 67 4.34375 
Q 68.0625 5.90625 68.0625 11.46875 
L 68.0625 55.71875 
L 42.53125 0 
z
" id="TimesNewRomanPSMT-77"/>
      <path d="M 11.71875 59.71875 
L 27.828125 67.578125 
L 29.4375 67.578125 
L 29.4375 11.671875 
Q 29.4375 6.109375 29.90625 4.734375 
Q 30.375 3.375 31.828125 2.640625 
Q 33.296875 1.90625 37.796875 1.8125 
L 37.796875 0 
L 12.890625 0 
L 12.890625 1.8125 
Q 17.578125 1.90625 18.9375 2.609375 
Q 20.3125 3.328125 20.84375 4.515625 
Q 21.390625 5.71875 21.390625 11.671875 
L 21.390625 47.40625 
Q 21.390625 54.640625 20.90625 56.6875 
Q 20.5625 58.25 19.65625 58.984375 
Q 18.75 59.71875 17.484375 59.71875 
Q 15.671875 59.71875 12.453125 58.203125 
z
" id="TimesNewRomanPSMT-49"/>
     </defs>
     <g style="fill:#262626;" transform="translate(303.352036 56.457813)scale(0.11 -0.11)">
      <use xlink:href="#TimesNewRomanPSMT-77"/>
      <use x="88.916016" xlink:href="#TimesNewRomanPSMT-49"/>
     </g>
    </g>
    <g id="line2d_14">
     <path d="M 272.552036 68.160781 
L 294.552036 68.160781 
" style="fill:none;stroke:#ff7f0e;stroke-linecap:round;stroke-width:2;"/>
    </g>
    <g id="line2d_15"/>
    <g id="text_11">
     <!-- M2 -->
     <defs>
      <path d="M 45.84375 12.75 
L 41.21875 0 
L 2.15625 0 
L 2.15625 1.8125 
Q 19.390625 17.53125 26.421875 27.484375 
Q 33.453125 37.453125 33.453125 45.703125 
Q 33.453125 52 29.59375 56.046875 
Q 25.734375 60.109375 20.359375 60.109375 
Q 15.484375 60.109375 11.59375 57.25 
Q 7.71875 54.390625 5.859375 48.875 
L 4.046875 48.875 
Q 5.28125 57.90625 10.328125 62.734375 
Q 15.375 67.578125 22.953125 67.578125 
Q 31 67.578125 36.390625 62.40625 
Q 41.796875 57.234375 41.796875 50.203125 
Q 41.796875 45.171875 39.453125 40.140625 
Q 35.84375 32.234375 27.734375 23.390625 
Q 15.578125 10.109375 12.546875 7.375 
L 29.828125 7.375 
Q 35.109375 7.375 37.234375 7.765625 
Q 39.359375 8.15625 41.0625 9.34375 
Q 42.78125 10.546875 44.046875 12.75 
z
" id="TimesNewRomanPSMT-50"/>
     </defs>
     <g style="fill:#262626;" transform="translate(303.352036 72.010781)scale(0.11 -0.11)">
      <use xlink:href="#TimesNewRomanPSMT-77"/>
      <use x="88.916016" xlink:href="#TimesNewRomanPSMT-50"/>
     </g>
    </g>
    <g id="line2d_16">
     <path d="M 272.552036 83.71375 
L 294.552036 83.71375 
" style="fill:none;stroke:#2ca02c;stroke-linecap:round;stroke-width:2;"/>
    </g>
    <g id="line2d_17"/>
    <g id="text_12">
     <!-- M4 -->
     <defs>
      <path d="M 46.53125 24.421875 
L 46.53125 17.484375 
L 37.640625 17.484375 
L 37.640625 0 
L 29.59375 0 
L 29.59375 17.484375 
L 1.5625 17.484375 
L 1.5625 23.734375 
L 32.28125 67.578125 
L 37.640625 67.578125 
L 37.640625 24.421875 
z
M 29.59375 24.421875 
L 29.59375 57.28125 
L 6.34375 24.421875 
z
" id="TimesNewRomanPSMT-52"/>
     </defs>
     <g style="fill:#262626;" transform="translate(303.352036 87.56375)scale(0.11 -0.11)">
      <use xlink:href="#TimesNewRomanPSMT-77"/>
      <use x="88.916016" xlink:href="#TimesNewRomanPSMT-52"/>
     </g>
    </g>
    <g id="line2d_18">
     <path d="M 272.552036 99.266719 
L 294.552036 99.266719 
" style="fill:none;stroke:#d62728;stroke-linecap:round;stroke-width:2;"/>
    </g>
    <g id="line2d_19"/>
    <g id="text_13">
     <!-- M5 -->
     <defs>
      <path d="M 43.40625 66.21875 
L 39.59375 57.90625 
L 19.671875 57.90625 
L 15.328125 49.03125 
Q 28.265625 47.125 35.84375 39.40625 
Q 42.328125 32.765625 42.328125 23.78125 
Q 42.328125 18.5625 40.203125 14.109375 
Q 38.09375 9.671875 34.859375 6.546875 
Q 31.640625 3.421875 27.6875 1.515625 
Q 22.078125 -1.171875 16.15625 -1.171875 
Q 10.203125 -1.171875 7.484375 0.84375 
Q 4.78125 2.875 4.78125 5.328125 
Q 4.78125 6.6875 5.90625 7.734375 
Q 7.03125 8.796875 8.734375 8.796875 
Q 10.015625 8.796875 10.96875 8.40625 
Q 11.921875 8.015625 14.203125 6.390625 
Q 17.875 3.859375 21.625 3.859375 
Q 27.34375 3.859375 31.65625 8.171875 
Q 35.984375 12.5 35.984375 18.703125 
Q 35.984375 24.703125 32.125 29.90625 
Q 28.265625 35.109375 21.484375 37.9375 
Q 16.15625 40.140625 6.984375 40.484375 
L 19.671875 66.21875 
z
" id="TimesNewRomanPSMT-53"/>
     </defs>
     <g style="fill:#262626;" transform="translate(303.352036 103.116719)scale(0.11 -0.11)">
      <use xlink:href="#TimesNewRomanPSMT-77"/>
      <use x="88.916016" xlink:href="#TimesNewRomanPSMT-53"/>
     </g>
    </g>
   </g>
  </g>
 </g>
 <defs>
  <clipPath id="p33976ad709">
   <rect height="108.169687" width="285.442817" x="43.090625" y="7.2"/>
  </clipPath>
 </defs>
</svg>
