<?xml version="1.0" encoding="utf-8" standalone="no"?>
<!DOCTYPE svg PUBLIC "-//W3C//DTD SVG 1.1//EN"
  "http://www.w3.org/Graphics/SVG/1.1/DTD/svg11.dtd">
<!-- Created with matplotlib (https://matplotlib.org/) -->
<svg height="276.762422pt" version="1.1" viewBox="0 0 284.421719 276.762422" width="284.421719pt" xmlns="http://www.w3.org/2000/svg" xmlns:xlink="http://www.w3.org/1999/xlink">
 <defs>
  <style type="text/css">
*{stroke-linecap:butt;stroke-linejoin:round;}
  </style>
 </defs>
 <g id="figure_1">
  <g id="patch_1">
   <path d="M 0 276.762422 
L 284.421719 276.762422 
L 284.421719 0 
L 0 0 
z
" style="fill:#ffffff;"/>
  </g>
  <g id="axes_1">
   <g id="patch_2">
    <path d="M 47.222031 240.756797 
L 263.117031 240.756797 
L 263.117031 11.136797 
L 47.222031 11.136797 
z
" style="fill:#ffffff;"/>
   </g>
   <g id="matplotlib.axis_1">
    <g id="xtick_1">
     <g id="text_1">
      <!-- 2 -->
      <defs>
       <path d="M 50.59375 12.75 
L 50.59375 0 
L 2.484375 0 
Q 3.265625 7.234375 7.171875 13.703125 
Q 11.078125 20.171875 22.609375 30.859375 
Q 31.890625 39.5 33.984375 42.578125 
Q 36.8125 46.828125 36.8125 50.984375 
Q 36.8125 55.5625 34.34375 58.03125 
Q 31.890625 60.5 27.546875 60.5 
Q 23.25 60.5 20.703125 57.90625 
Q 18.171875 55.328125 17.78125 49.3125 
L 4.109375 50.6875 
Q 5.328125 62.015625 11.765625 66.9375 
Q 18.21875 71.875 27.875 71.875 
Q 38.484375 71.875 44.53125 66.15625 
Q 50.59375 60.453125 50.59375 51.953125 
Q 50.59375 47.125 48.859375 42.75 
Q 47.125 38.375 43.359375 33.59375 
Q 40.875 30.421875 34.375 24.453125 
Q 27.875 18.5 26.140625 16.546875 
Q 24.421875 14.59375 23.34375 12.75 
z
" id="Arial-BoldMT-50"/>
      </defs>
      <g style="fill:#262626;" transform="translate(55.52641 252.130391)scale(0.11 -0.11)">
       <use xlink:href="#Arial-BoldMT-50"/>
      </g>
     </g>
    </g>
    <g id="xtick_2">
     <g id="text_2">
      <!-- 4 -->
      <defs>
       <path d="M 31.15625 0 
L 31.15625 14.40625 
L 1.859375 14.40625 
L 1.859375 26.421875 
L 32.90625 71.875 
L 44.4375 71.875 
L 44.4375 26.46875 
L 53.328125 26.46875 
L 53.328125 14.40625 
L 44.4375 14.40625 
L 44.4375 0 
z
M 31.15625 26.46875 
L 31.15625 50.921875 
L 14.703125 26.46875 
z
" id="Arial-BoldMT-52"/>
      </defs>
      <g style="fill:#262626;" transform="translate(78.2522 252.130391)scale(0.11 -0.11)">
       <use xlink:href="#Arial-BoldMT-52"/>
      </g>
     </g>
    </g>
    <g id="xtick_3">
     <g id="text_3">
      <!-- 6 -->
      <defs>
       <path d="M 50.734375 54.046875 
L 37.453125 52.59375 
Q 36.96875 56.6875 34.90625 58.640625 
Q 32.859375 60.59375 29.59375 60.59375 
Q 25.25 60.59375 22.234375 56.6875 
Q 19.234375 52.78125 18.453125 40.4375 
Q 23.578125 46.484375 31.203125 46.484375 
Q 39.796875 46.484375 45.921875 39.9375 
Q 52.046875 33.40625 52.046875 23.046875 
Q 52.046875 12.0625 45.59375 5.421875 
Q 39.15625 -1.21875 29.046875 -1.21875 
Q 18.21875 -1.21875 11.234375 7.203125 
Q 4.25 15.625 4.25 34.8125 
Q 4.25 54.5 11.515625 63.1875 
Q 18.796875 71.875 30.421875 71.875 
Q 38.578125 71.875 43.921875 67.3125 
Q 49.265625 62.75 50.734375 54.046875 
z
M 19.625 24.125 
Q 19.625 17.4375 22.703125 13.796875 
Q 25.78125 10.15625 29.734375 10.15625 
Q 33.546875 10.15625 36.078125 13.125 
Q 38.625 16.109375 38.625 22.90625 
Q 38.625 29.890625 35.890625 33.125 
Q 33.15625 36.375 29.046875 36.375 
Q 25.09375 36.375 22.359375 33.265625 
Q 19.625 30.171875 19.625 24.125 
z
" id="Arial-BoldMT-54"/>
      </defs>
      <g style="fill:#262626;" transform="translate(100.977989 252.130391)scale(0.11 -0.11)">
       <use xlink:href="#Arial-BoldMT-54"/>
      </g>
     </g>
    </g>
    <g id="xtick_4">
     <g id="text_4">
      <!-- 8 -->
      <defs>
       <path d="M 16.015625 38.625 
Q 10.6875 40.875 8.265625 44.796875 
Q 5.859375 48.734375 5.859375 53.421875 
Q 5.859375 61.421875 11.453125 66.640625 
Q 17.046875 71.875 27.34375 71.875 
Q 37.546875 71.875 43.1875 66.640625 
Q 48.828125 61.421875 48.828125 53.421875 
Q 48.828125 48.4375 46.234375 44.546875 
Q 43.65625 40.671875 38.96875 38.625 
Q 44.921875 36.234375 48.015625 31.640625 
Q 51.125 27.046875 51.125 21.046875 
Q 51.125 11.140625 44.796875 4.9375 
Q 38.484375 -1.265625 27.984375 -1.265625 
Q 18.21875 -1.265625 11.71875 3.859375 
Q 4.046875 9.90625 4.046875 20.453125 
Q 4.046875 26.265625 6.921875 31.125 
Q 9.8125 35.984375 16.015625 38.625 
z
M 18.84375 52.4375 
Q 18.84375 48.34375 21.15625 46.046875 
Q 23.484375 43.75 27.34375 43.75 
Q 31.25 43.75 33.59375 46.0625 
Q 35.9375 48.390625 35.9375 52.484375 
Q 35.9375 56.34375 33.609375 58.65625 
Q 31.296875 60.984375 27.484375 60.984375 
Q 23.53125 60.984375 21.1875 58.640625 
Q 18.84375 56.296875 18.84375 52.4375 
z
M 17.578125 21.78125 
Q 17.578125 16.109375 20.484375 12.9375 
Q 23.390625 9.765625 27.734375 9.765625 
Q 31.984375 9.765625 34.765625 12.8125 
Q 37.546875 15.875 37.546875 21.625 
Q 37.546875 26.65625 34.71875 29.703125 
Q 31.890625 32.765625 27.546875 32.765625 
Q 22.515625 32.765625 20.046875 29.296875 
Q 17.578125 25.828125 17.578125 21.78125 
z
" id="Arial-BoldMT-56"/>
      </defs>
      <g style="fill:#262626;" transform="translate(123.703779 252.130391)scale(0.11 -0.11)">
       <use xlink:href="#Arial-BoldMT-56"/>
      </g>
     </g>
    </g>
    <g id="xtick_5">
     <g id="text_5">
      <!-- 10 -->
      <defs>
       <path d="M 39.359375 0 
L 25.640625 0 
L 25.640625 51.703125 
Q 18.109375 44.671875 7.90625 41.3125 
L 7.90625 53.765625 
Q 13.28125 55.515625 19.578125 60.421875 
Q 25.875 65.328125 28.21875 71.875 
L 39.359375 71.875 
z
" id="Arial-BoldMT-49"/>
       <path d="M 27.4375 71.875 
Q 37.84375 71.875 43.703125 64.453125 
Q 50.6875 55.671875 50.6875 35.296875 
Q 50.6875 14.984375 43.65625 6.109375 
Q 37.84375 -1.21875 27.4375 -1.21875 
Q 17 -1.21875 10.59375 6.8125 
Q 4.203125 14.84375 4.203125 35.453125 
Q 4.203125 55.671875 11.234375 64.546875 
Q 17.046875 71.875 27.4375 71.875 
z
M 27.4375 60.5 
Q 24.953125 60.5 23 58.90625 
Q 21.046875 57.328125 19.96875 53.21875 
Q 18.5625 47.90625 18.5625 35.296875 
Q 18.5625 22.703125 19.828125 17.984375 
Q 21.09375 13.28125 23.015625 11.71875 
Q 24.953125 10.15625 27.4375 10.15625 
Q 29.9375 10.15625 31.890625 11.734375 
Q 33.84375 13.328125 34.90625 17.4375 
Q 36.328125 22.703125 36.328125 35.296875 
Q 36.328125 47.90625 35.0625 52.609375 
Q 33.796875 57.328125 31.859375 58.90625 
Q 29.9375 60.5 27.4375 60.5 
z
" id="Arial-BoldMT-48"/>
      </defs>
      <g style="fill:#262626;" transform="translate(143.371053 252.130391)scale(0.11 -0.11)">
       <use xlink:href="#Arial-BoldMT-49"/>
       <use x="55.615234" xlink:href="#Arial-BoldMT-48"/>
      </g>
     </g>
    </g>
    <g id="xtick_6">
     <g id="text_6">
      <!-- 12 -->
      <g style="fill:#262626;" transform="translate(166.096842 252.130391)scale(0.11 -0.11)">
       <use xlink:href="#Arial-BoldMT-49"/>
       <use x="55.615234" xlink:href="#Arial-BoldMT-50"/>
      </g>
     </g>
    </g>
    <g id="xtick_7">
     <g id="text_7">
      <!-- 14 -->
      <g style="fill:#262626;" transform="translate(188.822632 252.130391)scale(0.11 -0.11)">
       <use xlink:href="#Arial-BoldMT-49"/>
       <use x="55.615234" xlink:href="#Arial-BoldMT-52"/>
      </g>
     </g>
    </g>
    <g id="xtick_8">
     <g id="text_8">
      <!-- 16 -->
      <g style="fill:#262626;" transform="translate(211.548421 252.130391)scale(0.11 -0.11)">
       <use xlink:href="#Arial-BoldMT-49"/>
       <use x="55.615234" xlink:href="#Arial-BoldMT-54"/>
      </g>
     </g>
    </g>
    <g id="xtick_9">
     <g id="text_9">
      <!-- 18 -->
      <g style="fill:#262626;" transform="translate(234.274211 252.130391)scale(0.11 -0.11)">
       <use xlink:href="#Arial-BoldMT-49"/>
       <use x="55.615234" xlink:href="#Arial-BoldMT-56"/>
      </g>
     </g>
    </g>
    <g id="xtick_10">
     <g id="text_10">
      <!-- 20 -->
      <g style="fill:#262626;" transform="translate(257 252.130391)scale(0.11 -0.11)">
       <use xlink:href="#Arial-BoldMT-50"/>
       <use x="55.615234" xlink:href="#Arial-BoldMT-48"/>
      </g>
     </g>
    </g>
    <g id="text_11">
     <!-- Hundreds of Thousands of Training Examples -->
     <defs>
      <path d="M 8.015625 0 
L 8.015625 71.578125 
L 17.484375 71.578125 
L 17.484375 42.1875 
L 54.6875 42.1875 
L 54.6875 71.578125 
L 64.15625 71.578125 
L 64.15625 0 
L 54.6875 0 
L 54.6875 33.734375 
L 17.484375 33.734375 
L 17.484375 0 
z
" id="ArialMT-72"/>
      <path d="M 40.578125 0 
L 40.578125 7.625 
Q 34.515625 -1.171875 24.125 -1.171875 
Q 19.53125 -1.171875 15.546875 0.578125 
Q 11.578125 2.34375 9.640625 5 
Q 7.71875 7.671875 6.9375 11.53125 
Q 6.390625 14.109375 6.390625 19.734375 
L 6.390625 51.859375 
L 15.1875 51.859375 
L 15.1875 23.09375 
Q 15.1875 16.21875 15.71875 13.8125 
Q 16.546875 10.359375 19.234375 8.375 
Q 21.921875 6.390625 25.875 6.390625 
Q 29.828125 6.390625 33.296875 8.421875 
Q 36.765625 10.453125 38.203125 13.9375 
Q 39.65625 17.4375 39.65625 24.078125 
L 39.65625 51.859375 
L 48.4375 51.859375 
L 48.4375 0 
z
" id="ArialMT-117"/>
      <path d="M 6.59375 0 
L 6.59375 51.859375 
L 14.5 51.859375 
L 14.5 44.484375 
Q 20.21875 53.03125 31 53.03125 
Q 35.6875 53.03125 39.625 51.34375 
Q 43.5625 49.65625 45.515625 46.921875 
Q 47.46875 44.1875 48.25 40.4375 
Q 48.734375 37.984375 48.734375 31.890625 
L 48.734375 0 
L 39.9375 0 
L 39.9375 31.546875 
Q 39.9375 36.921875 38.90625 39.578125 
Q 37.890625 42.234375 35.28125 43.8125 
Q 32.671875 45.40625 29.15625 45.40625 
Q 23.53125 45.40625 19.453125 41.84375 
Q 15.375 38.28125 15.375 28.328125 
L 15.375 0 
z
" id="ArialMT-110"/>
      <path d="M 40.234375 0 
L 40.234375 6.546875 
Q 35.296875 -1.171875 25.734375 -1.171875 
Q 19.53125 -1.171875 14.328125 2.25 
Q 9.125 5.671875 6.265625 11.796875 
Q 3.421875 17.921875 3.421875 25.875 
Q 3.421875 33.640625 6 39.96875 
Q 8.59375 46.296875 13.765625 49.65625 
Q 18.953125 53.03125 25.34375 53.03125 
Q 30.03125 53.03125 33.6875 51.046875 
Q 37.359375 49.078125 39.65625 45.90625 
L 39.65625 71.578125 
L 48.390625 71.578125 
L 48.390625 0 
z
M 12.453125 25.875 
Q 12.453125 15.921875 16.640625 10.984375 
Q 20.84375 6.0625 26.5625 6.0625 
Q 32.328125 6.0625 36.34375 10.765625 
Q 40.375 15.484375 40.375 25.140625 
Q 40.375 35.796875 36.265625 40.765625 
Q 32.171875 45.75 26.171875 45.75 
Q 20.3125 45.75 16.375 40.96875 
Q 12.453125 36.1875 12.453125 25.875 
z
" id="ArialMT-100"/>
      <path d="M 6.5 0 
L 6.5 51.859375 
L 14.40625 51.859375 
L 14.40625 44 
Q 17.4375 49.515625 20 51.265625 
Q 22.5625 53.03125 25.640625 53.03125 
Q 30.078125 53.03125 34.671875 50.203125 
L 31.640625 42.046875 
Q 28.421875 43.953125 25.203125 43.953125 
Q 22.3125 43.953125 20.015625 42.21875 
Q 17.71875 40.484375 16.75 37.40625 
Q 15.28125 32.71875 15.28125 27.15625 
L 15.28125 0 
z
" id="ArialMT-114"/>
      <path d="M 42.09375 16.703125 
L 51.171875 15.578125 
Q 49.03125 7.625 43.21875 3.21875 
Q 37.40625 -1.171875 28.375 -1.171875 
Q 17 -1.171875 10.328125 5.828125 
Q 3.65625 12.84375 3.65625 25.484375 
Q 3.65625 38.578125 10.390625 45.796875 
Q 17.140625 53.03125 27.875 53.03125 
Q 38.28125 53.03125 44.875 45.953125 
Q 51.46875 38.875 51.46875 26.03125 
Q 51.46875 25.25 51.421875 23.6875 
L 12.75 23.6875 
Q 13.234375 15.140625 17.578125 10.59375 
Q 21.921875 6.0625 28.421875 6.0625 
Q 33.25 6.0625 36.671875 8.59375 
Q 40.09375 11.140625 42.09375 16.703125 
z
M 13.234375 30.90625 
L 42.1875 30.90625 
Q 41.609375 37.453125 38.875 40.71875 
Q 34.671875 45.796875 27.984375 45.796875 
Q 21.921875 45.796875 17.796875 41.75 
Q 13.671875 37.703125 13.234375 30.90625 
z
" id="ArialMT-101"/>
      <path d="M 3.078125 15.484375 
L 11.765625 16.84375 
Q 12.5 11.625 15.84375 8.84375 
Q 19.1875 6.0625 25.203125 6.0625 
Q 31.25 6.0625 34.171875 8.515625 
Q 37.109375 10.984375 37.109375 14.3125 
Q 37.109375 17.28125 34.515625 19 
Q 32.71875 20.171875 25.53125 21.96875 
Q 15.875 24.421875 12.140625 26.203125 
Q 8.40625 27.984375 6.46875 31.125 
Q 4.546875 34.28125 4.546875 38.09375 
Q 4.546875 41.546875 6.125 44.5 
Q 7.71875 47.46875 10.453125 49.421875 
Q 12.5 50.921875 16.03125 51.96875 
Q 19.578125 53.03125 23.640625 53.03125 
Q 29.734375 53.03125 34.34375 51.265625 
Q 38.96875 49.515625 41.15625 46.5 
Q 43.359375 43.5 44.1875 38.484375 
L 35.59375 37.3125 
Q 35.015625 41.3125 32.203125 43.546875 
Q 29.390625 45.796875 24.265625 45.796875 
Q 18.21875 45.796875 15.625 43.796875 
Q 13.03125 41.796875 13.03125 39.109375 
Q 13.03125 37.40625 14.109375 36.03125 
Q 15.1875 34.625 17.484375 33.6875 
Q 18.796875 33.203125 25.25 31.453125 
Q 34.578125 28.953125 38.25 27.359375 
Q 41.9375 25.78125 44.03125 22.75 
Q 46.140625 19.734375 46.140625 15.234375 
Q 46.140625 10.84375 43.578125 6.953125 
Q 41.015625 3.078125 36.171875 0.953125 
Q 31.34375 -1.171875 25.25 -1.171875 
Q 15.140625 -1.171875 9.84375 3.03125 
Q 4.546875 7.234375 3.078125 15.484375 
z
" id="ArialMT-115"/>
      <path id="ArialMT-32"/>
      <path d="M 3.328125 25.921875 
Q 3.328125 40.328125 11.328125 47.265625 
Q 18.015625 53.03125 27.640625 53.03125 
Q 38.328125 53.03125 45.109375 46.015625 
Q 51.90625 39.015625 51.90625 26.65625 
Q 51.90625 16.65625 48.90625 10.90625 
Q 45.90625 5.171875 40.15625 2 
Q 34.421875 -1.171875 27.640625 -1.171875 
Q 16.75 -1.171875 10.03125 5.8125 
Q 3.328125 12.796875 3.328125 25.921875 
z
M 12.359375 25.921875 
Q 12.359375 15.96875 16.703125 11.015625 
Q 21.046875 6.0625 27.640625 6.0625 
Q 34.1875 6.0625 38.53125 11.03125 
Q 42.875 16.015625 42.875 26.21875 
Q 42.875 35.84375 38.5 40.796875 
Q 34.125 45.75 27.640625 45.75 
Q 21.046875 45.75 16.703125 40.8125 
Q 12.359375 35.890625 12.359375 25.921875 
z
" id="ArialMT-111"/>
      <path d="M 8.6875 0 
L 8.6875 45.015625 
L 0.921875 45.015625 
L 0.921875 51.859375 
L 8.6875 51.859375 
L 8.6875 57.375 
Q 8.6875 62.59375 9.625 65.140625 
Q 10.890625 68.5625 14.078125 70.671875 
Q 17.28125 72.796875 23.046875 72.796875 
Q 26.765625 72.796875 31.25 71.921875 
L 29.9375 64.265625 
Q 27.203125 64.75 24.75 64.75 
Q 20.75 64.75 19.09375 63.03125 
Q 17.4375 61.328125 17.4375 56.640625 
L 17.4375 51.859375 
L 27.546875 51.859375 
L 27.546875 45.015625 
L 17.4375 45.015625 
L 17.4375 0 
z
" id="ArialMT-102"/>
      <path d="M 25.921875 0 
L 25.921875 63.140625 
L 2.34375 63.140625 
L 2.34375 71.578125 
L 59.078125 71.578125 
L 59.078125 63.140625 
L 35.40625 63.140625 
L 35.40625 0 
z
" id="ArialMT-84"/>
      <path d="M 6.59375 0 
L 6.59375 71.578125 
L 15.375 71.578125 
L 15.375 45.90625 
Q 21.53125 53.03125 30.90625 53.03125 
Q 36.671875 53.03125 40.921875 50.75 
Q 45.171875 48.484375 47 44.484375 
Q 48.828125 40.484375 48.828125 32.859375 
L 48.828125 0 
L 40.046875 0 
L 40.046875 32.859375 
Q 40.046875 39.453125 37.1875 42.453125 
Q 34.328125 45.453125 29.109375 45.453125 
Q 25.203125 45.453125 21.75 43.421875 
Q 18.3125 41.40625 16.84375 37.9375 
Q 15.375 34.46875 15.375 28.375 
L 15.375 0 
z
" id="ArialMT-104"/>
      <path d="M 40.4375 6.390625 
Q 35.546875 2.25 31.03125 0.53125 
Q 26.515625 -1.171875 21.34375 -1.171875 
Q 12.796875 -1.171875 8.203125 3 
Q 3.609375 7.171875 3.609375 13.671875 
Q 3.609375 17.484375 5.34375 20.625 
Q 7.078125 23.78125 9.890625 25.6875 
Q 12.703125 27.59375 16.21875 28.5625 
Q 18.796875 29.25 24.03125 29.890625 
Q 34.671875 31.15625 39.703125 32.90625 
Q 39.75 34.71875 39.75 35.203125 
Q 39.75 40.578125 37.25 42.78125 
Q 33.890625 45.75 27.25 45.75 
Q 21.046875 45.75 18.09375 43.578125 
Q 15.140625 41.40625 13.71875 35.890625 
L 5.125 37.0625 
Q 6.296875 42.578125 8.984375 45.96875 
Q 11.671875 49.359375 16.75 51.1875 
Q 21.828125 53.03125 28.515625 53.03125 
Q 35.15625 53.03125 39.296875 51.46875 
Q 43.453125 49.90625 45.40625 47.53125 
Q 47.359375 45.171875 48.140625 41.546875 
Q 48.578125 39.3125 48.578125 33.453125 
L 48.578125 21.734375 
Q 48.578125 9.46875 49.140625 6.21875 
Q 49.703125 2.984375 51.375 0 
L 42.1875 0 
Q 40.828125 2.734375 40.4375 6.390625 
z
M 39.703125 26.03125 
Q 34.90625 24.078125 25.34375 22.703125 
Q 19.921875 21.921875 17.671875 20.9375 
Q 15.4375 19.96875 14.203125 18.09375 
Q 12.984375 16.21875 12.984375 13.921875 
Q 12.984375 10.40625 15.640625 8.0625 
Q 18.3125 5.71875 23.4375 5.71875 
Q 28.515625 5.71875 32.46875 7.9375 
Q 36.421875 10.15625 38.28125 14.015625 
Q 39.703125 17 39.703125 22.796875 
z
" id="ArialMT-97"/>
      <path d="M 6.640625 61.46875 
L 6.640625 71.578125 
L 15.4375 71.578125 
L 15.4375 61.46875 
z
M 6.640625 0 
L 6.640625 51.859375 
L 15.4375 51.859375 
L 15.4375 0 
z
" id="ArialMT-105"/>
      <path d="M 4.984375 -4.296875 
L 13.53125 -5.5625 
Q 14.0625 -9.515625 16.5 -11.328125 
Q 19.78125 -13.765625 25.4375 -13.765625 
Q 31.546875 -13.765625 34.859375 -11.328125 
Q 38.1875 -8.890625 39.359375 -4.5 
Q 40.046875 -1.8125 39.984375 6.78125 
Q 34.234375 0 25.640625 0 
Q 14.9375 0 9.078125 7.71875 
Q 3.21875 15.4375 3.21875 26.21875 
Q 3.21875 33.640625 5.90625 39.90625 
Q 8.59375 46.1875 13.6875 49.609375 
Q 18.796875 53.03125 25.6875 53.03125 
Q 34.859375 53.03125 40.828125 45.609375 
L 40.828125 51.859375 
L 48.921875 51.859375 
L 48.921875 7.03125 
Q 48.921875 -5.078125 46.453125 -10.125 
Q 44 -15.1875 38.640625 -18.109375 
Q 33.296875 -21.046875 25.484375 -21.046875 
Q 16.21875 -21.046875 10.5 -16.875 
Q 4.78125 -12.703125 4.984375 -4.296875 
z
M 12.25 26.859375 
Q 12.25 16.65625 16.296875 11.96875 
Q 20.359375 7.28125 26.46875 7.28125 
Q 32.515625 7.28125 36.609375 11.9375 
Q 40.71875 16.609375 40.71875 26.5625 
Q 40.71875 36.078125 36.5 40.90625 
Q 32.28125 45.75 26.3125 45.75 
Q 20.453125 45.75 16.34375 40.984375 
Q 12.25 36.234375 12.25 26.859375 
z
" id="ArialMT-103"/>
      <path d="M 7.90625 0 
L 7.90625 71.578125 
L 59.671875 71.578125 
L 59.671875 63.140625 
L 17.390625 63.140625 
L 17.390625 41.21875 
L 56.984375 41.21875 
L 56.984375 32.8125 
L 17.390625 32.8125 
L 17.390625 8.453125 
L 61.328125 8.453125 
L 61.328125 0 
z
" id="ArialMT-69"/>
      <path d="M 0.734375 0 
L 19.671875 26.953125 
L 2.15625 51.859375 
L 13.140625 51.859375 
L 21.09375 39.703125 
Q 23.34375 36.234375 24.703125 33.890625 
Q 26.859375 37.109375 28.65625 39.59375 
L 37.40625 51.859375 
L 47.90625 51.859375 
L 29.984375 27.4375 
L 49.265625 0 
L 38.484375 0 
L 27.828125 16.109375 
L 25 20.453125 
L 11.375 0 
z
" id="ArialMT-120"/>
      <path d="M 6.59375 0 
L 6.59375 51.859375 
L 14.453125 51.859375 
L 14.453125 44.578125 
Q 16.890625 48.390625 20.9375 50.703125 
Q 25 53.03125 30.171875 53.03125 
Q 35.9375 53.03125 39.625 50.640625 
Q 43.3125 48.25 44.828125 43.953125 
Q 50.984375 53.03125 60.84375 53.03125 
Q 68.5625 53.03125 72.703125 48.75 
Q 76.859375 44.484375 76.859375 35.59375 
L 76.859375 0 
L 68.109375 0 
L 68.109375 32.671875 
Q 68.109375 37.9375 67.25 40.25 
Q 66.40625 42.578125 64.15625 43.984375 
Q 61.921875 45.40625 58.890625 45.40625 
Q 53.421875 45.40625 49.796875 41.765625 
Q 46.1875 38.140625 46.1875 30.125 
L 46.1875 0 
L 37.40625 0 
L 37.40625 33.6875 
Q 37.40625 39.546875 35.25 42.46875 
Q 33.109375 45.40625 28.21875 45.40625 
Q 24.515625 45.40625 21.359375 43.453125 
Q 18.21875 41.5 16.796875 37.734375 
Q 15.375 33.984375 15.375 26.90625 
L 15.375 0 
z
" id="ArialMT-109"/>
      <path d="M 6.59375 -19.875 
L 6.59375 51.859375 
L 14.59375 51.859375 
L 14.59375 45.125 
Q 17.4375 49.078125 21 51.046875 
Q 24.5625 53.03125 29.640625 53.03125 
Q 36.28125 53.03125 41.359375 49.609375 
Q 46.4375 46.1875 49.015625 39.953125 
Q 51.609375 33.734375 51.609375 26.3125 
Q 51.609375 18.359375 48.75 11.984375 
Q 45.90625 5.609375 40.453125 2.21875 
Q 35.015625 -1.171875 29 -1.171875 
Q 24.609375 -1.171875 21.109375 0.6875 
Q 17.625 2.546875 15.375 5.375 
L 15.375 -19.875 
z
M 14.546875 25.640625 
Q 14.546875 15.625 18.59375 10.84375 
Q 22.65625 6.0625 28.421875 6.0625 
Q 34.28125 6.0625 38.453125 11.015625 
Q 42.625 15.96875 42.625 26.375 
Q 42.625 36.28125 38.546875 41.203125 
Q 34.46875 46.140625 28.8125 46.140625 
Q 23.1875 46.140625 18.859375 40.890625 
Q 14.546875 35.640625 14.546875 25.640625 
z
" id="ArialMT-112"/>
      <path d="M 6.390625 0 
L 6.390625 71.578125 
L 15.1875 71.578125 
L 15.1875 0 
z
" id="ArialMT-108"/>
     </defs>
     <g style="fill:#262626;" transform="translate(33.117344 267.036797)scale(0.12 -0.12)">
      <use xlink:href="#ArialMT-72"/>
      <use x="72.216797" xlink:href="#ArialMT-117"/>
      <use x="127.832031" xlink:href="#ArialMT-110"/>
      <use x="183.447266" xlink:href="#ArialMT-100"/>
      <use x="239.0625" xlink:href="#ArialMT-114"/>
      <use x="272.363281" xlink:href="#ArialMT-101"/>
      <use x="327.978516" xlink:href="#ArialMT-100"/>
      <use x="383.59375" xlink:href="#ArialMT-115"/>
      <use x="433.59375" xlink:href="#ArialMT-32"/>
      <use x="461.376953" xlink:href="#ArialMT-111"/>
      <use x="516.992188" xlink:href="#ArialMT-102"/>
      <use x="544.775391" xlink:href="#ArialMT-32"/>
      <use x="572.542969" xlink:href="#ArialMT-84"/>
      <use x="633.626953" xlink:href="#ArialMT-104"/>
      <use x="689.242188" xlink:href="#ArialMT-111"/>
      <use x="744.857422" xlink:href="#ArialMT-117"/>
      <use x="800.472656" xlink:href="#ArialMT-115"/>
      <use x="850.472656" xlink:href="#ArialMT-97"/>
      <use x="906.087891" xlink:href="#ArialMT-110"/>
      <use x="961.703125" xlink:href="#ArialMT-100"/>
      <use x="1017.318359" xlink:href="#ArialMT-115"/>
      <use x="1067.318359" xlink:href="#ArialMT-32"/>
      <use x="1095.101562" xlink:href="#ArialMT-111"/>
      <use x="1150.716797" xlink:href="#ArialMT-102"/>
      <use x="1178.5" xlink:href="#ArialMT-32"/>
      <use x="1206.267578" xlink:href="#ArialMT-84"/>
      <use x="1267.304688" xlink:href="#ArialMT-114"/>
      <use x="1300.605469" xlink:href="#ArialMT-97"/>
      <use x="1356.220703" xlink:href="#ArialMT-105"/>
      <use x="1378.4375" xlink:href="#ArialMT-110"/>
      <use x="1434.052734" xlink:href="#ArialMT-105"/>
      <use x="1456.269531" xlink:href="#ArialMT-110"/>
      <use x="1511.884766" xlink:href="#ArialMT-103"/>
      <use x="1567.5" xlink:href="#ArialMT-32"/>
      <use x="1595.283203" xlink:href="#ArialMT-69"/>
      <use x="1661.982422" xlink:href="#ArialMT-120"/>
      <use x="1711.982422" xlink:href="#ArialMT-97"/>
      <use x="1767.597656" xlink:href="#ArialMT-109"/>
      <use x="1850.898438" xlink:href="#ArialMT-112"/>
      <use x="1906.513672" xlink:href="#ArialMT-108"/>
      <use x="1928.730469" xlink:href="#ArialMT-101"/>
      <use x="1984.345703" xlink:href="#ArialMT-115"/>
     </g>
    </g>
   </g>
   <g id="matplotlib.axis_2">
    <g id="ytick_1">
     <g id="text_12">
      <!-- 0.70 -->
      <defs>
       <path d="M 7.171875 0 
L 7.171875 13.71875 
L 20.90625 13.71875 
L 20.90625 0 
z
" id="Arial-BoldMT-46"/>
       <path d="M 4.25 57.859375 
L 4.25 70.609375 
L 51.171875 70.609375 
L 51.171875 60.640625 
Q 45.359375 54.9375 39.34375 44.234375 
Q 33.34375 33.546875 30.1875 21.5 
Q 27.046875 9.46875 27.09375 0 
L 13.875 0 
Q 14.203125 14.84375 19.984375 30.265625 
Q 25.78125 45.703125 35.453125 57.859375 
z
" id="Arial-BoldMT-55"/>
      </defs>
      <g style="fill:#262626;" transform="translate(22.315 244.693594)scale(0.11 -0.11)">
       <use xlink:href="#Arial-BoldMT-48"/>
       <use x="55.615234" xlink:href="#Arial-BoldMT-46"/>
       <use x="83.398438" xlink:href="#Arial-BoldMT-55"/>
       <use x="139.013672" xlink:href="#Arial-BoldMT-48"/>
      </g>
     </g>
    </g>
    <g id="ytick_2">
     <g id="text_13">
      <!-- 0.75 -->
      <defs>
       <path d="M 4.4375 18.40625 
L 18.109375 19.828125 
Q 18.703125 15.1875 21.578125 12.46875 
Q 24.46875 9.765625 28.21875 9.765625 
Q 32.515625 9.765625 35.5 13.25 
Q 38.484375 16.75 38.484375 23.78125 
Q 38.484375 30.375 35.515625 33.671875 
Q 32.5625 36.96875 27.828125 36.96875 
Q 21.921875 36.96875 17.234375 31.734375 
L 6.109375 33.34375 
L 13.140625 70.609375 
L 49.421875 70.609375 
L 49.421875 57.765625 
L 23.53125 57.765625 
L 21.390625 45.609375 
Q 25.984375 47.90625 30.765625 47.90625 
Q 39.890625 47.90625 46.234375 41.265625 
Q 52.59375 34.625 52.59375 24.03125 
Q 52.59375 15.1875 47.46875 8.25 
Q 40.484375 -1.21875 28.078125 -1.21875 
Q 18.171875 -1.21875 11.921875 4.09375 
Q 5.671875 9.421875 4.4375 18.40625 
z
" id="Arial-BoldMT-53"/>
      </defs>
      <g style="fill:#262626;" transform="translate(22.315 206.423594)scale(0.11 -0.11)">
       <use xlink:href="#Arial-BoldMT-48"/>
       <use x="55.615234" xlink:href="#Arial-BoldMT-46"/>
       <use x="83.398438" xlink:href="#Arial-BoldMT-55"/>
       <use x="139.013672" xlink:href="#Arial-BoldMT-53"/>
      </g>
     </g>
    </g>
    <g id="ytick_3">
     <g id="text_14">
      <!-- 0.80 -->
      <g style="fill:#262626;" transform="translate(22.315 168.153594)scale(0.11 -0.11)">
       <use xlink:href="#Arial-BoldMT-48"/>
       <use x="55.615234" xlink:href="#Arial-BoldMT-46"/>
       <use x="83.398438" xlink:href="#Arial-BoldMT-56"/>
       <use x="139.013672" xlink:href="#Arial-BoldMT-48"/>
      </g>
     </g>
    </g>
    <g id="ytick_4">
     <g id="text_15">
      <!-- 0.85 -->
      <g style="fill:#262626;" transform="translate(22.315 129.883594)scale(0.11 -0.11)">
       <use xlink:href="#Arial-BoldMT-48"/>
       <use x="55.615234" xlink:href="#Arial-BoldMT-46"/>
       <use x="83.398438" xlink:href="#Arial-BoldMT-56"/>
       <use x="139.013672" xlink:href="#Arial-BoldMT-53"/>
      </g>
     </g>
    </g>
    <g id="ytick_5">
     <g id="text_16">
      <!-- 0.90 -->
      <defs>
       <path d="M 4.546875 16.546875 
L 17.828125 18.015625 
Q 18.3125 13.96875 20.359375 12.015625 
Q 22.40625 10.0625 25.78125 10.0625 
Q 30.03125 10.0625 33 13.96875 
Q 35.984375 17.875 36.8125 30.171875 
Q 31.640625 24.171875 23.875 24.171875 
Q 15.4375 24.171875 9.296875 30.6875 
Q 3.171875 37.203125 3.171875 47.65625 
Q 3.171875 58.546875 9.640625 65.203125 
Q 16.109375 71.875 26.125 71.875 
Q 37.015625 71.875 44 63.453125 
Q 50.984375 55.03125 50.984375 35.75 
Q 50.984375 16.109375 43.703125 7.421875 
Q 36.421875 -1.265625 24.75 -1.265625 
Q 16.359375 -1.265625 11.171875 3.203125 
Q 6 7.671875 4.546875 16.546875 
z
M 35.59375 46.53125 
Q 35.59375 53.171875 32.546875 56.828125 
Q 29.5 60.5 25.484375 60.5 
Q 21.6875 60.5 19.171875 57.5 
Q 16.65625 54.5 16.65625 47.65625 
Q 16.65625 40.71875 19.390625 37.46875 
Q 22.125 34.234375 26.21875 34.234375 
Q 30.171875 34.234375 32.875 37.359375 
Q 35.59375 40.484375 35.59375 46.53125 
z
" id="Arial-BoldMT-57"/>
      </defs>
      <g style="fill:#262626;" transform="translate(22.315 91.613594)scale(0.11 -0.11)">
       <use xlink:href="#Arial-BoldMT-48"/>
       <use x="55.615234" xlink:href="#Arial-BoldMT-46"/>
       <use x="83.398438" xlink:href="#Arial-BoldMT-57"/>
       <use x="139.013672" xlink:href="#Arial-BoldMT-48"/>
      </g>
     </g>
    </g>
    <g id="ytick_6">
     <g id="text_17">
      <!-- 0.95 -->
      <g style="fill:#262626;" transform="translate(22.315 53.343594)scale(0.11 -0.11)">
       <use xlink:href="#Arial-BoldMT-48"/>
       <use x="55.615234" xlink:href="#Arial-BoldMT-46"/>
       <use x="83.398438" xlink:href="#Arial-BoldMT-57"/>
       <use x="139.013672" xlink:href="#Arial-BoldMT-53"/>
      </g>
     </g>
    </g>
    <g id="ytick_7">
     <g id="text_18">
      <!-- 1.00 -->
      <g style="fill:#262626;" transform="translate(22.315 15.073594)scale(0.11 -0.11)">
       <use xlink:href="#Arial-BoldMT-49"/>
       <use x="55.615234" xlink:href="#Arial-BoldMT-46"/>
       <use x="83.398438" xlink:href="#Arial-BoldMT-48"/>
       <use x="139.013672" xlink:href="#Arial-BoldMT-48"/>
      </g>
     </g>
    </g>
    <g id="text_19">
     <!-- Accuracy -->
     <defs>
      <path d="M -0.140625 0 
L 27.34375 71.578125 
L 37.546875 71.578125 
L 66.84375 0 
L 56.0625 0 
L 47.703125 21.6875 
L 17.78125 21.6875 
L 9.90625 0 
z
M 20.515625 29.390625 
L 44.78125 29.390625 
L 37.3125 49.21875 
Q 33.890625 58.25 32.234375 64.0625 
Q 30.859375 57.171875 28.375 50.390625 
z
" id="ArialMT-65"/>
      <path d="M 40.4375 19 
L 49.078125 17.875 
Q 47.65625 8.9375 41.8125 3.875 
Q 35.984375 -1.171875 27.484375 -1.171875 
Q 16.84375 -1.171875 10.375 5.78125 
Q 3.90625 12.75 3.90625 25.734375 
Q 3.90625 34.125 6.6875 40.421875 
Q 9.46875 46.734375 15.15625 49.875 
Q 20.84375 53.03125 27.546875 53.03125 
Q 35.984375 53.03125 41.359375 48.75 
Q 46.734375 44.484375 48.25 36.625 
L 39.703125 35.296875 
Q 38.484375 40.53125 35.375 43.15625 
Q 32.28125 45.796875 27.875 45.796875 
Q 21.234375 45.796875 17.078125 41.03125 
Q 12.9375 36.28125 12.9375 25.984375 
Q 12.9375 15.53125 16.9375 10.796875 
Q 20.953125 6.0625 27.390625 6.0625 
Q 32.5625 6.0625 36.03125 9.234375 
Q 39.5 12.40625 40.4375 19 
z
" id="ArialMT-99"/>
      <path d="M 6.203125 -19.96875 
L 5.21875 -11.71875 
Q 8.109375 -12.5 10.25 -12.5 
Q 13.1875 -12.5 14.9375 -11.515625 
Q 16.703125 -10.546875 17.828125 -8.796875 
Q 18.65625 -7.46875 20.515625 -2.25 
Q 20.75 -1.515625 21.296875 -0.09375 
L 1.609375 51.859375 
L 11.078125 51.859375 
L 21.875 21.828125 
Q 23.96875 16.109375 25.640625 9.8125 
Q 27.15625 15.875 29.25 21.625 
L 40.328125 51.859375 
L 49.125 51.859375 
L 29.390625 -0.875 
Q 26.21875 -9.421875 24.46875 -12.640625 
Q 22.125 -17 19.09375 -19.015625 
Q 16.0625 -21.046875 11.859375 -21.046875 
Q 9.328125 -21.046875 6.203125 -19.96875 
z
" id="ArialMT-121"/>
     </defs>
     <g style="fill:#262626;" transform="translate(15.789375 150.619922)rotate(-90)scale(0.12 -0.12)">
      <use xlink:href="#ArialMT-65"/>
      <use x="66.699219" xlink:href="#ArialMT-99"/>
      <use x="116.699219" xlink:href="#ArialMT-99"/>
      <use x="166.699219" xlink:href="#ArialMT-117"/>
      <use x="222.314453" xlink:href="#ArialMT-114"/>
      <use x="255.615234" xlink:href="#ArialMT-97"/>
      <use x="311.230469" xlink:href="#ArialMT-99"/>
      <use x="361.230469" xlink:href="#ArialMT-121"/>
     </g>
    </g>
   </g>
   <g id="line2d_1">
    <path clip-path="url(#p529dbbbbcc)" d="M 47.222031 235.619605 
L 58.584926 231.126954 
L 69.947821 233.009221 
L 81.310715 238.72503 
L 92.67361 231.702362 
L 104.036505 229.832563 
L 115.3994 228.001776 
L 126.762294 227.327113 
L 138.125189 226.215431 
L 149.488084 225.883841 
L 160.850979 209.455887 
L 172.213873 203.843036 
L 183.576768 200.28047 
L 194.939663 194.48849 
L 206.302558 188.627749 
L 217.665452 102.171003 
L 229.028347 78.40447 
L 240.391242 62.671673 
L 251.754137 51.412886 
L 263.117031 48.483996 
" style="fill:none;stroke:#1f77b4;stroke-dasharray:7.4,3.2;stroke-dashoffset:0;stroke-width:2;"/>
   </g>
   <g id="line2d_2">
    <path clip-path="url(#p529dbbbbcc)" d="M 47.222031 235.676269 
L 58.584926 232.631335 
L 69.947821 233.632651 
L 81.310715 237.643718 
L 92.67361 231.228184 
L 104.036505 230.033913 
L 115.3994 228.524347 
L 126.762294 227.814994 
L 138.125189 226.799975 
L 149.488084 226.401349 
L 160.850979 196.622845 
L 172.213873 195.679181 
L 183.576768 196.013859 
L 194.939663 195.610419 
L 206.302558 195.303641 
L 217.665452 161.785417 
L 229.028347 162.735625 
L 240.391242 162.706737 
L 251.754137 162.684145 
L 263.117031 162.561064 
" style="fill:none;stroke:#1f77b4;stroke-linecap:round;stroke-width:2;"/>
   </g>
   <g id="line2d_3">
    <path clip-path="url(#p529dbbbbcc)" d="M 47.222031 246.870985 
L 58.584926 243.615319 
L 69.947821 246.018181 
L 81.310715 235.121848 
L 92.67361 234.77285 
L 104.036505 233.888073 
L 115.3994 232.74775 
L 126.762294 232.791699 
L 138.125189 232.422455 
L 149.488084 229.273451 
L 160.850979 214.714679 
L 172.213873 207.663617 
L 183.576768 202.342235 
L 194.939663 198.659426 
L 206.302558 195.338825 
L 217.665452 130.170694 
L 229.028347 117.200744 
L 240.391242 104.719415 
L 251.754137 89.550792 
L 263.117031 82.89206 
" style="fill:none;stroke:#ff7f0e;stroke-dasharray:7.4,3.2;stroke-dashoffset:0;stroke-width:2;"/>
   </g>
   <g id="line2d_4">
    <path clip-path="url(#p529dbbbbcc)" d="M 47.222031 236.9056 
L 58.584926 228.697549 
L 69.947821 235.547139 
L 81.310715 233.66339 
L 92.67361 233.679933 
L 104.036505 233.069835 
L 115.3994 232.172837 
L 126.762294 232.065063 
L 138.125189 232.69269 
L 149.488084 230.714132 
L 160.850979 200.096403 
L 172.213873 199.584326 
L 183.576768 198.96966 
L 194.939663 198.424992 
L 206.302558 198.243888 
L 217.665452 160.491892 
L 229.028347 158.354944 
L 240.391242 157.492388 
L 251.754137 157.190178 
L 263.117031 156.494158 
" style="fill:none;stroke:#ff7f0e;stroke-linecap:round;stroke-width:2;"/>
   </g>
   <g id="line2d_5">
    <path clip-path="url(#p529dbbbbcc)" d="M 47.222031 234.563106 
L 58.584926 185.740585 
L 69.947821 134.124108 
L 81.310715 109.779574 
L 92.67361 95.052043 
L 104.036505 84.188919 
L 115.3994 75.016463 
L 126.762294 68.779194 
L 138.125189 62.842407 
L 149.488084 57.410042 
L 160.850979 41.438119 
L 172.213873 39.474251 
L 183.576768 39.2829 
L 194.939663 38.205045 
L 206.302558 37.306687 
L 217.665452 13.190911 
L 229.028347 14.050009 
L 240.391242 16.116957 
L 251.754137 15.978074 
L 263.117031 21.359207 
" style="fill:none;stroke:#2ca02c;stroke-dasharray:7.4,3.2;stroke-dashoffset:0;stroke-width:2;"/>
   </g>
   <g id="line2d_6">
    <path clip-path="url(#p529dbbbbcc)" d="M 47.222031 233.660551 
L 58.584926 177.350196 
L 69.947821 144.196649 
L 81.310715 127.871037 
L 92.67361 109.184907 
L 104.036505 98.069571 
L 115.3994 88.610585 
L 126.762294 80.335006 
L 138.125189 74.331307 
L 149.488084 68.447233 
L 160.850979 43.657902 
L 172.213873 44.380712 
L 183.576768 47.240715 
L 194.939663 46.108787 
L 206.302558 43.950112 
L 217.665452 12.0454 
L 229.028347 13.91952 
L 240.391242 12.983756 
L 251.754137 12.41378 
L 263.117031 13.005114 
" style="fill:none;stroke:#2ca02c;stroke-linecap:round;stroke-width:2;"/>
   </g>
   <g id="line2d_7">
    <path clip-path="url(#p529dbbbbcc)" d="M 149.488084 277.762422 
L 149.488084 -1 
" style="fill:none;stroke:#7f7f7f;stroke-dasharray:2,3.3;stroke-dashoffset:0;stroke-width:2;"/>
   </g>
   <g id="line2d_8">
    <path clip-path="url(#p529dbbbbcc)" d="M 206.302558 277.762422 
L 206.302558 -1 
" style="fill:none;stroke:#7f7f7f;stroke-dasharray:2,3.3;stroke-dashoffset:0;stroke-width:2;"/>
   </g>
   <g id="patch_3">
    <path d="M 47.222031 240.756797 
L 47.222031 11.136797 
" style="fill:none;stroke:#262626;stroke-linecap:square;stroke-linejoin:miter;stroke-width:1.25;"/>
   </g>
   <g id="patch_4">
    <path d="M 263.117031 240.756797 
L 263.117031 11.136797 
" style="fill:none;stroke:#262626;stroke-linecap:square;stroke-linejoin:miter;stroke-width:1.25;"/>
   </g>
   <g id="patch_5">
    <path d="M 47.222031 240.756797 
L 263.117031 240.756797 
" style="fill:none;stroke:#262626;stroke-linecap:square;stroke-linejoin:miter;stroke-width:1.25;"/>
   </g>
   <g id="patch_6">
    <path d="M 47.222031 11.136797 
L 263.117031 11.136797 
" style="fill:none;stroke:#262626;stroke-linecap:square;stroke-linejoin:miter;stroke-width:1.25;"/>
   </g>
   <g id="legend_1">
    <g id="patch_7">
     <path d="M 52.822031 85.366797 
L 128.192031 85.366797 
Q 129.792031 85.366797 129.792031 83.766797 
L 129.792031 16.736797 
Q 129.792031 15.136797 128.192031 15.136797 
L 52.822031 15.136797 
Q 51.222031 15.136797 51.222031 16.736797 
L 51.222031 83.766797 
Q 51.222031 85.366797 52.822031 85.366797 
z
" style="fill:#ffffff;opacity:0.8;stroke:#cccccc;stroke-linejoin:miter;"/>
    </g>
    <g id="line2d_9">
     <path d="M 54.422031 21.263047 
L 70.422031 21.263047 
" style="fill:none;stroke:#1f77b4;stroke-dasharray:7.4,3.2;stroke-dashoffset:0;stroke-width:2;"/>
    </g>
    <g id="line2d_10"/>
    <g id="text_20">
     <!-- Gen 1: Anion -->
     <defs>
      <path d="M 40.578125 26.3125 
L 40.578125 38.375 
L 71.734375 38.375 
L 71.734375 9.859375 
Q 67.1875 5.46875 58.5625 2.125 
Q 49.953125 -1.21875 41.109375 -1.21875 
Q 29.890625 -1.21875 21.53125 3.484375 
Q 13.1875 8.203125 8.984375 16.96875 
Q 4.78125 25.734375 4.78125 36.03125 
Q 4.78125 47.21875 9.46875 55.90625 
Q 14.15625 64.59375 23.1875 69.234375 
Q 30.078125 72.796875 40.328125 72.796875 
Q 53.65625 72.796875 61.15625 67.203125 
Q 68.65625 61.625 70.796875 51.765625 
L 56.453125 49.078125 
Q 54.9375 54.34375 50.75 57.390625 
Q 46.578125 60.453125 40.328125 60.453125 
Q 30.859375 60.453125 25.265625 54.4375 
Q 19.671875 48.4375 19.671875 36.625 
Q 19.671875 23.875 25.328125 17.5 
Q 31 11.140625 40.1875 11.140625 
Q 44.734375 11.140625 49.296875 12.921875 
Q 53.859375 14.703125 57.125 17.234375 
L 57.125 26.3125 
z
" id="Arial-BoldMT-71"/>
      <path d="M 37.203125 16.5 
L 50.875 14.203125 
Q 48.25 6.6875 42.546875 2.75 
Q 36.859375 -1.171875 28.328125 -1.171875 
Q 14.796875 -1.171875 8.296875 7.671875 
Q 3.171875 14.75 3.171875 25.53125 
Q 3.171875 38.421875 9.90625 45.71875 
Q 16.65625 53.03125 26.953125 53.03125 
Q 38.53125 53.03125 45.21875 45.390625 
Q 51.90625 37.75 51.609375 21.96875 
L 17.234375 21.96875 
Q 17.390625 15.875 20.5625 12.46875 
Q 23.734375 9.078125 28.46875 9.078125 
Q 31.6875 9.078125 33.875 10.828125 
Q 36.078125 12.59375 37.203125 16.5 
z
M 37.984375 30.375 
Q 37.84375 36.328125 34.90625 39.421875 
Q 31.984375 42.53125 27.78125 42.53125 
Q 23.296875 42.53125 20.359375 39.265625 
Q 17.4375 35.984375 17.484375 30.375 
z
" id="Arial-BoldMT-101"/>
      <path d="M 54.34375 0 
L 40.625 0 
L 40.625 26.46875 
Q 40.625 34.859375 39.75 37.328125 
Q 38.875 39.796875 36.890625 41.15625 
Q 34.90625 42.53125 32.125 42.53125 
Q 28.5625 42.53125 25.734375 40.578125 
Q 22.90625 38.625 21.84375 35.390625 
Q 20.796875 32.171875 20.796875 23.484375 
L 20.796875 0 
L 7.078125 0 
L 7.078125 51.859375 
L 19.828125 51.859375 
L 19.828125 44.234375 
Q 26.609375 53.03125 36.921875 53.03125 
Q 41.453125 53.03125 45.203125 51.390625 
Q 48.96875 49.75 50.890625 47.203125 
Q 52.828125 44.671875 53.578125 41.453125 
Q 54.34375 38.234375 54.34375 32.234375 
z
" id="Arial-BoldMT-110"/>
      <path id="Arial-BoldMT-32"/>
      <path d="M 9.8125 38.140625 
L 9.8125 51.859375 
L 23.53125 51.859375 
L 23.53125 38.140625 
z
M 9.8125 0 
L 9.8125 13.71875 
L 23.53125 13.71875 
L 23.53125 0 
z
" id="Arial-BoldMT-58"/>
      <path d="M 71.828125 0 
L 56.109375 0 
L 49.859375 16.265625 
L 21.234375 16.265625 
L 15.328125 0 
L 0 0 
L 27.875 71.578125 
L 43.171875 71.578125 
z
M 45.21875 28.328125 
L 35.359375 54.890625 
L 25.6875 28.328125 
z
" id="Arial-BoldMT-65"/>
      <path d="M 7.171875 58.890625 
L 7.171875 71.578125 
L 20.90625 71.578125 
L 20.90625 58.890625 
z
M 7.171875 0 
L 7.171875 51.859375 
L 20.90625 51.859375 
L 20.90625 0 
z
" id="Arial-BoldMT-105"/>
      <path d="M 4 26.65625 
Q 4 33.5 7.375 39.890625 
Q 10.75 46.296875 16.921875 49.65625 
Q 23.09375 53.03125 30.71875 53.03125 
Q 42.484375 53.03125 50 45.390625 
Q 57.515625 37.75 57.515625 26.078125 
Q 57.515625 14.3125 49.921875 6.5625 
Q 42.328125 -1.171875 30.8125 -1.171875 
Q 23.6875 -1.171875 17.21875 2.046875 
Q 10.75 5.28125 7.375 11.5 
Q 4 17.71875 4 26.65625 
z
M 18.0625 25.921875 
Q 18.0625 18.21875 21.71875 14.109375 
Q 25.390625 10.015625 30.765625 10.015625 
Q 36.140625 10.015625 39.765625 14.109375 
Q 43.40625 18.21875 43.40625 26.03125 
Q 43.40625 33.640625 39.765625 37.734375 
Q 36.140625 41.84375 30.765625 41.84375 
Q 25.390625 41.84375 21.71875 37.734375 
Q 18.0625 33.640625 18.0625 25.921875 
z
" id="Arial-BoldMT-111"/>
     </defs>
     <g style="fill:#262626;" transform="translate(76.822031 24.063047)scale(0.08 -0.08)">
      <use xlink:href="#Arial-BoldMT-71"/>
      <use x="77.783203" xlink:href="#Arial-BoldMT-101"/>
      <use x="133.398438" xlink:href="#Arial-BoldMT-110"/>
      <use x="194.482422" xlink:href="#Arial-BoldMT-32"/>
      <use x="222.265625" xlink:href="#Arial-BoldMT-49"/>
      <use x="277.880859" xlink:href="#Arial-BoldMT-58"/>
      <use x="311.181641" xlink:href="#Arial-BoldMT-32"/>
      <use x="338.917969" xlink:href="#Arial-BoldMT-65"/>
      <use x="411.134766" xlink:href="#Arial-BoldMT-110"/>
      <use x="472.21875" xlink:href="#Arial-BoldMT-105"/>
      <use x="500.001953" xlink:href="#Arial-BoldMT-111"/>
      <use x="561.085938" xlink:href="#Arial-BoldMT-110"/>
     </g>
    </g>
    <g id="line2d_11">
     <path d="M 54.422031 32.568047 
L 70.422031 32.568047 
" style="fill:none;stroke:#1f77b4;stroke-linecap:round;stroke-width:2;"/>
    </g>
    <g id="line2d_12"/>
    <g id="text_21">
     <!--            Cation -->
     <defs>
      <path d="M 53.078125 26.3125 
L 67.09375 21.875 
Q 63.875 10.15625 56.375 4.46875 
Q 48.875 -1.21875 37.359375 -1.21875 
Q 23.09375 -1.21875 13.90625 8.515625 
Q 4.734375 18.265625 4.734375 35.15625 
Q 4.734375 53.03125 13.953125 62.90625 
Q 23.1875 72.796875 38.234375 72.796875 
Q 51.375 72.796875 59.578125 65.046875 
Q 64.453125 60.453125 66.890625 51.859375 
L 52.59375 48.4375 
Q 51.3125 54 47.28125 57.21875 
Q 43.265625 60.453125 37.5 60.453125 
Q 29.546875 60.453125 24.578125 54.734375 
Q 19.625 49.03125 19.625 36.234375 
Q 19.625 22.65625 24.5 16.890625 
Q 29.390625 11.140625 37.203125 11.140625 
Q 42.96875 11.140625 47.109375 14.796875 
Q 51.265625 18.453125 53.078125 26.3125 
z
" id="Arial-BoldMT-67"/>
      <path d="M 17.4375 36.03125 
L 4.984375 38.28125 
Q 7.078125 45.796875 12.203125 49.40625 
Q 17.328125 53.03125 27.4375 53.03125 
Q 36.625 53.03125 41.109375 50.859375 
Q 45.609375 48.6875 47.4375 45.34375 
Q 49.265625 42 49.265625 33.0625 
L 49.125 17.046875 
Q 49.125 10.203125 49.78125 6.953125 
Q 50.4375 3.71875 52.25 0 
L 38.671875 0 
Q 38.140625 1.375 37.359375 4.046875 
Q 37.015625 5.28125 36.859375 5.671875 
Q 33.34375 2.25 29.34375 0.53125 
Q 25.34375 -1.171875 20.796875 -1.171875 
Q 12.796875 -1.171875 8.171875 3.171875 
Q 3.5625 7.515625 3.5625 14.15625 
Q 3.5625 18.5625 5.65625 22 
Q 7.765625 25.4375 11.546875 27.265625 
Q 15.328125 29.109375 22.46875 30.46875 
Q 32.078125 32.28125 35.796875 33.84375 
L 35.796875 35.203125 
Q 35.796875 39.15625 33.84375 40.84375 
Q 31.890625 42.53125 26.46875 42.53125 
Q 22.796875 42.53125 20.75 41.09375 
Q 18.703125 39.65625 17.4375 36.03125 
z
M 35.796875 24.90625 
Q 33.15625 24.03125 27.4375 22.796875 
Q 21.734375 21.578125 19.96875 20.40625 
Q 17.28125 18.5 17.28125 15.578125 
Q 17.28125 12.703125 19.421875 10.59375 
Q 21.578125 8.5 24.90625 8.5 
Q 28.609375 8.5 31.984375 10.9375 
Q 34.46875 12.796875 35.25 15.484375 
Q 35.796875 17.234375 35.796875 22.171875 
z
" id="Arial-BoldMT-97"/>
      <path d="M 30.953125 51.859375 
L 30.953125 40.921875 
L 21.578125 40.921875 
L 21.578125 20.015625 
Q 21.578125 13.671875 21.84375 12.625 
Q 22.125 11.578125 23.078125 10.890625 
Q 24.03125 10.203125 25.390625 10.203125 
Q 27.296875 10.203125 30.90625 11.53125 
L 32.078125 0.875 
Q 27.296875 -1.171875 21.234375 -1.171875 
Q 17.53125 -1.171875 14.546875 0.0625 
Q 11.578125 1.3125 10.1875 3.296875 
Q 8.796875 5.28125 8.25 8.640625 
Q 7.8125 11.03125 7.8125 18.3125 
L 7.8125 40.921875 
L 1.515625 40.921875 
L 1.515625 51.859375 
L 7.8125 51.859375 
L 7.8125 62.15625 
L 21.578125 70.171875 
L 21.578125 51.859375 
z
" id="Arial-BoldMT-116"/>
     </defs>
     <g style="fill:#262626;" transform="translate(76.822031 35.368047)scale(0.08 -0.08)">
      <use xlink:href="#Arial-BoldMT-32"/>
      <use x="27.783203" xlink:href="#Arial-BoldMT-32"/>
      <use x="55.566406" xlink:href="#Arial-BoldMT-32"/>
      <use x="83.349609" xlink:href="#Arial-BoldMT-32"/>
      <use x="111.132812" xlink:href="#Arial-BoldMT-32"/>
      <use x="138.916016" xlink:href="#Arial-BoldMT-32"/>
      <use x="166.699219" xlink:href="#Arial-BoldMT-32"/>
      <use x="194.482422" xlink:href="#Arial-BoldMT-32"/>
      <use x="222.265625" xlink:href="#Arial-BoldMT-32"/>
      <use x="250.048828" xlink:href="#Arial-BoldMT-32"/>
      <use x="277.832031" xlink:href="#Arial-BoldMT-32"/>
      <use x="305.615234" xlink:href="#Arial-BoldMT-67"/>
      <use x="377.832031" xlink:href="#Arial-BoldMT-97"/>
      <use x="433.447266" xlink:href="#Arial-BoldMT-116"/>
      <use x="466.748047" xlink:href="#Arial-BoldMT-105"/>
      <use x="494.53125" xlink:href="#Arial-BoldMT-111"/>
      <use x="555.615234" xlink:href="#Arial-BoldMT-110"/>
     </g>
    </g>
    <g id="line2d_13">
     <path d="M 54.422031 43.873047 
L 70.422031 43.873047 
" style="fill:none;stroke:#ff7f0e;stroke-dasharray:7.4,3.2;stroke-dashoffset:0;stroke-width:2;"/>
    </g>
    <g id="line2d_14"/>
    <g id="text_22">
     <!-- Gen 2: Anion -->
     <g style="fill:#262626;" transform="translate(76.822031 46.673047)scale(0.08 -0.08)">
      <use xlink:href="#Arial-BoldMT-71"/>
      <use x="77.783203" xlink:href="#Arial-BoldMT-101"/>
      <use x="133.398438" xlink:href="#Arial-BoldMT-110"/>
      <use x="194.482422" xlink:href="#Arial-BoldMT-32"/>
      <use x="222.265625" xlink:href="#Arial-BoldMT-50"/>
      <use x="277.880859" xlink:href="#Arial-BoldMT-58"/>
      <use x="311.181641" xlink:href="#Arial-BoldMT-32"/>
      <use x="338.917969" xlink:href="#Arial-BoldMT-65"/>
      <use x="411.134766" xlink:href="#Arial-BoldMT-110"/>
      <use x="472.21875" xlink:href="#Arial-BoldMT-105"/>
      <use x="500.001953" xlink:href="#Arial-BoldMT-111"/>
      <use x="561.085938" xlink:href="#Arial-BoldMT-110"/>
     </g>
    </g>
    <g id="line2d_15">
     <path d="M 54.422031 55.178047 
L 70.422031 55.178047 
" style="fill:none;stroke:#ff7f0e;stroke-linecap:round;stroke-width:2;"/>
    </g>
    <g id="line2d_16"/>
    <g id="text_23">
     <!--            Cation -->
     <g style="fill:#262626;" transform="translate(76.822031 57.978047)scale(0.08 -0.08)">
      <use xlink:href="#Arial-BoldMT-32"/>
      <use x="27.783203" xlink:href="#Arial-BoldMT-32"/>
      <use x="55.566406" xlink:href="#Arial-BoldMT-32"/>
      <use x="83.349609" xlink:href="#Arial-BoldMT-32"/>
      <use x="111.132812" xlink:href="#Arial-BoldMT-32"/>
      <use x="138.916016" xlink:href="#Arial-BoldMT-32"/>
      <use x="166.699219" xlink:href="#Arial-BoldMT-32"/>
      <use x="194.482422" xlink:href="#Arial-BoldMT-32"/>
      <use x="222.265625" xlink:href="#Arial-BoldMT-32"/>
      <use x="250.048828" xlink:href="#Arial-BoldMT-32"/>
      <use x="277.832031" xlink:href="#Arial-BoldMT-32"/>
      <use x="305.615234" xlink:href="#Arial-BoldMT-67"/>
      <use x="377.832031" xlink:href="#Arial-BoldMT-97"/>
      <use x="433.447266" xlink:href="#Arial-BoldMT-116"/>
      <use x="466.748047" xlink:href="#Arial-BoldMT-105"/>
      <use x="494.53125" xlink:href="#Arial-BoldMT-111"/>
      <use x="555.615234" xlink:href="#Arial-BoldMT-110"/>
     </g>
    </g>
    <g id="line2d_17">
     <path d="M 54.422031 66.483047 
L 70.422031 66.483047 
" style="fill:none;stroke:#2ca02c;stroke-dasharray:7.4,3.2;stroke-dashoffset:0;stroke-width:2;"/>
    </g>
    <g id="line2d_18"/>
    <g id="text_24">
     <!-- Gen 3: Anion -->
     <defs>
      <path d="M 3.765625 19 
L 17.046875 20.609375 
Q 17.671875 15.53125 20.453125 12.84375 
Q 23.25 10.15625 27.203125 10.15625 
Q 31.453125 10.15625 34.34375 13.375 
Q 37.25 16.609375 37.25 22.078125 
Q 37.25 27.25 34.46875 30.265625 
Q 31.6875 33.296875 27.6875 33.296875 
Q 25.046875 33.296875 21.390625 32.28125 
L 22.90625 43.453125 
Q 28.46875 43.3125 31.390625 45.875 
Q 34.328125 48.4375 34.328125 52.6875 
Q 34.328125 56.296875 32.171875 58.4375 
Q 30.03125 60.59375 26.46875 60.59375 
Q 22.953125 60.59375 20.453125 58.15625 
Q 17.96875 55.71875 17.4375 51.03125 
L 4.78125 53.171875 
Q 6.109375 59.671875 8.765625 63.546875 
Q 11.421875 67.4375 16.1875 69.65625 
Q 20.953125 71.875 26.859375 71.875 
Q 36.96875 71.875 43.0625 65.4375 
Q 48.09375 60.15625 48.09375 53.515625 
Q 48.09375 44.09375 37.796875 38.484375 
Q 43.953125 37.15625 47.625 32.5625 
Q 51.3125 27.984375 51.3125 21.484375 
Q 51.3125 12.0625 44.421875 5.421875 
Q 37.546875 -1.21875 27.296875 -1.21875 
Q 17.578125 -1.21875 11.171875 4.375 
Q 4.78125 9.96875 3.765625 19 
z
" id="Arial-BoldMT-51"/>
     </defs>
     <g style="fill:#262626;" transform="translate(76.822031 69.283047)scale(0.08 -0.08)">
      <use xlink:href="#Arial-BoldMT-71"/>
      <use x="77.783203" xlink:href="#Arial-BoldMT-101"/>
      <use x="133.398438" xlink:href="#Arial-BoldMT-110"/>
      <use x="194.482422" xlink:href="#Arial-BoldMT-32"/>
      <use x="222.265625" xlink:href="#Arial-BoldMT-51"/>
      <use x="277.880859" xlink:href="#Arial-BoldMT-58"/>
      <use x="311.181641" xlink:href="#Arial-BoldMT-32"/>
      <use x="338.917969" xlink:href="#Arial-BoldMT-65"/>
      <use x="411.134766" xlink:href="#Arial-BoldMT-110"/>
      <use x="472.21875" xlink:href="#Arial-BoldMT-105"/>
      <use x="500.001953" xlink:href="#Arial-BoldMT-111"/>
      <use x="561.085938" xlink:href="#Arial-BoldMT-110"/>
     </g>
    </g>
    <g id="line2d_19">
     <path d="M 54.422031 77.788047 
L 70.422031 77.788047 
" style="fill:none;stroke:#2ca02c;stroke-linecap:round;stroke-width:2;"/>
    </g>
    <g id="line2d_20"/>
    <g id="text_25">
     <!--            Cation -->
     <g style="fill:#262626;" transform="translate(76.822031 80.588047)scale(0.08 -0.08)">
      <use xlink:href="#Arial-BoldMT-32"/>
      <use x="27.783203" xlink:href="#Arial-BoldMT-32"/>
      <use x="55.566406" xlink:href="#Arial-BoldMT-32"/>
      <use x="83.349609" xlink:href="#Arial-BoldMT-32"/>
      <use x="111.132812" xlink:href="#Arial-BoldMT-32"/>
      <use x="138.916016" xlink:href="#Arial-BoldMT-32"/>
      <use x="166.699219" xlink:href="#Arial-BoldMT-32"/>
      <use x="194.482422" xlink:href="#Arial-BoldMT-32"/>
      <use x="222.265625" xlink:href="#Arial-BoldMT-32"/>
      <use x="250.048828" xlink:href="#Arial-BoldMT-32"/>
      <use x="277.832031" xlink:href="#Arial-BoldMT-32"/>
      <use x="305.615234" xlink:href="#Arial-BoldMT-67"/>
      <use x="377.832031" xlink:href="#Arial-BoldMT-97"/>
      <use x="433.447266" xlink:href="#Arial-BoldMT-116"/>
      <use x="466.748047" xlink:href="#Arial-BoldMT-105"/>
      <use x="494.53125" xlink:href="#Arial-BoldMT-111"/>
      <use x="555.615234" xlink:href="#Arial-BoldMT-110"/>
     </g>
    </g>
   </g>
  </g>
 </g>
 <defs>
  <clipPath id="p529dbbbbcc">
   <rect height="229.62" width="215.895" x="47.222031" y="11.136797"/>
  </clipPath>
 </defs>
</svg>
