<?xml version="1.0" encoding="utf-8" standalone="no"?>
<!DOCTYPE svg PUBLIC "-//W3C//DTD SVG 1.1//EN"
  "http://www.w3.org/Graphics/SVG/1.1/DTD/svg11.dtd">
<!-- Created with matplotlib (https://matplotlib.org/) -->
<svg height="322.648125pt" version="1.1" viewBox="0 0 322.489375 322.648125" width="322.489375pt" xmlns="http://www.w3.org/2000/svg" xmlns:xlink="http://www.w3.org/1999/xlink">
 <defs>
  <style type="text/css">
*{stroke-linecap:butt;stroke-linejoin:round;}
  </style>
 </defs>
 <g id="figure_1">
  <g id="patch_1">
   <path d="M 0 322.648125 
L 322.489375 322.648125 
L 322.489375 0 
L 0 0 
z
" style="fill:#ffffff;"/>
  </g>
  <g id="axes_1">
   <g id="patch_2">
    <path d="M 40.964375 286.929375 
L 281.384375 286.929375 
L 281.384375 21.789375 
L 40.964375 21.789375 
z
" style="fill:#ffffff;"/>
   </g>
   <g id="matplotlib.axis_1">
    <g id="xtick_1">
     <g id="text_1">
      <!-- 0 -->
      <defs>
       <path d="M 27.4375 71.875 
Q 37.84375 71.875 43.703125 64.453125 
Q 50.6875 55.671875 50.6875 35.296875 
Q 50.6875 14.984375 43.65625 6.109375 
Q 37.84375 -1.21875 27.4375 -1.21875 
Q 17 -1.21875 10.59375 6.8125 
Q 4.203125 14.84375 4.203125 35.453125 
Q 4.203125 55.671875 11.234375 64.546875 
Q 17.046875 71.875 27.4375 71.875 
z
M 27.4375 60.5 
Q 24.953125 60.5 23 58.90625 
Q 21.046875 57.328125 19.96875 53.21875 
Q 18.5625 47.90625 18.5625 35.296875 
Q 18.5625 22.703125 19.828125 17.984375 
Q 21.09375 13.28125 23.015625 11.71875 
Q 24.953125 10.15625 27.4375 10.15625 
Q 29.9375 10.15625 31.890625 11.734375 
Q 33.84375 13.328125 34.90625 17.4375 
Q 36.328125 22.703125 36.328125 35.296875 
Q 36.328125 47.90625 35.0625 52.609375 
Q 33.796875 57.328125 31.859375 58.90625 
Q 29.9375 60.5 27.4375 60.5 
z
" id="Arial-BoldMT-48"/>
      </defs>
      <g style="fill:#262626;" transform="translate(37.905859 298.302969)scale(0.11 -0.11)">
       <use xlink:href="#Arial-BoldMT-48"/>
      </g>
     </g>
    </g>
    <g id="xtick_2">
     <g id="text_2">
      <!-- 10 -->
      <defs>
       <path d="M 39.359375 0 
L 25.640625 0 
L 25.640625 51.703125 
Q 18.109375 44.671875 7.90625 41.3125 
L 7.90625 53.765625 
Q 13.28125 55.515625 19.578125 60.421875 
Q 25.875 65.328125 28.21875 71.875 
L 39.359375 71.875 
z
" id="Arial-BoldMT-49"/>
      </defs>
      <g style="fill:#262626;" transform="translate(58.889344 298.302969)scale(0.11 -0.11)">
       <use xlink:href="#Arial-BoldMT-49"/>
       <use x="55.615234" xlink:href="#Arial-BoldMT-48"/>
      </g>
     </g>
    </g>
    <g id="xtick_3">
     <g id="text_3">
      <!-- 20 -->
      <defs>
       <path d="M 50.59375 12.75 
L 50.59375 0 
L 2.484375 0 
Q 3.265625 7.234375 7.171875 13.703125 
Q 11.078125 20.171875 22.609375 30.859375 
Q 31.890625 39.5 33.984375 42.578125 
Q 36.8125 46.828125 36.8125 50.984375 
Q 36.8125 55.5625 34.34375 58.03125 
Q 31.890625 60.5 27.546875 60.5 
Q 23.25 60.5 20.703125 57.90625 
Q 18.171875 55.328125 17.78125 49.3125 
L 4.109375 50.6875 
Q 5.328125 62.015625 11.765625 66.9375 
Q 18.21875 71.875 27.875 71.875 
Q 38.484375 71.875 44.53125 66.15625 
Q 50.59375 60.453125 50.59375 51.953125 
Q 50.59375 47.125 48.859375 42.75 
Q 47.125 38.375 43.359375 33.59375 
Q 40.875 30.421875 34.375 24.453125 
Q 27.875 18.5 26.140625 16.546875 
Q 24.421875 14.59375 23.34375 12.75 
z
" id="Arial-BoldMT-50"/>
      </defs>
      <g style="fill:#262626;" transform="translate(82.931344 298.302969)scale(0.11 -0.11)">
       <use xlink:href="#Arial-BoldMT-50"/>
       <use x="55.615234" xlink:href="#Arial-BoldMT-48"/>
      </g>
     </g>
    </g>
    <g id="xtick_4">
     <g id="text_4">
      <!-- 30 -->
      <defs>
       <path d="M 3.765625 19 
L 17.046875 20.609375 
Q 17.671875 15.53125 20.453125 12.84375 
Q 23.25 10.15625 27.203125 10.15625 
Q 31.453125 10.15625 34.34375 13.375 
Q 37.25 16.609375 37.25 22.078125 
Q 37.25 27.25 34.46875 30.265625 
Q 31.6875 33.296875 27.6875 33.296875 
Q 25.046875 33.296875 21.390625 32.28125 
L 22.90625 43.453125 
Q 28.46875 43.3125 31.390625 45.875 
Q 34.328125 48.4375 34.328125 52.6875 
Q 34.328125 56.296875 32.171875 58.4375 
Q 30.03125 60.59375 26.46875 60.59375 
Q 22.953125 60.59375 20.453125 58.15625 
Q 17.96875 55.71875 17.4375 51.03125 
L 4.78125 53.171875 
Q 6.109375 59.671875 8.765625 63.546875 
Q 11.421875 67.4375 16.1875 69.65625 
Q 20.953125 71.875 26.859375 71.875 
Q 36.96875 71.875 43.0625 65.4375 
Q 48.09375 60.15625 48.09375 53.515625 
Q 48.09375 44.09375 37.796875 38.484375 
Q 43.953125 37.15625 47.625 32.5625 
Q 51.3125 27.984375 51.3125 21.484375 
Q 51.3125 12.0625 44.421875 5.421875 
Q 37.546875 -1.21875 27.296875 -1.21875 
Q 17.578125 -1.21875 11.171875 4.375 
Q 4.78125 9.96875 3.765625 19 
z
" id="Arial-BoldMT-51"/>
      </defs>
      <g style="fill:#262626;" transform="translate(106.973344 298.302969)scale(0.11 -0.11)">
       <use xlink:href="#Arial-BoldMT-51"/>
       <use x="55.615234" xlink:href="#Arial-BoldMT-48"/>
      </g>
     </g>
    </g>
    <g id="xtick_5">
     <g id="text_5">
      <!-- 40 -->
      <defs>
       <path d="M 31.15625 0 
L 31.15625 14.40625 
L 1.859375 14.40625 
L 1.859375 26.421875 
L 32.90625 71.875 
L 44.4375 71.875 
L 44.4375 26.46875 
L 53.328125 26.46875 
L 53.328125 14.40625 
L 44.4375 14.40625 
L 44.4375 0 
z
M 31.15625 26.46875 
L 31.15625 50.921875 
L 14.703125 26.46875 
z
" id="Arial-BoldMT-52"/>
      </defs>
      <g style="fill:#262626;" transform="translate(131.015344 298.302969)scale(0.11 -0.11)">
       <use xlink:href="#Arial-BoldMT-52"/>
       <use x="55.615234" xlink:href="#Arial-BoldMT-48"/>
      </g>
     </g>
    </g>
    <g id="xtick_6">
     <g id="text_6">
      <!-- 50 -->
      <defs>
       <path d="M 4.4375 18.40625 
L 18.109375 19.828125 
Q 18.703125 15.1875 21.578125 12.46875 
Q 24.46875 9.765625 28.21875 9.765625 
Q 32.515625 9.765625 35.5 13.25 
Q 38.484375 16.75 38.484375 23.78125 
Q 38.484375 30.375 35.515625 33.671875 
Q 32.5625 36.96875 27.828125 36.96875 
Q 21.921875 36.96875 17.234375 31.734375 
L 6.109375 33.34375 
L 13.140625 70.609375 
L 49.421875 70.609375 
L 49.421875 57.765625 
L 23.53125 57.765625 
L 21.390625 45.609375 
Q 25.984375 47.90625 30.765625 47.90625 
Q 39.890625 47.90625 46.234375 41.265625 
Q 52.59375 34.625 52.59375 24.03125 
Q 52.59375 15.1875 47.46875 8.25 
Q 40.484375 -1.21875 28.078125 -1.21875 
Q 18.171875 -1.21875 11.921875 4.09375 
Q 5.671875 9.421875 4.4375 18.40625 
z
" id="Arial-BoldMT-53"/>
      </defs>
      <g style="fill:#262626;" transform="translate(155.057344 298.302969)scale(0.11 -0.11)">
       <use xlink:href="#Arial-BoldMT-53"/>
       <use x="55.615234" xlink:href="#Arial-BoldMT-48"/>
      </g>
     </g>
    </g>
    <g id="xtick_7">
     <g id="text_7">
      <!-- 60 -->
      <defs>
       <path d="M 50.734375 54.046875 
L 37.453125 52.59375 
Q 36.96875 56.6875 34.90625 58.640625 
Q 32.859375 60.59375 29.59375 60.59375 
Q 25.25 60.59375 22.234375 56.6875 
Q 19.234375 52.78125 18.453125 40.4375 
Q 23.578125 46.484375 31.203125 46.484375 
Q 39.796875 46.484375 45.921875 39.9375 
Q 52.046875 33.40625 52.046875 23.046875 
Q 52.046875 12.0625 45.59375 5.421875 
Q 39.15625 -1.21875 29.046875 -1.21875 
Q 18.21875 -1.21875 11.234375 7.203125 
Q 4.25 15.625 4.25 34.8125 
Q 4.25 54.5 11.515625 63.1875 
Q 18.796875 71.875 30.421875 71.875 
Q 38.578125 71.875 43.921875 67.3125 
Q 49.265625 62.75 50.734375 54.046875 
z
M 19.625 24.125 
Q 19.625 17.4375 22.703125 13.796875 
Q 25.78125 10.15625 29.734375 10.15625 
Q 33.546875 10.15625 36.078125 13.125 
Q 38.625 16.109375 38.625 22.90625 
Q 38.625 29.890625 35.890625 33.125 
Q 33.15625 36.375 29.046875 36.375 
Q 25.09375 36.375 22.359375 33.265625 
Q 19.625 30.171875 19.625 24.125 
z
" id="Arial-BoldMT-54"/>
      </defs>
      <g style="fill:#262626;" transform="translate(179.099344 298.302969)scale(0.11 -0.11)">
       <use xlink:href="#Arial-BoldMT-54"/>
       <use x="55.615234" xlink:href="#Arial-BoldMT-48"/>
      </g>
     </g>
    </g>
    <g id="xtick_8">
     <g id="text_8">
      <!-- 70 -->
      <defs>
       <path d="M 4.25 57.859375 
L 4.25 70.609375 
L 51.171875 70.609375 
L 51.171875 60.640625 
Q 45.359375 54.9375 39.34375 44.234375 
Q 33.34375 33.546875 30.1875 21.5 
Q 27.046875 9.46875 27.09375 0 
L 13.875 0 
Q 14.203125 14.84375 19.984375 30.265625 
Q 25.78125 45.703125 35.453125 57.859375 
z
" id="Arial-BoldMT-55"/>
      </defs>
      <g style="fill:#262626;" transform="translate(203.141344 298.302969)scale(0.11 -0.11)">
       <use xlink:href="#Arial-BoldMT-55"/>
       <use x="55.615234" xlink:href="#Arial-BoldMT-48"/>
      </g>
     </g>
    </g>
    <g id="xtick_9">
     <g id="text_9">
      <!-- 80 -->
      <defs>
       <path d="M 16.015625 38.625 
Q 10.6875 40.875 8.265625 44.796875 
Q 5.859375 48.734375 5.859375 53.421875 
Q 5.859375 61.421875 11.453125 66.640625 
Q 17.046875 71.875 27.34375 71.875 
Q 37.546875 71.875 43.1875 66.640625 
Q 48.828125 61.421875 48.828125 53.421875 
Q 48.828125 48.4375 46.234375 44.546875 
Q 43.65625 40.671875 38.96875 38.625 
Q 44.921875 36.234375 48.015625 31.640625 
Q 51.125 27.046875 51.125 21.046875 
Q 51.125 11.140625 44.796875 4.9375 
Q 38.484375 -1.265625 27.984375 -1.265625 
Q 18.21875 -1.265625 11.71875 3.859375 
Q 4.046875 9.90625 4.046875 20.453125 
Q 4.046875 26.265625 6.921875 31.125 
Q 9.8125 35.984375 16.015625 38.625 
z
M 18.84375 52.4375 
Q 18.84375 48.34375 21.15625 46.046875 
Q 23.484375 43.75 27.34375 43.75 
Q 31.25 43.75 33.59375 46.0625 
Q 35.9375 48.390625 35.9375 52.484375 
Q 35.9375 56.34375 33.609375 58.65625 
Q 31.296875 60.984375 27.484375 60.984375 
Q 23.53125 60.984375 21.1875 58.640625 
Q 18.84375 56.296875 18.84375 52.4375 
z
M 17.578125 21.78125 
Q 17.578125 16.109375 20.484375 12.9375 
Q 23.390625 9.765625 27.734375 9.765625 
Q 31.984375 9.765625 34.765625 12.8125 
Q 37.546875 15.875 37.546875 21.625 
Q 37.546875 26.65625 34.71875 29.703125 
Q 31.890625 32.765625 27.546875 32.765625 
Q 22.515625 32.765625 20.046875 29.296875 
Q 17.578125 25.828125 17.578125 21.78125 
z
" id="Arial-BoldMT-56"/>
      </defs>
      <g style="fill:#262626;" transform="translate(227.183344 298.302969)scale(0.11 -0.11)">
       <use xlink:href="#Arial-BoldMT-56"/>
       <use x="55.615234" xlink:href="#Arial-BoldMT-48"/>
      </g>
     </g>
    </g>
    <g id="xtick_10">
     <g id="text_10">
      <!-- 90 -->
      <defs>
       <path d="M 4.546875 16.546875 
L 17.828125 18.015625 
Q 18.3125 13.96875 20.359375 12.015625 
Q 22.40625 10.0625 25.78125 10.0625 
Q 30.03125 10.0625 33 13.96875 
Q 35.984375 17.875 36.8125 30.171875 
Q 31.640625 24.171875 23.875 24.171875 
Q 15.4375 24.171875 9.296875 30.6875 
Q 3.171875 37.203125 3.171875 47.65625 
Q 3.171875 58.546875 9.640625 65.203125 
Q 16.109375 71.875 26.125 71.875 
Q 37.015625 71.875 44 63.453125 
Q 50.984375 55.03125 50.984375 35.75 
Q 50.984375 16.109375 43.703125 7.421875 
Q 36.421875 -1.265625 24.75 -1.265625 
Q 16.359375 -1.265625 11.171875 3.203125 
Q 6 7.671875 4.546875 16.546875 
z
M 35.59375 46.53125 
Q 35.59375 53.171875 32.546875 56.828125 
Q 29.5 60.5 25.484375 60.5 
Q 21.6875 60.5 19.171875 57.5 
Q 16.65625 54.5 16.65625 47.65625 
Q 16.65625 40.71875 19.390625 37.46875 
Q 22.125 34.234375 26.21875 34.234375 
Q 30.171875 34.234375 32.875 37.359375 
Q 35.59375 40.484375 35.59375 46.53125 
z
" id="Arial-BoldMT-57"/>
      </defs>
      <g style="fill:#262626;" transform="translate(251.225344 298.302969)scale(0.11 -0.11)">
       <use xlink:href="#Arial-BoldMT-57"/>
       <use x="55.615234" xlink:href="#Arial-BoldMT-48"/>
      </g>
     </g>
    </g>
    <g id="xtick_11">
     <g id="text_11">
      <!-- 100 -->
      <g style="fill:#262626;" transform="translate(272.208828 298.302969)scale(0.11 -0.11)">
       <use xlink:href="#Arial-BoldMT-49"/>
       <use x="55.615234" xlink:href="#Arial-BoldMT-48"/>
       <use x="111.230469" xlink:href="#Arial-BoldMT-48"/>
      </g>
     </g>
    </g>
    <g id="text_12">
     <!-- Epochs -->
     <defs>
      <path d="M 7.90625 0 
L 7.90625 71.578125 
L 59.671875 71.578125 
L 59.671875 63.140625 
L 17.390625 63.140625 
L 17.390625 41.21875 
L 56.984375 41.21875 
L 56.984375 32.8125 
L 17.390625 32.8125 
L 17.390625 8.453125 
L 61.328125 8.453125 
L 61.328125 0 
z
" id="ArialMT-69"/>
      <path d="M 6.59375 -19.875 
L 6.59375 51.859375 
L 14.59375 51.859375 
L 14.59375 45.125 
Q 17.4375 49.078125 21 51.046875 
Q 24.5625 53.03125 29.640625 53.03125 
Q 36.28125 53.03125 41.359375 49.609375 
Q 46.4375 46.1875 49.015625 39.953125 
Q 51.609375 33.734375 51.609375 26.3125 
Q 51.609375 18.359375 48.75 11.984375 
Q 45.90625 5.609375 40.453125 2.21875 
Q 35.015625 -1.171875 29 -1.171875 
Q 24.609375 -1.171875 21.109375 0.6875 
Q 17.625 2.546875 15.375 5.375 
L 15.375 -19.875 
z
M 14.546875 25.640625 
Q 14.546875 15.625 18.59375 10.84375 
Q 22.65625 6.0625 28.421875 6.0625 
Q 34.28125 6.0625 38.453125 11.015625 
Q 42.625 15.96875 42.625 26.375 
Q 42.625 36.28125 38.546875 41.203125 
Q 34.46875 46.140625 28.8125 46.140625 
Q 23.1875 46.140625 18.859375 40.890625 
Q 14.546875 35.640625 14.546875 25.640625 
z
" id="ArialMT-112"/>
      <path d="M 3.328125 25.921875 
Q 3.328125 40.328125 11.328125 47.265625 
Q 18.015625 53.03125 27.640625 53.03125 
Q 38.328125 53.03125 45.109375 46.015625 
Q 51.90625 39.015625 51.90625 26.65625 
Q 51.90625 16.65625 48.90625 10.90625 
Q 45.90625 5.171875 40.15625 2 
Q 34.421875 -1.171875 27.640625 -1.171875 
Q 16.75 -1.171875 10.03125 5.8125 
Q 3.328125 12.796875 3.328125 25.921875 
z
M 12.359375 25.921875 
Q 12.359375 15.96875 16.703125 11.015625 
Q 21.046875 6.0625 27.640625 6.0625 
Q 34.1875 6.0625 38.53125 11.03125 
Q 42.875 16.015625 42.875 26.21875 
Q 42.875 35.84375 38.5 40.796875 
Q 34.125 45.75 27.640625 45.75 
Q 21.046875 45.75 16.703125 40.8125 
Q 12.359375 35.890625 12.359375 25.921875 
z
" id="ArialMT-111"/>
      <path d="M 40.4375 19 
L 49.078125 17.875 
Q 47.65625 8.9375 41.8125 3.875 
Q 35.984375 -1.171875 27.484375 -1.171875 
Q 16.84375 -1.171875 10.375 5.78125 
Q 3.90625 12.75 3.90625 25.734375 
Q 3.90625 34.125 6.6875 40.421875 
Q 9.46875 46.734375 15.15625 49.875 
Q 20.84375 53.03125 27.546875 53.03125 
Q 35.984375 53.03125 41.359375 48.75 
Q 46.734375 44.484375 48.25 36.625 
L 39.703125 35.296875 
Q 38.484375 40.53125 35.375 43.15625 
Q 32.28125 45.796875 27.875 45.796875 
Q 21.234375 45.796875 17.078125 41.03125 
Q 12.9375 36.28125 12.9375 25.984375 
Q 12.9375 15.53125 16.9375 10.796875 
Q 20.953125 6.0625 27.390625 6.0625 
Q 32.5625 6.0625 36.03125 9.234375 
Q 39.5 12.40625 40.4375 19 
z
" id="ArialMT-99"/>
      <path d="M 6.59375 0 
L 6.59375 71.578125 
L 15.375 71.578125 
L 15.375 45.90625 
Q 21.53125 53.03125 30.90625 53.03125 
Q 36.671875 53.03125 40.921875 50.75 
Q 45.171875 48.484375 47 44.484375 
Q 48.828125 40.484375 48.828125 32.859375 
L 48.828125 0 
L 40.046875 0 
L 40.046875 32.859375 
Q 40.046875 39.453125 37.1875 42.453125 
Q 34.328125 45.453125 29.109375 45.453125 
Q 25.203125 45.453125 21.75 43.421875 
Q 18.3125 41.40625 16.84375 37.9375 
Q 15.375 34.46875 15.375 28.375 
L 15.375 0 
z
" id="ArialMT-104"/>
      <path d="M 3.078125 15.484375 
L 11.765625 16.84375 
Q 12.5 11.625 15.84375 8.84375 
Q 19.1875 6.0625 25.203125 6.0625 
Q 31.25 6.0625 34.171875 8.515625 
Q 37.109375 10.984375 37.109375 14.3125 
Q 37.109375 17.28125 34.515625 19 
Q 32.71875 20.171875 25.53125 21.96875 
Q 15.875 24.421875 12.140625 26.203125 
Q 8.40625 27.984375 6.46875 31.125 
Q 4.546875 34.28125 4.546875 38.09375 
Q 4.546875 41.546875 6.125 44.5 
Q 7.71875 47.46875 10.453125 49.421875 
Q 12.5 50.921875 16.03125 51.96875 
Q 19.578125 53.03125 23.640625 53.03125 
Q 29.734375 53.03125 34.34375 51.265625 
Q 38.96875 49.515625 41.15625 46.5 
Q 43.359375 43.5 44.1875 38.484375 
L 35.59375 37.3125 
Q 35.015625 41.3125 32.203125 43.546875 
Q 29.390625 45.796875 24.265625 45.796875 
Q 18.21875 45.796875 15.625 43.796875 
Q 13.03125 41.796875 13.03125 39.109375 
Q 13.03125 37.40625 14.109375 36.03125 
Q 15.1875 34.625 17.484375 33.6875 
Q 18.796875 33.203125 25.25 31.453125 
Q 34.578125 28.953125 38.25 27.359375 
Q 41.9375 25.78125 44.03125 22.75 
Q 46.140625 19.734375 46.140625 15.234375 
Q 46.140625 10.84375 43.578125 6.953125 
Q 41.015625 3.078125 36.171875 0.953125 
Q 31.34375 -1.171875 25.25 -1.171875 
Q 15.140625 -1.171875 9.84375 3.03125 
Q 4.546875 7.234375 3.078125 15.484375 
z
" id="ArialMT-115"/>
     </defs>
     <g style="fill:#262626;" transform="translate(141.1625 313.063125)scale(0.12 -0.12)">
      <use xlink:href="#ArialMT-69"/>
      <use x="66.699219" xlink:href="#ArialMT-112"/>
      <use x="122.314453" xlink:href="#ArialMT-111"/>
      <use x="177.929688" xlink:href="#ArialMT-99"/>
      <use x="227.929688" xlink:href="#ArialMT-104"/>
      <use x="283.544922" xlink:href="#ArialMT-115"/>
     </g>
    </g>
   </g>
   <g id="matplotlib.axis_2">
    <g id="ytick_1">
     <g id="line2d_1"/>
     <g id="text_13">
      <!-- 0.0 -->
      <defs>
       <path d="M 7.171875 0 
L 7.171875 13.71875 
L 20.90625 13.71875 
L 20.90625 0 
z
" id="Arial-BoldMT-46"/>
      </defs>
      <g style="fill:#262626;" transform="translate(22.174375 279.473428)scale(0.11 -0.11)">
       <use xlink:href="#Arial-BoldMT-48"/>
       <use x="55.615234" xlink:href="#Arial-BoldMT-46"/>
       <use x="83.398438" xlink:href="#Arial-BoldMT-48"/>
      </g>
     </g>
    </g>
    <g id="ytick_2">
     <g id="line2d_2"/>
     <g id="text_14">
      <!-- 0.2 -->
      <g style="fill:#262626;" transform="translate(22.174375 233.366373)scale(0.11 -0.11)">
       <use xlink:href="#Arial-BoldMT-48"/>
       <use x="55.615234" xlink:href="#Arial-BoldMT-46"/>
       <use x="83.398438" xlink:href="#Arial-BoldMT-50"/>
      </g>
     </g>
    </g>
    <g id="ytick_3">
     <g id="line2d_3"/>
     <g id="text_15">
      <!-- 0.4 -->
      <g style="fill:#262626;" transform="translate(22.174375 187.259318)scale(0.11 -0.11)">
       <use xlink:href="#Arial-BoldMT-48"/>
       <use x="55.615234" xlink:href="#Arial-BoldMT-46"/>
       <use x="83.398438" xlink:href="#Arial-BoldMT-52"/>
      </g>
     </g>
    </g>
    <g id="ytick_4">
     <g id="line2d_4"/>
     <g id="text_16">
      <!-- 0.6 -->
      <g style="fill:#262626;" transform="translate(22.174375 141.152262)scale(0.11 -0.11)">
       <use xlink:href="#Arial-BoldMT-48"/>
       <use x="55.615234" xlink:href="#Arial-BoldMT-46"/>
       <use x="83.398438" xlink:href="#Arial-BoldMT-54"/>
      </g>
     </g>
    </g>
    <g id="ytick_5">
     <g id="line2d_5"/>
     <g id="text_17">
      <!-- 0.8 -->
      <g style="fill:#262626;" transform="translate(22.174375 95.045207)scale(0.11 -0.11)">
       <use xlink:href="#Arial-BoldMT-48"/>
       <use x="55.615234" xlink:href="#Arial-BoldMT-46"/>
       <use x="83.398438" xlink:href="#Arial-BoldMT-56"/>
      </g>
     </g>
    </g>
    <g id="ytick_6">
     <g id="line2d_6"/>
     <g id="text_18">
      <!-- 1.0 -->
      <g style="fill:#262626;" transform="translate(22.174375 48.938152)scale(0.11 -0.11)">
       <use xlink:href="#Arial-BoldMT-49"/>
       <use x="55.615234" xlink:href="#Arial-BoldMT-46"/>
       <use x="83.398438" xlink:href="#Arial-BoldMT-48"/>
      </g>
     </g>
    </g>
    <g id="text_19">
     <!-- MSE -->
     <defs>
      <path d="M 7.421875 0 
L 7.421875 71.578125 
L 21.6875 71.578125 
L 38.625 20.90625 
Q 40.96875 13.8125 42.046875 10.296875 
Q 43.265625 14.203125 45.84375 21.78125 
L 62.984375 71.578125 
L 75.734375 71.578125 
L 75.734375 0 
L 66.609375 0 
L 66.609375 59.90625 
L 45.796875 0 
L 37.25 0 
L 16.546875 60.9375 
L 16.546875 0 
z
" id="ArialMT-77"/>
      <path d="M 4.5 23 
L 13.421875 23.78125 
Q 14.0625 18.40625 16.375 14.96875 
Q 18.703125 11.53125 23.578125 9.40625 
Q 28.46875 7.28125 34.578125 7.28125 
Q 39.984375 7.28125 44.140625 8.890625 
Q 48.296875 10.5 50.3125 13.296875 
Q 52.34375 16.109375 52.34375 19.4375 
Q 52.34375 22.796875 50.390625 25.3125 
Q 48.4375 27.828125 43.953125 29.546875 
Q 41.0625 30.671875 31.203125 33.03125 
Q 21.34375 35.40625 17.390625 37.5 
Q 12.25 40.1875 9.734375 44.15625 
Q 7.234375 48.140625 7.234375 53.078125 
Q 7.234375 58.5 10.296875 63.203125 
Q 13.375 67.921875 19.28125 70.359375 
Q 25.203125 72.796875 32.421875 72.796875 
Q 40.375 72.796875 46.453125 70.234375 
Q 52.546875 67.671875 55.8125 62.6875 
Q 59.078125 57.71875 59.328125 51.421875 
L 50.25 50.734375 
Q 49.515625 57.515625 45.28125 60.984375 
Q 41.0625 64.453125 32.8125 64.453125 
Q 24.21875 64.453125 20.28125 61.296875 
Q 16.359375 58.15625 16.359375 53.71875 
Q 16.359375 49.859375 19.140625 47.359375 
Q 21.875 44.875 33.421875 42.265625 
Q 44.96875 39.65625 49.265625 37.703125 
Q 55.515625 34.8125 58.484375 30.390625 
Q 61.46875 25.984375 61.46875 20.21875 
Q 61.46875 14.5 58.203125 9.4375 
Q 54.9375 4.390625 48.796875 1.578125 
Q 42.671875 -1.21875 35.015625 -1.21875 
Q 25.296875 -1.21875 18.71875 1.609375 
Q 12.15625 4.4375 8.421875 10.125 
Q 4.6875 15.828125 4.5 23 
z
" id="ArialMT-83"/>
     </defs>
     <g style="fill:#262626;" transform="translate(15.789375 167.361562)rotate(-90)scale(0.12 -0.12)">
      <use xlink:href="#ArialMT-77"/>
      <use x="83.300781" xlink:href="#ArialMT-83"/>
      <use x="150" xlink:href="#ArialMT-69"/>
     </g>
    </g>
   </g>
   <g id="line2d_7">
    <path clip-path="url(#p304cff45ee)" d="M 43.368575 183.610922 
L 45.772775 203.451705 
L 48.176975 193.691904 
L 50.581175 222.549844 
L 52.985375 231.899426 
L 55.389575 234.957624 
L 57.793775 261.171139 
L 60.197975 248.285537 
L 62.602175 259.703265 
L 65.006375 257.79754 
L 67.410575 253.875607 
L 69.814775 255.934028 
L 72.218975 250.079426 
L 74.623175 250.220941 
L 77.027375 261.298217 
L 79.431575 263.558465 
L 81.835775 248.011066 
L 84.239975 263.072669 
L 86.644175 261.516981 
L 89.048375 264.862034 
L 91.452575 265.748432 
L 93.856775 260.972256 
L 96.260975 266.404427 
L 98.665175 266.574992 
L 101.069375 262.595893 
L 103.473575 268.734754 
L 105.877775 268.857363 
L 108.281975 266.946683 
L 110.686175 266.986257 
L 113.090375 265.734979 
L 115.494575 266.3212 
L 117.898775 261.869863 
L 120.302975 268.355219 
L 122.707175 270.324837 
L 125.111375 259.457839 
L 127.515575 269.382061 
L 129.919775 270.010119 
L 132.323975 271.211915 
L 134.728175 270.275295 
L 137.132375 264.725226 
L 139.536575 269.534129 
L 141.940775 268.476448 
L 144.344975 267.131071 
L 146.749175 270.074958 
L 149.153375 269.577698 
L 151.557575 270.911106 
L 153.961775 269.717164 
L 156.365975 268.366513 
L 158.770175 267.92367 
L 161.174375 263.241863 
L 163.578575 269.398096 
L 165.982775 269.091752 
L 168.386975 271.526437 
L 170.791175 270.402823 
L 173.195375 270.072416 
L 175.599575 268.187577 
L 178.003775 269.985146 
L 180.407975 267.244759 
L 182.812175 268.763958 
L 185.216375 269.532342 
L 187.620575 268.829964 
L 190.024775 268.751956 
L 192.428975 270.209823 
L 194.833175 269.329953 
L 197.237375 271.150273 
L 199.641575 267.084096 
L 202.045775 268.823101 
L 204.449975 270.301624 
L 206.854175 270.563386 
L 209.258375 266.311102 
L 211.662575 259.03273 
L 214.066775 261.439191 
L 216.470975 265.739249 
L 218.875175 268.905738 
L 221.279375 269.863103 
L 223.683575 270.997787 
L 226.087775 271.190833 
L 228.491975 266.819424 
L 230.896175 270.858337 
L 233.300375 242.993228 
L 235.704575 269.106783 
L 238.108775 271.642425 
L 240.512975 266.988865 
L 242.917175 268.991233 
L 245.321375 269.984037 
L 247.725575 267.776187 
L 250.129775 270.528286 
L 252.533975 270.195788 
L 254.938175 264.295551 
L 257.342375 269.17358 
L 259.746575 268.672758 
L 262.150775 267.573761 
L 264.554975 272.304079 
L 266.959175 271.677199 
L 269.363375 271.563018 
L 271.767575 269.973909 
L 274.171775 268.474869 
L 276.575975 270.685389 
L 278.980175 272.50287 
L 281.384375 270.611366 
" style="fill:none;stroke:#1f77b4;stroke-dasharray:2,3.3;stroke-dashoffset:0;stroke-width:2;"/>
   </g>
   <g id="line2d_8">
    <path clip-path="url(#p304cff45ee)" d="M 43.368575 254.277712 
L 45.772775 265.943683 
L 48.176975 220.264771 
L 50.581175 246.827088 
L 52.985375 255.003656 
L 55.389575 231.956663 
L 57.793775 268.978698 
L 60.197975 233.355627 
L 62.602175 251.434599 
L 65.006375 267.977186 
L 67.410575 228.19396 
L 69.814775 261.698276 
L 72.218975 256.757648 
L 74.623175 267.836587 
L 77.027375 268.056507 
L 79.431575 269.775901 
L 81.835775 254.365402 
L 84.239975 255.290289 
L 86.644175 265.827629 
L 89.048375 255.38911 
L 91.452575 271.367916 
L 93.856775 270.326813 
L 96.260975 254.126881 
L 98.665175 270.432423 
L 101.069375 261.211668 
L 103.473575 263.078986 
L 105.877775 265.40384 
L 108.281975 260.177216 
L 110.686175 272.319438 
L 113.090375 265.778091 
L 115.494575 267.711119 
L 117.898775 269.066665 
L 120.302975 259.707057 
L 122.707175 261.192594 
L 125.111375 264.684677 
L 127.515575 266.286256 
L 129.919775 272.262198 
L 132.323975 272.922131 
L 134.728175 271.95743 
L 137.132375 270.642601 
L 139.536575 270.856674 
L 141.940775 273.909193 
L 144.344975 270.294182 
L 146.749175 265.087227 
L 149.153375 261.398275 
L 151.557575 273.101271 
L 153.961775 263.759323 
L 156.365975 270.656697 
L 158.770175 273.685886 
L 161.174375 272.591708 
L 163.578575 261.852818 
L 165.982775 273.313187 
L 168.386975 272.926909 
L 170.791175 268.307778 
L 173.195375 274.202266 
L 175.599575 270.416113 
L 178.003775 266.681083 
L 180.407975 274.520789 
L 182.812175 274.102927 
L 185.216375 274.48462 
L 187.620575 272.463423 
L 190.024775 270.672113 
L 192.428975 273.66144 
L 194.833175 274.230274 
L 197.237375 274.109833 
L 199.641575 273.425772 
L 202.045775 273.583339 
L 204.449975 273.874069 
L 206.854175 266.686671 
L 209.258375 274.344918 
L 211.662575 273.634321 
L 214.066775 273.027005 
L 216.470975 274.329993 
L 218.875175 273.410607 
L 221.279375 274.676568 
L 223.683575 272.386684 
L 226.087775 274.480996 
L 228.491975 274.132025 
L 230.896175 273.763529 
L 233.300375 273.76576 
L 235.704575 269.979672 
L 238.108775 272.770529 
L 240.512975 273.824832 
L 242.917175 274.310363 
L 245.321375 273.738656 
L 247.725575 273.376951 
L 250.129775 274.011776 
L 252.533975 274.18875 
L 254.938175 273.26139 
L 257.342375 274.443093 
L 259.746575 274.425248 
L 262.150775 274.658662 
L 264.554975 274.068708 
L 266.959175 274.381384 
L 269.363375 274.016347 
L 271.767575 274.781386 
L 274.171775 274.877557 
L 276.575975 274.840548 
L 278.980175 274.396421 
L 281.384375 274.727049 
" style="fill:none;stroke:#ff7f0e;stroke-dasharray:2,3.3;stroke-dashoffset:0;stroke-width:2;"/>
   </g>
   <g id="line2d_9">
    <path clip-path="url(#p304cff45ee)" d="M 43.368575 227.569365 
L 45.772775 247.621053 
L 48.176975 258.181847 
L 50.581175 252.073264 
L 52.985375 241.262789 
L 55.389575 244.273115 
L 57.793775 228.050135 
L 60.197975 226.808621 
L 62.602175 262.923199 
L 65.006375 202.018458 
L 67.410575 241.827284 
L 69.814775 243.110216 
L 72.218975 236.310311 
L 74.623175 263.408691 
L 77.027375 255.146165 
L 79.431575 256.946686 
L 81.835775 234.359395 
L 84.239975 249.672628 
L 86.644175 263.310114 
L 89.048375 260.144259 
L 91.452575 261.934096 
L 93.856775 267.116263 
L 96.260975 267.28846 
L 98.665175 247.12615 
L 101.069375 268.364335 
L 103.473575 264.409396 
L 105.877775 244.75357 
L 108.281975 210.893363 
L 110.686175 266.558454 
L 113.090375 262.426351 
L 115.494575 245.796223 
L 117.898775 257.207422 
L 120.302975 267.974998 
L 122.707175 264.264443 
L 125.111375 208.378861 
L 127.515575 261.906206 
L 129.919775 267.993717 
L 132.323975 255.845497 
L 134.728175 265.893312 
L 137.132375 266.289758 
L 139.536575 223.12995 
L 141.940775 260.72042 
L 144.344975 237.008509 
L 146.749175 266.410994 
L 149.153375 261.89763 
L 151.557575 197.859359 
L 153.961775 268.726785 
L 156.365975 268.466338 
L 158.770175 264.863499 
L 161.174375 263.448083 
L 163.578575 259.300248 
L 165.982775 264.417125 
L 168.386975 269.510898 
L 170.791175 247.52352 
L 173.195375 245.564102 
L 175.599575 257.736975 
L 178.003775 265.859494 
L 180.407975 252.041882 
L 182.812175 263.639322 
L 185.216375 258.671435 
L 187.620575 259.779709 
L 190.024775 267.127464 
L 192.428975 237.912673 
L 194.833175 237.604955 
L 197.237375 263.089439 
L 199.641575 262.594547 
L 202.045775 265.838533 
L 204.449975 246.563014 
L 206.854175 240.626727 
L 209.258375 268.001046 
L 211.662575 270.195997 
L 214.066775 261.008868 
L 216.470975 267.585061 
L 218.875175 267.697978 
L 221.279375 262.248235 
L 223.683575 266.863395 
L 226.087775 271.346301 
L 228.491975 246.459855 
L 230.896175 265.874358 
L 233.300375 268.482088 
L 235.704575 256.228195 
L 238.108775 263.188372 
L 240.512975 260.759567 
L 242.917175 262.316174 
L 245.321375 264.101591 
L 247.725575 262.424168 
L 250.129775 254.071707 
L 252.533975 262.91697 
L 254.938175 229.572122 
L 257.342375 254.024188 
L 259.746575 250.269675 
L 262.150775 264.368662 
L 264.554975 261.966604 
L 266.959175 248.067873 
L 269.363375 263.10994 
L 271.767575 267.397222 
L 274.171775 268.971521 
L 276.575975 270.46166 
L 278.980175 244.55368 
L 281.384375 256.051451 
" style="fill:none;stroke:#2ca02c;stroke-dasharray:2,3.3;stroke-dashoffset:0;stroke-width:2;"/>
   </g>
   <g id="line2d_10">
    <path clip-path="url(#p304cff45ee)" d="M 43.368575 33.841193 
L 45.772775 112.076783 
L 48.176975 129.405579 
L 50.581175 158.641515 
L 52.985375 157.023223 
L 55.389575 167.159318 
L 57.793775 184.295926 
L 60.197975 187.021827 
L 62.602175 186.516222 
L 65.006375 181.359658 
L 67.410575 196.234848 
L 69.814775 199.383794 
L 72.218975 189.032426 
L 74.623175 200.349328 
L 77.027375 195.877188 
L 79.431575 200.930346 
L 81.835775 201.49894 
L 84.239975 204.766945 
L 86.644175 204.290741 
L 89.048375 208.349075 
L 91.452575 198.016072 
L 93.856775 212.557076 
L 96.260975 206.348989 
L 98.665175 212.441819 
L 101.069375 211.68199 
L 103.473575 204.925874 
L 105.877775 209.33222 
L 108.281975 213.041385 
L 110.686175 210.250422 
L 113.090375 207.889746 
L 115.494575 209.437489 
L 117.898775 210.202348 
L 120.302975 207.813151 
L 122.707175 212.634723 
L 125.111375 207.73983 
L 127.515575 209.071504 
L 129.919775 197.441377 
L 132.323975 184.806564 
L 134.728175 202.592248 
L 137.132375 206.866744 
L 139.536575 203.215946 
L 141.940775 204.248094 
L 144.344975 198.789764 
L 146.749175 209.561327 
L 149.153375 203.796842 
L 151.557575 210.170122 
L 153.961775 205.020666 
L 156.365975 204.690153 
L 158.770175 205.705188 
L 161.174375 209.027243 
L 163.578575 209.374844 
L 165.982775 210.444646 
L 168.386975 214.880181 
L 170.791175 207.2796 
L 173.195375 207.811517 
L 175.599575 204.919353 
L 178.003775 213.445029 
L 180.407975 214.365745 
L 182.812175 214.97665 
L 185.216375 215.489503 
L 187.620575 213.850385 
L 190.024775 211.740439 
L 192.428975 209.656583 
L 194.833175 210.185189 
L 197.237375 212.262848 
L 199.641575 214.247058 
L 202.045775 206.464748 
L 204.449975 209.492397 
L 206.854175 215.94024 
L 209.258375 212.628732 
L 211.662575 216.164758 
L 214.066775 213.19161 
L 216.470975 210.770587 
L 218.875175 210.61886 
L 221.279375 211.519026 
L 223.683575 212.7432 
L 226.087775 210.905942 
L 228.491975 210.33857 
L 230.896175 214.387716 
L 233.300375 204.73532 
L 235.704575 176.693844 
L 238.108775 200.841286 
L 240.512975 207.814975 
L 242.917175 210.889176 
L 245.321375 202.206415 
L 247.725575 205.417317 
L 250.129775 212.086685 
L 252.533975 216.68422 
L 254.938175 213.199713 
L 257.342375 214.682286 
L 259.746575 215.662137 
L 262.150775 217.532956 
L 264.554975 220.26771 
L 266.959175 219.586091 
L 269.363375 215.630898 
L 271.767575 218.244337 
L 274.171775 215.029509 
L 276.575975 215.386731 
L 278.980175 213.343223 
L 281.384375 211.287113 
" style="fill:none;stroke:#d62728;stroke-dasharray:2,3.3;stroke-dashoffset:0;stroke-width:2;"/>
   </g>
   <g id="patch_3">
    <path d="M 40.964375 286.929375 
L 40.964375 21.789375 
" style="fill:none;stroke:#262626;stroke-linecap:square;stroke-linejoin:miter;stroke-width:1.25;"/>
   </g>
   <g id="patch_4">
    <path d="M 281.384375 286.929375 
L 281.384375 21.789375 
" style="fill:none;stroke:#262626;stroke-linecap:square;stroke-linejoin:miter;stroke-width:1.25;"/>
   </g>
   <g id="patch_5">
    <path d="M 40.964375 286.929375 
L 281.384375 286.929375 
" style="fill:none;stroke:#262626;stroke-linecap:square;stroke-linejoin:miter;stroke-width:1.25;"/>
   </g>
   <g id="patch_6">
    <path d="M 40.964375 21.789375 
L 281.384375 21.789375 
" style="fill:none;stroke:#262626;stroke-linecap:square;stroke-linejoin:miter;stroke-width:1.25;"/>
   </g>
   <g id="text_20">
    <!-- Validation History -->
    <defs>
     <path d="M 28.171875 0 
L 0.4375 71.578125 
L 10.6875 71.578125 
L 29.296875 19.578125 
Q 31.546875 13.328125 33.0625 7.859375 
Q 34.71875 13.71875 36.921875 19.578125 
L 56.25 71.578125 
L 65.921875 71.578125 
L 37.890625 0 
z
" id="ArialMT-86"/>
     <path d="M 40.4375 6.390625 
Q 35.546875 2.25 31.03125 0.53125 
Q 26.515625 -1.171875 21.34375 -1.171875 
Q 12.796875 -1.171875 8.203125 3 
Q 3.609375 7.171875 3.609375 13.671875 
Q 3.609375 17.484375 5.34375 20.625 
Q 7.078125 23.78125 9.890625 25.6875 
Q 12.703125 27.59375 16.21875 28.5625 
Q 18.796875 29.25 24.03125 29.890625 
Q 34.671875 31.15625 39.703125 32.90625 
Q 39.75 34.71875 39.75 35.203125 
Q 39.75 40.578125 37.25 42.78125 
Q 33.890625 45.75 27.25 45.75 
Q 21.046875 45.75 18.09375 43.578125 
Q 15.140625 41.40625 13.71875 35.890625 
L 5.125 37.0625 
Q 6.296875 42.578125 8.984375 45.96875 
Q 11.671875 49.359375 16.75 51.1875 
Q 21.828125 53.03125 28.515625 53.03125 
Q 35.15625 53.03125 39.296875 51.46875 
Q 43.453125 49.90625 45.40625 47.53125 
Q 47.359375 45.171875 48.140625 41.546875 
Q 48.578125 39.3125 48.578125 33.453125 
L 48.578125 21.734375 
Q 48.578125 9.46875 49.140625 6.21875 
Q 49.703125 2.984375 51.375 0 
L 42.1875 0 
Q 40.828125 2.734375 40.4375 6.390625 
z
M 39.703125 26.03125 
Q 34.90625 24.078125 25.34375 22.703125 
Q 19.921875 21.921875 17.671875 20.9375 
Q 15.4375 19.96875 14.203125 18.09375 
Q 12.984375 16.21875 12.984375 13.921875 
Q 12.984375 10.40625 15.640625 8.0625 
Q 18.3125 5.71875 23.4375 5.71875 
Q 28.515625 5.71875 32.46875 7.9375 
Q 36.421875 10.15625 38.28125 14.015625 
Q 39.703125 17 39.703125 22.796875 
z
" id="ArialMT-97"/>
     <path d="M 6.390625 0 
L 6.390625 71.578125 
L 15.1875 71.578125 
L 15.1875 0 
z
" id="ArialMT-108"/>
     <path d="M 6.640625 61.46875 
L 6.640625 71.578125 
L 15.4375 71.578125 
L 15.4375 61.46875 
z
M 6.640625 0 
L 6.640625 51.859375 
L 15.4375 51.859375 
L 15.4375 0 
z
" id="ArialMT-105"/>
     <path d="M 40.234375 0 
L 40.234375 6.546875 
Q 35.296875 -1.171875 25.734375 -1.171875 
Q 19.53125 -1.171875 14.328125 2.25 
Q 9.125 5.671875 6.265625 11.796875 
Q 3.421875 17.921875 3.421875 25.875 
Q 3.421875 33.640625 6 39.96875 
Q 8.59375 46.296875 13.765625 49.65625 
Q 18.953125 53.03125 25.34375 53.03125 
Q 30.03125 53.03125 33.6875 51.046875 
Q 37.359375 49.078125 39.65625 45.90625 
L 39.65625 71.578125 
L 48.390625 71.578125 
L 48.390625 0 
z
M 12.453125 25.875 
Q 12.453125 15.921875 16.640625 10.984375 
Q 20.84375 6.0625 26.5625 6.0625 
Q 32.328125 6.0625 36.34375 10.765625 
Q 40.375 15.484375 40.375 25.140625 
Q 40.375 35.796875 36.265625 40.765625 
Q 32.171875 45.75 26.171875 45.75 
Q 20.3125 45.75 16.375 40.96875 
Q 12.453125 36.1875 12.453125 25.875 
z
" id="ArialMT-100"/>
     <path d="M 25.78125 7.859375 
L 27.046875 0.09375 
Q 23.34375 -0.6875 20.40625 -0.6875 
Q 15.625 -0.6875 12.984375 0.828125 
Q 10.359375 2.34375 9.28125 4.8125 
Q 8.203125 7.28125 8.203125 15.1875 
L 8.203125 45.015625 
L 1.765625 45.015625 
L 1.765625 51.859375 
L 8.203125 51.859375 
L 8.203125 64.703125 
L 16.9375 69.96875 
L 16.9375 51.859375 
L 25.78125 51.859375 
L 25.78125 45.015625 
L 16.9375 45.015625 
L 16.9375 14.703125 
Q 16.9375 10.9375 17.40625 9.859375 
Q 17.875 8.796875 18.921875 8.15625 
Q 19.96875 7.515625 21.921875 7.515625 
Q 23.390625 7.515625 25.78125 7.859375 
z
" id="ArialMT-116"/>
     <path d="M 6.59375 0 
L 6.59375 51.859375 
L 14.5 51.859375 
L 14.5 44.484375 
Q 20.21875 53.03125 31 53.03125 
Q 35.6875 53.03125 39.625 51.34375 
Q 43.5625 49.65625 45.515625 46.921875 
Q 47.46875 44.1875 48.25 40.4375 
Q 48.734375 37.984375 48.734375 31.890625 
L 48.734375 0 
L 39.9375 0 
L 39.9375 31.546875 
Q 39.9375 36.921875 38.90625 39.578125 
Q 37.890625 42.234375 35.28125 43.8125 
Q 32.671875 45.40625 29.15625 45.40625 
Q 23.53125 45.40625 19.453125 41.84375 
Q 15.375 38.28125 15.375 28.328125 
L 15.375 0 
z
" id="ArialMT-110"/>
     <path id="ArialMT-32"/>
     <path d="M 8.015625 0 
L 8.015625 71.578125 
L 17.484375 71.578125 
L 17.484375 42.1875 
L 54.6875 42.1875 
L 54.6875 71.578125 
L 64.15625 71.578125 
L 64.15625 0 
L 54.6875 0 
L 54.6875 33.734375 
L 17.484375 33.734375 
L 17.484375 0 
z
" id="ArialMT-72"/>
     <path d="M 6.5 0 
L 6.5 51.859375 
L 14.40625 51.859375 
L 14.40625 44 
Q 17.4375 49.515625 20 51.265625 
Q 22.5625 53.03125 25.640625 53.03125 
Q 30.078125 53.03125 34.671875 50.203125 
L 31.640625 42.046875 
Q 28.421875 43.953125 25.203125 43.953125 
Q 22.3125 43.953125 20.015625 42.21875 
Q 17.71875 40.484375 16.75 37.40625 
Q 15.28125 32.71875 15.28125 27.15625 
L 15.28125 0 
z
" id="ArialMT-114"/>
     <path d="M 6.203125 -19.96875 
L 5.21875 -11.71875 
Q 8.109375 -12.5 10.25 -12.5 
Q 13.1875 -12.5 14.9375 -11.515625 
Q 16.703125 -10.546875 17.828125 -8.796875 
Q 18.65625 -7.46875 20.515625 -2.25 
Q 20.75 -1.515625 21.296875 -0.09375 
L 1.609375 51.859375 
L 11.078125 51.859375 
L 21.875 21.828125 
Q 23.96875 16.109375 25.640625 9.8125 
Q 27.15625 15.875 29.25 21.625 
L 40.328125 51.859375 
L 49.125 51.859375 
L 29.390625 -0.875 
Q 26.21875 -9.421875 24.46875 -12.640625 
Q 22.125 -17 19.09375 -19.015625 
Q 16.0625 -21.046875 11.859375 -21.046875 
Q 9.328125 -21.046875 6.203125 -19.96875 
z
" id="ArialMT-121"/>
    </defs>
    <g style="fill:#262626;" transform="translate(114.495312 15.789375)scale(0.12 -0.12)">
     <use xlink:href="#ArialMT-86"/>
     <use x="66.589844" xlink:href="#ArialMT-97"/>
     <use x="122.205078" xlink:href="#ArialMT-108"/>
     <use x="144.421875" xlink:href="#ArialMT-105"/>
     <use x="166.638672" xlink:href="#ArialMT-100"/>
     <use x="222.253906" xlink:href="#ArialMT-97"/>
     <use x="277.869141" xlink:href="#ArialMT-116"/>
     <use x="305.652344" xlink:href="#ArialMT-105"/>
     <use x="327.869141" xlink:href="#ArialMT-111"/>
     <use x="383.484375" xlink:href="#ArialMT-110"/>
     <use x="439.099609" xlink:href="#ArialMT-32"/>
     <use x="466.882812" xlink:href="#ArialMT-72"/>
     <use x="539.099609" xlink:href="#ArialMT-105"/>
     <use x="561.316406" xlink:href="#ArialMT-115"/>
     <use x="611.316406" xlink:href="#ArialMT-116"/>
     <use x="639.099609" xlink:href="#ArialMT-111"/>
     <use x="694.714844" xlink:href="#ArialMT-114"/>
     <use x="728.015625" xlink:href="#ArialMT-121"/>
    </g>
   </g>
  </g>
  <g id="axes_2">
   <g id="matplotlib.axis_3">
    <g id="ytick_7">
     <g id="line2d_11"/>
     <g id="text_21">
      <!-- 0.0 -->
      <g style="fill:#262626;" transform="translate(284.884375 290.866172)scale(0.11 -0.11)">
       <use xlink:href="#Arial-BoldMT-48"/>
       <use x="55.615234" xlink:href="#Arial-BoldMT-46"/>
       <use x="83.398438" xlink:href="#Arial-BoldMT-48"/>
      </g>
     </g>
    </g>
    <g id="ytick_8">
     <g id="line2d_12"/>
     <g id="text_22">
      <!-- 0.2 -->
      <g style="fill:#262626;" transform="translate(284.884375 237.838172)scale(0.11 -0.11)">
       <use xlink:href="#Arial-BoldMT-48"/>
       <use x="55.615234" xlink:href="#Arial-BoldMT-46"/>
       <use x="83.398438" xlink:href="#Arial-BoldMT-50"/>
      </g>
     </g>
    </g>
    <g id="ytick_9">
     <g id="line2d_13"/>
     <g id="text_23">
      <!-- 0.4 -->
      <g style="fill:#262626;" transform="translate(284.884375 184.810172)scale(0.11 -0.11)">
       <use xlink:href="#Arial-BoldMT-48"/>
       <use x="55.615234" xlink:href="#Arial-BoldMT-46"/>
       <use x="83.398438" xlink:href="#Arial-BoldMT-52"/>
      </g>
     </g>
    </g>
    <g id="ytick_10">
     <g id="line2d_14"/>
     <g id="text_24">
      <!-- 0.6 -->
      <g style="fill:#262626;" transform="translate(284.884375 131.782172)scale(0.11 -0.11)">
       <use xlink:href="#Arial-BoldMT-48"/>
       <use x="55.615234" xlink:href="#Arial-BoldMT-46"/>
       <use x="83.398438" xlink:href="#Arial-BoldMT-54"/>
      </g>
     </g>
    </g>
    <g id="ytick_11">
     <g id="line2d_15"/>
     <g id="text_25">
      <!-- 0.8 -->
      <g style="fill:#262626;" transform="translate(284.884375 78.754172)scale(0.11 -0.11)">
       <use xlink:href="#Arial-BoldMT-48"/>
       <use x="55.615234" xlink:href="#Arial-BoldMT-46"/>
       <use x="83.398438" xlink:href="#Arial-BoldMT-56"/>
      </g>
     </g>
    </g>
    <g id="ytick_12">
     <g id="line2d_16"/>
     <g id="text_26">
      <!-- 1.0 -->
      <g style="fill:#262626;" transform="translate(284.884375 25.726172)scale(0.11 -0.11)">
       <use xlink:href="#Arial-BoldMT-49"/>
       <use x="55.615234" xlink:href="#Arial-BoldMT-46"/>
       <use x="83.398438" xlink:href="#Arial-BoldMT-48"/>
      </g>
     </g>
    </g>
    <g id="text_27">
     <!-- Accuracy -->
     <defs>
      <path d="M -0.140625 0 
L 27.34375 71.578125 
L 37.546875 71.578125 
L 66.84375 0 
L 56.0625 0 
L 47.703125 21.6875 
L 17.78125 21.6875 
L 9.90625 0 
z
M 20.515625 29.390625 
L 44.78125 29.390625 
L 37.3125 49.21875 
Q 33.890625 58.25 32.234375 64.0625 
Q 30.859375 57.171875 28.375 50.390625 
z
" id="ArialMT-65"/>
      <path d="M 40.578125 0 
L 40.578125 7.625 
Q 34.515625 -1.171875 24.125 -1.171875 
Q 19.53125 -1.171875 15.546875 0.578125 
Q 11.578125 2.34375 9.640625 5 
Q 7.71875 7.671875 6.9375 11.53125 
Q 6.390625 14.109375 6.390625 19.734375 
L 6.390625 51.859375 
L 15.1875 51.859375 
L 15.1875 23.09375 
Q 15.1875 16.21875 15.71875 13.8125 
Q 16.546875 10.359375 19.234375 8.375 
Q 21.921875 6.390625 25.875 6.390625 
Q 29.828125 6.390625 33.296875 8.421875 
Q 36.765625 10.453125 38.203125 13.9375 
Q 39.65625 17.4375 39.65625 24.078125 
L 39.65625 51.859375 
L 48.4375 51.859375 
L 48.4375 0 
z
" id="ArialMT-117"/>
     </defs>
     <g style="fill:#262626;" transform="translate(312.76375 179.0325)rotate(-90)scale(0.12 -0.12)">
      <use xlink:href="#ArialMT-65"/>
      <use x="66.699219" xlink:href="#ArialMT-99"/>
      <use x="116.699219" xlink:href="#ArialMT-99"/>
      <use x="166.699219" xlink:href="#ArialMT-117"/>
      <use x="222.314453" xlink:href="#ArialMT-114"/>
      <use x="255.615234" xlink:href="#ArialMT-97"/>
      <use x="311.230469" xlink:href="#ArialMT-99"/>
      <use x="361.230469" xlink:href="#ArialMT-121"/>
     </g>
    </g>
   </g>
   <g id="line2d_17">
    <path clip-path="url(#p304cff45ee)" d="M 43.368575 50.584153 
L 45.772775 75.102468 
L 48.176975 74.247179 
L 50.581175 62.27311 
L 52.985375 62.843303 
L 55.389575 57.711566 
L 57.793775 52.579829 
L 60.197975 50.01396 
L 62.602175 47.733188 
L 65.006375 46.30769 
L 67.410575 45.167304 
L 69.814775 44.312014 
L 72.218975 44.597111 
L 74.623175 43.741821 
L 77.027375 43.741821 
L 79.431575 43.456725 
L 81.835775 43.741821 
L 84.239975 43.741821 
L 86.644175 43.171628 
L 89.048375 42.886532 
L 91.452575 43.456725 
L 93.856775 43.456725 
L 96.260975 42.886532 
L 98.665175 43.171628 
L 101.069375 42.886532 
L 103.473575 42.031242 
L 105.877775 42.601435 
L 108.281975 42.886532 
L 110.686175 42.601435 
L 113.090375 43.171628 
L 115.494575 42.601435 
L 117.898775 42.886532 
L 120.302975 42.601435 
L 122.707175 42.886532 
L 125.111375 42.886532 
L 127.515575 42.601435 
L 129.919775 42.031242 
L 132.323975 42.031242 
L 134.728175 41.461049 
L 137.132375 42.031242 
L 139.536575 42.316339 
L 141.940775 42.316339 
L 144.344975 42.601435 
L 146.749175 42.031242 
L 149.153375 42.316339 
L 151.557575 41.746146 
L 153.961775 42.316339 
L 156.365975 41.746146 
L 158.770175 41.461049 
L 161.174375 41.746146 
L 163.578575 41.461049 
L 165.982775 41.461049 
L 168.386975 41.746146 
L 170.791175 42.031242 
L 173.195375 41.461049 
L 175.599575 41.461049 
L 178.003775 41.461049 
L 180.407975 41.746146 
L 182.812175 42.031242 
L 185.216375 40.890856 
L 187.620575 41.175953 
L 190.024775 40.890856 
L 192.428975 41.461049 
L 194.833175 40.60576 
L 197.237375 41.175953 
L 199.641575 41.175953 
L 202.045775 40.890856 
L 204.449975 40.890856 
L 206.854175 40.890856 
L 209.258375 40.890856 
L 211.662575 40.890856 
L 214.066775 40.890856 
L 216.470975 40.320663 
L 218.875175 40.60576 
L 221.279375 40.60576 
L 223.683575 41.175953 
L 226.087775 41.175953 
L 228.491975 41.461049 
L 230.896175 40.890856 
L 233.300375 40.60576 
L 235.704575 40.60576 
L 238.108775 41.175953 
L 240.512975 40.890856 
L 242.917175 41.175953 
L 245.321375 40.890856 
L 247.725575 40.890856 
L 250.129775 41.175953 
L 252.533975 41.175953 
L 254.938175 40.890856 
L 257.342375 40.890856 
L 259.746575 40.890856 
L 262.150775 41.175953 
L 264.554975 40.035567 
L 266.959175 40.320663 
L 269.363375 40.60576 
L 271.767575 40.60576 
L 274.171775 40.890856 
L 276.575975 41.175953 
L 278.980175 40.60576 
L 281.384375 40.60576 
" style="fill:none;stroke:#1f77b4;stroke-dasharray:7.4,3.2;stroke-dashoffset:0;stroke-width:2;"/>
   </g>
   <g id="line2d_18">
    <path clip-path="url(#p304cff45ee)" d="M 43.368575 21.789375 
L 45.772775 21.789375 
L 48.176975 21.789375 
L 50.581175 21.789375 
L 52.985375 21.789375 
L 55.389575 21.789375 
L 57.793775 21.789375 
L 60.197975 21.789375 
L 62.602175 21.789375 
L 65.006375 21.789375 
L 67.410575 21.789375 
L 69.814775 21.789375 
L 72.218975 21.789375 
L 74.623175 21.789375 
L 77.027375 21.789375 
L 79.431575 21.789375 
L 81.835775 21.789375 
L 84.239975 21.789375 
L 86.644175 21.789375 
L 89.048375 21.789375 
L 91.452575 21.789375 
L 93.856775 21.789375 
L 96.260975 21.789375 
L 98.665175 21.789375 
L 101.069375 21.789375 
L 103.473575 21.789375 
L 105.877775 21.789375 
L 108.281975 21.789375 
L 110.686175 21.789375 
L 113.090375 21.789375 
L 115.494575 21.789375 
L 117.898775 21.789375 
L 120.302975 21.789375 
L 122.707175 21.789375 
L 125.111375 21.789375 
L 127.515575 21.789375 
L 129.919775 21.789375 
L 132.323975 21.789375 
L 134.728175 21.789375 
L 137.132375 21.789375 
L 139.536575 21.789375 
L 141.940775 21.789375 
L 144.344975 21.789375 
L 146.749175 21.789375 
L 149.153375 21.789375 
L 151.557575 21.789375 
L 153.961775 21.789375 
L 156.365975 21.789375 
L 158.770175 21.789375 
L 161.174375 22.074472 
L 163.578575 23.499954 
L 165.982775 21.789375 
L 168.386975 22.074472 
L 170.791175 25.210533 
L 173.195375 26.921112 
L 175.599575 23.214858 
L 178.003775 22.074472 
L 180.407975 22.074472 
L 182.812175 22.074472 
L 185.216375 22.074472 
L 187.620575 22.074472 
L 190.024775 22.074472 
L 192.428975 22.074472 
L 194.833175 22.074472 
L 197.237375 22.074472 
L 199.641575 22.074472 
L 202.045775 22.074472 
L 204.449975 22.074472 
L 206.854175 22.359568 
L 209.258375 26.065823 
L 211.662575 38.895181 
L 214.066775 46.022593 
L 216.470975 40.035567 
L 218.875175 40.890856 
L 221.279375 40.890856 
L 223.683575 42.886532 
L 226.087775 35.188926 
L 228.491975 33.478347 
L 230.896175 37.469698 
L 233.300375 33.763444 
L 235.704575 40.035567 
L 238.108775 33.763444 
L 240.512975 40.320663 
L 242.917175 33.763444 
L 245.321375 29.201884 
L 247.725575 38.324988 
L 250.129775 31.482672 
L 252.533975 38.039891 
L 254.938175 37.469698 
L 257.342375 36.899505 
L 259.746575 31.767768 
L 262.150775 29.772077 
L 264.554975 29.772077 
L 266.959175 27.776402 
L 269.363375 34.90383 
L 271.767575 38.039891 
L 274.171775 32.337961 
L 276.575975 30.342286 
L 278.980175 32.337961 
L 281.384375 27.776402 
" style="fill:none;stroke:#1f77b4;stroke-linecap:round;stroke-width:2;"/>
   </g>
   <g id="line2d_19">
    <path clip-path="url(#p304cff45ee)" d="M 43.368575 26.217475 
L 45.772775 25.845938 
L 48.176975 25.85352 
L 50.581175 25.686708 
L 52.985375 25.88385 
L 55.389575 26.8089 
L 57.793775 26.467692 
L 60.197975 25.891433 
L 62.602175 25.861102 
L 65.006375 25.823192 
L 67.410575 44.263493 
L 69.814775 26.323627 
L 72.218975 25.990004 
L 74.623175 25.81561 
L 77.027375 25.75495 
L 79.431575 25.626048 
L 81.835775 25.641215 
L 84.239975 38.37958 
L 86.644175 26.376705 
L 89.048375 28.386029 
L 91.452575 26.080991 
L 93.856775 26.035497 
L 96.260975 25.823191 
L 98.665175 25.694292 
L 101.069375 25.770115 
L 103.473575 25.694292 
L 105.877775 29.273166 
L 108.281975 26.702743 
L 110.686175 26.642087 
L 113.090375 25.974839 
L 115.494575 25.88385 
L 117.898775 26.149233 
L 120.302975 73.971183 
L 122.707175 38.789028 
L 125.111375 26.596591 
L 127.515575 32.05589 
L 129.919775 65.767068 
L 132.323975 38.447822 
L 134.728175 34.133458 
L 137.132375 64.478068 
L 139.536575 47.432918 
L 141.940775 33.633023 
L 144.344975 30.038985 
L 146.749175 29.409648 
L 149.153375 28.712072 
L 151.557575 27.536806 
L 153.961775 27.021204 
L 156.365975 27.203182 
L 158.770175 28.719654 
L 161.174375 28.522513 
L 163.578575 39.539684 
L 165.982775 31.79051 
L 168.386975 28.598335 
L 170.791175 27.415488 
L 173.195375 27.460982 
L 175.599575 45.074805 
L 178.003775 27.589882 
L 180.407975 27.551968 
L 182.812175 28.325372 
L 185.216375 26.733075 
L 187.620575 47.903027 
L 190.024775 31.676774 
L 192.428975 29.712942 
L 194.833175 30.448432 
L 197.237375 27.817353 
L 199.641575 28.120647 
L 202.045775 27.059119 
L 204.449975 26.050663 
L 206.854175 26.97571 
L 209.258375 26.573846 
L 211.662575 26.217474 
L 214.066775 26.626921 
L 216.470975 27.059115 
L 218.875175 28.787895 
L 221.279375 26.755821 
L 223.683575 26.505606 
L 226.087775 26.247804 
L 228.491975 25.762533 
L 230.896175 25.830773 
L 233.300375 29.970741 
L 235.704575 68.375401 
L 238.108775 28.909212 
L 240.512975 27.134941 
L 242.917175 26.808898 
L 245.321375 26.755822 
L 247.725575 40.404072 
L 250.129775 26.998455 
L 252.533975 25.823191 
L 254.938175 27.862848 
L 257.342375 26.907469 
L 259.746575 26.20231 
L 262.150775 26.338792 
L 264.554975 26.209894 
L 266.959175 25.906596 
L 269.363375 28.977454 
L 271.767575 25.762532 
L 274.171775 25.512314 
L 276.575975 32.66248 
L 278.980175 27.286586 
L 281.384375 26.68758 
" style="fill:none;stroke:#ff7f0e;stroke-dasharray:7.4,3.2;stroke-dashoffset:0;stroke-width:2;"/>
   </g>
   <g id="line2d_20">
    <path clip-path="url(#p304cff45ee)" d="M 43.368575 21.963769 
L 45.772775 21.918275 
L 48.176975 22.358052 
L 50.581175 22.395962 
L 52.985375 22.7675 
L 55.389575 22.577942 
L 57.793775 21.956187 
L 60.197975 21.9941 
L 62.602175 22.069923 
L 65.006375 22.153328 
L 67.410575 24.572101 
L 69.814775 25.08012 
L 72.218975 23.199693 
L 74.623175 24.003425 
L 77.027375 22.206409 
L 79.431575 21.925857 
L 81.835775 22.373218 
L 84.239975 22.31256 
L 86.644175 23.31343 
L 89.048375 28.067571 
L 91.452575 23.321012 
L 93.856775 22.062342 
L 96.260975 22.623435 
L 98.665175 24.170237 
L 101.069375 23.298264 
L 103.473575 22.229153 
L 105.877775 22.160912 
L 108.281975 22.198822 
L 110.686175 21.918277 
L 113.090375 21.925858 
L 115.494575 21.941023 
L 117.898775 24.124744 
L 120.302975 22.06234 
L 122.707175 22.009265 
L 125.111375 21.887946 
L 127.515575 21.910693 
L 129.919775 22.206406 
L 132.323975 22.107835 
L 134.728175 21.978934 
L 137.132375 21.994099 
L 139.536575 22.145748 
L 141.940775 21.96377 
L 144.344975 21.956187 
L 146.749175 21.941024 
L 149.153375 23.366505 
L 151.557575 23.328594 
L 153.961775 32.943027 
L 156.365975 29.735686 
L 158.770175 26.770985 
L 161.174375 27.953834 
L 163.578575 24.101995 
L 165.982775 25.406163 
L 168.386975 26.020332 
L 170.791175 26.695162 
L 173.195375 26.528352 
L 175.599575 25.072536 
L 178.003775 24.230897 
L 180.407975 23.60156 
L 182.812175 23.95793 
L 185.216375 23.684966 
L 187.620575 28.29504 
L 190.024775 25.830773 
L 192.428975 24.556937 
L 194.833175 22.843325 
L 197.237375 22.251899 
L 199.641575 22.403545 
L 202.045775 22.2519 
L 204.449975 22.160911 
L 206.854175 24.610014 
L 209.258375 22.744754 
L 211.662575 22.532446 
L 214.066775 22.198823 
L 216.470975 22.358054 
L 218.875175 22.47179 
L 221.279375 24.261224 
L 223.683575 40.646707 
L 226.087775 38.326504 
L 228.491975 36.529486 
L 230.896175 33.701264 
L 233.300375 31.638862 
L 235.704575 32.814128 
L 238.108775 31.76018 
L 240.512975 38.326503 
L 242.917175 33.830162 
L 245.321375 29.788768 
L 247.725575 31.146009 
L 250.129775 28.097899 
L 252.533975 31.805672 
L 254.938175 29.045694 
L 257.342375 28.757565 
L 259.746575 29.045695 
L 262.150775 30.008654 
L 264.554975 29.076024 
L 266.959175 26.452526 
L 269.363375 29.136683 
L 271.767575 27.028787 
L 274.171775 26.065827 
L 276.575975 26.187145 
L 278.980175 24.579684 
L 281.384375 28.947122 
" style="fill:none;stroke:#ff7f0e;stroke-linecap:round;stroke-width:2;"/>
   </g>
   <g id="line2d_21">
    <path clip-path="url(#p304cff45ee)" d="M 43.368575 26.385331 
L 45.772775 26.926028 
L 48.176975 26.360756 
L 50.581175 25.844633 
L 52.985375 26.237868 
L 55.389575 25.918365 
L 57.793775 25.230198 
L 60.197975 25.279354 
L 62.602175 25.279353 
L 65.006375 25.353087 
L 67.410575 25.279354 
L 69.814775 25.181045 
L 72.218975 25.40224 
L 74.623175 25.254775 
L 77.027375 25.377663 
L 79.431575 25.574282 
L 81.835775 25.426817 
L 84.239975 26.58195 
L 86.644175 32.947472 
L 89.048375 28.769331 
L 91.452575 29.113412 
L 93.856775 29.260877 
L 96.260975 27.122651 
L 98.665175 25.942938 
L 101.069375 25.672593 
L 103.473575 25.746323 
L 105.877775 25.869206 
L 108.281975 25.623438 
L 110.686175 25.500549 
L 113.090375 25.525126 
L 115.494575 25.598858 
L 117.898775 25.623434 
L 120.302975 25.426817 
L 122.707175 25.426818 
L 125.111375 25.574279 
L 127.515575 25.500549 
L 129.919775 25.574282 
L 132.323975 25.697166 
L 134.728175 27.982858 
L 137.132375 26.926033 
L 139.536575 25.648013 
L 141.940775 25.746323 
L 144.344975 25.475973 
L 146.749175 25.525126 
L 149.153375 25.402239 
L 151.557575 25.525126 
L 153.961775 25.475973 
L 156.365975 25.426815 
L 158.770175 25.451395 
L 161.174375 25.451392 
L 163.578575 25.353084 
L 165.982775 25.30393 
L 168.386975 25.377663 
L 170.791175 25.40224 
L 173.195375 25.426819 
L 175.599575 25.475973 
L 178.003775 25.648014 
L 180.407975 26.606529 
L 182.812175 25.623436 
L 185.216375 26.065825 
L 187.620575 30.93213 
L 190.024775 31.300791 
L 192.428975 29.088834 
L 194.833175 27.810815 
L 197.237375 27.982856 
L 199.641575 26.926031 
L 202.045775 26.532794 
L 204.449975 25.746321 
L 206.854175 25.672591 
L 209.258375 25.451393 
L 211.662575 25.47597 
L 214.066775 25.47597 
L 216.470975 25.451393 
L 218.875175 25.451393 
L 221.279375 25.451393 
L 223.683575 25.47597 
L 226.087775 25.47597 
L 228.491975 25.451393 
L 230.896175 25.451392 
L 233.300375 25.47597 
L 235.704575 25.451393 
L 238.108775 47.570974 
L 240.512975 35.72471 
L 242.917175 29.137994 
L 245.321375 30.809246 
L 247.725575 28.720176 
L 250.129775 25.746323 
L 252.533975 25.623434 
L 254.938175 25.7709 
L 257.342375 25.549704 
L 259.746575 24.959849 
L 262.150775 25.721744 
L 264.554975 25.426817 
L 266.959175 25.328509 
L 269.363375 25.254776 
L 271.767575 25.500549 
L 274.171775 24.763229 
L 276.575975 25.426817 
L 278.980175 25.451395 
L 281.384375 25.549704 
" style="fill:none;stroke:#2ca02c;stroke-dasharray:7.4,3.2;stroke-dashoffset:0;stroke-width:2;"/>
   </g>
   <g id="line2d_22">
    <path clip-path="url(#p304cff45ee)" d="M 43.368575 22.010571 
L 45.772775 21.912264 
L 48.176975 22.059726 
L 50.581175 22.059726 
L 52.985375 21.863108 
L 55.389575 21.863108 
L 57.793775 21.887687 
L 60.197975 21.838531 
L 62.602175 21.838531 
L 65.006375 21.838531 
L 67.410575 21.838531 
L 69.814775 21.863108 
L 72.218975 21.912264 
L 74.623175 21.863108 
L 77.027375 21.96142 
L 79.431575 21.863108 
L 81.835775 21.961417 
L 84.239975 21.912262 
L 86.644175 21.985995 
L 89.048375 21.912262 
L 91.452575 21.838531 
L 93.856775 21.936843 
L 96.260975 21.961417 
L 98.665175 21.887687 
L 101.069375 22.035152 
L 103.473575 21.838531 
L 105.877775 21.863108 
L 108.281975 21.863108 
L 110.686175 22.256345 
L 113.090375 24.271683 
L 115.494575 23.681828 
L 117.898775 22.551274 
L 120.302975 22.723313 
L 122.707175 22.13346 
L 125.111375 22.108882 
L 127.515575 22.133458 
L 129.919775 22.010573 
L 132.323975 22.256344 
L 134.728175 22.108879 
L 137.132375 22.010573 
L 139.536575 22.059729 
L 141.940775 21.985996 
L 144.344975 21.961417 
L 146.749175 21.912264 
L 149.153375 21.93684 
L 151.557575 21.912264 
L 153.961775 21.912264 
L 156.365975 21.93684 
L 158.770175 21.985996 
L 161.174375 21.912264 
L 163.578575 21.863108 
L 165.982775 21.863108 
L 168.386975 21.985996 
L 170.791175 21.961417 
L 173.195375 21.985996 
L 175.599575 22.133458 
L 178.003775 22.133458 
L 180.407975 22.059726 
L 182.812175 22.256344 
L 185.216375 22.3055 
L 187.620575 23.239438 
L 190.024775 22.723315 
L 192.428975 22.403808 
L 194.833175 22.133458 
L 197.237375 22.084305 
L 199.641575 21.887687 
L 202.045775 21.838531 
L 204.449975 21.912264 
L 206.854175 21.912264 
L 209.258375 21.887684 
L 211.662575 21.838531 
L 214.066775 21.838531 
L 216.470975 21.838531 
L 218.875175 21.838531 
L 221.279375 21.838531 
L 223.683575 21.838531 
L 226.087775 21.863108 
L 228.491975 21.838531 
L 230.896175 21.838531 
L 233.300375 21.838531 
L 235.704575 21.838531 
L 238.108775 21.838531 
L 240.512975 21.887687 
L 242.917175 21.863108 
L 245.321375 21.961417 
L 247.725575 22.084304 
L 250.129775 21.863108 
L 252.533975 21.936841 
L 254.938175 26.729413 
L 257.342375 27.245533 
L 259.746575 22.993667 
L 262.150775 22.280924 
L 264.554975 22.084305 
L 266.959175 22.059726 
L 269.363375 21.887684 
L 271.767575 21.863108 
L 274.171775 21.93684 
L 276.575975 22.059726 
L 278.980175 21.93684 
L 281.384375 21.887687 
" style="fill:none;stroke:#2ca02c;stroke-linecap:round;stroke-width:2;"/>
   </g>
   <g id="line2d_23">
    <path clip-path="url(#p304cff45ee)" d="M 43.368575 45.727074 
L 45.772775 32.011137 
L 48.176975 29.964178 
L 50.581175 29.325316 
L 52.985375 28.947217 
L 55.389575 28.908103 
L 57.793775 29.325316 
L 60.197975 29.012407 
L 62.602175 28.569112 
L 65.006375 28.934178 
L 67.410575 28.516966 
L 69.814775 27.278356 
L 72.218975 27.878103 
L 74.623175 28.503925 
L 77.027375 27.539115 
L 79.431575 27.447851 
L 81.835775 28.151901 
L 84.239975 28.191015 
L 86.644175 28.530002 
L 89.048375 27.330509 
L 91.452575 28.360506 
L 93.856775 28.099749 
L 96.260975 27.865065 
L 98.665175 28.217092 
L 101.069375 28.08671 
L 103.473575 27.539118 
L 105.877775 27.708611 
L 108.281975 27.682534 
L 110.686175 30.172786 
L 113.090375 32.949869 
L 115.494575 30.733415 
L 117.898775 27.539115 
L 120.302975 28.803798 
L 122.707175 28.621266 
L 125.111375 28.751649 
L 127.515575 28.29532 
L 129.919775 28.986331 
L 132.323975 28.79076 
L 134.728175 28.530001 
L 137.132375 28.595192 
L 139.536575 28.569114 
L 141.940775 28.490887 
L 144.344975 28.334433 
L 146.749175 28.556077 
L 149.153375 28.360508 
L 151.557575 29.299241 
L 153.961775 29.207974 
L 156.365975 32.610885 
L 158.770175 30.198859 
L 161.174375 29.090635 
L 163.578575 28.282279 
L 165.982775 28.790761 
L 168.386975 28.595193 
L 170.791175 28.477849 
L 173.195375 28.425699 
L 175.599575 28.308356 
L 178.003775 27.956333 
L 180.407975 28.308358 
L 182.812175 27.930256 
L 185.216375 27.721649 
L 187.620575 28.464811 
L 190.024775 28.308356 
L 192.428975 28.125824 
L 194.833175 28.204051 
L 197.237375 28.151901 
L 199.641575 28.269242 
L 202.045775 28.360507 
L 204.449975 26.756838 
L 206.854175 29.364432 
L 209.258375 31.372277 
L 211.662575 31.254935 
L 214.066775 28.973292 
L 216.470975 28.438734 
L 218.875175 28.503926 
L 221.279375 28.543039 
L 223.683575 27.943294 
L 226.087775 27.591269 
L 228.491975 28.490885 
L 230.896175 28.360507 
L 233.300375 28.138862 
L 235.704575 28.556079 
L 238.108775 28.477851 
L 240.512975 28.725569 
L 242.917175 27.669497 
L 245.321375 28.269241 
L 247.725575 26.248358 
L 250.129775 28.46481 
L 252.533975 28.556076 
L 254.938175 26.913291 
L 257.342375 28.712533 
L 259.746575 28.803799 
L 262.150775 28.477851 
L 264.554975 28.41266 
L 266.959175 28.230128 
L 269.363375 28.386585 
L 271.767575 28.360509 
L 274.171775 28.386585 
L 276.575975 28.347471 
L 278.980175 28.334432 
L 281.384375 28.399624 
" style="fill:none;stroke:#d62728;stroke-dasharray:7.4,3.2;stroke-dashoffset:0;stroke-width:2;"/>
   </g>
   <g id="line2d_24">
    <path clip-path="url(#p304cff45ee)" d="M 43.368575 22.206592 
L 45.772775 24.357855 
L 48.176975 25.700764 
L 50.581175 22.741146 
L 52.985375 22.636843 
L 55.389575 22.454311 
L 57.793775 22.363046 
L 60.197975 22.297854 
L 62.602175 22.493427 
L 65.006375 22.584691 
L 67.410575 22.389121 
L 69.814775 22.350007 
L 72.218975 22.519503 
L 74.623175 22.441275 
L 77.027375 22.363046 
L 79.431575 22.92368 
L 81.835775 23.471273 
L 84.239975 22.610769 
L 86.644175 22.467351 
L 89.048375 22.350009 
L 91.452575 22.28482 
L 93.856775 22.454312 
L 96.260975 22.245705 
L 98.665175 22.115325 
L 101.069375 22.115325 
L 103.473575 22.141402 
L 105.877775 22.206588 
L 108.281975 22.154439 
L 110.686175 21.984943 
L 113.090375 22.076211 
L 115.494575 22.128362 
L 117.898775 22.389123 
L 120.302975 22.480386 
L 122.707175 22.480387 
L 125.111375 22.597729 
L 127.515575 23.732032 
L 129.919775 23.679882 
L 132.323975 26.052787 
L 134.728175 24.931522 
L 137.132375 23.30178 
L 139.536575 23.353931 
L 141.940775 30.303163 
L 144.344975 27.108862 
L 146.749175 30.159746 
L 149.153375 27.995444 
L 151.557575 25.844179 
L 153.961775 24.762032 
L 156.365975 25.987599 
L 158.770175 27.356585 
L 161.174375 26.339624 
L 163.578575 26.15709 
L 165.982775 25.453043 
L 168.386975 24.788107 
L 170.791175 25.166206 
L 173.195375 24.670763 
L 175.599575 24.657727 
L 178.003775 23.979754 
L 180.407975 23.849373 
L 182.812175 24.214436 
L 185.216375 23.888488 
L 187.620575 24.214436 
L 190.024775 24.69684 
L 192.428975 24.071017 
L 194.833175 27.226204 
L 197.237375 26.887218 
L 199.641575 26.456966 
L 202.045775 32.063288 
L 204.449975 27.825949 
L 206.854175 25.700766 
L 209.258375 24.90545 
L 211.662575 25.218359 
L 214.066775 25.700763 
L 216.470975 24.970636 
L 218.875175 23.79722 
L 221.279375 23.575575 
L 223.683575 23.523422 
L 226.087775 24.149245 
L 228.491975 23.784184 
L 230.896175 24.110129 
L 233.300375 28.751646 
L 235.704575 40.837837 
L 238.108775 32.076327 
L 240.512975 30.603038 
L 242.917175 35.739997 
L 245.321375 29.820763 
L 247.725575 27.682534 
L 250.129775 26.874183 
L 252.533975 25.870258 
L 254.938175 25.90937 
L 257.342375 25.087979 
L 259.746575 25.192281 
L 262.150775 25.140131 
L 264.554975 24.566461 
L 266.959175 24.110131 
L 269.363375 23.771146 
L 271.767575 23.406085 
L 274.171775 25.687726 
L 276.575975 27.147977 
L 278.980175 26.965445 
L 281.384375 26.522157 
" style="fill:none;stroke:#d62728;stroke-linecap:round;stroke-width:2;"/>
   </g>
   <g id="line2d_25">
    <path clip-path="url(#p304cff45ee)" d="M 65.006375 286.929375 
L 65.006375 21.789375 
" style="fill:none;stroke:#7f7f7f;stroke-dasharray:2,3.3;stroke-dashoffset:0;stroke-width:2;"/>
   </g>
   <g id="line2d_26">
    <path clip-path="url(#p304cff45ee)" d="M 113.090375 286.929375 
L 113.090375 21.789375 
" style="fill:none;stroke:#7f7f7f;stroke-dasharray:2,3.3;stroke-dashoffset:0;stroke-width:2;"/>
   </g>
   <g id="patch_7">
    <path d="M 40.964375 286.929375 
L 40.964375 21.789375 
" style="fill:none;stroke:#262626;stroke-linecap:square;stroke-linejoin:miter;stroke-width:1.25;"/>
   </g>
   <g id="patch_8">
    <path d="M 281.384375 286.929375 
L 281.384375 21.789375 
" style="fill:none;stroke:#262626;stroke-linecap:square;stroke-linejoin:miter;stroke-width:1.25;"/>
   </g>
   <g id="patch_9">
    <path d="M 40.964375 286.929375 
L 281.384375 286.929375 
" style="fill:none;stroke:#262626;stroke-linecap:square;stroke-linejoin:miter;stroke-width:1.25;"/>
   </g>
   <g id="patch_10">
    <path d="M 40.964375 21.789375 
L 281.384375 21.789375 
" style="fill:none;stroke:#262626;stroke-linecap:square;stroke-linejoin:miter;stroke-width:1.25;"/>
   </g>
  </g>
 </g>
 <defs>
  <clipPath id="p304cff45ee">
   <rect height="265.14" width="240.42" x="40.964375" y="21.789375"/>
  </clipPath>
 </defs>
</svg>
