<?xml version="1.0" encoding="utf-8" standalone="no"?>
<!DOCTYPE svg PUBLIC "-//W3C//DTD SVG 1.1//EN"
  "http://www.w3.org/Graphics/SVG/1.1/DTD/svg11.dtd">
<!-- Created with matplotlib (https://matplotlib.org/) -->
<svg height="322.63125pt" version="1.1" viewBox="0 0 322.530547 322.63125" width="322.530547pt" xmlns="http://www.w3.org/2000/svg" xmlns:xlink="http://www.w3.org/1999/xlink">
 <defs>
  <style type="text/css">
*{stroke-linecap:butt;stroke-linejoin:round;}
  </style>
 </defs>
 <g id="figure_1">
  <g id="patch_1">
   <path d="M 0 322.63125 
L 322.530547 322.63125 
L 322.530547 0 
L 0 0 
z
" style="fill:#ffffff;"/>
  </g>
  <g id="axes_1">
   <g id="patch_2">
    <path d="M 41.105 154.359375 
L 306.155 154.359375 
L 306.155 21.789375 
L 41.105 21.789375 
z
" style="fill:#ffffff;"/>
   </g>
   <g id="matplotlib.axis_1">
    <g id="xtick_1"/>
    <g id="xtick_2"/>
    <g id="xtick_3"/>
    <g id="xtick_4"/>
    <g id="xtick_5"/>
    <g id="xtick_6"/>
    <g id="xtick_7"/>
    <g id="xtick_8"/>
    <g id="xtick_9"/>
    <g id="xtick_10"/>
    <g id="xtick_11"/>
   </g>
   <g id="matplotlib.axis_2">
    <g id="ytick_1">
     <g id="text_1">
      <!-- 0.0 -->
      <defs>
       <path d="M 27.4375 71.875 
Q 37.84375 71.875 43.703125 64.453125 
Q 50.6875 55.671875 50.6875 35.296875 
Q 50.6875 14.984375 43.65625 6.109375 
Q 37.84375 -1.21875 27.4375 -1.21875 
Q 17 -1.21875 10.59375 6.8125 
Q 4.203125 14.84375 4.203125 35.453125 
Q 4.203125 55.671875 11.234375 64.546875 
Q 17.046875 71.875 27.4375 71.875 
z
M 27.4375 60.5 
Q 24.953125 60.5 23 58.90625 
Q 21.046875 57.328125 19.96875 53.21875 
Q 18.5625 47.90625 18.5625 35.296875 
Q 18.5625 22.703125 19.828125 17.984375 
Q 21.09375 13.28125 23.015625 11.71875 
Q 24.953125 10.15625 27.4375 10.15625 
Q 29.9375 10.15625 31.890625 11.734375 
Q 33.84375 13.328125 34.90625 17.4375 
Q 36.328125 22.703125 36.328125 35.296875 
Q 36.328125 47.90625 35.0625 52.609375 
Q 33.796875 57.328125 31.859375 58.90625 
Q 29.9375 60.5 27.4375 60.5 
z
" id="Arial-BoldMT-48"/>
       <path d="M 7.171875 0 
L 7.171875 13.71875 
L 20.90625 13.71875 
L 20.90625 0 
z
" id="Arial-BoldMT-46"/>
      </defs>
      <g style="fill:#262626;" transform="translate(22.315 158.296172)scale(0.11 -0.11)">
       <use xlink:href="#Arial-BoldMT-48"/>
       <use x="55.615234" xlink:href="#Arial-BoldMT-46"/>
       <use x="83.398438" xlink:href="#Arial-BoldMT-48"/>
      </g>
     </g>
    </g>
    <g id="ytick_2">
     <g id="text_2">
      <!-- 0.5 -->
      <defs>
       <path d="M 4.4375 18.40625 
L 18.109375 19.828125 
Q 18.703125 15.1875 21.578125 12.46875 
Q 24.46875 9.765625 28.21875 9.765625 
Q 32.515625 9.765625 35.5 13.25 
Q 38.484375 16.75 38.484375 23.78125 
Q 38.484375 30.375 35.515625 33.671875 
Q 32.5625 36.96875 27.828125 36.96875 
Q 21.921875 36.96875 17.234375 31.734375 
L 6.109375 33.34375 
L 13.140625 70.609375 
L 49.421875 70.609375 
L 49.421875 57.765625 
L 23.53125 57.765625 
L 21.390625 45.609375 
Q 25.984375 47.90625 30.765625 47.90625 
Q 39.890625 47.90625 46.234375 41.265625 
Q 52.59375 34.625 52.59375 24.03125 
Q 52.59375 15.1875 47.46875 8.25 
Q 40.484375 -1.21875 28.078125 -1.21875 
Q 18.171875 -1.21875 11.921875 4.09375 
Q 5.671875 9.421875 4.4375 18.40625 
z
" id="Arial-BoldMT-53"/>
      </defs>
      <g style="fill:#262626;" transform="translate(22.315 125.153672)scale(0.11 -0.11)">
       <use xlink:href="#Arial-BoldMT-48"/>
       <use x="55.615234" xlink:href="#Arial-BoldMT-46"/>
       <use x="83.398438" xlink:href="#Arial-BoldMT-53"/>
      </g>
     </g>
    </g>
    <g id="ytick_3">
     <g id="text_3">
      <!-- 1.0 -->
      <defs>
       <path d="M 39.359375 0 
L 25.640625 0 
L 25.640625 51.703125 
Q 18.109375 44.671875 7.90625 41.3125 
L 7.90625 53.765625 
Q 13.28125 55.515625 19.578125 60.421875 
Q 25.875 65.328125 28.21875 71.875 
L 39.359375 71.875 
z
" id="Arial-BoldMT-49"/>
      </defs>
      <g style="fill:#262626;" transform="translate(22.315 92.011172)scale(0.11 -0.11)">
       <use xlink:href="#Arial-BoldMT-49"/>
       <use x="55.615234" xlink:href="#Arial-BoldMT-46"/>
       <use x="83.398438" xlink:href="#Arial-BoldMT-48"/>
      </g>
     </g>
    </g>
    <g id="ytick_4">
     <g id="text_4">
      <!-- 1.5 -->
      <g style="fill:#262626;" transform="translate(22.315 58.868672)scale(0.11 -0.11)">
       <use xlink:href="#Arial-BoldMT-49"/>
       <use x="55.615234" xlink:href="#Arial-BoldMT-46"/>
       <use x="83.398438" xlink:href="#Arial-BoldMT-53"/>
      </g>
     </g>
    </g>
    <g id="ytick_5">
     <g id="text_5">
      <!-- 2.0 -->
      <defs>
       <path d="M 50.59375 12.75 
L 50.59375 0 
L 2.484375 0 
Q 3.265625 7.234375 7.171875 13.703125 
Q 11.078125 20.171875 22.609375 30.859375 
Q 31.890625 39.5 33.984375 42.578125 
Q 36.8125 46.828125 36.8125 50.984375 
Q 36.8125 55.5625 34.34375 58.03125 
Q 31.890625 60.5 27.546875 60.5 
Q 23.25 60.5 20.703125 57.90625 
Q 18.171875 55.328125 17.78125 49.3125 
L 4.109375 50.6875 
Q 5.328125 62.015625 11.765625 66.9375 
Q 18.21875 71.875 27.875 71.875 
Q 38.484375 71.875 44.53125 66.15625 
Q 50.59375 60.453125 50.59375 51.953125 
Q 50.59375 47.125 48.859375 42.75 
Q 47.125 38.375 43.359375 33.59375 
Q 40.875 30.421875 34.375 24.453125 
Q 27.875 18.5 26.140625 16.546875 
Q 24.421875 14.59375 23.34375 12.75 
z
" id="Arial-BoldMT-50"/>
      </defs>
      <g style="fill:#262626;" transform="translate(22.315 25.726172)scale(0.11 -0.11)">
       <use xlink:href="#Arial-BoldMT-50"/>
       <use x="55.615234" xlink:href="#Arial-BoldMT-46"/>
       <use x="83.398438" xlink:href="#Arial-BoldMT-48"/>
      </g>
     </g>
    </g>
    <g id="text_6">
     <!-- MSE -->
     <defs>
      <path d="M 7.078125 0 
L 7.078125 71.578125 
L 28.71875 71.578125 
L 41.703125 22.75 
L 54.546875 71.578125 
L 76.21875 71.578125 
L 76.21875 0 
L 62.796875 0 
L 62.796875 56.34375 
L 48.578125 0 
L 34.671875 0 
L 20.515625 56.34375 
L 20.515625 0 
z
" id="Arial-BoldMT-77"/>
      <path d="M 3.609375 23.296875 
L 17.671875 24.65625 
Q 18.953125 17.578125 22.828125 14.25 
Q 26.703125 10.9375 33.296875 10.9375 
Q 40.28125 10.9375 43.8125 13.890625 
Q 47.359375 16.84375 47.359375 20.796875 
Q 47.359375 23.34375 45.875 25.125 
Q 44.390625 26.90625 40.671875 28.21875 
Q 38.140625 29.109375 29.109375 31.34375 
Q 17.484375 34.234375 12.796875 38.421875 
Q 6.203125 44.34375 6.203125 52.828125 
Q 6.203125 58.296875 9.296875 63.0625 
Q 12.40625 67.828125 18.234375 70.3125 
Q 24.078125 72.796875 32.328125 72.796875 
Q 45.796875 72.796875 52.609375 66.890625 
Q 59.421875 60.984375 59.765625 51.125 
L 45.3125 50.484375 
Q 44.390625 56 41.328125 58.421875 
Q 38.28125 60.84375 32.171875 60.84375 
Q 25.875 60.84375 22.3125 58.25 
Q 20.015625 56.59375 20.015625 53.8125 
Q 20.015625 51.265625 22.171875 49.46875 
Q 24.90625 47.171875 35.453125 44.671875 
Q 46 42.1875 51.046875 39.515625 
Q 56.109375 36.859375 58.953125 32.25 
Q 61.8125 27.640625 61.8125 20.84375 
Q 61.8125 14.703125 58.390625 9.328125 
Q 54.984375 3.953125 48.734375 1.34375 
Q 42.484375 -1.265625 33.15625 -1.265625 
Q 19.578125 -1.265625 12.296875 5 
Q 5.03125 11.28125 3.609375 23.296875 
z
" id="Arial-BoldMT-83"/>
      <path d="M 7.28125 0 
L 7.28125 71.578125 
L 60.359375 71.578125 
L 60.359375 59.46875 
L 21.734375 59.46875 
L 21.734375 43.609375 
L 57.671875 43.609375 
L 57.671875 31.546875 
L 21.734375 31.546875 
L 21.734375 12.0625 
L 61.71875 12.0625 
L 61.71875 0 
z
" id="Arial-BoldMT-69"/>
     </defs>
     <g style="fill:#262626;" transform="translate(15.946875 101.076562)rotate(-90)scale(0.12 -0.12)">
      <use xlink:href="#Arial-BoldMT-77"/>
      <use x="83.300781" xlink:href="#Arial-BoldMT-83"/>
      <use x="150" xlink:href="#Arial-BoldMT-69"/>
     </g>
    </g>
   </g>
   <g id="line2d_1">
    <path clip-path="url(#p0c9ffd7f06)" d="M 43.7555 127.928298 
L 46.406 133.633049 
L 49.0565 130.826848 
L 51.707 139.12427 
L 54.3575 141.812522 
L 57.008 142.691835 
L 59.6585 150.228915 
L 62.309 146.523963 
L 64.9595 149.806863 
L 67.61 149.258916 
L 70.2605 148.131257 
L 72.911 148.723107 
L 75.5615 147.039754 
L 78.212 147.080443 
L 80.8625 150.265454 
L 83.513 150.915335 
L 86.1635 146.445046 
L 88.814 150.775656 
L 91.4645 150.328354 
L 94.115 151.290146 
L 96.7655 151.545008 
L 99.416 150.171731 
L 102.0665 151.733624 
L 104.717 151.782666 
L 107.3675 150.63857 
L 110.018 152.403655 
L 112.6685 152.438908 
L 115.319 151.889537 
L 117.9695 151.900916 
L 120.62 151.54114 
L 123.2705 151.709694 
L 125.921 150.429817 
L 128.5715 152.294529 
L 131.222 152.860846 
L 133.8725 149.736296 
L 136.523 152.589773 
L 139.1735 152.770356 
L 141.824 153.115905 
L 144.4745 152.846601 
L 147.125 151.250809 
L 149.7755 152.633497 
L 152.426 152.329385 
L 155.0765 151.942554 
L 157.727 152.788999 
L 160.3775 152.646024 
L 163.028 153.029414 
L 165.6785 152.686124 
L 168.329 152.297776 
L 170.9795 152.170447 
L 173.63 150.824303 
L 176.2805 152.594383 
L 178.931 152.506301 
L 181.5815 153.206338 
L 184.232 152.883269 
L 186.8825 152.788268 
L 189.533 152.246327 
L 192.1835 152.763176 
L 194.834 151.975242 
L 197.4845 152.412052 
L 200.135 152.632983 
L 202.7855 152.43103 
L 205.436 152.408601 
L 208.0865 152.827777 
L 210.737 152.574791 
L 213.3875 153.098181 
L 216.038 151.929047 
L 218.6885 152.429057 
L 221.339 152.854172 
L 223.9895 152.929435 
L 226.64 151.706791 
L 229.2905 149.614066 
L 231.941 150.305988 
L 234.5915 151.542368 
L 237.242 152.452817 
L 239.8925 152.728085 
L 242.543 153.054337 
L 245.1935 153.109843 
L 247.844 151.852947 
L 250.4945 153.014241 
L 253.145 145.002284 
L 255.7955 152.510623 
L 258.446 153.239687 
L 261.0965 151.901666 
L 263.747 152.4774 
L 266.3975 152.762857 
L 269.048 152.128042 
L 271.6985 152.919343 
L 274.349 152.823741 
L 276.9995 151.127267 
L 279.65 152.529829 
L 282.3005 152.38583 
L 284.951 152.069839 
L 287.6015 153.42993 
L 290.252 153.249686 
L 292.9025 153.216856 
L 295.553 152.759945 
L 298.2035 152.328931 
L 300.854 152.964514 
L 303.5045 153.487088 
L 306.155 152.943231 
" style="fill:none;stroke:#1f77b4;stroke-dasharray:2,3.3;stroke-dashoffset:0;stroke-width:2;"/>
   </g>
   <g id="line2d_2">
    <path clip-path="url(#p0c9ffd7f06)" d="M 67.61 154.359375 
L 67.61 21.789375 
" style="fill:none;stroke:#7f7f7f;stroke-dasharray:2,3.3;stroke-dashoffset:0;stroke-width:2;"/>
   </g>
   <g id="line2d_3">
    <path clip-path="url(#p0c9ffd7f06)" d="M 120.62 154.359375 
L 120.62 21.789375 
" style="fill:none;stroke:#7f7f7f;stroke-dasharray:2,3.3;stroke-dashoffset:0;stroke-width:2;"/>
   </g>
   <g id="line2d_4">
    <path clip-path="url(#p0c9ffd7f06)" d="M 43.7555 148.246872 
L 46.406 151.601148 
L 49.0565 138.467251 
L 51.707 146.104621 
L 54.3575 148.455601 
L 57.008 141.82898 
L 59.6585 152.473795 
L 62.309 142.231219 
L 64.9595 147.429402 
L 67.61 152.185834 
L 70.2605 140.747103 
L 72.911 150.380481 
L 75.5615 148.95992 
L 78.212 152.145408 
L 80.8625 152.208641 
L 83.513 152.703012 
L 86.1635 148.272086 
L 88.814 148.538015 
L 91.4645 151.56778 
L 94.115 148.566429 
L 96.7655 153.160759 
L 99.416 152.861414 
L 102.0665 148.203505 
L 104.717 152.89178 
L 107.3675 150.240568 
L 110.018 150.777472 
L 112.6685 151.445929 
L 115.319 149.943136 
L 117.9695 153.434347 
L 120.62 151.553536 
L 123.2705 152.109333 
L 125.921 152.499088 
L 128.5715 149.807953 
L 131.222 150.235084 
L 133.8725 151.239151 
L 136.523 151.699647 
L 139.1735 153.417889 
L 141.824 153.607637 
L 144.4745 153.33026 
L 147.125 152.952212 
L 149.7755 153.013763 
L 152.426 153.891444 
L 155.0765 152.852032 
L 157.727 151.354895 
L 160.3775 150.294223 
L 163.028 153.659144 
L 165.6785 150.973087 
L 168.329 152.956265 
L 170.9795 153.827237 
L 173.63 153.512632 
L 176.2805 150.424916 
L 178.931 153.720076 
L 181.5815 153.609011 
L 184.232 152.280888 
L 186.8825 153.97571 
L 189.533 152.88709 
L 192.1835 151.81317 
L 194.834 154.067293 
L 197.4845 153.947147 
L 200.135 154.056894 
L 202.7855 153.475746 
L 205.436 152.960697 
L 208.0865 153.820208 
L 210.737 153.983763 
L 213.3875 153.949133 
L 216.038 153.752447 
L 218.6885 153.797752 
L 221.339 153.881344 
L 223.9895 151.814777 
L 226.64 154.016726 
L 229.2905 153.81241 
L 231.941 153.637791 
L 234.5915 154.012434 
L 237.242 153.748087 
L 239.8925 154.112084 
L 242.543 153.453682 
L 245.1935 154.055852 
L 247.844 153.955514 
L 250.4945 153.849561 
L 253.145 153.850203 
L 255.7955 152.761602 
L 258.446 153.564047 
L 261.0965 153.867187 
L 263.747 154.00679 
L 266.3975 153.842409 
L 269.048 153.73841 
L 271.6985 153.920939 
L 274.349 153.971823 
L 276.9995 153.705183 
L 279.65 154.044954 
L 282.3005 154.039823 
L 284.951 154.106936 
L 287.6015 153.937308 
L 290.252 154.027211 
L 292.9025 153.922253 
L 295.553 154.142222 
L 298.2035 154.169874 
L 300.854 154.159233 
L 303.5045 154.031534 
L 306.155 154.126599 
" style="fill:none;stroke:#ff7f0e;stroke-dasharray:2,3.3;stroke-dashoffset:0;stroke-width:2;"/>
   </g>
   <g id="line2d_5">
    <path clip-path="url(#p0c9ffd7f06)" d="M 67.61 154.359375 
L 67.61 21.789375 
" style="fill:none;stroke:#7f7f7f;stroke-dasharray:2,3.3;stroke-dashoffset:0;stroke-width:2;"/>
   </g>
   <g id="line2d_6">
    <path clip-path="url(#p0c9ffd7f06)" d="M 120.62 154.359375 
L 120.62 21.789375 
" style="fill:none;stroke:#7f7f7f;stroke-dasharray:2,3.3;stroke-dashoffset:0;stroke-width:2;"/>
   </g>
   <g id="line2d_7">
    <path clip-path="url(#p0c9ffd7f06)" d="M 43.7555 140.567515 
L 46.406 146.332907 
L 49.0565 149.369415 
L 51.707 147.613035 
L 54.3575 144.504737 
L 57.008 145.370286 
L 59.6585 140.705749 
L 62.309 140.348781 
L 64.9595 150.732679 
L 67.61 133.220952 
L 70.2605 144.667044 
L 72.911 145.035921 
L 75.5615 143.080769 
L 78.212 150.872271 
L 80.8625 148.496576 
L 83.513 149.014273 
L 86.1635 142.519828 
L 88.814 146.922789 
L 91.4645 150.843927 
L 94.115 149.93366 
L 96.7655 150.448286 
L 99.416 151.938296 
L 102.0665 151.987807 
L 104.717 146.190609 
L 107.3675 152.29715 
L 110.018 151.16 
L 112.6685 145.508429 
L 115.319 135.772723 
L 117.9695 151.777911 
L 120.62 150.589822 
L 123.2705 145.80822 
L 125.921 149.089242 
L 128.5715 152.185205 
L 131.222 151.118322 
L 133.8725 135.049737 
L 136.523 150.440267 
L 139.1735 152.190587 
L 141.824 148.697652 
L 144.4745 151.586665 
L 147.125 151.700654 
L 149.7755 139.291066 
L 152.426 150.099322 
L 155.0765 143.281519 
L 157.727 151.735512 
L 160.3775 150.437801 
L 163.028 132.025101 
L 165.6785 152.401364 
L 168.329 152.326478 
L 170.9795 151.290567 
L 173.63 150.883597 
L 176.2805 149.690985 
L 178.931 151.162222 
L 181.5815 152.626817 
L 184.232 146.304863 
L 186.8825 145.741479 
L 189.533 149.241502 
L 192.1835 151.576942 
L 194.834 147.604012 
L 197.4845 150.938583 
L 200.135 149.510184 
L 202.7855 149.828842 
L 205.436 151.941517 
L 208.0865 143.54149 
L 210.737 143.453013 
L 213.3875 150.780478 
L 216.038 150.638183 
L 218.6885 151.570915 
L 221.339 146.028692 
L 223.9895 144.321852 
L 226.64 152.192694 
L 229.2905 152.823801 
L 231.941 150.182258 
L 234.5915 152.073088 
L 237.242 152.105554 
L 239.8925 150.538609 
L 242.543 151.86559 
L 245.1935 153.154544 
L 247.844 145.999031 
L 250.4945 151.581215 
L 253.145 152.331007 
L 255.7955 148.807688 
L 258.446 150.808923 
L 261.0965 150.110577 
L 263.747 150.558143 
L 266.3975 151.071498 
L 269.048 150.589194 
L 271.6985 148.18764 
L 274.349 150.730888 
L 276.9995 141.143361 
L 279.65 148.173978 
L 282.3005 147.094455 
L 284.951 151.148288 
L 287.6015 150.457633 
L 290.252 146.461379 
L 292.9025 150.786372 
L 295.553 152.019079 
L 298.2035 152.471732 
L 300.854 152.900186 
L 303.5045 145.450956 
L 306.155 148.756869 
" style="fill:none;stroke:#2ca02c;stroke-dasharray:2,3.3;stroke-dashoffset:0;stroke-width:2;"/>
   </g>
   <g id="line2d_8">
    <path clip-path="url(#p0c9ffd7f06)" d="M 67.61 154.359375 
L 67.61 21.789375 
" style="fill:none;stroke:#7f7f7f;stroke-dasharray:2,3.3;stroke-dashoffset:0;stroke-width:2;"/>
   </g>
   <g id="line2d_9">
    <path clip-path="url(#p0c9ffd7f06)" d="M 120.62 154.359375 
L 120.62 21.789375 
" style="fill:none;stroke:#7f7f7f;stroke-dasharray:2,3.3;stroke-dashoffset:0;stroke-width:2;"/>
   </g>
   <g id="line2d_10">
    <path clip-path="url(#p0c9ffd7f06)" d="M 43.7555 84.865533 
L 46.406 107.360338 
L 49.0565 112.342826 
L 51.707 120.748932 
L 54.3575 120.28363 
L 57.008 123.198026 
L 59.6585 128.125255 
L 62.309 128.909024 
L 64.9595 128.763649 
L 67.61 127.281 
L 70.2605 131.558011 
L 72.911 132.463417 
L 75.5615 129.487124 
L 78.212 132.741033 
L 80.8625 131.455174 
L 83.513 132.908091 
L 86.1635 133.071577 
L 88.814 134.011215 
L 91.4645 133.874294 
L 94.115 135.041172 
L 96.7655 132.07016 
L 99.416 136.251084 
L 102.0665 134.466095 
L 104.717 136.217945 
L 107.3675 135.999474 
L 110.018 134.056911 
L 112.6685 135.323853 
L 115.319 136.390336 
L 117.9695 135.58786 
L 120.62 134.909103 
L 123.2705 135.35412 
L 125.921 135.574038 
L 128.5715 134.88708 
L 131.222 136.27341 
L 133.8725 134.865998 
L 136.523 135.24889 
L 139.1735 131.90492 
L 141.824 128.272077 
L 144.4745 133.385932 
L 147.125 134.614963 
L 149.7755 133.565262 
L 152.426 133.862032 
L 155.0765 132.292617 
L 157.727 135.389727 
L 160.3775 133.732285 
L 163.028 135.564772 
L 165.6785 134.084167 
L 168.329 133.989135 
L 170.9795 134.280985 
L 173.63 135.236164 
L 176.2805 135.336108 
L 178.931 135.643705 
L 181.5815 136.919039 
L 184.232 134.73367 
L 186.8825 134.88661 
L 189.533 134.055036 
L 192.1835 136.506394 
L 194.834 136.771125 
L 197.4845 136.946776 
L 200.135 137.094235 
L 202.7855 136.622945 
L 205.436 136.016279 
L 208.0865 135.417116 
L 210.737 135.569104 
L 213.3875 136.166486 
L 216.038 136.736999 
L 218.6885 134.499378 
L 221.339 135.369908 
L 223.9895 137.223833 
L 226.64 136.271687 
L 229.2905 137.288388 
L 231.941 136.43353 
L 234.5915 135.737421 
L 237.242 135.693796 
L 239.8925 135.952617 
L 242.543 136.3046 
L 245.1935 135.776339 
L 247.844 135.613205 
L 250.4945 136.777442 
L 253.145 134.002122 
L 255.7955 125.939455 
L 258.446 132.882484 
L 261.0965 134.887605 
L 263.747 135.771519 
L 266.3975 133.274995 
L 269.048 134.198214 
L 271.6985 136.115834 
L 274.349 137.437747 
L 276.9995 136.435859 
L 279.65 136.862138 
L 282.3005 137.143872 
L 284.951 137.681781 
L 287.6015 138.468096 
L 290.252 138.272112 
L 292.9025 137.134889 
L 295.553 137.886323 
L 298.2035 136.961974 
L 300.854 137.064685 
L 303.5045 136.477122 
L 306.155 135.885936 
" style="fill:none;stroke:#d62728;stroke-dasharray:2,3.3;stroke-dashoffset:0;stroke-width:2;"/>
   </g>
   <g id="line2d_11">
    <path clip-path="url(#p0c9ffd7f06)" d="M 67.61 154.359375 
L 67.61 21.789375 
" style="fill:none;stroke:#7f7f7f;stroke-dasharray:2,3.3;stroke-dashoffset:0;stroke-width:2;"/>
   </g>
   <g id="line2d_12">
    <path clip-path="url(#p0c9ffd7f06)" d="M 120.62 154.359375 
L 120.62 21.789375 
" style="fill:none;stroke:#7f7f7f;stroke-dasharray:2,3.3;stroke-dashoffset:0;stroke-width:2;"/>
   </g>
   <g id="patch_3">
    <path d="M 41.105 154.359375 
L 41.105 21.789375 
" style="fill:none;stroke:#262626;stroke-linecap:square;stroke-linejoin:miter;stroke-width:1.25;"/>
   </g>
   <g id="patch_4">
    <path d="M 306.155 154.359375 
L 306.155 21.789375 
" style="fill:none;stroke:#262626;stroke-linecap:square;stroke-linejoin:miter;stroke-width:1.25;"/>
   </g>
   <g id="patch_5">
    <path d="M 41.105 154.359375 
L 306.155 154.359375 
" style="fill:none;stroke:#262626;stroke-linecap:square;stroke-linejoin:miter;stroke-width:1.25;"/>
   </g>
   <g id="patch_6">
    <path d="M 41.105 21.789375 
L 306.155 21.789375 
" style="fill:none;stroke:#262626;stroke-linecap:square;stroke-linejoin:miter;stroke-width:1.25;"/>
   </g>
   <g id="text_7">
    <!-- Validation History -->
    <defs>
     <path d="M 25.53125 0 
L -0.046875 71.578125 
L 15.625 71.578125 
L 33.734375 18.609375 
L 51.265625 71.578125 
L 66.609375 71.578125 
L 40.96875 0 
z
" id="Arial-BoldMT-86"/>
     <path d="M 17.4375 36.03125 
L 4.984375 38.28125 
Q 7.078125 45.796875 12.203125 49.40625 
Q 17.328125 53.03125 27.4375 53.03125 
Q 36.625 53.03125 41.109375 50.859375 
Q 45.609375 48.6875 47.4375 45.34375 
Q 49.265625 42 49.265625 33.0625 
L 49.125 17.046875 
Q 49.125 10.203125 49.78125 6.953125 
Q 50.4375 3.71875 52.25 0 
L 38.671875 0 
Q 38.140625 1.375 37.359375 4.046875 
Q 37.015625 5.28125 36.859375 5.671875 
Q 33.34375 2.25 29.34375 0.53125 
Q 25.34375 -1.171875 20.796875 -1.171875 
Q 12.796875 -1.171875 8.171875 3.171875 
Q 3.5625 7.515625 3.5625 14.15625 
Q 3.5625 18.5625 5.65625 22 
Q 7.765625 25.4375 11.546875 27.265625 
Q 15.328125 29.109375 22.46875 30.46875 
Q 32.078125 32.28125 35.796875 33.84375 
L 35.796875 35.203125 
Q 35.796875 39.15625 33.84375 40.84375 
Q 31.890625 42.53125 26.46875 42.53125 
Q 22.796875 42.53125 20.75 41.09375 
Q 18.703125 39.65625 17.4375 36.03125 
z
M 35.796875 24.90625 
Q 33.15625 24.03125 27.4375 22.796875 
Q 21.734375 21.578125 19.96875 20.40625 
Q 17.28125 18.5 17.28125 15.578125 
Q 17.28125 12.703125 19.421875 10.59375 
Q 21.578125 8.5 24.90625 8.5 
Q 28.609375 8.5 31.984375 10.9375 
Q 34.46875 12.796875 35.25 15.484375 
Q 35.796875 17.234375 35.796875 22.171875 
z
" id="Arial-BoldMT-97"/>
     <path d="M 7.171875 0 
L 7.171875 71.578125 
L 20.90625 71.578125 
L 20.90625 0 
z
" id="Arial-BoldMT-108"/>
     <path d="M 7.171875 58.890625 
L 7.171875 71.578125 
L 20.90625 71.578125 
L 20.90625 58.890625 
z
M 7.171875 0 
L 7.171875 51.859375 
L 20.90625 51.859375 
L 20.90625 0 
z
" id="Arial-BoldMT-105"/>
     <path d="M 54.734375 0 
L 42 0 
L 42 7.625 
Q 38.8125 3.171875 34.484375 1 
Q 30.171875 -1.171875 25.78125 -1.171875 
Q 16.84375 -1.171875 10.46875 6.03125 
Q 4.109375 13.234375 4.109375 26.125 
Q 4.109375 39.3125 10.296875 46.171875 
Q 16.5 53.03125 25.984375 53.03125 
Q 34.671875 53.03125 41.015625 45.796875 
L 41.015625 71.578125 
L 54.734375 71.578125 
z
M 18.109375 27.046875 
Q 18.109375 18.75 20.40625 15.046875 
Q 23.734375 9.671875 29.6875 9.671875 
Q 34.421875 9.671875 37.734375 13.6875 
Q 41.0625 17.71875 41.0625 25.734375 
Q 41.0625 34.671875 37.84375 38.59375 
Q 34.625 42.53125 29.59375 42.53125 
Q 24.703125 42.53125 21.40625 38.640625 
Q 18.109375 34.765625 18.109375 27.046875 
z
" id="Arial-BoldMT-100"/>
     <path d="M 30.953125 51.859375 
L 30.953125 40.921875 
L 21.578125 40.921875 
L 21.578125 20.015625 
Q 21.578125 13.671875 21.84375 12.625 
Q 22.125 11.578125 23.078125 10.890625 
Q 24.03125 10.203125 25.390625 10.203125 
Q 27.296875 10.203125 30.90625 11.53125 
L 32.078125 0.875 
Q 27.296875 -1.171875 21.234375 -1.171875 
Q 17.53125 -1.171875 14.546875 0.0625 
Q 11.578125 1.3125 10.1875 3.296875 
Q 8.796875 5.28125 8.25 8.640625 
Q 7.8125 11.03125 7.8125 18.3125 
L 7.8125 40.921875 
L 1.515625 40.921875 
L 1.515625 51.859375 
L 7.8125 51.859375 
L 7.8125 62.15625 
L 21.578125 70.171875 
L 21.578125 51.859375 
z
" id="Arial-BoldMT-116"/>
     <path d="M 4 26.65625 
Q 4 33.5 7.375 39.890625 
Q 10.75 46.296875 16.921875 49.65625 
Q 23.09375 53.03125 30.71875 53.03125 
Q 42.484375 53.03125 50 45.390625 
Q 57.515625 37.75 57.515625 26.078125 
Q 57.515625 14.3125 49.921875 6.5625 
Q 42.328125 -1.171875 30.8125 -1.171875 
Q 23.6875 -1.171875 17.21875 2.046875 
Q 10.75 5.28125 7.375 11.5 
Q 4 17.71875 4 26.65625 
z
M 18.0625 25.921875 
Q 18.0625 18.21875 21.71875 14.109375 
Q 25.390625 10.015625 30.765625 10.015625 
Q 36.140625 10.015625 39.765625 14.109375 
Q 43.40625 18.21875 43.40625 26.03125 
Q 43.40625 33.640625 39.765625 37.734375 
Q 36.140625 41.84375 30.765625 41.84375 
Q 25.390625 41.84375 21.71875 37.734375 
Q 18.0625 33.640625 18.0625 25.921875 
z
" id="Arial-BoldMT-111"/>
     <path d="M 54.34375 0 
L 40.625 0 
L 40.625 26.46875 
Q 40.625 34.859375 39.75 37.328125 
Q 38.875 39.796875 36.890625 41.15625 
Q 34.90625 42.53125 32.125 42.53125 
Q 28.5625 42.53125 25.734375 40.578125 
Q 22.90625 38.625 21.84375 35.390625 
Q 20.796875 32.171875 20.796875 23.484375 
L 20.796875 0 
L 7.078125 0 
L 7.078125 51.859375 
L 19.828125 51.859375 
L 19.828125 44.234375 
Q 26.609375 53.03125 36.921875 53.03125 
Q 41.453125 53.03125 45.203125 51.390625 
Q 48.96875 49.75 50.890625 47.203125 
Q 52.828125 44.671875 53.578125 41.453125 
Q 54.34375 38.234375 54.34375 32.234375 
z
" id="Arial-BoldMT-110"/>
     <path id="Arial-BoldMT-32"/>
     <path d="M 7.328125 0 
L 7.328125 71.578125 
L 21.78125 71.578125 
L 21.78125 43.40625 
L 50.09375 43.40625 
L 50.09375 71.578125 
L 64.546875 71.578125 
L 64.546875 0 
L 50.09375 0 
L 50.09375 31.296875 
L 21.78125 31.296875 
L 21.78125 0 
z
" id="Arial-BoldMT-72"/>
     <path d="M 2.34375 14.796875 
L 16.109375 16.890625 
Q 17 12.890625 19.671875 10.8125 
Q 22.359375 8.734375 27.203125 8.734375 
Q 32.515625 8.734375 35.203125 10.6875 
Q 37.015625 12.0625 37.015625 14.359375 
Q 37.015625 15.921875 36.03125 16.9375 
Q 35.015625 17.921875 31.453125 18.75 
Q 14.84375 22.40625 10.40625 25.4375 
Q 4.25 29.640625 4.25 37.109375 
Q 4.25 43.84375 9.5625 48.4375 
Q 14.890625 53.03125 26.078125 53.03125 
Q 36.71875 53.03125 41.890625 49.5625 
Q 47.078125 46.09375 49.03125 39.3125 
L 36.078125 36.921875 
Q 35.25 39.9375 32.921875 41.546875 
Q 30.609375 43.171875 26.3125 43.171875 
Q 20.90625 43.171875 18.5625 41.65625 
Q 17 40.578125 17 38.875 
Q 17 37.40625 18.359375 36.375 
Q 20.21875 35.015625 31.171875 32.515625 
Q 42.140625 30.03125 46.484375 26.421875 
Q 50.78125 22.75 50.78125 16.21875 
Q 50.78125 9.078125 44.828125 3.953125 
Q 38.875 -1.171875 27.203125 -1.171875 
Q 16.609375 -1.171875 10.421875 3.125 
Q 4.25 7.421875 2.34375 14.796875 
z
" id="Arial-BoldMT-115"/>
     <path d="M 20.3125 0 
L 6.59375 0 
L 6.59375 51.859375 
L 19.34375 51.859375 
L 19.34375 44.484375 
Q 22.609375 49.703125 25.21875 51.359375 
Q 27.828125 53.03125 31.15625 53.03125 
Q 35.84375 53.03125 40.1875 50.4375 
L 35.9375 38.484375 
Q 32.46875 40.71875 29.5 40.71875 
Q 26.609375 40.71875 24.609375 39.125 
Q 22.609375 37.546875 21.453125 33.390625 
Q 20.3125 29.25 20.3125 16.015625 
z
" id="Arial-BoldMT-114"/>
     <path d="M 0.6875 51.859375 
L 15.28125 51.859375 
L 27.6875 15.046875 
L 39.796875 51.859375 
L 54 51.859375 
L 35.6875 1.953125 
L 32.421875 -7.078125 
Q 30.609375 -11.625 28.96875 -14.015625 
Q 27.34375 -16.40625 25.21875 -17.890625 
Q 23.09375 -19.390625 19.984375 -20.21875 
Q 16.890625 -21.046875 12.984375 -21.046875 
Q 9.03125 -21.046875 5.21875 -20.21875 
L 4 -9.46875 
Q 7.234375 -10.109375 9.8125 -10.109375 
Q 14.59375 -10.109375 16.890625 -7.296875 
Q 19.1875 -4.5 20.40625 -0.140625 
z
" id="Arial-BoldMT-121"/>
    </defs>
    <g style="fill:#262626;" transform="translate(122.629063 15.789375)scale(0.12 -0.12)">
     <use xlink:href="#Arial-BoldMT-86"/>
     <use x="66.621094" xlink:href="#Arial-BoldMT-97"/>
     <use x="122.236328" xlink:href="#Arial-BoldMT-108"/>
     <use x="150.019531" xlink:href="#Arial-BoldMT-105"/>
     <use x="177.802734" xlink:href="#Arial-BoldMT-100"/>
     <use x="238.886719" xlink:href="#Arial-BoldMT-97"/>
     <use x="294.501953" xlink:href="#Arial-BoldMT-116"/>
     <use x="327.802734" xlink:href="#Arial-BoldMT-105"/>
     <use x="355.585938" xlink:href="#Arial-BoldMT-111"/>
     <use x="416.669922" xlink:href="#Arial-BoldMT-110"/>
     <use x="477.753906" xlink:href="#Arial-BoldMT-32"/>
     <use x="505.537109" xlink:href="#Arial-BoldMT-72"/>
     <use x="577.753906" xlink:href="#Arial-BoldMT-105"/>
     <use x="605.537109" xlink:href="#Arial-BoldMT-115"/>
     <use x="661.152344" xlink:href="#Arial-BoldMT-116"/>
     <use x="694.453125" xlink:href="#Arial-BoldMT-111"/>
     <use x="755.537109" xlink:href="#Arial-BoldMT-114"/>
     <use x="794.453125" xlink:href="#Arial-BoldMT-121"/>
    </g>
   </g>
  </g>
  <g id="axes_2">
   <g id="patch_7">
    <path d="M 41.105 286.929375 
L 306.155 286.929375 
L 306.155 154.359375 
L 41.105 154.359375 
z
" style="fill:#ffffff;"/>
   </g>
   <g id="matplotlib.axis_3">
    <g id="xtick_12">
     <g id="text_8">
      <!-- 0 -->
      <g style="fill:#262626;" transform="translate(38.046484 298.302969)scale(0.11 -0.11)">
       <use xlink:href="#Arial-BoldMT-48"/>
      </g>
     </g>
    </g>
    <g id="xtick_13">
     <g id="text_9">
      <!-- 10 -->
      <g style="fill:#262626;" transform="translate(61.492969 298.302969)scale(0.11 -0.11)">
       <use xlink:href="#Arial-BoldMT-49"/>
       <use x="55.615234" xlink:href="#Arial-BoldMT-48"/>
      </g>
     </g>
    </g>
    <g id="xtick_14">
     <g id="text_10">
      <!-- 20 -->
      <g style="fill:#262626;" transform="translate(87.997969 298.302969)scale(0.11 -0.11)">
       <use xlink:href="#Arial-BoldMT-50"/>
       <use x="55.615234" xlink:href="#Arial-BoldMT-48"/>
      </g>
     </g>
    </g>
    <g id="xtick_15">
     <g id="text_11">
      <!-- 30 -->
      <defs>
       <path d="M 3.765625 19 
L 17.046875 20.609375 
Q 17.671875 15.53125 20.453125 12.84375 
Q 23.25 10.15625 27.203125 10.15625 
Q 31.453125 10.15625 34.34375 13.375 
Q 37.25 16.609375 37.25 22.078125 
Q 37.25 27.25 34.46875 30.265625 
Q 31.6875 33.296875 27.6875 33.296875 
Q 25.046875 33.296875 21.390625 32.28125 
L 22.90625 43.453125 
Q 28.46875 43.3125 31.390625 45.875 
Q 34.328125 48.4375 34.328125 52.6875 
Q 34.328125 56.296875 32.171875 58.4375 
Q 30.03125 60.59375 26.46875 60.59375 
Q 22.953125 60.59375 20.453125 58.15625 
Q 17.96875 55.71875 17.4375 51.03125 
L 4.78125 53.171875 
Q 6.109375 59.671875 8.765625 63.546875 
Q 11.421875 67.4375 16.1875 69.65625 
Q 20.953125 71.875 26.859375 71.875 
Q 36.96875 71.875 43.0625 65.4375 
Q 48.09375 60.15625 48.09375 53.515625 
Q 48.09375 44.09375 37.796875 38.484375 
Q 43.953125 37.15625 47.625 32.5625 
Q 51.3125 27.984375 51.3125 21.484375 
Q 51.3125 12.0625 44.421875 5.421875 
Q 37.546875 -1.21875 27.296875 -1.21875 
Q 17.578125 -1.21875 11.171875 4.375 
Q 4.78125 9.96875 3.765625 19 
z
" id="Arial-BoldMT-51"/>
      </defs>
      <g style="fill:#262626;" transform="translate(114.502969 298.302969)scale(0.11 -0.11)">
       <use xlink:href="#Arial-BoldMT-51"/>
       <use x="55.615234" xlink:href="#Arial-BoldMT-48"/>
      </g>
     </g>
    </g>
    <g id="xtick_16">
     <g id="text_12">
      <!-- 40 -->
      <defs>
       <path d="M 31.15625 0 
L 31.15625 14.40625 
L 1.859375 14.40625 
L 1.859375 26.421875 
L 32.90625 71.875 
L 44.4375 71.875 
L 44.4375 26.46875 
L 53.328125 26.46875 
L 53.328125 14.40625 
L 44.4375 14.40625 
L 44.4375 0 
z
M 31.15625 26.46875 
L 31.15625 50.921875 
L 14.703125 26.46875 
z
" id="Arial-BoldMT-52"/>
      </defs>
      <g style="fill:#262626;" transform="translate(141.007969 298.302969)scale(0.11 -0.11)">
       <use xlink:href="#Arial-BoldMT-52"/>
       <use x="55.615234" xlink:href="#Arial-BoldMT-48"/>
      </g>
     </g>
    </g>
    <g id="xtick_17">
     <g id="text_13">
      <!-- 50 -->
      <g style="fill:#262626;" transform="translate(167.512969 298.302969)scale(0.11 -0.11)">
       <use xlink:href="#Arial-BoldMT-53"/>
       <use x="55.615234" xlink:href="#Arial-BoldMT-48"/>
      </g>
     </g>
    </g>
    <g id="xtick_18">
     <g id="text_14">
      <!-- 60 -->
      <defs>
       <path d="M 50.734375 54.046875 
L 37.453125 52.59375 
Q 36.96875 56.6875 34.90625 58.640625 
Q 32.859375 60.59375 29.59375 60.59375 
Q 25.25 60.59375 22.234375 56.6875 
Q 19.234375 52.78125 18.453125 40.4375 
Q 23.578125 46.484375 31.203125 46.484375 
Q 39.796875 46.484375 45.921875 39.9375 
Q 52.046875 33.40625 52.046875 23.046875 
Q 52.046875 12.0625 45.59375 5.421875 
Q 39.15625 -1.21875 29.046875 -1.21875 
Q 18.21875 -1.21875 11.234375 7.203125 
Q 4.25 15.625 4.25 34.8125 
Q 4.25 54.5 11.515625 63.1875 
Q 18.796875 71.875 30.421875 71.875 
Q 38.578125 71.875 43.921875 67.3125 
Q 49.265625 62.75 50.734375 54.046875 
z
M 19.625 24.125 
Q 19.625 17.4375 22.703125 13.796875 
Q 25.78125 10.15625 29.734375 10.15625 
Q 33.546875 10.15625 36.078125 13.125 
Q 38.625 16.109375 38.625 22.90625 
Q 38.625 29.890625 35.890625 33.125 
Q 33.15625 36.375 29.046875 36.375 
Q 25.09375 36.375 22.359375 33.265625 
Q 19.625 30.171875 19.625 24.125 
z
" id="Arial-BoldMT-54"/>
      </defs>
      <g style="fill:#262626;" transform="translate(194.017969 298.302969)scale(0.11 -0.11)">
       <use xlink:href="#Arial-BoldMT-54"/>
       <use x="55.615234" xlink:href="#Arial-BoldMT-48"/>
      </g>
     </g>
    </g>
    <g id="xtick_19">
     <g id="text_15">
      <!-- 70 -->
      <defs>
       <path d="M 4.25 57.859375 
L 4.25 70.609375 
L 51.171875 70.609375 
L 51.171875 60.640625 
Q 45.359375 54.9375 39.34375 44.234375 
Q 33.34375 33.546875 30.1875 21.5 
Q 27.046875 9.46875 27.09375 0 
L 13.875 0 
Q 14.203125 14.84375 19.984375 30.265625 
Q 25.78125 45.703125 35.453125 57.859375 
z
" id="Arial-BoldMT-55"/>
      </defs>
      <g style="fill:#262626;" transform="translate(220.522969 298.302969)scale(0.11 -0.11)">
       <use xlink:href="#Arial-BoldMT-55"/>
       <use x="55.615234" xlink:href="#Arial-BoldMT-48"/>
      </g>
     </g>
    </g>
    <g id="xtick_20">
     <g id="text_16">
      <!-- 80 -->
      <defs>
       <path d="M 16.015625 38.625 
Q 10.6875 40.875 8.265625 44.796875 
Q 5.859375 48.734375 5.859375 53.421875 
Q 5.859375 61.421875 11.453125 66.640625 
Q 17.046875 71.875 27.34375 71.875 
Q 37.546875 71.875 43.1875 66.640625 
Q 48.828125 61.421875 48.828125 53.421875 
Q 48.828125 48.4375 46.234375 44.546875 
Q 43.65625 40.671875 38.96875 38.625 
Q 44.921875 36.234375 48.015625 31.640625 
Q 51.125 27.046875 51.125 21.046875 
Q 51.125 11.140625 44.796875 4.9375 
Q 38.484375 -1.265625 27.984375 -1.265625 
Q 18.21875 -1.265625 11.71875 3.859375 
Q 4.046875 9.90625 4.046875 20.453125 
Q 4.046875 26.265625 6.921875 31.125 
Q 9.8125 35.984375 16.015625 38.625 
z
M 18.84375 52.4375 
Q 18.84375 48.34375 21.15625 46.046875 
Q 23.484375 43.75 27.34375 43.75 
Q 31.25 43.75 33.59375 46.0625 
Q 35.9375 48.390625 35.9375 52.484375 
Q 35.9375 56.34375 33.609375 58.65625 
Q 31.296875 60.984375 27.484375 60.984375 
Q 23.53125 60.984375 21.1875 58.640625 
Q 18.84375 56.296875 18.84375 52.4375 
z
M 17.578125 21.78125 
Q 17.578125 16.109375 20.484375 12.9375 
Q 23.390625 9.765625 27.734375 9.765625 
Q 31.984375 9.765625 34.765625 12.8125 
Q 37.546875 15.875 37.546875 21.625 
Q 37.546875 26.65625 34.71875 29.703125 
Q 31.890625 32.765625 27.546875 32.765625 
Q 22.515625 32.765625 20.046875 29.296875 
Q 17.578125 25.828125 17.578125 21.78125 
z
" id="Arial-BoldMT-56"/>
      </defs>
      <g style="fill:#262626;" transform="translate(247.027969 298.302969)scale(0.11 -0.11)">
       <use xlink:href="#Arial-BoldMT-56"/>
       <use x="55.615234" xlink:href="#Arial-BoldMT-48"/>
      </g>
     </g>
    </g>
    <g id="xtick_21">
     <g id="text_17">
      <!-- 90 -->
      <defs>
       <path d="M 4.546875 16.546875 
L 17.828125 18.015625 
Q 18.3125 13.96875 20.359375 12.015625 
Q 22.40625 10.0625 25.78125 10.0625 
Q 30.03125 10.0625 33 13.96875 
Q 35.984375 17.875 36.8125 30.171875 
Q 31.640625 24.171875 23.875 24.171875 
Q 15.4375 24.171875 9.296875 30.6875 
Q 3.171875 37.203125 3.171875 47.65625 
Q 3.171875 58.546875 9.640625 65.203125 
Q 16.109375 71.875 26.125 71.875 
Q 37.015625 71.875 44 63.453125 
Q 50.984375 55.03125 50.984375 35.75 
Q 50.984375 16.109375 43.703125 7.421875 
Q 36.421875 -1.265625 24.75 -1.265625 
Q 16.359375 -1.265625 11.171875 3.203125 
Q 6 7.671875 4.546875 16.546875 
z
M 35.59375 46.53125 
Q 35.59375 53.171875 32.546875 56.828125 
Q 29.5 60.5 25.484375 60.5 
Q 21.6875 60.5 19.171875 57.5 
Q 16.65625 54.5 16.65625 47.65625 
Q 16.65625 40.71875 19.390625 37.46875 
Q 22.125 34.234375 26.21875 34.234375 
Q 30.171875 34.234375 32.875 37.359375 
Q 35.59375 40.484375 35.59375 46.53125 
z
" id="Arial-BoldMT-57"/>
      </defs>
      <g style="fill:#262626;" transform="translate(273.532969 298.302969)scale(0.11 -0.11)">
       <use xlink:href="#Arial-BoldMT-57"/>
       <use x="55.615234" xlink:href="#Arial-BoldMT-48"/>
      </g>
     </g>
    </g>
    <g id="xtick_22">
     <g id="text_18">
      <!-- 100 -->
      <g style="fill:#262626;" transform="translate(296.979453 298.302969)scale(0.11 -0.11)">
       <use xlink:href="#Arial-BoldMT-49"/>
       <use x="55.615234" xlink:href="#Arial-BoldMT-48"/>
       <use x="111.230469" xlink:href="#Arial-BoldMT-48"/>
      </g>
     </g>
    </g>
    <g id="text_19">
     <!-- Epochs -->
     <defs>
      <path d="M 6.78125 51.859375 
L 19.578125 51.859375 
L 19.578125 44.234375 
Q 22.078125 48.140625 26.3125 50.578125 
Q 30.5625 53.03125 35.75 53.03125 
Q 44.78125 53.03125 51.078125 45.953125 
Q 57.375 38.875 57.375 26.21875 
Q 57.375 13.234375 51.015625 6.03125 
Q 44.671875 -1.171875 35.640625 -1.171875 
Q 31.34375 -1.171875 27.84375 0.53125 
Q 24.359375 2.25 20.515625 6.390625 
L 20.515625 -19.734375 
L 6.78125 -19.734375 
z
M 20.359375 26.8125 
Q 20.359375 18.0625 23.828125 13.890625 
Q 27.296875 9.71875 32.28125 9.71875 
Q 37.0625 9.71875 40.234375 13.546875 
Q 43.40625 17.390625 43.40625 26.125 
Q 43.40625 34.28125 40.125 38.234375 
Q 36.859375 42.1875 32.03125 42.1875 
Q 27 42.1875 23.671875 38.296875 
Q 20.359375 34.421875 20.359375 26.8125 
z
" id="Arial-BoldMT-112"/>
      <path d="M 52.390625 36.53125 
L 38.875 34.078125 
Q 38.1875 38.140625 35.765625 40.1875 
Q 33.34375 42.234375 29.5 42.234375 
Q 24.359375 42.234375 21.3125 38.6875 
Q 18.265625 35.15625 18.265625 26.859375 
Q 18.265625 17.625 21.359375 13.8125 
Q 24.46875 10.015625 29.6875 10.015625 
Q 33.59375 10.015625 36.078125 12.234375 
Q 38.578125 14.453125 39.59375 19.875 
L 53.078125 17.578125 
Q 50.984375 8.296875 45.015625 3.5625 
Q 39.0625 -1.171875 29.046875 -1.171875 
Q 17.671875 -1.171875 10.90625 6 
Q 4.15625 13.1875 4.15625 25.875 
Q 4.15625 38.71875 10.9375 45.875 
Q 17.71875 53.03125 29.296875 53.03125 
Q 38.765625 53.03125 44.359375 48.953125 
Q 49.953125 44.875 52.390625 36.53125 
z
" id="Arial-BoldMT-99"/>
      <path d="M 20.84375 71.578125 
L 20.84375 45.265625 
Q 27.484375 53.03125 36.71875 53.03125 
Q 41.453125 53.03125 45.265625 51.265625 
Q 49.078125 49.515625 51 46.78125 
Q 52.9375 44.046875 53.640625 40.71875 
Q 54.34375 37.40625 54.34375 30.421875 
L 54.34375 0 
L 40.625 0 
L 40.625 27.390625 
Q 40.625 35.546875 39.84375 37.734375 
Q 39.0625 39.9375 37.078125 41.234375 
Q 35.109375 42.53125 32.125 42.53125 
Q 28.71875 42.53125 26.03125 40.859375 
Q 23.34375 39.203125 22.09375 35.859375 
Q 20.84375 32.515625 20.84375 25.984375 
L 20.84375 0 
L 7.125 0 
L 7.125 71.578125 
z
" id="Arial-BoldMT-104"/>
     </defs>
     <g style="fill:#262626;" transform="translate(151.960625 313.063125)scale(0.12 -0.12)">
      <use xlink:href="#Arial-BoldMT-69"/>
      <use x="66.699219" xlink:href="#Arial-BoldMT-112"/>
      <use x="127.783203" xlink:href="#Arial-BoldMT-111"/>
      <use x="188.867188" xlink:href="#Arial-BoldMT-99"/>
      <use x="244.482422" xlink:href="#Arial-BoldMT-104"/>
      <use x="305.566406" xlink:href="#Arial-BoldMT-115"/>
     </g>
    </g>
   </g>
   <g id="matplotlib.axis_4">
    <g id="ytick_6">
     <g id="text_20">
      <!-- 0.6 -->
      <g style="fill:#262626;" transform="translate(22.315 268.771172)scale(0.11 -0.11)">
       <use xlink:href="#Arial-BoldMT-48"/>
       <use x="55.615234" xlink:href="#Arial-BoldMT-46"/>
       <use x="83.398438" xlink:href="#Arial-BoldMT-54"/>
      </g>
     </g>
    </g>
    <g id="ytick_7">
     <g id="text_21">
      <!-- 0.8 -->
      <g style="fill:#262626;" transform="translate(22.315 224.581172)scale(0.11 -0.11)">
       <use xlink:href="#Arial-BoldMT-48"/>
       <use x="55.615234" xlink:href="#Arial-BoldMT-46"/>
       <use x="83.398438" xlink:href="#Arial-BoldMT-56"/>
      </g>
     </g>
    </g>
    <g id="ytick_8">
     <g id="text_22">
      <!-- 1.0 -->
      <g style="fill:#262626;" transform="translate(22.315 180.391172)scale(0.11 -0.11)">
       <use xlink:href="#Arial-BoldMT-49"/>
       <use x="55.615234" xlink:href="#Arial-BoldMT-46"/>
       <use x="83.398438" xlink:href="#Arial-BoldMT-48"/>
      </g>
     </g>
    </g>
    <g id="text_23">
     <!-- Accuracy -->
     <defs>
      <path d="M 71.828125 0 
L 56.109375 0 
L 49.859375 16.265625 
L 21.234375 16.265625 
L 15.328125 0 
L 0 0 
L 27.875 71.578125 
L 43.171875 71.578125 
z
M 45.21875 28.328125 
L 35.359375 54.890625 
L 25.6875 28.328125 
z
" id="Arial-BoldMT-65"/>
      <path d="M 41.3125 0 
L 41.3125 7.765625 
Q 38.484375 3.609375 33.859375 1.21875 
Q 29.25 -1.171875 24.125 -1.171875 
Q 18.890625 -1.171875 14.734375 1.125 
Q 10.59375 3.421875 8.734375 7.5625 
Q 6.890625 11.71875 6.890625 19.046875 
L 6.890625 51.859375 
L 20.609375 51.859375 
L 20.609375 28.03125 
Q 20.609375 17.09375 21.359375 14.625 
Q 22.125 12.15625 24.125 10.71875 
Q 26.125 9.28125 29.203125 9.28125 
Q 32.71875 9.28125 35.5 11.203125 
Q 38.28125 13.140625 39.296875 15.984375 
Q 40.328125 18.84375 40.328125 29.984375 
L 40.328125 51.859375 
L 54.046875 51.859375 
L 54.046875 0 
z
" id="Arial-BoldMT-117"/>
     </defs>
     <g style="fill:#262626;" transform="translate(15.789375 247.660313)rotate(-90)scale(0.12 -0.12)">
      <use xlink:href="#Arial-BoldMT-65"/>
      <use x="72.216797" xlink:href="#Arial-BoldMT-99"/>
      <use x="127.832031" xlink:href="#Arial-BoldMT-99"/>
      <use x="183.447266" xlink:href="#Arial-BoldMT-117"/>
      <use x="244.53125" xlink:href="#Arial-BoldMT-114"/>
      <use x="283.447266" xlink:href="#Arial-BoldMT-97"/>
      <use x="339.0625" xlink:href="#Arial-BoldMT-99"/>
      <use x="394.677734" xlink:href="#Arial-BoldMT-121"/>
     </g>
    </g>
   </g>
   <g id="line2d_13">
    <path clip-path="url(#p587a4ca2ef)" d="M 43.7555 200.450024 
L 46.406 220.881953 
L 49.0565 220.169212 
L 51.707 210.190821 
L 54.3575 210.665982 
L 57.008 206.389534 
L 59.6585 202.113087 
L 62.309 199.974863 
L 64.9595 198.074219 
L 67.61 196.886304 
L 70.2605 195.935982 
L 72.911 195.223241 
L 75.5615 195.460822 
L 78.212 194.74808 
L 80.8625 194.74808 
L 83.513 194.5105 
L 86.1635 194.74808 
L 88.814 194.74808 
L 91.4645 194.27292 
L 94.115 194.035339 
L 96.7655 194.5105 
L 99.416 194.5105 
L 102.0665 194.035339 
L 104.717 194.27292 
L 107.3675 194.035339 
L 110.018 193.322598 
L 112.6685 193.797759 
L 115.319 194.035339 
L 117.9695 193.797759 
L 120.62 194.27292 
L 123.2705 193.797759 
L 125.921 194.035339 
L 128.5715 193.797759 
L 131.222 194.035339 
L 133.8725 194.035339 
L 136.523 193.797759 
L 139.1735 193.322598 
L 141.824 193.322598 
L 144.4745 192.847437 
L 147.125 193.322598 
L 149.7755 193.560178 
L 152.426 193.560178 
L 155.0765 193.797759 
L 157.727 193.322598 
L 160.3775 193.560178 
L 163.028 193.085017 
L 165.6785 193.560178 
L 168.329 193.085017 
L 170.9795 192.847437 
L 173.63 193.085017 
L 176.2805 192.847437 
L 178.931 192.847437 
L 181.5815 193.085017 
L 184.232 193.322598 
L 186.8825 192.847437 
L 189.533 192.847437 
L 192.1835 192.847437 
L 194.834 193.085017 
L 197.4845 193.322598 
L 200.135 192.372276 
L 202.7855 192.609857 
L 205.436 192.372276 
L 208.0865 192.847437 
L 210.737 192.134696 
L 213.3875 192.609857 
L 216.038 192.609857 
L 218.6885 192.372276 
L 221.339 192.372276 
L 223.9895 192.372276 
L 226.64 192.372276 
L 229.2905 192.372276 
L 231.941 192.372276 
L 234.5915 191.897115 
L 237.242 192.134696 
L 239.8925 192.134696 
L 242.543 192.609857 
L 245.1935 192.609857 
L 247.844 192.847437 
L 250.4945 192.372276 
L 253.145 192.134696 
L 255.7955 192.134696 
L 258.446 192.609857 
L 261.0965 192.372276 
L 263.747 192.609857 
L 266.3975 192.372276 
L 269.048 192.372276 
L 271.6985 192.609857 
L 274.349 192.609857 
L 276.9995 192.372276 
L 279.65 192.372276 
L 282.3005 192.372276 
L 284.951 192.609857 
L 287.6015 191.659535 
L 290.252 191.897115 
L 292.9025 192.134696 
L 295.553 192.134696 
L 298.2035 192.372276 
L 300.854 192.609857 
L 303.5045 192.134696 
L 306.155 192.134696 
" style="fill:none;stroke:#1f77b4;stroke-dasharray:7.4,3.2;stroke-dashoffset:0;stroke-width:2;"/>
   </g>
   <g id="line2d_14">
    <path clip-path="url(#p587a4ca2ef)" d="M 43.7555 176.454375 
L 46.406 176.454375 
L 49.0565 176.454375 
L 51.707 176.454375 
L 54.3575 176.454375 
L 57.008 176.454375 
L 59.6585 176.454375 
L 62.309 176.454375 
L 64.9595 176.454375 
L 67.61 176.454375 
L 70.2605 176.454375 
L 72.911 176.454375 
L 75.5615 176.454375 
L 78.212 176.454375 
L 80.8625 176.454375 
L 83.513 176.454375 
L 86.1635 176.454375 
L 88.814 176.454375 
L 91.4645 176.454375 
L 94.115 176.454375 
L 96.7655 176.454375 
L 99.416 176.454375 
L 102.0665 176.454375 
L 104.717 176.454375 
L 107.3675 176.454375 
L 110.018 176.454375 
L 112.6685 176.454375 
L 115.319 176.454375 
L 117.9695 176.454375 
L 120.62 176.454375 
L 123.2705 176.454375 
L 125.921 176.454375 
L 128.5715 176.454375 
L 131.222 176.454375 
L 133.8725 176.454375 
L 136.523 176.454375 
L 139.1735 176.454375 
L 141.824 176.454375 
L 144.4745 176.454375 
L 147.125 176.454375 
L 149.7755 176.454375 
L 152.426 176.454375 
L 155.0765 176.454375 
L 157.727 176.454375 
L 160.3775 176.454375 
L 163.028 176.454375 
L 165.6785 176.454375 
L 168.329 176.454375 
L 170.9795 176.454375 
L 173.63 176.691955 
L 176.2805 177.879858 
L 178.931 176.454375 
L 181.5815 176.691955 
L 184.232 179.30534 
L 186.8825 180.730823 
L 189.533 177.642277 
L 192.1835 176.691955 
L 194.834 176.691955 
L 197.4845 176.691955 
L 200.135 176.691955 
L 202.7855 176.691955 
L 205.436 176.691955 
L 208.0865 176.691955 
L 210.737 176.691955 
L 213.3875 176.691955 
L 216.038 176.691955 
L 218.6885 176.691955 
L 221.339 176.691955 
L 223.9895 176.929536 
L 226.64 180.018081 
L 229.2905 190.709213 
L 231.941 196.648724 
L 234.5915 191.659535 
L 237.242 192.372276 
L 239.8925 192.372276 
L 242.543 194.035339 
L 245.1935 187.620668 
L 247.844 186.195185 
L 250.4945 189.521311 
L 253.145 186.432766 
L 255.7955 191.659535 
L 258.446 186.432766 
L 261.0965 191.897115 
L 263.747 186.432766 
L 266.3975 182.631466 
L 269.048 190.234052 
L 271.6985 184.532122 
L 274.349 189.996472 
L 276.9995 189.521311 
L 279.65 189.04615 
L 282.3005 184.769703 
L 284.951 183.106627 
L 287.6015 183.106627 
L 290.252 181.443564 
L 292.9025 187.383087 
L 295.553 189.996472 
L 298.2035 185.244864 
L 300.854 183.581801 
L 303.5045 185.244864 
L 306.155 181.443564 
" style="fill:none;stroke:#1f77b4;stroke-linecap:round;stroke-width:2;"/>
   </g>
   <g id="line2d_15">
    <path clip-path="url(#p587a4ca2ef)" d="M 67.61 323.63125 
L 67.61 154.359375 
" style="fill:none;stroke:#7f7f7f;stroke-dasharray:2,3.3;stroke-dashoffset:0;stroke-width:2;"/>
   </g>
   <g id="line2d_16">
    <path clip-path="url(#p587a4ca2ef)" d="M 120.62 323.63125 
L 120.62 154.359375 
" style="fill:none;stroke:#7f7f7f;stroke-dasharray:2,3.3;stroke-dashoffset:0;stroke-width:2;"/>
   </g>
   <g id="line2d_17">
    <path clip-path="url(#p587a4ca2ef)" d="M 43.7555 180.144459 
L 46.406 179.834844 
L 49.0565 179.841163 
L 51.707 179.702152 
L 54.3575 179.866437 
L 57.008 180.637313 
L 59.6585 180.352973 
L 62.309 179.872756 
L 64.9595 179.847481 
L 67.61 179.815889 
L 70.2605 195.182807 
L 72.911 180.232919 
L 75.5615 179.954899 
L 78.212 179.80957 
L 80.8625 179.759021 
L 83.513 179.651603 
L 86.1635 179.664242 
L 88.814 190.279546 
L 91.4645 180.27715 
L 94.115 181.951586 
L 96.7655 180.030722 
L 99.416 179.99281 
L 102.0665 179.815888 
L 104.717 179.708472 
L 107.3675 179.771658 
L 110.018 179.708472 
L 112.6685 182.690868 
L 115.319 180.548848 
L 117.9695 180.498302 
L 120.62 179.942261 
L 123.2705 179.866437 
L 125.921 180.08759 
L 128.5715 219.939215 
L 131.222 190.620753 
L 133.8725 180.460388 
L 136.523 185.009804 
L 139.1735 213.102452 
L 141.824 190.336414 
L 144.4745 186.741111 
L 147.125 212.028286 
L 149.7755 197.823994 
L 152.426 186.324081 
L 155.0765 183.32905 
L 157.727 182.804602 
L 160.3775 182.223289 
L 163.028 181.243901 
L 165.6785 180.814232 
L 168.329 180.965881 
L 170.9795 182.229608 
L 173.63 182.065323 
L 176.2805 191.246299 
L 178.931 184.788654 
L 181.5815 182.128508 
L 184.232 181.142802 
L 186.8825 181.180714 
L 189.533 195.8589 
L 192.1835 181.288131 
L 194.834 181.256536 
L 197.4845 181.901039 
L 200.135 180.574125 
L 202.7855 198.215752 
L 205.436 184.693875 
L 208.0865 183.057348 
L 210.737 183.670256 
L 213.3875 181.47769 
L 216.038 181.730435 
L 218.6885 180.845828 
L 221.339 180.005448 
L 223.9895 180.776321 
L 226.64 180.441434 
L 229.2905 180.144458 
L 231.941 180.485663 
L 234.5915 180.845825 
L 237.242 182.286475 
L 239.8925 180.59308 
L 242.543 180.384567 
L 245.1935 180.169733 
L 247.844 179.76534 
L 250.4945 179.822207 
L 253.145 183.27218 
L 255.7955 215.276063 
L 258.446 182.387572 
L 261.0965 180.909014 
L 263.747 180.637311 
L 266.3975 180.593081 
L 269.048 191.966622 
L 271.6985 180.795275 
L 274.349 179.815888 
L 276.9995 181.515602 
L 279.65 180.719453 
L 282.3005 180.131821 
L 284.951 180.245556 
L 287.6015 180.138141 
L 290.252 179.885393 
L 292.9025 182.444441 
L 295.553 179.765339 
L 298.2035 179.556824 
L 300.854 185.515296 
L 303.5045 181.035384 
L 306.155 180.536213 
" style="fill:none;stroke:#ff7f0e;stroke-dasharray:7.4,3.2;stroke-dashoffset:0;stroke-width:2;"/>
   </g>
   <g id="line2d_18">
    <path clip-path="url(#p587a4ca2ef)" d="M 43.7555 176.599704 
L 46.406 176.561791 
L 49.0565 176.928272 
L 51.707 176.959864 
L 54.3575 177.269479 
L 57.008 177.111515 
L 59.6585 176.593385 
L 62.309 176.624979 
L 64.9595 176.688165 
L 67.61 176.757669 
L 70.2605 178.773314 
L 72.911 179.196662 
L 75.5615 177.62964 
L 78.212 178.299416 
L 80.8625 176.801903 
L 83.513 176.56811 
L 86.1635 176.940911 
L 88.814 176.890362 
L 91.4645 177.724421 
L 94.115 181.686205 
L 96.7655 177.730739 
L 99.416 176.681847 
L 102.0665 177.149425 
L 104.717 178.438427 
L 107.3675 177.711782 
L 110.018 176.820857 
L 112.6685 176.763989 
L 115.319 176.795581 
L 117.9695 176.561793 
L 120.62 176.568111 
L 123.2705 176.580748 
L 125.921 178.400516 
L 128.5715 176.681846 
L 131.222 176.637617 
L 133.8725 176.536518 
L 136.523 176.555473 
L 139.1735 176.801901 
L 141.824 176.719758 
L 144.4745 176.612341 
L 147.125 176.624978 
L 149.7755 176.751352 
L 152.426 176.599704 
L 155.0765 176.593385 
L 157.727 176.580749 
L 160.3775 177.76865 
L 163.028 177.737058 
L 165.6785 185.749085 
L 168.329 183.076301 
L 170.9795 180.605716 
L 173.63 181.591424 
L 176.2805 178.381558 
L 178.931 179.468365 
L 181.5815 179.980173 
L 184.232 180.542531 
L 186.8825 180.403523 
L 189.533 179.190342 
L 192.1835 178.488976 
L 194.834 177.96453 
L 197.4845 178.261504 
L 200.135 178.034034 
L 202.7855 181.875762 
L 205.436 179.822207 
L 208.0865 178.760677 
L 210.737 177.332667 
L 213.3875 176.839812 
L 216.038 176.966184 
L 218.6885 176.839813 
L 221.339 176.763988 
L 223.9895 178.804908 
L 226.64 177.250524 
L 229.2905 177.073601 
L 231.941 176.795581 
L 234.5915 176.928274 
L 237.242 177.023054 
L 239.8925 178.514249 
L 242.543 192.168818 
L 245.1935 190.235316 
L 247.844 188.737801 
L 250.4945 186.380949 
L 253.145 184.662281 
L 255.7955 185.641669 
L 258.446 184.763379 
L 261.0965 190.235315 
L 263.747 186.488364 
L 266.3975 183.120536 
L 269.048 184.25157 
L 271.6985 181.711479 
L 274.349 184.801289 
L 276.9995 182.501307 
L 279.65 182.2612 
L 282.3005 182.501308 
L 284.951 183.303774 
L 287.6015 182.526582 
L 290.252 180.340334 
L 292.9025 182.577132 
L 295.553 180.820552 
L 298.2035 180.018085 
L 300.854 180.119183 
L 303.5045 178.779633 
L 306.155 182.419164 
" style="fill:none;stroke:#ff7f0e;stroke-linecap:round;stroke-width:2;"/>
   </g>
   <g id="line2d_19">
    <path clip-path="url(#p587a4ca2ef)" d="M 67.61 323.63125 
L 67.61 154.359375 
" style="fill:none;stroke:#7f7f7f;stroke-dasharray:2,3.3;stroke-dashoffset:0;stroke-width:2;"/>
   </g>
   <g id="line2d_20">
    <path clip-path="url(#p587a4ca2ef)" d="M 120.62 323.63125 
L 120.62 154.359375 
" style="fill:none;stroke:#7f7f7f;stroke-dasharray:2,3.3;stroke-dashoffset:0;stroke-width:2;"/>
   </g>
   <g id="line2d_21">
    <path clip-path="url(#p587a4ca2ef)" d="M 43.7555 180.284338 
L 46.406 180.734919 
L 49.0565 180.263859 
L 51.707 179.833756 
L 54.3575 180.161452 
L 57.008 179.8952 
L 59.6585 179.321728 
L 62.309 179.362691 
L 64.9595 179.36269 
L 67.61 179.424135 
L 70.2605 179.362691 
L 72.911 179.280767 
L 75.5615 179.465096 
L 78.212 179.342208 
L 80.8625 179.444615 
L 83.513 179.608464 
L 86.1635 179.485576 
L 88.814 180.448187 
L 91.4645 185.75279 
L 94.115 182.271005 
L 96.7655 182.557739 
L 99.416 182.680627 
L 102.0665 180.898772 
L 104.717 179.915677 
L 107.3675 179.69039 
L 110.018 179.751832 
L 112.6685 179.854234 
L 115.319 179.649427 
L 117.9695 179.54702 
L 120.62 179.567501 
L 123.2705 179.628944 
L 125.921 179.649424 
L 128.5715 179.485576 
L 131.222 179.485578 
L 133.8725 179.608462 
L 136.523 179.54702 
L 139.1735 179.608464 
L 141.824 179.710868 
L 144.4745 181.615611 
L 147.125 180.734923 
L 149.7755 179.669906 
L 152.426 179.751832 
L 155.0765 179.52654 
L 157.727 179.567501 
L 160.3775 179.465095 
L 163.028 179.567501 
L 165.6785 179.52654 
L 168.329 179.485575 
L 170.9795 179.506058 
L 173.63 179.506056 
L 176.2805 179.424133 
L 178.931 179.383171 
L 181.5815 179.444615 
L 184.232 179.465096 
L 186.8825 179.485579 
L 189.533 179.52654 
L 192.1835 179.669908 
L 194.834 180.46867 
L 197.4845 179.649426 
L 200.135 180.018084 
L 202.7855 184.073338 
L 205.436 184.380555 
L 208.0865 182.537258 
L 210.737 181.472241 
L 213.3875 181.615609 
L 216.038 180.734922 
L 218.6885 180.407224 
L 221.339 179.75183 
L 223.9895 179.690388 
L 226.64 179.506057 
L 229.2905 179.526537 
L 231.941 179.526537 
L 234.5915 179.506057 
L 237.242 179.506057 
L 239.8925 179.506057 
L 242.543 179.526537 
L 245.1935 179.526537 
L 247.844 179.506057 
L 250.4945 179.506056 
L 253.145 179.526537 
L 255.7955 179.506057 
L 258.446 197.939041 
L 261.0965 188.067154 
L 263.747 182.578224 
L 266.3975 183.970934 
L 269.048 182.230043 
L 271.6985 179.751832 
L 274.349 179.649424 
L 276.9995 179.772313 
L 279.65 179.587983 
L 282.3005 179.096436 
L 284.951 179.731349 
L 287.6015 179.485577 
L 290.252 179.403654 
L 292.9025 179.342209 
L 295.553 179.54702 
L 298.2035 178.932587 
L 300.854 179.485576 
L 303.5045 179.506058 
L 306.155 179.587983 
" style="fill:none;stroke:#2ca02c;stroke-dasharray:7.4,3.2;stroke-dashoffset:0;stroke-width:2;"/>
   </g>
   <g id="line2d_22">
    <path clip-path="url(#p587a4ca2ef)" d="M 43.7555 176.638705 
L 46.406 176.556782 
L 49.0565 176.679667 
L 51.707 176.679667 
L 54.3575 176.515819 
L 57.008 176.515819 
L 59.6585 176.536302 
L 62.309 176.495338 
L 64.9595 176.495338 
L 67.61 176.495338 
L 70.2605 176.495338 
L 72.911 176.515819 
L 75.5615 176.556782 
L 78.212 176.515819 
L 80.8625 176.597746 
L 83.513 176.515819 
L 86.1635 176.597743 
L 88.814 176.556781 
L 91.4645 176.618225 
L 94.115 176.556781 
L 96.7655 176.495338 
L 99.416 176.577265 
L 102.0665 176.597743 
L 104.717 176.536302 
L 107.3675 176.659189 
L 110.018 176.495338 
L 112.6685 176.515819 
L 115.319 176.515819 
L 117.9695 176.843517 
L 120.62 178.522965 
L 123.2705 178.031419 
L 125.921 177.089291 
L 128.5715 177.232657 
L 131.222 176.741112 
L 133.8725 176.720631 
L 136.523 176.741111 
L 139.1735 176.638706 
L 141.824 176.843516 
L 144.4745 176.720628 
L 147.125 176.638706 
L 149.7755 176.67967 
L 152.426 176.618226 
L 155.0765 176.597743 
L 157.727 176.556782 
L 160.3775 176.577263 
L 163.028 176.556782 
L 165.6785 176.556782 
L 168.329 176.577263 
L 170.9795 176.618226 
L 173.63 176.556782 
L 176.2805 176.515819 
L 178.931 176.515819 
L 181.5815 176.618226 
L 184.232 176.597743 
L 186.8825 176.618226 
L 189.533 176.741111 
L 192.1835 176.741111 
L 194.834 176.679667 
L 197.4845 176.843516 
L 200.135 176.884479 
L 202.7855 177.662761 
L 205.436 177.232658 
L 208.0865 176.966402 
L 210.737 176.741111 
L 213.3875 176.70015 
L 216.038 176.536302 
L 218.6885 176.495338 
L 221.339 176.556782 
L 223.9895 176.556782 
L 226.64 176.536299 
L 229.2905 176.495338 
L 231.941 176.495338 
L 234.5915 176.495338 
L 237.242 176.495338 
L 239.8925 176.495338 
L 242.543 176.495338 
L 245.1935 176.515819 
L 247.844 176.495338 
L 250.4945 176.495338 
L 253.145 176.495338 
L 255.7955 176.495338 
L 258.446 176.495338 
L 261.0965 176.536302 
L 263.747 176.515819 
L 266.3975 176.597743 
L 269.048 176.700149 
L 271.6985 176.515819 
L 274.349 176.577264 
L 276.9995 180.571073 
L 279.65 181.001174 
L 282.3005 177.457951 
L 284.951 176.863999 
L 287.6015 176.70015 
L 290.252 176.679667 
L 292.9025 176.536299 
L 295.553 176.515819 
L 298.2035 176.577263 
L 300.854 176.679667 
L 303.5045 176.577263 
L 306.155 176.536302 
" style="fill:none;stroke:#2ca02c;stroke-linecap:round;stroke-width:2;"/>
   </g>
   <g id="line2d_23">
    <path clip-path="url(#p587a4ca2ef)" d="M 67.61 323.63125 
L 67.61 154.359375 
" style="fill:none;stroke:#7f7f7f;stroke-dasharray:2,3.3;stroke-dashoffset:0;stroke-width:2;"/>
   </g>
   <g id="line2d_24">
    <path clip-path="url(#p587a4ca2ef)" d="M 120.62 323.63125 
L 120.62 154.359375 
" style="fill:none;stroke:#7f7f7f;stroke-dasharray:2,3.3;stroke-dashoffset:0;stroke-width:2;"/>
   </g>
   <g id="line2d_25">
    <path clip-path="url(#p587a4ca2ef)" d="M 43.7555 196.402457 
L 46.406 184.97251 
L 49.0565 183.266711 
L 51.707 182.734326 
L 54.3575 182.419243 
L 57.008 182.386648 
L 59.6585 182.734326 
L 62.309 182.473568 
L 64.9595 182.104156 
L 67.61 182.408377 
L 70.2605 182.0607 
L 72.911 181.028526 
L 75.5615 181.528315 
L 78.212 182.049833 
L 80.8625 181.245825 
L 83.513 181.169771 
L 86.1635 181.75648 
L 88.814 181.789075 
L 91.4645 182.071564 
L 94.115 181.071987 
L 96.7655 181.930318 
L 99.416 181.71302 
L 102.0665 181.51745 
L 104.717 181.810805 
L 107.3675 181.702154 
L 110.018 181.245828 
L 112.6685 181.387072 
L 115.319 181.365341 
L 117.9695 183.440551 
L 120.62 185.754787 
L 123.2705 183.907742 
L 125.921 181.245825 
L 128.5715 182.299727 
L 131.222 182.147617 
L 133.8725 182.25627 
L 136.523 181.875996 
L 139.1735 182.451839 
L 141.824 182.288863 
L 144.4745 182.071563 
L 147.125 182.125889 
L 149.7755 182.104157 
L 152.426 182.038968 
L 155.0765 181.90859 
L 157.727 182.093294 
L 160.3775 181.930319 
L 163.028 182.712596 
L 165.6785 182.636541 
L 168.329 185.4723 
L 170.9795 183.462278 
L 173.63 182.538758 
L 176.2805 181.865129 
L 178.931 182.288864 
L 181.5815 182.12589 
L 184.232 182.028103 
L 186.8825 181.984645 
L 189.533 181.886859 
L 192.1835 181.593506 
L 194.834 181.886861 
L 197.4845 181.571776 
L 200.135 181.397936 
L 202.7855 182.017239 
L 205.436 181.886859 
L 208.0865 181.734749 
L 210.737 181.799938 
L 213.3875 181.75648 
L 216.038 181.854264 
L 218.6885 181.930318 
L 221.339 180.593928 
L 223.9895 182.766922 
L 226.64 184.440127 
L 229.2905 184.342341 
L 231.941 182.440973 
L 234.5915 181.995507 
L 237.242 182.049834 
L 239.8925 182.082428 
L 242.543 181.582641 
L 245.1935 181.289287 
L 247.844 182.038967 
L 250.4945 181.930318 
L 253.145 181.745614 
L 255.7955 182.093295 
L 258.446 182.028105 
L 261.0965 182.234537 
L 263.747 181.354477 
L 266.3975 181.854263 
L 269.048 180.170194 
L 271.6985 182.017238 
L 274.349 182.093293 
L 276.9995 180.724305 
L 279.65 182.223674 
L 282.3005 182.299729 
L 284.951 182.028105 
L 287.6015 181.973779 
L 290.252 181.821669 
L 292.9025 181.95205 
L 295.553 181.93032 
L 298.2035 181.95205 
L 300.854 181.919455 
L 303.5045 181.908589 
L 306.155 181.962916 
" style="fill:none;stroke:#d62728;stroke-dasharray:7.4,3.2;stroke-dashoffset:0;stroke-width:2;"/>
   </g>
   <g id="line2d_26">
    <path clip-path="url(#p587a4ca2ef)" d="M 43.7555 176.802056 
L 46.406 178.594775 
L 49.0565 179.713866 
L 51.707 177.247518 
L 54.3575 177.160598 
L 57.008 177.008488 
L 59.6585 176.932434 
L 62.309 176.878107 
L 64.9595 177.041085 
L 67.61 177.117138 
L 70.2605 176.954164 
L 72.911 176.921569 
L 75.5615 177.062815 
L 78.212 176.997625 
L 80.8625 176.932434 
L 83.513 177.399629 
L 86.1635 177.855957 
L 88.814 177.13887 
L 91.4645 177.019355 
L 94.115 176.92157 
L 96.7655 176.867246 
L 99.416 177.008489 
L 102.0665 176.83465 
L 104.717 176.726 
L 107.3675 176.726 
L 110.018 176.74773 
L 112.6685 176.802052 
L 115.319 176.758595 
L 117.9695 176.617348 
L 120.62 176.693405 
L 123.2705 176.736865 
L 125.921 176.954165 
L 128.5715 177.030218 
L 131.222 177.030219 
L 133.8725 177.128003 
L 136.523 178.073256 
L 139.1735 178.029797 
L 141.824 180.007218 
L 144.4745 179.072831 
L 147.125 177.714713 
L 149.7755 177.758171 
L 152.426 183.549198 
L 155.0765 180.887281 
L 157.727 183.429684 
L 160.3775 181.626099 
L 163.028 179.833379 
L 165.6785 178.931589 
L 168.329 179.952895 
L 170.9795 181.093716 
L 173.63 180.246249 
L 176.2805 180.094138 
L 178.931 179.507432 
L 181.5815 178.953319 
L 184.232 179.268401 
L 186.8825 178.855532 
L 189.533 178.844668 
L 192.1835 178.279691 
L 194.834 178.17104 
L 197.4845 178.475259 
L 200.135 178.203636 
L 202.7855 178.475259 
L 205.436 178.877262 
L 208.0865 178.355743 
L 210.737 180.985066 
L 213.3875 180.702578 
L 216.038 180.344035 
L 218.6885 185.015969 
L 221.339 181.484854 
L 223.9895 179.713868 
L 226.64 179.051104 
L 229.2905 179.311862 
L 231.941 179.713865 
L 234.5915 179.105426 
L 237.242 178.127579 
L 239.8925 177.942875 
L 242.543 177.899414 
L 245.1935 178.420933 
L 247.844 178.116716 
L 250.4945 178.388337 
L 253.145 182.256267 
L 255.7955 192.328094 
L 258.446 185.026835 
L 261.0965 183.799094 
L 263.747 188.079893 
L 266.3975 183.147199 
L 269.048 181.365341 
L 271.6985 180.691715 
L 274.349 179.85511 
L 276.9995 179.887704 
L 279.65 179.203212 
L 282.3005 179.29013 
L 284.951 179.246671 
L 287.6015 178.768613 
L 290.252 178.388338 
L 292.9025 178.105851 
L 295.553 177.801634 
L 298.2035 179.703001 
L 300.854 180.919877 
L 303.5045 180.767767 
L 306.155 180.39836 
" style="fill:none;stroke:#d62728;stroke-linecap:round;stroke-width:2;"/>
   </g>
   <g id="line2d_27">
    <path clip-path="url(#p587a4ca2ef)" d="M 67.61 323.63125 
L 67.61 154.359375 
" style="fill:none;stroke:#7f7f7f;stroke-dasharray:2,3.3;stroke-dashoffset:0;stroke-width:2;"/>
   </g>
   <g id="line2d_28">
    <path clip-path="url(#p587a4ca2ef)" d="M 120.62 323.63125 
L 120.62 154.359375 
" style="fill:none;stroke:#7f7f7f;stroke-dasharray:2,3.3;stroke-dashoffset:0;stroke-width:2;"/>
   </g>
   <g id="patch_8">
    <path d="M 41.105 286.929375 
L 41.105 154.359375 
" style="fill:none;stroke:#262626;stroke-linecap:square;stroke-linejoin:miter;stroke-width:1.25;"/>
   </g>
   <g id="patch_9">
    <path d="M 306.155 286.929375 
L 306.155 154.359375 
" style="fill:none;stroke:#262626;stroke-linecap:square;stroke-linejoin:miter;stroke-width:1.25;"/>
   </g>
   <g id="patch_10">
    <path d="M 41.105 286.929375 
L 306.155 286.929375 
" style="fill:none;stroke:#262626;stroke-linecap:square;stroke-linejoin:miter;stroke-width:1.25;"/>
   </g>
   <g id="patch_11">
    <path d="M 41.105 154.359375 
L 306.155 154.359375 
" style="fill:none;stroke:#262626;stroke-linecap:square;stroke-linejoin:miter;stroke-width:1.25;"/>
   </g>
  </g>
 </g>
 <defs>
  <clipPath id="p0c9ffd7f06">
   <rect height="132.57" width="265.05" x="41.105" y="21.789375"/>
  </clipPath>
  <clipPath id="p587a4ca2ef">
   <rect height="132.57" width="265.05" x="41.105" y="154.359375"/>
  </clipPath>
 </defs>
</svg>
