<?xml version="1.0" encoding="utf-8" standalone="no"?>
<!DOCTYPE svg PUBLIC "-//W3C//DTD SVG 1.1//EN"
  "http://www.w3.org/Graphics/SVG/1.1/DTD/svg11.dtd">
<!-- Created with matplotlib (https://matplotlib.org/) -->
<svg height="322.63125pt" version="1.1" viewBox="0 0 322.530547 322.63125" width="322.530547pt" xmlns="http://www.w3.org/2000/svg" xmlns:xlink="http://www.w3.org/1999/xlink">
 <defs>
  <style type="text/css">
*{stroke-linecap:butt;stroke-linejoin:round;}
  </style>
 </defs>
 <g id="figure_1">
  <g id="patch_1">
   <path d="M 0 322.63125 
L 322.530547 322.63125 
L 322.530547 0 
L 0 0 
z
" style="fill:#ffffff;"/>
  </g>
  <g id="axes_1">
   <g id="patch_2">
    <path d="M 41.105 154.359375 
L 306.155 154.359375 
L 306.155 21.789375 
L 41.105 21.789375 
z
" style="fill:#ffffff;"/>
   </g>
   <g id="matplotlib.axis_1">
    <g id="xtick_1"/>
    <g id="xtick_2"/>
    <g id="xtick_3"/>
    <g id="xtick_4"/>
    <g id="xtick_5"/>
    <g id="xtick_6"/>
    <g id="xtick_7"/>
    <g id="xtick_8"/>
    <g id="xtick_9"/>
    <g id="xtick_10"/>
    <g id="xtick_11"/>
   </g>
   <g id="matplotlib.axis_2">
    <g id="ytick_1">
     <g id="text_1">
      <!-- 0.0 -->
      <defs>
       <path d="M 27.4375 71.875 
Q 37.84375 71.875 43.703125 64.453125 
Q 50.6875 55.671875 50.6875 35.296875 
Q 50.6875 14.984375 43.65625 6.109375 
Q 37.84375 -1.21875 27.4375 -1.21875 
Q 17 -1.21875 10.59375 6.8125 
Q 4.203125 14.84375 4.203125 35.453125 
Q 4.203125 55.671875 11.234375 64.546875 
Q 17.046875 71.875 27.4375 71.875 
z
M 27.4375 60.5 
Q 24.953125 60.5 23 58.90625 
Q 21.046875 57.328125 19.96875 53.21875 
Q 18.5625 47.90625 18.5625 35.296875 
Q 18.5625 22.703125 19.828125 17.984375 
Q 21.09375 13.28125 23.015625 11.71875 
Q 24.953125 10.15625 27.4375 10.15625 
Q 29.9375 10.15625 31.890625 11.734375 
Q 33.84375 13.328125 34.90625 17.4375 
Q 36.328125 22.703125 36.328125 35.296875 
Q 36.328125 47.90625 35.0625 52.609375 
Q 33.796875 57.328125 31.859375 58.90625 
Q 29.9375 60.5 27.4375 60.5 
z
" id="Arial-BoldMT-48"/>
       <path d="M 7.171875 0 
L 7.171875 13.71875 
L 20.90625 13.71875 
L 20.90625 0 
z
" id="Arial-BoldMT-46"/>
      </defs>
      <g style="fill:#262626;" transform="translate(22.315 158.296172)scale(0.11 -0.11)">
       <use xlink:href="#Arial-BoldMT-48"/>
       <use x="55.615234" xlink:href="#Arial-BoldMT-46"/>
       <use x="83.398438" xlink:href="#Arial-BoldMT-48"/>
      </g>
     </g>
    </g>
    <g id="ytick_2">
     <g id="text_2">
      <!-- 0.5 -->
      <defs>
       <path d="M 4.4375 18.40625 
L 18.109375 19.828125 
Q 18.703125 15.1875 21.578125 12.46875 
Q 24.46875 9.765625 28.21875 9.765625 
Q 32.515625 9.765625 35.5 13.25 
Q 38.484375 16.75 38.484375 23.78125 
Q 38.484375 30.375 35.515625 33.671875 
Q 32.5625 36.96875 27.828125 36.96875 
Q 21.921875 36.96875 17.234375 31.734375 
L 6.109375 33.34375 
L 13.140625 70.609375 
L 49.421875 70.609375 
L 49.421875 57.765625 
L 23.53125 57.765625 
L 21.390625 45.609375 
Q 25.984375 47.90625 30.765625 47.90625 
Q 39.890625 47.90625 46.234375 41.265625 
Q 52.59375 34.625 52.59375 24.03125 
Q 52.59375 15.1875 47.46875 8.25 
Q 40.484375 -1.21875 28.078125 -1.21875 
Q 18.171875 -1.21875 11.921875 4.09375 
Q 5.671875 9.421875 4.4375 18.40625 
z
" id="Arial-BoldMT-53"/>
      </defs>
      <g style="fill:#262626;" transform="translate(22.315 125.153672)scale(0.11 -0.11)">
       <use xlink:href="#Arial-BoldMT-48"/>
       <use x="55.615234" xlink:href="#Arial-BoldMT-46"/>
       <use x="83.398438" xlink:href="#Arial-BoldMT-53"/>
      </g>
     </g>
    </g>
    <g id="ytick_3">
     <g id="text_3">
      <!-- 1.0 -->
      <defs>
       <path d="M 39.359375 0 
L 25.640625 0 
L 25.640625 51.703125 
Q 18.109375 44.671875 7.90625 41.3125 
L 7.90625 53.765625 
Q 13.28125 55.515625 19.578125 60.421875 
Q 25.875 65.328125 28.21875 71.875 
L 39.359375 71.875 
z
" id="Arial-BoldMT-49"/>
      </defs>
      <g style="fill:#262626;" transform="translate(22.315 92.011172)scale(0.11 -0.11)">
       <use xlink:href="#Arial-BoldMT-49"/>
       <use x="55.615234" xlink:href="#Arial-BoldMT-46"/>
       <use x="83.398438" xlink:href="#Arial-BoldMT-48"/>
      </g>
     </g>
    </g>
    <g id="ytick_4">
     <g id="text_4">
      <!-- 1.5 -->
      <g style="fill:#262626;" transform="translate(22.315 58.868672)scale(0.11 -0.11)">
       <use xlink:href="#Arial-BoldMT-49"/>
       <use x="55.615234" xlink:href="#Arial-BoldMT-46"/>
       <use x="83.398438" xlink:href="#Arial-BoldMT-53"/>
      </g>
     </g>
    </g>
    <g id="ytick_5">
     <g id="text_5">
      <!-- 2.0 -->
      <defs>
       <path d="M 50.59375 12.75 
L 50.59375 0 
L 2.484375 0 
Q 3.265625 7.234375 7.171875 13.703125 
Q 11.078125 20.171875 22.609375 30.859375 
Q 31.890625 39.5 33.984375 42.578125 
Q 36.8125 46.828125 36.8125 50.984375 
Q 36.8125 55.5625 34.34375 58.03125 
Q 31.890625 60.5 27.546875 60.5 
Q 23.25 60.5 20.703125 57.90625 
Q 18.171875 55.328125 17.78125 49.3125 
L 4.109375 50.6875 
Q 5.328125 62.015625 11.765625 66.9375 
Q 18.21875 71.875 27.875 71.875 
Q 38.484375 71.875 44.53125 66.15625 
Q 50.59375 60.453125 50.59375 51.953125 
Q 50.59375 47.125 48.859375 42.75 
Q 47.125 38.375 43.359375 33.59375 
Q 40.875 30.421875 34.375 24.453125 
Q 27.875 18.5 26.140625 16.546875 
Q 24.421875 14.59375 23.34375 12.75 
z
" id="Arial-BoldMT-50"/>
      </defs>
      <g style="fill:#262626;" transform="translate(22.315 25.726172)scale(0.11 -0.11)">
       <use xlink:href="#Arial-BoldMT-50"/>
       <use x="55.615234" xlink:href="#Arial-BoldMT-46"/>
       <use x="83.398438" xlink:href="#Arial-BoldMT-48"/>
      </g>
     </g>
    </g>
    <g id="text_6">
     <!-- MSE -->
     <defs>
      <path d="M 7.078125 0 
L 7.078125 71.578125 
L 28.71875 71.578125 
L 41.703125 22.75 
L 54.546875 71.578125 
L 76.21875 71.578125 
L 76.21875 0 
L 62.796875 0 
L 62.796875 56.34375 
L 48.578125 0 
L 34.671875 0 
L 20.515625 56.34375 
L 20.515625 0 
z
" id="Arial-BoldMT-77"/>
      <path d="M 3.609375 23.296875 
L 17.671875 24.65625 
Q 18.953125 17.578125 22.828125 14.25 
Q 26.703125 10.9375 33.296875 10.9375 
Q 40.28125 10.9375 43.8125 13.890625 
Q 47.359375 16.84375 47.359375 20.796875 
Q 47.359375 23.34375 45.875 25.125 
Q 44.390625 26.90625 40.671875 28.21875 
Q 38.140625 29.109375 29.109375 31.34375 
Q 17.484375 34.234375 12.796875 38.421875 
Q 6.203125 44.34375 6.203125 52.828125 
Q 6.203125 58.296875 9.296875 63.0625 
Q 12.40625 67.828125 18.234375 70.3125 
Q 24.078125 72.796875 32.328125 72.796875 
Q 45.796875 72.796875 52.609375 66.890625 
Q 59.421875 60.984375 59.765625 51.125 
L 45.3125 50.484375 
Q 44.390625 56 41.328125 58.421875 
Q 38.28125 60.84375 32.171875 60.84375 
Q 25.875 60.84375 22.3125 58.25 
Q 20.015625 56.59375 20.015625 53.8125 
Q 20.015625 51.265625 22.171875 49.46875 
Q 24.90625 47.171875 35.453125 44.671875 
Q 46 42.1875 51.046875 39.515625 
Q 56.109375 36.859375 58.953125 32.25 
Q 61.8125 27.640625 61.8125 20.84375 
Q 61.8125 14.703125 58.390625 9.328125 
Q 54.984375 3.953125 48.734375 1.34375 
Q 42.484375 -1.265625 33.15625 -1.265625 
Q 19.578125 -1.265625 12.296875 5 
Q 5.03125 11.28125 3.609375 23.296875 
z
" id="Arial-BoldMT-83"/>
      <path d="M 7.28125 0 
L 7.28125 71.578125 
L 60.359375 71.578125 
L 60.359375 59.46875 
L 21.734375 59.46875 
L 21.734375 43.609375 
L 57.671875 43.609375 
L 57.671875 31.546875 
L 21.734375 31.546875 
L 21.734375 12.0625 
L 61.71875 12.0625 
L 61.71875 0 
z
" id="Arial-BoldMT-69"/>
     </defs>
     <g style="fill:#262626;" transform="translate(15.946875 101.076562)rotate(-90)scale(0.12 -0.12)">
      <use xlink:href="#Arial-BoldMT-77"/>
      <use x="83.300781" xlink:href="#Arial-BoldMT-83"/>
      <use x="150" xlink:href="#Arial-BoldMT-69"/>
     </g>
    </g>
   </g>
   <g id="line2d_1">
    <path clip-path="url(#paf083a0686)" d="M 43.7555 40.622588 
L 46.406 115.26155 
L 49.0565 127.609422 
L 51.707 135.040181 
L 54.3575 132.356137 
L 57.008 136.288952 
L 59.6585 139.586078 
L 62.309 139.795156 
L 64.9595 143.69234 
L 67.61 141.69101 
L 70.2605 142.170153 
L 72.911 145.297447 
L 75.5615 143.756442 
L 78.212 140.248638 
L 80.8625 145.219091 
L 83.513 144.016081 
L 86.1635 141.817151 
L 88.814 146.467055 
L 91.4645 141.44921 
L 94.115 145.582328 
L 96.7655 142.524348 
L 99.416 146.589602 
L 102.0665 143.363966 
L 104.717 145.544786 
L 107.3675 145.519541 
L 110.018 147.038235 
L 112.6685 146.539661 
L 115.319 146.134691 
L 117.9695 143.740208 
L 120.62 145.584301 
L 123.2705 145.078996 
L 125.921 146.437958 
L 128.5715 147.271529 
L 131.222 145.812385 
L 133.8725 148.092028 
L 136.523 146.480413 
L 139.1735 147.154415 
L 141.824 147.751356 
L 144.4745 148.89586 
L 147.125 148.732533 
L 149.7755 147.100776 
L 152.426 147.557316 
L 155.0765 149.170592 
L 157.727 147.970649 
L 160.3775 147.073423 
L 163.028 147.838833 
L 165.6785 149.270948 
L 168.329 147.343717 
L 170.9795 148.592931 
L 173.63 146.396614 
L 176.2805 145.165487 
L 178.931 146.742691 
L 181.5815 148.620041 
L 184.232 146.533855 
L 186.8825 148.968251 
L 189.533 148.017711 
L 192.1835 147.764214 
L 194.834 148.068542 
L 197.4845 148.124231 
L 200.135 147.736194 
L 202.7855 148.502434 
L 205.436 147.535136 
L 208.0865 146.847815 
L 210.737 148.279812 
L 213.3875 146.23205 
L 216.038 147.366583 
L 218.6885 147.216665 
L 221.339 146.827453 
L 223.9895 145.695623 
L 226.64 147.803383 
L 229.2905 147.153448 
L 231.941 148.190387 
L 234.5915 146.101015 
L 237.242 148.493117 
L 239.8925 145.442936 
L 242.543 147.410585 
L 245.1935 148.51365 
L 247.844 147.520089 
L 250.4945 145.721286 
L 253.145 145.427762 
L 255.7955 146.972469 
L 258.446 148.39286 
L 261.0965 147.60561 
L 263.747 146.730402 
L 266.3975 147.9216 
L 269.048 147.653257 
L 271.6985 146.965776 
L 274.349 148.355102 
L 276.9995 147.673736 
L 279.65 147.923558 
L 282.3005 147.134486 
L 284.951 148.567735 
L 287.6015 148.793327 
L 290.252 147.999443 
L 292.9025 147.889297 
L 295.553 148.300042 
L 298.2035 148.851522 
L 300.854 148.733975 
L 303.5045 147.35876 
L 306.155 148.388695 
" style="fill:none;stroke:#1f77b4;stroke-dasharray:2,3.3;stroke-dashoffset:0;stroke-width:2;"/>
   </g>
   <g id="line2d_2">
    <path clip-path="url(#paf083a0686)" d="M 67.61 154.359375 
L 67.61 21.789375 
" style="fill:none;stroke:#7f7f7f;stroke-dasharray:2,3.3;stroke-dashoffset:0;stroke-width:2;"/>
   </g>
   <g id="line2d_3">
    <path clip-path="url(#paf083a0686)" d="M 120.62 154.359375 
L 120.62 21.789375 
" style="fill:none;stroke:#7f7f7f;stroke-dasharray:2,3.3;stroke-dashoffset:0;stroke-width:2;"/>
   </g>
   <g id="line2d_4">
    <path clip-path="url(#paf083a0686)" d="M 45.079972 -1 
L 46.406 79.749593 
L 49.0565 78.259876 
L 51.707 81.79685 
L 54.3575 82.970396 
L 57.008 83.927825 
L 59.6585 83.171042 
L 62.309 87.864502 
L 64.9595 87.176064 
L 67.61 90.295155 
L 70.2605 91.608808 
L 72.911 89.98907 
L 75.5615 91.845167 
L 78.212 93.993342 
L 80.8625 93.268822 
L 83.513 95.331919 
L 86.1635 98.109802 
L 88.814 98.861692 
L 91.4645 100.523834 
L 94.115 100.0473 
L 96.7655 100.834365 
L 99.416 105.085951 
L 102.0665 105.262121 
L 104.717 106.202862 
L 107.3675 108.11813 
L 110.018 110.679888 
L 112.6685 109.201744 
L 115.319 111.384998 
L 117.9695 113.388842 
L 120.62 114.41459 
L 123.2705 114.721673 
L 125.921 116.256479 
L 128.5715 117.37137 
L 131.222 115.915564 
L 133.8725 118.729692 
L 136.523 121.686517 
L 139.1735 118.218137 
L 141.824 120.98947 
L 144.4745 122.719432 
L 147.125 123.562121 
L 149.7755 124.906518 
L 152.426 124.983774 
L 155.0765 126.935535 
L 157.727 128.123373 
L 160.3775 128.519036 
L 163.028 129.382769 
L 165.6785 129.957944 
L 168.329 129.980769 
L 170.9795 131.313121 
L 173.63 132.547947 
L 176.2805 133.349836 
L 178.931 132.415617 
L 181.5815 134.689447 
L 184.232 135.785092 
L 186.8825 135.553963 
L 189.533 136.759278 
L 192.1835 137.14999 
L 194.834 137.533693 
L 197.4845 139.072878 
L 200.135 139.061572 
L 202.7855 139.551352 
L 205.436 140.530917 
L 208.0865 141.560884 
L 210.737 141.610554 
L 213.3875 142.895694 
L 216.038 142.572962 
L 218.6885 143.577805 
L 221.339 143.353385 
L 223.9895 144.19332 
L 226.64 144.432608 
L 229.2905 145.668622 
L 231.941 145.765136 
L 234.5915 146.355686 
L 237.242 146.596249 
L 239.8925 147.051921 
L 242.543 146.944593 
L 245.1935 147.701977 
L 247.844 148.042851 
L 250.4945 148.281325 
L 253.145 148.002118 
L 255.7955 148.864946 
L 258.446 149.232588 
L 261.0965 149.948936 
L 263.747 150.152343 
L 266.3975 150.619279 
L 269.048 150.577134 
L 271.6985 151.003765 
L 274.349 151.153774 
L 276.9995 151.36059 
L 279.65 151.581331 
L 282.3005 151.844015 
L 284.951 152.004023 
L 287.6015 152.303881 
L 290.252 152.489146 
L 292.9025 152.607459 
L 295.553 152.782644 
L 298.2035 152.973126 
L 300.854 153.079974 
L 303.5045 152.980033 
L 306.155 153.255842 
" style="fill:none;stroke:#ff7f0e;stroke-dasharray:2,3.3;stroke-dashoffset:0;stroke-width:2;"/>
   </g>
   <g id="line2d_5">
    <path clip-path="url(#paf083a0686)" d="M 67.61 154.359375 
L 67.61 21.789375 
" style="fill:none;stroke:#7f7f7f;stroke-dasharray:2,3.3;stroke-dashoffset:0;stroke-width:2;"/>
   </g>
   <g id="line2d_6">
    <path clip-path="url(#paf083a0686)" d="M 120.62 154.359375 
L 120.62 21.789375 
" style="fill:none;stroke:#7f7f7f;stroke-dasharray:2,3.3;stroke-dashoffset:0;stroke-width:2;"/>
   </g>
   <g id="line2d_7">
    <path clip-path="url(#paf083a0686)" d="M 45.801952 -1 
L 46.406 71.246063 
L 49.0565 85.230056 
L 51.707 91.481983 
L 54.3575 92.126013 
L 57.008 87.780172 
L 59.6585 87.64741 
L 62.309 91.732153 
L 64.9595 90.944158 
L 67.61 92.994852 
L 70.2605 94.306859 
L 72.911 92.353166 
L 75.5615 92.241272 
L 78.212 97.040231 
L 80.8625 98.891171 
L 83.513 97.927112 
L 86.1635 93.43921 
L 88.814 95.004158 
L 91.4645 91.364572 
L 94.115 94.358357 
L 96.7655 97.02918 
L 99.416 90.377528 
L 102.0665 95.698863 
L 104.717 101.945925 
L 107.3675 94.776671 
L 110.018 93.019336 
L 112.6685 95.332007 
L 115.319 99.574806 
L 117.9695 92.891899 
L 120.62 101.218473 
L 123.2705 96.309278 
L 125.921 99.431058 
L 128.5715 101.918094 
L 131.222 102.260043 
L 133.8725 101.357803 
L 136.523 102.015658 
L 139.1735 101.85191 
L 141.824 105.091492 
L 144.4745 98.273333 
L 147.125 101.51658 
L 149.7755 100.321776 
L 152.426 103.394661 
L 155.0765 102.080527 
L 157.727 106.573583 
L 160.3775 104.562704 
L 163.028 106.090267 
L 165.6785 104.63845 
L 168.329 102.658197 
L 170.9795 108.604813 
L 173.63 105.655005 
L 176.2805 104.742891 
L 178.931 109.097811 
L 181.5815 110.463473 
L 184.232 107.812174 
L 186.8825 108.155669 
L 189.533 109.685903 
L 192.1835 107.036704 
L 194.834 109.452368 
L 197.4845 108.56591 
L 200.135 106.969964 
L 202.7855 107.905039 
L 205.436 111.449312 
L 208.0865 107.171969 
L 210.737 111.374979 
L 213.3875 111.744671 
L 216.038 110.839629 
L 218.6885 113.412497 
L 221.339 112.821569 
L 223.9895 113.115955 
L 226.64 114.892078 
L 229.2905 112.621103 
L 231.941 114.968063 
L 234.5915 117.350979 
L 237.242 115.054259 
L 239.8925 116.595802 
L 242.543 118.666719 
L 245.1935 115.078785 
L 247.844 117.706781 
L 250.4945 115.529281 
L 253.145 117.135553 
L 255.7955 113.456751 
L 258.446 115.954112 
L 261.0965 118.436802 
L 263.747 119.446775 
L 266.3975 122.106649 
L 269.048 118.562414 
L 271.6985 118.461007 
L 274.349 119.233761 
L 276.9995 120.872058 
L 279.65 118.976566 
L 282.3005 118.264401 
L 284.951 121.257643 
L 287.6015 121.205586 
L 290.252 120.657396 
L 292.9025 122.50658 
L 295.553 120.272156 
L 298.2035 121.782946 
L 300.854 121.521591 
L 303.5045 123.233334 
L 306.155 122.681026 
" style="fill:none;stroke:#2ca02c;stroke-dasharray:2,3.3;stroke-dashoffset:0;stroke-width:2;"/>
   </g>
   <g id="line2d_8">
    <path clip-path="url(#paf083a0686)" d="M 67.61 154.359375 
L 67.61 21.789375 
" style="fill:none;stroke:#7f7f7f;stroke-dasharray:2,3.3;stroke-dashoffset:0;stroke-width:2;"/>
   </g>
   <g id="line2d_9">
    <path clip-path="url(#paf083a0686)" d="M 120.62 154.359375 
L 120.62 21.789375 
" style="fill:none;stroke:#7f7f7f;stroke-dasharray:2,3.3;stroke-dashoffset:0;stroke-width:2;"/>
   </g>
   <g id="line2d_10">
    <path clip-path="url(#paf083a0686)" d="M 43.7555 39.725036 
L 46.406 88.24025 
L 49.0565 102.198855 
L 51.707 108.687972 
L 54.3575 112.658164 
L 57.008 118.044282 
L 59.6585 121.106043 
L 62.309 124.007282 
L 64.9595 123.978127 
L 67.61 124.237927 
L 70.2605 126.036464 
L 72.911 126.52737 
L 75.5615 128.923828 
L 78.212 127.931355 
L 80.8625 128.277574 
L 83.513 127.684403 
L 86.1635 129.621923 
L 88.814 130.518235 
L 91.4645 130.303766 
L 94.115 129.891199 
L 96.7655 130.455268 
L 99.416 132.205823 
L 102.0665 131.615041 
L 104.717 131.875647 
L 107.3675 132.222305 
L 110.018 132.320948 
L 112.6685 131.562867 
L 115.319 132.5335 
L 117.9695 133.131911 
L 120.62 131.944727 
L 123.2705 133.344667 
L 125.921 133.797809 
L 128.5715 132.57808 
L 131.222 133.95031 
L 133.8725 133.690061 
L 136.523 134.2077 
L 139.1735 133.895717 
L 141.824 134.2828 
L 144.4745 134.191026 
L 147.125 133.718826 
L 149.7755 134.556572 
L 152.426 134.96815 
L 155.0765 130.871248 
L 157.727 132.691084 
L 160.3775 132.941417 
L 163.028 134.317088 
L 165.6785 134.634529 
L 168.329 134.453023 
L 170.9795 134.588118 
L 173.63 135.919069 
L 176.2805 136.352214 
L 178.931 136.943883 
L 181.5815 136.199487 
L 184.232 135.668706 
L 186.8825 136.142111 
L 189.533 137.064088 
L 192.1835 137.616574 
L 194.834 137.255385 
L 197.4845 137.236215 
L 200.135 136.83391 
L 202.7855 137.457704 
L 205.436 137.198196 
L 208.0865 137.483879 
L 210.737 137.429983 
L 213.3875 137.620352 
L 216.038 137.099781 
L 218.6885 135.720756 
L 221.339 134.932693 
L 223.9895 137.544023 
L 226.64 137.855935 
L 229.2905 136.635839 
L 231.941 137.211789 
L 234.5915 137.542783 
L 237.242 137.475 
L 239.8925 138.150027 
L 242.543 137.948174 
L 245.1935 138.147713 
L 247.844 138.441602 
L 250.4945 138.671642 
L 253.145 136.900804 
L 255.7955 127.964535 
L 258.446 129.193667 
L 261.0965 135.021255 
L 263.747 136.956309 
L 266.3975 136.225425 
L 269.048 137.57711 
L 271.6985 137.50956 
L 274.349 138.556582 
L 276.9995 138.070422 
L 279.65 137.820393 
L 282.3005 138.283298 
L 284.951 138.682219 
L 287.6015 138.683556 
L 290.252 138.617747 
L 292.9025 138.375154 
L 295.553 139.118013 
L 298.2035 139.191309 
L 300.854 139.052583 
L 303.5045 139.450854 
L 306.155 138.142968 
" style="fill:none;stroke:#d62728;stroke-dasharray:2,3.3;stroke-dashoffset:0;stroke-width:2;"/>
   </g>
   <g id="line2d_11">
    <path clip-path="url(#paf083a0686)" d="M 67.61 154.359375 
L 67.61 21.789375 
" style="fill:none;stroke:#7f7f7f;stroke-dasharray:2,3.3;stroke-dashoffset:0;stroke-width:2;"/>
   </g>
   <g id="line2d_12">
    <path clip-path="url(#paf083a0686)" d="M 120.62 154.359375 
L 120.62 21.789375 
" style="fill:none;stroke:#7f7f7f;stroke-dasharray:2,3.3;stroke-dashoffset:0;stroke-width:2;"/>
   </g>
   <g id="patch_3">
    <path d="M 41.105 154.359375 
L 41.105 21.789375 
" style="fill:none;stroke:#262626;stroke-linecap:square;stroke-linejoin:miter;stroke-width:1.25;"/>
   </g>
   <g id="patch_4">
    <path d="M 306.155 154.359375 
L 306.155 21.789375 
" style="fill:none;stroke:#262626;stroke-linecap:square;stroke-linejoin:miter;stroke-width:1.25;"/>
   </g>
   <g id="patch_5">
    <path d="M 41.105 154.359375 
L 306.155 154.359375 
" style="fill:none;stroke:#262626;stroke-linecap:square;stroke-linejoin:miter;stroke-width:1.25;"/>
   </g>
   <g id="patch_6">
    <path d="M 41.105 21.789375 
L 306.155 21.789375 
" style="fill:none;stroke:#262626;stroke-linecap:square;stroke-linejoin:miter;stroke-width:1.25;"/>
   </g>
   <g id="text_7">
    <!-- Training History -->
    <defs>
     <path d="M 23.390625 0 
L 23.390625 59.46875 
L 2.15625 59.46875 
L 2.15625 71.578125 
L 59.03125 71.578125 
L 59.03125 59.46875 
L 37.84375 59.46875 
L 37.84375 0 
z
" id="Arial-BoldMT-84"/>
     <path d="M 20.3125 0 
L 6.59375 0 
L 6.59375 51.859375 
L 19.34375 51.859375 
L 19.34375 44.484375 
Q 22.609375 49.703125 25.21875 51.359375 
Q 27.828125 53.03125 31.15625 53.03125 
Q 35.84375 53.03125 40.1875 50.4375 
L 35.9375 38.484375 
Q 32.46875 40.71875 29.5 40.71875 
Q 26.609375 40.71875 24.609375 39.125 
Q 22.609375 37.546875 21.453125 33.390625 
Q 20.3125 29.25 20.3125 16.015625 
z
" id="Arial-BoldMT-114"/>
     <path d="M 17.4375 36.03125 
L 4.984375 38.28125 
Q 7.078125 45.796875 12.203125 49.40625 
Q 17.328125 53.03125 27.4375 53.03125 
Q 36.625 53.03125 41.109375 50.859375 
Q 45.609375 48.6875 47.4375 45.34375 
Q 49.265625 42 49.265625 33.0625 
L 49.125 17.046875 
Q 49.125 10.203125 49.78125 6.953125 
Q 50.4375 3.71875 52.25 0 
L 38.671875 0 
Q 38.140625 1.375 37.359375 4.046875 
Q 37.015625 5.28125 36.859375 5.671875 
Q 33.34375 2.25 29.34375 0.53125 
Q 25.34375 -1.171875 20.796875 -1.171875 
Q 12.796875 -1.171875 8.171875 3.171875 
Q 3.5625 7.515625 3.5625 14.15625 
Q 3.5625 18.5625 5.65625 22 
Q 7.765625 25.4375 11.546875 27.265625 
Q 15.328125 29.109375 22.46875 30.46875 
Q 32.078125 32.28125 35.796875 33.84375 
L 35.796875 35.203125 
Q 35.796875 39.15625 33.84375 40.84375 
Q 31.890625 42.53125 26.46875 42.53125 
Q 22.796875 42.53125 20.75 41.09375 
Q 18.703125 39.65625 17.4375 36.03125 
z
M 35.796875 24.90625 
Q 33.15625 24.03125 27.4375 22.796875 
Q 21.734375 21.578125 19.96875 20.40625 
Q 17.28125 18.5 17.28125 15.578125 
Q 17.28125 12.703125 19.421875 10.59375 
Q 21.578125 8.5 24.90625 8.5 
Q 28.609375 8.5 31.984375 10.9375 
Q 34.46875 12.796875 35.25 15.484375 
Q 35.796875 17.234375 35.796875 22.171875 
z
" id="Arial-BoldMT-97"/>
     <path d="M 7.171875 58.890625 
L 7.171875 71.578125 
L 20.90625 71.578125 
L 20.90625 58.890625 
z
M 7.171875 0 
L 7.171875 51.859375 
L 20.90625 51.859375 
L 20.90625 0 
z
" id="Arial-BoldMT-105"/>
     <path d="M 54.34375 0 
L 40.625 0 
L 40.625 26.46875 
Q 40.625 34.859375 39.75 37.328125 
Q 38.875 39.796875 36.890625 41.15625 
Q 34.90625 42.53125 32.125 42.53125 
Q 28.5625 42.53125 25.734375 40.578125 
Q 22.90625 38.625 21.84375 35.390625 
Q 20.796875 32.171875 20.796875 23.484375 
L 20.796875 0 
L 7.078125 0 
L 7.078125 51.859375 
L 19.828125 51.859375 
L 19.828125 44.234375 
Q 26.609375 53.03125 36.921875 53.03125 
Q 41.453125 53.03125 45.203125 51.390625 
Q 48.96875 49.75 50.890625 47.203125 
Q 52.828125 44.671875 53.578125 41.453125 
Q 54.34375 38.234375 54.34375 32.234375 
z
" id="Arial-BoldMT-110"/>
     <path d="M 5.90625 -3.421875 
L 21.578125 -5.328125 
Q 21.96875 -8.0625 23.390625 -9.078125 
Q 25.34375 -10.546875 29.546875 -10.546875 
Q 34.90625 -10.546875 37.59375 -8.9375 
Q 39.40625 -7.859375 40.328125 -5.46875 
Q 40.96875 -3.765625 40.96875 0.828125 
L 40.96875 8.40625 
Q 34.8125 0 25.4375 0 
Q 14.984375 0 8.890625 8.84375 
Q 4.109375 15.828125 4.109375 26.21875 
Q 4.109375 39.265625 10.375 46.140625 
Q 16.65625 53.03125 25.984375 53.03125 
Q 35.59375 53.03125 41.84375 44.578125 
L 41.84375 51.859375 
L 54.6875 51.859375 
L 54.6875 5.328125 
Q 54.6875 -3.859375 53.171875 -8.390625 
Q 51.65625 -12.9375 48.921875 -15.515625 
Q 46.1875 -18.109375 41.625 -19.578125 
Q 37.0625 -21.046875 30.078125 -21.046875 
Q 16.890625 -21.046875 11.375 -16.53125 
Q 5.859375 -12.015625 5.859375 -5.078125 
Q 5.859375 -4.390625 5.90625 -3.421875 
z
M 18.171875 27 
Q 18.171875 18.75 21.359375 14.90625 
Q 24.5625 11.078125 29.25 11.078125 
Q 34.28125 11.078125 37.75 15.015625 
Q 41.21875 18.953125 41.21875 26.65625 
Q 41.21875 34.71875 37.890625 38.625 
Q 34.578125 42.53125 29.5 42.53125 
Q 24.5625 42.53125 21.359375 38.6875 
Q 18.171875 34.859375 18.171875 27 
z
" id="Arial-BoldMT-103"/>
     <path id="Arial-BoldMT-32"/>
     <path d="M 7.328125 0 
L 7.328125 71.578125 
L 21.78125 71.578125 
L 21.78125 43.40625 
L 50.09375 43.40625 
L 50.09375 71.578125 
L 64.546875 71.578125 
L 64.546875 0 
L 50.09375 0 
L 50.09375 31.296875 
L 21.78125 31.296875 
L 21.78125 0 
z
" id="Arial-BoldMT-72"/>
     <path d="M 2.34375 14.796875 
L 16.109375 16.890625 
Q 17 12.890625 19.671875 10.8125 
Q 22.359375 8.734375 27.203125 8.734375 
Q 32.515625 8.734375 35.203125 10.6875 
Q 37.015625 12.0625 37.015625 14.359375 
Q 37.015625 15.921875 36.03125 16.9375 
Q 35.015625 17.921875 31.453125 18.75 
Q 14.84375 22.40625 10.40625 25.4375 
Q 4.25 29.640625 4.25 37.109375 
Q 4.25 43.84375 9.5625 48.4375 
Q 14.890625 53.03125 26.078125 53.03125 
Q 36.71875 53.03125 41.890625 49.5625 
Q 47.078125 46.09375 49.03125 39.3125 
L 36.078125 36.921875 
Q 35.25 39.9375 32.921875 41.546875 
Q 30.609375 43.171875 26.3125 43.171875 
Q 20.90625 43.171875 18.5625 41.65625 
Q 17 40.578125 17 38.875 
Q 17 37.40625 18.359375 36.375 
Q 20.21875 35.015625 31.171875 32.515625 
Q 42.140625 30.03125 46.484375 26.421875 
Q 50.78125 22.75 50.78125 16.21875 
Q 50.78125 9.078125 44.828125 3.953125 
Q 38.875 -1.171875 27.203125 -1.171875 
Q 16.609375 -1.171875 10.421875 3.125 
Q 4.25 7.421875 2.34375 14.796875 
z
" id="Arial-BoldMT-115"/>
     <path d="M 30.953125 51.859375 
L 30.953125 40.921875 
L 21.578125 40.921875 
L 21.578125 20.015625 
Q 21.578125 13.671875 21.84375 12.625 
Q 22.125 11.578125 23.078125 10.890625 
Q 24.03125 10.203125 25.390625 10.203125 
Q 27.296875 10.203125 30.90625 11.53125 
L 32.078125 0.875 
Q 27.296875 -1.171875 21.234375 -1.171875 
Q 17.53125 -1.171875 14.546875 0.0625 
Q 11.578125 1.3125 10.1875 3.296875 
Q 8.796875 5.28125 8.25 8.640625 
Q 7.8125 11.03125 7.8125 18.3125 
L 7.8125 40.921875 
L 1.515625 40.921875 
L 1.515625 51.859375 
L 7.8125 51.859375 
L 7.8125 62.15625 
L 21.578125 70.171875 
L 21.578125 51.859375 
z
" id="Arial-BoldMT-116"/>
     <path d="M 4 26.65625 
Q 4 33.5 7.375 39.890625 
Q 10.75 46.296875 16.921875 49.65625 
Q 23.09375 53.03125 30.71875 53.03125 
Q 42.484375 53.03125 50 45.390625 
Q 57.515625 37.75 57.515625 26.078125 
Q 57.515625 14.3125 49.921875 6.5625 
Q 42.328125 -1.171875 30.8125 -1.171875 
Q 23.6875 -1.171875 17.21875 2.046875 
Q 10.75 5.28125 7.375 11.5 
Q 4 17.71875 4 26.65625 
z
M 18.0625 25.921875 
Q 18.0625 18.21875 21.71875 14.109375 
Q 25.390625 10.015625 30.765625 10.015625 
Q 36.140625 10.015625 39.765625 14.109375 
Q 43.40625 18.21875 43.40625 26.03125 
Q 43.40625 33.640625 39.765625 37.734375 
Q 36.140625 41.84375 30.765625 41.84375 
Q 25.390625 41.84375 21.71875 37.734375 
Q 18.0625 33.640625 18.0625 25.921875 
z
" id="Arial-BoldMT-111"/>
     <path d="M 0.6875 51.859375 
L 15.28125 51.859375 
L 27.6875 15.046875 
L 39.796875 51.859375 
L 54 51.859375 
L 35.6875 1.953125 
L 32.421875 -7.078125 
Q 30.609375 -11.625 28.96875 -14.015625 
Q 27.34375 -16.40625 25.21875 -17.890625 
Q 23.09375 -19.390625 19.984375 -20.21875 
Q 16.890625 -21.046875 12.984375 -21.046875 
Q 9.03125 -21.046875 5.21875 -20.21875 
L 4 -9.46875 
Q 7.234375 -10.109375 9.8125 -10.109375 
Q 14.59375 -10.109375 16.890625 -7.296875 
Q 19.1875 -4.5 20.40625 -0.140625 
z
" id="Arial-BoldMT-121"/>
    </defs>
    <g style="fill:#262626;" transform="translate(127.6325 15.789375)scale(0.12 -0.12)">
     <use xlink:href="#Arial-BoldMT-84"/>
     <use x="61.005859" xlink:href="#Arial-BoldMT-114"/>
     <use x="99.921875" xlink:href="#Arial-BoldMT-97"/>
     <use x="155.537109" xlink:href="#Arial-BoldMT-105"/>
     <use x="183.320312" xlink:href="#Arial-BoldMT-110"/>
     <use x="244.404297" xlink:href="#Arial-BoldMT-105"/>
     <use x="272.1875" xlink:href="#Arial-BoldMT-110"/>
     <use x="333.271484" xlink:href="#Arial-BoldMT-103"/>
     <use x="394.355469" xlink:href="#Arial-BoldMT-32"/>
     <use x="422.138672" xlink:href="#Arial-BoldMT-72"/>
     <use x="494.355469" xlink:href="#Arial-BoldMT-105"/>
     <use x="522.138672" xlink:href="#Arial-BoldMT-115"/>
     <use x="577.753906" xlink:href="#Arial-BoldMT-116"/>
     <use x="611.054688" xlink:href="#Arial-BoldMT-111"/>
     <use x="672.138672" xlink:href="#Arial-BoldMT-114"/>
     <use x="711.054688" xlink:href="#Arial-BoldMT-121"/>
    </g>
   </g>
   <g id="legend_1">
    <g id="patch_7">
     <path d="M 201.233281 80.098125 
L 301.655 80.098125 
L 301.655 26.289375 
L 201.233281 26.289375 
z
" style="fill:#ffffff;opacity:0.8;stroke:#000000;stroke-linejoin:miter;"/>
    </g>
    <g id="line2d_13">
     <path d="M 204.833281 33.181406 
L 222.833281 33.181406 
" style="fill:none;stroke:#1f77b4;stroke-dasharray:2,3.3;stroke-dashoffset:0;stroke-width:2;"/>
    </g>
    <g id="line2d_14"/>
    <g id="text_8">
     <!--    qspr thermal -->
     <defs>
      <path d="M 41.0625 -19.734375 
L 41.0625 6.34375 
Q 38.375 2.875 34.375 0.84375 
Q 30.375 -1.171875 25.734375 -1.171875 
Q 16.890625 -1.171875 11.1875 5.46875 
Q 4.4375 13.234375 4.4375 26.515625 
Q 4.4375 39.015625 10.765625 46.015625 
Q 17.09375 53.03125 26.46875 53.03125 
Q 31.640625 53.03125 35.421875 50.828125 
Q 39.203125 48.640625 42.140625 44.1875 
L 42.140625 51.859375 
L 54.78125 51.859375 
L 54.78125 -19.734375 
z
M 41.5 26.5625 
Q 41.5 34.515625 38.25 38.390625 
Q 35.015625 42.28125 30.125 42.28125 
Q 25.140625 42.28125 21.796875 38.328125 
Q 18.453125 34.375 18.453125 25.78125 
Q 18.453125 17.234375 21.671875 13.453125 
Q 24.90625 9.671875 29.640625 9.671875 
Q 34.375 9.671875 37.9375 13.921875 
Q 41.5 18.171875 41.5 26.5625 
z
" id="Arial-BoldMT-113"/>
      <path d="M 6.78125 51.859375 
L 19.578125 51.859375 
L 19.578125 44.234375 
Q 22.078125 48.140625 26.3125 50.578125 
Q 30.5625 53.03125 35.75 53.03125 
Q 44.78125 53.03125 51.078125 45.953125 
Q 57.375 38.875 57.375 26.21875 
Q 57.375 13.234375 51.015625 6.03125 
Q 44.671875 -1.171875 35.640625 -1.171875 
Q 31.34375 -1.171875 27.84375 0.53125 
Q 24.359375 2.25 20.515625 6.390625 
L 20.515625 -19.734375 
L 6.78125 -19.734375 
z
M 20.359375 26.8125 
Q 20.359375 18.0625 23.828125 13.890625 
Q 27.296875 9.71875 32.28125 9.71875 
Q 37.0625 9.71875 40.234375 13.546875 
Q 43.40625 17.390625 43.40625 26.125 
Q 43.40625 34.28125 40.125 38.234375 
Q 36.859375 42.1875 32.03125 42.1875 
Q 27 42.1875 23.671875 38.296875 
Q 20.359375 34.421875 20.359375 26.8125 
z
" id="Arial-BoldMT-112"/>
      <path d="M 20.84375 71.578125 
L 20.84375 45.265625 
Q 27.484375 53.03125 36.71875 53.03125 
Q 41.453125 53.03125 45.265625 51.265625 
Q 49.078125 49.515625 51 46.78125 
Q 52.9375 44.046875 53.640625 40.71875 
Q 54.34375 37.40625 54.34375 30.421875 
L 54.34375 0 
L 40.625 0 
L 40.625 27.390625 
Q 40.625 35.546875 39.84375 37.734375 
Q 39.0625 39.9375 37.078125 41.234375 
Q 35.109375 42.53125 32.125 42.53125 
Q 28.71875 42.53125 26.03125 40.859375 
Q 23.34375 39.203125 22.09375 35.859375 
Q 20.84375 32.515625 20.84375 25.984375 
L 20.84375 0 
L 7.125 0 
L 7.125 71.578125 
z
" id="Arial-BoldMT-104"/>
      <path d="M 37.203125 16.5 
L 50.875 14.203125 
Q 48.25 6.6875 42.546875 2.75 
Q 36.859375 -1.171875 28.328125 -1.171875 
Q 14.796875 -1.171875 8.296875 7.671875 
Q 3.171875 14.75 3.171875 25.53125 
Q 3.171875 38.421875 9.90625 45.71875 
Q 16.65625 53.03125 26.953125 53.03125 
Q 38.53125 53.03125 45.21875 45.390625 
Q 51.90625 37.75 51.609375 21.96875 
L 17.234375 21.96875 
Q 17.390625 15.875 20.5625 12.46875 
Q 23.734375 9.078125 28.46875 9.078125 
Q 31.6875 9.078125 33.875 10.828125 
Q 36.078125 12.59375 37.203125 16.5 
z
M 37.984375 30.375 
Q 37.84375 36.328125 34.90625 39.421875 
Q 31.984375 42.53125 27.78125 42.53125 
Q 23.296875 42.53125 20.359375 39.265625 
Q 17.4375 35.984375 17.484375 30.375 
z
" id="Arial-BoldMT-101"/>
      <path d="M 6.15625 51.859375 
L 18.796875 51.859375 
L 18.796875 44.78125 
Q 25.59375 53.03125 34.96875 53.03125 
Q 39.9375 53.03125 43.59375 50.96875 
Q 47.265625 48.921875 49.609375 44.78125 
Q 53.03125 48.921875 56.984375 50.96875 
Q 60.9375 53.03125 65.4375 53.03125 
Q 71.140625 53.03125 75.09375 50.703125 
Q 79.046875 48.390625 81 43.890625 
Q 82.421875 40.578125 82.421875 33.15625 
L 82.421875 0 
L 68.703125 0 
L 68.703125 29.640625 
Q 68.703125 37.359375 67.28125 39.59375 
Q 65.375 42.53125 61.421875 42.53125 
Q 58.546875 42.53125 56 40.765625 
Q 53.46875 39.015625 52.34375 35.625 
Q 51.21875 32.234375 51.21875 24.90625 
L 51.21875 0 
L 37.5 0 
L 37.5 28.421875 
Q 37.5 35.984375 36.765625 38.171875 
Q 36.03125 40.375 34.484375 41.453125 
Q 32.953125 42.53125 30.328125 42.53125 
Q 27.15625 42.53125 24.609375 40.8125 
Q 22.078125 39.109375 20.96875 35.890625 
Q 19.875 32.671875 19.875 25.203125 
L 19.875 0 
L 6.15625 0 
z
" id="Arial-BoldMT-109"/>
      <path d="M 7.171875 0 
L 7.171875 71.578125 
L 20.90625 71.578125 
L 20.90625 0 
z
" id="Arial-BoldMT-108"/>
     </defs>
     <g style="fill:#262626;" transform="translate(230.033281 36.331406)scale(0.09 -0.09)">
      <use xlink:href="#Arial-BoldMT-32"/>
      <use x="27.783203" xlink:href="#Arial-BoldMT-32"/>
      <use x="55.566406" xlink:href="#Arial-BoldMT-32"/>
      <use x="83.349609" xlink:href="#Arial-BoldMT-113"/>
      <use x="144.433594" xlink:href="#Arial-BoldMT-115"/>
      <use x="200.048828" xlink:href="#Arial-BoldMT-112"/>
      <use x="261.132812" xlink:href="#Arial-BoldMT-114"/>
      <use x="300.048828" xlink:href="#Arial-BoldMT-32"/>
      <use x="327.832031" xlink:href="#Arial-BoldMT-116"/>
      <use x="361.132812" xlink:href="#Arial-BoldMT-104"/>
      <use x="422.216797" xlink:href="#Arial-BoldMT-101"/>
      <use x="477.832031" xlink:href="#Arial-BoldMT-114"/>
      <use x="516.748047" xlink:href="#Arial-BoldMT-109"/>
      <use x="605.664062" xlink:href="#Arial-BoldMT-97"/>
      <use x="661.279297" xlink:href="#Arial-BoldMT-108"/>
     </g>
    </g>
    <g id="line2d_15">
     <path d="M 204.833281 45.899531 
L 222.833281 45.899531 
" style="fill:none;stroke:#ff7f0e;stroke-dasharray:2,3.3;stroke-dashoffset:0;stroke-width:2;"/>
    </g>
    <g id="line2d_16"/>
    <g id="text_9">
     <!--    qspr density -->
     <defs>
      <path d="M 54.734375 0 
L 42 0 
L 42 7.625 
Q 38.8125 3.171875 34.484375 1 
Q 30.171875 -1.171875 25.78125 -1.171875 
Q 16.84375 -1.171875 10.46875 6.03125 
Q 4.109375 13.234375 4.109375 26.125 
Q 4.109375 39.3125 10.296875 46.171875 
Q 16.5 53.03125 25.984375 53.03125 
Q 34.671875 53.03125 41.015625 45.796875 
L 41.015625 71.578125 
L 54.734375 71.578125 
z
M 18.109375 27.046875 
Q 18.109375 18.75 20.40625 15.046875 
Q 23.734375 9.671875 29.6875 9.671875 
Q 34.421875 9.671875 37.734375 13.6875 
Q 41.0625 17.71875 41.0625 25.734375 
Q 41.0625 34.671875 37.84375 38.59375 
Q 34.625 42.53125 29.59375 42.53125 
Q 24.703125 42.53125 21.40625 38.640625 
Q 18.109375 34.765625 18.109375 27.046875 
z
" id="Arial-BoldMT-100"/>
     </defs>
     <g style="fill:#262626;" transform="translate(230.033281 49.049531)scale(0.09 -0.09)">
      <use xlink:href="#Arial-BoldMT-32"/>
      <use x="27.783203" xlink:href="#Arial-BoldMT-32"/>
      <use x="55.566406" xlink:href="#Arial-BoldMT-32"/>
      <use x="83.349609" xlink:href="#Arial-BoldMT-113"/>
      <use x="144.433594" xlink:href="#Arial-BoldMT-115"/>
      <use x="200.048828" xlink:href="#Arial-BoldMT-112"/>
      <use x="261.132812" xlink:href="#Arial-BoldMT-114"/>
      <use x="300.048828" xlink:href="#Arial-BoldMT-32"/>
      <use x="327.832031" xlink:href="#Arial-BoldMT-100"/>
      <use x="388.916016" xlink:href="#Arial-BoldMT-101"/>
      <use x="444.53125" xlink:href="#Arial-BoldMT-110"/>
      <use x="505.615234" xlink:href="#Arial-BoldMT-115"/>
      <use x="561.230469" xlink:href="#Arial-BoldMT-105"/>
      <use x="589.013672" xlink:href="#Arial-BoldMT-116"/>
      <use x="622.314453" xlink:href="#Arial-BoldMT-121"/>
     </g>
    </g>
    <g id="line2d_17">
     <path d="M 204.833281 58.735781 
L 222.833281 58.735781 
" style="fill:none;stroke:#2ca02c;stroke-dasharray:2,3.3;stroke-dashoffset:0;stroke-width:2;"/>
    </g>
    <g id="line2d_18"/>
    <g id="text_10">
     <!--    qspr cpt -->
     <defs>
      <path d="M 52.390625 36.53125 
L 38.875 34.078125 
Q 38.1875 38.140625 35.765625 40.1875 
Q 33.34375 42.234375 29.5 42.234375 
Q 24.359375 42.234375 21.3125 38.6875 
Q 18.265625 35.15625 18.265625 26.859375 
Q 18.265625 17.625 21.359375 13.8125 
Q 24.46875 10.015625 29.6875 10.015625 
Q 33.59375 10.015625 36.078125 12.234375 
Q 38.578125 14.453125 39.59375 19.875 
L 53.078125 17.578125 
Q 50.984375 8.296875 45.015625 3.5625 
Q 39.0625 -1.171875 29.046875 -1.171875 
Q 17.671875 -1.171875 10.90625 6 
Q 4.15625 13.1875 4.15625 25.875 
Q 4.15625 38.71875 10.9375 45.875 
Q 17.71875 53.03125 29.296875 53.03125 
Q 38.765625 53.03125 44.359375 48.953125 
Q 49.953125 44.875 52.390625 36.53125 
z
" id="Arial-BoldMT-99"/>
     </defs>
     <g style="fill:#262626;" transform="translate(230.033281 61.885781)scale(0.09 -0.09)">
      <use xlink:href="#Arial-BoldMT-32"/>
      <use x="27.783203" xlink:href="#Arial-BoldMT-32"/>
      <use x="55.566406" xlink:href="#Arial-BoldMT-32"/>
      <use x="83.349609" xlink:href="#Arial-BoldMT-113"/>
      <use x="144.433594" xlink:href="#Arial-BoldMT-115"/>
      <use x="200.048828" xlink:href="#Arial-BoldMT-112"/>
      <use x="261.132812" xlink:href="#Arial-BoldMT-114"/>
      <use x="300.048828" xlink:href="#Arial-BoldMT-32"/>
      <use x="327.832031" xlink:href="#Arial-BoldMT-99"/>
      <use x="383.447266" xlink:href="#Arial-BoldMT-112"/>
      <use x="444.53125" xlink:href="#Arial-BoldMT-116"/>
     </g>
    </g>
    <g id="line2d_19">
     <path d="M 204.833281 71.453906 
L 222.833281 71.453906 
" style="fill:none;stroke:#d62728;stroke-dasharray:2,3.3;stroke-dashoffset:0;stroke-width:2;"/>
    </g>
    <g id="line2d_20"/>
    <g id="text_11">
     <!--    qspr viscosity -->
     <defs>
      <path d="M 21.4375 0 
L 0.53125 51.859375 
L 14.9375 51.859375 
L 24.703125 25.390625 
L 27.546875 16.546875 
Q 28.65625 19.921875 28.953125 21 
Q 29.640625 23.1875 30.421875 25.390625 
L 40.28125 51.859375 
L 54.390625 51.859375 
L 33.796875 0 
z
" id="Arial-BoldMT-118"/>
     </defs>
     <g style="fill:#262626;" transform="translate(230.033281 74.603906)scale(0.09 -0.09)">
      <use xlink:href="#Arial-BoldMT-32"/>
      <use x="27.783203" xlink:href="#Arial-BoldMT-32"/>
      <use x="55.566406" xlink:href="#Arial-BoldMT-32"/>
      <use x="83.349609" xlink:href="#Arial-BoldMT-113"/>
      <use x="144.433594" xlink:href="#Arial-BoldMT-115"/>
      <use x="200.048828" xlink:href="#Arial-BoldMT-112"/>
      <use x="261.132812" xlink:href="#Arial-BoldMT-114"/>
      <use x="300.048828" xlink:href="#Arial-BoldMT-32"/>
      <use x="327.832031" xlink:href="#Arial-BoldMT-118"/>
      <use x="383.447266" xlink:href="#Arial-BoldMT-105"/>
      <use x="411.230469" xlink:href="#Arial-BoldMT-115"/>
      <use x="466.845703" xlink:href="#Arial-BoldMT-99"/>
      <use x="522.460938" xlink:href="#Arial-BoldMT-111"/>
      <use x="583.544922" xlink:href="#Arial-BoldMT-115"/>
      <use x="639.160156" xlink:href="#Arial-BoldMT-105"/>
      <use x="666.943359" xlink:href="#Arial-BoldMT-116"/>
      <use x="700.244141" xlink:href="#Arial-BoldMT-121"/>
     </g>
    </g>
   </g>
  </g>
  <g id="axes_2">
   <g id="patch_8">
    <path d="M 41.105 286.929375 
L 306.155 286.929375 
L 306.155 154.359375 
L 41.105 154.359375 
z
" style="fill:#ffffff;"/>
   </g>
   <g id="matplotlib.axis_3">
    <g id="xtick_12">
     <g id="text_12">
      <!-- 0 -->
      <g style="fill:#262626;" transform="translate(38.046484 298.302969)scale(0.11 -0.11)">
       <use xlink:href="#Arial-BoldMT-48"/>
      </g>
     </g>
    </g>
    <g id="xtick_13">
     <g id="text_13">
      <!-- 10 -->
      <g style="fill:#262626;" transform="translate(61.492969 298.302969)scale(0.11 -0.11)">
       <use xlink:href="#Arial-BoldMT-49"/>
       <use x="55.615234" xlink:href="#Arial-BoldMT-48"/>
      </g>
     </g>
    </g>
    <g id="xtick_14">
     <g id="text_14">
      <!-- 20 -->
      <g style="fill:#262626;" transform="translate(87.997969 298.302969)scale(0.11 -0.11)">
       <use xlink:href="#Arial-BoldMT-50"/>
       <use x="55.615234" xlink:href="#Arial-BoldMT-48"/>
      </g>
     </g>
    </g>
    <g id="xtick_15">
     <g id="text_15">
      <!-- 30 -->
      <defs>
       <path d="M 3.765625 19 
L 17.046875 20.609375 
Q 17.671875 15.53125 20.453125 12.84375 
Q 23.25 10.15625 27.203125 10.15625 
Q 31.453125 10.15625 34.34375 13.375 
Q 37.25 16.609375 37.25 22.078125 
Q 37.25 27.25 34.46875 30.265625 
Q 31.6875 33.296875 27.6875 33.296875 
Q 25.046875 33.296875 21.390625 32.28125 
L 22.90625 43.453125 
Q 28.46875 43.3125 31.390625 45.875 
Q 34.328125 48.4375 34.328125 52.6875 
Q 34.328125 56.296875 32.171875 58.4375 
Q 30.03125 60.59375 26.46875 60.59375 
Q 22.953125 60.59375 20.453125 58.15625 
Q 17.96875 55.71875 17.4375 51.03125 
L 4.78125 53.171875 
Q 6.109375 59.671875 8.765625 63.546875 
Q 11.421875 67.4375 16.1875 69.65625 
Q 20.953125 71.875 26.859375 71.875 
Q 36.96875 71.875 43.0625 65.4375 
Q 48.09375 60.15625 48.09375 53.515625 
Q 48.09375 44.09375 37.796875 38.484375 
Q 43.953125 37.15625 47.625 32.5625 
Q 51.3125 27.984375 51.3125 21.484375 
Q 51.3125 12.0625 44.421875 5.421875 
Q 37.546875 -1.21875 27.296875 -1.21875 
Q 17.578125 -1.21875 11.171875 4.375 
Q 4.78125 9.96875 3.765625 19 
z
" id="Arial-BoldMT-51"/>
      </defs>
      <g style="fill:#262626;" transform="translate(114.502969 298.302969)scale(0.11 -0.11)">
       <use xlink:href="#Arial-BoldMT-51"/>
       <use x="55.615234" xlink:href="#Arial-BoldMT-48"/>
      </g>
     </g>
    </g>
    <g id="xtick_16">
     <g id="text_16">
      <!-- 40 -->
      <defs>
       <path d="M 31.15625 0 
L 31.15625 14.40625 
L 1.859375 14.40625 
L 1.859375 26.421875 
L 32.90625 71.875 
L 44.4375 71.875 
L 44.4375 26.46875 
L 53.328125 26.46875 
L 53.328125 14.40625 
L 44.4375 14.40625 
L 44.4375 0 
z
M 31.15625 26.46875 
L 31.15625 50.921875 
L 14.703125 26.46875 
z
" id="Arial-BoldMT-52"/>
      </defs>
      <g style="fill:#262626;" transform="translate(141.007969 298.302969)scale(0.11 -0.11)">
       <use xlink:href="#Arial-BoldMT-52"/>
       <use x="55.615234" xlink:href="#Arial-BoldMT-48"/>
      </g>
     </g>
    </g>
    <g id="xtick_17">
     <g id="text_17">
      <!-- 50 -->
      <g style="fill:#262626;" transform="translate(167.512969 298.302969)scale(0.11 -0.11)">
       <use xlink:href="#Arial-BoldMT-53"/>
       <use x="55.615234" xlink:href="#Arial-BoldMT-48"/>
      </g>
     </g>
    </g>
    <g id="xtick_18">
     <g id="text_18">
      <!-- 60 -->
      <defs>
       <path d="M 50.734375 54.046875 
L 37.453125 52.59375 
Q 36.96875 56.6875 34.90625 58.640625 
Q 32.859375 60.59375 29.59375 60.59375 
Q 25.25 60.59375 22.234375 56.6875 
Q 19.234375 52.78125 18.453125 40.4375 
Q 23.578125 46.484375 31.203125 46.484375 
Q 39.796875 46.484375 45.921875 39.9375 
Q 52.046875 33.40625 52.046875 23.046875 
Q 52.046875 12.0625 45.59375 5.421875 
Q 39.15625 -1.21875 29.046875 -1.21875 
Q 18.21875 -1.21875 11.234375 7.203125 
Q 4.25 15.625 4.25 34.8125 
Q 4.25 54.5 11.515625 63.1875 
Q 18.796875 71.875 30.421875 71.875 
Q 38.578125 71.875 43.921875 67.3125 
Q 49.265625 62.75 50.734375 54.046875 
z
M 19.625 24.125 
Q 19.625 17.4375 22.703125 13.796875 
Q 25.78125 10.15625 29.734375 10.15625 
Q 33.546875 10.15625 36.078125 13.125 
Q 38.625 16.109375 38.625 22.90625 
Q 38.625 29.890625 35.890625 33.125 
Q 33.15625 36.375 29.046875 36.375 
Q 25.09375 36.375 22.359375 33.265625 
Q 19.625 30.171875 19.625 24.125 
z
" id="Arial-BoldMT-54"/>
      </defs>
      <g style="fill:#262626;" transform="translate(194.017969 298.302969)scale(0.11 -0.11)">
       <use xlink:href="#Arial-BoldMT-54"/>
       <use x="55.615234" xlink:href="#Arial-BoldMT-48"/>
      </g>
     </g>
    </g>
    <g id="xtick_19">
     <g id="text_19">
      <!-- 70 -->
      <defs>
       <path d="M 4.25 57.859375 
L 4.25 70.609375 
L 51.171875 70.609375 
L 51.171875 60.640625 
Q 45.359375 54.9375 39.34375 44.234375 
Q 33.34375 33.546875 30.1875 21.5 
Q 27.046875 9.46875 27.09375 0 
L 13.875 0 
Q 14.203125 14.84375 19.984375 30.265625 
Q 25.78125 45.703125 35.453125 57.859375 
z
" id="Arial-BoldMT-55"/>
      </defs>
      <g style="fill:#262626;" transform="translate(220.522969 298.302969)scale(0.11 -0.11)">
       <use xlink:href="#Arial-BoldMT-55"/>
       <use x="55.615234" xlink:href="#Arial-BoldMT-48"/>
      </g>
     </g>
    </g>
    <g id="xtick_20">
     <g id="text_20">
      <!-- 80 -->
      <defs>
       <path d="M 16.015625 38.625 
Q 10.6875 40.875 8.265625 44.796875 
Q 5.859375 48.734375 5.859375 53.421875 
Q 5.859375 61.421875 11.453125 66.640625 
Q 17.046875 71.875 27.34375 71.875 
Q 37.546875 71.875 43.1875 66.640625 
Q 48.828125 61.421875 48.828125 53.421875 
Q 48.828125 48.4375 46.234375 44.546875 
Q 43.65625 40.671875 38.96875 38.625 
Q 44.921875 36.234375 48.015625 31.640625 
Q 51.125 27.046875 51.125 21.046875 
Q 51.125 11.140625 44.796875 4.9375 
Q 38.484375 -1.265625 27.984375 -1.265625 
Q 18.21875 -1.265625 11.71875 3.859375 
Q 4.046875 9.90625 4.046875 20.453125 
Q 4.046875 26.265625 6.921875 31.125 
Q 9.8125 35.984375 16.015625 38.625 
z
M 18.84375 52.4375 
Q 18.84375 48.34375 21.15625 46.046875 
Q 23.484375 43.75 27.34375 43.75 
Q 31.25 43.75 33.59375 46.0625 
Q 35.9375 48.390625 35.9375 52.484375 
Q 35.9375 56.34375 33.609375 58.65625 
Q 31.296875 60.984375 27.484375 60.984375 
Q 23.53125 60.984375 21.1875 58.640625 
Q 18.84375 56.296875 18.84375 52.4375 
z
M 17.578125 21.78125 
Q 17.578125 16.109375 20.484375 12.9375 
Q 23.390625 9.765625 27.734375 9.765625 
Q 31.984375 9.765625 34.765625 12.8125 
Q 37.546875 15.875 37.546875 21.625 
Q 37.546875 26.65625 34.71875 29.703125 
Q 31.890625 32.765625 27.546875 32.765625 
Q 22.515625 32.765625 20.046875 29.296875 
Q 17.578125 25.828125 17.578125 21.78125 
z
" id="Arial-BoldMT-56"/>
      </defs>
      <g style="fill:#262626;" transform="translate(247.027969 298.302969)scale(0.11 -0.11)">
       <use xlink:href="#Arial-BoldMT-56"/>
       <use x="55.615234" xlink:href="#Arial-BoldMT-48"/>
      </g>
     </g>
    </g>
    <g id="xtick_21">
     <g id="text_21">
      <!-- 90 -->
      <defs>
       <path d="M 4.546875 16.546875 
L 17.828125 18.015625 
Q 18.3125 13.96875 20.359375 12.015625 
Q 22.40625 10.0625 25.78125 10.0625 
Q 30.03125 10.0625 33 13.96875 
Q 35.984375 17.875 36.8125 30.171875 
Q 31.640625 24.171875 23.875 24.171875 
Q 15.4375 24.171875 9.296875 30.6875 
Q 3.171875 37.203125 3.171875 47.65625 
Q 3.171875 58.546875 9.640625 65.203125 
Q 16.109375 71.875 26.125 71.875 
Q 37.015625 71.875 44 63.453125 
Q 50.984375 55.03125 50.984375 35.75 
Q 50.984375 16.109375 43.703125 7.421875 
Q 36.421875 -1.265625 24.75 -1.265625 
Q 16.359375 -1.265625 11.171875 3.203125 
Q 6 7.671875 4.546875 16.546875 
z
M 35.59375 46.53125 
Q 35.59375 53.171875 32.546875 56.828125 
Q 29.5 60.5 25.484375 60.5 
Q 21.6875 60.5 19.171875 57.5 
Q 16.65625 54.5 16.65625 47.65625 
Q 16.65625 40.71875 19.390625 37.46875 
Q 22.125 34.234375 26.21875 34.234375 
Q 30.171875 34.234375 32.875 37.359375 
Q 35.59375 40.484375 35.59375 46.53125 
z
" id="Arial-BoldMT-57"/>
      </defs>
      <g style="fill:#262626;" transform="translate(273.532969 298.302969)scale(0.11 -0.11)">
       <use xlink:href="#Arial-BoldMT-57"/>
       <use x="55.615234" xlink:href="#Arial-BoldMT-48"/>
      </g>
     </g>
    </g>
    <g id="xtick_22">
     <g id="text_22">
      <!-- 100 -->
      <g style="fill:#262626;" transform="translate(296.979453 298.302969)scale(0.11 -0.11)">
       <use xlink:href="#Arial-BoldMT-49"/>
       <use x="55.615234" xlink:href="#Arial-BoldMT-48"/>
       <use x="111.230469" xlink:href="#Arial-BoldMT-48"/>
      </g>
     </g>
    </g>
    <g id="text_23">
     <!-- Epochs -->
     <g style="fill:#262626;" transform="translate(151.960625 313.063125)scale(0.12 -0.12)">
      <use xlink:href="#Arial-BoldMT-69"/>
      <use x="66.699219" xlink:href="#Arial-BoldMT-112"/>
      <use x="127.783203" xlink:href="#Arial-BoldMT-111"/>
      <use x="188.867188" xlink:href="#Arial-BoldMT-99"/>
      <use x="244.482422" xlink:href="#Arial-BoldMT-104"/>
      <use x="305.566406" xlink:href="#Arial-BoldMT-115"/>
     </g>
    </g>
   </g>
   <g id="matplotlib.axis_4">
    <g id="ytick_6">
     <g id="text_24">
      <!-- 0.6 -->
      <g style="fill:#262626;" transform="translate(22.315 268.771172)scale(0.11 -0.11)">
       <use xlink:href="#Arial-BoldMT-48"/>
       <use x="55.615234" xlink:href="#Arial-BoldMT-46"/>
       <use x="83.398438" xlink:href="#Arial-BoldMT-54"/>
      </g>
     </g>
    </g>
    <g id="ytick_7">
     <g id="text_25">
      <!-- 0.8 -->
      <g style="fill:#262626;" transform="translate(22.315 224.581172)scale(0.11 -0.11)">
       <use xlink:href="#Arial-BoldMT-48"/>
       <use x="55.615234" xlink:href="#Arial-BoldMT-46"/>
       <use x="83.398438" xlink:href="#Arial-BoldMT-56"/>
      </g>
     </g>
    </g>
    <g id="ytick_8">
     <g id="text_26">
      <!-- 1.0 -->
      <g style="fill:#262626;" transform="translate(22.315 180.391172)scale(0.11 -0.11)">
       <use xlink:href="#Arial-BoldMT-49"/>
       <use x="55.615234" xlink:href="#Arial-BoldMT-46"/>
       <use x="83.398438" xlink:href="#Arial-BoldMT-48"/>
      </g>
     </g>
    </g>
    <g id="text_27">
     <!-- Accuracy -->
     <defs>
      <path d="M 71.828125 0 
L 56.109375 0 
L 49.859375 16.265625 
L 21.234375 16.265625 
L 15.328125 0 
L 0 0 
L 27.875 71.578125 
L 43.171875 71.578125 
z
M 45.21875 28.328125 
L 35.359375 54.890625 
L 25.6875 28.328125 
z
" id="Arial-BoldMT-65"/>
      <path d="M 41.3125 0 
L 41.3125 7.765625 
Q 38.484375 3.609375 33.859375 1.21875 
Q 29.25 -1.171875 24.125 -1.171875 
Q 18.890625 -1.171875 14.734375 1.125 
Q 10.59375 3.421875 8.734375 7.5625 
Q 6.890625 11.71875 6.890625 19.046875 
L 6.890625 51.859375 
L 20.609375 51.859375 
L 20.609375 28.03125 
Q 20.609375 17.09375 21.359375 14.625 
Q 22.125 12.15625 24.125 10.71875 
Q 26.125 9.28125 29.203125 9.28125 
Q 32.71875 9.28125 35.5 11.203125 
Q 38.28125 13.140625 39.296875 15.984375 
Q 40.328125 18.84375 40.328125 29.984375 
L 40.328125 51.859375 
L 54.046875 51.859375 
L 54.046875 0 
z
" id="Arial-BoldMT-117"/>
     </defs>
     <g style="fill:#262626;" transform="translate(15.789375 247.660313)rotate(-90)scale(0.12 -0.12)">
      <use xlink:href="#Arial-BoldMT-65"/>
      <use x="72.216797" xlink:href="#Arial-BoldMT-99"/>
      <use x="127.832031" xlink:href="#Arial-BoldMT-99"/>
      <use x="183.447266" xlink:href="#Arial-BoldMT-117"/>
      <use x="244.53125" xlink:href="#Arial-BoldMT-114"/>
      <use x="283.447266" xlink:href="#Arial-BoldMT-97"/>
      <use x="339.0625" xlink:href="#Arial-BoldMT-99"/>
      <use x="394.677734" xlink:href="#Arial-BoldMT-121"/>
     </g>
    </g>
   </g>
   <g id="line2d_21">
    <path clip-path="url(#p820ed2980e)" d="M 43.7555 183.930128 
L 46.406 199.49791 
L 49.0565 218.200689 
L 51.707 215.280052 
L 54.3575 201.721882 
L 57.008 202.900854 
L 59.6585 196.604071 
L 62.309 192.316901 
L 64.9595 189.610623 
L 67.61 187.091914 
L 70.2605 185.725376 
L 72.911 184.94833 
L 75.5615 184.117694 
L 78.212 183.796157 
L 80.8625 183.474616 
L 83.513 183.206667 
L 86.1635 183.17987 
L 88.814 183.153076 
L 91.4645 183.072691 
L 94.115 183.045897 
L 96.7655 183.019103 
L 99.416 183.099488 
L 102.0665 183.179873 
L 104.717 183.153076 
L 107.3675 183.126279 
L 110.018 183.153079 
L 112.6685 183.072691 
L 115.319 183.126279 
L 117.9695 183.126285 
L 120.62 183.099488 
L 123.2705 183.179873 
L 125.921 183.153076 
L 128.5715 183.179873 
L 131.222 183.045897 
L 133.8725 183.153079 
L 136.523 182.965511 
L 139.1735 183.099488 
L 141.824 183.045897 
L 144.4745 182.91192 
L 147.125 182.992305 
L 149.7755 182.965511 
L 152.426 182.992305 
L 155.0765 182.965511 
L 157.727 182.938717 
L 160.3775 182.965511 
L 163.028 182.965511 
L 165.6785 182.965511 
L 168.329 182.911924 
L 170.9795 182.992305 
L 173.63 182.91192 
L 176.2805 182.938714 
L 178.931 182.992305 
L 181.5815 182.965511 
L 184.232 182.992309 
L 186.8825 182.938714 
L 189.533 182.91192 
L 192.1835 182.965511 
L 194.834 182.965511 
L 197.4845 182.938717 
L 200.135 182.965511 
L 202.7855 182.938717 
L 205.436 182.91192 
L 208.0865 182.885126 
L 210.737 182.91192 
L 213.3875 182.858332 
L 216.038 182.965511 
L 218.6885 182.88513 
L 221.339 182.885126 
L 223.9895 182.885126 
L 226.64 182.992309 
L 229.2905 182.831538 
L 231.941 182.885126 
L 234.5915 182.965511 
L 237.242 182.804744 
L 239.8925 182.911924 
L 242.543 182.858332 
L 245.1935 182.938717 
L 247.844 182.858332 
L 250.4945 182.885126 
L 253.145 182.885126 
L 255.7955 182.858332 
L 258.446 182.831538 
L 261.0965 182.965511 
L 263.747 182.965515 
L 266.3975 182.858332 
L 269.048 182.91192 
L 271.6985 182.804744 
L 274.349 182.91192 
L 276.9995 182.885126 
L 279.65 182.885126 
L 282.3005 182.938714 
L 284.951 182.911924 
L 287.6015 182.965515 
L 290.252 182.911924 
L 292.9025 182.831538 
L 295.553 182.804744 
L 298.2035 182.992309 
L 300.854 182.938717 
L 303.5045 182.992309 
L 306.155 182.831538 
" style="fill:none;stroke:#1f77b4;stroke-dasharray:7.4,3.2;stroke-dashoffset:0;stroke-width:2;"/>
   </g>
   <g id="line2d_22">
    <path clip-path="url(#p820ed2980e)" d="M 43.7555 176.53476 
L 46.406 176.507966 
L 49.0565 176.641939 
L 51.707 176.615145 
L 54.3575 176.561557 
L 57.008 176.454375 
L 59.6585 176.481169 
L 62.309 176.53476 
L 64.9595 176.454375 
L 67.61 176.454375 
L 70.2605 176.454375 
L 72.911 176.454375 
L 75.5615 176.454375 
L 78.212 176.481169 
L 80.8625 176.454375 
L 83.513 176.454375 
L 86.1635 176.454375 
L 88.814 176.454375 
L 91.4645 176.454375 
L 94.115 176.454375 
L 96.7655 176.454375 
L 99.416 176.454375 
L 102.0665 176.454375 
L 104.717 176.454375 
L 107.3675 176.454375 
L 110.018 176.454375 
L 112.6685 176.454375 
L 115.319 176.454375 
L 117.9695 176.454375 
L 120.62 176.454375 
L 123.2705 176.454375 
L 125.921 176.454375 
L 128.5715 176.454375 
L 131.222 176.454375 
L 133.8725 176.454375 
L 136.523 176.454375 
L 139.1735 176.454375 
L 141.824 176.481169 
L 144.4745 176.454375 
L 147.125 176.454375 
L 149.7755 176.454375 
L 152.426 176.454375 
L 155.0765 176.454375 
L 157.727 176.481169 
L 160.3775 176.53476 
L 163.028 176.481169 
L 165.6785 176.454375 
L 168.329 176.454375 
L 170.9795 176.454375 
L 173.63 176.481169 
L 176.2805 176.481169 
L 178.931 176.829504 
L 181.5815 176.80271 
L 184.232 177.499372 
L 186.8825 179.294624 
L 189.533 178.839113 
L 192.1835 177.070656 
L 194.834 176.990274 
L 197.4845 176.668736 
L 200.135 176.507963 
L 202.7855 176.454375 
L 205.436 176.454375 
L 208.0865 176.454375 
L 210.737 176.454375 
L 213.3875 176.454375 
L 216.038 176.454375 
L 218.6885 176.454375 
L 221.339 176.454375 
L 223.9895 176.454375 
L 226.64 176.454375 
L 229.2905 178.651553 
L 231.941 184.975124 
L 234.5915 184.466024 
L 237.242 182.751155 
L 239.8925 182.885128 
L 242.543 181.384619 
L 245.1935 182.777952 
L 247.844 179.910904 
L 250.4945 180.714751 
L 253.145 181.438209 
L 255.7955 180.259236 
L 258.446 182.751158 
L 261.0965 181.652568 
L 263.747 182.34923 
L 266.3975 180.607571 
L 269.048 179.482187 
L 271.6985 181.438205 
L 274.349 179.160652 
L 276.9995 181.732951 
L 279.65 181.38462 
L 282.3005 181.036284 
L 284.951 180.044881 
L 287.6015 178.839118 
L 290.252 179.107058 
L 292.9025 179.053471 
L 295.553 180.982697 
L 298.2035 180.768336 
L 300.854 178.865909 
L 303.5045 178.597961 
L 306.155 179.401804 
" style="fill:none;stroke:#1f77b4;stroke-linecap:round;stroke-width:2;"/>
   </g>
   <g id="line2d_23">
    <path clip-path="url(#p820ed2980e)" d="M 67.61 323.63125 
L 67.61 154.359375 
" style="fill:none;stroke:#7f7f7f;stroke-dasharray:2,3.3;stroke-dashoffset:0;stroke-width:2;"/>
   </g>
   <g id="line2d_24">
    <path clip-path="url(#p820ed2980e)" d="M 120.62 323.63125 
L 120.62 154.359375 
" style="fill:none;stroke:#7f7f7f;stroke-dasharray:2,3.3;stroke-dashoffset:0;stroke-width:2;"/>
   </g>
   <g id="line2d_25">
    <path clip-path="url(#p820ed2980e)" d="M 43.7555 182.865114 
L 46.406 180.619422 
L 49.0565 180.499154 
L 51.707 180.262839 
L 54.3575 180.255806 
L 57.008 181.317816 
L 59.6585 186.022306 
L 62.309 180.876836 
L 64.9595 180.526583 
L 67.61 180.395767 
L 70.2605 182.635833 
L 72.911 183.251235 
L 75.5615 181.018202 
L 78.212 180.609575 
L 80.8625 180.416163 
L 83.513 180.279015 
L 86.1635 180.166485 
L 88.814 182.472663 
L 91.4645 184.601605 
L 94.115 185.547567 
L 96.7655 181.470435 
L 99.416 180.912705 
L 102.0665 180.630674 
L 104.717 180.417569 
L 107.3675 180.419679 
L 110.018 180.329655 
L 112.6685 182.006364 
L 115.319 181.983154 
L 117.9695 180.99007 
L 120.62 180.9964 
L 123.2705 180.433746 
L 125.921 180.461878 
L 128.5715 187.62376 
L 131.222 204.188293 
L 133.8725 187.633606 
L 136.523 189.100023 
L 139.1735 213.185834 
L 141.824 202.673347 
L 144.4745 192.777671 
L 147.125 211.144806 
L 149.7755 203.605946 
L 152.426 195.907433 
L 155.0765 187.618133 
L 157.727 184.409599 
L 160.3775 184.653651 
L 163.028 183.283588 
L 165.6785 182.280657 
L 168.329 182.243381 
L 170.9795 191.948459 
L 173.63 190.277377 
L 176.2805 184.218297 
L 178.931 192.749538 
L 181.5815 183.88422 
L 184.232 182.484619 
L 186.8825 181.86781 
L 189.533 185.456136 
L 192.1835 186.667951 
L 194.834 182.14984 
L 197.4845 182.17727 
L 200.135 182.081619 
L 202.7855 208.077639 
L 205.436 190.29918 
L 208.0865 186.027229 
L 210.737 193.212321 
L 213.3875 183.609224 
L 216.038 188.751178 
L 218.6885 181.843193 
L 221.339 182.948105 
L 223.9895 181.747543 
L 226.64 181.516854 
L 229.2905 180.779074 
L 231.941 180.834637 
L 234.5915 180.757975 
L 237.242 181.848117 
L 239.8925 182.042936 
L 242.543 182.104125 
L 245.1935 181.038598 
L 247.844 180.646851 
L 250.4945 180.520253 
L 253.145 188.526116 
L 255.7955 185.056651 
L 258.446 191.539128 
L 261.0965 182.642865 
L 263.747 181.997923 
L 266.3975 181.490832 
L 269.048 182.820101 
L 271.6985 184.647321 
L 274.349 181.070951 
L 276.9995 182.918566 
L 279.65 182.009177 
L 282.3005 181.106117 
L 284.951 186.461176 
L 287.6015 180.83534 
L 290.252 180.838153 
L 292.9025 180.570893 
L 295.553 180.681313 
L 298.2035 180.35427 
L 300.854 180.765008 
L 303.5045 190.439843 
L 306.155 181.682837 
" style="fill:none;stroke:#ff7f0e;stroke-dasharray:7.4,3.2;stroke-dashoffset:0;stroke-width:2;"/>
   </g>
   <g id="line2d_26">
    <path clip-path="url(#p820ed2980e)" d="M 43.7555 176.836981 
L 46.406 176.631611 
L 49.0565 176.959357 
L 51.707 177.652829 
L 54.3575 176.966391 
L 57.008 176.759615 
L 59.6585 176.725856 
L 62.309 176.654821 
L 64.9595 176.829947 
L 67.61 176.861596 
L 70.2605 179.362593 
L 72.911 178.683189 
L 75.5615 177.634542 
L 78.212 177.552254 
L 80.8625 177.277257 
L 83.513 176.671701 
L 86.1635 176.774385 
L 88.814 176.924191 
L 91.4645 177.686588 
L 94.115 179.609458 
L 96.7655 179.082672 
L 99.416 177.293433 
L 102.0665 177.159803 
L 104.717 177.192155 
L 107.3675 177.72738 
L 110.018 177.102834 
L 112.6685 176.966391 
L 115.319 176.713196 
L 117.9695 176.637238 
L 120.62 176.566906 
L 123.2705 176.5444 
L 125.921 177.894769 
L 128.5715 177.308906 
L 131.222 176.755395 
L 133.8725 176.66537 
L 136.523 176.630908 
L 139.1735 177.001556 
L 141.824 176.934741 
L 144.4745 176.741329 
L 147.125 176.693503 
L 149.7755 176.739922 
L 152.426 176.67592 
L 155.0765 176.648491 
L 157.727 176.611918 
L 160.3775 178.709914 
L 163.028 177.500912 
L 165.6785 181.893832 
L 168.329 183.613443 
L 170.9795 181.607582 
L 173.63 180.975299 
L 176.2805 179.663613 
L 178.931 179.603831 
L 181.5815 179.407606 
L 184.232 179.928764 
L 186.8825 179.448398 
L 189.533 178.73875 
L 192.1835 178.288627 
L 194.834 178.123347 
L 197.4845 177.89477 
L 200.135 178.579097 
L 202.7855 179.647437 
L 205.436 180.197431 
L 208.0865 179.110101 
L 210.737 177.583903 
L 213.3875 177.001557 
L 216.038 176.937555 
L 218.6885 176.983973 
L 221.339 176.877069 
L 223.9895 177.090174 
L 226.64 178.505249 
L 229.2905 177.804746 
L 231.941 177.15277 
L 234.5915 176.917862 
L 237.242 177.128153 
L 239.8925 177.154177 
L 242.543 185.155819 
L 245.1935 186.207982 
L 247.844 188.521193 
L 250.4945 189.364471 
L 253.145 187.606881 
L 255.7955 185.695264 
L 258.446 185.262723 
L 261.0965 184.065677 
L 263.747 188.972019 
L 266.3975 184.21478 
L 269.048 182.144213 
L 271.6985 181.542173 
L 274.349 183.015624 
L 276.9995 185.331648 
L 279.65 182.246898 
L 282.3005 182.087244 
L 284.951 183.105649 
L 287.6015 183.242795 
L 290.252 181.275616 
L 292.9025 182.895357 
L 295.553 181.306563 
L 298.2035 180.708742 
L 300.854 180.145386 
L 303.5045 179.452618 
L 306.155 181.782708 
" style="fill:none;stroke:#ff7f0e;stroke-linecap:round;stroke-width:2;"/>
   </g>
   <g id="line2d_27">
    <path clip-path="url(#p820ed2980e)" d="M 67.61 323.63125 
L 67.61 154.359375 
" style="fill:none;stroke:#7f7f7f;stroke-dasharray:2,3.3;stroke-dashoffset:0;stroke-width:2;"/>
   </g>
   <g id="line2d_28">
    <path clip-path="url(#p820ed2980e)" d="M 120.62 323.63125 
L 120.62 154.359375 
" style="fill:none;stroke:#7f7f7f;stroke-dasharray:2,3.3;stroke-dashoffset:0;stroke-width:2;"/>
   </g>
   <g id="line2d_29">
    <path clip-path="url(#p820ed2980e)" d="M 43.7555 182.097105 
L 46.406 180.31639 
L 49.0565 180.0067 
L 51.707 179.788095 
L 54.3575 179.694733 
L 57.008 179.628695 
L 59.6585 179.589984 
L 62.309 179.526224 
L 64.9595 179.526224 
L 67.61 179.512562 
L 70.2605 179.533056 
L 72.911 179.55355 
L 75.5615 179.599093 
L 78.212 179.537611 
L 80.8625 179.514839 
L 83.513 179.594538 
L 86.1635 179.651467 
L 88.814 179.715227 
L 91.4645 188.919389 
L 94.115 182.149479 
L 96.7655 181.293278 
L 99.416 187.407374 
L 102.0665 181.270506 
L 104.717 180.341438 
L 107.3675 179.91106 
L 110.018 180.065905 
L 112.6685 179.952048 
L 115.319 179.847301 
L 117.9695 179.594539 
L 120.62 179.567214 
L 123.2705 179.510285 
L 125.921 179.50573 
L 128.5715 179.503453 
L 131.222 179.494345 
L 133.8725 179.498899 
L 136.523 179.482959 
L 139.1735 179.496622 
L 141.824 179.555827 
L 144.4745 188.750882 
L 147.125 180.828744 
L 149.7755 180.127387 
L 152.426 179.929276 
L 155.0765 179.792649 
L 157.727 179.612755 
L 160.3775 179.526224 
L 163.028 179.501176 
L 165.6785 179.52167 
L 168.329 179.514839 
L 170.9795 179.453356 
L 173.63 179.52167 
L 176.2805 179.508008 
L 178.931 179.460187 
L 181.5815 179.460188 
L 184.232 179.510285 
L 186.8825 179.508007 
L 189.533 179.503453 
L 192.1835 179.674238 
L 194.834 180.095507 
L 197.4845 179.83136 
L 200.135 179.776709 
L 202.7855 192.628835 
L 205.436 181.634848 
L 208.0865 181.532378 
L 210.737 180.869732 
L 213.3875 180.824189 
L 216.038 181.145264 
L 218.6885 180.102339 
L 221.339 179.776709 
L 223.9895 179.621865 
L 226.64 179.567213 
L 229.2905 179.548996 
L 231.941 179.60137 
L 234.5915 179.542165 
L 237.242 179.517116 
L 239.8925 179.510285 
L 242.543 179.496622 
L 245.1935 179.503453 
L 247.844 179.517116 
L 250.4945 179.512562 
L 253.145 179.487514 
L 255.7955 179.496622 
L 258.446 192.089155 
L 261.0965 199.908822 
L 263.747 188.910281 
L 266.3975 184.54502 
L 269.048 186.653644 
L 271.6985 182.276998 
L 274.349 179.462465 
L 276.9995 179.202872 
L 279.65 179.145944 
L 282.3005 179.027533 
L 284.951 179.398706 
L 287.6015 178.713289 
L 290.252 179.289403 
L 292.9025 178.79982 
L 295.553 179.216535 
L 298.2035 179.048027 
L 300.854 178.975159 
L 303.5045 179.496622 
L 306.155 179.403259 
" style="fill:none;stroke:#2ca02c;stroke-dasharray:7.4,3.2;stroke-dashoffset:0;stroke-width:2;"/>
   </g>
   <g id="line2d_30">
    <path clip-path="url(#p820ed2980e)" d="M 43.7555 176.666149 
L 46.406 176.609221 
L 49.0565 176.743571 
L 51.707 176.846042 
L 54.3575 176.600112 
L 57.008 176.515858 
L 59.6585 176.559123 
L 62.309 176.625159 
L 64.9595 176.616052 
L 67.61 176.563677 
L 70.2605 176.513581 
L 72.911 176.51358 
L 75.5615 176.511304 
L 78.212 176.518135 
L 80.8625 176.547737 
L 83.513 176.659317 
L 86.1635 176.695751 
L 88.814 176.716245 
L 91.4645 176.723077 
L 94.115 176.616052 
L 96.7655 176.584172 
L 99.416 176.572786 
L 102.0665 176.732186 
L 104.717 176.659318 
L 107.3675 176.650208 
L 110.018 176.675257 
L 112.6685 176.839211 
L 115.319 176.700306 
L 117.9695 176.713968 
L 120.62 178.182717 
L 123.2705 182.59352 
L 125.921 178.68141 
L 128.5715 177.888967 
L 131.222 177.406216 
L 133.8725 176.996333 
L 136.523 176.93485 
L 139.1735 176.846041 
L 141.824 176.861981 
L 144.4745 176.832379 
L 147.125 176.898416 
L 149.7755 176.782282 
L 152.426 176.743571 
L 155.0765 176.652486 
L 157.727 176.586449 
L 160.3775 176.52269 
L 163.028 176.531798 
L 165.6785 176.509027 
L 168.329 176.50675 
L 170.9795 176.49081 
L 173.63 176.499918 
L 176.2805 176.497641 
L 178.931 176.509027 
L 181.5815 176.518135 
L 184.232 176.527244 
L 186.8825 176.54546 
L 189.533 176.586449 
L 192.1835 176.545461 
L 194.834 176.527244 
L 197.4845 176.638824 
L 200.135 176.716245 
L 202.7855 176.752679 
L 205.436 177.556506 
L 208.0865 177.064647 
L 210.737 176.873368 
L 213.3875 176.832379 
L 216.038 176.807331 
L 218.6885 176.643377 
L 221.339 176.668426 
L 223.9895 176.641101 
L 226.64 176.524966 
L 229.2905 176.490809 
L 231.941 176.483978 
L 234.5915 176.488532 
L 237.242 176.483978 
L 239.8925 176.470315 
L 242.543 176.474869 
L 245.1935 176.486255 
L 247.844 176.481701 
L 250.4945 176.477146 
L 253.145 176.504472 
L 255.7955 176.477147 
L 258.446 176.465761 
L 261.0965 176.495363 
L 263.747 176.604666 
L 266.3975 176.67298 
L 269.048 176.825548 
L 271.6985 176.83238 
L 274.349 176.702583 
L 276.9995 178.658638 
L 279.65 183.552192 
L 282.3005 180.273123 
L 284.951 177.859365 
L 287.6015 177.647592 
L 290.252 177.381167 
L 292.9025 177.076032 
L 295.553 176.836933 
L 298.2035 176.893862 
L 300.854 176.709414 
L 303.5045 176.618329 
L 306.155 176.586449 
" style="fill:none;stroke:#2ca02c;stroke-linecap:round;stroke-width:2;"/>
   </g>
   <g id="line2d_31">
    <path clip-path="url(#p820ed2980e)" d="M 67.61 323.63125 
L 67.61 154.359375 
" style="fill:none;stroke:#7f7f7f;stroke-dasharray:2,3.3;stroke-dashoffset:0;stroke-width:2;"/>
   </g>
   <g id="line2d_32">
    <path clip-path="url(#p820ed2980e)" d="M 120.62 323.63125 
L 120.62 154.359375 
" style="fill:none;stroke:#7f7f7f;stroke-dasharray:2,3.3;stroke-dashoffset:0;stroke-width:2;"/>
   </g>
   <g id="line2d_33">
    <path clip-path="url(#p820ed2980e)" d="M 43.7555 195.942997 
L 46.406 193.011305 
L 49.0565 185.146733 
L 51.707 184.40233 
L 54.3575 183.320771 
L 57.008 182.957029 
L 59.6585 182.868811 
L 62.309 183.445241 
L 64.9595 182.854311 
L 67.61 182.627122 
L 70.2605 182.305675 
L 72.911 182.41806 
L 75.5615 181.626527 
L 78.212 182.027731 
L 80.8625 181.790877 
L 83.513 182.384224 
L 86.1635 182.437395 
L 88.814 181.453719 
L 91.4645 181.767916 
L 94.115 181.908095 
L 96.7655 181.699035 
L 99.416 181.893595 
L 102.0665 181.730453 
L 104.717 181.760665 
L 107.3675 181.627735 
L 110.018 181.575773 
L 112.6685 181.648279 
L 115.319 181.702659 
L 117.9695 184.063964 
L 120.62 188.786574 
L 123.2705 185.801712 
L 125.921 184.798701 
L 128.5715 182.762468 
L 131.222 182.653707 
L 133.8725 182.308092 
L 136.523 182.090571 
L 139.1735 183.481494 
L 141.824 182.50386 
L 144.4745 182.210207 
L 147.125 182.157036 
L 149.7755 181.992686 
L 152.426 182.113532 
L 155.0765 182.003563 
L 157.727 181.954017 
L 160.3775 181.949182 
L 163.028 183.678471 
L 165.6785 183.899616 
L 168.329 186.818015 
L 170.9795 184.849455 
L 173.63 183.712307 
L 176.2805 182.785428 
L 178.931 182.905065 
L 181.5815 182.323802 
L 184.232 182.291173 
L 186.8825 181.954017 
L 189.533 182.131659 
L 192.1835 181.987853 
L 194.834 181.816253 
L 197.4845 181.889969 
L 200.135 181.759457 
L 202.7855 181.760665 
L 205.436 181.89722 
L 208.0865 182.00598 
L 210.737 181.945557 
L 213.3875 181.998729 
L 216.038 181.68695 
L 218.6885 181.92018 
L 221.339 181.82713 
L 223.9895 182.646457 
L 226.64 183.689346 
L 229.2905 188.602891 
L 231.941 184.385411 
L 234.5915 182.809596 
L 237.242 182.208998 
L 239.8925 182.448271 
L 242.543 182.199331 
L 245.1935 182.339511 
L 247.844 182.07607 
L 250.4945 181.879092 
L 253.145 181.731662 
L 255.7955 181.757039 
L 258.446 181.859758 
L 261.0965 181.90447 
L 263.747 181.968517 
L 266.3975 182.033774 
L 269.048 181.672448 
L 271.6985 181.879093 
L 274.349 181.715953 
L 276.9995 189.03914 
L 279.65 183.612006 
L 282.3005 182.507485 
L 284.951 182.370931 
L 287.6015 182.107489 
L 290.252 182.043442 
L 292.9025 182.038608 
L 295.553 181.987853 
L 298.2035 181.679699 
L 300.854 182.072444 
L 303.5045 181.868217 
L 306.155 181.816253 
" style="fill:none;stroke:#d62728;stroke-dasharray:7.4,3.2;stroke-dashoffset:0;stroke-width:2;"/>
   </g>
   <g id="line2d_34">
    <path clip-path="url(#p820ed2980e)" d="M 43.7555 176.786699 
L 46.406 177.256785 
L 49.0565 178.716588 
L 51.707 178.142576 
L 54.3575 177.670073 
L 57.008 177.293038 
L 59.6585 177.239866 
L 62.309 177.058598 
L 64.9595 177.54802 
L 67.61 177.115396 
L 70.2605 177.114187 
L 72.911 176.911168 
L 75.5615 176.940171 
L 78.212 177.021137 
L 80.8625 176.986092 
L 83.513 177.409049 
L 86.1635 177.574606 
L 88.814 177.539561 
L 91.4645 177.179443 
L 94.115 177.08881 
L 96.7655 177.001801 
L 99.416 176.879748 
L 102.0665 176.924461 
L 104.717 176.88579 
L 107.3675 176.757695 
L 110.018 176.721442 
L 112.6685 176.669478 
L 115.319 176.708149 
L 117.9695 176.557093 
L 120.62 176.555885 
L 123.2705 176.547425 
L 125.921 176.727484 
L 128.5715 176.986092 
L 131.222 177.074309 
L 133.8725 176.96434 
L 136.523 177.052557 
L 139.1735 177.382463 
L 141.824 177.587899 
L 144.4745 178.680335 
L 147.125 177.720827 
L 149.7755 177.083977 
L 152.426 177.013886 
L 155.0765 181.315956 
L 157.727 182.397517 
L 160.3775 180.996927 
L 163.028 179.081538 
L 165.6785 177.622943 
L 168.329 179.543165 
L 170.9795 180.517173 
L 173.63 180.512339 
L 176.2805 179.659176 
L 178.931 180.351616 
L 181.5815 179.213259 
L 184.232 179.069454 
L 186.8825 178.270671 
L 189.533 178.45073 
L 192.1835 177.693034 
L 194.834 177.492431 
L 197.4845 177.376421 
L 200.135 177.032012 
L 202.7855 177.313581 
L 205.436 177.352252 
L 208.0865 177.110561 
L 210.737 177.666447 
L 213.3875 180.560677 
L 216.038 180.009626 
L 218.6885 184.318946 
L 221.339 183.702639 
L 223.9895 180.957046 
L 226.64 179.644675 
L 229.2905 180.467626 
L 231.941 179.731683 
L 234.5915 178.783052 
L 237.242 178.109947 
L 239.8925 177.701493 
L 242.543 177.632611 
L 245.1935 177.696659 
L 247.844 177.689408 
L 250.4945 177.619319 
L 253.145 179.034409 
L 255.7955 193.549064 
L 258.446 188.698358 
L 261.0965 184.905044 
L 263.747 183.719558 
L 266.3975 185.53102 
L 269.048 182.256128 
L 271.6985 180.624724 
L 274.349 179.749809 
L 276.9995 179.370357 
L 279.65 179.157672 
L 282.3005 178.560698 
L 284.951 178.45798 
L 287.6015 177.958892 
L 290.252 177.755873 
L 292.9025 177.747414 
L 295.553 177.509349 
L 298.2035 178.34922 
L 300.854 180.569137 
L 303.5045 180.22352 
L 306.155 180.538926 
" style="fill:none;stroke:#d62728;stroke-linecap:round;stroke-width:2;"/>
   </g>
   <g id="line2d_35">
    <path clip-path="url(#p820ed2980e)" d="M 67.61 323.63125 
L 67.61 154.359375 
" style="fill:none;stroke:#7f7f7f;stroke-dasharray:2,3.3;stroke-dashoffset:0;stroke-width:2;"/>
   </g>
   <g id="line2d_36">
    <path clip-path="url(#p820ed2980e)" d="M 120.62 323.63125 
L 120.62 154.359375 
" style="fill:none;stroke:#7f7f7f;stroke-dasharray:2,3.3;stroke-dashoffset:0;stroke-width:2;"/>
   </g>
   <g id="patch_9">
    <path d="M 41.105 286.929375 
L 41.105 154.359375 
" style="fill:none;stroke:#262626;stroke-linecap:square;stroke-linejoin:miter;stroke-width:1.25;"/>
   </g>
   <g id="patch_10">
    <path d="M 306.155 286.929375 
L 306.155 154.359375 
" style="fill:none;stroke:#262626;stroke-linecap:square;stroke-linejoin:miter;stroke-width:1.25;"/>
   </g>
   <g id="patch_11">
    <path d="M 41.105 286.929375 
L 306.155 286.929375 
" style="fill:none;stroke:#262626;stroke-linecap:square;stroke-linejoin:miter;stroke-width:1.25;"/>
   </g>
   <g id="patch_12">
    <path d="M 41.105 154.359375 
L 306.155 154.359375 
" style="fill:none;stroke:#262626;stroke-linecap:square;stroke-linejoin:miter;stroke-width:1.25;"/>
   </g>
   <g id="legend_2">
    <g id="patch_13">
     <path d="M 97.024531 282.429375 
L 301.655 282.429375 
L 301.655 228.620625 
L 97.024531 228.620625 
z
" style="fill:#ffffff;opacity:0.8;stroke:#000000;stroke-linejoin:miter;"/>
    </g>
    <g id="line2d_37">
     <path d="M 100.624531 235.512656 
L 118.624531 235.512656 
" style="fill:none;stroke:#1f77b4;stroke-dasharray:7.4,3.2;stroke-dashoffset:0;stroke-width:2;"/>
    </g>
    <g id="line2d_38"/>
    <g id="text_28">
     <!--  anion thermal -->
     <g style="fill:#262626;" transform="translate(125.824531 238.662656)scale(0.09 -0.09)">
      <use xlink:href="#Arial-BoldMT-32"/>
      <use x="27.783203" xlink:href="#Arial-BoldMT-97"/>
      <use x="83.398438" xlink:href="#Arial-BoldMT-110"/>
      <use x="144.482422" xlink:href="#Arial-BoldMT-105"/>
      <use x="172.265625" xlink:href="#Arial-BoldMT-111"/>
      <use x="233.349609" xlink:href="#Arial-BoldMT-110"/>
      <use x="294.433594" xlink:href="#Arial-BoldMT-32"/>
      <use x="322.216797" xlink:href="#Arial-BoldMT-116"/>
      <use x="355.517578" xlink:href="#Arial-BoldMT-104"/>
      <use x="416.601562" xlink:href="#Arial-BoldMT-101"/>
      <use x="472.216797" xlink:href="#Arial-BoldMT-114"/>
      <use x="511.132812" xlink:href="#Arial-BoldMT-109"/>
      <use x="600.048828" xlink:href="#Arial-BoldMT-97"/>
      <use x="655.664062" xlink:href="#Arial-BoldMT-108"/>
     </g>
    </g>
    <g id="line2d_39">
     <path d="M 100.624531 248.230781 
L 118.624531 248.230781 
" style="fill:none;stroke:#1f77b4;stroke-linecap:round;stroke-width:2;"/>
    </g>
    <g id="line2d_40"/>
    <g id="text_29">
     <!-- cation thermal -->
     <g style="fill:#262626;" transform="translate(125.824531 251.380781)scale(0.09 -0.09)">
      <use xlink:href="#Arial-BoldMT-99"/>
      <use x="55.615234" xlink:href="#Arial-BoldMT-97"/>
      <use x="111.230469" xlink:href="#Arial-BoldMT-116"/>
      <use x="144.53125" xlink:href="#Arial-BoldMT-105"/>
      <use x="172.314453" xlink:href="#Arial-BoldMT-111"/>
      <use x="233.398438" xlink:href="#Arial-BoldMT-110"/>
      <use x="294.482422" xlink:href="#Arial-BoldMT-32"/>
      <use x="322.265625" xlink:href="#Arial-BoldMT-116"/>
      <use x="355.566406" xlink:href="#Arial-BoldMT-104"/>
      <use x="416.650391" xlink:href="#Arial-BoldMT-101"/>
      <use x="472.265625" xlink:href="#Arial-BoldMT-114"/>
      <use x="511.181641" xlink:href="#Arial-BoldMT-109"/>
      <use x="600.097656" xlink:href="#Arial-BoldMT-97"/>
      <use x="655.712891" xlink:href="#Arial-BoldMT-108"/>
     </g>
    </g>
    <g id="line2d_41">
     <path d="M 100.624531 260.948906 
L 118.624531 260.948906 
" style="fill:none;stroke:#ff7f0e;stroke-dasharray:7.4,3.2;stroke-dashoffset:0;stroke-width:2;"/>
    </g>
    <g id="line2d_42"/>
    <g id="text_30">
     <!--  anion density -->
     <g style="fill:#262626;" transform="translate(125.824531 264.098906)scale(0.09 -0.09)">
      <use xlink:href="#Arial-BoldMT-32"/>
      <use x="27.783203" xlink:href="#Arial-BoldMT-97"/>
      <use x="83.398438" xlink:href="#Arial-BoldMT-110"/>
      <use x="144.482422" xlink:href="#Arial-BoldMT-105"/>
      <use x="172.265625" xlink:href="#Arial-BoldMT-111"/>
      <use x="233.349609" xlink:href="#Arial-BoldMT-110"/>
      <use x="294.433594" xlink:href="#Arial-BoldMT-32"/>
      <use x="322.216797" xlink:href="#Arial-BoldMT-100"/>
      <use x="383.300781" xlink:href="#Arial-BoldMT-101"/>
      <use x="438.916016" xlink:href="#Arial-BoldMT-110"/>
      <use x="500" xlink:href="#Arial-BoldMT-115"/>
      <use x="555.615234" xlink:href="#Arial-BoldMT-105"/>
      <use x="583.398438" xlink:href="#Arial-BoldMT-116"/>
      <use x="616.699219" xlink:href="#Arial-BoldMT-121"/>
     </g>
    </g>
    <g id="line2d_43">
     <path d="M 100.624531 273.785156 
L 118.624531 273.785156 
" style="fill:none;stroke:#ff7f0e;stroke-linecap:round;stroke-width:2;"/>
    </g>
    <g id="line2d_44"/>
    <g id="text_31">
     <!-- cation density -->
     <g style="fill:#262626;" transform="translate(125.824531 276.935156)scale(0.09 -0.09)">
      <use xlink:href="#Arial-BoldMT-99"/>
      <use x="55.615234" xlink:href="#Arial-BoldMT-97"/>
      <use x="111.230469" xlink:href="#Arial-BoldMT-116"/>
      <use x="144.53125" xlink:href="#Arial-BoldMT-105"/>
      <use x="172.314453" xlink:href="#Arial-BoldMT-111"/>
      <use x="233.398438" xlink:href="#Arial-BoldMT-110"/>
      <use x="294.482422" xlink:href="#Arial-BoldMT-32"/>
      <use x="322.265625" xlink:href="#Arial-BoldMT-100"/>
      <use x="383.349609" xlink:href="#Arial-BoldMT-101"/>
      <use x="438.964844" xlink:href="#Arial-BoldMT-110"/>
      <use x="500.048828" xlink:href="#Arial-BoldMT-115"/>
      <use x="555.664062" xlink:href="#Arial-BoldMT-105"/>
      <use x="583.447266" xlink:href="#Arial-BoldMT-116"/>
      <use x="616.748047" xlink:href="#Arial-BoldMT-121"/>
     </g>
    </g>
    <g id="line2d_45">
     <path d="M 205.335313 235.512656 
L 223.335313 235.512656 
" style="fill:none;stroke:#2ca02c;stroke-dasharray:7.4,3.2;stroke-dashoffset:0;stroke-width:2;"/>
    </g>
    <g id="line2d_46"/>
    <g id="text_32">
     <!--  anion cpt -->
     <g style="fill:#262626;" transform="translate(230.535313 238.662656)scale(0.09 -0.09)">
      <use xlink:href="#Arial-BoldMT-32"/>
      <use x="27.783203" xlink:href="#Arial-BoldMT-97"/>
      <use x="83.398438" xlink:href="#Arial-BoldMT-110"/>
      <use x="144.482422" xlink:href="#Arial-BoldMT-105"/>
      <use x="172.265625" xlink:href="#Arial-BoldMT-111"/>
      <use x="233.349609" xlink:href="#Arial-BoldMT-110"/>
      <use x="294.433594" xlink:href="#Arial-BoldMT-32"/>
      <use x="322.216797" xlink:href="#Arial-BoldMT-99"/>
      <use x="377.832031" xlink:href="#Arial-BoldMT-112"/>
      <use x="438.916016" xlink:href="#Arial-BoldMT-116"/>
     </g>
    </g>
    <g id="line2d_47">
     <path d="M 205.335313 248.230781 
L 223.335313 248.230781 
" style="fill:none;stroke:#2ca02c;stroke-linecap:round;stroke-width:2;"/>
    </g>
    <g id="line2d_48"/>
    <g id="text_33">
     <!-- cation cpt -->
     <g style="fill:#262626;" transform="translate(230.535313 251.380781)scale(0.09 -0.09)">
      <use xlink:href="#Arial-BoldMT-99"/>
      <use x="55.615234" xlink:href="#Arial-BoldMT-97"/>
      <use x="111.230469" xlink:href="#Arial-BoldMT-116"/>
      <use x="144.53125" xlink:href="#Arial-BoldMT-105"/>
      <use x="172.314453" xlink:href="#Arial-BoldMT-111"/>
      <use x="233.398438" xlink:href="#Arial-BoldMT-110"/>
      <use x="294.482422" xlink:href="#Arial-BoldMT-32"/>
      <use x="322.265625" xlink:href="#Arial-BoldMT-99"/>
      <use x="377.880859" xlink:href="#Arial-BoldMT-112"/>
      <use x="438.964844" xlink:href="#Arial-BoldMT-116"/>
     </g>
    </g>
    <g id="line2d_49">
     <path d="M 205.335313 260.948906 
L 223.335313 260.948906 
" style="fill:none;stroke:#d62728;stroke-dasharray:7.4,3.2;stroke-dashoffset:0;stroke-width:2;"/>
    </g>
    <g id="line2d_50"/>
    <g id="text_34">
     <!--  anion viscosity -->
     <g style="fill:#262626;" transform="translate(230.535313 264.098906)scale(0.09 -0.09)">
      <use xlink:href="#Arial-BoldMT-32"/>
      <use x="27.783203" xlink:href="#Arial-BoldMT-97"/>
      <use x="83.398438" xlink:href="#Arial-BoldMT-110"/>
      <use x="144.482422" xlink:href="#Arial-BoldMT-105"/>
      <use x="172.265625" xlink:href="#Arial-BoldMT-111"/>
      <use x="233.349609" xlink:href="#Arial-BoldMT-110"/>
      <use x="294.433594" xlink:href="#Arial-BoldMT-32"/>
      <use x="322.216797" xlink:href="#Arial-BoldMT-118"/>
      <use x="377.832031" xlink:href="#Arial-BoldMT-105"/>
      <use x="405.615234" xlink:href="#Arial-BoldMT-115"/>
      <use x="461.230469" xlink:href="#Arial-BoldMT-99"/>
      <use x="516.845703" xlink:href="#Arial-BoldMT-111"/>
      <use x="577.929688" xlink:href="#Arial-BoldMT-115"/>
      <use x="633.544922" xlink:href="#Arial-BoldMT-105"/>
      <use x="661.328125" xlink:href="#Arial-BoldMT-116"/>
      <use x="694.628906" xlink:href="#Arial-BoldMT-121"/>
     </g>
    </g>
    <g id="line2d_51">
     <path d="M 205.335313 273.785156 
L 223.335313 273.785156 
" style="fill:none;stroke:#d62728;stroke-linecap:round;stroke-width:2;"/>
    </g>
    <g id="line2d_52"/>
    <g id="text_35">
     <!-- cation viscosity -->
     <g style="fill:#262626;" transform="translate(230.535313 276.935156)scale(0.09 -0.09)">
      <use xlink:href="#Arial-BoldMT-99"/>
      <use x="55.615234" xlink:href="#Arial-BoldMT-97"/>
      <use x="111.230469" xlink:href="#Arial-BoldMT-116"/>
      <use x="144.53125" xlink:href="#Arial-BoldMT-105"/>
      <use x="172.314453" xlink:href="#Arial-BoldMT-111"/>
      <use x="233.398438" xlink:href="#Arial-BoldMT-110"/>
      <use x="294.482422" xlink:href="#Arial-BoldMT-32"/>
      <use x="322.265625" xlink:href="#Arial-BoldMT-118"/>
      <use x="377.880859" xlink:href="#Arial-BoldMT-105"/>
      <use x="405.664062" xlink:href="#Arial-BoldMT-115"/>
      <use x="461.279297" xlink:href="#Arial-BoldMT-99"/>
      <use x="516.894531" xlink:href="#Arial-BoldMT-111"/>
      <use x="577.978516" xlink:href="#Arial-BoldMT-115"/>
      <use x="633.59375" xlink:href="#Arial-BoldMT-105"/>
      <use x="661.376953" xlink:href="#Arial-BoldMT-116"/>
      <use x="694.677734" xlink:href="#Arial-BoldMT-121"/>
     </g>
    </g>
   </g>
  </g>
 </g>
 <defs>
  <clipPath id="paf083a0686">
   <rect height="132.57" width="265.05" x="41.105" y="21.789375"/>
  </clipPath>
  <clipPath id="p820ed2980e">
   <rect height="132.57" width="265.05" x="41.105" y="154.359375"/>
  </clipPath>
 </defs>
</svg>
