<?xml version="1.0" encoding="utf-8" standalone="no"?>
<!DOCTYPE svg PUBLIC "-//W3C//DTD SVG 1.1//EN"
  "http://www.w3.org/Graphics/SVG/1.1/DTD/svg11.dtd">
<!-- Created with matplotlib (https://matplotlib.org/) -->
<svg height="322.648125pt" version="1.1" viewBox="0 0 322.466406 322.648125" width="322.466406pt" xmlns="http://www.w3.org/2000/svg" xmlns:xlink="http://www.w3.org/1999/xlink">
 <defs>
  <style type="text/css">
*{stroke-linecap:butt;stroke-linejoin:round;}
  </style>
 </defs>
 <g id="figure_1">
  <g id="patch_1">
   <path d="M 0 322.648125 
L 322.466406 322.648125 
L 322.466406 0 
L 0 0 
z
" style="fill:#ffffff;"/>
  </g>
  <g id="axes_1">
   <g id="patch_2">
    <path d="M 31.791406 286.929375 
L 281.361406 286.929375 
L 281.361406 21.789375 
L 31.791406 21.789375 
z
" style="fill:#ffffff;"/>
   </g>
   <g id="matplotlib.axis_1">
    <g id="xtick_1">
     <g id="text_1">
      <!-- 0 -->
      <defs>
       <path d="M 27.4375 71.875 
Q 37.84375 71.875 43.703125 64.453125 
Q 50.6875 55.671875 50.6875 35.296875 
Q 50.6875 14.984375 43.65625 6.109375 
Q 37.84375 -1.21875 27.4375 -1.21875 
Q 17 -1.21875 10.59375 6.8125 
Q 4.203125 14.84375 4.203125 35.453125 
Q 4.203125 55.671875 11.234375 64.546875 
Q 17.046875 71.875 27.4375 71.875 
z
M 27.4375 60.5 
Q 24.953125 60.5 23 58.90625 
Q 21.046875 57.328125 19.96875 53.21875 
Q 18.5625 47.90625 18.5625 35.296875 
Q 18.5625 22.703125 19.828125 17.984375 
Q 21.09375 13.28125 23.015625 11.71875 
Q 24.953125 10.15625 27.4375 10.15625 
Q 29.9375 10.15625 31.890625 11.734375 
Q 33.84375 13.328125 34.90625 17.4375 
Q 36.328125 22.703125 36.328125 35.296875 
Q 36.328125 47.90625 35.0625 52.609375 
Q 33.796875 57.328125 31.859375 58.90625 
Q 29.9375 60.5 27.4375 60.5 
z
" id="Arial-BoldMT-48"/>
      </defs>
      <g style="fill:#262626;" transform="translate(28.732891 298.302969)scale(0.11 -0.11)">
       <use xlink:href="#Arial-BoldMT-48"/>
      </g>
     </g>
    </g>
    <g id="xtick_2">
     <g id="text_2">
      <!-- 10 -->
      <defs>
       <path d="M 39.359375 0 
L 25.640625 0 
L 25.640625 51.703125 
Q 18.109375 44.671875 7.90625 41.3125 
L 7.90625 53.765625 
Q 13.28125 55.515625 19.578125 60.421875 
Q 25.875 65.328125 28.21875 71.875 
L 39.359375 71.875 
z
" id="Arial-BoldMT-49"/>
      </defs>
      <g style="fill:#262626;" transform="translate(50.631375 298.302969)scale(0.11 -0.11)">
       <use xlink:href="#Arial-BoldMT-49"/>
       <use x="55.615234" xlink:href="#Arial-BoldMT-48"/>
      </g>
     </g>
    </g>
    <g id="xtick_3">
     <g id="text_3">
      <!-- 20 -->
      <defs>
       <path d="M 50.59375 12.75 
L 50.59375 0 
L 2.484375 0 
Q 3.265625 7.234375 7.171875 13.703125 
Q 11.078125 20.171875 22.609375 30.859375 
Q 31.890625 39.5 33.984375 42.578125 
Q 36.8125 46.828125 36.8125 50.984375 
Q 36.8125 55.5625 34.34375 58.03125 
Q 31.890625 60.5 27.546875 60.5 
Q 23.25 60.5 20.703125 57.90625 
Q 18.171875 55.328125 17.78125 49.3125 
L 4.109375 50.6875 
Q 5.328125 62.015625 11.765625 66.9375 
Q 18.21875 71.875 27.875 71.875 
Q 38.484375 71.875 44.53125 66.15625 
Q 50.59375 60.453125 50.59375 51.953125 
Q 50.59375 47.125 48.859375 42.75 
Q 47.125 38.375 43.359375 33.59375 
Q 40.875 30.421875 34.375 24.453125 
Q 27.875 18.5 26.140625 16.546875 
Q 24.421875 14.59375 23.34375 12.75 
z
" id="Arial-BoldMT-50"/>
      </defs>
      <g style="fill:#262626;" transform="translate(75.588375 298.302969)scale(0.11 -0.11)">
       <use xlink:href="#Arial-BoldMT-50"/>
       <use x="55.615234" xlink:href="#Arial-BoldMT-48"/>
      </g>
     </g>
    </g>
    <g id="xtick_4">
     <g id="text_4">
      <!-- 30 -->
      <defs>
       <path d="M 3.765625 19 
L 17.046875 20.609375 
Q 17.671875 15.53125 20.453125 12.84375 
Q 23.25 10.15625 27.203125 10.15625 
Q 31.453125 10.15625 34.34375 13.375 
Q 37.25 16.609375 37.25 22.078125 
Q 37.25 27.25 34.46875 30.265625 
Q 31.6875 33.296875 27.6875 33.296875 
Q 25.046875 33.296875 21.390625 32.28125 
L 22.90625 43.453125 
Q 28.46875 43.3125 31.390625 45.875 
Q 34.328125 48.4375 34.328125 52.6875 
Q 34.328125 56.296875 32.171875 58.4375 
Q 30.03125 60.59375 26.46875 60.59375 
Q 22.953125 60.59375 20.453125 58.15625 
Q 17.96875 55.71875 17.4375 51.03125 
L 4.78125 53.171875 
Q 6.109375 59.671875 8.765625 63.546875 
Q 11.421875 67.4375 16.1875 69.65625 
Q 20.953125 71.875 26.859375 71.875 
Q 36.96875 71.875 43.0625 65.4375 
Q 48.09375 60.15625 48.09375 53.515625 
Q 48.09375 44.09375 37.796875 38.484375 
Q 43.953125 37.15625 47.625 32.5625 
Q 51.3125 27.984375 51.3125 21.484375 
Q 51.3125 12.0625 44.421875 5.421875 
Q 37.546875 -1.21875 27.296875 -1.21875 
Q 17.578125 -1.21875 11.171875 4.375 
Q 4.78125 9.96875 3.765625 19 
z
" id="Arial-BoldMT-51"/>
      </defs>
      <g style="fill:#262626;" transform="translate(100.545375 298.302969)scale(0.11 -0.11)">
       <use xlink:href="#Arial-BoldMT-51"/>
       <use x="55.615234" xlink:href="#Arial-BoldMT-48"/>
      </g>
     </g>
    </g>
    <g id="xtick_5">
     <g id="text_5">
      <!-- 40 -->
      <defs>
       <path d="M 31.15625 0 
L 31.15625 14.40625 
L 1.859375 14.40625 
L 1.859375 26.421875 
L 32.90625 71.875 
L 44.4375 71.875 
L 44.4375 26.46875 
L 53.328125 26.46875 
L 53.328125 14.40625 
L 44.4375 14.40625 
L 44.4375 0 
z
M 31.15625 26.46875 
L 31.15625 50.921875 
L 14.703125 26.46875 
z
" id="Arial-BoldMT-52"/>
      </defs>
      <g style="fill:#262626;" transform="translate(125.502375 298.302969)scale(0.11 -0.11)">
       <use xlink:href="#Arial-BoldMT-52"/>
       <use x="55.615234" xlink:href="#Arial-BoldMT-48"/>
      </g>
     </g>
    </g>
    <g id="xtick_6">
     <g id="text_6">
      <!-- 50 -->
      <defs>
       <path d="M 4.4375 18.40625 
L 18.109375 19.828125 
Q 18.703125 15.1875 21.578125 12.46875 
Q 24.46875 9.765625 28.21875 9.765625 
Q 32.515625 9.765625 35.5 13.25 
Q 38.484375 16.75 38.484375 23.78125 
Q 38.484375 30.375 35.515625 33.671875 
Q 32.5625 36.96875 27.828125 36.96875 
Q 21.921875 36.96875 17.234375 31.734375 
L 6.109375 33.34375 
L 13.140625 70.609375 
L 49.421875 70.609375 
L 49.421875 57.765625 
L 23.53125 57.765625 
L 21.390625 45.609375 
Q 25.984375 47.90625 30.765625 47.90625 
Q 39.890625 47.90625 46.234375 41.265625 
Q 52.59375 34.625 52.59375 24.03125 
Q 52.59375 15.1875 47.46875 8.25 
Q 40.484375 -1.21875 28.078125 -1.21875 
Q 18.171875 -1.21875 11.921875 4.09375 
Q 5.671875 9.421875 4.4375 18.40625 
z
" id="Arial-BoldMT-53"/>
      </defs>
      <g style="fill:#262626;" transform="translate(150.459375 298.302969)scale(0.11 -0.11)">
       <use xlink:href="#Arial-BoldMT-53"/>
       <use x="55.615234" xlink:href="#Arial-BoldMT-48"/>
      </g>
     </g>
    </g>
    <g id="xtick_7">
     <g id="text_7">
      <!-- 60 -->
      <defs>
       <path d="M 50.734375 54.046875 
L 37.453125 52.59375 
Q 36.96875 56.6875 34.90625 58.640625 
Q 32.859375 60.59375 29.59375 60.59375 
Q 25.25 60.59375 22.234375 56.6875 
Q 19.234375 52.78125 18.453125 40.4375 
Q 23.578125 46.484375 31.203125 46.484375 
Q 39.796875 46.484375 45.921875 39.9375 
Q 52.046875 33.40625 52.046875 23.046875 
Q 52.046875 12.0625 45.59375 5.421875 
Q 39.15625 -1.21875 29.046875 -1.21875 
Q 18.21875 -1.21875 11.234375 7.203125 
Q 4.25 15.625 4.25 34.8125 
Q 4.25 54.5 11.515625 63.1875 
Q 18.796875 71.875 30.421875 71.875 
Q 38.578125 71.875 43.921875 67.3125 
Q 49.265625 62.75 50.734375 54.046875 
z
M 19.625 24.125 
Q 19.625 17.4375 22.703125 13.796875 
Q 25.78125 10.15625 29.734375 10.15625 
Q 33.546875 10.15625 36.078125 13.125 
Q 38.625 16.109375 38.625 22.90625 
Q 38.625 29.890625 35.890625 33.125 
Q 33.15625 36.375 29.046875 36.375 
Q 25.09375 36.375 22.359375 33.265625 
Q 19.625 30.171875 19.625 24.125 
z
" id="Arial-BoldMT-54"/>
      </defs>
      <g style="fill:#262626;" transform="translate(175.416375 298.302969)scale(0.11 -0.11)">
       <use xlink:href="#Arial-BoldMT-54"/>
       <use x="55.615234" xlink:href="#Arial-BoldMT-48"/>
      </g>
     </g>
    </g>
    <g id="xtick_8">
     <g id="text_8">
      <!-- 70 -->
      <defs>
       <path d="M 4.25 57.859375 
L 4.25 70.609375 
L 51.171875 70.609375 
L 51.171875 60.640625 
Q 45.359375 54.9375 39.34375 44.234375 
Q 33.34375 33.546875 30.1875 21.5 
Q 27.046875 9.46875 27.09375 0 
L 13.875 0 
Q 14.203125 14.84375 19.984375 30.265625 
Q 25.78125 45.703125 35.453125 57.859375 
z
" id="Arial-BoldMT-55"/>
      </defs>
      <g style="fill:#262626;" transform="translate(200.373375 298.302969)scale(0.11 -0.11)">
       <use xlink:href="#Arial-BoldMT-55"/>
       <use x="55.615234" xlink:href="#Arial-BoldMT-48"/>
      </g>
     </g>
    </g>
    <g id="xtick_9">
     <g id="text_9">
      <!-- 80 -->
      <defs>
       <path d="M 16.015625 38.625 
Q 10.6875 40.875 8.265625 44.796875 
Q 5.859375 48.734375 5.859375 53.421875 
Q 5.859375 61.421875 11.453125 66.640625 
Q 17.046875 71.875 27.34375 71.875 
Q 37.546875 71.875 43.1875 66.640625 
Q 48.828125 61.421875 48.828125 53.421875 
Q 48.828125 48.4375 46.234375 44.546875 
Q 43.65625 40.671875 38.96875 38.625 
Q 44.921875 36.234375 48.015625 31.640625 
Q 51.125 27.046875 51.125 21.046875 
Q 51.125 11.140625 44.796875 4.9375 
Q 38.484375 -1.265625 27.984375 -1.265625 
Q 18.21875 -1.265625 11.71875 3.859375 
Q 4.046875 9.90625 4.046875 20.453125 
Q 4.046875 26.265625 6.921875 31.125 
Q 9.8125 35.984375 16.015625 38.625 
z
M 18.84375 52.4375 
Q 18.84375 48.34375 21.15625 46.046875 
Q 23.484375 43.75 27.34375 43.75 
Q 31.25 43.75 33.59375 46.0625 
Q 35.9375 48.390625 35.9375 52.484375 
Q 35.9375 56.34375 33.609375 58.65625 
Q 31.296875 60.984375 27.484375 60.984375 
Q 23.53125 60.984375 21.1875 58.640625 
Q 18.84375 56.296875 18.84375 52.4375 
z
M 17.578125 21.78125 
Q 17.578125 16.109375 20.484375 12.9375 
Q 23.390625 9.765625 27.734375 9.765625 
Q 31.984375 9.765625 34.765625 12.8125 
Q 37.546875 15.875 37.546875 21.625 
Q 37.546875 26.65625 34.71875 29.703125 
Q 31.890625 32.765625 27.546875 32.765625 
Q 22.515625 32.765625 20.046875 29.296875 
Q 17.578125 25.828125 17.578125 21.78125 
z
" id="Arial-BoldMT-56"/>
      </defs>
      <g style="fill:#262626;" transform="translate(225.330375 298.302969)scale(0.11 -0.11)">
       <use xlink:href="#Arial-BoldMT-56"/>
       <use x="55.615234" xlink:href="#Arial-BoldMT-48"/>
      </g>
     </g>
    </g>
    <g id="xtick_10">
     <g id="text_10">
      <!-- 90 -->
      <defs>
       <path d="M 4.546875 16.546875 
L 17.828125 18.015625 
Q 18.3125 13.96875 20.359375 12.015625 
Q 22.40625 10.0625 25.78125 10.0625 
Q 30.03125 10.0625 33 13.96875 
Q 35.984375 17.875 36.8125 30.171875 
Q 31.640625 24.171875 23.875 24.171875 
Q 15.4375 24.171875 9.296875 30.6875 
Q 3.171875 37.203125 3.171875 47.65625 
Q 3.171875 58.546875 9.640625 65.203125 
Q 16.109375 71.875 26.125 71.875 
Q 37.015625 71.875 44 63.453125 
Q 50.984375 55.03125 50.984375 35.75 
Q 50.984375 16.109375 43.703125 7.421875 
Q 36.421875 -1.265625 24.75 -1.265625 
Q 16.359375 -1.265625 11.171875 3.203125 
Q 6 7.671875 4.546875 16.546875 
z
M 35.59375 46.53125 
Q 35.59375 53.171875 32.546875 56.828125 
Q 29.5 60.5 25.484375 60.5 
Q 21.6875 60.5 19.171875 57.5 
Q 16.65625 54.5 16.65625 47.65625 
Q 16.65625 40.71875 19.390625 37.46875 
Q 22.125 34.234375 26.21875 34.234375 
Q 30.171875 34.234375 32.875 37.359375 
Q 35.59375 40.484375 35.59375 46.53125 
z
" id="Arial-BoldMT-57"/>
      </defs>
      <g style="fill:#262626;" transform="translate(250.287375 298.302969)scale(0.11 -0.11)">
       <use xlink:href="#Arial-BoldMT-57"/>
       <use x="55.615234" xlink:href="#Arial-BoldMT-48"/>
      </g>
     </g>
    </g>
    <g id="xtick_11">
     <g id="text_11">
      <!-- 100 -->
      <g style="fill:#262626;" transform="translate(272.185859 298.302969)scale(0.11 -0.11)">
       <use xlink:href="#Arial-BoldMT-49"/>
       <use x="55.615234" xlink:href="#Arial-BoldMT-48"/>
       <use x="111.230469" xlink:href="#Arial-BoldMT-48"/>
      </g>
     </g>
    </g>
    <g id="text_12">
     <!-- Epochs -->
     <defs>
      <path d="M 7.90625 0 
L 7.90625 71.578125 
L 59.671875 71.578125 
L 59.671875 63.140625 
L 17.390625 63.140625 
L 17.390625 41.21875 
L 56.984375 41.21875 
L 56.984375 32.8125 
L 17.390625 32.8125 
L 17.390625 8.453125 
L 61.328125 8.453125 
L 61.328125 0 
z
" id="ArialMT-69"/>
      <path d="M 6.59375 -19.875 
L 6.59375 51.859375 
L 14.59375 51.859375 
L 14.59375 45.125 
Q 17.4375 49.078125 21 51.046875 
Q 24.5625 53.03125 29.640625 53.03125 
Q 36.28125 53.03125 41.359375 49.609375 
Q 46.4375 46.1875 49.015625 39.953125 
Q 51.609375 33.734375 51.609375 26.3125 
Q 51.609375 18.359375 48.75 11.984375 
Q 45.90625 5.609375 40.453125 2.21875 
Q 35.015625 -1.171875 29 -1.171875 
Q 24.609375 -1.171875 21.109375 0.6875 
Q 17.625 2.546875 15.375 5.375 
L 15.375 -19.875 
z
M 14.546875 25.640625 
Q 14.546875 15.625 18.59375 10.84375 
Q 22.65625 6.0625 28.421875 6.0625 
Q 34.28125 6.0625 38.453125 11.015625 
Q 42.625 15.96875 42.625 26.375 
Q 42.625 36.28125 38.546875 41.203125 
Q 34.46875 46.140625 28.8125 46.140625 
Q 23.1875 46.140625 18.859375 40.890625 
Q 14.546875 35.640625 14.546875 25.640625 
z
" id="ArialMT-112"/>
      <path d="M 3.328125 25.921875 
Q 3.328125 40.328125 11.328125 47.265625 
Q 18.015625 53.03125 27.640625 53.03125 
Q 38.328125 53.03125 45.109375 46.015625 
Q 51.90625 39.015625 51.90625 26.65625 
Q 51.90625 16.65625 48.90625 10.90625 
Q 45.90625 5.171875 40.15625 2 
Q 34.421875 -1.171875 27.640625 -1.171875 
Q 16.75 -1.171875 10.03125 5.8125 
Q 3.328125 12.796875 3.328125 25.921875 
z
M 12.359375 25.921875 
Q 12.359375 15.96875 16.703125 11.015625 
Q 21.046875 6.0625 27.640625 6.0625 
Q 34.1875 6.0625 38.53125 11.03125 
Q 42.875 16.015625 42.875 26.21875 
Q 42.875 35.84375 38.5 40.796875 
Q 34.125 45.75 27.640625 45.75 
Q 21.046875 45.75 16.703125 40.8125 
Q 12.359375 35.890625 12.359375 25.921875 
z
" id="ArialMT-111"/>
      <path d="M 40.4375 19 
L 49.078125 17.875 
Q 47.65625 8.9375 41.8125 3.875 
Q 35.984375 -1.171875 27.484375 -1.171875 
Q 16.84375 -1.171875 10.375 5.78125 
Q 3.90625 12.75 3.90625 25.734375 
Q 3.90625 34.125 6.6875 40.421875 
Q 9.46875 46.734375 15.15625 49.875 
Q 20.84375 53.03125 27.546875 53.03125 
Q 35.984375 53.03125 41.359375 48.75 
Q 46.734375 44.484375 48.25 36.625 
L 39.703125 35.296875 
Q 38.484375 40.53125 35.375 43.15625 
Q 32.28125 45.796875 27.875 45.796875 
Q 21.234375 45.796875 17.078125 41.03125 
Q 12.9375 36.28125 12.9375 25.984375 
Q 12.9375 15.53125 16.9375 10.796875 
Q 20.953125 6.0625 27.390625 6.0625 
Q 32.5625 6.0625 36.03125 9.234375 
Q 39.5 12.40625 40.4375 19 
z
" id="ArialMT-99"/>
      <path d="M 6.59375 0 
L 6.59375 71.578125 
L 15.375 71.578125 
L 15.375 45.90625 
Q 21.53125 53.03125 30.90625 53.03125 
Q 36.671875 53.03125 40.921875 50.75 
Q 45.171875 48.484375 47 44.484375 
Q 48.828125 40.484375 48.828125 32.859375 
L 48.828125 0 
L 40.046875 0 
L 40.046875 32.859375 
Q 40.046875 39.453125 37.1875 42.453125 
Q 34.328125 45.453125 29.109375 45.453125 
Q 25.203125 45.453125 21.75 43.421875 
Q 18.3125 41.40625 16.84375 37.9375 
Q 15.375 34.46875 15.375 28.375 
L 15.375 0 
z
" id="ArialMT-104"/>
      <path d="M 3.078125 15.484375 
L 11.765625 16.84375 
Q 12.5 11.625 15.84375 8.84375 
Q 19.1875 6.0625 25.203125 6.0625 
Q 31.25 6.0625 34.171875 8.515625 
Q 37.109375 10.984375 37.109375 14.3125 
Q 37.109375 17.28125 34.515625 19 
Q 32.71875 20.171875 25.53125 21.96875 
Q 15.875 24.421875 12.140625 26.203125 
Q 8.40625 27.984375 6.46875 31.125 
Q 4.546875 34.28125 4.546875 38.09375 
Q 4.546875 41.546875 6.125 44.5 
Q 7.71875 47.46875 10.453125 49.421875 
Q 12.5 50.921875 16.03125 51.96875 
Q 19.578125 53.03125 23.640625 53.03125 
Q 29.734375 53.03125 34.34375 51.265625 
Q 38.96875 49.515625 41.15625 46.5 
Q 43.359375 43.5 44.1875 38.484375 
L 35.59375 37.3125 
Q 35.015625 41.3125 32.203125 43.546875 
Q 29.390625 45.796875 24.265625 45.796875 
Q 18.21875 45.796875 15.625 43.796875 
Q 13.03125 41.796875 13.03125 39.109375 
Q 13.03125 37.40625 14.109375 36.03125 
Q 15.1875 34.625 17.484375 33.6875 
Q 18.796875 33.203125 25.25 31.453125 
Q 34.578125 28.953125 38.25 27.359375 
Q 41.9375 25.78125 44.03125 22.75 
Q 46.140625 19.734375 46.140625 15.234375 
Q 46.140625 10.84375 43.578125 6.953125 
Q 41.015625 3.078125 36.171875 0.953125 
Q 31.34375 -1.171875 25.25 -1.171875 
Q 15.140625 -1.171875 9.84375 3.03125 
Q 4.546875 7.234375 3.078125 15.484375 
z
" id="ArialMT-115"/>
     </defs>
     <g style="fill:#262626;" transform="translate(136.564531 313.063125)scale(0.12 -0.12)">
      <use xlink:href="#ArialMT-69"/>
      <use x="66.699219" xlink:href="#ArialMT-112"/>
      <use x="122.314453" xlink:href="#ArialMT-111"/>
      <use x="177.929688" xlink:href="#ArialMT-99"/>
      <use x="227.929688" xlink:href="#ArialMT-104"/>
      <use x="283.544922" xlink:href="#ArialMT-115"/>
     </g>
    </g>
   </g>
   <g id="matplotlib.axis_2">
    <g id="ytick_1">
     <g id="line2d_1"/>
     <g id="text_13">
      <!-- 0 -->
      <g style="fill:#262626;" transform="translate(22.174375 279.480969)scale(0.11 -0.11)">
       <use xlink:href="#Arial-BoldMT-48"/>
      </g>
     </g>
    </g>
    <g id="ytick_2">
     <g id="line2d_2"/>
     <g id="text_14">
      <!-- 1 -->
      <g style="fill:#262626;" transform="translate(22.174375 239.439944)scale(0.11 -0.11)">
       <use xlink:href="#Arial-BoldMT-49"/>
      </g>
     </g>
    </g>
    <g id="ytick_3">
     <g id="line2d_3"/>
     <g id="text_15">
      <!-- 2 -->
      <g style="fill:#262626;" transform="translate(22.174375 199.398919)scale(0.11 -0.11)">
       <use xlink:href="#Arial-BoldMT-50"/>
      </g>
     </g>
    </g>
    <g id="ytick_4">
     <g id="line2d_4"/>
     <g id="text_16">
      <!-- 3 -->
      <g style="fill:#262626;" transform="translate(22.174375 159.357894)scale(0.11 -0.11)">
       <use xlink:href="#Arial-BoldMT-51"/>
      </g>
     </g>
    </g>
    <g id="ytick_5">
     <g id="line2d_5"/>
     <g id="text_17">
      <!-- 4 -->
      <g style="fill:#262626;" transform="translate(22.174375 119.316869)scale(0.11 -0.11)">
       <use xlink:href="#Arial-BoldMT-52"/>
      </g>
     </g>
    </g>
    <g id="ytick_6">
     <g id="line2d_6"/>
     <g id="text_18">
      <!-- 5 -->
      <g style="fill:#262626;" transform="translate(22.174375 79.275844)scale(0.11 -0.11)">
       <use xlink:href="#Arial-BoldMT-53"/>
      </g>
     </g>
    </g>
    <g id="ytick_7">
     <g id="line2d_7"/>
     <g id="text_19">
      <!-- 6 -->
      <g style="fill:#262626;" transform="translate(22.174375 39.234819)scale(0.11 -0.11)">
       <use xlink:href="#Arial-BoldMT-54"/>
      </g>
     </g>
    </g>
    <g id="text_20">
     <!-- MSE -->
     <defs>
      <path d="M 7.421875 0 
L 7.421875 71.578125 
L 21.6875 71.578125 
L 38.625 20.90625 
Q 40.96875 13.8125 42.046875 10.296875 
Q 43.265625 14.203125 45.84375 21.78125 
L 62.984375 71.578125 
L 75.734375 71.578125 
L 75.734375 0 
L 66.609375 0 
L 66.609375 59.90625 
L 45.796875 0 
L 37.25 0 
L 16.546875 60.9375 
L 16.546875 0 
z
" id="ArialMT-77"/>
      <path d="M 4.5 23 
L 13.421875 23.78125 
Q 14.0625 18.40625 16.375 14.96875 
Q 18.703125 11.53125 23.578125 9.40625 
Q 28.46875 7.28125 34.578125 7.28125 
Q 39.984375 7.28125 44.140625 8.890625 
Q 48.296875 10.5 50.3125 13.296875 
Q 52.34375 16.109375 52.34375 19.4375 
Q 52.34375 22.796875 50.390625 25.3125 
Q 48.4375 27.828125 43.953125 29.546875 
Q 41.0625 30.671875 31.203125 33.03125 
Q 21.34375 35.40625 17.390625 37.5 
Q 12.25 40.1875 9.734375 44.15625 
Q 7.234375 48.140625 7.234375 53.078125 
Q 7.234375 58.5 10.296875 63.203125 
Q 13.375 67.921875 19.28125 70.359375 
Q 25.203125 72.796875 32.421875 72.796875 
Q 40.375 72.796875 46.453125 70.234375 
Q 52.546875 67.671875 55.8125 62.6875 
Q 59.078125 57.71875 59.328125 51.421875 
L 50.25 50.734375 
Q 49.515625 57.515625 45.28125 60.984375 
Q 41.0625 64.453125 32.8125 64.453125 
Q 24.21875 64.453125 20.28125 61.296875 
Q 16.359375 58.15625 16.359375 53.71875 
Q 16.359375 49.859375 19.140625 47.359375 
Q 21.875 44.875 33.421875 42.265625 
Q 44.96875 39.65625 49.265625 37.703125 
Q 55.515625 34.8125 58.484375 30.390625 
Q 61.46875 25.984375 61.46875 20.21875 
Q 61.46875 14.5 58.203125 9.4375 
Q 54.9375 4.390625 48.796875 1.578125 
Q 42.671875 -1.21875 35.015625 -1.21875 
Q 25.296875 -1.21875 18.71875 1.609375 
Q 12.15625 4.4375 8.421875 10.125 
Q 4.6875 15.828125 4.5 23 
z
" id="ArialMT-83"/>
     </defs>
     <g style="fill:#262626;" transform="translate(15.789375 167.361562)rotate(-90)scale(0.12 -0.12)">
      <use xlink:href="#ArialMT-77"/>
      <use x="83.300781" xlink:href="#ArialMT-83"/>
      <use x="150" xlink:href="#ArialMT-69"/>
     </g>
    </g>
   </g>
   <g id="line2d_8">
    <path clip-path="url(#p00387bc109)" d="M 34.287106 206.838771 
L 36.782806 251.926205 
L 39.278506 259.385229 
L 41.774206 263.873955 
L 44.269906 262.252594 
L 46.765606 264.628305 
L 49.261306 266.620012 
L 51.757006 266.746311 
L 54.252706 269.100497 
L 56.748406 267.891546 
L 59.244106 268.180984 
L 61.739806 270.0701 
L 64.235506 269.139219 
L 66.731206 267.020247 
L 69.226906 270.022767 
L 71.722606 269.29606 
L 74.218306 267.967744 
L 76.714006 270.776629 
L 79.209706 267.745481 
L 81.705406 270.242189 
L 84.201106 268.394943 
L 86.696806 270.850656 
L 89.192506 268.902135 
L 91.688206 270.219511 
L 94.183906 270.204261 
L 96.679606 271.121664 
L 99.175306 270.820488 
L 101.671006 270.575856 
L 104.166706 269.129412 
L 106.662406 270.243381 
L 109.158106 269.938139 
L 111.653806 270.759052 
L 114.149506 271.262591 
L 116.645206 270.38116 
L 119.140906 271.758232 
L 121.636606 270.784698 
L 124.132306 271.191845 
L 126.628006 271.552442 
L 129.123706 272.243806 
L 131.619406 272.145145 
L 134.115106 271.159443 
L 136.610806 271.435227 
L 139.106506 272.409765 
L 141.602206 271.684911 
L 144.097906 271.14292 
L 146.593606 271.605284 
L 149.089306 272.470387 
L 151.585006 271.306198 
L 154.080706 272.060815 
L 156.576406 270.734078 
L 159.072106 269.990386 
L 161.567806 270.943134 
L 164.063506 272.077191 
L 166.559206 270.816981 
L 169.054906 272.287536 
L 171.550606 271.713339 
L 174.046306 271.560209 
L 176.542006 271.744045 
L 179.037706 271.777685 
L 181.533406 271.543283 
L 184.029106 272.006148 
L 186.524806 271.421829 
L 189.020506 271.006636 
L 191.516206 271.871668 
L 194.011906 270.634669 
L 196.507606 271.32001 
L 199.003306 271.229448 
L 201.499006 270.994336 
L 203.994706 270.310627 
L 206.490406 271.58387 
L 208.986106 271.191261 
L 211.481806 271.817649 
L 213.977506 270.555514 
L 216.473206 272.00052 
L 218.968906 270.157985 
L 221.464606 271.346591 
L 223.960306 272.012923 
L 226.456006 271.412739 
L 228.951706 270.32613 
L 231.447406 270.14882 
L 233.943106 271.081936 
L 236.438806 271.939957 
L 238.934506 271.4644 
L 241.430206 270.93571 
L 243.925906 271.655281 
L 246.421606 271.493182 
L 248.917306 271.077893 
L 251.413006 271.917148 
L 253.908706 271.505553 
L 256.404406 271.656464 
L 258.900106 271.179807 
L 261.395806 272.045595 
L 263.891506 272.181869 
L 266.387206 271.702305 
L 268.882906 271.635768 
L 271.378606 271.883888 
L 273.874306 272.217023 
L 276.370006 272.146016 
L 278.865706 271.315284 
L 281.361406 271.937441 
" style="fill:none;stroke:#1f77b4;stroke-dasharray:2,3.3;stroke-dashoffset:0;stroke-width:2;"/>
   </g>
   <g id="line2d_9">
    <path clip-path="url(#p00387bc109)" d="M 34.287106 132.974157 
L 36.782806 230.474365 
L 39.278506 229.574466 
L 41.774206 231.711059 
L 44.269906 232.419968 
L 46.765606 232.998325 
L 49.261306 232.541173 
L 51.757006 235.376368 
L 54.252706 234.960501 
L 56.748406 236.844662 
L 59.244106 237.638205 
L 61.739806 236.659764 
L 64.235506 237.780983 
L 66.731206 239.078639 
L 69.226906 238.640976 
L 71.722606 239.887239 
L 74.218306 241.565284 
L 76.714006 242.019481 
L 79.209706 243.023538 
L 81.705406 242.735676 
L 84.201106 243.211122 
L 86.696806 245.779392 
L 89.192506 245.885812 
L 91.688206 246.454089 
L 94.183906 247.611052 
L 96.679606 249.158543 
L 99.175306 248.265635 
L 101.671006 249.584481 
L 104.166706 250.794951 
L 106.662406 251.414578 
L 109.158106 251.600079 
L 111.653806 252.527214 
L 114.149506 253.200691 
L 116.645206 252.321277 
L 119.140906 254.021218 
L 121.636606 255.807358 
L 124.132306 253.712201 
L 126.628006 255.38629 
L 129.123706 256.431315 
L 131.619406 256.940361 
L 134.115106 257.752476 
L 136.610806 257.799144 
L 139.106506 258.978152 
L 141.602206 259.695693 
L 144.097906 259.934703 
L 146.593606 260.456461 
L 149.089306 260.803909 
L 151.585006 260.817697 
L 154.080706 261.622536 
L 156.576406 262.368462 
L 159.072106 262.852862 
L 161.567806 262.288525 
L 164.063506 263.662086 
L 166.559206 264.323936 
L 169.054906 264.184317 
L 171.550606 264.912416 
L 174.046306 265.148435 
L 176.542006 265.38022 
L 179.037706 266.310001 
L 181.533406 266.303171 
L 184.029106 266.599035 
L 186.524806 267.190764 
L 189.020506 267.81294 
L 191.516206 267.842945 
L 194.011906 268.619264 
L 196.507606 268.42431 
L 199.003306 269.031309 
L 201.499006 268.895743 
L 203.994706 269.403125 
L 206.490406 269.547673 
L 208.986106 270.294316 
L 211.481806 270.352618 
L 213.977506 270.709354 
L 216.473206 270.854672 
L 218.968906 271.129931 
L 221.464606 271.065097 
L 223.960306 271.522613 
L 226.456006 271.728526 
L 228.951706 271.872582 
L 231.447406 271.70392 
L 233.943106 272.225132 
L 236.438806 272.447214 
L 238.934506 272.879942 
L 241.430206 273.002814 
L 243.925906 273.284878 
L 246.421606 273.259419 
L 248.917306 273.517136 
L 251.413006 273.607753 
L 253.908706 273.732685 
L 256.404406 273.866028 
L 258.900106 274.024709 
L 261.395806 274.121366 
L 263.891506 274.302502 
L 266.387206 274.414416 
L 268.882906 274.485885 
L 271.378606 274.59171 
L 273.874306 274.706775 
L 276.370006 274.77132 
L 278.865706 274.710948 
L 281.361406 274.877557 
" style="fill:none;stroke:#ff7f0e;stroke-dasharray:2,3.3;stroke-dashoffset:0;stroke-width:2;"/>
   </g>
   <g id="line2d_10">
    <path clip-path="url(#p00387bc109)" d="M 34.287106 33.841193 
L 36.782806 225.337606 
L 39.278506 233.784969 
L 41.774206 237.561593 
L 44.269906 237.950635 
L 46.765606 235.325426 
L 49.261306 235.245228 
L 51.757006 237.712714 
L 54.252706 237.236707 
L 56.748406 238.475478 
L 59.244106 239.268026 
L 61.739806 238.087852 
L 64.235506 238.02026 
L 66.731206 240.919185 
L 69.226906 242.037289 
L 71.722606 241.454926 
L 74.218306 238.743902 
L 76.714006 239.689246 
L 79.209706 237.490669 
L 81.705406 239.299135 
L 84.201106 240.912509 
L 86.696806 236.894421 
L 89.192506 240.1089 
L 91.688206 243.882585 
L 94.183906 239.551828 
L 96.679606 238.490268 
L 99.175306 239.887291 
L 101.671006 242.450255 
L 104.166706 238.413286 
L 106.662406 243.443151 
L 109.158106 240.477635 
L 111.653806 242.36342 
L 114.149506 243.865773 
L 116.645206 244.072336 
L 119.140906 243.527316 
L 121.636606 243.924709 
L 124.132306 243.825793 
L 126.628006 245.78274 
L 129.123706 241.664069 
L 131.619406 243.623229 
L 134.115106 242.90148 
L 136.610806 244.757729 
L 139.106506 243.963895 
L 141.602206 246.678032 
L 144.097906 245.463313 
L 146.593606 246.386073 
L 149.089306 245.509069 
L 151.585006 244.31285 
L 154.080706 247.905044 
L 156.576406 246.123143 
L 159.072106 245.572159 
L 161.567806 248.202851 
L 164.063506 249.027812 
L 166.559206 247.426232 
L 169.054906 247.633728 
L 171.550606 248.558102 
L 174.046306 246.957791 
L 176.542006 248.41703 
L 179.037706 247.881544 
L 181.533406 246.917475 
L 184.029106 247.48233 
L 186.524806 249.623331 
L 189.020506 247.039501 
L 191.516206 249.578429 
L 194.011906 249.80175 
L 196.507606 249.255038 
L 199.003306 250.80924 
L 201.499006 250.452276 
L 203.994706 250.630107 
L 206.490406 251.703016 
L 208.986106 250.331179 
L 211.481806 251.748916 
L 213.977506 253.188373 
L 216.473206 251.800985 
L 218.968906 252.732191 
L 221.464606 253.983177 
L 223.960306 251.8158 
L 226.456006 253.403304 
L 228.951706 252.087933 
L 231.447406 253.05824 
L 233.943106 250.835973 
L 236.438806 252.344563 
L 238.934506 253.844291 
L 241.430206 254.454388 
L 243.925906 256.061149 
L 246.421606 253.920169 
L 248.917306 253.858912 
L 251.413006 254.325712 
L 253.908706 255.315365 
L 256.404406 254.170348 
L 258.900106 253.740147 
L 261.395806 255.548286 
L 263.891506 255.51684 
L 266.387206 255.185693 
L 268.882906 256.302736 
L 271.378606 254.952979 
L 273.874306 255.865608 
L 276.370006 255.70773 
L 278.865706 256.741749 
L 281.361406 256.408115 
" style="fill:none;stroke:#2ca02c;stroke-dasharray:2,3.3;stroke-dashoffset:0;stroke-width:2;"/>
   </g>
   <g id="line2d_11">
    <path clip-path="url(#p00387bc109)" d="M 34.287106 206.296583 
L 36.782806 235.603348 
L 39.278506 244.035374 
L 41.774206 247.955279 
L 44.269906 250.353567 
L 46.765606 253.607179 
L 49.261306 255.456709 
L 51.757006 257.209271 
L 54.252706 257.191659 
L 56.748406 257.348598 
L 59.244106 258.435046 
L 61.739806 258.73159 
L 64.235506 260.179227 
L 66.731206 259.5797 
L 69.226906 259.788842 
L 71.722606 259.430523 
L 74.218306 260.600928 
L 76.714006 261.142366 
L 79.209706 261.012811 
L 81.705406 260.763591 
L 84.201106 261.10433 
L 86.696806 262.161794 
L 89.192506 261.804918 
L 91.688206 261.962343 
L 94.183906 262.17175 
L 96.679606 262.231338 
L 99.175306 261.773401 
L 101.671006 262.359735 
L 104.166706 262.721219 
L 106.662406 262.004072 
L 109.158106 262.84974 
L 111.653806 263.12347 
L 114.149506 262.386665 
L 116.645206 263.215592 
L 119.140906 263.058383 
L 121.636606 263.371075 
L 124.132306 263.182615 
L 126.628006 263.416441 
L 129.123706 263.361003 
L 131.619406 263.075759 
L 134.115106 263.58182 
L 136.610806 263.830443 
L 139.106506 261.355612 
L 141.602206 262.454927 
L 144.097906 262.606147 
L 146.593606 263.437154 
L 149.089306 263.628911 
L 151.585006 263.519268 
L 154.080706 263.600875 
L 156.576406 264.404868 
L 159.072106 264.66652 
L 161.567806 265.023931 
L 164.063506 264.574261 
L 166.559206 264.25363 
L 169.054906 264.539602 
L 171.550606 265.096544 
L 174.046306 265.430286 
L 176.542006 265.212102 
L 179.037706 265.200521 
L 181.533406 264.9575 
L 184.029106 265.334317 
L 186.524806 265.177555 
L 189.020506 265.350129 
L 191.516206 265.317571 
L 194.011906 265.432568 
L 196.507606 265.118105 
L 199.003306 264.285072 
L 201.499006 263.809025 
L 203.994706 265.38646 
L 206.490406 265.574878 
L 208.986106 264.83785 
L 211.481806 265.185766 
L 213.977506 265.385711 
L 216.473206 265.344765 
L 218.968906 265.752531 
L 221.464606 265.630597 
L 223.960306 265.751133 
L 226.456006 265.928664 
L 228.951706 266.067625 
L 231.447406 264.997909 
L 233.943106 259.599744 
L 236.438806 260.34223 
L 238.934506 263.862522 
L 241.430206 265.031438 
L 243.925906 264.58993 
L 246.421606 265.406447 
L 248.917306 265.365642 
L 251.413006 265.99812 
L 253.908706 265.704444 
L 256.404406 265.553408 
L 258.900106 265.833036 
L 261.395806 266.074014 
L 263.891506 266.074822 
L 266.387206 266.035069 
L 268.882906 265.888525 
L 271.378606 266.337266 
L 273.874306 266.381542 
L 276.370006 266.297741 
L 278.865706 266.538327 
L 281.361406 265.748267 
" style="fill:none;stroke:#d62728;stroke-dasharray:2,3.3;stroke-dashoffset:0;stroke-width:2;"/>
   </g>
   <g id="patch_3">
    <path d="M 31.791406 286.929375 
L 31.791406 21.789375 
" style="fill:none;stroke:#262626;stroke-linecap:square;stroke-linejoin:miter;stroke-width:1.25;"/>
   </g>
   <g id="patch_4">
    <path d="M 281.361406 286.929375 
L 281.361406 21.789375 
" style="fill:none;stroke:#262626;stroke-linecap:square;stroke-linejoin:miter;stroke-width:1.25;"/>
   </g>
   <g id="patch_5">
    <path d="M 31.791406 286.929375 
L 281.361406 286.929375 
" style="fill:none;stroke:#262626;stroke-linecap:square;stroke-linejoin:miter;stroke-width:1.25;"/>
   </g>
   <g id="patch_6">
    <path d="M 31.791406 21.789375 
L 281.361406 21.789375 
" style="fill:none;stroke:#262626;stroke-linecap:square;stroke-linejoin:miter;stroke-width:1.25;"/>
   </g>
   <g id="text_21">
    <!-- Training History -->
    <defs>
     <path d="M 25.921875 0 
L 25.921875 63.140625 
L 2.34375 63.140625 
L 2.34375 71.578125 
L 59.078125 71.578125 
L 59.078125 63.140625 
L 35.40625 63.140625 
L 35.40625 0 
z
" id="ArialMT-84"/>
     <path d="M 6.5 0 
L 6.5 51.859375 
L 14.40625 51.859375 
L 14.40625 44 
Q 17.4375 49.515625 20 51.265625 
Q 22.5625 53.03125 25.640625 53.03125 
Q 30.078125 53.03125 34.671875 50.203125 
L 31.640625 42.046875 
Q 28.421875 43.953125 25.203125 43.953125 
Q 22.3125 43.953125 20.015625 42.21875 
Q 17.71875 40.484375 16.75 37.40625 
Q 15.28125 32.71875 15.28125 27.15625 
L 15.28125 0 
z
" id="ArialMT-114"/>
     <path d="M 40.4375 6.390625 
Q 35.546875 2.25 31.03125 0.53125 
Q 26.515625 -1.171875 21.34375 -1.171875 
Q 12.796875 -1.171875 8.203125 3 
Q 3.609375 7.171875 3.609375 13.671875 
Q 3.609375 17.484375 5.34375 20.625 
Q 7.078125 23.78125 9.890625 25.6875 
Q 12.703125 27.59375 16.21875 28.5625 
Q 18.796875 29.25 24.03125 29.890625 
Q 34.671875 31.15625 39.703125 32.90625 
Q 39.75 34.71875 39.75 35.203125 
Q 39.75 40.578125 37.25 42.78125 
Q 33.890625 45.75 27.25 45.75 
Q 21.046875 45.75 18.09375 43.578125 
Q 15.140625 41.40625 13.71875 35.890625 
L 5.125 37.0625 
Q 6.296875 42.578125 8.984375 45.96875 
Q 11.671875 49.359375 16.75 51.1875 
Q 21.828125 53.03125 28.515625 53.03125 
Q 35.15625 53.03125 39.296875 51.46875 
Q 43.453125 49.90625 45.40625 47.53125 
Q 47.359375 45.171875 48.140625 41.546875 
Q 48.578125 39.3125 48.578125 33.453125 
L 48.578125 21.734375 
Q 48.578125 9.46875 49.140625 6.21875 
Q 49.703125 2.984375 51.375 0 
L 42.1875 0 
Q 40.828125 2.734375 40.4375 6.390625 
z
M 39.703125 26.03125 
Q 34.90625 24.078125 25.34375 22.703125 
Q 19.921875 21.921875 17.671875 20.9375 
Q 15.4375 19.96875 14.203125 18.09375 
Q 12.984375 16.21875 12.984375 13.921875 
Q 12.984375 10.40625 15.640625 8.0625 
Q 18.3125 5.71875 23.4375 5.71875 
Q 28.515625 5.71875 32.46875 7.9375 
Q 36.421875 10.15625 38.28125 14.015625 
Q 39.703125 17 39.703125 22.796875 
z
" id="ArialMT-97"/>
     <path d="M 6.640625 61.46875 
L 6.640625 71.578125 
L 15.4375 71.578125 
L 15.4375 61.46875 
z
M 6.640625 0 
L 6.640625 51.859375 
L 15.4375 51.859375 
L 15.4375 0 
z
" id="ArialMT-105"/>
     <path d="M 6.59375 0 
L 6.59375 51.859375 
L 14.5 51.859375 
L 14.5 44.484375 
Q 20.21875 53.03125 31 53.03125 
Q 35.6875 53.03125 39.625 51.34375 
Q 43.5625 49.65625 45.515625 46.921875 
Q 47.46875 44.1875 48.25 40.4375 
Q 48.734375 37.984375 48.734375 31.890625 
L 48.734375 0 
L 39.9375 0 
L 39.9375 31.546875 
Q 39.9375 36.921875 38.90625 39.578125 
Q 37.890625 42.234375 35.28125 43.8125 
Q 32.671875 45.40625 29.15625 45.40625 
Q 23.53125 45.40625 19.453125 41.84375 
Q 15.375 38.28125 15.375 28.328125 
L 15.375 0 
z
" id="ArialMT-110"/>
     <path d="M 4.984375 -4.296875 
L 13.53125 -5.5625 
Q 14.0625 -9.515625 16.5 -11.328125 
Q 19.78125 -13.765625 25.4375 -13.765625 
Q 31.546875 -13.765625 34.859375 -11.328125 
Q 38.1875 -8.890625 39.359375 -4.5 
Q 40.046875 -1.8125 39.984375 6.78125 
Q 34.234375 0 25.640625 0 
Q 14.9375 0 9.078125 7.71875 
Q 3.21875 15.4375 3.21875 26.21875 
Q 3.21875 33.640625 5.90625 39.90625 
Q 8.59375 46.1875 13.6875 49.609375 
Q 18.796875 53.03125 25.6875 53.03125 
Q 34.859375 53.03125 40.828125 45.609375 
L 40.828125 51.859375 
L 48.921875 51.859375 
L 48.921875 7.03125 
Q 48.921875 -5.078125 46.453125 -10.125 
Q 44 -15.1875 38.640625 -18.109375 
Q 33.296875 -21.046875 25.484375 -21.046875 
Q 16.21875 -21.046875 10.5 -16.875 
Q 4.78125 -12.703125 4.984375 -4.296875 
z
M 12.25 26.859375 
Q 12.25 16.65625 16.296875 11.96875 
Q 20.359375 7.28125 26.46875 7.28125 
Q 32.515625 7.28125 36.609375 11.9375 
Q 40.71875 16.609375 40.71875 26.5625 
Q 40.71875 36.078125 36.5 40.90625 
Q 32.28125 45.75 26.3125 45.75 
Q 20.453125 45.75 16.34375 40.984375 
Q 12.25 36.234375 12.25 26.859375 
z
" id="ArialMT-103"/>
     <path id="ArialMT-32"/>
     <path d="M 8.015625 0 
L 8.015625 71.578125 
L 17.484375 71.578125 
L 17.484375 42.1875 
L 54.6875 42.1875 
L 54.6875 71.578125 
L 64.15625 71.578125 
L 64.15625 0 
L 54.6875 0 
L 54.6875 33.734375 
L 17.484375 33.734375 
L 17.484375 0 
z
" id="ArialMT-72"/>
     <path d="M 25.78125 7.859375 
L 27.046875 0.09375 
Q 23.34375 -0.6875 20.40625 -0.6875 
Q 15.625 -0.6875 12.984375 0.828125 
Q 10.359375 2.34375 9.28125 4.8125 
Q 8.203125 7.28125 8.203125 15.1875 
L 8.203125 45.015625 
L 1.765625 45.015625 
L 1.765625 51.859375 
L 8.203125 51.859375 
L 8.203125 64.703125 
L 16.9375 69.96875 
L 16.9375 51.859375 
L 25.78125 51.859375 
L 25.78125 45.015625 
L 16.9375 45.015625 
L 16.9375 14.703125 
Q 16.9375 10.9375 17.40625 9.859375 
Q 17.875 8.796875 18.921875 8.15625 
Q 19.96875 7.515625 21.921875 7.515625 
Q 23.390625 7.515625 25.78125 7.859375 
z
" id="ArialMT-116"/>
     <path d="M 6.203125 -19.96875 
L 5.21875 -11.71875 
Q 8.109375 -12.5 10.25 -12.5 
Q 13.1875 -12.5 14.9375 -11.515625 
Q 16.703125 -10.546875 17.828125 -8.796875 
Q 18.65625 -7.46875 20.515625 -2.25 
Q 20.75 -1.515625 21.296875 -0.09375 
L 1.609375 51.859375 
L 11.078125 51.859375 
L 21.875 21.828125 
Q 23.96875 16.109375 25.640625 9.8125 
Q 27.15625 15.875 29.25 21.625 
L 40.328125 51.859375 
L 49.125 51.859375 
L 29.390625 -0.875 
Q 26.21875 -9.421875 24.46875 -12.640625 
Q 22.125 -17 19.09375 -19.015625 
Q 16.0625 -21.046875 11.859375 -21.046875 
Q 9.328125 -21.046875 6.203125 -19.96875 
z
" id="ArialMT-121"/>
    </defs>
    <g style="fill:#262626;" transform="translate(114.569844 15.789375)scale(0.12 -0.12)">
     <use xlink:href="#ArialMT-84"/>
     <use x="61.037109" xlink:href="#ArialMT-114"/>
     <use x="94.337891" xlink:href="#ArialMT-97"/>
     <use x="149.953125" xlink:href="#ArialMT-105"/>
     <use x="172.169922" xlink:href="#ArialMT-110"/>
     <use x="227.785156" xlink:href="#ArialMT-105"/>
     <use x="250.001953" xlink:href="#ArialMT-110"/>
     <use x="305.617188" xlink:href="#ArialMT-103"/>
     <use x="361.232422" xlink:href="#ArialMT-32"/>
     <use x="389.015625" xlink:href="#ArialMT-72"/>
     <use x="461.232422" xlink:href="#ArialMT-105"/>
     <use x="483.449219" xlink:href="#ArialMT-115"/>
     <use x="533.449219" xlink:href="#ArialMT-116"/>
     <use x="561.232422" xlink:href="#ArialMT-111"/>
     <use x="616.847656" xlink:href="#ArialMT-114"/>
     <use x="650.148438" xlink:href="#ArialMT-121"/>
    </g>
   </g>
  </g>
  <g id="axes_2">
   <g id="matplotlib.axis_3">
    <g id="ytick_8">
     <g id="line2d_12"/>
     <g id="text_22">
      <!-- 0.0 -->
      <defs>
       <path d="M 7.171875 0 
L 7.171875 13.71875 
L 20.90625 13.71875 
L 20.90625 0 
z
" id="Arial-BoldMT-46"/>
      </defs>
      <g style="fill:#262626;" transform="translate(284.861406 290.866172)scale(0.11 -0.11)">
       <use xlink:href="#Arial-BoldMT-48"/>
       <use x="55.615234" xlink:href="#Arial-BoldMT-46"/>
       <use x="83.398438" xlink:href="#Arial-BoldMT-48"/>
      </g>
     </g>
    </g>
    <g id="ytick_9">
     <g id="line2d_13"/>
     <g id="text_23">
      <!-- 0.2 -->
      <g style="fill:#262626;" transform="translate(284.861406 237.838172)scale(0.11 -0.11)">
       <use xlink:href="#Arial-BoldMT-48"/>
       <use x="55.615234" xlink:href="#Arial-BoldMT-46"/>
       <use x="83.398438" xlink:href="#Arial-BoldMT-50"/>
      </g>
     </g>
    </g>
    <g id="ytick_10">
     <g id="line2d_14"/>
     <g id="text_24">
      <!-- 0.4 -->
      <g style="fill:#262626;" transform="translate(284.861406 184.810172)scale(0.11 -0.11)">
       <use xlink:href="#Arial-BoldMT-48"/>
       <use x="55.615234" xlink:href="#Arial-BoldMT-46"/>
       <use x="83.398438" xlink:href="#Arial-BoldMT-52"/>
      </g>
     </g>
    </g>
    <g id="ytick_11">
     <g id="line2d_15"/>
     <g id="text_25">
      <!-- 0.6 -->
      <g style="fill:#262626;" transform="translate(284.861406 131.782172)scale(0.11 -0.11)">
       <use xlink:href="#Arial-BoldMT-48"/>
       <use x="55.615234" xlink:href="#Arial-BoldMT-46"/>
       <use x="83.398438" xlink:href="#Arial-BoldMT-54"/>
      </g>
     </g>
    </g>
    <g id="ytick_12">
     <g id="line2d_16"/>
     <g id="text_26">
      <!-- 0.8 -->
      <g style="fill:#262626;" transform="translate(284.861406 78.754172)scale(0.11 -0.11)">
       <use xlink:href="#Arial-BoldMT-48"/>
       <use x="55.615234" xlink:href="#Arial-BoldMT-46"/>
       <use x="83.398438" xlink:href="#Arial-BoldMT-56"/>
      </g>
     </g>
    </g>
    <g id="ytick_13">
     <g id="line2d_17"/>
     <g id="text_27">
      <!-- 1.0 -->
      <g style="fill:#262626;" transform="translate(284.861406 25.726172)scale(0.11 -0.11)">
       <use xlink:href="#Arial-BoldMT-49"/>
       <use x="55.615234" xlink:href="#Arial-BoldMT-46"/>
       <use x="83.398438" xlink:href="#Arial-BoldMT-48"/>
      </g>
     </g>
    </g>
    <g id="text_28">
     <!-- Accuracy -->
     <defs>
      <path d="M -0.140625 0 
L 27.34375 71.578125 
L 37.546875 71.578125 
L 66.84375 0 
L 56.0625 0 
L 47.703125 21.6875 
L 17.78125 21.6875 
L 9.90625 0 
z
M 20.515625 29.390625 
L 44.78125 29.390625 
L 37.3125 49.21875 
Q 33.890625 58.25 32.234375 64.0625 
Q 30.859375 57.171875 28.375 50.390625 
z
" id="ArialMT-65"/>
      <path d="M 40.578125 0 
L 40.578125 7.625 
Q 34.515625 -1.171875 24.125 -1.171875 
Q 19.53125 -1.171875 15.546875 0.578125 
Q 11.578125 2.34375 9.640625 5 
Q 7.71875 7.671875 6.9375 11.53125 
Q 6.390625 14.109375 6.390625 19.734375 
L 6.390625 51.859375 
L 15.1875 51.859375 
L 15.1875 23.09375 
Q 15.1875 16.21875 15.71875 13.8125 
Q 16.546875 10.359375 19.234375 8.375 
Q 21.921875 6.390625 25.875 6.390625 
Q 29.828125 6.390625 33.296875 8.421875 
Q 36.765625 10.453125 38.203125 13.9375 
Q 39.65625 17.4375 39.65625 24.078125 
L 39.65625 51.859375 
L 48.4375 51.859375 
L 48.4375 0 
z
" id="ArialMT-117"/>
     </defs>
     <g style="fill:#262626;" transform="translate(312.740781 179.0325)rotate(-90)scale(0.12 -0.12)">
      <use xlink:href="#ArialMT-65"/>
      <use x="66.699219" xlink:href="#ArialMT-99"/>
      <use x="116.699219" xlink:href="#ArialMT-99"/>
      <use x="166.699219" xlink:href="#ArialMT-117"/>
      <use x="222.314453" xlink:href="#ArialMT-114"/>
      <use x="255.615234" xlink:href="#ArialMT-97"/>
      <use x="311.230469" xlink:href="#ArialMT-99"/>
      <use x="361.230469" xlink:href="#ArialMT-121"/>
     </g>
    </g>
   </g>
   <g id="line2d_18">
    <path clip-path="url(#p00387bc109)" d="M 34.287106 30.760278 
L 36.782806 49.441616 
L 39.278506 71.884951 
L 41.774206 68.380188 
L 44.269906 52.110384 
L 46.765606 53.52515 
L 49.261306 45.96901 
L 51.757006 40.824406 
L 54.252706 37.576873 
L 56.748406 34.554422 
L 59.244106 32.914576 
L 61.739806 31.982121 
L 64.235506 30.985358 
L 66.731206 30.599513 
L 69.226906 30.213665 
L 71.722606 29.892125 
L 74.218306 29.859969 
L 76.714006 29.827816 
L 79.209706 29.731354 
L 81.705406 29.699201 
L 84.201106 29.667048 
L 86.696806 29.76351 
L 89.192506 29.859973 
L 91.688206 29.827816 
L 94.183906 29.795659 
L 96.679606 29.82782 
L 99.175306 29.731354 
L 101.671006 29.795659 
L 104.166706 29.795667 
L 106.662406 29.76351 
L 109.158106 29.859973 
L 111.653806 29.827816 
L 114.149506 29.859973 
L 116.645206 29.699201 
L 119.140906 29.82782 
L 121.636606 29.602739 
L 124.132306 29.76351 
L 126.628006 29.699201 
L 129.123706 29.538429 
L 131.619406 29.634892 
L 134.115106 29.602739 
L 136.610806 29.634892 
L 139.106506 29.602739 
L 141.602206 29.570586 
L 144.097906 29.602739 
L 146.593606 29.602739 
L 149.089306 29.602739 
L 151.585006 29.538433 
L 154.080706 29.634892 
L 156.576406 29.538429 
L 159.072106 29.570582 
L 161.567806 29.634892 
L 164.063506 29.602739 
L 166.559206 29.634895 
L 169.054906 29.570582 
L 171.550606 29.538429 
L 174.046306 29.602739 
L 176.542006 29.602739 
L 179.037706 29.570586 
L 181.533406 29.602739 
L 184.029106 29.570586 
L 186.524806 29.538429 
L 189.020506 29.506277 
L 191.516206 29.538429 
L 194.011906 29.474124 
L 196.507606 29.602739 
L 199.003306 29.50628 
L 201.499006 29.506277 
L 203.994706 29.506277 
L 206.490406 29.634895 
L 208.986106 29.441971 
L 211.481806 29.506277 
L 213.977506 29.602739 
L 216.473206 29.409818 
L 218.968906 29.538433 
L 221.464606 29.474124 
L 223.960306 29.570586 
L 226.456006 29.474124 
L 228.951706 29.506277 
L 231.447406 29.506277 
L 233.943106 29.474124 
L 236.438806 29.441971 
L 238.934506 29.602739 
L 241.430206 29.602743 
L 243.925906 29.474124 
L 246.421606 29.538429 
L 248.917306 29.409818 
L 251.413006 29.538429 
L 253.908706 29.506277 
L 256.404406 29.506277 
L 258.900106 29.570582 
L 261.395806 29.538433 
L 263.891506 29.602743 
L 266.387206 29.538433 
L 268.882906 29.441971 
L 271.378606 29.409818 
L 273.874306 29.634895 
L 276.370006 29.570586 
L 278.865706 29.634895 
L 281.361406 29.441971 
" style="fill:none;stroke:#1f77b4;stroke-dasharray:7.4,3.2;stroke-dashoffset:0;stroke-width:2;"/>
   </g>
   <g id="line2d_19">
    <path clip-path="url(#p00387bc109)" d="M 34.287106 21.885837 
L 36.782806 21.853684 
L 39.278506 22.014452 
L 41.774206 21.982299 
L 44.269906 21.917994 
L 46.765606 21.789375 
L 49.261306 21.821528 
L 51.757006 21.885837 
L 54.252706 21.789375 
L 56.748406 21.789375 
L 59.244106 21.789375 
L 61.739806 21.789375 
L 64.235506 21.789375 
L 66.731206 21.821528 
L 69.226906 21.789375 
L 71.722606 21.789375 
L 74.218306 21.789375 
L 76.714006 21.789375 
L 79.209706 21.789375 
L 81.705406 21.789375 
L 84.201106 21.789375 
L 86.696806 21.789375 
L 89.192506 21.789375 
L 91.688206 21.789375 
L 94.183906 21.789375 
L 96.679606 21.789375 
L 99.175306 21.789375 
L 101.671006 21.789375 
L 104.166706 21.789375 
L 106.662406 21.789375 
L 109.158106 21.789375 
L 111.653806 21.789375 
L 114.149506 21.789375 
L 116.645206 21.789375 
L 119.140906 21.789375 
L 121.636606 21.789375 
L 124.132306 21.789375 
L 126.628006 21.821528 
L 129.123706 21.789375 
L 131.619406 21.789375 
L 134.115106 21.789375 
L 136.610806 21.789375 
L 139.106506 21.789375 
L 141.602206 21.821528 
L 144.097906 21.885837 
L 146.593606 21.821528 
L 149.089306 21.789375 
L 151.585006 21.789375 
L 154.080706 21.789375 
L 156.576406 21.821528 
L 159.072106 21.821528 
L 161.567806 22.239529 
L 164.063506 22.207376 
L 166.559206 23.043372 
L 169.054906 25.197673 
L 171.550606 24.651061 
L 174.046306 22.528912 
L 176.542006 22.432454 
L 179.037706 22.046609 
L 181.533406 21.853681 
L 184.029106 21.789375 
L 186.524806 21.789375 
L 189.020506 21.789375 
L 191.516206 21.789375 
L 194.011906 21.789375 
L 196.507606 21.789375 
L 199.003306 21.789375 
L 201.499006 21.789375 
L 203.994706 21.789375 
L 206.490406 21.789375 
L 208.986106 24.425989 
L 211.481806 32.014274 
L 213.977506 31.403354 
L 216.473206 29.34551 
L 218.968906 29.506279 
L 221.464606 27.705668 
L 223.960306 29.377667 
L 226.456006 25.93721 
L 228.951706 26.901826 
L 231.447406 27.769976 
L 233.943106 26.355209 
L 236.438806 29.345514 
L 238.934506 28.027206 
L 241.430206 28.863201 
L 243.925906 26.77321 
L 246.421606 25.422749 
L 248.917306 27.76997 
L 251.413006 25.036907 
L 253.908706 28.123666 
L 256.404406 27.705669 
L 258.900106 27.287666 
L 261.395806 26.097982 
L 263.891506 24.651066 
L 266.387206 24.972595 
L 268.882906 24.90829 
L 271.378606 27.223362 
L 273.874306 26.966128 
L 276.370006 24.683216 
L 278.865706 24.361679 
L 281.361406 25.32629 
" style="fill:none;stroke:#1f77b4;stroke-linecap:round;stroke-width:2;"/>
   </g>
   <g id="line2d_20">
    <path clip-path="url(#p00387bc109)" d="M 56.748406 286.929375 
L 56.748406 21.789375 
" style="fill:none;stroke:#7f7f7f;stroke-dasharray:2,3.3;stroke-dashoffset:0;stroke-width:2;"/>
   </g>
   <g id="line2d_21">
    <path clip-path="url(#p00387bc109)" d="M 106.662406 286.929375 
L 106.662406 21.789375 
" style="fill:none;stroke:#7f7f7f;stroke-dasharray:2,3.3;stroke-dashoffset:0;stroke-width:2;"/>
   </g>
   <g id="line2d_22">
    <path clip-path="url(#p00387bc109)" d="M 34.287106 29.482261 
L 36.782806 26.787431 
L 39.278506 26.64311 
L 41.774206 26.359531 
L 44.269906 26.351092 
L 46.765606 27.625504 
L 49.261306 33.270893 
L 51.757006 27.096328 
L 54.252706 26.676025 
L 56.748406 26.519045 
L 59.244106 29.207125 
L 61.739806 29.945607 
L 64.235506 27.265968 
L 66.731206 26.775615 
L 69.226906 26.54352 
L 71.722606 26.378943 
L 74.218306 26.243907 
L 76.714006 29.011321 
L 79.209706 31.566051 
L 81.705406 32.701205 
L 84.201106 27.808647 
L 86.696806 27.139371 
L 89.192506 26.800934 
L 91.688206 26.545208 
L 94.183906 26.54774 
L 96.679606 26.439711 
L 99.175306 28.451761 
L 101.671006 28.42391 
L 104.166706 27.232209 
L 106.662406 27.239805 
L 109.158106 26.56462 
L 111.653806 26.598378 
L 114.149506 35.192637 
L 116.645206 55.070077 
L 119.140906 35.204453 
L 121.636606 36.964153 
L 124.132306 65.867126 
L 126.628006 53.252142 
L 129.123706 41.37733 
L 131.619406 63.417892 
L 134.115106 54.37126 
L 136.610806 45.133044 
L 139.106506 35.185885 
L 141.602206 31.335643 
L 144.097906 31.628506 
L 146.593606 29.98443 
L 149.089306 28.780914 
L 151.585006 28.736183 
L 154.080706 40.382276 
L 156.576406 38.376977 
L 159.072106 31.106081 
L 161.567806 41.34357 
L 164.063506 30.70519 
L 166.559206 29.025668 
L 169.054906 28.285497 
L 171.550606 32.591488 
L 174.046306 34.045666 
L 176.542006 28.623933 
L 179.037706 28.656848 
L 181.533406 28.542067 
L 184.029106 59.737292 
L 186.524806 38.40314 
L 189.020506 33.276799 
L 191.516206 41.89891 
L 194.011906 30.375193 
L 196.507606 36.545539 
L 199.003306 28.255957 
L 201.499006 29.581851 
L 203.994706 28.141176 
L 206.490406 27.86435 
L 208.986106 26.979014 
L 211.481806 27.045689 
L 213.977506 26.953695 
L 216.473206 28.261865 
L 218.968906 28.495648 
L 221.464606 28.569075 
L 223.960306 27.290443 
L 226.456006 26.820346 
L 228.951706 26.668429 
L 231.447406 36.275464 
L 233.943106 32.112106 
L 236.438806 39.891078 
L 238.934506 29.215564 
L 241.430206 28.441633 
L 243.925906 27.833123 
L 246.421606 29.428247 
L 248.917306 31.62091 
L 251.413006 27.329266 
L 253.908706 29.546405 
L 256.404406 28.455138 
L 258.900106 27.371466 
L 261.395806 33.797536 
L 263.891506 27.046533 
L 266.387206 27.049909 
L 268.882906 26.729196 
L 271.378606 26.861701 
L 273.874306 26.469249 
L 276.370006 26.962135 
L 278.865706 38.571937 
L 281.361406 28.06353 
" style="fill:none;stroke:#ff7f0e;stroke-dasharray:7.4,3.2;stroke-dashoffset:0;stroke-width:2;"/>
   </g>
   <g id="line2d_23">
    <path clip-path="url(#p00387bc109)" d="M 34.287106 22.248502 
L 36.782806 22.002058 
L 39.278506 22.395353 
L 41.774206 23.227519 
L 44.269906 22.403794 
L 46.765606 22.155663 
L 49.261306 22.115152 
L 51.757006 22.02991 
L 54.252706 22.240062 
L 56.748406 22.278041 
L 59.244106 25.279237 
L 61.739806 24.463951 
L 64.235506 23.205576 
L 66.731206 23.10683 
L 69.226906 22.776834 
L 71.722606 22.050166 
L 74.218306 22.173387 
L 76.714006 22.353154 
L 79.209706 23.26803 
L 81.705406 25.575474 
L 84.201106 24.943332 
L 86.696806 22.796245 
L 89.192506 22.635889 
L 91.688206 22.674711 
L 94.183906 23.316981 
L 96.679606 22.567526 
L 99.175306 22.403794 
L 101.671006 22.099961 
L 104.166706 22.008811 
L 106.662406 21.924412 
L 109.158106 21.897405 
L 111.653806 23.517848 
L 114.149506 22.814813 
L 116.645206 22.150599 
L 119.140906 22.04257 
L 121.636606 22.001214 
L 124.132306 22.445993 
L 126.628006 22.365814 
L 129.123706 22.13372 
L 131.619406 22.076329 
L 134.115106 22.132032 
L 136.610806 22.055229 
L 139.106506 22.022314 
L 141.602206 21.978427 
L 144.097906 24.496022 
L 146.593606 23.04522 
L 149.089306 28.316724 
L 151.585006 30.380257 
L 154.080706 27.973224 
L 156.576406 27.214484 
L 159.072106 25.640461 
L 161.567806 25.568722 
L 164.063506 25.333252 
L 166.559206 25.958641 
L 169.054906 25.382202 
L 171.550606 24.530625 
L 174.046306 23.990477 
L 176.542006 23.792142 
L 179.037706 23.517849 
L 181.533406 24.339042 
L 184.029106 25.62105 
L 186.524806 26.281042 
L 189.020506 24.976247 
L 191.516206 23.144809 
L 194.011906 22.445993 
L 196.507606 22.369191 
L 199.003306 22.424893 
L 201.499006 22.296608 
L 203.994706 22.552334 
L 206.490406 24.250424 
L 208.986106 23.40982 
L 211.481806 22.627449 
L 213.977506 22.345559 
L 216.473206 22.597909 
L 218.968906 22.629137 
L 221.464606 32.231108 
L 223.960306 33.493703 
L 226.456006 36.269557 
L 228.951706 37.28149 
L 231.447406 35.172382 
L 233.943106 32.878442 
L 236.438806 32.359393 
L 238.934506 30.922938 
L 241.430206 36.810548 
L 243.925906 31.101861 
L 246.421606 28.617181 
L 248.917306 27.894733 
L 251.413006 29.662874 
L 253.908706 32.442103 
L 256.404406 28.740402 
L 258.900106 28.548818 
L 261.395806 29.770903 
L 263.891506 29.935479 
L 266.387206 27.574864 
L 268.882906 29.518553 
L 271.378606 27.612 
L 273.874306 26.894616 
L 276.370006 26.218588 
L 278.865706 25.387266 
L 281.361406 28.183375 
" style="fill:none;stroke:#ff7f0e;stroke-linecap:round;stroke-width:2;"/>
   </g>
   <g id="line2d_24">
    <path clip-path="url(#p00387bc109)" d="M 56.748406 286.929375 
L 56.748406 21.789375 
" style="fill:none;stroke:#7f7f7f;stroke-dasharray:2,3.3;stroke-dashoffset:0;stroke-width:2;"/>
   </g>
   <g id="line2d_25">
    <path clip-path="url(#p00387bc109)" d="M 106.662406 286.929375 
L 106.662406 21.789375 
" style="fill:none;stroke:#7f7f7f;stroke-dasharray:2,3.3;stroke-dashoffset:0;stroke-width:2;"/>
   </g>
   <g id="line2d_26">
    <path clip-path="url(#p00387bc109)" d="M 34.287106 28.560651 
L 36.782806 26.423792 
L 39.278506 26.052165 
L 41.774206 25.789839 
L 44.269906 25.677805 
L 46.765606 25.59856 
L 49.261306 25.552106 
L 51.757006 25.475594 
L 54.252706 25.475594 
L 56.748406 25.459199 
L 59.244106 25.483792 
L 61.739806 25.508385 
L 64.235506 25.563036 
L 66.731206 25.489258 
L 69.226906 25.461932 
L 71.722606 25.557571 
L 74.218306 25.625886 
L 76.714006 25.702397 
L 79.209706 36.747392 
L 81.705406 28.6235 
L 84.201106 27.596058 
L 86.696806 34.932974 
L 89.192506 27.568733 
L 91.688206 26.453851 
L 94.183906 25.937397 
L 96.679606 26.123211 
L 99.175306 25.986582 
L 101.671006 25.860886 
L 104.166706 25.557572 
L 106.662406 25.524781 
L 109.158106 25.456467 
L 111.653806 25.451001 
L 114.149506 25.448269 
L 116.645206 25.437339 
L 119.140906 25.442804 
L 121.636606 25.423676 
L 124.132306 25.440072 
L 126.628006 25.511117 
L 129.123706 36.545183 
L 131.619406 27.038618 
L 134.115106 26.19699 
L 136.610806 25.959257 
L 139.106506 25.795304 
L 141.602206 25.579431 
L 144.097906 25.475594 
L 146.593606 25.445536 
L 149.089306 25.470129 
L 151.585006 25.461932 
L 154.080706 25.388152 
L 156.576406 25.470129 
L 159.072106 25.453734 
L 161.567806 25.39635 
L 164.063506 25.396351 
L 166.559206 25.456467 
L 169.054906 25.453734 
L 171.550606 25.448269 
L 174.046306 25.653211 
L 176.542006 26.158733 
L 179.037706 25.841757 
L 181.533406 25.776176 
L 184.029106 41.198727 
L 186.524806 28.005942 
L 189.020506 27.882978 
L 191.516206 27.087804 
L 194.011906 27.033151 
L 196.507606 27.418442 
L 199.003306 26.166932 
L 201.499006 25.776176 
L 203.994706 25.590363 
L 206.490406 25.524781 
L 208.986106 25.50292 
L 211.481806 25.565769 
L 213.977506 25.494723 
L 216.473206 25.464664 
L 218.968906 25.456467 
L 221.464606 25.440071 
L 223.960306 25.448269 
L 226.456006 25.464664 
L 228.951706 25.459199 
L 231.447406 25.429141 
L 233.943106 25.440072 
L 236.438806 40.551111 
L 238.934506 49.934712 
L 241.430206 36.736462 
L 243.925906 31.498149 
L 246.421606 34.028498 
L 248.917306 28.776523 
L 251.413006 25.399083 
L 253.908706 25.087571 
L 256.404406 25.019257 
L 258.900106 24.877165 
L 261.395806 25.322572 
L 263.891506 24.500072 
L 266.387206 25.191408 
L 268.882906 24.603909 
L 271.378606 25.103968 
L 273.874306 24.901758 
L 276.370006 24.814315 
L 278.865706 25.440072 
L 281.361406 25.328036 
" style="fill:none;stroke:#2ca02c;stroke-dasharray:7.4,3.2;stroke-dashoffset:0;stroke-width:2;"/>
   </g>
   <g id="line2d_27">
    <path clip-path="url(#p00387bc109)" d="M 34.287106 22.043504 
L 36.782806 21.97519 
L 39.278506 22.13641 
L 41.774206 22.259376 
L 44.269906 21.964259 
L 46.765606 21.863154 
L 49.261306 21.915073 
L 51.757006 21.994316 
L 54.252706 21.983387 
L 56.748406 21.920538 
L 59.244106 21.860422 
L 61.739806 21.860422 
L 64.235506 21.857689 
L 66.731206 21.865887 
L 69.226906 21.90141 
L 71.722606 22.035305 
L 74.218306 22.079027 
L 76.714006 22.103619 
L 79.209706 22.111817 
L 81.705406 21.983387 
L 84.201106 21.945132 
L 86.696806 21.931468 
L 89.192506 22.122748 
L 91.688206 22.035306 
L 94.183906 22.024375 
L 96.679606 22.054434 
L 99.175306 22.251178 
L 101.671006 22.084492 
L 104.166706 22.100887 
L 106.662406 23.863385 
L 109.158106 29.156349 
L 111.653806 24.461817 
L 114.149506 23.510886 
L 116.645206 22.931584 
L 119.140906 22.439725 
L 121.636606 22.365945 
L 124.132306 22.259375 
L 126.628006 22.278503 
L 129.123706 22.24298 
L 131.619406 22.322224 
L 134.115106 22.182864 
L 136.610806 22.13641 
L 139.106506 22.027108 
L 141.602206 21.947864 
L 144.097906 21.871353 
L 146.593606 21.882282 
L 149.089306 21.854957 
L 151.585006 21.852224 
L 154.080706 21.833097 
L 156.576406 21.844026 
L 159.072106 21.841294 
L 161.567806 21.854957 
L 164.063506 21.865887 
L 166.559206 21.876817 
L 169.054906 21.898677 
L 171.550606 21.947864 
L 174.046306 21.898678 
L 176.542006 21.876817 
L 179.037706 22.010714 
L 181.533406 22.103619 
L 184.029106 22.14734 
L 186.524806 23.111932 
L 189.020506 22.521701 
L 191.516206 22.292167 
L 194.011906 22.24298 
L 196.507606 22.212922 
L 199.003306 22.016177 
L 201.499006 22.046236 
L 203.994706 22.013446 
L 206.490406 21.874085 
L 208.986106 21.833096 
L 211.481806 21.824898 
L 213.977506 21.830363 
L 216.473206 21.824898 
L 218.968906 21.808503 
L 221.464606 21.813968 
L 223.960306 21.827631 
L 226.456006 21.822166 
L 228.951706 21.816701 
L 231.447406 21.849492 
L 233.943106 21.816701 
L 236.438806 21.803038 
L 238.934506 21.838561 
L 241.430206 21.969724 
L 243.925906 22.051701 
L 246.421606 22.234782 
L 248.917306 22.24298 
L 251.413006 22.087224 
L 253.908706 24.43449 
L 256.404406 30.306755 
L 258.900106 26.371873 
L 261.395806 23.475363 
L 263.891506 23.221235 
L 266.387206 22.901526 
L 268.882906 22.535363 
L 271.378606 22.248445 
L 273.874306 22.316759 
L 276.370006 22.095421 
L 278.865706 21.98612 
L 281.361406 21.947864 
" style="fill:none;stroke:#2ca02c;stroke-linecap:round;stroke-width:2;"/>
   </g>
   <g id="line2d_28">
    <path clip-path="url(#p00387bc109)" d="M 56.748406 286.929375 
L 56.748406 21.789375 
" style="fill:none;stroke:#7f7f7f;stroke-dasharray:2,3.3;stroke-dashoffset:0;stroke-width:2;"/>
   </g>
   <g id="line2d_29">
    <path clip-path="url(#p00387bc109)" d="M 106.662406 286.929375 
L 106.662406 21.789375 
" style="fill:none;stroke:#7f7f7f;stroke-dasharray:2,3.3;stroke-dashoffset:0;stroke-width:2;"/>
   </g>
   <g id="line2d_30">
    <path clip-path="url(#p00387bc109)" d="M 34.287106 45.175721 
L 36.782806 41.657691 
L 39.278506 32.220205 
L 41.774206 31.326921 
L 44.269906 30.02905 
L 46.765606 29.592559 
L 49.261306 29.486698 
L 51.757006 30.178414 
L 54.252706 29.469298 
L 56.748406 29.196672 
L 59.244106 28.810935 
L 61.739806 28.945797 
L 64.235506 27.995958 
L 66.731206 28.477402 
L 69.226906 28.193177 
L 71.722606 28.905193 
L 74.218306 28.968999 
L 76.714006 27.788588 
L 79.209706 28.165624 
L 81.705406 28.333839 
L 84.201106 28.082967 
L 86.696806 28.316439 
L 89.192506 28.120669 
L 91.688206 28.156923 
L 94.183906 27.997407 
L 96.679606 27.935053 
L 99.175306 28.02206 
L 101.671006 28.087316 
L 104.166706 30.920882 
L 106.662406 36.588014 
L 109.158106 33.006179 
L 111.653806 31.802566 
L 114.149506 29.359087 
L 116.645206 29.228574 
L 119.140906 28.813835 
L 121.636606 28.55281 
L 124.132306 30.221918 
L 126.628006 29.048757 
L 129.123706 28.696374 
L 131.619406 28.632568 
L 134.115106 28.435349 
L 136.610806 28.580363 
L 139.106506 28.4484 
L 141.602206 28.388945 
L 144.097906 28.383144 
L 146.593606 30.45829 
L 149.089306 30.723664 
L 151.585006 34.225743 
L 154.080706 31.863471 
L 156.576406 30.498893 
L 159.072106 29.386638 
L 161.567806 29.530203 
L 164.063506 28.832687 
L 166.559206 28.793533 
L 169.054906 28.388945 
L 171.550606 28.602115 
L 174.046306 28.429549 
L 176.542006 28.223629 
L 179.037706 28.312088 
L 181.533406 28.155473 
L 184.029106 28.156923 
L 186.524806 28.320788 
L 189.020506 28.451301 
L 191.516206 28.378794 
L 194.011906 28.4426 
L 196.507606 28.068464 
L 199.003306 28.348341 
L 201.499006 28.236681 
L 203.994706 29.219874 
L 206.490406 30.47134 
L 208.986106 36.367594 
L 211.481806 31.306618 
L 213.977506 29.415641 
L 216.473206 28.694923 
L 218.968906 28.98205 
L 221.464606 28.683322 
L 223.960306 28.851538 
L 226.456006 28.535409 
L 228.951706 28.299036 
L 231.447406 28.122119 
L 233.943106 28.152572 
L 236.438806 28.275834 
L 238.934506 28.329489 
L 241.430206 28.406346 
L 243.925906 28.484654 
L 246.421606 28.051063 
L 248.917306 28.299036 
L 251.413006 28.103268 
L 253.908706 36.891093 
L 256.404406 30.378532 
L 258.900106 29.053107 
L 261.395806 28.889242 
L 263.891506 28.573112 
L 266.387206 28.496255 
L 268.882906 28.490455 
L 271.378606 28.429549 
L 273.874306 28.059764 
L 276.370006 28.531058 
L 278.865706 28.285985 
L 281.361406 28.223629 
" style="fill:none;stroke:#d62728;stroke-dasharray:7.4,3.2;stroke-dashoffset:0;stroke-width:2;"/>
   </g>
   <g id="line2d_31">
    <path clip-path="url(#p00387bc109)" d="M 34.287106 22.188163 
L 36.782806 22.752267 
L 39.278506 24.50403 
L 41.774206 23.815216 
L 44.269906 23.248213 
L 46.765606 22.79577 
L 49.261306 22.731964 
L 51.757006 22.514443 
L 54.252706 23.101748 
L 56.748406 22.5826 
L 59.244106 22.58115 
L 61.739806 22.337527 
L 64.235506 22.37233 
L 66.731206 22.469489 
L 69.226906 22.427435 
L 71.722606 22.934984 
L 74.218306 23.133652 
L 76.714006 23.091598 
L 79.209706 22.659457 
L 81.705406 22.550697 
L 84.201106 22.446287 
L 86.696806 22.299822 
L 89.192506 22.353478 
L 91.688206 22.307073 
L 94.183906 22.153359 
L 96.679606 22.109855 
L 99.175306 22.047499 
L 101.671006 22.093903 
L 104.166706 21.912637 
L 106.662406 21.911187 
L 109.158106 21.901035 
L 111.653806 22.117106 
L 114.149506 22.427436 
L 116.645206 22.533296 
L 119.140906 22.401333 
L 121.636606 22.507193 
L 124.132306 22.90308 
L 126.628006 23.149604 
L 129.123706 24.460527 
L 131.619406 23.309118 
L 134.115106 22.544897 
L 136.610806 22.460788 
L 139.106506 27.623273 
L 141.602206 28.921145 
L 144.097906 27.240437 
L 146.593606 24.941971 
L 149.089306 23.191657 
L 151.585006 25.495923 
L 154.080706 26.664733 
L 156.576406 26.658932 
L 159.072106 25.635136 
L 161.567806 26.466064 
L 164.063506 25.100036 
L 166.559206 24.927469 
L 169.054906 23.96893 
L 171.550606 24.185001 
L 174.046306 23.275765 
L 176.542006 23.035042 
L 179.037706 22.89583 
L 181.533406 22.48254 
L 184.029106 22.820422 
L 186.524806 22.866827 
L 189.020506 22.576799 
L 191.516206 23.243862 
L 194.011906 26.716937 
L 196.507606 26.055676 
L 199.003306 31.226861 
L 201.499006 30.487291 
L 203.994706 27.192581 
L 206.490406 25.617734 
L 208.986106 26.605277 
L 211.481806 25.722144 
L 213.977506 24.583787 
L 216.473206 23.776061 
L 218.968906 23.285916 
L 221.464606 23.203258 
L 223.960306 23.280115 
L 226.456006 23.271415 
L 228.951706 23.187308 
L 231.447406 24.885416 
L 233.943106 42.303002 
L 236.438806 36.482155 
L 238.934506 31.930178 
L 241.430206 30.507594 
L 243.925906 32.681349 
L 246.421606 28.751479 
L 248.917306 26.793794 
L 251.413006 25.743896 
L 253.908706 25.288553 
L 256.404406 25.033331 
L 258.900106 24.316963 
L 261.395806 24.193701 
L 263.891506 23.594796 
L 266.387206 23.351173 
L 268.882906 23.341021 
L 271.378606 23.055344 
L 273.874306 24.063188 
L 276.370006 26.727089 
L 278.865706 26.312349 
L 281.361406 26.690836 
" style="fill:none;stroke:#d62728;stroke-linecap:round;stroke-width:2;"/>
   </g>
   <g id="line2d_32">
    <path clip-path="url(#p00387bc109)" d="M 56.748406 286.929375 
L 56.748406 21.789375 
" style="fill:none;stroke:#7f7f7f;stroke-dasharray:2,3.3;stroke-dashoffset:0;stroke-width:2;"/>
   </g>
   <g id="line2d_33">
    <path clip-path="url(#p00387bc109)" d="M 106.662406 286.929375 
L 106.662406 21.789375 
" style="fill:none;stroke:#7f7f7f;stroke-dasharray:2,3.3;stroke-dashoffset:0;stroke-width:2;"/>
   </g>
   <g id="patch_7">
    <path d="M 31.791406 286.929375 
L 31.791406 21.789375 
" style="fill:none;stroke:#262626;stroke-linecap:square;stroke-linejoin:miter;stroke-width:1.25;"/>
   </g>
   <g id="patch_8">
    <path d="M 281.361406 286.929375 
L 281.361406 21.789375 
" style="fill:none;stroke:#262626;stroke-linecap:square;stroke-linejoin:miter;stroke-width:1.25;"/>
   </g>
   <g id="patch_9">
    <path d="M 31.791406 286.929375 
L 281.361406 286.929375 
" style="fill:none;stroke:#262626;stroke-linecap:square;stroke-linejoin:miter;stroke-width:1.25;"/>
   </g>
   <g id="patch_10">
    <path d="M 31.791406 21.789375 
L 281.361406 21.789375 
" style="fill:none;stroke:#262626;stroke-linecap:square;stroke-linejoin:miter;stroke-width:1.25;"/>
   </g>
   <g id="legend_1">
    <g id="patch_11">
     <path d="M 164.781719 241.040625 
L 276.361406 241.040625 
L 276.361406 67.678125 
L 164.781719 67.678125 
z
" style="fill:#ffffff;opacity:0.8;stroke:#cccccc;stroke-linejoin:miter;"/>
    </g>
    <g id="line2d_34">
     <path d="M 168.781719 75.335937 
L 188.781719 75.335937 
" style="fill:none;stroke:#1f77b4;stroke-dasharray:2,3.3;stroke-dashoffset:0;stroke-width:2;"/>
    </g>
    <g id="line2d_35"/>
    <g id="text_29">
     <!--    qspr thermal -->
     <defs>
      <path id="Arial-BoldMT-32"/>
      <path d="M 41.0625 -19.734375 
L 41.0625 6.34375 
Q 38.375 2.875 34.375 0.84375 
Q 30.375 -1.171875 25.734375 -1.171875 
Q 16.890625 -1.171875 11.1875 5.46875 
Q 4.4375 13.234375 4.4375 26.515625 
Q 4.4375 39.015625 10.765625 46.015625 
Q 17.09375 53.03125 26.46875 53.03125 
Q 31.640625 53.03125 35.421875 50.828125 
Q 39.203125 48.640625 42.140625 44.1875 
L 42.140625 51.859375 
L 54.78125 51.859375 
L 54.78125 -19.734375 
z
M 41.5 26.5625 
Q 41.5 34.515625 38.25 38.390625 
Q 35.015625 42.28125 30.125 42.28125 
Q 25.140625 42.28125 21.796875 38.328125 
Q 18.453125 34.375 18.453125 25.78125 
Q 18.453125 17.234375 21.671875 13.453125 
Q 24.90625 9.671875 29.640625 9.671875 
Q 34.375 9.671875 37.9375 13.921875 
Q 41.5 18.171875 41.5 26.5625 
z
" id="Arial-BoldMT-113"/>
      <path d="M 2.34375 14.796875 
L 16.109375 16.890625 
Q 17 12.890625 19.671875 10.8125 
Q 22.359375 8.734375 27.203125 8.734375 
Q 32.515625 8.734375 35.203125 10.6875 
Q 37.015625 12.0625 37.015625 14.359375 
Q 37.015625 15.921875 36.03125 16.9375 
Q 35.015625 17.921875 31.453125 18.75 
Q 14.84375 22.40625 10.40625 25.4375 
Q 4.25 29.640625 4.25 37.109375 
Q 4.25 43.84375 9.5625 48.4375 
Q 14.890625 53.03125 26.078125 53.03125 
Q 36.71875 53.03125 41.890625 49.5625 
Q 47.078125 46.09375 49.03125 39.3125 
L 36.078125 36.921875 
Q 35.25 39.9375 32.921875 41.546875 
Q 30.609375 43.171875 26.3125 43.171875 
Q 20.90625 43.171875 18.5625 41.65625 
Q 17 40.578125 17 38.875 
Q 17 37.40625 18.359375 36.375 
Q 20.21875 35.015625 31.171875 32.515625 
Q 42.140625 30.03125 46.484375 26.421875 
Q 50.78125 22.75 50.78125 16.21875 
Q 50.78125 9.078125 44.828125 3.953125 
Q 38.875 -1.171875 27.203125 -1.171875 
Q 16.609375 -1.171875 10.421875 3.125 
Q 4.25 7.421875 2.34375 14.796875 
z
" id="Arial-BoldMT-115"/>
      <path d="M 6.78125 51.859375 
L 19.578125 51.859375 
L 19.578125 44.234375 
Q 22.078125 48.140625 26.3125 50.578125 
Q 30.5625 53.03125 35.75 53.03125 
Q 44.78125 53.03125 51.078125 45.953125 
Q 57.375 38.875 57.375 26.21875 
Q 57.375 13.234375 51.015625 6.03125 
Q 44.671875 -1.171875 35.640625 -1.171875 
Q 31.34375 -1.171875 27.84375 0.53125 
Q 24.359375 2.25 20.515625 6.390625 
L 20.515625 -19.734375 
L 6.78125 -19.734375 
z
M 20.359375 26.8125 
Q 20.359375 18.0625 23.828125 13.890625 
Q 27.296875 9.71875 32.28125 9.71875 
Q 37.0625 9.71875 40.234375 13.546875 
Q 43.40625 17.390625 43.40625 26.125 
Q 43.40625 34.28125 40.125 38.234375 
Q 36.859375 42.1875 32.03125 42.1875 
Q 27 42.1875 23.671875 38.296875 
Q 20.359375 34.421875 20.359375 26.8125 
z
" id="Arial-BoldMT-112"/>
      <path d="M 20.3125 0 
L 6.59375 0 
L 6.59375 51.859375 
L 19.34375 51.859375 
L 19.34375 44.484375 
Q 22.609375 49.703125 25.21875 51.359375 
Q 27.828125 53.03125 31.15625 53.03125 
Q 35.84375 53.03125 40.1875 50.4375 
L 35.9375 38.484375 
Q 32.46875 40.71875 29.5 40.71875 
Q 26.609375 40.71875 24.609375 39.125 
Q 22.609375 37.546875 21.453125 33.390625 
Q 20.3125 29.25 20.3125 16.015625 
z
" id="Arial-BoldMT-114"/>
      <path d="M 30.953125 51.859375 
L 30.953125 40.921875 
L 21.578125 40.921875 
L 21.578125 20.015625 
Q 21.578125 13.671875 21.84375 12.625 
Q 22.125 11.578125 23.078125 10.890625 
Q 24.03125 10.203125 25.390625 10.203125 
Q 27.296875 10.203125 30.90625 11.53125 
L 32.078125 0.875 
Q 27.296875 -1.171875 21.234375 -1.171875 
Q 17.53125 -1.171875 14.546875 0.0625 
Q 11.578125 1.3125 10.1875 3.296875 
Q 8.796875 5.28125 8.25 8.640625 
Q 7.8125 11.03125 7.8125 18.3125 
L 7.8125 40.921875 
L 1.515625 40.921875 
L 1.515625 51.859375 
L 7.8125 51.859375 
L 7.8125 62.15625 
L 21.578125 70.171875 
L 21.578125 51.859375 
z
" id="Arial-BoldMT-116"/>
      <path d="M 20.84375 71.578125 
L 20.84375 45.265625 
Q 27.484375 53.03125 36.71875 53.03125 
Q 41.453125 53.03125 45.265625 51.265625 
Q 49.078125 49.515625 51 46.78125 
Q 52.9375 44.046875 53.640625 40.71875 
Q 54.34375 37.40625 54.34375 30.421875 
L 54.34375 0 
L 40.625 0 
L 40.625 27.390625 
Q 40.625 35.546875 39.84375 37.734375 
Q 39.0625 39.9375 37.078125 41.234375 
Q 35.109375 42.53125 32.125 42.53125 
Q 28.71875 42.53125 26.03125 40.859375 
Q 23.34375 39.203125 22.09375 35.859375 
Q 20.84375 32.515625 20.84375 25.984375 
L 20.84375 0 
L 7.125 0 
L 7.125 71.578125 
z
" id="Arial-BoldMT-104"/>
      <path d="M 37.203125 16.5 
L 50.875 14.203125 
Q 48.25 6.6875 42.546875 2.75 
Q 36.859375 -1.171875 28.328125 -1.171875 
Q 14.796875 -1.171875 8.296875 7.671875 
Q 3.171875 14.75 3.171875 25.53125 
Q 3.171875 38.421875 9.90625 45.71875 
Q 16.65625 53.03125 26.953125 53.03125 
Q 38.53125 53.03125 45.21875 45.390625 
Q 51.90625 37.75 51.609375 21.96875 
L 17.234375 21.96875 
Q 17.390625 15.875 20.5625 12.46875 
Q 23.734375 9.078125 28.46875 9.078125 
Q 31.6875 9.078125 33.875 10.828125 
Q 36.078125 12.59375 37.203125 16.5 
z
M 37.984375 30.375 
Q 37.84375 36.328125 34.90625 39.421875 
Q 31.984375 42.53125 27.78125 42.53125 
Q 23.296875 42.53125 20.359375 39.265625 
Q 17.4375 35.984375 17.484375 30.375 
z
" id="Arial-BoldMT-101"/>
      <path d="M 6.15625 51.859375 
L 18.796875 51.859375 
L 18.796875 44.78125 
Q 25.59375 53.03125 34.96875 53.03125 
Q 39.9375 53.03125 43.59375 50.96875 
Q 47.265625 48.921875 49.609375 44.78125 
Q 53.03125 48.921875 56.984375 50.96875 
Q 60.9375 53.03125 65.4375 53.03125 
Q 71.140625 53.03125 75.09375 50.703125 
Q 79.046875 48.390625 81 43.890625 
Q 82.421875 40.578125 82.421875 33.15625 
L 82.421875 0 
L 68.703125 0 
L 68.703125 29.640625 
Q 68.703125 37.359375 67.28125 39.59375 
Q 65.375 42.53125 61.421875 42.53125 
Q 58.546875 42.53125 56 40.765625 
Q 53.46875 39.015625 52.34375 35.625 
Q 51.21875 32.234375 51.21875 24.90625 
L 51.21875 0 
L 37.5 0 
L 37.5 28.421875 
Q 37.5 35.984375 36.765625 38.171875 
Q 36.03125 40.375 34.484375 41.453125 
Q 32.953125 42.53125 30.328125 42.53125 
Q 27.15625 42.53125 24.609375 40.8125 
Q 22.078125 39.109375 20.96875 35.890625 
Q 19.875 32.671875 19.875 25.203125 
L 19.875 0 
L 6.15625 0 
z
" id="Arial-BoldMT-109"/>
      <path d="M 17.4375 36.03125 
L 4.984375 38.28125 
Q 7.078125 45.796875 12.203125 49.40625 
Q 17.328125 53.03125 27.4375 53.03125 
Q 36.625 53.03125 41.109375 50.859375 
Q 45.609375 48.6875 47.4375 45.34375 
Q 49.265625 42 49.265625 33.0625 
L 49.125 17.046875 
Q 49.125 10.203125 49.78125 6.953125 
Q 50.4375 3.71875 52.25 0 
L 38.671875 0 
Q 38.140625 1.375 37.359375 4.046875 
Q 37.015625 5.28125 36.859375 5.671875 
Q 33.34375 2.25 29.34375 0.53125 
Q 25.34375 -1.171875 20.796875 -1.171875 
Q 12.796875 -1.171875 8.171875 3.171875 
Q 3.5625 7.515625 3.5625 14.15625 
Q 3.5625 18.5625 5.65625 22 
Q 7.765625 25.4375 11.546875 27.265625 
Q 15.328125 29.109375 22.46875 30.46875 
Q 32.078125 32.28125 35.796875 33.84375 
L 35.796875 35.203125 
Q 35.796875 39.15625 33.84375 40.84375 
Q 31.890625 42.53125 26.46875 42.53125 
Q 22.796875 42.53125 20.75 41.09375 
Q 18.703125 39.65625 17.4375 36.03125 
z
M 35.796875 24.90625 
Q 33.15625 24.03125 27.4375 22.796875 
Q 21.734375 21.578125 19.96875 20.40625 
Q 17.28125 18.5 17.28125 15.578125 
Q 17.28125 12.703125 19.421875 10.59375 
Q 21.578125 8.5 24.90625 8.5 
Q 28.609375 8.5 31.984375 10.9375 
Q 34.46875 12.796875 35.25 15.484375 
Q 35.796875 17.234375 35.796875 22.171875 
z
" id="Arial-BoldMT-97"/>
      <path d="M 7.171875 0 
L 7.171875 71.578125 
L 20.90625 71.578125 
L 20.90625 0 
z
" id="Arial-BoldMT-108"/>
     </defs>
     <g style="fill:#262626;" transform="translate(196.781719 78.835937)scale(0.1 -0.1)">
      <use xlink:href="#Arial-BoldMT-32"/>
      <use x="27.783203" xlink:href="#Arial-BoldMT-32"/>
      <use x="55.566406" xlink:href="#Arial-BoldMT-32"/>
      <use x="83.349609" xlink:href="#Arial-BoldMT-113"/>
      <use x="144.433594" xlink:href="#Arial-BoldMT-115"/>
      <use x="200.048828" xlink:href="#Arial-BoldMT-112"/>
      <use x="261.132812" xlink:href="#Arial-BoldMT-114"/>
      <use x="300.048828" xlink:href="#Arial-BoldMT-32"/>
      <use x="327.832031" xlink:href="#Arial-BoldMT-116"/>
      <use x="361.132812" xlink:href="#Arial-BoldMT-104"/>
      <use x="422.216797" xlink:href="#Arial-BoldMT-101"/>
      <use x="477.832031" xlink:href="#Arial-BoldMT-114"/>
      <use x="516.748047" xlink:href="#Arial-BoldMT-109"/>
      <use x="605.664062" xlink:href="#Arial-BoldMT-97"/>
      <use x="661.279297" xlink:href="#Arial-BoldMT-108"/>
     </g>
    </g>
    <g id="line2d_36">
     <path d="M 168.781719 89.467187 
L 188.781719 89.467187 
" style="fill:none;stroke:#ff7f0e;stroke-dasharray:2,3.3;stroke-dashoffset:0;stroke-width:2;"/>
    </g>
    <g id="line2d_37"/>
    <g id="text_30">
     <!--    qspr density -->
     <defs>
      <path d="M 54.734375 0 
L 42 0 
L 42 7.625 
Q 38.8125 3.171875 34.484375 1 
Q 30.171875 -1.171875 25.78125 -1.171875 
Q 16.84375 -1.171875 10.46875 6.03125 
Q 4.109375 13.234375 4.109375 26.125 
Q 4.109375 39.3125 10.296875 46.171875 
Q 16.5 53.03125 25.984375 53.03125 
Q 34.671875 53.03125 41.015625 45.796875 
L 41.015625 71.578125 
L 54.734375 71.578125 
z
M 18.109375 27.046875 
Q 18.109375 18.75 20.40625 15.046875 
Q 23.734375 9.671875 29.6875 9.671875 
Q 34.421875 9.671875 37.734375 13.6875 
Q 41.0625 17.71875 41.0625 25.734375 
Q 41.0625 34.671875 37.84375 38.59375 
Q 34.625 42.53125 29.59375 42.53125 
Q 24.703125 42.53125 21.40625 38.640625 
Q 18.109375 34.765625 18.109375 27.046875 
z
" id="Arial-BoldMT-100"/>
      <path d="M 54.34375 0 
L 40.625 0 
L 40.625 26.46875 
Q 40.625 34.859375 39.75 37.328125 
Q 38.875 39.796875 36.890625 41.15625 
Q 34.90625 42.53125 32.125 42.53125 
Q 28.5625 42.53125 25.734375 40.578125 
Q 22.90625 38.625 21.84375 35.390625 
Q 20.796875 32.171875 20.796875 23.484375 
L 20.796875 0 
L 7.078125 0 
L 7.078125 51.859375 
L 19.828125 51.859375 
L 19.828125 44.234375 
Q 26.609375 53.03125 36.921875 53.03125 
Q 41.453125 53.03125 45.203125 51.390625 
Q 48.96875 49.75 50.890625 47.203125 
Q 52.828125 44.671875 53.578125 41.453125 
Q 54.34375 38.234375 54.34375 32.234375 
z
" id="Arial-BoldMT-110"/>
      <path d="M 7.171875 58.890625 
L 7.171875 71.578125 
L 20.90625 71.578125 
L 20.90625 58.890625 
z
M 7.171875 0 
L 7.171875 51.859375 
L 20.90625 51.859375 
L 20.90625 0 
z
" id="Arial-BoldMT-105"/>
      <path d="M 0.6875 51.859375 
L 15.28125 51.859375 
L 27.6875 15.046875 
L 39.796875 51.859375 
L 54 51.859375 
L 35.6875 1.953125 
L 32.421875 -7.078125 
Q 30.609375 -11.625 28.96875 -14.015625 
Q 27.34375 -16.40625 25.21875 -17.890625 
Q 23.09375 -19.390625 19.984375 -20.21875 
Q 16.890625 -21.046875 12.984375 -21.046875 
Q 9.03125 -21.046875 5.21875 -20.21875 
L 4 -9.46875 
Q 7.234375 -10.109375 9.8125 -10.109375 
Q 14.59375 -10.109375 16.890625 -7.296875 
Q 19.1875 -4.5 20.40625 -0.140625 
z
" id="Arial-BoldMT-121"/>
     </defs>
     <g style="fill:#262626;" transform="translate(196.781719 92.967187)scale(0.1 -0.1)">
      <use xlink:href="#Arial-BoldMT-32"/>
      <use x="27.783203" xlink:href="#Arial-BoldMT-32"/>
      <use x="55.566406" xlink:href="#Arial-BoldMT-32"/>
      <use x="83.349609" xlink:href="#Arial-BoldMT-113"/>
      <use x="144.433594" xlink:href="#Arial-BoldMT-115"/>
      <use x="200.048828" xlink:href="#Arial-BoldMT-112"/>
      <use x="261.132812" xlink:href="#Arial-BoldMT-114"/>
      <use x="300.048828" xlink:href="#Arial-BoldMT-32"/>
      <use x="327.832031" xlink:href="#Arial-BoldMT-100"/>
      <use x="388.916016" xlink:href="#Arial-BoldMT-101"/>
      <use x="444.53125" xlink:href="#Arial-BoldMT-110"/>
      <use x="505.615234" xlink:href="#Arial-BoldMT-115"/>
      <use x="561.230469" xlink:href="#Arial-BoldMT-105"/>
      <use x="589.013672" xlink:href="#Arial-BoldMT-116"/>
      <use x="622.314453" xlink:href="#Arial-BoldMT-121"/>
     </g>
    </g>
    <g id="line2d_38">
     <path d="M 168.781719 103.729687 
L 188.781719 103.729687 
" style="fill:none;stroke:#2ca02c;stroke-dasharray:2,3.3;stroke-dashoffset:0;stroke-width:2;"/>
    </g>
    <g id="line2d_39"/>
    <g id="text_31">
     <!--    qspr cpt -->
     <defs>
      <path d="M 52.390625 36.53125 
L 38.875 34.078125 
Q 38.1875 38.140625 35.765625 40.1875 
Q 33.34375 42.234375 29.5 42.234375 
Q 24.359375 42.234375 21.3125 38.6875 
Q 18.265625 35.15625 18.265625 26.859375 
Q 18.265625 17.625 21.359375 13.8125 
Q 24.46875 10.015625 29.6875 10.015625 
Q 33.59375 10.015625 36.078125 12.234375 
Q 38.578125 14.453125 39.59375 19.875 
L 53.078125 17.578125 
Q 50.984375 8.296875 45.015625 3.5625 
Q 39.0625 -1.171875 29.046875 -1.171875 
Q 17.671875 -1.171875 10.90625 6 
Q 4.15625 13.1875 4.15625 25.875 
Q 4.15625 38.71875 10.9375 45.875 
Q 17.71875 53.03125 29.296875 53.03125 
Q 38.765625 53.03125 44.359375 48.953125 
Q 49.953125 44.875 52.390625 36.53125 
z
" id="Arial-BoldMT-99"/>
     </defs>
     <g style="fill:#262626;" transform="translate(196.781719 107.229687)scale(0.1 -0.1)">
      <use xlink:href="#Arial-BoldMT-32"/>
      <use x="27.783203" xlink:href="#Arial-BoldMT-32"/>
      <use x="55.566406" xlink:href="#Arial-BoldMT-32"/>
      <use x="83.349609" xlink:href="#Arial-BoldMT-113"/>
      <use x="144.433594" xlink:href="#Arial-BoldMT-115"/>
      <use x="200.048828" xlink:href="#Arial-BoldMT-112"/>
      <use x="261.132812" xlink:href="#Arial-BoldMT-114"/>
      <use x="300.048828" xlink:href="#Arial-BoldMT-32"/>
      <use x="327.832031" xlink:href="#Arial-BoldMT-99"/>
      <use x="383.447266" xlink:href="#Arial-BoldMT-112"/>
      <use x="444.53125" xlink:href="#Arial-BoldMT-116"/>
     </g>
    </g>
    <g id="line2d_40">
     <path d="M 168.781719 117.860937 
L 188.781719 117.860937 
" style="fill:none;stroke:#d62728;stroke-dasharray:2,3.3;stroke-dashoffset:0;stroke-width:2;"/>
    </g>
    <g id="line2d_41"/>
    <g id="text_32">
     <!--    qspr viscosity -->
     <defs>
      <path d="M 21.4375 0 
L 0.53125 51.859375 
L 14.9375 51.859375 
L 24.703125 25.390625 
L 27.546875 16.546875 
Q 28.65625 19.921875 28.953125 21 
Q 29.640625 23.1875 30.421875 25.390625 
L 40.28125 51.859375 
L 54.390625 51.859375 
L 33.796875 0 
z
" id="Arial-BoldMT-118"/>
      <path d="M 4 26.65625 
Q 4 33.5 7.375 39.890625 
Q 10.75 46.296875 16.921875 49.65625 
Q 23.09375 53.03125 30.71875 53.03125 
Q 42.484375 53.03125 50 45.390625 
Q 57.515625 37.75 57.515625 26.078125 
Q 57.515625 14.3125 49.921875 6.5625 
Q 42.328125 -1.171875 30.8125 -1.171875 
Q 23.6875 -1.171875 17.21875 2.046875 
Q 10.75 5.28125 7.375 11.5 
Q 4 17.71875 4 26.65625 
z
M 18.0625 25.921875 
Q 18.0625 18.21875 21.71875 14.109375 
Q 25.390625 10.015625 30.765625 10.015625 
Q 36.140625 10.015625 39.765625 14.109375 
Q 43.40625 18.21875 43.40625 26.03125 
Q 43.40625 33.640625 39.765625 37.734375 
Q 36.140625 41.84375 30.765625 41.84375 
Q 25.390625 41.84375 21.71875 37.734375 
Q 18.0625 33.640625 18.0625 25.921875 
z
" id="Arial-BoldMT-111"/>
     </defs>
     <g style="fill:#262626;" transform="translate(196.781719 121.360937)scale(0.1 -0.1)">
      <use xlink:href="#Arial-BoldMT-32"/>
      <use x="27.783203" xlink:href="#Arial-BoldMT-32"/>
      <use x="55.566406" xlink:href="#Arial-BoldMT-32"/>
      <use x="83.349609" xlink:href="#Arial-BoldMT-113"/>
      <use x="144.433594" xlink:href="#Arial-BoldMT-115"/>
      <use x="200.048828" xlink:href="#Arial-BoldMT-112"/>
      <use x="261.132812" xlink:href="#Arial-BoldMT-114"/>
      <use x="300.048828" xlink:href="#Arial-BoldMT-32"/>
      <use x="327.832031" xlink:href="#Arial-BoldMT-118"/>
      <use x="383.447266" xlink:href="#Arial-BoldMT-105"/>
      <use x="411.230469" xlink:href="#Arial-BoldMT-115"/>
      <use x="466.845703" xlink:href="#Arial-BoldMT-99"/>
      <use x="522.460938" xlink:href="#Arial-BoldMT-111"/>
      <use x="583.544922" xlink:href="#Arial-BoldMT-115"/>
      <use x="639.160156" xlink:href="#Arial-BoldMT-105"/>
      <use x="666.943359" xlink:href="#Arial-BoldMT-116"/>
      <use x="700.244141" xlink:href="#Arial-BoldMT-121"/>
     </g>
    </g>
    <g id="line2d_42">
     <path d="M 168.781719 132.123437 
L 188.781719 132.123437 
" style="fill:none;stroke:#1f77b4;stroke-dasharray:7.4,3.2;stroke-dashoffset:0;stroke-width:2;"/>
    </g>
    <g id="line2d_43"/>
    <g id="text_33">
     <!--  anion thermal -->
     <g style="fill:#262626;" transform="translate(196.781719 135.623437)scale(0.1 -0.1)">
      <use xlink:href="#Arial-BoldMT-32"/>
      <use x="27.783203" xlink:href="#Arial-BoldMT-97"/>
      <use x="83.398438" xlink:href="#Arial-BoldMT-110"/>
      <use x="144.482422" xlink:href="#Arial-BoldMT-105"/>
      <use x="172.265625" xlink:href="#Arial-BoldMT-111"/>
      <use x="233.349609" xlink:href="#Arial-BoldMT-110"/>
      <use x="294.433594" xlink:href="#Arial-BoldMT-32"/>
      <use x="322.216797" xlink:href="#Arial-BoldMT-116"/>
      <use x="355.517578" xlink:href="#Arial-BoldMT-104"/>
      <use x="416.601562" xlink:href="#Arial-BoldMT-101"/>
      <use x="472.216797" xlink:href="#Arial-BoldMT-114"/>
      <use x="511.132812" xlink:href="#Arial-BoldMT-109"/>
      <use x="600.048828" xlink:href="#Arial-BoldMT-97"/>
      <use x="655.664062" xlink:href="#Arial-BoldMT-108"/>
     </g>
    </g>
    <g id="line2d_44">
     <path d="M 168.781719 146.254687 
L 188.781719 146.254687 
" style="fill:none;stroke:#1f77b4;stroke-linecap:round;stroke-width:2;"/>
    </g>
    <g id="line2d_45"/>
    <g id="text_34">
     <!-- cation thermal -->
     <g style="fill:#262626;" transform="translate(196.781719 149.754687)scale(0.1 -0.1)">
      <use xlink:href="#Arial-BoldMT-99"/>
      <use x="55.615234" xlink:href="#Arial-BoldMT-97"/>
      <use x="111.230469" xlink:href="#Arial-BoldMT-116"/>
      <use x="144.53125" xlink:href="#Arial-BoldMT-105"/>
      <use x="172.314453" xlink:href="#Arial-BoldMT-111"/>
      <use x="233.398438" xlink:href="#Arial-BoldMT-110"/>
      <use x="294.482422" xlink:href="#Arial-BoldMT-32"/>
      <use x="322.265625" xlink:href="#Arial-BoldMT-116"/>
      <use x="355.566406" xlink:href="#Arial-BoldMT-104"/>
      <use x="416.650391" xlink:href="#Arial-BoldMT-101"/>
      <use x="472.265625" xlink:href="#Arial-BoldMT-114"/>
      <use x="511.181641" xlink:href="#Arial-BoldMT-109"/>
      <use x="600.097656" xlink:href="#Arial-BoldMT-97"/>
      <use x="655.712891" xlink:href="#Arial-BoldMT-108"/>
     </g>
    </g>
    <g id="line2d_46">
     <path d="M 168.781719 160.385937 
L 188.781719 160.385937 
" style="fill:none;stroke:#ff7f0e;stroke-dasharray:7.4,3.2;stroke-dashoffset:0;stroke-width:2;"/>
    </g>
    <g id="line2d_47"/>
    <g id="text_35">
     <!--  anion density -->
     <g style="fill:#262626;" transform="translate(196.781719 163.885937)scale(0.1 -0.1)">
      <use xlink:href="#Arial-BoldMT-32"/>
      <use x="27.783203" xlink:href="#Arial-BoldMT-97"/>
      <use x="83.398438" xlink:href="#Arial-BoldMT-110"/>
      <use x="144.482422" xlink:href="#Arial-BoldMT-105"/>
      <use x="172.265625" xlink:href="#Arial-BoldMT-111"/>
      <use x="233.349609" xlink:href="#Arial-BoldMT-110"/>
      <use x="294.433594" xlink:href="#Arial-BoldMT-32"/>
      <use x="322.216797" xlink:href="#Arial-BoldMT-100"/>
      <use x="383.300781" xlink:href="#Arial-BoldMT-101"/>
      <use x="438.916016" xlink:href="#Arial-BoldMT-110"/>
      <use x="500" xlink:href="#Arial-BoldMT-115"/>
      <use x="555.615234" xlink:href="#Arial-BoldMT-105"/>
      <use x="583.398438" xlink:href="#Arial-BoldMT-116"/>
      <use x="616.699219" xlink:href="#Arial-BoldMT-121"/>
     </g>
    </g>
    <g id="line2d_48">
     <path d="M 168.781719 174.648437 
L 188.781719 174.648437 
" style="fill:none;stroke:#ff7f0e;stroke-linecap:round;stroke-width:2;"/>
    </g>
    <g id="line2d_49"/>
    <g id="text_36">
     <!-- cation density -->
     <g style="fill:#262626;" transform="translate(196.781719 178.148437)scale(0.1 -0.1)">
      <use xlink:href="#Arial-BoldMT-99"/>
      <use x="55.615234" xlink:href="#Arial-BoldMT-97"/>
      <use x="111.230469" xlink:href="#Arial-BoldMT-116"/>
      <use x="144.53125" xlink:href="#Arial-BoldMT-105"/>
      <use x="172.314453" xlink:href="#Arial-BoldMT-111"/>
      <use x="233.398438" xlink:href="#Arial-BoldMT-110"/>
      <use x="294.482422" xlink:href="#Arial-BoldMT-32"/>
      <use x="322.265625" xlink:href="#Arial-BoldMT-100"/>
      <use x="383.349609" xlink:href="#Arial-BoldMT-101"/>
      <use x="438.964844" xlink:href="#Arial-BoldMT-110"/>
      <use x="500.048828" xlink:href="#Arial-BoldMT-115"/>
      <use x="555.664062" xlink:href="#Arial-BoldMT-105"/>
      <use x="583.447266" xlink:href="#Arial-BoldMT-116"/>
      <use x="616.748047" xlink:href="#Arial-BoldMT-121"/>
     </g>
    </g>
    <g id="line2d_50">
     <path d="M 168.781719 188.910937 
L 188.781719 188.910937 
" style="fill:none;stroke:#2ca02c;stroke-dasharray:7.4,3.2;stroke-dashoffset:0;stroke-width:2;"/>
    </g>
    <g id="line2d_51"/>
    <g id="text_37">
     <!--  anion cpt -->
     <g style="fill:#262626;" transform="translate(196.781719 192.410937)scale(0.1 -0.1)">
      <use xlink:href="#Arial-BoldMT-32"/>
      <use x="27.783203" xlink:href="#Arial-BoldMT-97"/>
      <use x="83.398438" xlink:href="#Arial-BoldMT-110"/>
      <use x="144.482422" xlink:href="#Arial-BoldMT-105"/>
      <use x="172.265625" xlink:href="#Arial-BoldMT-111"/>
      <use x="233.349609" xlink:href="#Arial-BoldMT-110"/>
      <use x="294.433594" xlink:href="#Arial-BoldMT-32"/>
      <use x="322.216797" xlink:href="#Arial-BoldMT-99"/>
      <use x="377.832031" xlink:href="#Arial-BoldMT-112"/>
      <use x="438.916016" xlink:href="#Arial-BoldMT-116"/>
     </g>
    </g>
    <g id="line2d_52">
     <path d="M 168.781719 203.042187 
L 188.781719 203.042187 
" style="fill:none;stroke:#2ca02c;stroke-linecap:round;stroke-width:2;"/>
    </g>
    <g id="line2d_53"/>
    <g id="text_38">
     <!-- cation cpt -->
     <g style="fill:#262626;" transform="translate(196.781719 206.542187)scale(0.1 -0.1)">
      <use xlink:href="#Arial-BoldMT-99"/>
      <use x="55.615234" xlink:href="#Arial-BoldMT-97"/>
      <use x="111.230469" xlink:href="#Arial-BoldMT-116"/>
      <use x="144.53125" xlink:href="#Arial-BoldMT-105"/>
      <use x="172.314453" xlink:href="#Arial-BoldMT-111"/>
      <use x="233.398438" xlink:href="#Arial-BoldMT-110"/>
      <use x="294.482422" xlink:href="#Arial-BoldMT-32"/>
      <use x="322.265625" xlink:href="#Arial-BoldMT-99"/>
      <use x="377.880859" xlink:href="#Arial-BoldMT-112"/>
      <use x="438.964844" xlink:href="#Arial-BoldMT-116"/>
     </g>
    </g>
    <g id="line2d_54">
     <path d="M 168.781719 217.173437 
L 188.781719 217.173437 
" style="fill:none;stroke:#d62728;stroke-dasharray:7.4,3.2;stroke-dashoffset:0;stroke-width:2;"/>
    </g>
    <g id="line2d_55"/>
    <g id="text_39">
     <!--  anion viscosity -->
     <g style="fill:#262626;" transform="translate(196.781719 220.673437)scale(0.1 -0.1)">
      <use xlink:href="#Arial-BoldMT-32"/>
      <use x="27.783203" xlink:href="#Arial-BoldMT-97"/>
      <use x="83.398438" xlink:href="#Arial-BoldMT-110"/>
      <use x="144.482422" xlink:href="#Arial-BoldMT-105"/>
      <use x="172.265625" xlink:href="#Arial-BoldMT-111"/>
      <use x="233.349609" xlink:href="#Arial-BoldMT-110"/>
      <use x="294.433594" xlink:href="#Arial-BoldMT-32"/>
      <use x="322.216797" xlink:href="#Arial-BoldMT-118"/>
      <use x="377.832031" xlink:href="#Arial-BoldMT-105"/>
      <use x="405.615234" xlink:href="#Arial-BoldMT-115"/>
      <use x="461.230469" xlink:href="#Arial-BoldMT-99"/>
      <use x="516.845703" xlink:href="#Arial-BoldMT-111"/>
      <use x="577.929688" xlink:href="#Arial-BoldMT-115"/>
      <use x="633.544922" xlink:href="#Arial-BoldMT-105"/>
      <use x="661.328125" xlink:href="#Arial-BoldMT-116"/>
      <use x="694.628906" xlink:href="#Arial-BoldMT-121"/>
     </g>
    </g>
    <g id="line2d_56">
     <path d="M 168.781719 231.435937 
L 188.781719 231.435937 
" style="fill:none;stroke:#d62728;stroke-linecap:round;stroke-width:2;"/>
    </g>
    <g id="line2d_57"/>
    <g id="text_40">
     <!-- cation viscosity -->
     <g style="fill:#262626;" transform="translate(196.781719 234.935937)scale(0.1 -0.1)">
      <use xlink:href="#Arial-BoldMT-99"/>
      <use x="55.615234" xlink:href="#Arial-BoldMT-97"/>
      <use x="111.230469" xlink:href="#Arial-BoldMT-116"/>
      <use x="144.53125" xlink:href="#Arial-BoldMT-105"/>
      <use x="172.314453" xlink:href="#Arial-BoldMT-111"/>
      <use x="233.398438" xlink:href="#Arial-BoldMT-110"/>
      <use x="294.482422" xlink:href="#Arial-BoldMT-32"/>
      <use x="322.265625" xlink:href="#Arial-BoldMT-118"/>
      <use x="377.880859" xlink:href="#Arial-BoldMT-105"/>
      <use x="405.664062" xlink:href="#Arial-BoldMT-115"/>
      <use x="461.279297" xlink:href="#Arial-BoldMT-99"/>
      <use x="516.894531" xlink:href="#Arial-BoldMT-111"/>
      <use x="577.978516" xlink:href="#Arial-BoldMT-115"/>
      <use x="633.59375" xlink:href="#Arial-BoldMT-105"/>
      <use x="661.376953" xlink:href="#Arial-BoldMT-116"/>
      <use x="694.677734" xlink:href="#Arial-BoldMT-121"/>
     </g>
    </g>
   </g>
  </g>
 </g>
 <defs>
  <clipPath id="p00387bc109">
   <rect height="265.14" width="249.57" x="31.791406" y="21.789375"/>
  </clipPath>
 </defs>
</svg>
