<?xml version="1.0" encoding="utf-8" standalone="no"?>
<!DOCTYPE svg PUBLIC "-//W3C//DTD SVG 1.1//EN"
  "http://www.w3.org/Graphics/SVG/1.1/DTD/svg11.dtd">
<!-- Created with matplotlib (http://matplotlib.org/) -->
<svg height="360pt" version="1.1" viewBox="0 0 360 360" width="360pt" xmlns="http://www.w3.org/2000/svg" xmlns:xlink="http://www.w3.org/1999/xlink">
 <defs>
  <style type="text/css">
*{stroke-linecap:butt;stroke-linejoin:round;}
  </style>
 </defs>
 <g id="figure_1">
  <g id="patch_1">
   <path d="M 0 360 
L 360 360 
L 360 0 
L 0 0 
z
" style="fill:#ffffff;"/>
  </g>
  <g id="axes_1">
   <g id="patch_2">
    <path d="M 37.94 318.04 
L 313.75 318.04 
L 313.75 25.44 
L 37.94 25.44 
z
" style="fill:#ffffff;"/>
   </g>
   <g id="matplotlib.axis_1">
    <g id="xtick_1">
     <g id="line2d_1"/>
     <g id="text_1">
      <!-- 0 -->
      <defs>
       <path d="M 31.78125 66.40625 
Q 24.171875 66.40625 20.328125 58.90625 
Q 16.5 51.421875 16.5 36.375 
Q 16.5 21.390625 20.328125 13.890625 
Q 24.171875 6.390625 31.78125 6.390625 
Q 39.453125 6.390625 43.28125 13.890625 
Q 47.125 21.390625 47.125 36.375 
Q 47.125 51.421875 43.28125 58.90625 
Q 39.453125 66.40625 31.78125 66.40625 
z
M 31.78125 74.21875 
Q 44.046875 74.21875 50.515625 64.515625 
Q 56.984375 54.828125 56.984375 36.375 
Q 56.984375 17.96875 50.515625 8.265625 
Q 44.046875 -1.421875 31.78125 -1.421875 
Q 19.53125 -1.421875 13.0625 8.265625 
Q 6.59375 17.96875 6.59375 36.375 
Q 6.59375 54.828125 13.0625 64.515625 
Q 19.53125 74.21875 31.78125 74.21875 
z
" id="DejaVuSans-30"/>
      </defs>
      <g style="fill:#262626;" transform="translate(34.75875 332.638438)scale(0.1 -0.1)">
       <use xlink:href="#DejaVuSans-30"/>
      </g>
     </g>
    </g>
    <g id="xtick_2">
     <g id="line2d_2"/>
     <g id="text_2">
      <!-- 10 -->
      <defs>
       <path d="M 12.40625 8.296875 
L 28.515625 8.296875 
L 28.515625 63.921875 
L 10.984375 60.40625 
L 10.984375 69.390625 
L 28.421875 72.90625 
L 38.28125 72.90625 
L 38.28125 8.296875 
L 54.390625 8.296875 
L 54.390625 0 
L 12.40625 0 
z
" id="DejaVuSans-31"/>
      </defs>
      <g style="fill:#262626;" transform="translate(59.1585 332.638438)scale(0.1 -0.1)">
       <use xlink:href="#DejaVuSans-31"/>
       <use x="63.623047" xlink:href="#DejaVuSans-30"/>
      </g>
     </g>
    </g>
    <g id="xtick_3">
     <g id="line2d_3"/>
     <g id="text_3">
      <!-- 20 -->
      <defs>
       <path d="M 19.1875 8.296875 
L 53.609375 8.296875 
L 53.609375 0 
L 7.328125 0 
L 7.328125 8.296875 
Q 12.9375 14.109375 22.625 23.890625 
Q 32.328125 33.6875 34.8125 36.53125 
Q 39.546875 41.84375 41.421875 45.53125 
Q 43.3125 49.21875 43.3125 52.78125 
Q 43.3125 58.59375 39.234375 62.25 
Q 35.15625 65.921875 28.609375 65.921875 
Q 23.96875 65.921875 18.8125 64.3125 
Q 13.671875 62.703125 7.8125 59.421875 
L 7.8125 69.390625 
Q 13.765625 71.78125 18.9375 73 
Q 24.125 74.21875 28.421875 74.21875 
Q 39.75 74.21875 46.484375 68.546875 
Q 53.21875 62.890625 53.21875 53.421875 
Q 53.21875 48.921875 51.53125 44.890625 
Q 49.859375 40.875 45.40625 35.40625 
Q 44.1875 33.984375 37.640625 27.21875 
Q 31.109375 20.453125 19.1875 8.296875 
z
" id="DejaVuSans-32"/>
      </defs>
      <g style="fill:#262626;" transform="translate(86.7395 332.638438)scale(0.1 -0.1)">
       <use xlink:href="#DejaVuSans-32"/>
       <use x="63.623047" xlink:href="#DejaVuSans-30"/>
      </g>
     </g>
    </g>
    <g id="xtick_4">
     <g id="line2d_4"/>
     <g id="text_4">
      <!-- 30 -->
      <defs>
       <path d="M 40.578125 39.3125 
Q 47.65625 37.796875 51.625 33 
Q 55.609375 28.21875 55.609375 21.1875 
Q 55.609375 10.40625 48.1875 4.484375 
Q 40.765625 -1.421875 27.09375 -1.421875 
Q 22.515625 -1.421875 17.65625 -0.515625 
Q 12.796875 0.390625 7.625 2.203125 
L 7.625 11.71875 
Q 11.71875 9.328125 16.59375 8.109375 
Q 21.484375 6.890625 26.8125 6.890625 
Q 36.078125 6.890625 40.9375 10.546875 
Q 45.796875 14.203125 45.796875 21.1875 
Q 45.796875 27.640625 41.28125 31.265625 
Q 36.765625 34.90625 28.71875 34.90625 
L 20.21875 34.90625 
L 20.21875 43.015625 
L 29.109375 43.015625 
Q 36.375 43.015625 40.234375 45.921875 
Q 44.09375 48.828125 44.09375 54.296875 
Q 44.09375 59.90625 40.109375 62.90625 
Q 36.140625 65.921875 28.71875 65.921875 
Q 24.65625 65.921875 20.015625 65.03125 
Q 15.375 64.15625 9.8125 62.3125 
L 9.8125 71.09375 
Q 15.4375 72.65625 20.34375 73.4375 
Q 25.25 74.21875 29.59375 74.21875 
Q 40.828125 74.21875 47.359375 69.109375 
Q 53.90625 64.015625 53.90625 55.328125 
Q 53.90625 49.265625 50.4375 45.09375 
Q 46.96875 40.921875 40.578125 39.3125 
z
" id="DejaVuSans-33"/>
      </defs>
      <g style="fill:#262626;" transform="translate(114.3205 332.638438)scale(0.1 -0.1)">
       <use xlink:href="#DejaVuSans-33"/>
       <use x="63.623047" xlink:href="#DejaVuSans-30"/>
      </g>
     </g>
    </g>
    <g id="xtick_5">
     <g id="line2d_5"/>
     <g id="text_5">
      <!-- 40 -->
      <defs>
       <path d="M 37.796875 64.3125 
L 12.890625 25.390625 
L 37.796875 25.390625 
z
M 35.203125 72.90625 
L 47.609375 72.90625 
L 47.609375 25.390625 
L 58.015625 25.390625 
L 58.015625 17.1875 
L 47.609375 17.1875 
L 47.609375 0 
L 37.796875 0 
L 37.796875 17.1875 
L 4.890625 17.1875 
L 4.890625 26.703125 
z
" id="DejaVuSans-34"/>
      </defs>
      <g style="fill:#262626;" transform="translate(141.9015 332.638438)scale(0.1 -0.1)">
       <use xlink:href="#DejaVuSans-34"/>
       <use x="63.623047" xlink:href="#DejaVuSans-30"/>
      </g>
     </g>
    </g>
    <g id="xtick_6">
     <g id="line2d_6"/>
     <g id="text_6">
      <!-- 50 -->
      <defs>
       <path d="M 10.796875 72.90625 
L 49.515625 72.90625 
L 49.515625 64.59375 
L 19.828125 64.59375 
L 19.828125 46.734375 
Q 21.96875 47.46875 24.109375 47.828125 
Q 26.265625 48.1875 28.421875 48.1875 
Q 40.625 48.1875 47.75 41.5 
Q 54.890625 34.8125 54.890625 23.390625 
Q 54.890625 11.625 47.5625 5.09375 
Q 40.234375 -1.421875 26.90625 -1.421875 
Q 22.3125 -1.421875 17.546875 -0.640625 
Q 12.796875 0.140625 7.71875 1.703125 
L 7.71875 11.625 
Q 12.109375 9.234375 16.796875 8.0625 
Q 21.484375 6.890625 26.703125 6.890625 
Q 35.15625 6.890625 40.078125 11.328125 
Q 45.015625 15.765625 45.015625 23.390625 
Q 45.015625 31 40.078125 35.4375 
Q 35.15625 39.890625 26.703125 39.890625 
Q 22.75 39.890625 18.8125 39.015625 
Q 14.890625 38.140625 10.796875 36.28125 
z
" id="DejaVuSans-35"/>
      </defs>
      <g style="fill:#262626;" transform="translate(169.4825 332.638438)scale(0.1 -0.1)">
       <use xlink:href="#DejaVuSans-35"/>
       <use x="63.623047" xlink:href="#DejaVuSans-30"/>
      </g>
     </g>
    </g>
    <g id="xtick_7">
     <g id="line2d_7"/>
     <g id="text_7">
      <!-- 60 -->
      <defs>
       <path d="M 33.015625 40.375 
Q 26.375 40.375 22.484375 35.828125 
Q 18.609375 31.296875 18.609375 23.390625 
Q 18.609375 15.53125 22.484375 10.953125 
Q 26.375 6.390625 33.015625 6.390625 
Q 39.65625 6.390625 43.53125 10.953125 
Q 47.40625 15.53125 47.40625 23.390625 
Q 47.40625 31.296875 43.53125 35.828125 
Q 39.65625 40.375 33.015625 40.375 
z
M 52.59375 71.296875 
L 52.59375 62.3125 
Q 48.875 64.0625 45.09375 64.984375 
Q 41.3125 65.921875 37.59375 65.921875 
Q 27.828125 65.921875 22.671875 59.328125 
Q 17.53125 52.734375 16.796875 39.40625 
Q 19.671875 43.65625 24.015625 45.921875 
Q 28.375 48.1875 33.59375 48.1875 
Q 44.578125 48.1875 50.953125 41.515625 
Q 57.328125 34.859375 57.328125 23.390625 
Q 57.328125 12.15625 50.6875 5.359375 
Q 44.046875 -1.421875 33.015625 -1.421875 
Q 20.359375 -1.421875 13.671875 8.265625 
Q 6.984375 17.96875 6.984375 36.375 
Q 6.984375 53.65625 15.1875 63.9375 
Q 23.390625 74.21875 37.203125 74.21875 
Q 40.921875 74.21875 44.703125 73.484375 
Q 48.484375 72.75 52.59375 71.296875 
z
" id="DejaVuSans-36"/>
      </defs>
      <g style="fill:#262626;" transform="translate(197.0635 332.638438)scale(0.1 -0.1)">
       <use xlink:href="#DejaVuSans-36"/>
       <use x="63.623047" xlink:href="#DejaVuSans-30"/>
      </g>
     </g>
    </g>
    <g id="xtick_8">
     <g id="line2d_8"/>
     <g id="text_8">
      <!-- 70 -->
      <defs>
       <path d="M 8.203125 72.90625 
L 55.078125 72.90625 
L 55.078125 68.703125 
L 28.609375 0 
L 18.3125 0 
L 43.21875 64.59375 
L 8.203125 64.59375 
z
" id="DejaVuSans-37"/>
      </defs>
      <g style="fill:#262626;" transform="translate(224.6445 332.638438)scale(0.1 -0.1)">
       <use xlink:href="#DejaVuSans-37"/>
       <use x="63.623047" xlink:href="#DejaVuSans-30"/>
      </g>
     </g>
    </g>
    <g id="xtick_9">
     <g id="line2d_9"/>
     <g id="text_9">
      <!-- 80 -->
      <defs>
       <path d="M 31.78125 34.625 
Q 24.75 34.625 20.71875 30.859375 
Q 16.703125 27.09375 16.703125 20.515625 
Q 16.703125 13.921875 20.71875 10.15625 
Q 24.75 6.390625 31.78125 6.390625 
Q 38.8125 6.390625 42.859375 10.171875 
Q 46.921875 13.96875 46.921875 20.515625 
Q 46.921875 27.09375 42.890625 30.859375 
Q 38.875 34.625 31.78125 34.625 
z
M 21.921875 38.8125 
Q 15.578125 40.375 12.03125 44.71875 
Q 8.5 49.078125 8.5 55.328125 
Q 8.5 64.0625 14.71875 69.140625 
Q 20.953125 74.21875 31.78125 74.21875 
Q 42.671875 74.21875 48.875 69.140625 
Q 55.078125 64.0625 55.078125 55.328125 
Q 55.078125 49.078125 51.53125 44.71875 
Q 48 40.375 41.703125 38.8125 
Q 48.828125 37.15625 52.796875 32.3125 
Q 56.78125 27.484375 56.78125 20.515625 
Q 56.78125 9.90625 50.3125 4.234375 
Q 43.84375 -1.421875 31.78125 -1.421875 
Q 19.734375 -1.421875 13.25 4.234375 
Q 6.78125 9.90625 6.78125 20.515625 
Q 6.78125 27.484375 10.78125 32.3125 
Q 14.796875 37.15625 21.921875 38.8125 
z
M 18.3125 54.390625 
Q 18.3125 48.734375 21.84375 45.5625 
Q 25.390625 42.390625 31.78125 42.390625 
Q 38.140625 42.390625 41.71875 45.5625 
Q 45.3125 48.734375 45.3125 54.390625 
Q 45.3125 60.0625 41.71875 63.234375 
Q 38.140625 66.40625 31.78125 66.40625 
Q 25.390625 66.40625 21.84375 63.234375 
Q 18.3125 60.0625 18.3125 54.390625 
z
" id="DejaVuSans-38"/>
      </defs>
      <g style="fill:#262626;" transform="translate(252.2255 332.638438)scale(0.1 -0.1)">
       <use xlink:href="#DejaVuSans-38"/>
       <use x="63.623047" xlink:href="#DejaVuSans-30"/>
      </g>
     </g>
    </g>
    <g id="xtick_10">
     <g id="line2d_10"/>
     <g id="text_10">
      <!-- 90 -->
      <defs>
       <path d="M 10.984375 1.515625 
L 10.984375 10.5 
Q 14.703125 8.734375 18.5 7.8125 
Q 22.3125 6.890625 25.984375 6.890625 
Q 35.75 6.890625 40.890625 13.453125 
Q 46.046875 20.015625 46.78125 33.40625 
Q 43.953125 29.203125 39.59375 26.953125 
Q 35.25 24.703125 29.984375 24.703125 
Q 19.046875 24.703125 12.671875 31.3125 
Q 6.296875 37.9375 6.296875 49.421875 
Q 6.296875 60.640625 12.9375 67.421875 
Q 19.578125 74.21875 30.609375 74.21875 
Q 43.265625 74.21875 49.921875 64.515625 
Q 56.59375 54.828125 56.59375 36.375 
Q 56.59375 19.140625 48.40625 8.859375 
Q 40.234375 -1.421875 26.421875 -1.421875 
Q 22.703125 -1.421875 18.890625 -0.6875 
Q 15.09375 0.046875 10.984375 1.515625 
z
M 30.609375 32.421875 
Q 37.25 32.421875 41.125 36.953125 
Q 45.015625 41.5 45.015625 49.421875 
Q 45.015625 57.28125 41.125 61.84375 
Q 37.25 66.40625 30.609375 66.40625 
Q 23.96875 66.40625 20.09375 61.84375 
Q 16.21875 57.28125 16.21875 49.421875 
Q 16.21875 41.5 20.09375 36.953125 
Q 23.96875 32.421875 30.609375 32.421875 
z
" id="DejaVuSans-39"/>
      </defs>
      <g style="fill:#262626;" transform="translate(279.8065 332.638438)scale(0.1 -0.1)">
       <use xlink:href="#DejaVuSans-39"/>
       <use x="63.623047" xlink:href="#DejaVuSans-30"/>
      </g>
     </g>
    </g>
    <g id="xtick_11">
     <g id="line2d_11"/>
     <g id="text_11">
      <!-- 100 -->
      <g style="fill:#262626;" transform="translate(304.20625 332.638438)scale(0.1 -0.1)">
       <use xlink:href="#DejaVuSans-31"/>
       <use x="63.623047" xlink:href="#DejaVuSans-30"/>
       <use x="127.246094" xlink:href="#DejaVuSans-30"/>
      </g>
     </g>
    </g>
    <g id="text_12">
     <!-- Epochs -->
     <defs>
      <path d="M 9.8125 72.90625 
L 55.90625 72.90625 
L 55.90625 64.59375 
L 19.671875 64.59375 
L 19.671875 43.015625 
L 54.390625 43.015625 
L 54.390625 34.71875 
L 19.671875 34.71875 
L 19.671875 8.296875 
L 56.78125 8.296875 
L 56.78125 0 
L 9.8125 0 
z
" id="DejaVuSans-45"/>
      <path d="M 18.109375 8.203125 
L 18.109375 -20.796875 
L 9.078125 -20.796875 
L 9.078125 54.6875 
L 18.109375 54.6875 
L 18.109375 46.390625 
Q 20.953125 51.265625 25.265625 53.625 
Q 29.59375 56 35.59375 56 
Q 45.5625 56 51.78125 48.09375 
Q 58.015625 40.1875 58.015625 27.296875 
Q 58.015625 14.40625 51.78125 6.484375 
Q 45.5625 -1.421875 35.59375 -1.421875 
Q 29.59375 -1.421875 25.265625 0.953125 
Q 20.953125 3.328125 18.109375 8.203125 
z
M 48.6875 27.296875 
Q 48.6875 37.203125 44.609375 42.84375 
Q 40.53125 48.484375 33.40625 48.484375 
Q 26.265625 48.484375 22.1875 42.84375 
Q 18.109375 37.203125 18.109375 27.296875 
Q 18.109375 17.390625 22.1875 11.75 
Q 26.265625 6.109375 33.40625 6.109375 
Q 40.53125 6.109375 44.609375 11.75 
Q 48.6875 17.390625 48.6875 27.296875 
z
" id="DejaVuSans-70"/>
      <path d="M 30.609375 48.390625 
Q 23.390625 48.390625 19.1875 42.75 
Q 14.984375 37.109375 14.984375 27.296875 
Q 14.984375 17.484375 19.15625 11.84375 
Q 23.34375 6.203125 30.609375 6.203125 
Q 37.796875 6.203125 41.984375 11.859375 
Q 46.1875 17.53125 46.1875 27.296875 
Q 46.1875 37.015625 41.984375 42.703125 
Q 37.796875 48.390625 30.609375 48.390625 
z
M 30.609375 56 
Q 42.328125 56 49.015625 48.375 
Q 55.71875 40.765625 55.71875 27.296875 
Q 55.71875 13.875 49.015625 6.21875 
Q 42.328125 -1.421875 30.609375 -1.421875 
Q 18.84375 -1.421875 12.171875 6.21875 
Q 5.515625 13.875 5.515625 27.296875 
Q 5.515625 40.765625 12.171875 48.375 
Q 18.84375 56 30.609375 56 
z
" id="DejaVuSans-6f"/>
      <path d="M 48.78125 52.59375 
L 48.78125 44.1875 
Q 44.96875 46.296875 41.140625 47.34375 
Q 37.3125 48.390625 33.40625 48.390625 
Q 24.65625 48.390625 19.8125 42.84375 
Q 14.984375 37.3125 14.984375 27.296875 
Q 14.984375 17.28125 19.8125 11.734375 
Q 24.65625 6.203125 33.40625 6.203125 
Q 37.3125 6.203125 41.140625 7.25 
Q 44.96875 8.296875 48.78125 10.40625 
L 48.78125 2.09375 
Q 45.015625 0.34375 40.984375 -0.53125 
Q 36.96875 -1.421875 32.421875 -1.421875 
Q 20.0625 -1.421875 12.78125 6.34375 
Q 5.515625 14.109375 5.515625 27.296875 
Q 5.515625 40.671875 12.859375 48.328125 
Q 20.21875 56 33.015625 56 
Q 37.15625 56 41.109375 55.140625 
Q 45.0625 54.296875 48.78125 52.59375 
z
" id="DejaVuSans-63"/>
      <path d="M 54.890625 33.015625 
L 54.890625 0 
L 45.90625 0 
L 45.90625 32.71875 
Q 45.90625 40.484375 42.875 44.328125 
Q 39.84375 48.1875 33.796875 48.1875 
Q 26.515625 48.1875 22.3125 43.546875 
Q 18.109375 38.921875 18.109375 30.90625 
L 18.109375 0 
L 9.078125 0 
L 9.078125 75.984375 
L 18.109375 75.984375 
L 18.109375 46.1875 
Q 21.34375 51.125 25.703125 53.5625 
Q 30.078125 56 35.796875 56 
Q 45.21875 56 50.046875 50.171875 
Q 54.890625 44.34375 54.890625 33.015625 
z
" id="DejaVuSans-68"/>
      <path d="M 44.28125 53.078125 
L 44.28125 44.578125 
Q 40.484375 46.53125 36.375 47.5 
Q 32.28125 48.484375 27.875 48.484375 
Q 21.1875 48.484375 17.84375 46.4375 
Q 14.5 44.390625 14.5 40.28125 
Q 14.5 37.15625 16.890625 35.375 
Q 19.28125 33.59375 26.515625 31.984375 
L 29.59375 31.296875 
Q 39.15625 29.25 43.1875 25.515625 
Q 47.21875 21.78125 47.21875 15.09375 
Q 47.21875 7.46875 41.1875 3.015625 
Q 35.15625 -1.421875 24.609375 -1.421875 
Q 20.21875 -1.421875 15.453125 -0.5625 
Q 10.6875 0.296875 5.421875 2 
L 5.421875 11.28125 
Q 10.40625 8.6875 15.234375 7.390625 
Q 20.0625 6.109375 24.8125 6.109375 
Q 31.15625 6.109375 34.5625 8.28125 
Q 37.984375 10.453125 37.984375 14.40625 
Q 37.984375 18.0625 35.515625 20.015625 
Q 33.0625 21.96875 24.703125 23.78125 
L 21.578125 24.515625 
Q 13.234375 26.265625 9.515625 29.90625 
Q 5.8125 33.546875 5.8125 39.890625 
Q 5.8125 47.609375 11.28125 51.796875 
Q 16.75 56 26.8125 56 
Q 31.78125 56 36.171875 55.265625 
Q 40.578125 54.546875 44.28125 53.078125 
z
" id="DejaVuSans-73"/>
     </defs>
     <g style="fill:#262626;" transform="translate(156.137812 347.076406)scale(0.11 -0.11)">
      <use xlink:href="#DejaVuSans-45"/>
      <use x="63.183594" xlink:href="#DejaVuSans-70"/>
      <use x="126.660156" xlink:href="#DejaVuSans-6f"/>
      <use x="187.841797" xlink:href="#DejaVuSans-63"/>
      <use x="242.822266" xlink:href="#DejaVuSans-68"/>
      <use x="306.201172" xlink:href="#DejaVuSans-73"/>
     </g>
    </g>
   </g>
   <g id="matplotlib.axis_2">
    <g id="ytick_1">
     <g id="line2d_12"/>
     <g id="text_13">
      <!-- 0 -->
      <g style="fill:#262626;" transform="translate(24.5775 309.274874)scale(0.1 -0.1)">
       <use xlink:href="#DejaVuSans-30"/>
      </g>
     </g>
    </g>
    <g id="ytick_2">
     <g id="line2d_13"/>
     <g id="text_14">
      <!-- 1 -->
      <g style="fill:#262626;" transform="translate(24.5775 265.086883)scale(0.1 -0.1)">
       <use xlink:href="#DejaVuSans-31"/>
      </g>
     </g>
    </g>
    <g id="ytick_3">
     <g id="line2d_14"/>
     <g id="text_15">
      <!-- 2 -->
      <g style="fill:#262626;" transform="translate(24.5775 220.898892)scale(0.1 -0.1)">
       <use xlink:href="#DejaVuSans-32"/>
      </g>
     </g>
    </g>
    <g id="ytick_4">
     <g id="line2d_15"/>
     <g id="text_16">
      <!-- 3 -->
      <g style="fill:#262626;" transform="translate(24.5775 176.710901)scale(0.1 -0.1)">
       <use xlink:href="#DejaVuSans-33"/>
      </g>
     </g>
    </g>
    <g id="ytick_5">
     <g id="line2d_16"/>
     <g id="text_17">
      <!-- 4 -->
      <g style="fill:#262626;" transform="translate(24.5775 132.52291)scale(0.1 -0.1)">
       <use xlink:href="#DejaVuSans-34"/>
      </g>
     </g>
    </g>
    <g id="ytick_6">
     <g id="line2d_17"/>
     <g id="text_18">
      <!-- 5 -->
      <g style="fill:#262626;" transform="translate(24.5775 88.334919)scale(0.1 -0.1)">
       <use xlink:href="#DejaVuSans-35"/>
      </g>
     </g>
    </g>
    <g id="ytick_7">
     <g id="line2d_18"/>
     <g id="text_19">
      <!-- 6 -->
      <g style="fill:#262626;" transform="translate(24.5775 44.146929)scale(0.1 -0.1)">
       <use xlink:href="#DejaVuSans-36"/>
      </g>
     </g>
    </g>
    <g id="text_20">
     <!-- MSE -->
     <defs>
      <path d="M 9.8125 72.90625 
L 24.515625 72.90625 
L 43.109375 23.296875 
L 61.8125 72.90625 
L 76.515625 72.90625 
L 76.515625 0 
L 66.890625 0 
L 66.890625 64.015625 
L 48.09375 14.015625 
L 38.1875 14.015625 
L 19.390625 64.015625 
L 19.390625 0 
L 9.8125 0 
z
" id="DejaVuSans-4d"/>
      <path d="M 53.515625 70.515625 
L 53.515625 60.890625 
Q 47.90625 63.578125 42.921875 64.890625 
Q 37.9375 66.21875 33.296875 66.21875 
Q 25.25 66.21875 20.875 63.09375 
Q 16.5 59.96875 16.5 54.203125 
Q 16.5 49.359375 19.40625 46.890625 
Q 22.3125 44.4375 30.421875 42.921875 
L 36.375 41.703125 
Q 47.40625 39.59375 52.65625 34.296875 
Q 57.90625 29 57.90625 20.125 
Q 57.90625 9.515625 50.796875 4.046875 
Q 43.703125 -1.421875 29.984375 -1.421875 
Q 24.8125 -1.421875 18.96875 -0.25 
Q 13.140625 0.921875 6.890625 3.21875 
L 6.890625 13.375 
Q 12.890625 10.015625 18.65625 8.296875 
Q 24.421875 6.59375 29.984375 6.59375 
Q 38.421875 6.59375 43.015625 9.90625 
Q 47.609375 13.234375 47.609375 19.390625 
Q 47.609375 24.75 44.3125 27.78125 
Q 41.015625 30.8125 33.5 32.328125 
L 27.484375 33.5 
Q 16.453125 35.6875 11.515625 40.375 
Q 6.59375 45.0625 6.59375 53.421875 
Q 6.59375 63.09375 13.40625 68.65625 
Q 20.21875 74.21875 32.171875 74.21875 
Q 37.3125 74.21875 42.625 73.28125 
Q 47.953125 72.359375 53.515625 70.515625 
z
" id="DejaVuSans-53"/>
     </defs>
     <g style="fill:#262626;" transform="translate(18.289844 183.452422)rotate(-90)scale(0.11 -0.11)">
      <use xlink:href="#DejaVuSans-4d"/>
      <use x="86.279297" xlink:href="#DejaVuSans-53"/>
      <use x="149.755859" xlink:href="#DejaVuSans-45"/>
     </g>
    </g>
   </g>
   <g id="line2d_19">
    <path clip-path="url(#pd7e3320da3)" d="M 40.6981 229.056237 
L 43.4562 261.398243 
L 46.2143 270.703556 
L 48.9724 275.029438 
L 51.7305 277.676111 
L 54.4886 281.266694 
L 57.2467 283.307775 
L 60.0048 285.241846 
L 62.7629 285.22241 
L 65.521 285.395603 
L 68.2791 286.594573 
L 71.0372 286.921829 
L 73.7953 288.519395 
L 76.5534 287.857776 
L 79.3115 288.088578 
L 82.0696 287.693149 
L 84.8277 288.98477 
L 87.5858 289.582284 
L 90.3439 289.439312 
L 93.102 289.16428 
L 95.8601 289.540308 
L 98.6182 290.707292 
L 101.3763 290.313455 
L 104.1344 290.487184 
L 106.8925 290.718279 
L 109.6506 290.784039 
L 112.4087 290.278674 
L 115.1668 290.925734 
L 117.9249 291.324656 
L 120.683 290.533235 
L 123.4411 291.466487 
L 126.1992 291.768567 
L 128.9573 290.955452 
L 131.7154 291.87023 
L 134.4735 291.696739 
L 137.2316 292.041816 
L 139.9897 291.833837 
L 142.7478 292.09188 
L 145.5059 292.0307 
L 148.264 291.715914 
L 151.0221 292.274387 
L 153.7802 292.54876 
L 156.5383 289.817616 
L 159.2964 291.030784 
L 162.0545 291.197666 
L 164.8126 292.114738 
L 167.5707 292.326356 
L 170.3288 292.205357 
L 173.0869 292.295416 
L 175.845 293.182677 
L 178.6031 293.471427 
L 181.3612 293.865855 
L 184.1193 293.369614 
L 186.8774 293.015775 
L 189.6355 293.331365 
L 192.3936 293.945988 
L 195.1517 294.314295 
L 197.9098 294.073514 
L 200.6679 294.060734 
L 203.426 293.792543 
L 206.1841 294.208387 
L 208.9422 294.035389 
L 211.7003 294.225836 
L 214.4584 294.189907 
L 217.2165 294.316814 
L 219.9746 293.969782 
L 222.7327 293.050474 
L 225.4908 292.525123 
L 228.2489 294.26593 
L 231.007 294.473862 
L 233.7651 293.660502 
L 236.5232 294.044451 
L 239.2813 294.265103 
L 242.0394 294.219917 
L 244.7975 294.669914 
L 247.5556 294.535352 
L 250.3137 294.668372 
L 253.0718 294.864289 
L 255.8299 295.017642 
L 258.588 293.837137 
L 261.3461 287.879895 
L 264.1042 288.699279 
L 266.8623 292.584161 
L 269.6204 293.874139 
L 272.3785 293.386905 
L 275.1366 294.287987 
L 277.8947 294.242956 
L 280.6528 294.940939 
L 283.4109 294.616847 
L 286.169 294.450168 
L 288.9271 294.758757 
L 291.6852 295.024693 
L 294.4433 295.025584 
L 297.2014 294.981714 
L 299.9595 294.819992 
L 302.7176 295.315209 
L 305.4757 295.36407 
L 308.2338 295.271591 
L 310.9919 295.537093 
L 313.75 294.665209 
" style="fill:none;stroke:#1f77b4;stroke-dasharray:1.75,2.8875;stroke-dashoffset:0;stroke-width:1.75;"/>
   </g>
   <g id="line2d_20">
    <path clip-path="url(#pd7e3320da3)" d="M 40.6981 38.74 
L 43.4562 250.0693 
L 46.2143 259.391538 
L 48.9724 263.5593 
L 51.7305 263.988633 
L 54.4886 261.091537 
L 57.2467 261.003033 
L 60.0048 263.726072 
L 62.7629 263.200766 
L 65.521 264.567833 
L 68.2791 265.442464 
L 71.0372 264.140062 
L 73.7953 264.065469 
L 76.5534 267.26463 
L 79.3115 268.498533 
L 82.0696 267.855857 
L 84.8277 264.864058 
L 87.5858 265.907309 
L 90.3439 263.481029 
L 93.102 265.476795 
L 95.8601 267.257263 
L 98.6182 262.82303 
L 101.3763 266.370425 
L 104.1344 270.534944 
L 106.8925 265.755659 
L 109.6506 264.584155 
L 112.4087 266.125865 
L 115.1668 268.954269 
L 117.9249 264.4992 
L 120.683 270.049998 
L 123.4411 266.77735 
L 126.1992 268.858442 
L 128.9573 270.51639 
L 131.7154 270.744346 
L 134.4735 270.14288 
L 137.2316 270.58143 
L 139.9897 270.47227 
L 142.7478 272.631893 
L 145.5059 268.086661 
L 148.264 270.248726 
L 151.0221 269.452227 
L 153.7802 271.500724 
L 156.5383 270.624674 
L 159.2964 273.619909 
L 162.0545 272.279384 
L 164.8126 273.297712 
L 167.5707 272.329879 
L 170.3288 271.00977 
L 173.0869 274.974 
L 175.845 273.007551 
L 178.6031 272.399503 
L 181.3612 275.302651 
L 184.1193 276.213051 
L 186.8774 274.445598 
L 189.6355 274.674585 
L 192.3936 275.694694 
L 195.1517 273.928642 
L 197.9098 275.539011 
L 200.6679 274.948066 
L 203.426 273.884151 
L 206.1841 274.507506 
L 208.9422 276.870247 
L 211.7003 274.018815 
L 214.4584 276.820694 
L 217.2165 277.067144 
L 219.9746 276.46381 
L 222.7327 278.178978 
L 225.4908 277.785043 
L 228.2489 277.981292 
L 231.007 279.16532 
L 233.7651 277.651405 
L 236.5232 279.215974 
L 239.2813 280.804513 
L 242.0394 279.273436 
L 244.7975 280.301084 
L 247.5556 281.681633 
L 250.3137 279.289785 
L 253.0718 281.041704 
L 255.8299 279.590102 
L 258.588 280.660902 
L 261.3461 278.208479 
L 264.1042 279.87331 
L 266.8623 281.528362 
L 269.6204 282.201646 
L 272.3785 283.974816 
L 275.1366 281.612099 
L 277.8947 281.544498 
L 280.6528 282.059643 
L 283.4109 283.151792 
L 286.169 281.888188 
L 288.9271 281.413433 
L 291.6852 283.408837 
L 294.4433 283.374134 
L 297.2014 283.00869 
L 299.9595 284.241424 
L 302.7176 282.751875 
L 305.4757 283.759023 
L 308.2338 283.584794 
L 310.9919 284.725905 
L 313.75 284.357716 
" style="fill:none;stroke:#ff7f0e;stroke-dasharray:1.75,2.8875;stroke-dashoffset:0;stroke-width:1.75;"/>
   </g>
   <g id="line2d_21">
    <path clip-path="url(#pd7e3320da3)" d="M 40.6981 148.13996 
L 43.4562 255.738062 
L 46.2143 254.744962 
L 48.9724 257.102838 
L 51.7305 257.885167 
L 54.4886 258.523423 
L 57.2467 258.018924 
L 60.0048 261.147755 
L 62.7629 260.688818 
L 65.521 262.768117 
L 68.2791 263.643846 
L 71.0372 262.56407 
L 73.7953 263.801411 
L 76.5534 265.233463 
L 79.3115 264.750471 
L 82.0696 266.125807 
L 84.8277 267.977645 
L 87.5858 268.478882 
L 90.3439 269.586926 
L 93.102 269.269251 
L 95.8601 269.793938 
L 98.6182 272.628199 
L 101.3763 272.74564 
L 104.1344 273.372773 
L 106.8925 274.64956 
L 109.6506 276.357321 
L 112.4087 275.371937 
L 115.1668 276.827373 
L 117.9249 278.163208 
L 120.683 278.847009 
L 123.4411 279.051722 
L 126.1992 280.074879 
L 128.9573 280.818106 
L 131.7154 279.847613 
L 134.4735 281.723613 
L 137.2316 283.69474 
L 139.9897 281.382592 
L 142.7478 283.230063 
L 145.5059 284.383319 
L 148.264 284.945086 
L 151.0221 285.84131 
L 153.7802 285.892812 
L 156.5383 287.193927 
L 159.2964 287.985782 
L 162.0545 288.249545 
L 164.8126 288.825341 
L 167.5707 289.208774 
L 170.3288 289.22399 
L 173.0869 290.112184 
L 175.845 290.935364 
L 178.6031 291.469932 
L 181.3612 290.847148 
L 184.1193 292.362966 
L 186.8774 293.093363 
L 189.6355 292.939283 
L 192.3936 293.742791 
L 195.1517 294.003253 
L 197.9098 294.259044 
L 200.6679 295.28512 
L 203.426 295.277583 
L 206.1841 295.604089 
L 208.9422 296.257102 
L 211.7003 296.943716 
L 214.4584 296.976827 
L 217.2165 297.833549 
L 219.9746 297.618404 
L 222.7327 298.288268 
L 225.4908 298.138662 
L 228.2489 298.698593 
L 231.007 298.858111 
L 233.7651 299.682083 
L 236.5232 299.746423 
L 239.2813 300.140105 
L 242.0394 300.300473 
L 244.7975 300.60424 
L 247.5556 300.532692 
L 250.3137 301.037592 
L 253.0718 301.26483 
L 255.8299 301.423806 
L 258.588 301.237676 
L 261.3461 301.812869 
L 264.1042 302.057952 
L 266.8623 302.535496 
L 269.6204 302.671095 
L 272.3785 302.982371 
L 275.1366 302.954275 
L 277.8947 303.238683 
L 280.6528 303.338685 
L 283.4109 303.476556 
L 286.169 303.62371 
L 288.9271 303.798824 
L 291.6852 303.905492 
L 294.4433 304.105388 
L 297.2014 304.228892 
L 299.9595 304.307764 
L 302.7176 304.424549 
L 305.4757 304.551531 
L 308.2338 304.62276 
L 310.9919 304.556136 
L 313.75 304.74 
" style="fill:none;stroke:#2ca02c;stroke-dasharray:1.75,2.8875;stroke-dashoffset:0;stroke-width:1.75;"/>
   </g>
   <g id="line2d_22">
    <path clip-path="url(#pd7e3320da3)" d="M 40.6981 229.654578 
L 43.4562 279.411624 
L 46.2143 287.643164 
L 48.9724 292.596778 
L 51.7305 290.807496 
L 54.4886 293.429254 
L 57.2467 295.627238 
L 60.0048 295.766617 
L 62.7629 298.364622 
L 65.521 297.030462 
L 68.2791 297.349877 
L 71.0372 299.434645 
L 73.7953 298.407355 
L 76.5534 296.068925 
L 79.3115 299.382409 
L 82.0696 298.580439 
L 84.8277 297.114552 
L 87.5858 300.214348 
L 90.3439 296.86927 
L 93.102 299.624556 
L 95.8601 297.585996 
L 98.6182 300.296042 
L 101.3763 298.145716 
L 104.1344 299.59953 
L 106.8925 299.5827 
L 109.6506 300.595117 
L 112.4087 300.262749 
L 115.1668 299.992781 
L 117.9249 298.396532 
L 120.683 299.625872 
L 123.4411 299.289017 
L 126.1992 300.194951 
L 128.9573 300.750639 
L 131.7154 299.777921 
L 134.4735 301.297614 
L 137.2316 300.223252 
L 139.9897 300.672567 
L 142.7478 301.07051 
L 145.5059 301.833477 
L 148.264 301.724597 
L 151.0221 300.636809 
L 153.7802 300.941155 
L 156.5383 302.016624 
L 159.2964 301.216698 
L 162.0545 300.618574 
L 164.8126 301.128824 
L 167.5707 302.083524 
L 170.3288 300.798762 
L 173.0869 301.631534 
L 175.845 300.167389 
L 178.6031 299.346675 
L 181.3612 300.398097 
L 184.1193 301.649606 
L 186.8774 300.258879 
L 189.6355 301.881736 
L 192.3936 301.248071 
L 195.1517 301.079081 
L 197.9098 301.281957 
L 200.6679 301.319081 
L 203.426 301.060402 
L 206.1841 301.571205 
L 208.9422 300.926369 
L 211.7003 300.468176 
L 214.4584 301.422797 
L 217.2165 300.057685 
L 219.9746 300.814006 
L 222.7327 300.714065 
L 225.4908 300.454602 
L 228.2489 299.700083 
L 231.007 301.105193 
L 233.7651 300.671922 
L 236.5232 301.363183 
L 239.2813 299.970332 
L 242.0394 301.564994 
L 244.7975 299.531632 
L 247.5556 300.843339 
L 250.3137 301.578682 
L 253.0718 300.916339 
L 255.8299 299.717191 
L 258.588 299.521517 
L 261.3461 300.551275 
L 264.1042 301.498159 
L 266.8623 300.97335 
L 269.6204 300.389904 
L 272.3785 301.184 
L 275.1366 301.005113 
L 277.8947 300.546813 
L 280.6528 301.472988 
L 283.4109 301.018765 
L 286.169 301.185305 
L 288.9271 300.659282 
L 291.6852 301.614738 
L 294.4433 301.765125 
L 297.2014 301.235893 
L 299.9595 301.162466 
L 302.7176 301.436283 
L 305.4757 301.80392 
L 308.2338 301.725559 
L 310.9919 300.80879 
L 313.75 301.495383 
" style="fill:none;stroke:#d62728;stroke-dasharray:1.75,2.8875;stroke-dashoffset:0;stroke-width:1.75;"/>
   </g>
   <g id="line2d_23">
    <path clip-path="url(#pd7e3320da3)" d="M 40.6981 261.940355 
L 43.4562 259.41288 
L 46.2143 267.972274 
L 48.9724 269.345404 
L 51.7305 272.939645 
L 54.4886 274.80622 
L 57.2467 277.147284 
L 60.0048 278.801058 
L 62.7629 280.106215 
L 65.521 280.181903 
L 68.2791 280.876557 
L 71.0372 281.970081 
L 73.7953 283.375968 
L 76.5534 283.586739 
L 79.3115 285.786817 
L 82.0696 286.207404 
L 84.8277 284.747386 
L 87.5858 283.362558 
L 90.3439 287.281407 
L 93.102 285.280411 
L 95.8601 286.240036 
L 98.6182 287.132087 
L 101.3763 286.731457 
L 104.1344 287.688647 
L 106.8925 285.463309 
L 109.6506 288.068913 
L 112.4087 289.129411 
L 115.1668 288.137528 
L 117.9249 289.644617 
L 120.683 290.498212 
L 123.4411 288.339474 
L 126.1992 290.460618 
L 128.9573 289.641235 
L 131.7154 289.508409 
L 134.4735 290.080232 
L 137.2316 290.026545 
L 139.9897 290.048032 
L 142.7478 290.842448 
L 145.5059 291.639822 
L 148.264 290.478238 
L 151.0221 290.419699 
L 153.7802 292.426289 
L 156.5383 290.714911 
L 159.2964 291.696147 
L 162.0545 291.070053 
L 164.8126 291.226645 
L 167.5707 289.508673 
L 170.3288 290.037003 
L 173.0869 290.081352 
L 175.845 290.458831 
L 178.6031 291.772437 
L 181.3612 290.809537 
L 184.1193 290.424214 
L 186.8774 291.867562 
L 189.6355 290.572309 
L 192.3936 290.788984 
L 195.1517 292.278632 
L 197.9098 290.489516 
L 200.6679 288.548444 
L 203.426 288.870637 
L 206.1841 291.058675 
L 208.9422 290.012573 
L 211.7003 289.778495 
L 214.4584 288.670844 
L 217.2165 285.637609 
L 219.9746 287.032335 
L 222.7327 289.47365 
L 225.4908 290.422216 
L 228.2489 288.86643 
L 231.007 288.050604 
L 233.7651 290.42907 
L 236.5232 289.882736 
L 239.2813 290.583951 
L 242.0394 290.973341 
L 244.7975 290.650512 
L 247.5556 289.773184 
L 250.3137 290.193288 
L 253.0718 289.354253 
L 255.8299 292.068897 
L 258.588 289.520974 
L 261.3461 290.70672 
L 264.1042 291.090643 
L 266.8623 291.266978 
L 269.6204 291.025244 
L 272.3785 291.133449 
L 275.1366 289.879527 
L 277.8947 292.690479 
L 280.6528 291.559439 
L 283.4109 292.270326 
L 286.169 292.037166 
L 288.9271 292.819087 
L 291.6852 291.996018 
L 294.4433 293.105513 
L 297.2014 292.026051 
L 299.9595 291.66108 
L 302.7176 291.754966 
L 305.4757 292.795142 
L 308.2338 291.100629 
L 310.9919 292.182223 
L 313.75 292.90774 
" style="fill:none;stroke:#9467bd;stroke-dasharray:1.75,2.8875;stroke-dashoffset:0;stroke-width:1.75;"/>
   </g>
   <g id="patch_3">
    <path d="M 37.94 318.04 
L 37.94 25.44 
" style="fill:none;stroke:#cccccc;stroke-linecap:square;stroke-linejoin:miter;"/>
   </g>
   <g id="patch_4">
    <path d="M 313.75 318.04 
L 313.75 25.44 
" style="fill:none;stroke:#cccccc;stroke-linecap:square;stroke-linejoin:miter;"/>
   </g>
   <g id="patch_5">
    <path d="M 37.94 318.04 
L 313.75 318.04 
" style="fill:none;stroke:#cccccc;stroke-linecap:square;stroke-linejoin:miter;"/>
   </g>
   <g id="patch_6">
    <path d="M 37.94 25.44 
L 313.75 25.44 
" style="fill:none;stroke:#cccccc;stroke-linecap:square;stroke-linejoin:miter;"/>
   </g>
   <g id="text_21">
    <!-- Training History -->
    <defs>
     <path d="M -0.296875 72.90625 
L 61.375 72.90625 
L 61.375 64.59375 
L 35.5 64.59375 
L 35.5 0 
L 25.59375 0 
L 25.59375 64.59375 
L -0.296875 64.59375 
z
" id="DejaVuSans-54"/>
     <path d="M 41.109375 46.296875 
Q 39.59375 47.171875 37.8125 47.578125 
Q 36.03125 48 33.890625 48 
Q 26.265625 48 22.1875 43.046875 
Q 18.109375 38.09375 18.109375 28.8125 
L 18.109375 0 
L 9.078125 0 
L 9.078125 54.6875 
L 18.109375 54.6875 
L 18.109375 46.1875 
Q 20.953125 51.171875 25.484375 53.578125 
Q 30.03125 56 36.53125 56 
Q 37.453125 56 38.578125 55.875 
Q 39.703125 55.765625 41.0625 55.515625 
z
" id="DejaVuSans-72"/>
     <path d="M 34.28125 27.484375 
Q 23.390625 27.484375 19.1875 25 
Q 14.984375 22.515625 14.984375 16.5 
Q 14.984375 11.71875 18.140625 8.90625 
Q 21.296875 6.109375 26.703125 6.109375 
Q 34.1875 6.109375 38.703125 11.40625 
Q 43.21875 16.703125 43.21875 25.484375 
L 43.21875 27.484375 
z
M 52.203125 31.203125 
L 52.203125 0 
L 43.21875 0 
L 43.21875 8.296875 
Q 40.140625 3.328125 35.546875 0.953125 
Q 30.953125 -1.421875 24.3125 -1.421875 
Q 15.921875 -1.421875 10.953125 3.296875 
Q 6 8.015625 6 15.921875 
Q 6 25.140625 12.171875 29.828125 
Q 18.359375 34.515625 30.609375 34.515625 
L 43.21875 34.515625 
L 43.21875 35.40625 
Q 43.21875 41.609375 39.140625 45 
Q 35.0625 48.390625 27.6875 48.390625 
Q 23 48.390625 18.546875 47.265625 
Q 14.109375 46.140625 10.015625 43.890625 
L 10.015625 52.203125 
Q 14.9375 54.109375 19.578125 55.046875 
Q 24.21875 56 28.609375 56 
Q 40.484375 56 46.34375 49.84375 
Q 52.203125 43.703125 52.203125 31.203125 
z
" id="DejaVuSans-61"/>
     <path d="M 9.421875 54.6875 
L 18.40625 54.6875 
L 18.40625 0 
L 9.421875 0 
z
M 9.421875 75.984375 
L 18.40625 75.984375 
L 18.40625 64.59375 
L 9.421875 64.59375 
z
" id="DejaVuSans-69"/>
     <path d="M 54.890625 33.015625 
L 54.890625 0 
L 45.90625 0 
L 45.90625 32.71875 
Q 45.90625 40.484375 42.875 44.328125 
Q 39.84375 48.1875 33.796875 48.1875 
Q 26.515625 48.1875 22.3125 43.546875 
Q 18.109375 38.921875 18.109375 30.90625 
L 18.109375 0 
L 9.078125 0 
L 9.078125 54.6875 
L 18.109375 54.6875 
L 18.109375 46.1875 
Q 21.34375 51.125 25.703125 53.5625 
Q 30.078125 56 35.796875 56 
Q 45.21875 56 50.046875 50.171875 
Q 54.890625 44.34375 54.890625 33.015625 
z
" id="DejaVuSans-6e"/>
     <path d="M 45.40625 27.984375 
Q 45.40625 37.75 41.375 43.109375 
Q 37.359375 48.484375 30.078125 48.484375 
Q 22.859375 48.484375 18.828125 43.109375 
Q 14.796875 37.75 14.796875 27.984375 
Q 14.796875 18.265625 18.828125 12.890625 
Q 22.859375 7.515625 30.078125 7.515625 
Q 37.359375 7.515625 41.375 12.890625 
Q 45.40625 18.265625 45.40625 27.984375 
z
M 54.390625 6.78125 
Q 54.390625 -7.171875 48.1875 -13.984375 
Q 42 -20.796875 29.203125 -20.796875 
Q 24.46875 -20.796875 20.265625 -20.09375 
Q 16.0625 -19.390625 12.109375 -17.921875 
L 12.109375 -9.1875 
Q 16.0625 -11.328125 19.921875 -12.34375 
Q 23.78125 -13.375 27.78125 -13.375 
Q 36.625 -13.375 41.015625 -8.765625 
Q 45.40625 -4.15625 45.40625 5.171875 
L 45.40625 9.625 
Q 42.625 4.78125 38.28125 2.390625 
Q 33.9375 0 27.875 0 
Q 17.828125 0 11.671875 7.65625 
Q 5.515625 15.328125 5.515625 27.984375 
Q 5.515625 40.671875 11.671875 48.328125 
Q 17.828125 56 27.875 56 
Q 33.9375 56 38.28125 53.609375 
Q 42.625 51.21875 45.40625 46.390625 
L 45.40625 54.6875 
L 54.390625 54.6875 
z
" id="DejaVuSans-67"/>
     <path id="DejaVuSans-20"/>
     <path d="M 9.8125 72.90625 
L 19.671875 72.90625 
L 19.671875 43.015625 
L 55.515625 43.015625 
L 55.515625 72.90625 
L 65.375 72.90625 
L 65.375 0 
L 55.515625 0 
L 55.515625 34.71875 
L 19.671875 34.71875 
L 19.671875 0 
L 9.8125 0 
z
" id="DejaVuSans-48"/>
     <path d="M 18.3125 70.21875 
L 18.3125 54.6875 
L 36.8125 54.6875 
L 36.8125 47.703125 
L 18.3125 47.703125 
L 18.3125 18.015625 
Q 18.3125 11.328125 20.140625 9.421875 
Q 21.96875 7.515625 27.59375 7.515625 
L 36.8125 7.515625 
L 36.8125 0 
L 27.59375 0 
Q 17.1875 0 13.234375 3.875 
Q 9.28125 7.765625 9.28125 18.015625 
L 9.28125 47.703125 
L 2.6875 47.703125 
L 2.6875 54.6875 
L 9.28125 54.6875 
L 9.28125 70.21875 
z
" id="DejaVuSans-74"/>
     <path d="M 32.171875 -5.078125 
Q 28.375 -14.84375 24.75 -17.8125 
Q 21.140625 -20.796875 15.09375 -20.796875 
L 7.90625 -20.796875 
L 7.90625 -13.28125 
L 13.1875 -13.28125 
Q 16.890625 -13.28125 18.9375 -11.515625 
Q 21 -9.765625 23.484375 -3.21875 
L 25.09375 0.875 
L 2.984375 54.6875 
L 12.5 54.6875 
L 29.59375 11.921875 
L 46.6875 54.6875 
L 56.203125 54.6875 
z
" id="DejaVuSans-79"/>
    </defs>
    <g style="fill:#262626;" transform="translate(128.049375 19.44)scale(0.12 -0.12)">
     <use xlink:href="#DejaVuSans-54"/>
     <use x="60.865234" xlink:href="#DejaVuSans-72"/>
     <use x="101.978516" xlink:href="#DejaVuSans-61"/>
     <use x="163.257812" xlink:href="#DejaVuSans-69"/>
     <use x="191.041016" xlink:href="#DejaVuSans-6e"/>
     <use x="254.419922" xlink:href="#DejaVuSans-69"/>
     <use x="282.203125" xlink:href="#DejaVuSans-6e"/>
     <use x="345.582031" xlink:href="#DejaVuSans-67"/>
     <use x="409.058594" xlink:href="#DejaVuSans-20"/>
     <use x="440.845703" xlink:href="#DejaVuSans-48"/>
     <use x="516.041016" xlink:href="#DejaVuSans-69"/>
     <use x="543.824219" xlink:href="#DejaVuSans-73"/>
     <use x="595.923828" xlink:href="#DejaVuSans-74"/>
     <use x="635.132812" xlink:href="#DejaVuSans-6f"/>
     <use x="696.314453" xlink:href="#DejaVuSans-72"/>
     <use x="737.427734" xlink:href="#DejaVuSans-79"/>
    </g>
   </g>
  </g>
  <g id="axes_2">
   <g id="matplotlib.axis_3">
    <g id="ytick_8">
     <g id="line2d_24"/>
     <g id="text_22">
      <!-- 0.0 -->
      <defs>
       <path d="M 10.6875 12.40625 
L 21 12.40625 
L 21 0 
L 10.6875 0 
z
" id="DejaVuSans-2e"/>
      </defs>
      <g style="fill:#262626;" transform="translate(320.75 321.839219)scale(0.1 -0.1)">
       <use xlink:href="#DejaVuSans-30"/>
       <use x="63.623047" xlink:href="#DejaVuSans-2e"/>
       <use x="95.410156" xlink:href="#DejaVuSans-30"/>
      </g>
     </g>
    </g>
    <g id="ytick_9">
     <g id="line2d_25"/>
     <g id="text_23">
      <!-- 0.2 -->
      <g style="fill:#262626;" transform="translate(320.75 263.319219)scale(0.1 -0.1)">
       <use xlink:href="#DejaVuSans-30"/>
       <use x="63.623047" xlink:href="#DejaVuSans-2e"/>
       <use x="95.410156" xlink:href="#DejaVuSans-32"/>
      </g>
     </g>
    </g>
    <g id="ytick_10">
     <g id="line2d_26"/>
     <g id="text_24">
      <!-- 0.4 -->
      <g style="fill:#262626;" transform="translate(320.75 204.799219)scale(0.1 -0.1)">
       <use xlink:href="#DejaVuSans-30"/>
       <use x="63.623047" xlink:href="#DejaVuSans-2e"/>
       <use x="95.410156" xlink:href="#DejaVuSans-34"/>
      </g>
     </g>
    </g>
    <g id="ytick_11">
     <g id="line2d_27"/>
     <g id="text_25">
      <!-- 0.6 -->
      <g style="fill:#262626;" transform="translate(320.75 146.279219)scale(0.1 -0.1)">
       <use xlink:href="#DejaVuSans-30"/>
       <use x="63.623047" xlink:href="#DejaVuSans-2e"/>
       <use x="95.410156" xlink:href="#DejaVuSans-36"/>
      </g>
     </g>
    </g>
    <g id="ytick_12">
     <g id="line2d_28"/>
     <g id="text_26">
      <!-- 0.8 -->
      <g style="fill:#262626;" transform="translate(320.75 87.759219)scale(0.1 -0.1)">
       <use xlink:href="#DejaVuSans-30"/>
       <use x="63.623047" xlink:href="#DejaVuSans-2e"/>
       <use x="95.410156" xlink:href="#DejaVuSans-38"/>
      </g>
     </g>
    </g>
    <g id="ytick_13">
     <g id="line2d_29"/>
     <g id="text_27">
      <!-- 1.0 -->
      <g style="fill:#262626;" transform="translate(320.75 29.239219)scale(0.1 -0.1)">
       <use xlink:href="#DejaVuSans-31"/>
       <use x="63.623047" xlink:href="#DejaVuSans-2e"/>
       <use x="95.410156" xlink:href="#DejaVuSans-30"/>
      </g>
     </g>
    </g>
    <g id="text_28">
     <!-- Accuracy -->
     <defs>
      <path d="M 34.1875 63.1875 
L 20.796875 26.90625 
L 47.609375 26.90625 
z
M 28.609375 72.90625 
L 39.796875 72.90625 
L 67.578125 0 
L 57.328125 0 
L 50.6875 18.703125 
L 17.828125 18.703125 
L 11.1875 0 
L 0.78125 0 
z
" id="DejaVuSans-41"/>
      <path d="M 8.5 21.578125 
L 8.5 54.6875 
L 17.484375 54.6875 
L 17.484375 21.921875 
Q 17.484375 14.15625 20.5 10.265625 
Q 23.53125 6.390625 29.59375 6.390625 
Q 36.859375 6.390625 41.078125 11.03125 
Q 45.3125 15.671875 45.3125 23.6875 
L 45.3125 54.6875 
L 54.296875 54.6875 
L 54.296875 0 
L 45.3125 0 
L 45.3125 8.40625 
Q 42.046875 3.421875 37.71875 1 
Q 33.40625 -1.421875 27.6875 -1.421875 
Q 18.265625 -1.421875 13.375 4.4375 
Q 8.5 10.296875 8.5 21.578125 
z
M 31.109375 56 
z
" id="DejaVuSans-75"/>
     </defs>
     <g style="fill:#262626;" transform="translate(349.011406 196.946328)rotate(-90)scale(0.11 -0.11)">
      <use xlink:href="#DejaVuSans-41"/>
      <use x="68.392578" xlink:href="#DejaVuSans-63"/>
      <use x="123.373047" xlink:href="#DejaVuSans-63"/>
      <use x="178.353516" xlink:href="#DejaVuSans-75"/>
      <use x="241.732422" xlink:href="#DejaVuSans-72"/>
      <use x="282.845703" xlink:href="#DejaVuSans-61"/>
      <use x="344.125" xlink:href="#DejaVuSans-63"/>
      <use x="399.105469" xlink:href="#DejaVuSans-79"/>
     </g>
    </g>
   </g>
   <g id="line2d_30">
    <path clip-path="url(#pd7e3320da3)" d="M 40.6981 51.248422 
L 43.4562 47.366036 
L 46.2143 36.951129 
L 48.9724 35.965329 
L 51.7305 34.533041 
L 54.4886 34.051344 
L 57.2467 33.934519 
L 60.0048 34.697874 
L 62.7629 33.915316 
L 65.521 33.614455 
L 68.2791 33.188768 
L 71.0372 33.337598 
L 73.7953 32.289386 
L 76.5534 32.820692 
L 79.3115 32.50703 
L 82.0696 33.292789 
L 84.8277 33.363203 
L 87.5858 32.060539 
L 90.3439 32.476624 
L 93.102 32.662261 
L 95.8601 32.385407 
L 98.6182 32.643058 
L 101.3763 32.427013 
L 104.1344 32.467022 
L 106.8925 32.290985 
L 109.6506 32.222173 
L 112.4087 32.318192 
L 115.1668 32.390205 
L 117.9249 35.517239 
L 120.683 41.771303 
L 123.4411 37.818505 
L 126.1992 36.490236 
L 128.9573 33.793691 
L 131.7154 33.649661 
L 134.4735 33.191969 
L 137.2316 32.90391 
L 139.9897 34.745884 
L 142.7478 33.451221 
L 145.5059 33.062342 
L 148.264 32.991928 
L 151.0221 32.774283 
L 153.7802 32.934316 
L 156.5383 32.788686 
L 159.2964 32.723074 
L 162.0545 32.716672 
L 164.8126 35.006737 
L 167.5707 35.299595 
L 170.3288 39.164377 
L 173.0869 36.557449 
L 175.845 35.051545 
L 178.6031 33.824096 
L 181.3612 33.982529 
L 184.1193 33.212773 
L 186.8774 33.169564 
L 189.6355 32.723074 
L 192.3936 32.958322 
L 195.1517 32.767883 
L 197.9098 32.540636 
L 200.6679 32.638257 
L 203.426 32.465422 
L 206.1841 32.467022 
L 208.9422 32.647858 
L 211.7003 32.791887 
L 214.4584 32.711871 
L 217.2165 32.782286 
L 219.9746 32.369402 
L 222.7327 32.678264 
L 225.4908 32.55504 
L 228.2489 33.64006 
L 231.007 35.021138 
L 233.7651 41.528055 
L 236.5232 35.942924 
L 239.2813 33.856102 
L 242.0394 33.060741 
L 244.7975 33.377606 
L 247.5556 33.047939 
L 250.3137 33.233577 
L 253.0718 32.884707 
L 255.8299 32.623853 
L 258.588 32.428613 
L 261.3461 32.46222 
L 264.1042 32.598248 
L 266.8623 32.65746 
L 269.6204 32.742277 
L 272.3785 32.828695 
L 275.1366 32.350198 
L 277.8947 32.623853 
L 280.6528 32.40781 
L 283.4109 42.105772 
L 286.169 34.918718 
L 288.9271 33.456022 
L 291.6852 33.275186 
L 294.4433 32.926315 
L 297.2014 32.841498 
L 299.9595 32.835096 
L 302.7176 32.767883 
L 305.4757 32.3598 
L 308.2338 32.879905 
L 310.9919 32.60945 
L 313.75 32.540636 
" style="fill:none;stroke:#1f77b4;stroke-dasharray:6.475,2.8;stroke-dashoffset:0;stroke-width:1.75;"/>
   </g>
   <g id="line2d_31">
    <path clip-path="url(#pd7e3320da3)" d="M 40.6981 25.88009 
L 43.4562 26.502617 
L 46.2143 28.435806 
L 48.9724 27.675653 
L 51.7305 27.049927 
L 54.4886 26.550625 
L 57.2467 26.480211 
L 60.0048 26.240162 
L 62.7629 26.888293 
L 65.521 26.315378 
L 68.2791 26.313777 
L 71.0372 26.044923 
L 73.7953 26.083331 
L 76.5534 26.190552 
L 79.3115 26.144143 
L 82.0696 26.704257 
L 84.8277 26.923501 
L 87.5858 26.877092 
L 90.3439 26.400195 
L 93.102 26.28017 
L 95.8601 26.164947 
L 98.6182 26.003313 
L 101.3763 26.062526 
L 104.1344 26.011315 
L 106.8925 25.841682 
L 109.6506 25.793671 
L 112.4087 25.724857 
L 115.1668 25.776068 
L 117.9249 25.576028 
L 120.683 25.574427 
L 123.4411 25.563225 
L 126.1992 25.801673 
L 128.9573 26.144143 
L 131.7154 26.260968 
L 134.4735 26.115338 
L 137.2316 26.232161 
L 139.9897 26.66905 
L 142.7478 26.941105 
L 145.5059 28.387797 
L 148.264 27.117139 
L 151.0221 26.27377 
L 153.7802 26.18095 
L 156.5383 31.878102 
L 159.2964 33.310393 
L 162.0545 31.455617 
L 164.8126 28.919104 
L 167.5707 26.987514 
L 170.3288 29.530427 
L 173.0869 30.820289 
L 175.845 30.813887 
L 178.6031 29.684058 
L 181.3612 30.601044 
L 184.1193 29.09354 
L 186.8774 28.9031 
L 189.6355 27.845287 
L 192.3936 28.083736 
L 195.1517 27.080333 
L 197.9098 26.814678 
L 200.6679 26.661048 
L 203.426 26.204954 
L 206.1841 26.57783 
L 208.9422 26.629042 
L 211.7003 26.308976 
L 214.4584 27.045125 
L 217.2165 30.8779 
L 219.9746 30.148153 
L 222.7327 35.854907 
L 225.4908 35.038742 
L 228.2489 31.402805 
L 231.007 29.664855 
L 233.7651 30.754675 
L 236.5232 29.780078 
L 239.2813 28.523823 
L 242.0394 27.632443 
L 244.7975 27.091535 
L 247.5556 27.000316 
L 250.3137 27.085133 
L 253.0718 27.075531 
L 255.8299 26.982714 
L 258.588 28.856691 
L 261.3461 48.078181 
L 264.1042 41.654481 
L 266.8623 36.631065 
L 269.6204 35.061147 
L 272.3785 37.460034 
L 275.1366 33.123155 
L 277.8947 30.962716 
L 280.6528 29.804082 
L 283.4109 29.301581 
L 286.169 29.019926 
L 288.9271 28.229365 
L 291.6852 28.093337 
L 294.4433 27.432404 
L 297.2014 27.16355 
L 299.9595 27.152347 
L 302.7176 26.837083 
L 305.4757 27.949308 
L 308.2338 30.889103 
L 310.9919 30.43141 
L 313.75 30.849095 
" style="fill:none;stroke:#1f77b4;stroke-linecap:round;stroke-width:1.75;"/>
   </g>
   <g id="line2d_32">
    <path clip-path="url(#pd7e3320da3)" d="M 40.6981 32.912563 
L 43.4562 30.554394 
L 46.2143 30.144278 
L 48.9724 29.854784 
L 51.7305 29.731146 
L 54.4886 29.643694 
L 57.2467 29.592429 
L 60.0048 29.507993 
L 62.7629 29.507993 
L 65.521 29.489901 
L 68.2791 29.51704 
L 71.0372 29.544181 
L 73.7953 29.604492 
L 76.5534 29.523072 
L 79.3115 29.492916 
L 82.0696 29.59846 
L 84.8277 29.67385 
L 87.5858 29.758285 
L 90.3439 41.947188 
L 93.102 32.981921 
L 95.8601 31.848069 
L 98.6182 39.944855 
L 101.3763 31.817914 
L 104.1344 30.587566 
L 106.8925 30.017624 
L 109.6506 30.222682 
L 112.4087 30.071903 
L 115.1668 29.933189 
L 117.9249 29.598461 
L 120.683 29.562275 
L 123.4411 29.486885 
L 126.1992 29.480853 
L 128.9573 29.477838 
L 131.7154 29.465776 
L 134.4735 29.471807 
L 137.2316 29.450698 
L 139.9897 29.468792 
L 142.7478 29.547196 
L 145.5059 41.724037 
L 148.264 31.232896 
L 151.0221 30.304102 
L 153.7802 30.041748 
L 156.5383 29.860814 
L 159.2964 29.622585 
L 162.0545 29.507993 
L 164.8126 29.474822 
L 167.5707 29.501963 
L 170.3288 29.492916 
L 173.0869 29.411495 
L 175.845 29.501963 
L 178.6031 29.483869 
L 181.3612 29.420542 
L 184.1193 29.420543 
L 186.8774 29.486885 
L 189.6355 29.483869 
L 192.3936 29.477838 
L 195.1517 29.704005 
L 197.9098 30.261884 
L 200.6679 29.912079 
L 203.426 29.839706 
L 206.1841 46.859538 
L 208.9422 32.300404 
L 211.7003 32.164705 
L 214.4584 31.287176 
L 217.2165 31.226863 
L 219.9746 31.652058 
L 222.7327 30.270931 
L 225.4908 29.839706 
L 228.2489 29.634649 
L 231.007 29.562274 
L 233.7651 29.53815 
L 236.5232 29.607507 
L 239.2813 29.529103 
L 242.0394 29.495931 
L 244.7975 29.486885 
L 247.5556 29.468791 
L 250.3137 29.477838 
L 253.0718 29.495931 
L 255.8299 29.4899 
L 258.588 29.456729 
L 261.3461 29.468792 
L 264.1042 46.14485 
L 266.8623 56.500291 
L 269.6204 41.935126 
L 272.3785 36.154292 
L 275.1366 38.946703 
L 277.8947 33.150792 
L 280.6528 29.423558 
L 283.4109 29.079784 
L 286.169 29.004395 
L 288.9271 28.847586 
L 291.6852 29.339123 
L 294.4433 28.431438 
L 297.2014 29.194375 
L 299.9595 28.546029 
L 302.7176 29.097878 
L 305.4757 28.874726 
L 308.2338 28.778227 
L 310.9919 29.468792 
L 313.75 29.345153 
" style="fill:none;stroke:#ff7f0e;stroke-dasharray:6.475,2.8;stroke-dashoffset:0;stroke-width:1.75;"/>
   </g>
   <g id="line2d_33">
    <path clip-path="url(#pd7e3320da3)" d="M 40.6981 25.720448 
L 43.4562 25.645059 
L 46.2143 25.822976 
L 48.9724 25.958678 
L 51.7305 25.632997 
L 54.4886 25.521421 
L 57.2467 25.578716 
L 60.0048 25.666167 
L 62.7629 25.654106 
L 65.521 25.584747 
L 68.2791 25.518405 
L 71.0372 25.518405 
L 73.7953 25.51539 
L 76.5534 25.524436 
L 79.3115 25.563638 
L 82.0696 25.711401 
L 84.8277 25.75965 
L 87.5858 25.78679 
L 90.3439 25.795837 
L 93.102 25.654106 
L 95.8601 25.611888 
L 98.6182 25.596809 
L 101.3763 25.8079 
L 104.1344 25.711402 
L 106.8925 25.699338 
L 109.6506 25.73251 
L 112.4087 25.949631 
L 115.1668 25.765682 
L 117.9249 25.783774 
L 120.683 27.728811 
L 123.4411 33.569956 
L 126.1992 28.389221 
L 128.9573 27.339804 
L 131.7154 26.700506 
L 134.4735 26.157705 
L 137.2316 26.076284 
L 139.9897 25.958677 
L 142.7478 25.979786 
L 145.5059 25.940584 
L 148.264 26.028036 
L 151.0221 25.874242 
L 153.7802 25.822977 
L 156.5383 25.702354 
L 159.2964 25.614903 
L 162.0545 25.530468 
L 164.8126 25.542529 
L 167.5707 25.512374 
L 170.3288 25.509359 
L 173.0869 25.48825 
L 175.845 25.500312 
L 178.6031 25.497296 
L 181.3612 25.512374 
L 184.1193 25.524436 
L 186.8774 25.536499 
L 189.6355 25.560622 
L 192.3936 25.614903 
L 195.1517 25.560623 
L 197.9098 25.536499 
L 200.6679 25.684262 
L 203.426 25.78679 
L 206.1841 25.835039 
L 208.9422 26.899531 
L 211.7003 26.248171 
L 214.4584 25.994865 
L 217.2165 25.940584 
L 219.9746 25.907413 
L 222.7327 25.690292 
L 225.4908 25.723464 
L 228.2489 25.687277 
L 231.007 25.533483 
L 233.7651 25.488249 
L 236.5232 25.479203 
L 239.2813 25.485233 
L 242.0394 25.479203 
L 244.7975 25.461109 
L 247.5556 25.46714 
L 250.3137 25.482218 
L 253.0718 25.476187 
L 255.8299 25.470156 
L 258.588 25.506343 
L 261.3461 25.470156 
L 264.1042 25.455078 
L 266.8623 25.49428 
L 269.6204 25.639027 
L 272.3785 25.729494 
L 275.1366 25.931537 
L 277.8947 25.940584 
L 280.6528 25.768697 
L 283.4109 28.359064 
L 286.169 34.839507 
L 288.9271 30.497098 
L 291.6852 27.300602 
L 294.4433 27.020155 
L 297.2014 26.667334 
L 299.9595 26.263249 
L 302.7176 25.946615 
L 305.4757 26.022004 
L 308.2338 25.777743 
L 310.9919 25.657121 
L 313.75 25.614903 
" style="fill:none;stroke:#ff7f0e;stroke-linecap:round;stroke-width:1.75;"/>
   </g>
   <g id="line2d_34">
    <path clip-path="url(#pd7e3320da3)" d="M 40.6981 33.929623 
L 43.4562 30.955694 
L 46.2143 30.796426 
L 48.9724 30.483478 
L 51.7305 30.474164 
L 54.4886 31.880565 
L 57.2467 38.110635 
L 60.0048 31.296583 
L 62.7629 30.83275 
L 65.521 30.659512 
L 68.2791 33.625991 
L 71.0372 34.440956 
L 73.7953 31.483792 
L 76.5534 30.942654 
L 79.3115 30.686522 
L 82.0696 30.504901 
L 84.8277 30.355878 
L 87.5858 33.409907 
L 90.3439 36.229226 
L 93.102 37.481946 
L 95.8601 32.082676 
L 98.6182 31.344083 
L 101.3763 30.970596 
L 104.1344 30.688384 
L 106.8925 30.691179 
L 109.6506 30.571961 
L 112.4087 32.792396 
L 115.1668 32.76166 
L 117.9249 31.446537 
L 120.683 31.454919 
L 123.4411 30.709807 
L 126.1992 30.747062 
L 128.9573 40.231411 
L 131.7154 62.167515 
L 134.4735 40.244449 
L 137.2316 42.186398 
L 139.9897 74.082792 
L 142.7478 60.1613 
L 145.5059 47.056639 
L 148.264 71.379897 
L 151.0221 61.396323 
L 153.7802 51.201325 
L 156.5383 40.223959 
L 159.2964 35.974956 
L 162.0545 36.298149 
L 164.8126 34.4838 
L 167.5707 33.155638 
L 170.3288 33.106274 
L 173.0869 45.958529 
L 175.845 43.745545 
L 178.6031 35.721618 
L 181.3612 47.019383 
L 184.1193 35.279207 
L 186.8774 33.425741 
L 189.6355 32.608912 
L 192.3936 37.360866 
L 195.1517 38.96565 
L 197.9098 32.982399 
L 200.6679 33.018723 
L 203.426 32.892055 
L 206.1841 67.318104 
L 208.9422 43.774419 
L 211.7003 38.117153 
L 214.4584 47.632238 
L 217.2165 34.915034 
L 219.9746 41.724429 
L 222.7327 32.576312 
L 225.4908 34.039527 
L 228.2489 32.449644 
L 231.007 32.144147 
L 233.7651 31.167119 
L 236.5232 31.240699 
L 239.2813 31.139178 
L 242.0394 32.582832 
L 244.7975 32.840828 
L 247.5556 32.921859 
L 250.3137 31.510802 
L 253.0718 30.992018 
L 255.8299 30.824368 
L 258.588 41.426384 
L 261.3461 36.831835 
L 264.1042 45.416459 
L 266.8623 33.635304 
L 269.6204 32.781218 
L 272.3785 32.109687 
L 275.1366 33.870014 
L 277.8947 36.289767 
L 280.6528 31.553646 
L 283.4109 34.000409 
L 286.169 32.796122 
L 288.9271 31.600216 
L 291.6852 38.691822 
L 294.4433 31.241631 
L 297.2014 31.245356 
L 299.9595 30.891428 
L 302.7176 31.037656 
L 305.4757 30.604559 
L 308.2338 31.148492 
L 310.9919 43.960697 
L 313.75 32.363956 
" style="fill:none;stroke:#2ca02c;stroke-dasharray:6.475,2.8;stroke-dashoffset:0;stroke-width:1.75;"/>
   </g>
   <g id="line2d_35">
    <path clip-path="url(#pd7e3320da3)" d="M 40.6981 25.946678 
L 43.4562 25.674711 
L 46.2143 26.108738 
L 48.9724 27.02709 
L 51.7305 26.118053 
L 54.4886 25.844224 
L 57.2467 25.799517 
L 60.0048 25.705447 
L 62.7629 25.937363 
L 65.521 25.979276 
L 68.2791 29.291299 
L 71.0372 28.391577 
L 73.7953 27.002874 
L 76.5534 26.893901 
L 79.3115 26.529728 
L 82.0696 25.7278 
L 84.8277 25.863784 
L 87.5858 26.062169 
L 90.3439 27.071797 
L 93.102 29.618218 
L 95.8601 28.920605 
L 98.6182 26.551149 
L 101.3763 26.374185 
L 104.1344 26.417029 
L 106.8925 27.125817 
L 109.6506 26.298742 
L 112.4087 26.118053 
L 115.1668 25.782752 
L 117.9249 25.682162 
L 120.683 25.589023 
L 123.4411 25.559219 
L 126.1992 27.347487 
L 128.9573 26.57164 
L 131.7154 25.838635 
L 134.4735 25.719417 
L 137.2316 25.673779 
L 139.9897 26.164622 
L 142.7478 26.07614 
L 145.5059 25.820008 
L 148.264 25.756673 
L 151.0221 25.818145 
L 153.7802 25.733388 
L 156.5383 25.697064 
L 159.2964 25.648632 
L 162.0545 28.426969 
L 164.8126 26.82591 
L 167.5707 32.643373 
L 170.3288 34.920622 
L 173.0869 32.264297 
L 175.845 31.426977 
L 178.6031 29.689934 
L 181.3612 29.610766 
L 184.1193 29.350909 
L 186.8774 30.041068 
L 189.6355 29.404929 
L 192.3936 28.465155 
L 195.1517 27.869066 
L 197.9098 27.650189 
L 200.6679 27.347488 
L 203.426 28.25373 
L 206.1841 29.668513 
L 208.9422 30.396859 
L 211.7003 28.956929 
L 214.4584 26.935813 
L 217.2165 26.164622 
L 219.9746 26.079866 
L 222.7327 26.141337 
L 225.4908 25.999766 
L 228.2489 26.281977 
L 231.007 28.155935 
L 233.7651 27.228271 
L 236.5232 26.364871 
L 239.2813 26.053787 
L 242.0394 26.332272 
L 244.7975 26.366735 
L 247.5556 36.963161 
L 250.3137 38.356521 
L 253.0718 41.419864 
L 255.8299 42.536601 
L 258.588 40.209057 
L 261.3461 37.677538 
L 264.1042 37.104733 
L 266.8623 35.519507 
L 269.6204 42.016885 
L 272.3785 35.716961 
L 275.1366 32.974948 
L 277.8947 32.177677 
L 280.6528 34.128941 
L 283.4109 37.196009 
L 286.169 33.110931 
L 288.9271 32.899504 
L 291.6852 34.248159 
L 294.4433 34.429779 
L 297.2014 31.82468 
L 299.9595 33.969673 
L 302.7176 31.865662 
L 305.4757 31.07398 
L 308.2338 30.327937 
L 310.9919 29.410517 
L 313.75 32.496213 
" style="fill:none;stroke:#2ca02c;stroke-linecap:round;stroke-width:1.75;"/>
   </g>
   <g id="line2d_36">
    <path clip-path="url(#pd7e3320da3)" d="M 40.6981 35.340001 
L 43.4562 55.956127 
L 46.2143 80.723871 
L 48.9724 76.856127 
L 51.7305 58.901293 
L 54.4886 60.462584 
L 57.2467 52.12387 
L 60.0048 46.446449 
L 62.7629 42.862577 
L 65.521 39.527096 
L 68.2791 37.717415 
L 71.0372 36.688388 
L 73.7953 35.588392 
L 76.5534 35.162586 
L 79.3115 34.736776 
L 82.0696 34.381935 
L 84.8277 34.346448 
L 87.5858 34.310966 
L 90.3439 34.204513 
L 93.102 34.16903 
L 95.8601 34.133547 
L 98.6182 34.24 
L 101.3763 34.346453 
L 104.1344 34.310966 
L 106.8925 34.275479 
L 109.6506 34.31097 
L 112.4087 34.204513 
L 115.1668 34.275479 
L 117.9249 34.275487 
L 120.683 34.24 
L 123.4411 34.346453 
L 126.1992 34.310966 
L 128.9573 34.346453 
L 131.7154 34.16903 
L 134.4735 34.31097 
L 137.2316 34.062578 
L 139.9897 34.24 
L 142.7478 34.16903 
L 145.5059 33.991608 
L 148.264 34.09806 
L 151.0221 34.062578 
L 153.7802 34.09806 
L 156.5383 34.062578 
L 159.2964 34.027095 
L 162.0545 34.062578 
L 164.8126 34.062578 
L 167.5707 34.062578 
L 170.3288 33.991612 
L 173.0869 34.09806 
L 175.845 33.991608 
L 178.6031 34.027091 
L 181.3612 34.09806 
L 184.1193 34.062578 
L 186.8774 34.098065 
L 189.6355 34.027091 
L 192.3936 33.991608 
L 195.1517 34.062578 
L 197.9098 34.062578 
L 200.6679 34.027095 
L 203.426 34.062578 
L 206.1841 34.027095 
L 208.9422 33.991608 
L 211.7003 33.956125 
L 214.4584 33.991608 
L 217.2165 33.920642 
L 219.9746 34.062578 
L 222.7327 33.956129 
L 225.4908 33.956125 
L 228.2489 33.956125 
L 231.007 34.098065 
L 233.7651 33.88516 
L 236.5232 33.956125 
L 239.2813 34.062578 
L 242.0394 33.849677 
L 244.7975 33.991612 
L 247.5556 33.920642 
L 250.3137 34.027095 
L 253.0718 33.920642 
L 255.8299 33.956125 
L 258.588 33.956125 
L 261.3461 33.920642 
L 264.1042 33.88516 
L 266.8623 34.062578 
L 269.6204 34.062582 
L 272.3785 33.920642 
L 275.1366 33.991608 
L 277.8947 33.849677 
L 280.6528 33.991608 
L 283.4109 33.956125 
L 286.169 33.956125 
L 288.9271 34.027091 
L 291.6852 33.991612 
L 294.4433 34.062582 
L 297.2014 33.991612 
L 299.9595 33.88516 
L 302.7176 33.849677 
L 305.4757 34.098065 
L 308.2338 34.027095 
L 310.9919 34.098065 
L 313.75 33.88516 
" style="fill:none;stroke:#d62728;stroke-dasharray:6.475,2.8;stroke-dashoffset:0;stroke-width:1.75;"/>
   </g>
   <g id="line2d_37">
    <path clip-path="url(#pd7e3320da3)" d="M 40.6981 25.546453 
L 43.4562 25.51097 
L 46.2143 25.688388 
L 48.9724 25.652905 
L 51.7305 25.58194 
L 54.4886 25.44 
L 57.2467 25.475483 
L 60.0048 25.546453 
L 62.7629 25.44 
L 65.521 25.44 
L 68.2791 25.44 
L 71.0372 25.44 
L 73.7953 25.44 
L 76.5534 25.475483 
L 79.3115 25.44 
L 82.0696 25.44 
L 84.8277 25.44 
L 87.5858 25.44 
L 90.3439 25.44 
L 93.102 25.44 
L 95.8601 25.44 
L 98.6182 25.44 
L 101.3763 25.44 
L 104.1344 25.44 
L 106.8925 25.44 
L 109.6506 25.44 
L 112.4087 25.44 
L 115.1668 25.44 
L 117.9249 25.44 
L 120.683 25.44 
L 123.4411 25.44 
L 126.1992 25.44 
L 128.9573 25.44 
L 131.7154 25.44 
L 134.4735 25.44 
L 137.2316 25.44 
L 139.9897 25.44 
L 142.7478 25.475483 
L 145.5059 25.44 
L 148.264 25.44 
L 151.0221 25.44 
L 153.7802 25.44 
L 156.5383 25.44 
L 159.2964 25.475483 
L 162.0545 25.546453 
L 164.8126 25.475483 
L 167.5707 25.44 
L 170.3288 25.44 
L 173.0869 25.44 
L 175.845 25.475483 
L 178.6031 25.475483 
L 181.3612 25.936776 
L 184.1193 25.901293 
L 186.8774 26.823871 
L 189.6355 29.201289 
L 192.3936 28.598065 
L 195.1517 26.256129 
L 197.9098 26.149681 
L 200.6679 25.723875 
L 203.426 25.510966 
L 206.1841 25.44 
L 208.9422 25.44 
L 211.7003 25.44 
L 214.4584 25.44 
L 217.2165 25.44 
L 219.9746 25.44 
L 222.7327 25.44 
L 225.4908 25.44 
L 228.2489 25.44 
L 231.007 25.44 
L 233.7651 28.349683 
L 236.5232 36.723871 
L 239.2813 36.049679 
L 242.0394 33.778709 
L 244.7975 33.956127 
L 247.5556 31.969031 
L 250.3137 33.814196 
L 253.0718 30.017418 
L 255.8299 31.081937 
L 258.588 32.04 
L 261.3461 30.478708 
L 264.1042 33.778713 
L 266.8623 32.32387 
L 269.6204 33.246448 
L 272.3785 30.940001 
L 275.1366 29.449675 
L 277.8947 32.039993 
L 280.6528 29.023872 
L 283.4109 32.430321 
L 286.169 31.969032 
L 288.9271 31.507738 
L 291.6852 30.19484 
L 294.4433 28.598071 
L 297.2014 28.952899 
L 299.9595 28.881934 
L 302.7176 31.436773 
L 305.4757 31.152898 
L 308.2338 28.63355 
L 310.9919 28.278712 
L 313.75 29.343226 
" style="fill:none;stroke:#d62728;stroke-linecap:round;stroke-width:1.75;"/>
   </g>
   <g id="line2d_38">
    <path clip-path="url(#pd7e3320da3)" d="M 40.6981 35.296711 
L 43.4562 32.195422 
L 46.2143 28.055873 
L 48.9724 28.298583 
L 51.7305 27.880581 
L 54.4886 27.826646 
L 57.2467 27.381678 
L 60.0048 27.273805 
L 62.7629 27.233355 
L 65.521 27.17942 
L 68.2791 27.287292 
L 71.0372 27.192903 
L 73.7953 27.165935 
L 76.5534 27.192903 
L 79.3115 27.597418 
L 82.0696 27.395163 
L 84.8277 27.503034 
L 87.5858 28.109806 
L 90.3439 27.705291 
L 93.102 27.368193 
L 95.8601 27.368195 
L 98.6182 27.233357 
L 101.3763 27.219873 
L 104.1344 27.165935 
L 106.8925 27.138968 
L 109.6506 27.138968 
L 112.4087 27.152451 
L 115.1668 27.138968 
L 117.9249 27.152451 
L 120.683 27.138968 
L 123.4411 27.138968 
L 126.1992 27.138968 
L 128.9573 27.138968 
L 131.7154 27.138968 
L 134.4735 27.152451 
L 137.2316 27.138968 
L 139.9897 27.138968 
L 142.7478 27.152451 
L 145.5059 27.138968 
L 148.264 27.138968 
L 151.0221 27.152453 
L 153.7802 27.165936 
L 156.5383 27.152452 
L 159.2964 27.125484 
L 162.0545 27.138968 
L 164.8126 27.138968 
L 167.5707 27.138968 
L 170.3288 64.489288 
L 173.0869 61.293612 
L 175.845 40.016069 
L 178.6031 47.149034 
L 181.3612 44.465741 
L 184.1193 45.274777 
L 186.8774 34.460708 
L 189.6355 33.584257 
L 192.3936 31.062774 
L 195.1517 27.77271 
L 197.9098 27.732258 
L 200.6679 27.476064 
L 203.426 27.341226 
L 206.1841 27.368194 
L 208.9422 39.530647 
L 211.7003 75.276387 
L 214.4584 53.904449 
L 217.2165 41.688064 
L 219.9746 34.420259 
L 222.7327 31.750451 
L 225.4908 29.984062 
L 228.2489 29.09413 
L 231.007 28.244647 
L 233.7651 28.150261 
L 236.5232 28.04239 
L 239.2813 27.894065 
L 242.0394 27.624389 
L 244.7975 27.530001 
L 247.5556 27.435615 
L 250.3137 27.300774 
L 253.0718 27.206386 
L 255.8299 27.233355 
L 258.588 27.233355 
L 261.3461 27.206387 
L 264.1042 27.246839 
L 266.8623 27.17942 
L 269.6204 27.125485 
L 272.3785 27.192905 
L 275.1366 27.125485 
L 277.8947 27.206389 
L 280.6528 27.125482 
L 283.4109 27.17942 
L 286.169 27.138967 
L 288.9271 27.098515 
L 291.6852 27.125482 
L 294.4433 27.098515 
L 297.2014 27.125482 
L 299.9595 27.138966 
L 302.7176 27.125483 
L 305.4757 27.125482 
L 308.2338 27.165935 
L 310.9919 27.085031 
L 313.75 27.138966 
" style="fill:none;stroke:#9467bd;stroke-dasharray:6.475,2.8;stroke-dashoffset:0;stroke-width:1.75;"/>
   </g>
   <g id="line2d_39">
    <path clip-path="url(#pd7e3320da3)" d="M 40.6981 25.642259 
L 43.4562 26.168132 
L 46.2143 26.518709 
L 48.9724 25.884969 
L 51.7305 25.723162 
L 54.4886 25.750129 
L 57.2467 25.615291 
L 60.0048 25.709676 
L 62.7629 25.911935 
L 65.521 25.965872 
L 68.2791 25.871485 
L 71.0372 25.61529 
L 73.7953 25.736646 
L 76.5534 26.033291 
L 79.3115 25.884967 
L 82.0696 25.804065 
L 84.8277 25.884969 
L 87.5858 25.777096 
L 90.3439 25.628775 
L 93.102 25.480452 
L 95.8601 25.453483 
L 98.6182 25.44 
L 101.3763 25.44 
L 104.1344 25.44 
L 106.8925 25.44 
L 109.6506 25.44 
L 112.4087 25.44 
L 115.1668 25.44 
L 117.9249 25.44 
L 120.683 25.44 
L 123.4411 25.44 
L 126.1992 25.44 
L 128.9573 25.44 
L 131.7154 25.44 
L 134.4735 25.44 
L 137.2316 25.44 
L 139.9897 25.44 
L 142.7478 25.44 
L 145.5059 25.44 
L 148.264 25.44 
L 151.0221 25.44 
L 153.7802 25.44 
L 156.5383 25.44 
L 159.2964 25.44 
L 162.0545 25.44 
L 164.8126 25.44 
L 167.5707 25.480452 
L 170.3288 25.44 
L 173.0869 25.453483 
L 175.845 25.44 
L 178.6031 25.44 
L 181.3612 25.44 
L 184.1193 25.44 
L 186.8774 25.44 
L 189.6355 25.44 
L 192.3936 25.911935 
L 195.1517 27.705293 
L 197.9098 28.932319 
L 200.6679 28.743548 
L 203.426 27.179418 
L 206.1841 27.381678 
L 208.9422 27.435613 
L 211.7003 26.828841 
L 214.4584 26.667037 
L 217.2165 26.80187 
L 219.9746 27.031096 
L 222.7327 27.287293 
L 225.4908 26.410837 
L 228.2489 26.329936 
L 231.007 26.073743 
L 233.7651 26.30297 
L 236.5232 25.992838 
L 239.2813 25.925418 
L 242.0394 25.871484 
L 244.7975 27.07155 
L 247.5556 27.476063 
L 250.3137 27.314258 
L 253.0718 27.678322 
L 255.8299 27.381678 
L 258.588 26.855807 
L 261.3461 26.545676 
L 264.1042 26.370386 
L 266.8623 26.168131 
L 269.6204 26.168129 
L 272.3785 26.073742 
L 275.1366 25.965871 
L 277.8947 25.92542 
L 280.6528 26.127677 
L 283.4109 25.804065 
L 286.169 25.750129 
L 288.9271 25.831031 
L 291.6852 25.763613 
L 294.4433 26.073742 
L 297.2014 25.763613 
L 299.9595 26.03329 
L 302.7176 25.790581 
L 305.4757 26.019806 
L 308.2338 26.168129 
L 310.9919 25.790581 
L 313.75 25.925419 
" style="fill:none;stroke:#9467bd;stroke-linecap:round;stroke-width:1.75;"/>
   </g>
   <g id="patch_7">
    <path d="M 37.94 318.04 
L 37.94 25.44 
" style="fill:none;stroke:#cccccc;stroke-linecap:square;stroke-linejoin:miter;"/>
   </g>
   <g id="patch_8">
    <path d="M 313.75 318.04 
L 313.75 25.44 
" style="fill:none;stroke:#cccccc;stroke-linecap:square;stroke-linejoin:miter;"/>
   </g>
   <g id="patch_9">
    <path d="M 37.94 318.04 
L 313.75 318.04 
" style="fill:none;stroke:#cccccc;stroke-linecap:square;stroke-linejoin:miter;"/>
   </g>
   <g id="patch_10">
    <path d="M 37.94 25.44 
L 313.75 25.44 
" style="fill:none;stroke:#cccccc;stroke-linecap:square;stroke-linejoin:miter;"/>
   </g>
   <g id="legend_1">
    <g id="patch_11">
     <path d="M 196.670312 283.325938 
L 306.75 283.325938 
Q 308.75 283.325938 308.75 281.325938 
L 308.75 62.154063 
Q 308.75 60.154063 306.75 60.154063 
L 196.670312 60.154063 
Q 194.670312 60.154063 194.670312 62.154063 
L 194.670312 281.325938 
Q 194.670312 283.325938 196.670312 283.325938 
z
" style="fill:#ffffff;opacity:0.8;stroke:#cccccc;stroke-linejoin:miter;stroke-width:0.3;"/>
    </g>
    <g id="line2d_40">
     <path d="M 198.670312 68.2525 
L 218.670312 68.2525 
" style="fill:none;stroke:#1f77b4;stroke-dasharray:1.75,2.8875;stroke-dashoffset:0;stroke-width:1.75;"/>
    </g>
    <g id="line2d_41"/>
    <g id="text_29">
     <!--    qspr viscosity -->
     <defs>
      <path d="M 14.796875 27.296875 
Q 14.796875 17.390625 18.875 11.75 
Q 22.953125 6.109375 30.078125 6.109375 
Q 37.203125 6.109375 41.296875 11.75 
Q 45.40625 17.390625 45.40625 27.296875 
Q 45.40625 37.203125 41.296875 42.84375 
Q 37.203125 48.484375 30.078125 48.484375 
Q 22.953125 48.484375 18.875 42.84375 
Q 14.796875 37.203125 14.796875 27.296875 
z
M 45.40625 8.203125 
Q 42.578125 3.328125 38.25 0.953125 
Q 33.9375 -1.421875 27.875 -1.421875 
Q 17.96875 -1.421875 11.734375 6.484375 
Q 5.515625 14.40625 5.515625 27.296875 
Q 5.515625 40.1875 11.734375 48.09375 
Q 17.96875 56 27.875 56 
Q 33.9375 56 38.25 53.625 
Q 42.578125 51.265625 45.40625 46.390625 
L 45.40625 54.6875 
L 54.390625 54.6875 
L 54.390625 -20.796875 
L 45.40625 -20.796875 
z
" id="DejaVuSans-71"/>
      <path d="M 2.984375 54.6875 
L 12.5 54.6875 
L 29.59375 8.796875 
L 46.6875 54.6875 
L 56.203125 54.6875 
L 35.6875 0 
L 23.484375 0 
z
" id="DejaVuSans-76"/>
     </defs>
     <g style="fill:#262626;" transform="translate(226.670312 71.7525)scale(0.1 -0.1)">
      <use xlink:href="#DejaVuSans-20"/>
      <use x="31.787109" xlink:href="#DejaVuSans-20"/>
      <use x="63.574219" xlink:href="#DejaVuSans-20"/>
      <use x="95.361328" xlink:href="#DejaVuSans-71"/>
      <use x="158.837891" xlink:href="#DejaVuSans-73"/>
      <use x="210.9375" xlink:href="#DejaVuSans-70"/>
      <use x="274.414062" xlink:href="#DejaVuSans-72"/>
      <use x="315.527344" xlink:href="#DejaVuSans-20"/>
      <use x="347.314453" xlink:href="#DejaVuSans-76"/>
      <use x="406.494141" xlink:href="#DejaVuSans-69"/>
      <use x="434.277344" xlink:href="#DejaVuSans-73"/>
      <use x="486.376953" xlink:href="#DejaVuSans-63"/>
      <use x="541.357422" xlink:href="#DejaVuSans-6f"/>
      <use x="602.539062" xlink:href="#DejaVuSans-73"/>
      <use x="654.638672" xlink:href="#DejaVuSans-69"/>
      <use x="682.421875" xlink:href="#DejaVuSans-74"/>
      <use x="721.630859" xlink:href="#DejaVuSans-79"/>
     </g>
    </g>
    <g id="line2d_42">
     <path d="M 198.670312 82.930625 
L 218.670312 82.930625 
" style="fill:none;stroke:#ff7f0e;stroke-dasharray:1.75,2.8875;stroke-dashoffset:0;stroke-width:1.75;"/>
    </g>
    <g id="line2d_43"/>
    <g id="text_30">
     <!--    qspr cpt -->
     <g style="fill:#262626;" transform="translate(226.670312 86.430625)scale(0.1 -0.1)">
      <use xlink:href="#DejaVuSans-20"/>
      <use x="31.787109" xlink:href="#DejaVuSans-20"/>
      <use x="63.574219" xlink:href="#DejaVuSans-20"/>
      <use x="95.361328" xlink:href="#DejaVuSans-71"/>
      <use x="158.837891" xlink:href="#DejaVuSans-73"/>
      <use x="210.9375" xlink:href="#DejaVuSans-70"/>
      <use x="274.414062" xlink:href="#DejaVuSans-72"/>
      <use x="315.527344" xlink:href="#DejaVuSans-20"/>
      <use x="347.314453" xlink:href="#DejaVuSans-63"/>
      <use x="402.294922" xlink:href="#DejaVuSans-70"/>
      <use x="465.771484" xlink:href="#DejaVuSans-74"/>
     </g>
    </g>
    <g id="line2d_44">
     <path d="M 198.670312 97.60875 
L 218.670312 97.60875 
" style="fill:none;stroke:#2ca02c;stroke-dasharray:1.75,2.8875;stroke-dashoffset:0;stroke-width:1.75;"/>
    </g>
    <g id="line2d_45"/>
    <g id="text_31">
     <!--    qspr density -->
     <defs>
      <path d="M 45.40625 46.390625 
L 45.40625 75.984375 
L 54.390625 75.984375 
L 54.390625 0 
L 45.40625 0 
L 45.40625 8.203125 
Q 42.578125 3.328125 38.25 0.953125 
Q 33.9375 -1.421875 27.875 -1.421875 
Q 17.96875 -1.421875 11.734375 6.484375 
Q 5.515625 14.40625 5.515625 27.296875 
Q 5.515625 40.1875 11.734375 48.09375 
Q 17.96875 56 27.875 56 
Q 33.9375 56 38.25 53.625 
Q 42.578125 51.265625 45.40625 46.390625 
z
M 14.796875 27.296875 
Q 14.796875 17.390625 18.875 11.75 
Q 22.953125 6.109375 30.078125 6.109375 
Q 37.203125 6.109375 41.296875 11.75 
Q 45.40625 17.390625 45.40625 27.296875 
Q 45.40625 37.203125 41.296875 42.84375 
Q 37.203125 48.484375 30.078125 48.484375 
Q 22.953125 48.484375 18.875 42.84375 
Q 14.796875 37.203125 14.796875 27.296875 
z
" id="DejaVuSans-64"/>
      <path d="M 56.203125 29.59375 
L 56.203125 25.203125 
L 14.890625 25.203125 
Q 15.484375 15.921875 20.484375 11.0625 
Q 25.484375 6.203125 34.421875 6.203125 
Q 39.59375 6.203125 44.453125 7.46875 
Q 49.3125 8.734375 54.109375 11.28125 
L 54.109375 2.78125 
Q 49.265625 0.734375 44.1875 -0.34375 
Q 39.109375 -1.421875 33.890625 -1.421875 
Q 20.796875 -1.421875 13.15625 6.1875 
Q 5.515625 13.8125 5.515625 26.8125 
Q 5.515625 40.234375 12.765625 48.109375 
Q 20.015625 56 32.328125 56 
Q 43.359375 56 49.78125 48.890625 
Q 56.203125 41.796875 56.203125 29.59375 
z
M 47.21875 32.234375 
Q 47.125 39.59375 43.09375 43.984375 
Q 39.0625 48.390625 32.421875 48.390625 
Q 24.90625 48.390625 20.390625 44.140625 
Q 15.875 39.890625 15.1875 32.171875 
z
" id="DejaVuSans-65"/>
     </defs>
     <g style="fill:#262626;" transform="translate(226.670312 101.10875)scale(0.1 -0.1)">
      <use xlink:href="#DejaVuSans-20"/>
      <use x="31.787109" xlink:href="#DejaVuSans-20"/>
      <use x="63.574219" xlink:href="#DejaVuSans-20"/>
      <use x="95.361328" xlink:href="#DejaVuSans-71"/>
      <use x="158.837891" xlink:href="#DejaVuSans-73"/>
      <use x="210.9375" xlink:href="#DejaVuSans-70"/>
      <use x="274.414062" xlink:href="#DejaVuSans-72"/>
      <use x="315.527344" xlink:href="#DejaVuSans-20"/>
      <use x="347.314453" xlink:href="#DejaVuSans-64"/>
      <use x="410.791016" xlink:href="#DejaVuSans-65"/>
      <use x="472.314453" xlink:href="#DejaVuSans-6e"/>
      <use x="535.693359" xlink:href="#DejaVuSans-73"/>
      <use x="587.792969" xlink:href="#DejaVuSans-69"/>
      <use x="615.576172" xlink:href="#DejaVuSans-74"/>
      <use x="654.785156" xlink:href="#DejaVuSans-79"/>
     </g>
    </g>
    <g id="line2d_46">
     <path d="M 198.670312 112.286875 
L 218.670312 112.286875 
" style="fill:none;stroke:#d62728;stroke-dasharray:1.75,2.8875;stroke-dashoffset:0;stroke-width:1.75;"/>
    </g>
    <g id="line2d_47"/>
    <g id="text_32">
     <!--    qspr thermal -->
     <defs>
      <path d="M 52 44.1875 
Q 55.375 50.25 60.0625 53.125 
Q 64.75 56 71.09375 56 
Q 79.640625 56 84.28125 50.015625 
Q 88.921875 44.046875 88.921875 33.015625 
L 88.921875 0 
L 79.890625 0 
L 79.890625 32.71875 
Q 79.890625 40.578125 77.09375 44.375 
Q 74.3125 48.1875 68.609375 48.1875 
Q 61.625 48.1875 57.5625 43.546875 
Q 53.515625 38.921875 53.515625 30.90625 
L 53.515625 0 
L 44.484375 0 
L 44.484375 32.71875 
Q 44.484375 40.625 41.703125 44.40625 
Q 38.921875 48.1875 33.109375 48.1875 
Q 26.21875 48.1875 22.15625 43.53125 
Q 18.109375 38.875 18.109375 30.90625 
L 18.109375 0 
L 9.078125 0 
L 9.078125 54.6875 
L 18.109375 54.6875 
L 18.109375 46.1875 
Q 21.1875 51.21875 25.484375 53.609375 
Q 29.78125 56 35.6875 56 
Q 41.65625 56 45.828125 52.96875 
Q 50 49.953125 52 44.1875 
z
" id="DejaVuSans-6d"/>
      <path d="M 9.421875 75.984375 
L 18.40625 75.984375 
L 18.40625 0 
L 9.421875 0 
z
" id="DejaVuSans-6c"/>
     </defs>
     <g style="fill:#262626;" transform="translate(226.670312 115.786875)scale(0.1 -0.1)">
      <use xlink:href="#DejaVuSans-20"/>
      <use x="31.787109" xlink:href="#DejaVuSans-20"/>
      <use x="63.574219" xlink:href="#DejaVuSans-20"/>
      <use x="95.361328" xlink:href="#DejaVuSans-71"/>
      <use x="158.837891" xlink:href="#DejaVuSans-73"/>
      <use x="210.9375" xlink:href="#DejaVuSans-70"/>
      <use x="274.414062" xlink:href="#DejaVuSans-72"/>
      <use x="315.527344" xlink:href="#DejaVuSans-20"/>
      <use x="347.314453" xlink:href="#DejaVuSans-74"/>
      <use x="386.523438" xlink:href="#DejaVuSans-68"/>
      <use x="449.902344" xlink:href="#DejaVuSans-65"/>
      <use x="511.425781" xlink:href="#DejaVuSans-72"/>
      <use x="552.523438" xlink:href="#DejaVuSans-6d"/>
      <use x="649.935547" xlink:href="#DejaVuSans-61"/>
      <use x="711.214844" xlink:href="#DejaVuSans-6c"/>
     </g>
    </g>
    <g id="line2d_48">
     <path d="M 198.670312 126.965 
L 218.670312 126.965 
" style="fill:none;stroke:#9467bd;stroke-dasharray:1.75,2.8875;stroke-dashoffset:0;stroke-width:1.75;"/>
    </g>
    <g id="line2d_49"/>
    <g id="text_33">
     <!--    qspr melting -->
     <g style="fill:#262626;" transform="translate(226.670312 130.465)scale(0.1 -0.1)">
      <use xlink:href="#DejaVuSans-20"/>
      <use x="31.787109" xlink:href="#DejaVuSans-20"/>
      <use x="63.574219" xlink:href="#DejaVuSans-20"/>
      <use x="95.361328" xlink:href="#DejaVuSans-71"/>
      <use x="158.837891" xlink:href="#DejaVuSans-73"/>
      <use x="210.9375" xlink:href="#DejaVuSans-70"/>
      <use x="274.414062" xlink:href="#DejaVuSans-72"/>
      <use x="315.527344" xlink:href="#DejaVuSans-20"/>
      <use x="347.314453" xlink:href="#DejaVuSans-6d"/>
      <use x="444.726562" xlink:href="#DejaVuSans-65"/>
      <use x="506.25" xlink:href="#DejaVuSans-6c"/>
      <use x="534.033203" xlink:href="#DejaVuSans-74"/>
      <use x="573.242188" xlink:href="#DejaVuSans-69"/>
      <use x="601.025391" xlink:href="#DejaVuSans-6e"/>
      <use x="664.404297" xlink:href="#DejaVuSans-67"/>
     </g>
    </g>
    <g id="line2d_50">
     <path d="M 198.670312 141.643125 
L 218.670312 141.643125 
" style="fill:none;stroke:#1f77b4;stroke-dasharray:6.475,2.8;stroke-dashoffset:0;stroke-width:1.75;"/>
    </g>
    <g id="line2d_51"/>
    <g id="text_34">
     <!--  anion viscosity -->
     <g style="fill:#262626;" transform="translate(226.670312 145.143125)scale(0.1 -0.1)">
      <use xlink:href="#DejaVuSans-20"/>
      <use x="31.787109" xlink:href="#DejaVuSans-61"/>
      <use x="93.066406" xlink:href="#DejaVuSans-6e"/>
      <use x="156.445312" xlink:href="#DejaVuSans-69"/>
      <use x="184.228516" xlink:href="#DejaVuSans-6f"/>
      <use x="245.410156" xlink:href="#DejaVuSans-6e"/>
      <use x="308.789062" xlink:href="#DejaVuSans-20"/>
      <use x="340.576172" xlink:href="#DejaVuSans-76"/>
      <use x="399.755859" xlink:href="#DejaVuSans-69"/>
      <use x="427.539062" xlink:href="#DejaVuSans-73"/>
      <use x="479.638672" xlink:href="#DejaVuSans-63"/>
      <use x="534.619141" xlink:href="#DejaVuSans-6f"/>
      <use x="595.800781" xlink:href="#DejaVuSans-73"/>
      <use x="647.900391" xlink:href="#DejaVuSans-69"/>
      <use x="675.683594" xlink:href="#DejaVuSans-74"/>
      <use x="714.892578" xlink:href="#DejaVuSans-79"/>
     </g>
    </g>
    <g id="line2d_52">
     <path d="M 198.670312 156.32125 
L 218.670312 156.32125 
" style="fill:none;stroke:#1f77b4;stroke-linecap:round;stroke-width:1.75;"/>
    </g>
    <g id="line2d_53"/>
    <g id="text_35">
     <!-- cation viscosity -->
     <g style="fill:#262626;" transform="translate(226.670312 159.82125)scale(0.1 -0.1)">
      <use xlink:href="#DejaVuSans-63"/>
      <use x="54.980469" xlink:href="#DejaVuSans-61"/>
      <use x="116.259766" xlink:href="#DejaVuSans-74"/>
      <use x="155.46875" xlink:href="#DejaVuSans-69"/>
      <use x="183.251953" xlink:href="#DejaVuSans-6f"/>
      <use x="244.433594" xlink:href="#DejaVuSans-6e"/>
      <use x="307.8125" xlink:href="#DejaVuSans-20"/>
      <use x="339.599609" xlink:href="#DejaVuSans-76"/>
      <use x="398.779297" xlink:href="#DejaVuSans-69"/>
      <use x="426.5625" xlink:href="#DejaVuSans-73"/>
      <use x="478.662109" xlink:href="#DejaVuSans-63"/>
      <use x="533.642578" xlink:href="#DejaVuSans-6f"/>
      <use x="594.824219" xlink:href="#DejaVuSans-73"/>
      <use x="646.923828" xlink:href="#DejaVuSans-69"/>
      <use x="674.707031" xlink:href="#DejaVuSans-74"/>
      <use x="713.916016" xlink:href="#DejaVuSans-79"/>
     </g>
    </g>
    <g id="line2d_54">
     <path d="M 198.670312 170.999375 
L 218.670312 170.999375 
" style="fill:none;stroke:#ff7f0e;stroke-dasharray:6.475,2.8;stroke-dashoffset:0;stroke-width:1.75;"/>
    </g>
    <g id="line2d_55"/>
    <g id="text_36">
     <!--  anion cpt -->
     <g style="fill:#262626;" transform="translate(226.670312 174.499375)scale(0.1 -0.1)">
      <use xlink:href="#DejaVuSans-20"/>
      <use x="31.787109" xlink:href="#DejaVuSans-61"/>
      <use x="93.066406" xlink:href="#DejaVuSans-6e"/>
      <use x="156.445312" xlink:href="#DejaVuSans-69"/>
      <use x="184.228516" xlink:href="#DejaVuSans-6f"/>
      <use x="245.410156" xlink:href="#DejaVuSans-6e"/>
      <use x="308.789062" xlink:href="#DejaVuSans-20"/>
      <use x="340.576172" xlink:href="#DejaVuSans-63"/>
      <use x="395.556641" xlink:href="#DejaVuSans-70"/>
      <use x="459.033203" xlink:href="#DejaVuSans-74"/>
     </g>
    </g>
    <g id="line2d_56">
     <path d="M 198.670312 185.6775 
L 218.670312 185.6775 
" style="fill:none;stroke:#ff7f0e;stroke-linecap:round;stroke-width:1.75;"/>
    </g>
    <g id="line2d_57"/>
    <g id="text_37">
     <!-- cation cpt -->
     <g style="fill:#262626;" transform="translate(226.670312 189.1775)scale(0.1 -0.1)">
      <use xlink:href="#DejaVuSans-63"/>
      <use x="54.980469" xlink:href="#DejaVuSans-61"/>
      <use x="116.259766" xlink:href="#DejaVuSans-74"/>
      <use x="155.46875" xlink:href="#DejaVuSans-69"/>
      <use x="183.251953" xlink:href="#DejaVuSans-6f"/>
      <use x="244.433594" xlink:href="#DejaVuSans-6e"/>
      <use x="307.8125" xlink:href="#DejaVuSans-20"/>
      <use x="339.599609" xlink:href="#DejaVuSans-63"/>
      <use x="394.580078" xlink:href="#DejaVuSans-70"/>
      <use x="458.056641" xlink:href="#DejaVuSans-74"/>
     </g>
    </g>
    <g id="line2d_58">
     <path d="M 198.670312 200.355625 
L 218.670312 200.355625 
" style="fill:none;stroke:#2ca02c;stroke-dasharray:6.475,2.8;stroke-dashoffset:0;stroke-width:1.75;"/>
    </g>
    <g id="line2d_59"/>
    <g id="text_38">
     <!--  anion density -->
     <g style="fill:#262626;" transform="translate(226.670312 203.855625)scale(0.1 -0.1)">
      <use xlink:href="#DejaVuSans-20"/>
      <use x="31.787109" xlink:href="#DejaVuSans-61"/>
      <use x="93.066406" xlink:href="#DejaVuSans-6e"/>
      <use x="156.445312" xlink:href="#DejaVuSans-69"/>
      <use x="184.228516" xlink:href="#DejaVuSans-6f"/>
      <use x="245.410156" xlink:href="#DejaVuSans-6e"/>
      <use x="308.789062" xlink:href="#DejaVuSans-20"/>
      <use x="340.576172" xlink:href="#DejaVuSans-64"/>
      <use x="404.052734" xlink:href="#DejaVuSans-65"/>
      <use x="465.576172" xlink:href="#DejaVuSans-6e"/>
      <use x="528.955078" xlink:href="#DejaVuSans-73"/>
      <use x="581.054688" xlink:href="#DejaVuSans-69"/>
      <use x="608.837891" xlink:href="#DejaVuSans-74"/>
      <use x="648.046875" xlink:href="#DejaVuSans-79"/>
     </g>
    </g>
    <g id="line2d_60">
     <path d="M 198.670312 215.03375 
L 218.670312 215.03375 
" style="fill:none;stroke:#2ca02c;stroke-linecap:round;stroke-width:1.75;"/>
    </g>
    <g id="line2d_61"/>
    <g id="text_39">
     <!-- cation density -->
     <g style="fill:#262626;" transform="translate(226.670312 218.53375)scale(0.1 -0.1)">
      <use xlink:href="#DejaVuSans-63"/>
      <use x="54.980469" xlink:href="#DejaVuSans-61"/>
      <use x="116.259766" xlink:href="#DejaVuSans-74"/>
      <use x="155.46875" xlink:href="#DejaVuSans-69"/>
      <use x="183.251953" xlink:href="#DejaVuSans-6f"/>
      <use x="244.433594" xlink:href="#DejaVuSans-6e"/>
      <use x="307.8125" xlink:href="#DejaVuSans-20"/>
      <use x="339.599609" xlink:href="#DejaVuSans-64"/>
      <use x="403.076172" xlink:href="#DejaVuSans-65"/>
      <use x="464.599609" xlink:href="#DejaVuSans-6e"/>
      <use x="527.978516" xlink:href="#DejaVuSans-73"/>
      <use x="580.078125" xlink:href="#DejaVuSans-69"/>
      <use x="607.861328" xlink:href="#DejaVuSans-74"/>
      <use x="647.070312" xlink:href="#DejaVuSans-79"/>
     </g>
    </g>
    <g id="line2d_62">
     <path d="M 198.670312 229.711875 
L 218.670312 229.711875 
" style="fill:none;stroke:#d62728;stroke-dasharray:6.475,2.8;stroke-dashoffset:0;stroke-width:1.75;"/>
    </g>
    <g id="line2d_63"/>
    <g id="text_40">
     <!--  anion thermal -->
     <g style="fill:#262626;" transform="translate(226.670312 233.211875)scale(0.1 -0.1)">
      <use xlink:href="#DejaVuSans-20"/>
      <use x="31.787109" xlink:href="#DejaVuSans-61"/>
      <use x="93.066406" xlink:href="#DejaVuSans-6e"/>
      <use x="156.445312" xlink:href="#DejaVuSans-69"/>
      <use x="184.228516" xlink:href="#DejaVuSans-6f"/>
      <use x="245.410156" xlink:href="#DejaVuSans-6e"/>
      <use x="308.789062" xlink:href="#DejaVuSans-20"/>
      <use x="340.576172" xlink:href="#DejaVuSans-74"/>
      <use x="379.785156" xlink:href="#DejaVuSans-68"/>
      <use x="443.164062" xlink:href="#DejaVuSans-65"/>
      <use x="504.6875" xlink:href="#DejaVuSans-72"/>
      <use x="545.785156" xlink:href="#DejaVuSans-6d"/>
      <use x="643.197266" xlink:href="#DejaVuSans-61"/>
      <use x="704.476562" xlink:href="#DejaVuSans-6c"/>
     </g>
    </g>
    <g id="line2d_64">
     <path d="M 198.670312 244.39 
L 218.670312 244.39 
" style="fill:none;stroke:#d62728;stroke-linecap:round;stroke-width:1.75;"/>
    </g>
    <g id="line2d_65"/>
    <g id="text_41">
     <!-- cation thermal -->
     <g style="fill:#262626;" transform="translate(226.670312 247.89)scale(0.1 -0.1)">
      <use xlink:href="#DejaVuSans-63"/>
      <use x="54.980469" xlink:href="#DejaVuSans-61"/>
      <use x="116.259766" xlink:href="#DejaVuSans-74"/>
      <use x="155.46875" xlink:href="#DejaVuSans-69"/>
      <use x="183.251953" xlink:href="#DejaVuSans-6f"/>
      <use x="244.433594" xlink:href="#DejaVuSans-6e"/>
      <use x="307.8125" xlink:href="#DejaVuSans-20"/>
      <use x="339.599609" xlink:href="#DejaVuSans-74"/>
      <use x="378.808594" xlink:href="#DejaVuSans-68"/>
      <use x="442.1875" xlink:href="#DejaVuSans-65"/>
      <use x="503.710938" xlink:href="#DejaVuSans-72"/>
      <use x="544.808594" xlink:href="#DejaVuSans-6d"/>
      <use x="642.220703" xlink:href="#DejaVuSans-61"/>
      <use x="703.5" xlink:href="#DejaVuSans-6c"/>
     </g>
    </g>
    <g id="line2d_66">
     <path d="M 198.670312 259.068125 
L 218.670312 259.068125 
" style="fill:none;stroke:#9467bd;stroke-dasharray:6.475,2.8;stroke-dashoffset:0;stroke-width:1.75;"/>
    </g>
    <g id="line2d_67"/>
    <g id="text_42">
     <!--  anion melting -->
     <g style="fill:#262626;" transform="translate(226.670312 262.568125)scale(0.1 -0.1)">
      <use xlink:href="#DejaVuSans-20"/>
      <use x="31.787109" xlink:href="#DejaVuSans-61"/>
      <use x="93.066406" xlink:href="#DejaVuSans-6e"/>
      <use x="156.445312" xlink:href="#DejaVuSans-69"/>
      <use x="184.228516" xlink:href="#DejaVuSans-6f"/>
      <use x="245.410156" xlink:href="#DejaVuSans-6e"/>
      <use x="308.789062" xlink:href="#DejaVuSans-20"/>
      <use x="340.576172" xlink:href="#DejaVuSans-6d"/>
      <use x="437.988281" xlink:href="#DejaVuSans-65"/>
      <use x="499.511719" xlink:href="#DejaVuSans-6c"/>
      <use x="527.294922" xlink:href="#DejaVuSans-74"/>
      <use x="566.503906" xlink:href="#DejaVuSans-69"/>
      <use x="594.287109" xlink:href="#DejaVuSans-6e"/>
      <use x="657.666016" xlink:href="#DejaVuSans-67"/>
     </g>
    </g>
    <g id="line2d_68">
     <path d="M 198.670312 273.74625 
L 218.670312 273.74625 
" style="fill:none;stroke:#9467bd;stroke-linecap:round;stroke-width:1.75;"/>
    </g>
    <g id="line2d_69"/>
    <g id="text_43">
     <!-- cation melting -->
     <g style="fill:#262626;" transform="translate(226.670312 277.24625)scale(0.1 -0.1)">
      <use xlink:href="#DejaVuSans-63"/>
      <use x="54.980469" xlink:href="#DejaVuSans-61"/>
      <use x="116.259766" xlink:href="#DejaVuSans-74"/>
      <use x="155.46875" xlink:href="#DejaVuSans-69"/>
      <use x="183.251953" xlink:href="#DejaVuSans-6f"/>
      <use x="244.433594" xlink:href="#DejaVuSans-6e"/>
      <use x="307.8125" xlink:href="#DejaVuSans-20"/>
      <use x="339.599609" xlink:href="#DejaVuSans-6d"/>
      <use x="437.011719" xlink:href="#DejaVuSans-65"/>
      <use x="498.535156" xlink:href="#DejaVuSans-6c"/>
      <use x="526.318359" xlink:href="#DejaVuSans-74"/>
      <use x="565.527344" xlink:href="#DejaVuSans-69"/>
      <use x="593.310547" xlink:href="#DejaVuSans-6e"/>
      <use x="656.689453" xlink:href="#DejaVuSans-67"/>
     </g>
    </g>
   </g>
  </g>
 </g>
 <defs>
  <clipPath id="pd7e3320da3">
   <rect height="292.6" width="275.81" x="37.94" y="25.44"/>
  </clipPath>
 </defs>
</svg>
