<?xml version="1.0" encoding="utf-8" standalone="no"?>
<!DOCTYPE svg PUBLIC "-//W3C//DTD SVG 1.1//EN"
  "http://www.w3.org/Graphics/SVG/1.1/DTD/svg11.dtd">
<!-- Created with matplotlib (http://matplotlib.org/) -->
<svg height="360pt" version="1.1" viewBox="0 0 360 360" width="360pt" xmlns="http://www.w3.org/2000/svg" xmlns:xlink="http://www.w3.org/1999/xlink">
 <defs>
  <style type="text/css">
*{stroke-linecap:butt;stroke-linejoin:round;}
  </style>
 </defs>
 <g id="figure_1">
  <g id="patch_1">
   <path d="M 0 360 
L 360 360 
L 360 0 
L 0 0 
z
" style="fill:#ffffff;"/>
  </g>
  <g id="axes_1">
   <g id="patch_2">
    <path d="M 45 315 
L 324 315 
L 324 43.2 
L 45 43.2 
z
" style="fill:#ffffff;"/>
   </g>
   <g id="matplotlib.axis_1">
    <g id="xtick_1">
     <g id="line2d_1"/>
     <g id="text_1">
      <!-- 0 -->
      <defs>
       <path d="M 31.78125 66.40625 
Q 24.171875 66.40625 20.328125 58.90625 
Q 16.5 51.421875 16.5 36.375 
Q 16.5 21.390625 20.328125 13.890625 
Q 24.171875 6.390625 31.78125 6.390625 
Q 39.453125 6.390625 43.28125 13.890625 
Q 47.125 21.390625 47.125 36.375 
Q 47.125 51.421875 43.28125 58.90625 
Q 39.453125 66.40625 31.78125 66.40625 
z
M 31.78125 74.21875 
Q 44.046875 74.21875 50.515625 64.515625 
Q 56.984375 54.828125 56.984375 36.375 
Q 56.984375 17.96875 50.515625 8.265625 
Q 44.046875 -1.421875 31.78125 -1.421875 
Q 19.53125 -1.421875 13.0625 8.265625 
Q 6.59375 17.96875 6.59375 36.375 
Q 6.59375 54.828125 13.0625 64.515625 
Q 19.53125 74.21875 31.78125 74.21875 
z
" id="DejaVuSans-30"/>
      </defs>
      <g style="fill:#262626;" transform="translate(54.500568 329.598437)scale(0.1 -0.1)">
       <use xlink:href="#DejaVuSans-30"/>
      </g>
     </g>
    </g>
    <g id="xtick_2">
     <g id="line2d_2"/>
     <g id="text_2">
      <!-- 20 -->
      <defs>
       <path d="M 19.1875 8.296875 
L 53.609375 8.296875 
L 53.609375 0 
L 7.328125 0 
L 7.328125 8.296875 
Q 12.9375 14.109375 22.625 23.890625 
Q 32.328125 33.6875 34.8125 36.53125 
Q 39.546875 41.84375 41.421875 45.53125 
Q 43.3125 49.21875 43.3125 52.78125 
Q 43.3125 58.59375 39.234375 62.25 
Q 35.15625 65.921875 28.609375 65.921875 
Q 23.96875 65.921875 18.8125 64.3125 
Q 13.671875 62.703125 7.8125 59.421875 
L 7.8125 69.390625 
Q 13.765625 71.78125 18.9375 73 
Q 24.125 74.21875 28.421875 74.21875 
Q 39.75 74.21875 46.484375 68.546875 
Q 53.21875 62.890625 53.21875 53.421875 
Q 53.21875 48.921875 51.53125 44.890625 
Q 49.859375 40.875 45.40625 35.40625 
Q 44.1875 33.984375 37.640625 27.21875 
Q 31.109375 20.453125 19.1875 8.296875 
z
" id="DejaVuSans-32"/>
      </defs>
      <g style="fill:#262626;" transform="translate(102.558988 329.598437)scale(0.1 -0.1)">
       <use xlink:href="#DejaVuSans-32"/>
       <use x="63.623047" xlink:href="#DejaVuSans-30"/>
      </g>
     </g>
    </g>
    <g id="xtick_3">
     <g id="line2d_3"/>
     <g id="text_3">
      <!-- 40 -->
      <defs>
       <path d="M 37.796875 64.3125 
L 12.890625 25.390625 
L 37.796875 25.390625 
z
M 35.203125 72.90625 
L 47.609375 72.90625 
L 47.609375 25.390625 
L 58.015625 25.390625 
L 58.015625 17.1875 
L 47.609375 17.1875 
L 47.609375 0 
L 37.796875 0 
L 37.796875 17.1875 
L 4.890625 17.1875 
L 4.890625 26.703125 
z
" id="DejaVuSans-34"/>
      </defs>
      <g style="fill:#262626;" transform="translate(153.798657 329.598437)scale(0.1 -0.1)">
       <use xlink:href="#DejaVuSans-34"/>
       <use x="63.623047" xlink:href="#DejaVuSans-30"/>
      </g>
     </g>
    </g>
    <g id="xtick_4">
     <g id="line2d_4"/>
     <g id="text_4">
      <!-- 60 -->
      <defs>
       <path d="M 33.015625 40.375 
Q 26.375 40.375 22.484375 35.828125 
Q 18.609375 31.296875 18.609375 23.390625 
Q 18.609375 15.53125 22.484375 10.953125 
Q 26.375 6.390625 33.015625 6.390625 
Q 39.65625 6.390625 43.53125 10.953125 
Q 47.40625 15.53125 47.40625 23.390625 
Q 47.40625 31.296875 43.53125 35.828125 
Q 39.65625 40.375 33.015625 40.375 
z
M 52.59375 71.296875 
L 52.59375 62.3125 
Q 48.875 64.0625 45.09375 64.984375 
Q 41.3125 65.921875 37.59375 65.921875 
Q 27.828125 65.921875 22.671875 59.328125 
Q 17.53125 52.734375 16.796875 39.40625 
Q 19.671875 43.65625 24.015625 45.921875 
Q 28.375 48.1875 33.59375 48.1875 
Q 44.578125 48.1875 50.953125 41.515625 
Q 57.328125 34.859375 57.328125 23.390625 
Q 57.328125 12.15625 50.6875 5.359375 
Q 44.046875 -1.421875 33.015625 -1.421875 
Q 20.359375 -1.421875 13.671875 8.265625 
Q 6.984375 17.96875 6.984375 36.375 
Q 6.984375 53.65625 15.1875 63.9375 
Q 23.390625 74.21875 37.203125 74.21875 
Q 40.921875 74.21875 44.703125 73.484375 
Q 48.484375 72.75 52.59375 71.296875 
z
" id="DejaVuSans-36"/>
      </defs>
      <g style="fill:#262626;" transform="translate(205.038326 329.598437)scale(0.1 -0.1)">
       <use xlink:href="#DejaVuSans-36"/>
       <use x="63.623047" xlink:href="#DejaVuSans-30"/>
      </g>
     </g>
    </g>
    <g id="xtick_5">
     <g id="line2d_5"/>
     <g id="text_5">
      <!-- 80 -->
      <defs>
       <path d="M 31.78125 34.625 
Q 24.75 34.625 20.71875 30.859375 
Q 16.703125 27.09375 16.703125 20.515625 
Q 16.703125 13.921875 20.71875 10.15625 
Q 24.75 6.390625 31.78125 6.390625 
Q 38.8125 6.390625 42.859375 10.171875 
Q 46.921875 13.96875 46.921875 20.515625 
Q 46.921875 27.09375 42.890625 30.859375 
Q 38.875 34.625 31.78125 34.625 
z
M 21.921875 38.8125 
Q 15.578125 40.375 12.03125 44.71875 
Q 8.5 49.078125 8.5 55.328125 
Q 8.5 64.0625 14.71875 69.140625 
Q 20.953125 74.21875 31.78125 74.21875 
Q 42.671875 74.21875 48.875 69.140625 
Q 55.078125 64.0625 55.078125 55.328125 
Q 55.078125 49.078125 51.53125 44.71875 
Q 48 40.375 41.703125 38.8125 
Q 48.828125 37.15625 52.796875 32.3125 
Q 56.78125 27.484375 56.78125 20.515625 
Q 56.78125 9.90625 50.3125 4.234375 
Q 43.84375 -1.421875 31.78125 -1.421875 
Q 19.734375 -1.421875 13.25 4.234375 
Q 6.78125 9.90625 6.78125 20.515625 
Q 6.78125 27.484375 10.78125 32.3125 
Q 14.796875 37.15625 21.921875 38.8125 
z
M 18.3125 54.390625 
Q 18.3125 48.734375 21.84375 45.5625 
Q 25.390625 42.390625 31.78125 42.390625 
Q 38.140625 42.390625 41.71875 45.5625 
Q 45.3125 48.734375 45.3125 54.390625 
Q 45.3125 60.0625 41.71875 63.234375 
Q 38.140625 66.40625 31.78125 66.40625 
Q 25.390625 66.40625 21.84375 63.234375 
Q 18.3125 60.0625 18.3125 54.390625 
z
" id="DejaVuSans-38"/>
      </defs>
      <g style="fill:#262626;" transform="translate(256.277996 329.598437)scale(0.1 -0.1)">
       <use xlink:href="#DejaVuSans-38"/>
       <use x="63.623047" xlink:href="#DejaVuSans-30"/>
      </g>
     </g>
    </g>
    <g id="xtick_6">
     <g id="line2d_6"/>
     <g id="text_6">
      <!-- 100 -->
      <defs>
       <path d="M 12.40625 8.296875 
L 28.515625 8.296875 
L 28.515625 63.921875 
L 10.984375 60.40625 
L 10.984375 69.390625 
L 28.421875 72.90625 
L 38.28125 72.90625 
L 38.28125 8.296875 
L 54.390625 8.296875 
L 54.390625 0 
L 12.40625 0 
z
" id="DejaVuSans-31"/>
      </defs>
      <g style="fill:#262626;" transform="translate(304.336415 329.598437)scale(0.1 -0.1)">
       <use xlink:href="#DejaVuSans-31"/>
       <use x="63.623047" xlink:href="#DejaVuSans-30"/>
       <use x="127.246094" xlink:href="#DejaVuSans-30"/>
      </g>
     </g>
    </g>
    <g id="text_7">
     <!-- Solvent rank (high to low by rdkit-md qspr) -->
     <defs>
      <path d="M 53.515625 70.515625 
L 53.515625 60.890625 
Q 47.90625 63.578125 42.921875 64.890625 
Q 37.9375 66.21875 33.296875 66.21875 
Q 25.25 66.21875 20.875 63.09375 
Q 16.5 59.96875 16.5 54.203125 
Q 16.5 49.359375 19.40625 46.890625 
Q 22.3125 44.4375 30.421875 42.921875 
L 36.375 41.703125 
Q 47.40625 39.59375 52.65625 34.296875 
Q 57.90625 29 57.90625 20.125 
Q 57.90625 9.515625 50.796875 4.046875 
Q 43.703125 -1.421875 29.984375 -1.421875 
Q 24.8125 -1.421875 18.96875 -0.25 
Q 13.140625 0.921875 6.890625 3.21875 
L 6.890625 13.375 
Q 12.890625 10.015625 18.65625 8.296875 
Q 24.421875 6.59375 29.984375 6.59375 
Q 38.421875 6.59375 43.015625 9.90625 
Q 47.609375 13.234375 47.609375 19.390625 
Q 47.609375 24.75 44.3125 27.78125 
Q 41.015625 30.8125 33.5 32.328125 
L 27.484375 33.5 
Q 16.453125 35.6875 11.515625 40.375 
Q 6.59375 45.0625 6.59375 53.421875 
Q 6.59375 63.09375 13.40625 68.65625 
Q 20.21875 74.21875 32.171875 74.21875 
Q 37.3125 74.21875 42.625 73.28125 
Q 47.953125 72.359375 53.515625 70.515625 
z
" id="DejaVuSans-53"/>
      <path d="M 30.609375 48.390625 
Q 23.390625 48.390625 19.1875 42.75 
Q 14.984375 37.109375 14.984375 27.296875 
Q 14.984375 17.484375 19.15625 11.84375 
Q 23.34375 6.203125 30.609375 6.203125 
Q 37.796875 6.203125 41.984375 11.859375 
Q 46.1875 17.53125 46.1875 27.296875 
Q 46.1875 37.015625 41.984375 42.703125 
Q 37.796875 48.390625 30.609375 48.390625 
z
M 30.609375 56 
Q 42.328125 56 49.015625 48.375 
Q 55.71875 40.765625 55.71875 27.296875 
Q 55.71875 13.875 49.015625 6.21875 
Q 42.328125 -1.421875 30.609375 -1.421875 
Q 18.84375 -1.421875 12.171875 6.21875 
Q 5.515625 13.875 5.515625 27.296875 
Q 5.515625 40.765625 12.171875 48.375 
Q 18.84375 56 30.609375 56 
z
" id="DejaVuSans-6f"/>
      <path d="M 9.421875 75.984375 
L 18.40625 75.984375 
L 18.40625 0 
L 9.421875 0 
z
" id="DejaVuSans-6c"/>
      <path d="M 2.984375 54.6875 
L 12.5 54.6875 
L 29.59375 8.796875 
L 46.6875 54.6875 
L 56.203125 54.6875 
L 35.6875 0 
L 23.484375 0 
z
" id="DejaVuSans-76"/>
      <path d="M 56.203125 29.59375 
L 56.203125 25.203125 
L 14.890625 25.203125 
Q 15.484375 15.921875 20.484375 11.0625 
Q 25.484375 6.203125 34.421875 6.203125 
Q 39.59375 6.203125 44.453125 7.46875 
Q 49.3125 8.734375 54.109375 11.28125 
L 54.109375 2.78125 
Q 49.265625 0.734375 44.1875 -0.34375 
Q 39.109375 -1.421875 33.890625 -1.421875 
Q 20.796875 -1.421875 13.15625 6.1875 
Q 5.515625 13.8125 5.515625 26.8125 
Q 5.515625 40.234375 12.765625 48.109375 
Q 20.015625 56 32.328125 56 
Q 43.359375 56 49.78125 48.890625 
Q 56.203125 41.796875 56.203125 29.59375 
z
M 47.21875 32.234375 
Q 47.125 39.59375 43.09375 43.984375 
Q 39.0625 48.390625 32.421875 48.390625 
Q 24.90625 48.390625 20.390625 44.140625 
Q 15.875 39.890625 15.1875 32.171875 
z
" id="DejaVuSans-65"/>
      <path d="M 54.890625 33.015625 
L 54.890625 0 
L 45.90625 0 
L 45.90625 32.71875 
Q 45.90625 40.484375 42.875 44.328125 
Q 39.84375 48.1875 33.796875 48.1875 
Q 26.515625 48.1875 22.3125 43.546875 
Q 18.109375 38.921875 18.109375 30.90625 
L 18.109375 0 
L 9.078125 0 
L 9.078125 54.6875 
L 18.109375 54.6875 
L 18.109375 46.1875 
Q 21.34375 51.125 25.703125 53.5625 
Q 30.078125 56 35.796875 56 
Q 45.21875 56 50.046875 50.171875 
Q 54.890625 44.34375 54.890625 33.015625 
z
" id="DejaVuSans-6e"/>
      <path d="M 18.3125 70.21875 
L 18.3125 54.6875 
L 36.8125 54.6875 
L 36.8125 47.703125 
L 18.3125 47.703125 
L 18.3125 18.015625 
Q 18.3125 11.328125 20.140625 9.421875 
Q 21.96875 7.515625 27.59375 7.515625 
L 36.8125 7.515625 
L 36.8125 0 
L 27.59375 0 
Q 17.1875 0 13.234375 3.875 
Q 9.28125 7.765625 9.28125 18.015625 
L 9.28125 47.703125 
L 2.6875 47.703125 
L 2.6875 54.6875 
L 9.28125 54.6875 
L 9.28125 70.21875 
z
" id="DejaVuSans-74"/>
      <path id="DejaVuSans-20"/>
      <path d="M 41.109375 46.296875 
Q 39.59375 47.171875 37.8125 47.578125 
Q 36.03125 48 33.890625 48 
Q 26.265625 48 22.1875 43.046875 
Q 18.109375 38.09375 18.109375 28.8125 
L 18.109375 0 
L 9.078125 0 
L 9.078125 54.6875 
L 18.109375 54.6875 
L 18.109375 46.1875 
Q 20.953125 51.171875 25.484375 53.578125 
Q 30.03125 56 36.53125 56 
Q 37.453125 56 38.578125 55.875 
Q 39.703125 55.765625 41.0625 55.515625 
z
" id="DejaVuSans-72"/>
      <path d="M 34.28125 27.484375 
Q 23.390625 27.484375 19.1875 25 
Q 14.984375 22.515625 14.984375 16.5 
Q 14.984375 11.71875 18.140625 8.90625 
Q 21.296875 6.109375 26.703125 6.109375 
Q 34.1875 6.109375 38.703125 11.40625 
Q 43.21875 16.703125 43.21875 25.484375 
L 43.21875 27.484375 
z
M 52.203125 31.203125 
L 52.203125 0 
L 43.21875 0 
L 43.21875 8.296875 
Q 40.140625 3.328125 35.546875 0.953125 
Q 30.953125 -1.421875 24.3125 -1.421875 
Q 15.921875 -1.421875 10.953125 3.296875 
Q 6 8.015625 6 15.921875 
Q 6 25.140625 12.171875 29.828125 
Q 18.359375 34.515625 30.609375 34.515625 
L 43.21875 34.515625 
L 43.21875 35.40625 
Q 43.21875 41.609375 39.140625 45 
Q 35.0625 48.390625 27.6875 48.390625 
Q 23 48.390625 18.546875 47.265625 
Q 14.109375 46.140625 10.015625 43.890625 
L 10.015625 52.203125 
Q 14.9375 54.109375 19.578125 55.046875 
Q 24.21875 56 28.609375 56 
Q 40.484375 56 46.34375 49.84375 
Q 52.203125 43.703125 52.203125 31.203125 
z
" id="DejaVuSans-61"/>
      <path d="M 9.078125 75.984375 
L 18.109375 75.984375 
L 18.109375 31.109375 
L 44.921875 54.6875 
L 56.390625 54.6875 
L 27.390625 29.109375 
L 57.625 0 
L 45.90625 0 
L 18.109375 26.703125 
L 18.109375 0 
L 9.078125 0 
z
" id="DejaVuSans-6b"/>
      <path d="M 31 75.875 
Q 24.46875 64.65625 21.28125 53.65625 
Q 18.109375 42.671875 18.109375 31.390625 
Q 18.109375 20.125 21.3125 9.0625 
Q 24.515625 -2 31 -13.1875 
L 23.1875 -13.1875 
Q 15.875 -1.703125 12.234375 9.375 
Q 8.59375 20.453125 8.59375 31.390625 
Q 8.59375 42.28125 12.203125 53.3125 
Q 15.828125 64.359375 23.1875 75.875 
z
" id="DejaVuSans-28"/>
      <path d="M 54.890625 33.015625 
L 54.890625 0 
L 45.90625 0 
L 45.90625 32.71875 
Q 45.90625 40.484375 42.875 44.328125 
Q 39.84375 48.1875 33.796875 48.1875 
Q 26.515625 48.1875 22.3125 43.546875 
Q 18.109375 38.921875 18.109375 30.90625 
L 18.109375 0 
L 9.078125 0 
L 9.078125 75.984375 
L 18.109375 75.984375 
L 18.109375 46.1875 
Q 21.34375 51.125 25.703125 53.5625 
Q 30.078125 56 35.796875 56 
Q 45.21875 56 50.046875 50.171875 
Q 54.890625 44.34375 54.890625 33.015625 
z
" id="DejaVuSans-68"/>
      <path d="M 9.421875 54.6875 
L 18.40625 54.6875 
L 18.40625 0 
L 9.421875 0 
z
M 9.421875 75.984375 
L 18.40625 75.984375 
L 18.40625 64.59375 
L 9.421875 64.59375 
z
" id="DejaVuSans-69"/>
      <path d="M 45.40625 27.984375 
Q 45.40625 37.75 41.375 43.109375 
Q 37.359375 48.484375 30.078125 48.484375 
Q 22.859375 48.484375 18.828125 43.109375 
Q 14.796875 37.75 14.796875 27.984375 
Q 14.796875 18.265625 18.828125 12.890625 
Q 22.859375 7.515625 30.078125 7.515625 
Q 37.359375 7.515625 41.375 12.890625 
Q 45.40625 18.265625 45.40625 27.984375 
z
M 54.390625 6.78125 
Q 54.390625 -7.171875 48.1875 -13.984375 
Q 42 -20.796875 29.203125 -20.796875 
Q 24.46875 -20.796875 20.265625 -20.09375 
Q 16.0625 -19.390625 12.109375 -17.921875 
L 12.109375 -9.1875 
Q 16.0625 -11.328125 19.921875 -12.34375 
Q 23.78125 -13.375 27.78125 -13.375 
Q 36.625 -13.375 41.015625 -8.765625 
Q 45.40625 -4.15625 45.40625 5.171875 
L 45.40625 9.625 
Q 42.625 4.78125 38.28125 2.390625 
Q 33.9375 0 27.875 0 
Q 17.828125 0 11.671875 7.65625 
Q 5.515625 15.328125 5.515625 27.984375 
Q 5.515625 40.671875 11.671875 48.328125 
Q 17.828125 56 27.875 56 
Q 33.9375 56 38.28125 53.609375 
Q 42.625 51.21875 45.40625 46.390625 
L 45.40625 54.6875 
L 54.390625 54.6875 
z
" id="DejaVuSans-67"/>
      <path d="M 4.203125 54.6875 
L 13.1875 54.6875 
L 24.421875 12.015625 
L 35.59375 54.6875 
L 46.1875 54.6875 
L 57.421875 12.015625 
L 68.609375 54.6875 
L 77.59375 54.6875 
L 63.28125 0 
L 52.6875 0 
L 40.921875 44.828125 
L 29.109375 0 
L 18.5 0 
z
" id="DejaVuSans-77"/>
      <path d="M 48.6875 27.296875 
Q 48.6875 37.203125 44.609375 42.84375 
Q 40.53125 48.484375 33.40625 48.484375 
Q 26.265625 48.484375 22.1875 42.84375 
Q 18.109375 37.203125 18.109375 27.296875 
Q 18.109375 17.390625 22.1875 11.75 
Q 26.265625 6.109375 33.40625 6.109375 
Q 40.53125 6.109375 44.609375 11.75 
Q 48.6875 17.390625 48.6875 27.296875 
z
M 18.109375 46.390625 
Q 20.953125 51.265625 25.265625 53.625 
Q 29.59375 56 35.59375 56 
Q 45.5625 56 51.78125 48.09375 
Q 58.015625 40.1875 58.015625 27.296875 
Q 58.015625 14.40625 51.78125 6.484375 
Q 45.5625 -1.421875 35.59375 -1.421875 
Q 29.59375 -1.421875 25.265625 0.953125 
Q 20.953125 3.328125 18.109375 8.203125 
L 18.109375 0 
L 9.078125 0 
L 9.078125 75.984375 
L 18.109375 75.984375 
z
" id="DejaVuSans-62"/>
      <path d="M 32.171875 -5.078125 
Q 28.375 -14.84375 24.75 -17.8125 
Q 21.140625 -20.796875 15.09375 -20.796875 
L 7.90625 -20.796875 
L 7.90625 -13.28125 
L 13.1875 -13.28125 
Q 16.890625 -13.28125 18.9375 -11.515625 
Q 21 -9.765625 23.484375 -3.21875 
L 25.09375 0.875 
L 2.984375 54.6875 
L 12.5 54.6875 
L 29.59375 11.921875 
L 46.6875 54.6875 
L 56.203125 54.6875 
z
" id="DejaVuSans-79"/>
      <path d="M 45.40625 46.390625 
L 45.40625 75.984375 
L 54.390625 75.984375 
L 54.390625 0 
L 45.40625 0 
L 45.40625 8.203125 
Q 42.578125 3.328125 38.25 0.953125 
Q 33.9375 -1.421875 27.875 -1.421875 
Q 17.96875 -1.421875 11.734375 6.484375 
Q 5.515625 14.40625 5.515625 27.296875 
Q 5.515625 40.1875 11.734375 48.09375 
Q 17.96875 56 27.875 56 
Q 33.9375 56 38.25 53.625 
Q 42.578125 51.265625 45.40625 46.390625 
z
M 14.796875 27.296875 
Q 14.796875 17.390625 18.875 11.75 
Q 22.953125 6.109375 30.078125 6.109375 
Q 37.203125 6.109375 41.296875 11.75 
Q 45.40625 17.390625 45.40625 27.296875 
Q 45.40625 37.203125 41.296875 42.84375 
Q 37.203125 48.484375 30.078125 48.484375 
Q 22.953125 48.484375 18.875 42.84375 
Q 14.796875 37.203125 14.796875 27.296875 
z
" id="DejaVuSans-64"/>
      <path d="M 4.890625 31.390625 
L 31.203125 31.390625 
L 31.203125 23.390625 
L 4.890625 23.390625 
z
" id="DejaVuSans-2d"/>
      <path d="M 52 44.1875 
Q 55.375 50.25 60.0625 53.125 
Q 64.75 56 71.09375 56 
Q 79.640625 56 84.28125 50.015625 
Q 88.921875 44.046875 88.921875 33.015625 
L 88.921875 0 
L 79.890625 0 
L 79.890625 32.71875 
Q 79.890625 40.578125 77.09375 44.375 
Q 74.3125 48.1875 68.609375 48.1875 
Q 61.625 48.1875 57.5625 43.546875 
Q 53.515625 38.921875 53.515625 30.90625 
L 53.515625 0 
L 44.484375 0 
L 44.484375 32.71875 
Q 44.484375 40.625 41.703125 44.40625 
Q 38.921875 48.1875 33.109375 48.1875 
Q 26.21875 48.1875 22.15625 43.53125 
Q 18.109375 38.875 18.109375 30.90625 
L 18.109375 0 
L 9.078125 0 
L 9.078125 54.6875 
L 18.109375 54.6875 
L 18.109375 46.1875 
Q 21.1875 51.21875 25.484375 53.609375 
Q 29.78125 56 35.6875 56 
Q 41.65625 56 45.828125 52.96875 
Q 50 49.953125 52 44.1875 
z
" id="DejaVuSans-6d"/>
      <path d="M 14.796875 27.296875 
Q 14.796875 17.390625 18.875 11.75 
Q 22.953125 6.109375 30.078125 6.109375 
Q 37.203125 6.109375 41.296875 11.75 
Q 45.40625 17.390625 45.40625 27.296875 
Q 45.40625 37.203125 41.296875 42.84375 
Q 37.203125 48.484375 30.078125 48.484375 
Q 22.953125 48.484375 18.875 42.84375 
Q 14.796875 37.203125 14.796875 27.296875 
z
M 45.40625 8.203125 
Q 42.578125 3.328125 38.25 0.953125 
Q 33.9375 -1.421875 27.875 -1.421875 
Q 17.96875 -1.421875 11.734375 6.484375 
Q 5.515625 14.40625 5.515625 27.296875 
Q 5.515625 40.1875 11.734375 48.09375 
Q 17.96875 56 27.875 56 
Q 33.9375 56 38.25 53.625 
Q 42.578125 51.265625 45.40625 46.390625 
L 45.40625 54.6875 
L 54.390625 54.6875 
L 54.390625 -20.796875 
L 45.40625 -20.796875 
z
" id="DejaVuSans-71"/>
      <path d="M 44.28125 53.078125 
L 44.28125 44.578125 
Q 40.484375 46.53125 36.375 47.5 
Q 32.28125 48.484375 27.875 48.484375 
Q 21.1875 48.484375 17.84375 46.4375 
Q 14.5 44.390625 14.5 40.28125 
Q 14.5 37.15625 16.890625 35.375 
Q 19.28125 33.59375 26.515625 31.984375 
L 29.59375 31.296875 
Q 39.15625 29.25 43.1875 25.515625 
Q 47.21875 21.78125 47.21875 15.09375 
Q 47.21875 7.46875 41.1875 3.015625 
Q 35.15625 -1.421875 24.609375 -1.421875 
Q 20.21875 -1.421875 15.453125 -0.5625 
Q 10.6875 0.296875 5.421875 2 
L 5.421875 11.28125 
Q 10.40625 8.6875 15.234375 7.390625 
Q 20.0625 6.109375 24.8125 6.109375 
Q 31.15625 6.109375 34.5625 8.28125 
Q 37.984375 10.453125 37.984375 14.40625 
Q 37.984375 18.0625 35.515625 20.015625 
Q 33.0625 21.96875 24.703125 23.78125 
L 21.578125 24.515625 
Q 13.234375 26.265625 9.515625 29.90625 
Q 5.8125 33.546875 5.8125 39.890625 
Q 5.8125 47.609375 11.28125 51.796875 
Q 16.75 56 26.8125 56 
Q 31.78125 56 36.171875 55.265625 
Q 40.578125 54.546875 44.28125 53.078125 
z
" id="DejaVuSans-73"/>
      <path d="M 18.109375 8.203125 
L 18.109375 -20.796875 
L 9.078125 -20.796875 
L 9.078125 54.6875 
L 18.109375 54.6875 
L 18.109375 46.390625 
Q 20.953125 51.265625 25.265625 53.625 
Q 29.59375 56 35.59375 56 
Q 45.5625 56 51.78125 48.09375 
Q 58.015625 40.1875 58.015625 27.296875 
Q 58.015625 14.40625 51.78125 6.484375 
Q 45.5625 -1.421875 35.59375 -1.421875 
Q 29.59375 -1.421875 25.265625 0.953125 
Q 20.953125 3.328125 18.109375 8.203125 
z
M 48.6875 27.296875 
Q 48.6875 37.203125 44.609375 42.84375 
Q 40.53125 48.484375 33.40625 48.484375 
Q 26.265625 48.484375 22.1875 42.84375 
Q 18.109375 37.203125 18.109375 27.296875 
Q 18.109375 17.390625 22.1875 11.75 
Q 26.265625 6.109375 33.40625 6.109375 
Q 40.53125 6.109375 44.609375 11.75 
Q 48.6875 17.390625 48.6875 27.296875 
z
" id="DejaVuSans-70"/>
      <path d="M 8.015625 75.875 
L 15.828125 75.875 
Q 23.140625 64.359375 26.78125 53.3125 
Q 30.421875 42.28125 30.421875 31.390625 
Q 30.421875 20.453125 26.78125 9.375 
Q 23.140625 -1.703125 15.828125 -13.1875 
L 8.015625 -13.1875 
Q 14.5 -2 17.703125 9.0625 
Q 20.90625 20.125 20.90625 31.390625 
Q 20.90625 42.671875 17.703125 53.65625 
Q 14.5 64.65625 8.015625 75.875 
z
" id="DejaVuSans-29"/>
     </defs>
     <g style="fill:#262626;" transform="translate(65.790234 344.036406)scale(0.11 -0.11)">
      <use xlink:href="#DejaVuSans-53"/>
      <use x="63.476562" xlink:href="#DejaVuSans-6f"/>
      <use x="124.658203" xlink:href="#DejaVuSans-6c"/>
      <use x="152.441406" xlink:href="#DejaVuSans-76"/>
      <use x="211.621094" xlink:href="#DejaVuSans-65"/>
      <use x="273.144531" xlink:href="#DejaVuSans-6e"/>
      <use x="336.523438" xlink:href="#DejaVuSans-74"/>
      <use x="375.732422" xlink:href="#DejaVuSans-20"/>
      <use x="407.519531" xlink:href="#DejaVuSans-72"/>
      <use x="448.632812" xlink:href="#DejaVuSans-61"/>
      <use x="509.912109" xlink:href="#DejaVuSans-6e"/>
      <use x="573.291016" xlink:href="#DejaVuSans-6b"/>
      <use x="631.201172" xlink:href="#DejaVuSans-20"/>
      <use x="662.988281" xlink:href="#DejaVuSans-28"/>
      <use x="702.001953" xlink:href="#DejaVuSans-68"/>
      <use x="765.380859" xlink:href="#DejaVuSans-69"/>
      <use x="793.164062" xlink:href="#DejaVuSans-67"/>
      <use x="856.640625" xlink:href="#DejaVuSans-68"/>
      <use x="920.019531" xlink:href="#DejaVuSans-20"/>
      <use x="951.806641" xlink:href="#DejaVuSans-74"/>
      <use x="991.015625" xlink:href="#DejaVuSans-6f"/>
      <use x="1052.197266" xlink:href="#DejaVuSans-20"/>
      <use x="1083.984375" xlink:href="#DejaVuSans-6c"/>
      <use x="1111.767578" xlink:href="#DejaVuSans-6f"/>
      <use x="1172.949219" xlink:href="#DejaVuSans-77"/>
      <use x="1254.736328" xlink:href="#DejaVuSans-20"/>
      <use x="1286.523438" xlink:href="#DejaVuSans-62"/>
      <use x="1350" xlink:href="#DejaVuSans-79"/>
      <use x="1409.179688" xlink:href="#DejaVuSans-20"/>
      <use x="1440.966797" xlink:href="#DejaVuSans-72"/>
      <use x="1482.064453" xlink:href="#DejaVuSans-64"/>
      <use x="1545.541016" xlink:href="#DejaVuSans-6b"/>
      <use x="1603.451172" xlink:href="#DejaVuSans-69"/>
      <use x="1631.234375" xlink:href="#DejaVuSans-74"/>
      <use x="1670.443359" xlink:href="#DejaVuSans-2d"/>
      <use x="1706.527344" xlink:href="#DejaVuSans-6d"/>
      <use x="1803.939453" xlink:href="#DejaVuSans-64"/>
      <use x="1867.416016" xlink:href="#DejaVuSans-20"/>
      <use x="1899.203125" xlink:href="#DejaVuSans-71"/>
      <use x="1962.679688" xlink:href="#DejaVuSans-73"/>
      <use x="2014.779297" xlink:href="#DejaVuSans-70"/>
      <use x="2078.255859" xlink:href="#DejaVuSans-72"/>
      <use x="2119.369141" xlink:href="#DejaVuSans-29"/>
     </g>
    </g>
   </g>
   <g id="matplotlib.axis_2">
    <g id="ytick_1">
     <g id="line2d_7"/>
     <g id="text_8">
      <!-- 800 -->
      <g style="fill:#262626;" transform="translate(18.9125 272.622154)scale(0.1 -0.1)">
       <use xlink:href="#DejaVuSans-38"/>
       <use x="63.623047" xlink:href="#DejaVuSans-30"/>
       <use x="127.246094" xlink:href="#DejaVuSans-30"/>
      </g>
     </g>
    </g>
    <g id="ytick_2">
     <g id="line2d_8"/>
     <g id="text_9">
      <!-- 1000 -->
      <g style="fill:#262626;" transform="translate(12.55 214.821138)scale(0.1 -0.1)">
       <use xlink:href="#DejaVuSans-31"/>
       <use x="63.623047" xlink:href="#DejaVuSans-30"/>
       <use x="127.246094" xlink:href="#DejaVuSans-30"/>
       <use x="190.869141" xlink:href="#DejaVuSans-30"/>
      </g>
     </g>
    </g>
    <g id="ytick_3">
     <g id="line2d_9"/>
     <g id="text_10">
      <!-- 1200 -->
      <g style="fill:#262626;" transform="translate(12.55 157.020123)scale(0.1 -0.1)">
       <use xlink:href="#DejaVuSans-31"/>
       <use x="63.623047" xlink:href="#DejaVuSans-32"/>
       <use x="127.246094" xlink:href="#DejaVuSans-30"/>
       <use x="190.869141" xlink:href="#DejaVuSans-30"/>
      </g>
     </g>
    </g>
    <g id="ytick_4">
     <g id="line2d_10"/>
     <g id="text_11">
      <!-- 1400 -->
      <g style="fill:#262626;" transform="translate(12.55 99.219108)scale(0.1 -0.1)">
       <use xlink:href="#DejaVuSans-31"/>
       <use x="63.623047" xlink:href="#DejaVuSans-34"/>
       <use x="127.246094" xlink:href="#DejaVuSans-30"/>
       <use x="190.869141" xlink:href="#DejaVuSans-30"/>
      </g>
     </g>
    </g>
    <g id="text_12">
     <!-- Density Prediction $(kg/m^3)$ -->
     <defs>
      <path d="M 19.671875 64.796875 
L 19.671875 8.109375 
L 31.59375 8.109375 
Q 46.6875 8.109375 53.6875 14.9375 
Q 60.6875 21.78125 60.6875 36.53125 
Q 60.6875 51.171875 53.6875 57.984375 
Q 46.6875 64.796875 31.59375 64.796875 
z
M 9.8125 72.90625 
L 30.078125 72.90625 
Q 51.265625 72.90625 61.171875 64.09375 
Q 71.09375 55.28125 71.09375 36.53125 
Q 71.09375 17.671875 61.125 8.828125 
Q 51.171875 0 30.078125 0 
L 9.8125 0 
z
" id="DejaVuSans-44"/>
      <path d="M 19.671875 64.796875 
L 19.671875 37.40625 
L 32.078125 37.40625 
Q 38.96875 37.40625 42.71875 40.96875 
Q 46.484375 44.53125 46.484375 51.125 
Q 46.484375 57.671875 42.71875 61.234375 
Q 38.96875 64.796875 32.078125 64.796875 
z
M 9.8125 72.90625 
L 32.078125 72.90625 
Q 44.34375 72.90625 50.609375 67.359375 
Q 56.890625 61.8125 56.890625 51.125 
Q 56.890625 40.328125 50.609375 34.8125 
Q 44.34375 29.296875 32.078125 29.296875 
L 19.671875 29.296875 
L 19.671875 0 
L 9.8125 0 
z
" id="DejaVuSans-50"/>
      <path d="M 48.78125 52.59375 
L 48.78125 44.1875 
Q 44.96875 46.296875 41.140625 47.34375 
Q 37.3125 48.390625 33.40625 48.390625 
Q 24.65625 48.390625 19.8125 42.84375 
Q 14.984375 37.3125 14.984375 27.296875 
Q 14.984375 17.28125 19.8125 11.734375 
Q 24.65625 6.203125 33.40625 6.203125 
Q 37.3125 6.203125 41.140625 7.25 
Q 44.96875 8.296875 48.78125 10.40625 
L 48.78125 2.09375 
Q 45.015625 0.34375 40.984375 -0.53125 
Q 36.96875 -1.421875 32.421875 -1.421875 
Q 20.0625 -1.421875 12.78125 6.34375 
Q 5.515625 14.109375 5.515625 27.296875 
Q 5.515625 40.671875 12.859375 48.328125 
Q 20.21875 56 33.015625 56 
Q 37.15625 56 41.109375 55.140625 
Q 45.0625 54.296875 48.78125 52.59375 
z
" id="DejaVuSans-63"/>
      <path d="M 18.3125 75.984375 
L 27.296875 75.984375 
L 18.703125 31.6875 
L 49.515625 54.6875 
L 61.1875 54.6875 
L 26.8125 28.515625 
L 51.90625 0 
L 41.015625 0 
L 17.671875 26.703125 
L 12.5 0 
L 3.515625 0 
z
" id="DejaVuSans-Oblique-6b"/>
      <path d="M 59.625 54.6875 
L 50.296875 6.78125 
Q 47.609375 -7.125 40.015625 -13.953125 
Q 32.421875 -20.796875 19.578125 -20.796875 
Q 14.84375 -20.796875 10.78125 -20.09375 
Q 6.734375 -19.390625 3.21875 -17.921875 
L 4.890625 -9.1875 
Q 8.203125 -11.328125 11.90625 -12.34375 
Q 15.625 -13.375 19.828125 -13.375 
Q 28.375 -13.375 33.859375 -8.703125 
Q 39.359375 -4.046875 41.109375 4.6875 
L 41.890625 8.796875 
Q 38.140625 4.5 33.15625 2.25 
Q 28.171875 0 22.40625 0 
Q 14.109375 0 9.34375 5.484375 
Q 4.59375 10.984375 4.59375 20.609375 
Q 4.59375 28.171875 7.46875 35.421875 
Q 10.359375 42.671875 15.578125 48.296875 
Q 19.046875 52 23.65625 54 
Q 28.265625 56 33.296875 56 
Q 38.8125 56 42.90625 53.4375 
Q 47.015625 50.875 49.03125 46.1875 
L 50.59375 54.6875 
z
M 46.09375 34.625 
Q 46.09375 41.265625 42.96875 44.875 
Q 39.84375 48.484375 34.078125 48.484375 
Q 30.515625 48.484375 27.296875 47.0625 
Q 24.078125 45.65625 21.78125 43.109375 
Q 18.0625 38.921875 15.984375 33.234375 
Q 13.921875 27.546875 13.921875 21.484375 
Q 13.921875 14.75 17.0625 11.125 
Q 20.21875 7.515625 26.125 7.515625 
Q 34.671875 7.515625 40.375 15.25 
Q 46.09375 23 46.09375 34.625 
z
" id="DejaVuSans-Oblique-67"/>
      <path d="M 25.390625 72.90625 
L 33.6875 72.90625 
L 8.296875 -9.28125 
L 0 -9.28125 
z
" id="DejaVuSans-2f"/>
      <path d="M 89.796875 33.015625 
L 83.40625 0 
L 74.421875 0 
L 80.71875 32.71875 
Q 81.109375 34.8125 81.296875 36.328125 
Q 81.5 37.84375 81.5 38.921875 
Q 81.5 43.3125 79.046875 45.75 
Q 76.609375 48.1875 72.21875 48.1875 
Q 65.671875 48.1875 60.546875 43.28125 
Q 55.421875 38.375 53.90625 30.515625 
L 47.90625 0 
L 38.921875 0 
L 45.3125 32.71875 
Q 45.703125 34.515625 45.890625 36.046875 
Q 46.09375 37.59375 46.09375 38.8125 
Q 46.09375 43.265625 43.65625 45.71875 
Q 41.21875 48.1875 36.921875 48.1875 
Q 30.28125 48.1875 25.140625 43.28125 
Q 20.015625 38.375 18.5 30.515625 
L 12.5 0 
L 3.515625 0 
L 14.203125 54.6875 
L 23.1875 54.6875 
L 21.484375 46.1875 
Q 25.140625 50.984375 30.046875 53.484375 
Q 34.96875 56 40.578125 56 
Q 46.53125 56 50.359375 52.875 
Q 54.203125 49.75 54.984375 44.1875 
Q 59.078125 49.953125 64.46875 52.96875 
Q 69.875 56 75.875 56 
Q 82.90625 56 86.734375 51.953125 
Q 90.578125 47.90625 90.578125 40.484375 
Q 90.578125 38.875 90.375 36.9375 
Q 90.1875 35.015625 89.796875 33.015625 
z
" id="DejaVuSans-Oblique-6d"/>
      <path d="M 40.578125 39.3125 
Q 47.65625 37.796875 51.625 33 
Q 55.609375 28.21875 55.609375 21.1875 
Q 55.609375 10.40625 48.1875 4.484375 
Q 40.765625 -1.421875 27.09375 -1.421875 
Q 22.515625 -1.421875 17.65625 -0.515625 
Q 12.796875 0.390625 7.625 2.203125 
L 7.625 11.71875 
Q 11.71875 9.328125 16.59375 8.109375 
Q 21.484375 6.890625 26.8125 6.890625 
Q 36.078125 6.890625 40.9375 10.546875 
Q 45.796875 14.203125 45.796875 21.1875 
Q 45.796875 27.640625 41.28125 31.265625 
Q 36.765625 34.90625 28.71875 34.90625 
L 20.21875 34.90625 
L 20.21875 43.015625 
L 29.109375 43.015625 
Q 36.375 43.015625 40.234375 45.921875 
Q 44.09375 48.828125 44.09375 54.296875 
Q 44.09375 59.90625 40.109375 62.90625 
Q 36.140625 65.921875 28.71875 65.921875 
Q 24.65625 65.921875 20.015625 65.03125 
Q 15.375 64.15625 9.8125 62.3125 
L 9.8125 71.09375 
Q 15.4375 72.65625 20.34375 73.4375 
Q 25.25 74.21875 29.59375 74.21875 
Q 40.828125 74.21875 47.359375 69.109375 
Q 53.90625 64.015625 53.90625 55.328125 
Q 53.90625 49.265625 50.4375 45.09375 
Q 46.96875 40.921875 40.578125 39.3125 
z
" id="DejaVuSans-33"/>
     </defs>
     <g style="fill:#262626;" transform="translate(6.24 252.085)rotate(-90)scale(0.11 -0.11)">
      <use transform="translate(0 0.765625)" xlink:href="#DejaVuSans-44"/>
      <use transform="translate(77.001953 0.765625)" xlink:href="#DejaVuSans-65"/>
      <use transform="translate(138.525391 0.765625)" xlink:href="#DejaVuSans-6e"/>
      <use transform="translate(201.904297 0.765625)" xlink:href="#DejaVuSans-73"/>
      <use transform="translate(254.003906 0.765625)" xlink:href="#DejaVuSans-69"/>
      <use transform="translate(281.787109 0.765625)" xlink:href="#DejaVuSans-74"/>
      <use transform="translate(320.996094 0.765625)" xlink:href="#DejaVuSans-79"/>
      <use transform="translate(380.175781 0.765625)" xlink:href="#DejaVuSans-20"/>
      <use transform="translate(411.962891 0.765625)" xlink:href="#DejaVuSans-50"/>
      <use transform="translate(472.265625 0.765625)" xlink:href="#DejaVuSans-72"/>
      <use transform="translate(513.378906 0.765625)" xlink:href="#DejaVuSans-65"/>
      <use transform="translate(574.902344 0.765625)" xlink:href="#DejaVuSans-64"/>
      <use transform="translate(638.378906 0.765625)" xlink:href="#DejaVuSans-69"/>
      <use transform="translate(666.162109 0.765625)" xlink:href="#DejaVuSans-63"/>
      <use transform="translate(721.142578 0.765625)" xlink:href="#DejaVuSans-74"/>
      <use transform="translate(760.351562 0.765625)" xlink:href="#DejaVuSans-69"/>
      <use transform="translate(788.134766 0.765625)" xlink:href="#DejaVuSans-6f"/>
      <use transform="translate(849.316406 0.765625)" xlink:href="#DejaVuSans-6e"/>
      <use transform="translate(912.695312 0.765625)" xlink:href="#DejaVuSans-20"/>
      <use transform="translate(944.482422 0.765625)" xlink:href="#DejaVuSans-28"/>
      <use transform="translate(983.496094 0.765625)" xlink:href="#DejaVuSans-Oblique-6b"/>
      <use transform="translate(1041.40625 0.765625)" xlink:href="#DejaVuSans-Oblique-67"/>
      <use transform="translate(1104.882812 0.765625)" xlink:href="#DejaVuSans-2f"/>
      <use transform="translate(1138.574219 0.765625)" xlink:href="#DejaVuSans-Oblique-6d"/>
      <use transform="translate(1240.636224 39.046875)scale(0.7)" xlink:href="#DejaVuSans-33"/>
      <use transform="translate(1287.906732 0.765625)" xlink:href="#DejaVuSans-29"/>
     </g>
    </g>
   </g>
   <g id="line2d_11">
    <path clip-path="url(#p6bb860f354)" d="M 57.681818 231.252275 
L 60.243802 232.153969 
L 62.805785 232.390956 
L 65.367769 232.607709 
L 67.929752 232.610602 
L 70.491736 233.020985 
L 73.053719 233.223292 
L 75.615702 234.122093 
L 78.177686 234.769462 
L 80.739669 235.688496 
L 83.301653 235.937054 
L 85.863636 235.994841 
L 88.42562 236.480385 
L 90.987603 237.486117 
L 93.549587 237.786676 
L 96.11157 238.844444 
L 98.673554 238.905124 
L 101.235537 238.962928 
L 103.797521 239.714352 
L 106.359504 239.815497 
L 108.921488 241.22295 
L 111.483471 241.717155 
L 114.045455 241.858765 
L 116.607438 241.965695 
L 119.169421 241.980142 
L 121.731405 242.202682 
L 124.293388 242.324059 
L 126.855372 242.529259 
L 129.417355 242.673761 
L 131.979339 243.367363 
L 134.541322 243.425167 
L 137.103306 243.907801 
L 139.665289 243.988731 
L 142.227273 243.994517 
L 144.789256 244.217038 
L 147.35124 244.925104 
L 149.913223 245.245896 
L 152.475207 245.3037 
L 155.03719 245.375952 
L 157.599174 245.549348 
L 160.161157 245.731422 
L 162.72314 245.803674 
L 165.285124 245.835478 
L 167.847107 246.815191 
L 170.409091 247.673546 
L 172.971074 247.844049 
L 175.533058 248.280449 
L 178.095041 248.962515 
L 180.657025 249.182144 
L 183.219008 249.569418 
L 185.780992 249.737046 
L 188.342975 250.216787 
L 190.904959 250.260145 
L 193.466942 250.265913 
L 196.028926 250.297717 
L 198.590909 250.609829 
L 201.152893 250.982657 
L 203.714876 251.040444 
L 206.27686 251.182071 
L 208.838843 251.407486 
L 211.400826 251.502863 
L 213.96281 251.800529 
L 216.524793 251.907459 
L 219.086777 252.358324 
L 221.64876 252.540381 
L 224.210744 252.840958 
L 226.772727 252.953674 
L 229.334711 253.97096 
L 231.896694 254.340895 
L 234.458678 254.69058 
L 237.020661 254.892887 
L 239.582645 254.916012 
L 242.144628 255.202124 
L 244.706612 255.913083 
L 247.268595 258.855153 
L 249.830579 259.24241 
L 252.392562 259.583451 
L 254.954545 260.068978 
L 257.516529 260.38109 
L 260.078512 260.953332 
L 262.640496 261.242337 
L 265.202479 261.418626 
L 267.764463 262.698917 
L 270.326446 264.337571 
L 272.88843 265.817275 
L 275.450413 266.149638 
L 278.012397 266.747881 
L 280.57438 267.057118 
L 283.136364 267.779631 
L 285.698347 275.328442 
L 288.260331 275.331335 
L 290.822314 277.016222 
L 293.384298 278.157795 
L 295.946281 279.143313 
L 298.508264 279.845593 
L 301.070248 281.085418 
L 303.632231 281.539158 
L 306.194215 283.053542 
L 308.756198 288.706481 
L 311.318182 292.495333 
" style="fill:none;stroke:#1f77b4;stroke-linecap:round;stroke-width:1.75;"/>
   </g>
   <g id="line2d_12">
    <path clip-path="url(#p6bb860f354)" d="M 57.681818 223.186151 
L 60.243802 215.221172 
L 62.805785 223.911539 
L 65.367769 226.538603 
L 67.929752 217.001435 
L 70.491736 222.928932 
L 73.053719 223.319082 
L 75.615702 220.348119 
L 78.177686 223.897092 
L 80.739669 221.226688 
L 83.301653 220.377013 
L 85.863636 221.46946 
L 88.42562 231.93143 
L 90.987603 228.550085 
L 93.549587 223.920218 
L 96.11157 230.255204 
L 98.673554 230.532655 
L 101.235537 223.053202 
L 103.797521 240.783657 
L 106.359504 223.975129 
L 108.921488 232.651067 
L 111.483471 233.518083 
L 114.045455 231.518155 
L 116.607438 231.243596 
L 119.169421 228.691694 
L 121.731405 229.550031 
L 124.293388 227.680176 
L 126.855372 242.269147 
L 129.417355 236.026644 
L 131.979339 228.879537 
L 134.541322 243.884693 
L 137.103306 233.032538 
L 139.665289 240.6276 
L 142.227273 230.489297 
L 144.789256 231.240721 
L 147.35124 241.185378 
L 149.913223 230.411278 
L 152.475207 232.9025 
L 155.03719 232.893822 
L 157.599174 232.833124 
L 160.161157 230.064468 
L 162.72314 236.882088 
L 165.285124 234.327293 
L 167.847107 235.148058 
L 170.409091 233.304204 
L 172.971074 242.740227 
L 175.533058 243.124608 
L 178.095041 232.677068 
L 180.657025 240.688298 
L 183.219008 237.928285 
L 185.780992 239.991786 
L 188.342975 244.688118 
L 190.904959 250.893066 
L 193.466942 238.468723 
L 196.028926 244.861532 
L 198.590909 238.451384 
L 201.152893 248.754422 
L 203.714876 237.072841 
L 206.27686 238.905124 
L 208.838843 242.852943 
L 211.400826 247.425005 
L 213.96281 239.09877 
L 216.524793 241.381899 
L 219.086777 238.887784 
L 221.64876 236.847409 
L 224.210744 238.081466 
L 226.772727 238.474509 
L 229.334711 247.679331 
L 231.896694 240.523563 
L 234.458678 245.387506 
L 237.020661 259.115247 
L 239.582645 245.335487 
L 242.144628 240.529331 
L 244.706612 251.424826 
L 247.268595 261.817455 
L 249.830579 250.228341 
L 252.392562 239.73746 
L 254.954545 251.74851 
L 257.516529 261.90126 
L 260.078512 262.956135 
L 262.640496 241.852979 
L 265.202479 263.531253 
L 267.764463 259.990941 
L 270.326446 267.398142 
L 272.88843 263.409876 
L 275.450413 268.8894 
L 278.012397 270.132136 
L 280.57438 260.068978 
L 283.136364 265.265283 
L 285.698347 272.126261 
L 288.260331 269.028135 
L 290.822314 271.883507 
L 293.384298 275.14926 
L 295.946281 267.340338 
L 298.508264 269.701504 
L 301.070248 268.273818 
L 303.632231 278.238725 
L 306.194215 269.779541 
L 308.756198 281.556498 
L 311.318182 281.458228 
" style="fill:none;stroke:#2ca02c;stroke-linecap:round;stroke-width:1.75;"/>
   </g>
   <g id="line2d_13">
    <path clip-path="url(#p6bb860f354)" d="M 57.681818 230.732722 
L 60.243802 251.760893 
L 62.805785 246.995237 
L 65.367769 123.787861 
L 67.929752 55.554545 
L 70.491736 285.204922 
L 73.053719 254.388363 
L 75.615702 280.70841 
L 78.177686 256.480827 
L 80.739669 281.909552 
L 83.301653 190.737764 
L 85.863636 273.054891 
L 88.42562 258.035023 
L 90.987603 253.6592 
L 93.549587 265.933519 
L 96.11157 295.722668 
L 98.673554 264.825602 
L 101.235537 174.867885 
L 103.797521 175.054335 
L 106.359504 273.303131 
L 108.921488 259.790539 
L 111.483471 206.529782 
L 114.045455 277.498626 
L 116.607438 273.421492 
L 119.169421 279.309829 
L 121.731405 281.051057 
L 124.293388 253.543944 
L 126.855372 271.52449 
L 129.417355 242.761165 
L 131.979339 287.087671 
L 134.541322 179.074476 
L 137.103306 281.746105 
L 139.665289 268.170116 
L 142.227273 262.364419 
L 144.789256 282.098965 
L 147.35124 239.031846 
L 149.913223 278.27695 
L 152.475207 302.645455 
L 155.03719 203.172355 
L 157.599174 280.453202 
L 160.161157 280.406704 
L 162.72314 252.657084 
L 165.285124 249.352753 
L 167.847107 281.145128 
L 170.409091 284.151158 
L 172.971074 251.084613 
L 175.533058 111.188376 
L 178.095041 277.180604 
L 180.657025 281.681562 
L 183.219008 261.101328 
L 185.780992 276.710001 
L 188.342975 226.388632 
L 190.904959 234.456291 
L 193.466942 266.624246 
L 196.028926 111.869541 
L 198.590909 147.448917 
L 201.152893 247.85428 
L 203.714876 217.563182 
L 206.27686 252.336169 
L 208.838843 238.669319 
L 211.400826 129.372482 
L 213.96281 254.769569 
L 216.524793 295.695398 
L 219.086777 158.680779 
L 221.64876 275.856691 
L 224.210744 296.007334 
L 226.772727 268.419944 
L 229.334711 286.709922 
L 231.896694 156.915421 
L 234.458678 209.353473 
L 237.020661 252.274854 
L 239.582645 129.304605 
L 242.144628 153.7503 
L 244.706612 225.852622 
L 247.268595 246.717698 
L 249.830579 202.466882 
L 252.392562 223.865306 
L 254.954545 226.450476 
L 257.516529 247.334656 
L 260.078512 247.52989 
L 262.640496 296.984155 
L 265.202479 271.944133 
L 267.764463 283.087869 
L 270.326446 267.305041 
L 272.88843 278.698869 
L 275.450413 269.682789 
L 278.012397 237.108738 
L 280.57438 230.36381 
L 283.136364 241.65928 
L 285.698347 293.563826 
L 288.260331 232.377991 
L 290.822314 232.640642 
L 293.384298 211.197679 
L 295.946281 266.103581 
L 298.508264 288.754442 
L 301.070248 269.351943 
L 303.632231 261.790749 
L 306.194215 274.718399 
L 308.756198 285.636648 
L 311.318182 265.461099 
" style="fill:none;stroke:#d62728;stroke-linecap:round;stroke-width:1.75;"/>
   </g>
   <g id="patch_3">
    <path d="M 45 315 
L 45 43.2 
" style="fill:none;stroke:#cccccc;stroke-linecap:square;stroke-linejoin:miter;"/>
   </g>
   <g id="patch_4">
    <path d="M 324 315 
L 324 43.2 
" style="fill:none;stroke:#cccccc;stroke-linecap:square;stroke-linejoin:miter;"/>
   </g>
   <g id="patch_5">
    <path d="M 45 315 
L 324 315 
" style="fill:none;stroke:#cccccc;stroke-linecap:square;stroke-linejoin:miter;"/>
   </g>
   <g id="patch_6">
    <path d="M 45 43.2 
L 324 43.2 
" style="fill:none;stroke:#cccccc;stroke-linecap:square;stroke-linejoin:miter;"/>
   </g>
   <g id="legend_1">
    <g id="patch_7">
     <path d="M 217.160937 95.234375 
L 317 95.234375 
Q 319 95.234375 319 93.234375 
L 319 50.2 
Q 319 48.2 317 48.2 
L 217.160937 48.2 
Q 215.160937 48.2 215.160937 50.2 
L 215.160937 93.234375 
Q 215.160937 95.234375 217.160937 95.234375 
z
" style="fill:#ffffff;opacity:0.8;stroke:#cccccc;stroke-linejoin:miter;stroke-width:0.3;"/>
    </g>
    <g id="line2d_14">
     <path d="M 219.160937 56.298437 
L 239.160937 56.298437 
" style="fill:none;stroke:#1f77b4;stroke-linecap:round;stroke-width:1.75;"/>
    </g>
    <g id="line2d_15"/>
    <g id="text_13">
     <!-- rdkit qspr -->
     <g style="fill:#262626;" transform="translate(247.160937 59.798437)scale(0.1 -0.1)">
      <use xlink:href="#DejaVuSans-72"/>
      <use x="41.097656" xlink:href="#DejaVuSans-64"/>
      <use x="104.574219" xlink:href="#DejaVuSans-6b"/>
      <use x="162.484375" xlink:href="#DejaVuSans-69"/>
      <use x="190.267578" xlink:href="#DejaVuSans-74"/>
      <use x="229.476562" xlink:href="#DejaVuSans-20"/>
      <use x="261.263672" xlink:href="#DejaVuSans-71"/>
      <use x="324.740234" xlink:href="#DejaVuSans-73"/>
      <use x="376.839844" xlink:href="#DejaVuSans-70"/>
      <use x="440.316406" xlink:href="#DejaVuSans-72"/>
     </g>
    </g>
    <g id="line2d_16">
     <path d="M 219.160937 70.976562 
L 239.160937 70.976562 
" style="fill:none;stroke:#2ca02c;stroke-linecap:round;stroke-width:1.75;"/>
    </g>
    <g id="line2d_17"/>
    <g id="text_14">
     <!-- rdkit-md qspr -->
     <g style="fill:#262626;" transform="translate(247.160937 74.476562)scale(0.1 -0.1)">
      <use xlink:href="#DejaVuSans-72"/>
      <use x="41.097656" xlink:href="#DejaVuSans-64"/>
      <use x="104.574219" xlink:href="#DejaVuSans-6b"/>
      <use x="162.484375" xlink:href="#DejaVuSans-69"/>
      <use x="190.267578" xlink:href="#DejaVuSans-74"/>
      <use x="229.476562" xlink:href="#DejaVuSans-2d"/>
      <use x="265.560547" xlink:href="#DejaVuSans-6d"/>
      <use x="362.972656" xlink:href="#DejaVuSans-64"/>
      <use x="426.449219" xlink:href="#DejaVuSans-20"/>
      <use x="458.236328" xlink:href="#DejaVuSans-71"/>
      <use x="521.712891" xlink:href="#DejaVuSans-73"/>
      <use x="573.8125" xlink:href="#DejaVuSans-70"/>
      <use x="637.289062" xlink:href="#DejaVuSans-72"/>
     </g>
    </g>
    <g id="line2d_18">
     <path d="M 219.160937 85.654687 
L 239.160937 85.654687 
" style="fill:none;stroke:#d62728;stroke-linecap:round;stroke-width:1.75;"/>
    </g>
    <g id="line2d_19"/>
    <g id="text_15">
     <!-- vae qspr -->
     <g style="fill:#262626;" transform="translate(247.160937 89.154687)scale(0.1 -0.1)">
      <use xlink:href="#DejaVuSans-76"/>
      <use x="59.179688" xlink:href="#DejaVuSans-61"/>
      <use x="120.458984" xlink:href="#DejaVuSans-65"/>
      <use x="181.982422" xlink:href="#DejaVuSans-20"/>
      <use x="213.769531" xlink:href="#DejaVuSans-71"/>
      <use x="277.246094" xlink:href="#DejaVuSans-73"/>
      <use x="329.345703" xlink:href="#DejaVuSans-70"/>
      <use x="392.822266" xlink:href="#DejaVuSans-72"/>
     </g>
    </g>
   </g>
  </g>
 </g>
 <defs>
  <clipPath id="p6bb860f354">
   <rect height="271.8" width="279" x="45" y="43.2"/>
  </clipPath>
 </defs>
</svg>
