<?xml version="1.0" encoding="UTF-8" standalone="no"?>
<!DOCTYPE svg PUBLIC "-//W3C//DTD SVG 1.1//EN"
 "http://www.w3.org/Graphics/SVG/1.1/DTD/svg11.dtd">
<!-- Generated by graphviz version 2.40.1 (20161225.0304)
 -->
<!-- Title: G Pages: 1 -->
<svg width="704pt" height="1067pt"
 viewBox="0.00 0.00 704.05 1067.00" xmlns="http://www.w3.org/2000/svg" xmlns:xlink="http://www.w3.org/1999/xlink">
<g id="graph0" class="graph" transform="scale(1 1) rotate(0) translate(4 1063)">
<title>G</title>
<polygon fill="#ffffff" stroke="transparent" points="-4,4 -4,-1063 700.0458,-1063 700.0458,4 -4,4"/>
<!-- 140072319408616 -->
<g id="node1" class="node">
<title>140072319408616</title>
<polygon fill="none" stroke="#000000" points="206.4587,-1022.5 206.4587,-1058.5 414.1397,-1058.5 414.1397,-1022.5 206.4587,-1022.5"/>
<text text-anchor="middle" x="310.2992" y="-1036.3" font-family="Times,serif" font-size="14.00" fill="#000000">one_hot_cation_input: InputLayer</text>
</g>
<!-- 140072306673256 -->
<g id="node3" class="node">
<title>140072306673256</title>
<polygon fill="none" stroke="#000000" points="335.9741,-949.5 335.9741,-985.5 508.6243,-985.5 508.6243,-949.5 335.9741,-949.5"/>
<text text-anchor="middle" x="422.2992" y="-963.3" font-family="Times,serif" font-size="14.00" fill="#000000">concatenate_2: Concatenate</text>
</g>
<!-- 140072319408616&#45;&gt;140072306673256 -->
<g id="edge1" class="edge">
<title>140072319408616&#45;&gt;140072306673256</title>
<path fill="none" stroke="#000000" d="M337.9846,-1022.4551C352.5232,-1012.979 370.5172,-1001.2508 386.1434,-991.0658"/>
<polygon fill="#000000" stroke="#000000" points="388.0777,-993.983 394.5441,-985.5904 384.2554,-988.1186 388.0777,-993.983"/>
</g>
<!-- 140072322248320 -->
<g id="node2" class="node">
<title>140072322248320</title>
<polygon fill="none" stroke="#000000" points="432.0113,-1022.5 432.0113,-1058.5 636.5871,-1058.5 636.5871,-1022.5 432.0113,-1022.5"/>
<text text-anchor="middle" x="534.2992" y="-1036.3" font-family="Times,serif" font-size="14.00" fill="#000000">one_hot_anion_input: InputLayer</text>
</g>
<!-- 140072322248320&#45;&gt;140072306673256 -->
<g id="edge2" class="edge">
<title>140072322248320&#45;&gt;140072306673256</title>
<path fill="none" stroke="#000000" d="M506.6138,-1022.4551C492.0752,-1012.979 474.0812,-1001.2508 458.455,-991.0658"/>
<polygon fill="#000000" stroke="#000000" points="460.343,-988.1186 450.0543,-985.5904 456.5207,-993.983 460.343,-988.1186"/>
</g>
<!-- 140072306761456 -->
<g id="node4" class="node">
<title>140072306761456</title>
<polygon fill="none" stroke="#000000" points="366.275,-876.5 366.275,-912.5 478.3234,-912.5 478.3234,-876.5 366.275,-876.5"/>
<text text-anchor="middle" x="422.2992" y="-890.3" font-family="Times,serif" font-size="14.00" fill="#000000">conv_1: Conv1D</text>
</g>
<!-- 140072306673256&#45;&gt;140072306761456 -->
<g id="edge3" class="edge">
<title>140072306673256&#45;&gt;140072306761456</title>
<path fill="none" stroke="#000000" d="M422.2992,-949.4551C422.2992,-941.3828 422.2992,-931.6764 422.2992,-922.6817"/>
<polygon fill="#000000" stroke="#000000" points="425.7993,-922.5903 422.2992,-912.5904 418.7993,-922.5904 425.7993,-922.5903"/>
</g>
<!-- 140072306864648 -->
<g id="node5" class="node">
<title>140072306864648</title>
<polygon fill="none" stroke="#000000" points="366.275,-803.5 366.275,-839.5 478.3234,-839.5 478.3234,-803.5 366.275,-803.5"/>
<text text-anchor="middle" x="422.2992" y="-817.3" font-family="Times,serif" font-size="14.00" fill="#000000">conv_2: Conv1D</text>
</g>
<!-- 140072306761456&#45;&gt;140072306864648 -->
<g id="edge4" class="edge">
<title>140072306761456&#45;&gt;140072306864648</title>
<path fill="none" stroke="#000000" d="M422.2992,-876.4551C422.2992,-868.3828 422.2992,-858.6764 422.2992,-849.6817"/>
<polygon fill="#000000" stroke="#000000" points="425.7993,-849.5903 422.2992,-839.5904 418.7993,-849.5904 425.7993,-849.5903"/>
</g>
<!-- 140072306541904 -->
<g id="node6" class="node">
<title>140072306541904</title>
<polygon fill="none" stroke="#000000" points="366.275,-730.5 366.275,-766.5 478.3234,-766.5 478.3234,-730.5 366.275,-730.5"/>
<text text-anchor="middle" x="422.2992" y="-744.3" font-family="Times,serif" font-size="14.00" fill="#000000">conv_3: Conv1D</text>
</g>
<!-- 140072306864648&#45;&gt;140072306541904 -->
<g id="edge5" class="edge">
<title>140072306864648&#45;&gt;140072306541904</title>
<path fill="none" stroke="#000000" d="M422.2992,-803.4551C422.2992,-795.3828 422.2992,-785.6764 422.2992,-776.6817"/>
<polygon fill="#000000" stroke="#000000" points="425.7993,-776.5903 422.2992,-766.5904 418.7993,-776.5904 425.7993,-776.5903"/>
</g>
<!-- 140072306541456 -->
<g id="node7" class="node">
<title>140072306541456</title>
<polygon fill="none" stroke="#000000" points="366.2813,-657.5 366.2813,-693.5 478.3171,-693.5 478.3171,-657.5 366.2813,-657.5"/>
<text text-anchor="middle" x="422.2992" y="-671.3" font-family="Times,serif" font-size="14.00" fill="#000000">flatten_1: Flatten</text>
</g>
<!-- 140072306541904&#45;&gt;140072306541456 -->
<g id="edge6" class="edge">
<title>140072306541904&#45;&gt;140072306541456</title>
<path fill="none" stroke="#000000" d="M422.2992,-730.4551C422.2992,-722.3828 422.2992,-712.6764 422.2992,-703.6817"/>
<polygon fill="#000000" stroke="#000000" points="425.7993,-703.5903 422.2992,-693.5904 418.7993,-703.5904 425.7993,-703.5903"/>
</g>
<!-- 140072306173824 -->
<g id="node8" class="node">
<title>140072306173824</title>
<polygon fill="none" stroke="#000000" points="370.1768,-584.5 370.1768,-620.5 474.4216,-620.5 474.4216,-584.5 370.1768,-584.5"/>
<text text-anchor="middle" x="422.2992" y="-598.3" font-family="Times,serif" font-size="14.00" fill="#000000">dense_1: Dense</text>
</g>
<!-- 140072306541456&#45;&gt;140072306173824 -->
<g id="edge7" class="edge">
<title>140072306541456&#45;&gt;140072306173824</title>
<path fill="none" stroke="#000000" d="M422.2992,-657.4551C422.2992,-649.3828 422.2992,-639.6764 422.2992,-630.6817"/>
<polygon fill="#000000" stroke="#000000" points="425.7993,-630.5903 422.2992,-620.5904 418.7993,-630.5904 425.7993,-630.5903"/>
</g>
<!-- 140072305915776 -->
<g id="node9" class="node">
<title>140072305915776</title>
<polygon fill="none" stroke="#000000" points="308.3465,-511.5 308.3465,-547.5 410.2519,-547.5 410.2519,-511.5 308.3465,-511.5"/>
<text text-anchor="middle" x="359.2992" y="-525.3" font-family="Times,serif" font-size="14.00" fill="#000000">z_mean: Dense</text>
</g>
<!-- 140072306173824&#45;&gt;140072305915776 -->
<g id="edge8" class="edge">
<title>140072306173824&#45;&gt;140072305915776</title>
<path fill="none" stroke="#000000" d="M406.7262,-584.4551C399.154,-575.6809 389.9154,-564.9759 381.6107,-555.353"/>
<polygon fill="#000000" stroke="#000000" points="384.0947,-552.8742 374.9114,-547.5904 378.7953,-557.4477 384.0947,-552.8742"/>
</g>
<!-- 140072305916168 -->
<g id="node10" class="node">
<title>140072305916168</title>
<polygon fill="none" stroke="#000000" points="428.1235,-511.5 428.1235,-547.5 542.4749,-547.5 542.4749,-511.5 428.1235,-511.5"/>
<text text-anchor="middle" x="485.2992" y="-525.3" font-family="Times,serif" font-size="14.00" fill="#000000">z_log_var: Dense</text>
</g>
<!-- 140072306173824&#45;&gt;140072305916168 -->
<g id="edge9" class="edge">
<title>140072306173824&#45;&gt;140072305916168</title>
<path fill="none" stroke="#000000" d="M437.8722,-584.4551C445.4444,-575.6809 454.683,-564.9759 462.9877,-555.353"/>
<polygon fill="#000000" stroke="#000000" points="465.8031,-557.4477 469.687,-547.5904 460.5037,-552.8742 465.8031,-557.4477"/>
</g>
<!-- 140072305575360 -->
<g id="node11" class="node">
<title>140072305575360</title>
<polygon fill="none" stroke="#000000" points="367.0625,-438.5 367.0625,-474.5 477.5359,-474.5 477.5359,-438.5 367.0625,-438.5"/>
<text text-anchor="middle" x="422.2992" y="-452.3" font-family="Times,serif" font-size="14.00" fill="#000000">lambda: Lambda</text>
</g>
<!-- 140072305915776&#45;&gt;140072305575360 -->
<g id="edge10" class="edge">
<title>140072305915776&#45;&gt;140072305575360</title>
<path fill="none" stroke="#000000" d="M374.8722,-511.4551C382.4444,-502.6809 391.683,-491.9759 399.9877,-482.353"/>
<polygon fill="#000000" stroke="#000000" points="402.8031,-484.4477 406.687,-474.5904 397.5037,-479.8742 402.8031,-484.4477"/>
</g>
<!-- 140072305916168&#45;&gt;140072305575360 -->
<g id="edge11" class="edge">
<title>140072305916168&#45;&gt;140072305575360</title>
<path fill="none" stroke="#000000" d="M469.7262,-511.4551C462.154,-502.6809 452.9154,-491.9759 444.6107,-482.353"/>
<polygon fill="#000000" stroke="#000000" points="447.0947,-479.8742 437.9114,-474.5904 441.7953,-484.4477 447.0947,-479.8742"/>
</g>
<!-- 140072305577264 -->
<g id="node12" class="node">
<title>140072305577264</title>
<polygon fill="none" stroke="#000000" points="289.6726,-365.5 289.6726,-401.5 414.9258,-401.5 414.9258,-365.5 289.6726,-365.5"/>
<text text-anchor="middle" x="352.2992" y="-379.3" font-family="Times,serif" font-size="14.00" fill="#000000">latent_input: Dense</text>
</g>
<!-- 140072305575360&#45;&gt;140072305577264 -->
<g id="edge12" class="edge">
<title>140072305575360&#45;&gt;140072305577264</title>
<path fill="none" stroke="#000000" d="M404.9958,-438.4551C396.4981,-429.5932 386.1117,-418.7616 376.8132,-409.0646"/>
<polygon fill="#000000" stroke="#000000" points="379.0936,-406.3858 369.6461,-401.5904 374.0411,-411.2306 379.0936,-406.3858"/>
</g>
<!-- 140072233287016 -->
<g id="node15" class="node">
<title>140072233287016</title>
<polygon fill="none" stroke="#000000" points="435.1705,-365.5 435.1705,-401.5 553.4279,-401.5 553.4279,-365.5 435.1705,-365.5"/>
<text text-anchor="middle" x="494.2992" y="-379.3" font-family="Times,serif" font-size="14.00" fill="#000000">qspr_input: Dense</text>
</g>
<!-- 140072305575360&#45;&gt;140072233287016 -->
<g id="edge15" class="edge">
<title>140072305575360&#45;&gt;140072233287016</title>
<path fill="none" stroke="#000000" d="M440.097,-438.4551C448.924,-429.5054 459.7323,-418.547 469.3685,-408.7769"/>
<polygon fill="#000000" stroke="#000000" points="471.9264,-411.1678 476.4567,-401.5904 466.9426,-406.2523 471.9264,-411.1678"/>
</g>
<!-- 140072305657728 -->
<g id="node13" class="node">
<title>140072305657728</title>
<polygon fill="none" stroke="#000000" points="260.0372,-292.5 260.0372,-328.5 436.5612,-328.5 436.5612,-292.5 260.0372,-292.5"/>
<text text-anchor="middle" x="348.2992" y="-306.3" font-family="Times,serif" font-size="14.00" fill="#000000">repeat_vector: RepeatVector</text>
</g>
<!-- 140072305577264&#45;&gt;140072305657728 -->
<g id="edge13" class="edge">
<title>140072305577264&#45;&gt;140072305657728</title>
<path fill="none" stroke="#000000" d="M351.3104,-365.4551C350.8681,-357.3828 350.3363,-347.6764 349.8434,-338.6817"/>
<polygon fill="#000000" stroke="#000000" points="353.3324,-338.3839 349.2905,-328.5904 346.3429,-338.7669 353.3324,-338.3839"/>
</g>
<!-- 140072305753280 -->
<g id="node14" class="node">
<title>140072305753280</title>
<polygon fill="none" stroke="#000000" points="305.4987,-219.5 305.4987,-255.5 391.0997,-255.5 391.0997,-219.5 305.4987,-219.5"/>
<text text-anchor="middle" x="348.2992" y="-233.3" font-family="Times,serif" font-size="14.00" fill="#000000">gru_1: GRU</text>
</g>
<!-- 140072305657728&#45;&gt;140072305753280 -->
<g id="edge14" class="edge">
<title>140072305657728&#45;&gt;140072305753280</title>
<path fill="none" stroke="#000000" d="M348.2992,-292.4551C348.2992,-284.3828 348.2992,-274.6764 348.2992,-265.6817"/>
<polygon fill="#000000" stroke="#000000" points="351.7993,-265.5903 348.2992,-255.5904 344.7993,-265.5904 351.7993,-265.5903"/>
</g>
<!-- 140072305525592 -->
<g id="node16" class="node">
<title>140072305525592</title>
<polygon fill="none" stroke="#000000" points="305.4987,-146.5 305.4987,-182.5 391.0997,-182.5 391.0997,-146.5 305.4987,-146.5"/>
<text text-anchor="middle" x="348.2992" y="-160.3" font-family="Times,serif" font-size="14.00" fill="#000000">gru_2: GRU</text>
</g>
<!-- 140072305753280&#45;&gt;140072305525592 -->
<g id="edge16" class="edge">
<title>140072305753280&#45;&gt;140072305525592</title>
<path fill="none" stroke="#000000" d="M348.2992,-219.4551C348.2992,-211.3828 348.2992,-201.6764 348.2992,-192.6817"/>
<polygon fill="#000000" stroke="#000000" points="351.7993,-192.5903 348.2992,-182.5904 344.7993,-192.5904 351.7993,-192.5903"/>
</g>
<!-- 140072233373200 -->
<g id="node17" class="node">
<title>140072233373200</title>
<polygon fill="none" stroke="#000000" points="454.6684,-292.5 454.6684,-328.5 537.93,-328.5 537.93,-292.5 454.6684,-292.5"/>
<text text-anchor="middle" x="496.2992" y="-306.3" font-family="Times,serif" font-size="14.00" fill="#000000">hl_1: Dense</text>
</g>
<!-- 140072233287016&#45;&gt;140072233373200 -->
<g id="edge17" class="edge">
<title>140072233287016&#45;&gt;140072233373200</title>
<path fill="none" stroke="#000000" d="M494.7936,-365.4551C495.0147,-357.3828 495.2807,-347.6764 495.5271,-338.6817"/>
<polygon fill="#000000" stroke="#000000" points="499.0283,-338.6825 495.8036,-328.5904 492.0309,-338.4907 499.0283,-338.6825"/>
</g>
<!-- 140072236784664 -->
<g id="node18" class="node">
<title>140072236784664</title>
<polygon fill="none" stroke="#000000" points="305.4987,-73.5 305.4987,-109.5 391.0997,-109.5 391.0997,-73.5 305.4987,-73.5"/>
<text text-anchor="middle" x="348.2992" y="-87.3" font-family="Times,serif" font-size="14.00" fill="#000000">gru_3: GRU</text>
</g>
<!-- 140072305525592&#45;&gt;140072236784664 -->
<g id="edge18" class="edge">
<title>140072305525592&#45;&gt;140072236784664</title>
<path fill="none" stroke="#000000" d="M348.2992,-146.4551C348.2992,-138.3828 348.2992,-128.6764 348.2992,-119.6817"/>
<polygon fill="#000000" stroke="#000000" points="351.7993,-119.5903 348.2992,-109.5904 344.7993,-119.5904 351.7993,-119.5903"/>
</g>
<!-- 140072233447376 -->
<g id="node19" class="node">
<title>140072233447376</title>
<polygon fill="none" stroke="#000000" points="432.4994,-219.5 432.4994,-255.5 560.099,-255.5 560.099,-219.5 432.4994,-219.5"/>
<text text-anchor="middle" x="496.2992" y="-233.3" font-family="Times,serif" font-size="14.00" fill="#000000">dropout_1: Dropout</text>
</g>
<!-- 140072233373200&#45;&gt;140072233447376 -->
<g id="edge19" class="edge">
<title>140072233373200&#45;&gt;140072233447376</title>
<path fill="none" stroke="#000000" d="M496.2992,-292.4551C496.2992,-284.3828 496.2992,-274.6764 496.2992,-265.6817"/>
<polygon fill="#000000" stroke="#000000" points="499.7993,-265.5903 496.2992,-255.5904 492.7993,-265.5904 499.7993,-265.5903"/>
</g>
<!-- 140072234076480 -->
<g id="node20" class="node">
<title>140072234076480</title>
<polygon fill="none" stroke="#000000" points="0,-.5 0,-36.5 340.5984,-36.5 340.5984,-.5 0,-.5"/>
<text text-anchor="middle" x="170.2992" y="-14.3" font-family="Times,serif" font-size="14.00" fill="#000000">decoded_cation_mean(dense_3): TimeDistributed(Dense)</text>
</g>
<!-- 140072236784664&#45;&gt;140072234076480 -->
<g id="edge20" class="edge">
<title>140072236784664&#45;&gt;140072234076480</title>
<path fill="none" stroke="#000000" d="M305.2104,-73.8287C280.6518,-63.757 249.6708,-51.0513 223.5927,-40.3563"/>
<polygon fill="#000000" stroke="#000000" points="224.808,-37.0719 214.2278,-36.5157 222.1519,-43.5484 224.808,-37.0719"/>
</g>
<!-- 140072233287632 -->
<g id="node21" class="node">
<title>140072233287632</title>
<polygon fill="none" stroke="#000000" points="358.5526,-.5 358.5526,-36.5 696.0458,-36.5 696.0458,-.5 358.5526,-.5"/>
<text text-anchor="middle" x="527.2992" y="-14.3" font-family="Times,serif" font-size="14.00" fill="#000000">decoded_anion_mean(dense_4): TimeDistributed(Dense)</text>
</g>
<!-- 140072236784664&#45;&gt;140072233287632 -->
<g id="edge21" class="edge">
<title>140072236784664&#45;&gt;140072233287632</title>
<path fill="none" stroke="#000000" d="M391.1742,-74.0147C415.8613,-63.9467 447.1149,-51.2009 473.4472,-40.462"/>
<polygon fill="#000000" stroke="#000000" points="474.9668,-43.6222 482.9047,-36.605 472.3234,-37.1405 474.9668,-43.6222"/>
</g>
<!-- 140072233026000 -->
<g id="node22" class="node">
<title>140072233026000</title>
<polygon fill="none" stroke="#000000" points="455.0611,-146.5 455.0611,-182.5 537.5373,-182.5 537.5373,-146.5 455.0611,-146.5"/>
<text text-anchor="middle" x="496.2992" y="-160.3" font-family="Times,serif" font-size="14.00" fill="#000000">qspr: Dense</text>
</g>
<!-- 140072233447376&#45;&gt;140072233026000 -->
<g id="edge22" class="edge">
<title>140072233447376&#45;&gt;140072233026000</title>
<path fill="none" stroke="#000000" d="M496.2992,-219.4551C496.2992,-211.3828 496.2992,-201.6764 496.2992,-192.6817"/>
<polygon fill="#000000" stroke="#000000" points="499.7993,-192.5903 496.2992,-182.5904 492.7993,-192.5904 499.7993,-192.5903"/>
</g>
</g>
</svg>
